<svg id="圖層_1" data-name="圖層 1" xmlns="http://www.w3.org/2000/svg" viewBox="0 0 50 50"><defs><style>.cls-1{fill:#040000;}</style></defs><path class="cls-1" d="M25,12.18A12.82,12.82,0,1,0,37.82,25,12.8,12.8,0,0,0,25,12.18Zm0,21.15A8.33,8.33,0,1,1,33.34,25,8.35,8.35,0,0,1,25,33.33ZM41.34,11.66a3,3,0,1,1-3-3A3,3,0,0,1,41.34,11.66Zm8.48,3c-.19-4-1.1-7.55-4-10.47S39.32.38,35.31.18,18.81,0,14.69.18s-7.54,1.11-10.48,4S.38,10.68.18,14.68s-.24,16.5,0,20.63,1.1,7.55,4,10.47,6.47,3.84,10.48,4,16.5.23,20.62,0,7.55-1.11,10.48-4,3.83-6.47,4-10.47.24-16.49,0-20.62ZM44.49,39.74a8.44,8.44,0,0,1-4.75,4.75c-3.29,1.3-11.1,1-14.73,1s-11.46.29-14.74-1a8.44,8.44,0,0,1-4.75-4.75c-1.31-3.3-1-11.1-1-14.74s-.29-11.46,1-14.74a8.44,8.44,0,0,1,4.75-4.75c3.29-1.3,11.1-1,14.74-1s11.45-.29,14.73,1a8.44,8.44,0,0,1,4.75,4.75c1.31,3.3,1,11.1,1,14.74S45.8,36.46,44.49,39.74Z"/></svg>