<svg id="圖層_1" data-name="圖層 1" xmlns="http://www.w3.org/2000/svg" viewBox="0 0 50 50"><defs><style>.cls-1{fill:#040000;}</style></defs><path class="cls-1" d="M40.34,20.55a1.31,1.31,0,0,1,0,2.62H36.69v2.35h3.65a1.31,1.31,0,1,1,0,2.62h-5a1.31,1.31,0,0,1-1.3-1.31V16.89a1.31,1.31,0,0,1,1.31-1.31h5a1.31,1.31,0,0,1,0,2.62H36.69v2.35Zm-8,6.28a1.3,1.3,0,0,1-1.3,1.3h0a1.27,1.27,0,0,1-1.06-.51L24.85,20.7v6.13a1.31,1.31,0,0,1-2.62,0h0V16.89a1.31,1.31,0,0,1,.9-1.24,1.09,1.09,0,0,1,.4-.07,1.33,1.33,0,0,1,1,.53l5.13,6.94V16.89a1.31,1.31,0,1,1,2.62-.07v10Zm-12,0a1.31,1.31,0,1,1-2.62.07v-10a1.31,1.31,0,1,1,2.62-.07v10Zm-5.14,1.31h-5a1.32,1.32,0,0,1-1.31-1.31V16.89a1.32,1.32,0,0,1,2.63,0v8.63h3.65a1.31,1.31,0,1,1,0,2.62ZM50,21.49C50,10.3,38.78,1.19,25,1.19S0,10.3,0,21.49c0,10,8.9,18.41,20.91,20,.81.17,1.92.54,2.2,1.23A5,5,0,0,1,23.19,45l-.34,2.13c-.1.63-.5,2.47,2.19,1.34S39.44,40,44.69,33.92C48.28,30,50,26,50,21.49Z"/></svg>