<svg id="圖層_1" data-name="圖層 1" xmlns="http://www.w3.org/2000/svg" viewBox="0 0 50 50"><defs><style>.cls-1{fill:none;}.cls-2{fill:#040000;}</style></defs><path class="cls-1" d="M31.22,29.15c.85.68,1.87,1.19,2.89,1.87.33.17.67,0,1,0,.85-.51,1.7-1,2.38-1.53a3.09,3.09,0,0,0,1.18-1.35,1,1,0,0,0-.51-1.53c-.17-.17-.51,0-.67,0H31.05c-.67.34-1,.85-.67,1.53C30.55,28.64,30.89,28.81,31.22,29.15Z"/><path class="cls-1" d="M40.55,42.54h-10c-.51,0-.68.17-.68.68v2.37c0,.51.17.68.68.68h7.62c2.21,0,3-.85,3.22-3.22C41.39,42.71,41.22,42.54,40.55,42.54Z"/><path class="cls-1" d="M17.83,26.61H12.24c-.68,0-1.19,0-1.35.85-.17,1,0,2,.67,2.37h7c.85-.34.68-1,.68-1.69C19.36,27,18.85,26.61,17.83,26.61Z"/><path class="cls-2" d="M37.33,6.44H28.51c-1.69,0-1.69,0-1.69-1.69,0-1.36-.17-1.19,1-1.19H40.72c.67,0,.84-.17.84-.85V1.19c0-1.19,0-1.19-1-1.19H8.85a1.25,1.25,0,0,0-.34,1c0,.67-.34,1.86.17,2.37s1.53.17,2.21.17H21.05c.68,0,1.53-.34,2,0,.34.34,0,1.36,0,1.86,0,.68,0,.85-.68.85h-10a10,10,0,0,0-10,8.65,47.3,47.3,0,0,0,0,4.91.45.45,0,0,0,.51.51h2.2c.51,0,.68-.17.68-.85v-3A6.4,6.4,0,0,1,12.07,10H22.41c.68,0,.85.17.85.85v7.46c0,.5.17.67.68.67h2c.68,0,.85-.17.85-.84V10.85c0-.51.17-.68.68-.68H38.34a6.62,6.62,0,0,1,5.77,6.61v3c0,.51.16.68.67.68H47c.51,0,.67-.17.67-.68V17.12C47.66,10.85,43.26,6.44,37.33,6.44Z"/><path class="cls-2" d="M11.9,19.83c.34.34.51.34.85,0A19.19,19.19,0,0,1,14.61,18c.34-.34.51-.34.85,0a20.55,20.55,0,0,0,1.87,1.86c.33.34.5.34.84,0a15.09,15.09,0,0,1,1.7-1.69c.34-.34.34-.51,0-.85l-2.54-2.54a2.61,2.61,0,0,0-2.21-.85,2.77,2.77,0,0,0-2.37,1l-2.37,2.37c-.34.34-.34.51,0,.85A16.09,16.09,0,0,0,11.9,19.83Z"/><path class="cls-2" d="M32.41,20c.34.34.51.34.85,0L35,18.31a.64.64,0,0,1,1,0,21.74,21.74,0,0,0,1.86,1.86.56.56,0,0,0,.85,0l1.7-1.7c.34-.33.34-.5,0-.84l-2.55-2.55a2.6,2.6,0,0,0-2.2-.84,2.61,2.61,0,0,0-2.2.84l-2.54,2.55c-.34.34-.34.51,0,.84A13.65,13.65,0,0,1,32.41,20Z"/><path class="cls-2" d="M19.7,23.22h-9a3,3,0,0,0-2.89,1.86,10.6,10.6,0,0,0,0,6.45c.34,1.18,1.53,1.69,2.72,2a9.52,9.52,0,0,0,2.2,0c.68,0,.85,0,.85.85V45.25a1.85,1.85,0,0,1-.17.85A4.37,4.37,0,0,1,10,41.86V39c0-.34-.17-.67-.51-.67H7.33c-.51,0-.51.16-.51.67v3.39A7.64,7.64,0,0,0,14.11,50h8.3c.34,0,.68-.17.51-.68v-2.2c0-.51-.17-.85-.68-.68H18c-.5,0-.5-.17-.5-.51V42.37c0-.68.16-.84.84-.68h4.07c.51,0,.85,0,.85-.67V39c0-.51-.17-.67-.68-.67H18.34c-.34,0-.51,0-.51-.51V34.24c0-.51.17-.51.51-.51h1.87a3.37,3.37,0,0,0,3.39-3.22v-3.9C22.75,24.58,21.39,23.22,19.7,23.22Zm-1.19,6.61h-7c-.67-.34-.84-1.36-.67-2.37a1.18,1.18,0,0,1,1.35-.85h5.59c1,0,1.53.34,1.53,1.53C19.36,28.81,19.53,29.49,18.51,29.83Z"/><path class="cls-2" d="M26.48,26.44a7.09,7.09,0,0,0,2.2,5.09c.68.5,1.36,1,2.21,1.52a6.69,6.69,0,0,1-3.56.68c-.51,0-.68.17-.68.68v2c0,.68.17.85.85.85a11.69,11.69,0,0,0,6.61-1.7,1.85,1.85,0,0,1,1.35,0,11.36,11.36,0,0,0,6.61,1.7c.51,0,.68-.17.68-.68-.17-.34,0-.85,0-1.36,0-1.52.17-1.35-1.36-1.35a7,7,0,0,1-2.71-.51,10.32,10.32,0,0,0,1.7-1.19,6.83,6.83,0,0,0,2.71-5.42,3.37,3.37,0,0,0-3.22-3.39H30A3.17,3.17,0,0,0,26.48,26.44Zm4.57.17c.17-.17.51,0,.68,0h6.44a1,1,0,0,1,.51,1.53,3.09,3.09,0,0,1-1.18,1.35c-.85.51-1.7,1-2.38,1.53a1.06,1.06,0,0,1-1,0,10.52,10.52,0,0,1-2.89-1.87A3.17,3.17,0,0,1,30.38,28C30,27.29,30.21,27,31.05,26.61Z"/><path class="cls-2" d="M40.89,39.15H30a3.43,3.43,0,0,0-3.56,3.73V49c0,.51.17.68.68.68H38.51a5.7,5.7,0,0,0,5.76-4.58,9.52,9.52,0,0,0,0-2.2A3.22,3.22,0,0,0,40.89,39.15Zm-2.72,7.29H30.55c-.51,0-.68-.17-.68-.68V43.39c0-.51.17-.68.68-.68h10c.5,0,.67.17.67.68C41.22,45.59,40.38,46.44,38.17,46.44Z"/></svg>