<svg id="圖層_1" data-name="圖層 1" xmlns="http://www.w3.org/2000/svg" viewBox="0 0 50 50"><defs><style>.cls-1{fill:#040000;}</style></defs><path class="cls-1" d="M33.33,37.5c.5-3.83-2-6.33-8.83-8.5-3.33-1.17-4.83-2.5-4.83-4.5.16-2.17,2.16-3.83,5-3.83a10.63,10.63,0,0,1,6,1.83c.16.17.33.17.5-.17s.66-1,.83-1.33c.17-.17.17-.33-.17-.67a20.86,20.86,0,0,0-2-1.16,14.34,14.34,0,0,0-5.33-1c-4,0-7.17,2.5-7.5,5.83-.17,2.5,1,4.33,3.67,5.83a34.27,34.27,0,0,0,4.66,1.84C29,32.83,31,34.83,30.5,37.33c-.33,2.17-2.67,3.67-6,3.67a10.47,10.47,0,0,1-6.17-2.33L18,38.33a.53.53,0,0,0-.67,0c-.16.17-.83,1.17-1,1.34s0,.33.17.5a10.4,10.4,0,0,0,2.33,1.66,12.36,12.36,0,0,0,6,1.5,12.49,12.49,0,0,0,4.34-.66A6.36,6.36,0,0,0,33.33,37.5ZM25,3c-4.33,0-7.83,4-8,9.17H33.17C32.83,7,29.33,3,25,3M41.5,50H8.17A4.23,4.23,0,0,1,4,45.83V45.5L2.5,13.17v-.34c0-.16.17-.16.17-.33.16-.17.16-.17.33-.17s.17,0,.33-.16h10.5C14.17,5.33,19,0,25,0S35.83,5.33,36.17,12H47c.17,0,.17.17.33.17.17.16.17.16.17.33v.33l-1.67,32.5v.34A4.4,4.4,0,0,1,41.5,50Z"/></svg>