<svg id="圖層_1" data-name="圖層 1" xmlns="http://www.w3.org/2000/svg" viewBox="0 0 50 50"><defs><style>.cls-1{fill:#040000;}</style></defs><path class="cls-1" d="M36.29,22.88c.23.09.44.2.66.29a12.82,12.82,0,0,1,6.44,6.4,13.5,13.5,0,0,1-3.16,14.91C36.46,48.25,31.87,50,25.38,50h0C18,50,12.42,47.49,8.64,42.69,5.28,38.42,3.55,32.47,3.49,25V25c0-7.44,1.78-13.39,5.14-17.66C12.41,2.51,18,.05,25.35,0h0c7.32.05,13,2.5,16.9,7.28a22.68,22.68,0,0,1,4.23,8.51L42.3,16.91A18.4,18.4,0,0,0,39,10.1c-3-3.73-7.6-5.64-13.59-5.68S14.93,6.37,12,10.08C9.28,13.55,7.86,18.57,7.81,25S9.28,36.44,12,39.92c2.91,3.71,7.41,5.61,13.35,5.66,5.35,0,8.89-1.31,11.84-4.26a9.08,9.08,0,0,0,2.23-10,8,8,0,0,0-3.32-3.64,13.75,13.75,0,0,1-2.58,6.75A9.81,9.81,0,0,1,26,38.13a11.07,11.07,0,0,1-6.65-1.67,7.73,7.73,0,0,1-3.57-6.17c-.26-5,3.71-8.65,9.91-9a27.52,27.52,0,0,1,6.17.29,7.44,7.44,0,0,0-1.52-3.67,6.08,6.08,0,0,0-4.82-1.85h-.07a6.34,6.34,0,0,0-5.55,2.74l-3.58-2.46a10.54,10.54,0,0,1,9.14-4.7h.09c6.51,0,10.4,4.12,10.79,11.22l0,0ZM20.05,30.05c.13,2.61,3,3.83,5.68,3.67s5.69-1.19,6.2-7.62a21.22,21.22,0,0,0-4.52-.46c-.5,0-1,0-1.5,0-4.47.25-6,2.42-5.85,4.36Z"/></svg>