<svg id="圖層_1" data-name="圖層 1" xmlns="http://www.w3.org/2000/svg" viewBox="0 0 50 50"><defs><style>.cls-1{fill:#040000;fill-rule:evenodd;}</style></defs><path class="cls-1" d="M24.92,5.9c-2.83,0-6,0-9.14.16h-.17c-3.15.17-5.64.17-7.8.5A8.57,8.57,0,0,0,2.66,9.22,8.32,8.32,0,0,0,.33,14.87,60.61,60.61,0,0,0,0,23.17v3.66a59.34,59.34,0,0,0,.33,8.3,8.32,8.32,0,0,0,2.33,5.65A9.51,9.51,0,0,0,8,43.44a50.08,50.08,0,0,0,7.81.5H16c3,.16,6.14.16,9,.16s6,0,9.13-.16h.17c3.16-.17,5.81-.17,7.81-.5a8.17,8.17,0,0,0,5.31-2.66,10.21,10.21,0,0,0,2.33-5.65,60.61,60.61,0,0,0,.33-8.3V23.17a59.34,59.34,0,0,0-.33-8.3,9.33,9.33,0,0,0-2.49-5.65,9.54,9.54,0,0,0-5.32-2.66,50,50,0,0,0-7.81-.5h-.16C31.06,5.9,27.91,5.9,24.92,5.9ZM22.26,31.48a1.54,1.54,0,0,1-.83.16,7.25,7.25,0,0,1-.83-.16,1.33,1.33,0,0,1-.67-.67,1.85,1.85,0,0,1-.16-.83v-9.8a1.29,1.29,0,0,1,.16-.83,1.31,1.31,0,0,1,.67-.66,1.47,1.47,0,0,1,.83-.17,1.23,1.23,0,0,1,.83.17L30.4,23.5a1.31,1.31,0,0,1,.66.67,2.06,2.06,0,0,1,.17,1,2,2,0,0,1-.17,1,1.27,1.27,0,0,1-.66.67Z"/></svg>