<svg width="24" height="24" viewBox="0 0 24 24" fill="none" xmlns="http://www.w3.org/2000/svg">
<path d="M19.3488 19.4067C19.3523 19.2717 19.3283 19.1375 19.2785 19.012C19.2286 18.8865 19.1539 18.7725 19.0588 18.6767L16.1288 15.6667C16.0004 15.544 15.8416 15.4577 15.6688 15.4167C15.3853 15.3373 15.0825 15.3658 14.8188 15.4967L13.4888 16.2667H13.3488H13.2288L13.0088 16.1567C12.7995 16.0323 12.6049 15.8847 12.4288 15.7167C12.119 15.4011 11.8284 15.0672 11.5588 14.7167C11.1463 14.1775 10.7784 13.6056 10.4588 13.0067C10.1174 12.4298 9.81994 11.8281 9.56881 11.2067C9.41298 10.7969 9.28927 10.3756 9.19881 9.94667C9.11992 9.61956 9.0896 9.28261 9.10881 8.94667C9.12203 8.89861 9.14596 8.85416 9.17881 8.81667C9.20086 8.77695 9.23163 8.74276 9.26881 8.71667L10.4088 8.07668C10.6138 7.95992 10.7805 7.78624 10.8888 7.57668C10.9987 7.37495 11.0274 7.13882 10.9688 6.91667L10.0488 2.67667C9.9992 2.52737 9.92848 2.38594 9.83881 2.25667C9.74108 2.13601 9.60831 2.04866 9.45881 2.00667C9.34834 1.97703 9.23307 1.96973 9.11975 1.98518C9.00642 2.00064 8.89731 2.03853 8.79881 2.09666L5.70881 3.84666C5.5453 3.93183 5.39939 4.04721 5.27881 4.18668C5.08812 4.43463 4.94566 4.71617 4.85881 5.01668C4.76213 5.31502 4.7017 5.6239 4.67881 5.93668C4.64124 6.42262 4.64124 6.91073 4.67881 7.39667C4.71805 8.06979 4.81169 8.73864 4.95881 9.39667C5.14922 10.2435 5.39986 11.0756 5.70881 11.8867C6.11075 12.924 6.59565 13.9273 7.15881 14.8867C7.80265 16.0977 8.57727 17.2344 9.46881 18.2767C10.1205 19.0403 10.8401 19.7432 11.6188 20.3767C12.1525 20.8125 12.7327 21.1881 13.3488 21.4967C13.8073 21.7113 14.2865 21.8788 14.7788 21.9967C14.9672 22.0312 15.1604 22.0312 15.3488 21.9967C15.5304 21.9703 15.7043 21.9056 15.8588 21.8067L18.9488 20.0867C19.0627 20.0112 19.158 19.9107 19.2273 19.7928C19.2966 19.675 19.3382 19.5429 19.3488 19.4067Z" fill="black"/>
</svg>
