<?xml version="1.0" encoding="utf-8"?>
<!-- Generator: Adobe Illustrator 22.1.0, SVG Export Plug-In . SVG Version: 6.00 Build 0)  -->
<svg version="1.1" id="圖層_1" xmlns="http://www.w3.org/2000/svg" xmlns:xlink="http://www.w3.org/1999/xlink" x="0px" y="0px"
	 viewBox="0 0 117 116" style="enable-background:new 0 0 117 116;" xml:space="preserve">
<style type="text/css">
	.st0{fill:#FFFFFF;}
</style>
<g>
	<path class="st0" d="M6.5,17C33.8,44.3,61,71.5,88.3,98.8c3.9,3.9,7.8,7.8,11.7,11.7c6.8,6.8,17.4-3.8,10.6-10.6
		C83.4,72.6,56.1,45.4,28.8,18.1c-3.9-3.9-7.8-7.8-11.7-11.7C10.3-0.4-0.3,10.2,6.5,17L6.5,17z"/>
</g>
<g>
	<path class="st0" d="M101.3,7.1C74,34.4,46.7,61.7,19.5,89c-3.9,3.9-7.8,7.8-11.7,11.7c-6.8,6.8,3.8,17.4,10.6,10.6
		C45.7,84,72.9,56.7,100.2,29.4c3.9-3.9,7.8-7.8,11.7-11.7C118.7,10.9,108.1,0.3,101.3,7.1L101.3,7.1z"/>
</g>
</svg>
