<?xml version="1.0" encoding="utf-8"?>
<!-- Generator: Adobe Illustrator 26.0.2, SVG Export Plug-In . SVG Version: 6.00 Build 0)  -->
<svg version="1.1" id="Layer_1" xmlns="http://www.w3.org/2000/svg" xmlns:xlink="http://www.w3.org/1999/xlink" x="0px" y="0px"
	 viewBox="0 0 387.3 386" style="enable-background:new 0 0 387.3 386;" xml:space="preserve">
<style type="text/css">
	.st0{fill:#EFEFEF;}
</style>
<path class="st0" d="M288.7,9.4c-0.2,18.6-0.2,37,0,55.6c-0.2,3-1.3,4-4.5,4c-10.5-0.2-20.9,0-31.2,0c-13.9,0-22.2,7.1-23.1,20.9
	c-0.7,10.9-0.2,22.1-0.5,33.2c-0.2,4,2.3,3.7,4.8,3.7c15.8,0,31.7,0.2,47.5-0.2c4.6,0,6.1,1,5.6,5.8c-2,18.4-3.6,36.8-5.3,55.4
	c-0.3,4.1-2.3,5-6,5c-12.4-0.2-25.1-0.2-37.5,0c-9,0-8.1-1.3-8.1,7.8c0,57.6-0.2,115,0.2,172.5c0,6.1-1.5,7.6-7.5,7.5
	c-21.4-0.3-43-0.5-64.4,0c-6,0.2-7-2-7-7.3c0.2-29,0.2-57.9,0.2-86.9c0-29.4-0.2-58.7,0.2-88.1c0-5-1.3-6.5-6.3-6.3
	c-9.1,0.3-18.2,0-27.5,0.2c-3.7,0.2-5.1-1-5-4.8c0.2-18.2,0.2-36.7,0-54.9c0-3.5,1-4.7,4.7-4.7c9.3,0.2,18.7-0.3,28,0.2
	c5.5,0.3,6.5-1.7,6.5-6.6c-0.3-13.9-0.3-27.9,0-41.8c0.3-17.1,5-33,15.1-46.8c12.8-17.6,31-25.5,52.1-26.5c21.6-1,43.3-0.5,65-0.7
	C287.7,5.4,288.7,6.4,288.7,9.4z"/>
</svg>
