<?xml version="1.0" encoding="UTF-8"?>
<svg width="52px" height="52px" viewBox="0 0 52 52" version="1.1" xmlns="http://www.w3.org/2000/svg" xmlns:xlink="http://www.w3.org/1999/xlink">
    <title>footer_fb</title>
    <defs>
        <polygon id="path-1" points="0.0002 0.239 51.7602 0.239 51.7602 51.9997 0.0002 51.9997"></polygon>
    </defs>
    <g id="footer_fb" stroke="none" stroke-width="1" fill="none" fill-rule="evenodd">
        <g id="Group-3" transform="translate(0.000000, -0.239100)">
            <mask id="mask-2" fill="white">
                <use xlink:href="#path-1"></use>
            </mask>
            <g id="Clip-2"></g>
            <path d="M49.6072,51.9997 C50.7922,51.9997 51.7602,51.0307 51.7602,49.8467 L51.7602,2.3927 C51.7602,1.2077 50.7922,0.2387 49.6072,0.2387 L2.1532,0.2387 C0.9692,0.2387 0.0002,1.2077 0.0002,2.3927 L0.0002,49.8467 C0.0002,51.0307 0.9692,51.9997 2.1532,51.9997 L28.0062,51.9997 L28.0062,32.2137 L20.9142,32.2137 C20.9142,29.8407 20.9892,27.6317 20.8852,25.4317 C20.8242,24.1317 21.2662,23.7307 22.5272,23.7927 C24.3502,23.8817 26.1802,23.8147 28.1062,23.8147 C28.1062,21.2987 28.0652,19.0257 28.1152,16.7537 C28.2152,12.1657 31.4662,8.1037 35.9962,7.3717 C38.7302,6.9307 41.5982,7.2207 44.4032,7.2287 C44.6512,7.2297 45.1042,7.7287 45.1112,8.0047 C45.1702,10.2147 45.1442,12.4277 45.1442,14.7667 C44.4972,14.8067 43.9562,14.8527 43.4152,14.8707 C42.0772,14.9167 40.7342,14.9037 39.4012,15.0037 C38.0512,15.1047 37.0382,15.8837 36.9402,17.2097 C36.7812,19.3507 36.8972,21.5107 36.8972,23.8947 L44.8712,23.8947 C44.5602,26.4177 44.2342,28.6917 44.0192,30.9767 C43.9242,31.9897 43.5092,32.2907 42.5262,32.2547 C40.6512,32.1857 38.7712,32.2347 36.8672,32.2347 L36.8672,51.9997 L49.6072,51.9997 Z" id="Fill-1" fill="#FEFEFE" mask="url(#mask-2)"></path>
        </g>
    </g>
</svg>