<?xml version="1.0" encoding="UTF-8"?>
<svg width="53px" height="52px" viewBox="0 0 53 52" version="1.1" xmlns="http://www.w3.org/2000/svg" xmlns:xlink="http://www.w3.org/1999/xlink">
    <title>footer_ig</title>
    <defs>
        <polygon id="path-1" points="0.8393 0.267 52.555 0.267 52.555 51.972 0.8393 51.972"></polygon>
    </defs>
    <g id="footer_ig" stroke="none" stroke-width="1" fill="none" fill-rule="evenodd">
        <g id="Group-10">
            <g id="Group-6">
                <mask id="mask-2" fill="white">
                    <use xlink:href="#path-1"></use>
                </mask>
                <g id="Clip-5"></g>
                <path d="M37.1453,5.071 C39.6673,5.186 41.0343,5.607 41.9483,5.965 C43.1573,6.437 44.0193,6.994 44.9233,7.898 C45.8273,8.802 46.3843,9.664 46.8573,10.873 C47.2143,11.788 47.6353,13.154 47.7503,15.676 C47.8773,18.399 47.8983,19.218 47.8983,26.125 C47.8983,33.031 47.8663,33.85 47.7503,36.573 C47.6353,39.095 47.2143,40.463 46.8573,41.377 C46.3843,42.586 45.8273,43.447 44.9233,44.351 C44.0193,45.256 43.1573,45.812 41.9483,46.286 C41.0343,46.643 39.6673,47.063 37.1453,47.178 C34.4223,47.305 33.6033,47.326 26.6973,47.326 C19.7913,47.326 18.9713,47.295 16.2493,47.178 C13.7263,47.063 12.3593,46.643 11.4453,46.286 C10.2363,45.812 9.3743,45.256 8.4703,44.351 C7.5663,43.447 7.0093,42.586 6.5363,41.377 C6.1783,40.463 5.7583,39.095 5.6433,36.573 C5.5163,33.85 5.4953,33.031 5.4953,26.125 C5.4953,19.218 5.5273,18.399 5.6433,15.676 C5.7583,13.154 6.1783,11.788 6.5363,10.873 C7.0093,9.664 7.5663,8.802 8.4703,7.898 C9.3743,6.994 10.2363,6.437 11.4453,5.965 C12.3593,5.607 13.7263,5.186 16.2493,5.071 C18.9713,4.945 19.7913,4.924 26.6973,4.924 C33.6033,4.924 34.4223,4.945 37.1453,5.071 M9.7633,1.623 C8.0603,2.285 6.6203,3.168 5.1803,4.608 C3.7403,6.038 2.8573,7.488 2.1953,9.18 C1.5533,10.82 1.1233,12.702 0.9973,15.456 C0.8703,18.21 0.8393,19.092 0.8393,26.114 C0.8393,33.135 0.8703,34.019 0.9973,36.773 C1.1233,39.527 1.5643,41.408 2.1953,43.048 C2.8573,44.751 3.7403,46.191 5.1803,47.631 C6.6203,49.071 8.0603,49.954 9.7633,50.616 C11.4033,51.258 13.2843,51.688 16.0383,51.814 C18.7923,51.94 19.6753,51.972 26.6973,51.972 C33.7183,51.972 34.6013,51.94 37.3553,51.814 C40.1093,51.688 41.9903,51.247 43.6303,50.616 C45.3333,49.954 46.7733,49.071 48.2133,47.631 C49.6533,46.191 50.5363,44.751 51.1993,43.048 C51.8403,41.408 52.2703,39.527 52.3973,36.773 C52.5233,34.019 52.5553,33.135 52.5553,26.114 C52.5553,19.092 52.5233,18.21 52.3973,15.456 C52.2703,12.702 51.8293,10.82 51.1993,9.18 C50.5363,7.488 49.6533,6.038 48.2243,4.608 C46.7843,3.168 45.3443,2.285 43.6413,1.623 C42.0013,0.982 40.1193,0.55 37.3663,0.425 C34.6123,0.299 33.7283,0.267 26.7073,0.267 C19.6863,0.267 18.8033,0.299 16.0483,0.425 C13.2843,0.541 11.4033,0.982 9.7633,1.623" id="Fill-4" fill="#FEFEFE" mask="url(#mask-2)"></path>
            </g>
            <path d="M35.3162,26.1247 C35.3162,30.8867 31.4582,34.7437 26.6972,34.7437 C21.9352,34.7437 18.0772,30.8867 18.0772,26.1247 C18.0772,21.3627 21.9352,17.5057 26.6972,17.5057 C31.4582,17.5057 35.3162,21.3627 35.3162,26.1247 M13.4212,26.1247 C13.4212,33.4617 19.3702,39.3997 26.6972,39.3997 C34.0232,39.3997 39.9722,33.4507 39.9722,26.1247 C39.9722,18.7987 34.0332,12.8497 26.6972,12.8497 C19.3602,12.8497 13.4212,18.7877 13.4212,26.1247" id="Fill-7" fill="#FEFEFE"></path>
            <path d="M40.5086,9.2224 C42.2206,9.2224 43.6096,10.6114 43.6096,12.3234 C43.6096,14.0354 42.2206,15.4244 40.5086,15.4244 C38.7966,15.4244 37.4076,14.0354 37.4076,12.3234 C37.4076,10.6114 38.7966,9.2224 40.5086,9.2224" id="Fill-9" fill="#FEFEFE"></path>
        </g>
    </g>
</svg>