<?xml version="1.0" encoding="utf-8"?>
<!-- Generator: Adobe Illustrator 22.0.1, SVG Export Plug-In . SVG Version: 6.00 Build 0)  -->
<svg version="1.1" id="Layer_1" xmlns="http://www.w3.org/2000/svg" xmlns:xlink="http://www.w3.org/1999/xlink" x="0px" y="0px"
	 viewBox="0 0 379.4 390.2" style="enable-background:new 0 0 379.4 390.2;" xml:space="preserve">
<style type="text/css">
	.st0{fill:#FFFFFF;}
</style>
<g>
	<path class="st0" d="M200.1,222.8l-18.3-14.2c-5.6-4.6-13.2-10.7-13.2-21.9c0-11.2,7.6-18.3,14.2-24.9
		c21.3-16.8,42.6-34.6,42.6-72.3c0-38.7-24.3-59-36-68.7h31.5l33-20.8H153.9c-27.5,0-67,6.5-96,30.4C36,49.2,25.4,75.2,25.4,98.6
		c0,39.7,30.5,79.9,84.3,79.9c5.1,0,10.6-0.5,16.2-1c-2.5,6.1-5.1,11.2-5.1,19.8c0,15.8,8.1,25.4,15.2,34.6
		c-22.9,1.6-65.6,4.1-97,23.4C9.1,273.2,0,299.1,0,317.4c0,37.7,35.5,72.8,109.2,72.8c87.3,0,133.6-48.3,133.6-96.2
		C242.7,258.9,222.4,241.6,200.1,222.8z M133.6,164.3c-43.7,0-63.5-56.5-63.5-90.6c0-13.3,2.5-27,11.2-37.7
		c8.1-10.2,22.3-16.8,35.6-16.8c42.1,0,64,57,64,93.6c0,9.2-1,25.4-12.7,37.2C159.9,158.2,146.3,164.3,133.6,164.3z M134.1,368.9
		c-54.3,0-89.4-26-89.4-62.1c0-36.1,32.5-48.3,43.7-52.4c21.3-7.2,48.7-8.2,53.3-8.2c5.1,0,7.6,0,11.7,0.5
		c38.6,27.5,55.4,41.2,55.4,67.2C208.7,345.4,182.8,368.9,134.1,368.9z"/>
	<polygon class="st0" points="328.3,163.5 328.3,112.6 303.2,112.6 303.2,163.5 252.4,163.5 252.4,188.9 303.2,188.9 303.2,240.1 
		328.3,240.1 328.3,188.9 379.4,188.9 379.4,163.5 	"/>
</g>
</svg>
