<?xml version="1.0" encoding="utf-8"?>
<!-- Generator: Adobe Illustrator 26.0.2, SVG Export Plug-In . SVG Version: 6.00 Build 0)  -->
<svg version="1.1" id="圖層_1" xmlns="http://www.w3.org/2000/svg" xmlns:xlink="http://www.w3.org/1999/xlink" x="0px" y="0px"
	 viewBox="0 0 43.77 44.53" style="enable-background:new 0 0 43.77 44.53;" xml:space="preserve">
<style type="text/css">
	.st0{fill:none;stroke:#000000;stroke-miterlimit:10;}
	.st1{fill:none;stroke:#000000;stroke-linecap:round;stroke-linejoin:round;stroke-miterlimit:10;}
	.st2{fill:none;stroke:#000000;stroke-linejoin:round;stroke-miterlimit:10;}
</style>
<g>
	<g>
		<line class="st0" x1="31.18" y1="33.86" x2="32.43" y2="33.86"/>
		<line class="st0" x1="31.18" y1="38.86" x2="32.43" y2="38.86"/>
		<line class="st0" x1="21.18" y1="43.86" x2="22.43" y2="43.86"/>
		<line class="st0" x1="26.18" y1="43.86" x2="27.43" y2="43.86"/>
		<line class="st0" x1="31.18" y1="43.86" x2="32.43" y2="43.86"/>
		<line class="st0" x1="31.18" y1="33.86" x2="32.43" y2="33.86"/>
		<line class="st0" x1="36.18" y1="33.86" x2="37.43" y2="33.86"/>
		<line class="st0" x1="41.18" y1="33.86" x2="42.43" y2="33.86"/>
		<line class="st0" x1="31.18" y1="38.86" x2="32.43" y2="38.86"/>
		<line class="st0" x1="36.18" y1="38.86" x2="37.43" y2="38.86"/>
		<line class="st0" x1="41.18" y1="38.86" x2="42.43" y2="38.86"/>
		<line class="st0" x1="31.18" y1="43.86" x2="32.43" y2="43.86"/>
		<line class="st0" x1="36.18" y1="43.86" x2="37.43" y2="43.86"/>
		<line class="st0" x1="41.18" y1="43.86" x2="42.43" y2="43.86"/>
		<line class="st0" x1="1.18" y1="33.86" x2="2.43" y2="33.86"/>
		<line class="st0" x1="6.18" y1="33.86" x2="7.43" y2="33.86"/>
		<line class="st0" x1="11.18" y1="33.86" x2="12.43" y2="33.86"/>
		<line class="st0" x1="1.18" y1="38.86" x2="2.43" y2="38.86"/>
		<line class="st0" x1="6.18" y1="38.86" x2="7.43" y2="38.86"/>
		<line class="st0" x1="11.18" y1="38.86" x2="12.43" y2="38.86"/>
		<line class="st0" x1="1.18" y1="43.86" x2="2.43" y2="43.86"/>
		<line class="st0" x1="6.18" y1="43.86" x2="7.43" y2="43.86"/>
		<line class="st0" x1="11.18" y1="43.86" x2="12.43" y2="43.86"/>
		<line class="st0" x1="11.18" y1="33.86" x2="12.43" y2="33.86"/>
		<line class="st0" x1="11.18" y1="38.86" x2="12.43" y2="38.86"/>
		<line class="st0" x1="11.18" y1="43.86" x2="12.43" y2="43.86"/>
		<line class="st0" x1="16.18" y1="43.86" x2="17.43" y2="43.86"/>
		<line class="st0" x1="21.18" y1="43.86" x2="22.43" y2="43.86"/>
	</g>
	<g>
		<path class="st2" d="M24.6,35.05c0,1.54-1.25,2.79-2.79,2.79c-1.54,0-2.79-1.25-2.79-2.79c0-1.54,2.79-5.16,2.79-5.16
			S24.6,33.51,24.6,35.05z"/>
		<path class="st2" d="M21.81,30.79c0,0,0-13.57,5.65-30.63"/>
		<path class="st0" d="M43.77,30.55H25.86l-0.01,0.28c1.03,1.03,1.66,2.45,1.66,4.02c0,1.57-0.64,2.99-1.66,4.02
			c-1.03,1.03-2.45,1.66-4.02,1.66c-1.57,0-2.99-0.64-4.02-1.66c-1.03-1.03-1.66-2.45-1.66-4.02c0-1.57,0.64-2.99,1.66-4.02l0-0.25
			H0.02"/>
	</g>
	<g>
		<path class="st2" d="M20.1,14.83c0,1.23-0.99,2.22-2.22,2.22c-1.23,0-2.22-0.99-2.22-2.22c0-1.23,2.22-4.11,2.22-4.11
			S20.1,13.61,20.1,14.83z"/>
	</g>
	<g>
		<path class="st2" d="M27.96,27.58c2.23,0.05,2.59-3.61,2.59-3.61s1.18,1.54,1.82,2.85c0.37,0.76,1.14,1.24,1.98,1.2l4.61-0.19
			h4.81"/>
	</g>
	<g>
		<path class="st2" d="M13.4,22.96c0,1.23-0.99,2.22-2.22,2.22s-2.22-0.99-2.22-2.22c0-1.23,2.22-4.11,2.22-4.11
			S13.4,21.73,13.4,22.96z"/>
	</g>
	<path class="st2" d="M23.78,27.63c1.5,0.07,2.18-0.04,4.18-0.05"/>
	<path class="st2" d="M0.02,27.9c0,0,7.34,0.28,9.45-0.03c2.11-0.31,3.75-0.61,5.79-0.04c1.02,0.29,2.87,0.36,4.61,0.3"/>
</g>
</svg>
