<?xml version="1.0" encoding="utf-8"?>
<!-- Generator: Adobe Illustrator 26.0.2, SVG Export Plug-In . SVG Version: 6.00 Build 0)  -->
<svg version="1.1" id="圖層_1" xmlns="http://www.w3.org/2000/svg" xmlns:xlink="http://www.w3.org/1999/xlink" x="0px" y="0px"
	 viewBox="0 0 39.88 42.67" style="enable-background:new 0 0 39.88 42.67;" xml:space="preserve">
<style type="text/css">
	.st0{fill:none;stroke:#000000;stroke-miterlimit:10;}
	.st1{fill:none;stroke:#000000;stroke-linecap:round;stroke-linejoin:round;stroke-miterlimit:10;}
	.st2{fill:none;stroke:#000000;stroke-linejoin:round;stroke-miterlimit:10;}
</style>
<g>
	<path class="st0" d="M12.07,0.5H9.93c-0.15,0-0.27,0.12-0.27,0.27v7.94h2.67V2.72h3.37l0.51,0.78l2.51-0.02V0.5h-6.93"/>
	<path class="st0" d="M15.97,11.19H6.24V9.04c0-0.18,0.11-0.33,0.25-0.33h9.22c0.14,0,0.25,0.15,0.25,0.33V11.19z"/>
	<path class="st0" d="M21.71,37.36v4.75H0.5v-4.75l0-21.43l0,0c0.66-2.78,3.15-4.75,6.01-4.75h9.2c2.86,0,5.35,1.96,6.01,4.75l0,0
		L21.71,37.36z"/>
	<polyline class="st0" points="19.75,21.96 11.11,21.96 11.11,32.97 20.09,32.97 	"/>
	<line class="st0" x1="14.87" y1="26.08" x2="20.09" y2="26.08"/>
	<line class="st0" x1="14.87" y1="28.85" x2="20.09" y2="28.85"/>
	<polyline class="st0" points="31.95,15.66 31.95,10.92 34.31,10.92 34.91,11.83 	"/>
	<path class="st0" d="M35.36,18.03h-6.82v-2.13c0-0.13,0.08-0.23,0.18-0.23h6.46c0.1,0,0.18,0.1,0.18,0.23V18.03z"/>
	<path class="st0" d="M39.38,32.55v9.62H24.52v-9.62l0-11.19l0,0c0.46-1.95,2.2-3.33,4.21-3.33h6.45c2,0,3.75,1.38,4.21,3.33l0,0
		L39.38,32.55z"/>
	<polyline class="st0" points="37.59,26.24 31.95,26.24 31.95,33.96 37.59,33.96 	"/>
	<line class="st0" x1="0.5" y1="39.85" x2="21.71" y2="39.85"/>
	<line class="st0" x1="24.52" y1="39.85" x2="39.15" y2="39.85"/>
</g>
</svg>
