<?xml version="1.0" encoding="utf-8"?>
<!-- Generator: Adobe Illustrator 26.0.2, SVG Export Plug-In . SVG Version: 6.00 Build 0)  -->
<svg version="1.1" id="圖層_1" xmlns="http://www.w3.org/2000/svg" xmlns:xlink="http://www.w3.org/1999/xlink" x="0px" y="0px"
	 viewBox="0 0 34.7 44.74" style="enable-background:new 0 0 34.7 44.74;" xml:space="preserve">
<style type="text/css">
	.st0{fill:none;stroke:#000000;stroke-miterlimit:10;}
	.st1{fill:none;stroke:#000000;stroke-linecap:round;stroke-linejoin:round;stroke-miterlimit:10;}
	.st2{fill:none;stroke:#000000;stroke-linejoin:round;stroke-miterlimit:10;}
</style>
<g>
	<path class="st0" d="M8.05,35.55c-1.13,1.13-2.96,1.13-4.09,0c-1.13-1.13-1.13-2.96,0-4.09c1.13-1.13,2.96-1.13,4.09,0
		C9.17,32.6,9.17,34.42,8.05,35.55z"/>
	<path class="st0" d="M2.11,37.4c2.15,2.15,5.63,2.15,7.78,0L34,13.3l-2.76-2.76L10.45,31.32l-2.4,0.15"/>
	
		<rect x="20.13" y="7.76" transform="matrix(0.7071 0.7071 -0.7071 0.7071 19.6662 -9.4276)" class="st0" width="2.16" height="22.54"/>
	<g>
		<path class="st0" d="M3.43,32.19c-0.73,1.42-0.17,3.16,1.25,3.89c1.42,0.73,3.16,0.17,3.89-1.25c0.73-1.42,0.17-3.16-1.25-3.89
			S4.16,30.77,3.43,32.19z"/>
		<path class="st0" d="M3.49,38.41c-2.7-1.39-3.77-4.7-2.38-7.41L16.68,0.67l3.48,1.79L6.73,28.61l0.59,2.33"/>
		
			<rect x="14.06" y="3.33" transform="matrix(-0.8896 -0.4567 0.4567 -0.8896 21.9367 34.4965)" class="st0" width="2.16" height="22.54"/>
	</g>
	<line class="st0" x1="4.45" y1="35.94" x2="3.04" y2="38.14"/>
	<path class="st0" d="M5.02,38.99c-0.67,1.14-1.99,1.62-2.94,1.06c-0.95-0.56-1.18-1.94-0.51-3.08"/>
	<g>
		<path class="st0" d="M3.52,43.07c0,0.65-0.52,1.17-1.17,1.17s-1.17-0.52-1.17-1.17c0,0-0.09-1.45,0.9-3.03"/>
		<path class="st0" d="M3.52,43.07c0-0.65,0.52-1.17,1.17-1.17c0.65,0,1.17,0.52,1.17,1.17"/>
		<path class="st0" d="M8.21,43.07c0,0.65-0.52,1.17-1.17,1.17s-1.17-0.52-1.17-1.17"/>
		<path class="st0" d="M8.21,43.07c0-0.65,0.52-1.17,1.17-1.17c0.65,0,1.17,0.52,1.17,1.17"/>
	</g>
	<g>
		<path class="st0" d="M26.67,35.31l-1.29,1.3c-1.1,1.1-2.87,1.1-3.97,0l0,0c-1.1-1.1-1.1-2.87,0-3.97l1.29-1.3L26.67,35.31z"/>
		<g>
			<line class="st0" x1="23.85" y1="32.5" x2="25.28" y2="31.06"/>
			<line class="st0" x1="25.52" y1="34.16" x2="26.95" y2="32.73"/>
		</g>
	</g>
	<polyline class="st0" points="22.24,37.45 19.66,40.03 17.99,38.36 20.57,35.78 	"/>
	<path class="st0" d="M18.81,39.21l-4.22,4.23c-0.52,0.52-1.22,0.81-1.95,0.81h-0.93c-0.65,0-1.17-0.52-1.17-1.17"/>
</g>
</svg>
