<?xml version="1.0" encoding="utf-8"?>
<!-- Generator: Adobe Illustrator 26.0.2, SVG Export Plug-In . SVG Version: 6.00 Build 0)  -->
<svg version="1.1" id="圖層_1" xmlns="http://www.w3.org/2000/svg" xmlns:xlink="http://www.w3.org/1999/xlink" x="0px" y="0px"
	 viewBox="0 0 112.89 84.95" style="enable-background:new 0 0 112.89 84.95;" xml:space="preserve">
<style type="text/css">
	.st0{fill:#FFFFFF;}
</style>
<g>
	<path class="st0" d="M24.26,32.84c4.28,3.04,7.57,6.98,11.24,10.66c3.23,3.24,6.64,6.32,10.4,8.95c3.87,2.71,7.98,5.07,12.24,7.06
		c4.21,1.97,8.61,3.58,12.68,5.86c4.53,2.54,8.75,5.67,12.76,8.97c6.12,5.03,7.4,8.48,8.52,9.93c0.85,1.11,0.74,0.77,1.1-0.49
		c1.51-5.18,8.47-16.54,7.52-32.66c-0.64-11-3.88-21.14-13.31-30.27c-4.71-4.57-10.78-9.19-18.94-12.91
		c-7.62-3.48-15.51-5.3-23.25-3.86c-6.88,1.28-13.5,4.35-18.86,8.47c-3.51,2.7-6.65,5.97-10.46,8.3c-1.88,1.15-4.21,2.07-6.59,1.69
		c-1.22-0.2-2.41-0.52-3.6-0.93C4.53,21.21,3.5,20.8,2.48,20c-0.46-0.36-0.87-0.19-0.52,0.36c2.01,3.31,5.19,5.34,8.82,6.56
		C15.52,28.54,20.07,29.86,24.26,32.84z M13.93,27.25c0.44,0,0.87,0,1.26-0.08c0.79-0.15,1.59-0.33,2.35-0.6
		c1.72-0.62,3.23-1.57,4.83-2.41c0.16-0.08,0.33-0.13,0.51-0.16c3.75-0.46,7.39-1.31,11.24-1.33c0.09,0,0.18,0,0.28,0
		c0.08,0,0.11,0.11,0.04,0.16c-1.2,0.8-2.48,1.89-2.76,2.1c-1.19,0.89-2.38,1.81-3.66,2.57c-1.45,0.86-2.98,1.72-4.67,1.96
		c-1,0.15-2,0.21-3.01,0.26c-0.2,0.01-0.4-0.03-0.59-0.11c-1.86-0.89-3.79-1.62-5.81-2.27C13.89,27.33,13.87,27.25,13.93,27.25z
		 M20.88,24.2c0.07,0,0.11,0.08,0.05,0.11c-1.16,0.65-2.32,1.31-3.59,1.72c-1.13,0.37-2.33,0.7-3.53,0.75
		c-0.44,0.02-0.86-0.05-1.28-0.02c-0.2,0.02-0.41,0-0.6-0.07c-3.22-1.1-6.23-2.47-8.4-5.1c-0.04-0.05,0.07-0.08,0.12-0.06
		c1.11,0.54,2.39,0.84,3.51,1.14c0.59,0.16,1.17,0.28,1.76,0.37C13.01,23.94,16.98,24.46,20.88,24.2z M21.67,17.56
		c2.45,0.2,4.49,1.15,6.44,2.67c0.89,0.7,1.82,1.46,2.86,1.93c0.07,0.03,0.07,0.13-0.01,0.14c-2.81,0.3-5.55,0.81-8.4,1.13
		c-3.31,0.37-6.7,0.11-10.08-0.36c-0.05-0.01-0.1-0.09-0.05-0.1c0.2-0.04,0.41-0.09,0.61-0.15c3.09-0.93,5.66-2.98,8.09-5.09
		C21.28,17.62,21.47,17.55,21.67,17.56z M26.31,13.74c1.05,0.45,2.07,0.95,3,1.6c1.94,1.34,3.27,3.15,4.68,4.99
		c0.43,0.56,0.87,1.08,1.33,1.56c0.08,0.08-0.01,0.2-0.12,0.2c-0.06,0-0.13,0-0.19,0c-0.69,0-1.37,0.02-2.04,0.06
		c-0.2,0.01-0.39,0.01-0.58-0.04c-1.98-0.45-3.72-2.26-5.33-3.34c-1.47-0.98-3.11-1.53-4.84-1.73c-0.1-0.01-0.12-0.14-0.05-0.21
		c0.67-0.59,1.33-1.17,2-1.72c0.53-0.44,1.08-0.88,1.63-1.3C25.95,13.7,26.14,13.67,26.31,13.74z M39.41,9.85
		c1.74,1.69,3.4,3.78,4.34,6.04c0.98,2.34,1.44,4.89,2.5,7.18c0.05,0.11-0.05,0.24-0.17,0.21c-3.15-0.64-6.32-1.04-9.48-1.16
		c-0.18-0.01-0.37-0.06-0.49-0.2c-1.19-1.3-2.18-2.75-3.32-4.11c-1.73-2.05-3.76-3.35-6.01-4.41c-0.12-0.06-0.17-0.21-0.06-0.29
		c2.9-2.15,6.05-4.08,9.41-5.58c0.17-0.08,0.37-0.04,0.52,0.07c0.09,0.06,0.19,0.13,0.28,0.2C37.77,8.44,38.64,9.1,39.41,9.85z
		 M26.5,33.8c-0.1-0.08-0.03-0.23,0.09-0.27c0.53-0.2,1.08-0.38,1.58-0.67c0.89-0.52,1.72-1.11,2.53-1.75
		c1.56-1.23,3.04-2.59,4.73-3.64c1.68-1.04,3.39-2.16,5.28-2.78c1.03-0.34,2.09-0.71,3.17-0.85c0.19-0.02,0.36-0.05,0.52-0.1
		c0.17-0.05,0.35-0.11,0.53-0.08c0.82,0.15,1.63,0.32,2.45,0.5c1.44,0.33,2.87,0.71,4.3,1.13c0.05,0.02,0.07,0.1,0.02,0.1
		c-3.68,0.27-7.43,2.04-10.51,3.72c-4.03,2.2-7.76,5.28-12.27,6.4c-0.19,0.05-0.39,0.02-0.53-0.11
		C27.77,34.85,27.15,34.31,26.5,33.8z M29.36,35.99c3.72-1.02,6.89-3.29,10.19-5.27c3.98-2.39,9.28-5.22,14.14-4.74
		c0.21,0.02,0.41,0.07,0.61,0.14c2.04,0.7,4.05,1.49,6.01,2.4c0.05,0.02,0.05,0.11,0,0.1c-4.9-0.45-9.88,1.44-14.24,3.43
		c-2.95,1.35-5.86,2.8-8.86,4.04c-2.1,0.87-4.11,1.28-6.23,1.47c-0.19,0.02-0.39-0.05-0.53-0.19c-0.38-0.38-0.76-0.76-1.15-1.13
		C29.2,36.17,29.24,36.02,29.36,35.99z M48.69,10.29c2.07,2.68,3.57,5.83,4.85,8.96c0.9,2.19,1.61,4.45,2.47,6.66
		c0.04,0.1-0.06,0.21-0.16,0.17c-2.77-1.02-5.59-1.87-8.45-2.51c-0.18-0.04-0.34-0.16-0.42-0.33c-1.38-2.78-1.67-6.03-3.29-8.75
		c-1.18-1.98-2.54-3.92-4.3-5.43c-0.7-0.6-1.41-1.18-2.16-1.72c-0.11-0.08-0.05-0.24,0.07-0.3c1.53-0.63,3.09-1.18,4.69-1.62
		c0.18-0.05,0.36-0.02,0.53,0.06c0.65,0.31,1.3,0.62,1.91,0.99C46.07,7.44,47.53,8.77,48.69,10.29z M52.84,8.66
		c1.97,2.72,3.32,5.77,4.06,9.03c0.68,2.98,1,6.04,2.24,8.87c0.11,0.26,0.23,0.51,0.36,0.76c0.04,0.09-0.06,0.17-0.15,0.13
		c-0.75-0.32-1.51-0.63-2.27-0.92c-0.16-0.06-0.29-0.19-0.35-0.35c-1.25-3.19-2.25-6.45-3.71-9.55c-1.31-2.77-2.72-5.6-4.86-7.84
		c-1.04-1.09-2.17-2.12-3.5-2.85c-0.42-0.23-0.85-0.45-1.28-0.66c-0.1-0.05-0.1-0.19,0.01-0.22c1.2-0.28,2.42-0.5,3.66-0.66
		c0.27-0.03,0.54-0.06,0.81-0.08c0.18-0.02,0.37,0.05,0.51,0.16C49.99,5.71,51.59,6.94,52.84,8.66z M57.43,5.08
		c1.19,1.16,2.27,2.41,3.13,3.84c2.02,3.35,3.06,7.11,3.85,10.91c0.73,3.54,1.32,7.14,2.3,10.63c0.08,0.27,0.16,0.54,0.24,0.81
		c0.03,0.09-0.08,0.17-0.16,0.11c-1.94-1.23-3.96-2.34-6.07-3.31c-0.17-0.08-0.31-0.21-0.39-0.38c-0.43-0.83-0.82-1.69-1.12-2.59
		c-1.06-3.1-1.29-6.4-2.25-9.52c-0.96-3.03-2.46-6.02-4.58-8.4c-0.94-1.06-2.02-1.93-3.13-2.76c-0.08-0.06-0.02-0.18,0.08-0.18
		c2.44-0.1,5.02,0.09,7.6,0.56C57.12,4.84,57.29,4.94,57.43,5.08z M65.45,7.49c1.33,1.81,2.39,3.82,3.12,5.96
		c1.28,3.77,1.43,7.51,1.55,11.45c0.1,3.28,0.49,6.48,1.29,9.56c0.02,0.09-0.06,0.19-0.13,0.13c-1.05-0.83-2.13-1.63-3.24-2.38
		c-0.15-0.1-0.27-0.24-0.33-0.41c-0.28-0.82-0.51-1.65-0.71-2.49c-0.87-3.69-1.5-7.44-2.37-11.13c-0.79-3.32-1.75-6.67-3.59-9.58
		c-0.76-1.19-1.62-2.32-2.6-3.33c-0.06-0.06,0-0.16,0.08-0.14c0.49,0.11,0.99,0.23,1.48,0.36c1.68,0.45,3.36,1.01,5.03,1.65
		C65.19,7.2,65.34,7.33,65.45,7.49z M71.97,10.57c0.35,0.67,0.67,1.36,0.88,2.12c0.39,1.39,0.69,2.85,0.88,4.3
		c0.38,2.83,0.32,5.7,0.06,8.59c-0.24,2.72-0.6,5.48-0.43,8.18c0.05,0.92,0.19,1.8,0.37,2.68c0.02,0.09-0.1,0.13-0.17,0.07
		c-0.4-0.36-0.81-0.71-1.23-1.06c-0.14-0.11-0.24-0.27-0.29-0.44c-0.08-0.26-0.15-0.52-0.21-0.79c-1-4.12-1.11-8.25-1.22-12.47
		c-0.13-4.98-1.53-9.84-4.25-13.91c-0.05-0.07,0.02-0.16,0.1-0.13c1.72,0.72,3.42,1.54,5.09,2.43
		C71.74,10.24,71.88,10.39,71.97,10.57z M75.46,12.57c0.46,1,0.83,2.05,1.11,3.11c1.09,4.19,1.13,8.61,0.67,12.89
		c-0.36,3.34-1.14,6.79-0.97,10.18c0.01,0.11-0.12,0.19-0.19,0.11c-0.44-0.44-0.88-0.87-1.34-1.3c-0.13-0.13-0.23-0.29-0.28-0.47
		c-0.01-0.03-0.02-0.06-0.02-0.1c-0.38-1.58-0.57-3.17-0.54-4.83c0.04-2.85,0.45-5.7,0.6-8.56c0.16-2.94-0.01-5.77-0.54-8.62
		c-0.28-1.5-0.72-2.8-1.27-4.06c-0.04-0.08,0.05-0.16,0.13-0.12c0.77,0.43,1.52,0.87,2.27,1.33C75.25,12.26,75.38,12.4,75.46,12.57z
		 M82.12,17.04c0.15,0.12,0.26,0.28,0.32,0.47c1.5,4.84,1.67,9.99,0.21,15.06c-1.04,3.63-2.22,7.18-2.15,11
		c0,0.1-0.13,0.12-0.19,0.04c-1.02-1.27-2.09-2.51-3.21-3.69c-0.13-0.14-0.19-0.33-0.21-0.52c-0.03-0.33-0.05-0.67-0.06-1.01
		c-0.08-4.25,1.04-8.47,1.21-12.71c0.15-3.7-0.04-7.54-1.2-11.09c-0.16-0.49-0.33-0.97-0.53-1.45c-0.03-0.08,0.06-0.16,0.13-0.11
		C78.42,14.28,80.32,15.63,82.12,17.04z M85.95,20.27c0.14,0.13,0.24,0.28,0.29,0.47c0.2,0.83,0.36,1.65,0.49,2.45
		c0.32,1.96,0.45,3.95,0.33,5.94c-0.24,4.05-1.24,7.89-2.21,11.81c-0.56,2.27-1.04,4.57-1.24,6.88c-0.01,0.1-0.14,0.1-0.2,0.02
		c-0.69-1.03-1.4-2.04-2.15-3.03c-0.11-0.15-0.17-0.33-0.18-0.51c-0.03-0.8-0.03-1.61,0.03-2.41c0.28-4.01,1.88-7.66,2.7-11.56
		c0.86-4.06,0.57-8.22-0.55-12.17c-0.03-0.09,0.1-0.14,0.17-0.08c0.09,0.07,0.17,0.14,0.25,0.21C84.47,18.94,85.22,19.6,85.95,20.27
		z M92.95,28.42c0.28,1.34,0.39,2.71,0.35,4.09c-0.12,4.24-1.28,8.3-3,12.16c-1.26,2.83-2.53,5.62-3.42,8.57
		c-0.03,0.11-0.18,0.11-0.23,0.01c-0.74-1.39-1.52-2.74-2.37-4.07c-0.1-0.16-0.18-0.35-0.17-0.54c0.21-3.61,1.18-7.1,2.06-10.61
		c0.95-3.8,1.67-7.73,1.46-11.66c-0.08-1.53-0.26-3.17-0.59-4.79c-0.02-0.09,0.08-0.18,0.15-0.11c2.19,2.15,4.08,4.38,5.55,6.48
		C92.84,28.09,92.91,28.25,92.95,28.42z M97.5,37.89c-0.49,3.99-2.2,7.91-4.07,11.45c-1.55,2.95-3.02,5.93-4.1,9.08
		c-0.03,0.1-0.17,0.14-0.21,0.04c-0.56-1.32-1.16-2.63-1.81-3.92c-0.09-0.18-0.11-0.38-0.06-0.57c0.01-0.03,0.02-0.07,0.03-0.1
		c1.18-4.11,3.27-7.81,4.71-11.81c1.21-3.35,1.99-6.98,1.87-10.56c-0.02-0.62-0.07-1.24-0.14-1.85c-0.01-0.06,0.09-0.06,0.13,0
		c0.09,0.14,0.17,0.29,0.25,0.43c1.36,2.35,2.47,4.79,3.34,7.29C97.51,37.53,97.53,37.71,97.5,37.89z M99.36,49.49
		c-1.35,3.28-3.21,6.33-5.29,9.2c-0.98,1.35-2.05,2.67-3.07,4.03c-0.07,0.1-0.23,0.08-0.27-0.03c-0.32-0.95-0.67-1.89-1.04-2.83
		c-0.08-0.19-0.08-0.41-0.02-0.6c0.15-0.45,0.3-0.9,0.45-1.34c1.3-3.87,3.44-7.33,5.22-10.98c1.18-2.41,2.11-5.08,2.57-7.8
		c0.01-0.07,0.11-0.05,0.13,0.01c0.87,2.85,1.46,5.75,1.79,8.68c0.02,0.19,0.01,0.38-0.06,0.55C99.65,48.75,99.51,49.12,99.36,49.49
		z M100.01,55.66c-0.4,0.58-0.8,1.16-1.18,1.72c-1.12,1.68-2.32,3.25-3.65,4.77c-1.09,1.25-2.19,2.5-3.17,3.83
		c-0.07,0.1-0.23,0.13-0.26,0.01c-0.19-0.66-0.39-1.32-0.59-1.98c-0.06-0.18-0.04-0.38,0.07-0.53c1.74-2.35,3.56-4.64,5.11-7.11
		c1.36-2.15,2.58-4.36,3.53-6.7c0.03-0.07,0.13-0.05,0.14,0.03c0.13,1.59,0.19,3.18,0.18,4.77c0,0.22,0,0.43-0.01,0.65
		C100.18,55.31,100.12,55.5,100.01,55.66z M99.12,64.07c-0.95,1.33-2.1,2.48-3.32,3.57c-0.99,0.88-1.97,1.75-2.88,2.68
		c-0.09,0.09-0.21-0.02-0.24-0.14c-0.16-0.96-0.36-1.92-0.6-2.9c-0.05-0.2,0-0.41,0.12-0.58c1.31-1.84,2.9-3.52,4.35-5.26
		c1.26-1.51,2.36-3.13,3.43-4.78c0.04-0.07,0.15-0.03,0.14,0.05c-0.12,2.41-0.4,4.68-0.8,6.82C99.3,63.72,99.23,63.91,99.12,64.07z
		 M97.67,69.66c-1.15,1.08-2.37,2.07-3.62,3.11c-0.24,0.2-0.47,0.4-0.7,0.61c-0.09,0.08-0.24,0.07-0.25-0.05
		c-0.06-0.6-0.12-1.2-0.2-1.81c-0.03-0.19,0.04-0.39,0.18-0.53c1.48-1.54,3.19-2.87,4.7-4.44c0.39-0.41,0.74-0.83,1.08-1.25
		c0.04-0.05,0.14-0.04,0.12,0.03c-0.3,1.34-0.63,2.62-0.99,3.84C97.92,69.36,97.81,69.52,97.67,69.66z M93.22,81.57
		c0.11-2.33,0.13-4.63-0.02-6.93c-0.01-0.19,0.06-0.37,0.19-0.5c0.85-0.8,1.78-1.52,2.74-2.27c0.4-0.31,0.79-0.64,1.16-0.99
		c0.06-0.05,0.14,0.01,0.12,0.08c-1.44,4.39-3.1,7.94-4.12,10.62C93.28,81.65,93.21,81.62,93.22,81.57z M83.59,73.5
		c-0.18-0.05-0.34-0.14-0.48-0.26c-1.16-0.93-2.32-1.84-3.51-2.74c-0.07-0.05-0.05-0.18,0.04-0.17c1.14,0.09,2.29,0.19,3.41,0.47
		c2.06,0.51,3.97,1.46,5.71,2.67c0.87,0.61,1.8,1.17,2.6,1.87c0.43,0.38,0.79,0.81,1.2,1.2c0.13,0.13,0.23,0.3,0.23,0.48
		c0,0.63,0,1.26-0.02,1.9c0,0.11-0.13,0.17-0.2,0.09C90.25,76.4,87,74.48,83.59,73.5z M84.78,74.62c-0.05-0.04-0.02-0.13,0.04-0.11
		c2.99,1.1,5.75,2.93,7.71,5.34c0.13,0.16,0.19,0.35,0.18,0.55c-0.05,1-0.12,2.01-0.2,3.03c-0.01,0.11-0.15,0.14-0.21,0.06
		C91.2,82.09,89.99,79.09,84.78,74.62z M70.49,64.57c-0.05-0.03,0.04-0.1,0.1-0.09c2.19,0.18,4.38,0.24,6.57,0.49
		c2.94,0.34,5.89,0.87,8.67,1.89c1.56,0.57,3.24,1.17,4.59,2.15c0.54,0.4,1.01,0.93,1.54,1.35c0.15,0.12,0.25,0.28,0.29,0.46
		c0.03,0.16,0.06,0.32,0.09,0.48c0.25,1.49,0.38,2.94,0.44,4.37c0,0.11-0.14,0.14-0.21,0.06c-0.4-0.41-0.78-0.83-1.25-1.18
		c-0.84-0.63-1.71-1.25-2.6-1.81c-1.44-0.92-2.92-1.7-4.54-2.24c-1.73-0.58-3.58-0.63-5.39-0.79c-0.19-0.02-0.36-0.09-0.51-0.2
		c-2-1.46-4.06-2.85-6.21-4.09C71.54,65.13,71.02,64.85,70.49,64.57z M60.16,59.81c-0.07-0.03-0.06-0.13,0.02-0.13
		c0.93-0.04,1.86-0.16,2.76-0.26c3.12-0.34,6.25-0.53,9.38-0.42c3.27,0.11,6.63,0.33,9.82,1.11c1.75,0.43,3.5,0.98,5.11,1.78
		c1.07,0.53,1.99,1.28,3.01,1.88c0.16,0.09,0.29,0.23,0.34,0.41c0.55,1.75,1.02,3.52,1.39,5.29c0.02,0.09-0.08,0.17-0.15,0.11
		c-0.65-0.55-1.27-1.21-2-1.6c-1.35-0.73-2.79-1.33-4.25-1.81c-2.55-0.84-5.18-1.4-7.85-1.71c-2.87-0.33-5.77-0.32-8.63-0.7
		c-0.19-0.03-0.38-0.09-0.55-0.17C65.8,62.25,62.96,61.08,60.16,59.81z M53.45,56.48c-0.06-0.03-0.01-0.11,0.06-0.11
		c0.8,0.05,1.61,0.05,2.42-0.01c3.63-0.31,7.19-0.61,10.84-0.62c4.1-0.01,8.3-0.12,12.36,0.55c1.98,0.33,4,0.69,5.87,1.45
		c0.88,0.36,1.87,0.76,2.62,1.36c0.53,0.42,1.01,0.9,1.52,1.34c0.14,0.12,0.26,0.28,0.32,0.46c0.24,0.63,0.47,1.26,0.68,1.9
		c0.03,0.1-0.06,0.21-0.14,0.15c-0.97-0.62-1.88-1.31-2.97-1.79c-1.4-0.62-2.84-1.13-4.32-1.49c-3.06-0.75-6.24-1.07-9.39-1.2
		c-3.16-0.13-6.32-0.06-9.47,0.27c-1.61,0.17-3.31,0.47-4.95,0.37c-0.2-0.01-0.4-0.06-0.58-0.15
		C56.68,58.18,55.05,57.36,53.45,56.48z M41.3,47.97c0.68,0.23,1.37,0.45,2.08,0.6c2.15,0.46,4.35,0.65,6.53,0.81
		c3.76,0.28,7.7,0.09,11.46-0.23c3.88-0.33,7.7-1.19,11.59-1.49c1.99-0.15,4.06-0.25,6.04,0.1c1.57,0.28,2.97,0.8,4.42,1.38
		c0.19,0.08,0.35,0.21,0.46,0.38c1.75,2.78,3.26,5.69,4.53,8.68c0.15,0.37,0.3,0.73,0.45,1.1c0.03,0.07-0.07,0.11-0.13,0.06
		c-0.92-0.76-1.82-1.46-3.01-1.95c-1.6-0.66-3.27-1.11-4.97-1.43c-3.75-0.68-7.47-0.74-11.25-0.8c-3.91-0.06-7.81-0.02-11.7,0.42
		c-1.79,0.2-3.61,0.39-5.4,0.16c-0.21-0.03-0.41-0.09-0.59-0.2c-1.74-1-3.44-2.07-5.08-3.22c-1.91-1.34-3.74-2.78-5.51-4.29
		C41.17,48.01,41.24,47.95,41.3,47.97z M37.69,44.63c0.84,0.11,1.67,0.21,2.52,0.25c1.91,0.1,3.81,0.06,5.71-0.1
		c3.91-0.33,7.79-0.8,11.66-1.47c4.07-0.7,8.34-1.66,12.49-1.41c1.9,0.12,3.87,0.3,5.73,0.73c1.64,0.38,3.01,1.2,4.46,1.97
		c0.18,0.09,0.34,0.22,0.46,0.38c0.81,1.06,1.58,2.14,2.31,3.24c0.05,0.07-0.04,0.15-0.12,0.12c-2.8-1.01-5.51-1.51-8.59-1.35
		c-3.68,0.19-7.27,0.94-10.92,1.37c-4.17,0.49-8.66,0.79-12.85,0.48c-2.18-0.16-4.42-0.29-6.57-0.74c-1.34-0.28-2.63-0.75-3.91-1.2
		c-0.17-0.06-0.33-0.15-0.46-0.28c-0.66-0.6-1.31-1.2-1.95-1.82C37.59,44.75,37.6,44.62,37.69,44.63z M34.93,41.83
		c2.36,0.26,4.68,0.22,7.15-0.19c3.62-0.6,7.16-1.43,10.64-2.6c3.55-1.19,7.1-2.76,10.86-3.12c1.92-0.18,3.93-0.15,5.84,0.15
		c1.81,0.29,3.2,0.91,4.75,1.82c0.16,0.09,0.31,0.18,0.44,0.31c1.71,1.63,3.32,3.36,4.81,5.17c0.04,0.05,0,0.12-0.06,0.09
		c-0.97-0.54-1.95-1.04-3.04-1.29c-1.85-0.42-3.8-0.69-5.7-0.8c-3.89-0.24-7.79,0.46-11.61,1.11c-4.04,0.69-8.07,1.27-12.15,1.64
		c-2.18,0.2-4.4,0.36-6.59,0.19c-1.1-0.08-2.2-0.23-3.29-0.36c-0.19-0.02-0.37-0.12-0.5-0.25c-0.32-0.32-0.64-0.64-0.96-0.96
		c-0.23-0.23-0.46-0.47-0.69-0.71C34.8,41.96,34.82,41.82,34.93,41.83z M31.4,38.38c-0.09-0.09-0.01-0.24,0.12-0.25
		c1.66-0.14,3.27-0.44,4.89-1.08c2.84-1.13,5.6-2.47,8.36-3.76c5.24-2.44,11.24-5.1,17.16-3.84c0.19,0.04,0.38,0.06,0.55,0.14
		c3.41,1.75,6.64,3.84,9.6,6.34c0.13,0.11,0.26,0.22,0.38,0.33c0.04,0.03,0,0.1-0.05,0.08c-0.9-0.39-1.83-0.68-2.89-0.82
		c-1.65-0.21-3.37-0.35-5.03-0.23c-3.48,0.24-6.7,1.41-9.96,2.55c-3.77,1.32-7.56,2.39-11.5,3.08c-1.82,0.32-3.67,0.6-5.52,0.61
		c-1.06,0-2.1-0.11-3.13-0.27c-0.19-0.03-0.37-0.1-0.5-0.24C33.05,40.12,32.23,39.24,31.4,38.38z M21.33,30.42
		c-0.07-0.04-0.11-0.17-0.03-0.17c1.77-0.13,3.45-0.38,5.11-1.21c1.48-0.75,2.89-1.62,4.23-2.61c1.02-0.76,2.02-1.53,3.06-2.27
		c0.52-0.37,1.05-0.75,1.6-1.09c0.1-0.06,0.26-0.15,0.42-0.23c0.17-0.09,0.36-0.15,0.55-0.14c2.3,0.08,4.62,0.3,6.92,0.65
		c0.06,0.01,0.04,0.09-0.02,0.1c-0.46,0.08-0.91,0.14-1.2,0.23c-0.96,0.31-1.91,0.58-2.82,1.01c-1.55,0.74-3.07,1.6-4.48,2.57
		c-1.65,1.13-3.1,2.5-4.71,3.68c-0.9,0.65-1.85,1.45-2.9,1.83c-0.32,0.11-0.63,0.22-0.94,0.33c-0.17,0.06-0.37,0.07-0.52-0.04
		C24.2,32.07,22.78,31.19,21.33,30.42z"/>
</g>
</svg>
