<?xml version="1.0" encoding="utf-8"?>
<!-- Generator: Adobe Illustrator 26.0.2, SVG Export Plug-In . SVG Version: 6.00 Build 0)  -->
<svg version="1.1" id="圖層_1" xmlns="http://www.w3.org/2000/svg" xmlns:xlink="http://www.w3.org/1999/xlink" x="0px" y="0px"
	 viewBox="0 0 40.88 41.56" style="enable-background:new 0 0 40.88 41.56;" xml:space="preserve">
<style type="text/css">
	.st0{fill:none;stroke:#000000;stroke-miterlimit:10;}
	.st1{fill:none;stroke:#000000;stroke-linecap:round;stroke-linejoin:round;stroke-miterlimit:10;}
	.st2{fill:none;stroke:#000000;stroke-linejoin:round;stroke-miterlimit:10;}
</style>
<g>
	<path class="st1" d="M20.75,30.06c2.03-0.33,4.23,0.73,5.41,2.78c1.49,2.59,0.81,5.78-1.53,7.13c-2.34,1.35-5.44,0.35-6.94-2.24
		c-1.3-2.25-0.95-4.96,0.7-6.51"/>
	<path class="st1" d="M18.4,31.21l-2.95-5.09c-0.27-0.47-0.73-0.8-1.25-0.92l-1.11-0.24c-0.5-0.11-0.91-0.47-1.08-0.95l-3.64-9.97
		c-1.5-4.1-2.67-8.32-3.49-12.6l0,0C4.81,1.12,4.96,0.8,5.24,0.64l0,0c0.38-0.22,0.87-0.07,1.07,0.32l14.45,29.1"/>
	<path class="st1" d="M24.17,33.99c0.79,1.37,0.43,3.06-0.81,3.77c-1.24,0.71-2.88,0.18-3.67-1.19c-0.79-1.37-0.43-3.06,0.81-3.77
		C21.74,32.09,23.38,32.62,24.17,33.99z"/>
	<path class="st1" d="M6.74,30.1c-2.05-0.35-4.27,0.71-5.46,2.79c-1.48,2.59-0.79,5.78,1.56,7.12c2.34,1.34,5.44,0.32,6.93-2.27
		c1.3-2.27,0.93-4.98-0.75-6.53"/>
	<line class="st1" x1="11.01" y1="21.29" x2="6.74" y2="30.1"/>
	<path class="st1" d="M16.39,21.28L19,14.03c1.48-4.11,2.63-8.33,3.44-12.62h0c0.06-0.32-0.09-0.64-0.37-0.81l0,0
		c-0.38-0.22-0.87-0.07-1.07,0.33l-7.32,14.91"/>
	<path class="st1" d="M9.02,31.21l2.95-5.08c0.27-0.47,1-0.96,1.53-1.08"/>
	<path class="st1" d="M3.28,34.03C2.49,35.4,2.86,37.09,4.1,37.8c1.24,0.71,2.88,0.17,3.67-1.2c0.78-1.37,0.42-3.06-0.82-3.77
		C5.7,32.12,4.06,32.66,3.28,34.03z"/>
	<path class="st1" d="M12.8,21.06c0,0.47,0.38,0.85,0.85,0.85c0.47,0,0.85-0.38,0.85-0.85c0-0.47-0.38-0.85-0.85-0.85
		C13.18,20.21,12.8,20.59,12.8,21.06z"/>
	<g>
		<path class="st1" d="M26.4,4.14h7.37c1.66,0,3.01,1.35,3.01,3.01v17.9"/>
		<line class="st1" x1="26.4" y1="7.76" x2="36.77" y2="7.76"/>
		<line class="st1" x1="26.4" y1="11.37" x2="36.77" y2="11.37"/>
		<line class="st1" x1="26.4" y1="14.98" x2="36.77" y2="14.98"/>
		<line class="st1" x1="26.4" y1="18.6" x2="36.77" y2="18.6"/>
		<line class="st1" x1="26.4" y1="22.21" x2="36.77" y2="22.21"/>
		<path class="st1" d="M26.4,25.83h6.67c2.05,0,3.7,1.66,3.7,3.7v9.73c0,1,0.81,1.81,1.81,1.81l0,0c1,0,1.81-0.81,1.81-1.81V7.15
			c0-3.66-2.96-6.62-6.62-6.62H26.4"/>
	</g>
</g>
</svg>
