<?xml version="1.0" encoding="utf-8"?>
<!-- Generator: Adobe Illustrator 26.0.2, SVG Export Plug-In . SVG Version: 6.00 Build 0)  -->
<svg version="1.1" id="圖層_1" xmlns="http://www.w3.org/2000/svg" xmlns:xlink="http://www.w3.org/1999/xlink" x="0px" y="0px"
	 viewBox="0 0 35.46 45.48" style="enable-background:new 0 0 35.46 45.48;" xml:space="preserve">
<style type="text/css">
	.st0{fill:none;stroke:#000000;stroke-miterlimit:10;}
	.st1{fill:none;stroke:#000000;stroke-linecap:round;stroke-linejoin:round;stroke-miterlimit:10;}
	.st2{fill:none;stroke:#000000;stroke-linejoin:round;stroke-miterlimit:10;}
</style>
<g>
	<g>
		<path class="st0" d="M6.16,10.74c0.69-1.91,2.52-3.28,4.67-3.28c2.74,0,4.96,2.22,4.96,4.96c0,2.17-1.39,4.01-3.32,4.68"/>
	</g>
	<g>
		<path class="st0" d="M10.42,17.79c0,2.74-2.22,4.96-4.96,4.96c-2.74,0-4.96-2.22-4.96-4.96c0-2.74,2.22-4.96,4.96-4.96
			C8.2,12.83,10.42,15.05,10.42,17.79z"/>
	</g>
	<g>
		<path class="st0" d="M2.97,11.31C2.41,10.68,2.47,9.73,3.1,9.17c0.58-0.51,1.44-0.5,2.01,0"/>
	</g>
	<g>
		<path class="st0" d="M6.58,5.5c0.21-1.14,1.3-1.89,2.44-1.68C10.08,4.01,10.8,4.96,10.74,6"/>
	</g>
	<g>
		<path class="st0" d="M25.12,6.05C25,4.9,25.83,3.87,26.98,3.74c1.06-0.12,2.03,0.59,2.27,1.6"/>
	</g>
	<g>
		<path class="st0" d="M7.82,22.96c0,2.18-1.77,4.03-3.94,4.03"/>
	</g>
	<g>
		<path class="st0" d="M6.46,22.36c-0.9,1.98-2.63,3.15-4.62,2.25"/>
	</g>
	<g>
		<g>
			<path class="st0" d="M27.77,23.07c0,2.18,1.77,4.03,3.94,4.03"/>
		</g>
		<g>
			<path class="st0" d="M29.13,22.47c0.9,1.98,2.63,3.15,4.62,2.25"/>
		</g>
	</g>
	<path class="st0" d="M8.28,17.79c0,1.56-1.26,2.82-2.82,2.82s-2.82-1.26-2.82-2.82c0-1.56,1.26-2.82,2.82-2.82
		S8.28,16.23,8.28,17.79z"/>
	<path class="st0" d="M8.21,11.32c0.14-0.34,0.35-0.64,0.6-0.9c0.25-0.25,0.56-0.46,0.9-0.6c0.34-0.14,0.71-0.22,1.1-0.22
		c0.39,0,0.76,0.08,1.1,0.22c0.34,0.14,0.64,0.35,0.9,0.6c0.25,0.25,0.46,0.56,0.6,0.9c0.14,0.34,0.22,0.71,0.22,1.1
		c0,0.39-0.08,0.76-0.22,1.1c-0.14,0.34-0.35,0.64-0.6,0.9c-0.25,0.25-0.56,0.46-0.9,0.6"/>
	<g>
		<path class="st0" d="M29.3,10.74c-0.69-1.91-2.52-3.28-4.67-3.28c-2.74,0-4.96,2.22-4.96,4.96c0,2.17,1.39,4.01,3.32,4.68"/>
	</g>
	<g>
		<path class="st0" d="M25.04,17.79c0,2.74,2.22,4.96,4.96,4.96c2.74,0,4.96-2.22,4.96-4.96c0-2.74-2.22-4.96-4.96-4.96
			C27.26,12.83,25.04,15.05,25.04,17.79z"/>
	</g>
	<g>
		<path class="st0" d="M32.5,11.32c0.56-0.63,0.5-1.6-0.14-2.16c-0.59-0.52-1.45-0.5-2.02,0"/>
	</g>
	<path class="st0" d="M27.18,17.79c0,1.56,1.26,2.82,2.82,2.82c1.56,0,2.82-1.26,2.82-2.82c0-1.56-1.26-2.82-2.82-2.82
		C28.44,14.97,27.18,16.23,27.18,17.79z"/>
	<path class="st0" d="M27.25,11.32c-0.14-0.34-0.35-0.64-0.6-0.9c-0.25-0.25-0.56-0.46-0.9-0.6c-0.34-0.14-0.71-0.22-1.1-0.22
		c-0.39,0-0.76,0.08-1.1,0.22c-0.34,0.14-0.64,0.35-0.9,0.6c-0.25,0.25-0.46,0.56-0.6,0.9c-0.14,0.34-0.22,0.71-0.22,1.1
		c0,0.39,0.08,0.76,0.22,1.1c0.14,0.34,0.35,0.64,0.6,0.9c0.26,0.25,0.56,0.46,0.9,0.6"/>
	<path class="st0" d="M19.13,15.73c-0.44,0.14-0.91,0.22-1.4,0.22c-0.47,0-0.93-0.07-1.36-0.21"/>
	<path class="st0" d="M15.3,7.51c0.7-0.44,1.54-0.7,2.43-0.7c0.95,0,1.83,0.29,2.55,0.78"/>
	<path class="st0" d="M13.12,5.93c1.26-1.07,2.89-1.71,4.67-1.71c1.89,0,3.61,0.72,4.9,1.91"/>
	<path class="st0" d="M25.55,45.03c-1.76-0.86-2.96-3.47-2.96-6.43l0,0v-2.53"/>
	<path class="st0" d="M10.04,45.03C11.79,44.17,13,41.56,13,38.6l0,0v-2.53"/>
	<path class="st2" d="M27.77,22.36l-0.59,4.24c-0.67,3.94-1.93,7.55-5.38,9.7c-2.44,1.52-5.61,1.51-8.04-0.02
		c-3.22-2.03-4.59-5.3-5.34-8.98c-0.1-0.46-0.16-0.94-0.21-1.41l-0.39-3.53"/>
	<path class="st0" d="M11.51,3.3c0-1.55,1.25-2.8,2.8-2.8c1.3,0,2.39,0.89,2.71,2.09"/>
	<path class="st0" d="M24.59,3.3c0-1.55-1.25-2.8-2.8-2.8c-1.3,0-2.39,0.89-2.71,2.09"/>
</g>
</svg>
