<?xml version="1.0" encoding="utf-8"?>
<!-- Generator: Adobe Illustrator 26.0.2, SVG Export Plug-In . SVG Version: 6.00 Build 0)  -->
<svg version="1.1" id="圖層_1" xmlns="http://www.w3.org/2000/svg" xmlns:xlink="http://www.w3.org/1999/xlink" x="0px" y="0px"
	 viewBox="0 0 112.9 84.9" style="enable-background:new 0 0 112.9 84.9;" xml:space="preserve">
<style type="text/css">
	.st0{fill:#1A1A1A;}
</style>
<g>
	<path class="st0" d="M24.3,32.8c4.3,3,7.6,7,11.2,10.7c3.2,3.2,6.6,6.3,10.4,9c3.9,2.7,8,5.1,12.2,7.1c4.2,2,8.6,3.6,12.7,5.9
		c4.5,2.5,8.8,5.7,12.8,9c6.1,5,7.4,8.5,8.5,9.9c0.8,1.1,0.7,0.8,1.1-0.5c1.5-5.2,8.5-16.5,7.5-32.7c-0.6-11-3.9-21.1-13.3-30.3
		c-4.7-4.6-10.8-9.2-18.9-12.9C60.9,4.5,53,2.6,45.2,4.1c-6.9,1.3-13.5,4.3-18.9,8.5c-3.5,2.7-6.6,6-10.5,8.3
		c-1.9,1.1-4.2,2.1-6.6,1.7c-1.2-0.2-2.4-0.5-3.6-0.9c-1.2-0.4-2.2-0.8-3.2-1.6C2,19.6,1.6,19.8,2,20.4c2,3.3,5.2,5.3,8.8,6.6
		C15.5,28.5,20.1,29.9,24.3,32.8z M13.9,27.2c0.4,0,0.9,0,1.3-0.1c0.8-0.1,1.6-0.3,2.4-0.6c1.7-0.6,3.2-1.6,4.8-2.4
		c0.2-0.1,0.3-0.1,0.5-0.2c3.8-0.5,7.4-1.3,11.2-1.3c0.1,0,0.2,0,0.3,0c0.1,0,0.1,0.1,0,0.2c-1.2,0.8-2.5,1.9-2.8,2.1
		c-1.2,0.9-2.4,1.8-3.7,2.6c-1.5,0.9-3,1.7-4.7,2c-1,0.1-2,0.2-3,0.3c-0.2,0-0.4,0-0.6-0.1C17.9,28.7,16,28,13.9,27.2
		C13.9,27.3,13.9,27.2,13.9,27.2z M20.9,24.2c0.1,0,0.1,0.1,0,0.1c-1.2,0.6-2.3,1.3-3.6,1.7c-1.1,0.4-2.3,0.7-3.5,0.8
		c-0.4,0-0.9,0-1.3,0c-0.2,0-0.4,0-0.6-0.1c-3.2-1.1-6.2-2.5-8.4-5.1c0,0,0.1-0.1,0.1-0.1c1.1,0.5,2.4,0.8,3.5,1.1
		C7.7,22.8,8.3,23,8.9,23C13,23.9,17,24.5,20.9,24.2z M21.7,17.6c2.5,0.2,4.5,1.1,6.4,2.7c0.9,0.7,1.8,1.5,2.9,1.9
		c0.1,0,0.1,0.1,0,0.1c-2.8,0.3-5.6,0.8-8.4,1.1c-3.3,0.4-6.7,0.1-10.1-0.4c-0.1,0-0.1-0.1-0.1-0.1c0.2,0,0.4-0.1,0.6-0.1
		c3.1-0.9,5.7-3,8.1-5.1C21.3,17.6,21.5,17.5,21.7,17.6z M26.3,13.7c1,0.4,2.1,0.9,3,1.6c1.9,1.3,3.3,3.1,4.7,5
		c0.4,0.6,0.9,1.1,1.3,1.6c0.1,0.1,0,0.2-0.1,0.2c-0.1,0-0.1,0-0.2,0c-0.7,0-1.4,0-2,0.1c-0.2,0-0.4,0-0.6,0c-2-0.5-3.7-2.3-5.3-3.3
		c-1.5-1-3.1-1.5-4.8-1.7c-0.1,0-0.1-0.1,0-0.2c0.7-0.6,1.3-1.2,2-1.7c0.5-0.4,1.1-0.9,1.6-1.3C26,13.7,26.1,13.7,26.3,13.7z
		 M39.4,9.9c1.7,1.7,3.4,3.8,4.3,6c1,2.3,1.4,4.9,2.5,7.2c0,0.1,0,0.2-0.2,0.2c-3.2-0.6-6.3-1-9.5-1.2c-0.2,0-0.4-0.1-0.5-0.2
		c-1.2-1.3-2.2-2.8-3.3-4.1c-1.7-2.1-3.8-3.4-6-4.4c-0.1-0.1-0.2-0.2-0.1-0.3c2.9-2.2,6-4.1,9.4-5.6c0.2-0.1,0.4,0,0.5,0.1
		c0.1,0.1,0.2,0.1,0.3,0.2C37.8,8.4,38.6,9.1,39.4,9.9z M26.5,33.8c-0.1-0.1,0-0.2,0.1-0.3c0.5-0.2,1.1-0.4,1.6-0.7
		c0.9-0.5,1.7-1.1,2.5-1.8c1.6-1.2,3-2.6,4.7-3.6c1.7-1,3.4-2.2,5.3-2.8c1-0.3,2.1-0.7,3.2-0.9c0.2,0,0.4,0,0.5-0.1
		c0.2,0,0.3-0.1,0.5-0.1c0.8,0.1,1.6,0.3,2.5,0.5c1.4,0.3,2.9,0.7,4.3,1.1c0,0,0.1,0.1,0,0.1c-3.7,0.3-7.4,2-10.5,3.7
		c-4,2.2-7.8,5.3-12.3,6.4c-0.2,0-0.4,0-0.5-0.1C27.8,34.8,27.1,34.3,26.5,33.8z M29.4,36c3.7-1,6.9-3.3,10.2-5.3
		c4-2.4,9.3-5.2,14.1-4.7c0.2,0,0.4,0.1,0.6,0.1c2,0.7,4,1.5,6,2.4c0,0,0,0.1,0,0.1c-4.9-0.5-9.9,1.4-14.2,3.4c-3,1.3-5.9,2.8-8.9,4
		c-2.1,0.9-4.1,1.3-6.2,1.5c-0.2,0-0.4,0-0.5-0.2c-0.4-0.4-0.8-0.8-1.1-1.1C29.2,36.2,29.2,36,29.4,36z M48.7,10.3
		c2.1,2.7,3.6,5.8,4.8,9c0.9,2.2,1.6,4.5,2.5,6.7c0,0.1-0.1,0.2-0.2,0.2c-2.8-1-5.6-1.9-8.5-2.5c-0.2,0-0.3-0.2-0.4-0.3
		c-1.4-2.8-1.7-6-3.3-8.8c-1.2-2-2.5-3.9-4.3-5.4c-0.7-0.6-1.4-1.2-2.2-1.7c-0.1-0.1,0-0.2,0.1-0.3c1.5-0.6,3.1-1.2,4.7-1.6
		c0.2-0.1,0.4,0,0.5,0.1c0.7,0.3,1.3,0.6,1.9,1C46.1,7.4,47.5,8.8,48.7,10.3z M52.8,8.7c2,2.7,3.3,5.8,4.1,9c0.7,3,1,6,2.2,8.9
		c0.1,0.3,0.2,0.5,0.4,0.8c0,0.1-0.1,0.2-0.2,0.1c-0.8-0.3-1.5-0.6-2.3-0.9c-0.2-0.1-0.3-0.2-0.3-0.4c-1.2-3.2-2.2-6.5-3.7-9.5
		c-1.3-2.8-2.7-5.6-4.9-7.8c-1-1.1-2.2-2.1-3.5-2.8c-0.4-0.2-0.8-0.4-1.3-0.7c-0.1-0.1-0.1-0.2,0-0.2c1.2-0.3,2.4-0.5,3.7-0.7
		c0.3,0,0.5-0.1,0.8-0.1c0.2,0,0.4,0.1,0.5,0.2C50,5.7,51.6,6.9,52.8,8.7z M57.4,5.1c1.2,1.2,2.3,2.4,3.1,3.8
		c2,3.4,3.1,7.1,3.9,10.9c0.7,3.5,1.3,7.1,2.3,10.6c0.1,0.3,0.2,0.5,0.2,0.8c0,0.1-0.1,0.2-0.2,0.1c-1.9-1.2-4-2.3-6.1-3.3
		c-0.2-0.1-0.3-0.2-0.4-0.4c-0.4-0.8-0.8-1.7-1.1-2.6c-1.1-3.1-1.3-6.4-2.2-9.5c-1-3-2.5-6-4.6-8.4c-0.9-1.1-2-1.9-3.1-2.8
		c-0.1-0.1,0-0.2,0.1-0.2c2.4-0.1,5,0.1,7.6,0.6C57.1,4.8,57.3,4.9,57.4,5.1z M65.4,7.5c1.3,1.8,2.4,3.8,3.1,6
		c1.3,3.8,1.4,7.5,1.6,11.4c0.1,3.3,0.5,6.5,1.3,9.6c0,0.1-0.1,0.2-0.1,0.1c-1.1-0.8-2.1-1.6-3.2-2.4c-0.2-0.1-0.3-0.2-0.3-0.4
		c-0.3-0.8-0.5-1.6-0.7-2.5c-0.9-3.7-1.5-7.4-2.4-11.1c-0.8-3.3-1.8-6.7-3.6-9.6c-0.8-1.2-1.6-2.3-2.6-3.3c-0.1-0.1,0-0.2,0.1-0.1
		c0.5,0.1,1,0.2,1.5,0.4c1.7,0.4,3.4,1,5,1.7C65.2,7.2,65.3,7.3,65.4,7.5z M72,10.6c0.3,0.7,0.7,1.4,0.9,2.1
		c0.4,1.4,0.7,2.8,0.9,4.3c0.4,2.8,0.3,5.7,0.1,8.6c-0.2,2.7-0.6,5.5-0.4,8.2c0.1,0.9,0.2,1.8,0.4,2.7c0,0.1-0.1,0.1-0.2,0.1
		c-0.4-0.4-0.8-0.7-1.2-1.1c-0.1-0.1-0.2-0.3-0.3-0.4c-0.1-0.3-0.2-0.5-0.2-0.8c-1-4.1-1.1-8.2-1.2-12.5c-0.1-5-1.5-9.8-4.2-13.9
		c-0.1-0.1,0-0.2,0.1-0.1c1.7,0.7,3.4,1.5,5.1,2.4C71.7,10.2,71.9,10.4,72,10.6z M75.5,12.6c0.5,1,0.8,2.1,1.1,3.1
		c1.1,4.2,1.1,8.6,0.7,12.9c-0.4,3.3-1.1,6.8-1,10.2c0,0.1-0.1,0.2-0.2,0.1c-0.4-0.4-0.9-0.9-1.3-1.3c-0.1-0.1-0.2-0.3-0.3-0.5
		c0,0,0-0.1,0-0.1c-0.4-1.6-0.6-3.2-0.5-4.8c0-2.9,0.4-5.7,0.6-8.6c0.2-2.9,0-5.8-0.5-8.6c-0.3-1.5-0.7-2.8-1.3-4.1
		c0-0.1,0.1-0.2,0.1-0.1c0.8,0.4,1.5,0.9,2.3,1.3C75.2,12.3,75.4,12.4,75.5,12.6z M82.1,17c0.2,0.1,0.3,0.3,0.3,0.5
		c1.5,4.8,1.7,10,0.2,15.1c-1,3.6-2.2,7.2-2.2,11c0,0.1-0.1,0.1-0.2,0c-1-1.3-2.1-2.5-3.2-3.7c-0.1-0.1-0.2-0.3-0.2-0.5
		c0-0.3-0.1-0.7-0.1-1c-0.1-4.2,1-8.5,1.2-12.7c0.2-3.7,0-7.5-1.2-11.1c-0.2-0.5-0.3-1-0.5-1.4c0-0.1,0.1-0.2,0.1-0.1
		C78.4,14.3,80.3,15.6,82.1,17z M85.9,20.3c0.1,0.1,0.2,0.3,0.3,0.5c0.2,0.8,0.4,1.6,0.5,2.5c0.3,2,0.4,4,0.3,5.9
		c-0.2,4-1.2,7.9-2.2,11.8c-0.6,2.3-1,4.6-1.2,6.9c0,0.1-0.1,0.1-0.2,0c-0.7-1-1.4-2-2.2-3c-0.1-0.2-0.2-0.3-0.2-0.5
		c0-0.8,0-1.6,0-2.4c0.3-4,1.9-7.7,2.7-11.6c0.9-4.1,0.6-8.2-0.6-12.2c0-0.1,0.1-0.1,0.2-0.1c0.1,0.1,0.2,0.1,0.2,0.2
		C84.5,18.9,85.2,19.6,85.9,20.3z M92.9,28.4c0.3,1.3,0.4,2.7,0.3,4.1c-0.1,4.2-1.3,8.3-3,12.2c-1.3,2.8-2.5,5.6-3.4,8.6
		c0,0.1-0.2,0.1-0.2,0c-0.7-1.4-1.5-2.7-2.4-4.1c-0.1-0.2-0.2-0.3-0.2-0.5c0.2-3.6,1.2-7.1,2.1-10.6c0.9-3.8,1.7-7.7,1.5-11.7
		c-0.1-1.5-0.3-3.2-0.6-4.8c0-0.1,0.1-0.2,0.2-0.1c2.2,2.1,4.1,4.4,5.6,6.5C92.8,28.1,92.9,28.2,92.9,28.4z M97.5,37.9
		c-0.5,4-2.2,7.9-4.1,11.5c-1.6,3-3,5.9-4.1,9.1c0,0.1-0.2,0.1-0.2,0c-0.6-1.3-1.2-2.6-1.8-3.9c-0.1-0.2-0.1-0.4-0.1-0.6
		c0,0,0-0.1,0-0.1c1.2-4.1,3.3-7.8,4.7-11.8c1.2-3.3,2-7,1.9-10.6c0-0.6-0.1-1.2-0.1-1.9c0-0.1,0.1-0.1,0.1,0
		c0.1,0.1,0.2,0.3,0.2,0.4c1.4,2.4,2.5,4.8,3.3,7.3C97.5,37.5,97.5,37.7,97.5,37.9z M99.4,49.5c-1.3,3.3-3.2,6.3-5.3,9.2
		c-1,1.3-2.1,2.7-3.1,4c-0.1,0.1-0.2,0.1-0.3,0c-0.3-1-0.7-1.9-1-2.8c-0.1-0.2-0.1-0.4,0-0.6c0.2-0.5,0.3-0.9,0.4-1.3
		c1.3-3.9,3.4-7.3,5.2-11c1.2-2.4,2.1-5.1,2.6-7.8c0-0.1,0.1,0,0.1,0c0.9,2.8,1.5,5.8,1.8,8.7c0,0.2,0,0.4-0.1,0.5
		C99.7,48.8,99.5,49.1,99.4,49.5z M100,55.7c-0.4,0.6-0.8,1.2-1.2,1.7c-1.1,1.7-2.3,3.2-3.7,4.8C94.1,63.4,93,64.7,92,66
		c-0.1,0.1-0.2,0.1-0.3,0c-0.2-0.7-0.4-1.3-0.6-2c-0.1-0.2,0-0.4,0.1-0.5c1.7-2.3,3.6-4.6,5.1-7.1c1.4-2.2,2.6-4.4,3.5-6.7
		c0-0.1,0.1,0,0.1,0c0.1,1.6,0.2,3.2,0.2,4.8c0,0.2,0,0.4,0,0.7C100.2,55.3,100.1,55.5,100,55.7z M99.1,64.1
		c-0.9,1.3-2.1,2.5-3.3,3.6c-1,0.9-2,1.8-2.9,2.7c-0.1,0.1-0.2,0-0.2-0.1c-0.2-1-0.4-1.9-0.6-2.9c-0.1-0.2,0-0.4,0.1-0.6
		c1.3-1.8,2.9-3.5,4.3-5.3c1.3-1.5,2.4-3.1,3.4-4.8c0-0.1,0.2,0,0.1,0c-0.1,2.4-0.4,4.7-0.8,6.8C99.3,63.7,99.2,63.9,99.1,64.1z
		 M97.7,69.7c-1.2,1.1-2.4,2.1-3.6,3.1c-0.2,0.2-0.5,0.4-0.7,0.6c-0.1,0.1-0.2,0.1-0.2-0.1c-0.1-0.6-0.1-1.2-0.2-1.8
		c0-0.2,0-0.4,0.2-0.5c1.5-1.5,3.2-2.9,4.7-4.4c0.4-0.4,0.7-0.8,1.1-1.2c0-0.1,0.1,0,0.1,0c-0.3,1.3-0.6,2.6-1,3.8
		C97.9,69.4,97.8,69.5,97.7,69.7z M93.2,81.6c0.1-2.3,0.1-4.6,0-6.9c0-0.2,0.1-0.4,0.2-0.5c0.8-0.8,1.8-1.5,2.7-2.3
		c0.4-0.3,0.8-0.6,1.2-1c0.1-0.1,0.1,0,0.1,0.1C96,75.4,94.3,78.9,93.2,81.6C93.3,81.7,93.2,81.6,93.2,81.6z M83.6,73.5
		c-0.2-0.1-0.3-0.1-0.5-0.3c-1.2-0.9-2.3-1.8-3.5-2.7c-0.1-0.1-0.1-0.2,0-0.2c1.1,0.1,2.3,0.2,3.4,0.5c2.1,0.5,4,1.5,5.7,2.7
		c0.9,0.6,1.8,1.2,2.6,1.9c0.4,0.4,0.8,0.8,1.2,1.2c0.1,0.1,0.2,0.3,0.2,0.5c0,0.6,0,1.3,0,1.9c0,0.1-0.1,0.2-0.2,0.1
		C90.2,76.4,87,74.5,83.6,73.5z M84.8,74.6c-0.1,0,0-0.1,0-0.1c3,1.1,5.8,2.9,7.7,5.3c0.1,0.2,0.2,0.3,0.2,0.6c-0.1,1-0.1,2-0.2,3
		c0,0.1-0.2,0.1-0.2,0.1C91.2,82.1,90,79.1,84.8,74.6z M70.5,64.6C70.4,64.5,70.5,64.5,70.5,64.6c2.3,0.1,4.5,0.2,6.7,0.4
		c2.9,0.3,5.9,0.9,8.7,1.9c1.6,0.6,3.2,1.2,4.6,2.2c0.5,0.4,1,0.9,1.5,1.3c0.2,0.1,0.2,0.3,0.3,0.5c0,0.2,0.1,0.3,0.1,0.5
		c0.2,1.5,0.4,2.9,0.4,4.4c0,0.1-0.1,0.1-0.2,0.1c-0.4-0.4-0.8-0.8-1.2-1.2c-0.8-0.6-1.7-1.2-2.6-1.8c-1.4-0.9-2.9-1.7-4.5-2.2
		c-1.7-0.6-3.6-0.6-5.4-0.8c-0.2,0-0.4-0.1-0.5-0.2c-2-1.5-4.1-2.8-6.2-4.1C71.5,65.1,71,64.8,70.5,64.6z M60.2,59.8
		c-0.1,0-0.1-0.1,0-0.1c0.9,0,1.9-0.2,2.8-0.3c3.1-0.3,6.3-0.5,9.4-0.4c3.3,0.1,6.6,0.3,9.8,1.1c1.8,0.4,3.5,1,5.1,1.8
		c1.1,0.5,2,1.3,3,1.9c0.2,0.1,0.3,0.2,0.3,0.4c0.6,1.8,1,3.5,1.4,5.3c0,0.1-0.1,0.2-0.2,0.1c-0.7-0.6-1.3-1.2-2-1.6
		c-1.3-0.7-2.8-1.3-4.2-1.8c-2.6-0.8-5.2-1.4-7.8-1.7c-2.9-0.3-5.8-0.3-8.6-0.7c-0.2,0-0.4-0.1-0.6-0.2C65.8,62.2,63,61.1,60.2,59.8
		z M53.5,56.5c-0.1,0,0-0.1,0.1-0.1c0.8,0,1.6,0,2.4,0c3.6-0.3,7.2-0.6,10.8-0.6c4.1,0,8.3-0.1,12.4,0.5c2,0.3,4,0.7,5.9,1.5
		c0.9,0.4,1.9,0.8,2.6,1.4c0.5,0.4,1,0.9,1.5,1.3c0.1,0.1,0.3,0.3,0.3,0.5c0.2,0.6,0.5,1.3,0.7,1.9c0,0.1-0.1,0.2-0.1,0.2
		c-1-0.6-1.9-1.3-3-1.8c-1.4-0.6-2.8-1.1-4.3-1.5c-3.1-0.8-6.2-1.1-9.4-1.2c-3.2-0.1-6.3-0.1-9.5,0.3c-1.6,0.2-3.3,0.5-5,0.4
		c-0.2,0-0.4-0.1-0.6-0.2C56.7,58.2,55,57.4,53.5,56.5z M41.3,48c0.7,0.2,1.4,0.5,2.1,0.6c2.2,0.5,4.3,0.7,6.5,0.8
		c3.8,0.3,7.7,0.1,11.5-0.2c3.9-0.3,7.7-1.2,11.6-1.5c2-0.2,4.1-0.2,6,0.1c1.6,0.3,3,0.8,4.4,1.4c0.2,0.1,0.3,0.2,0.5,0.4
		c1.8,2.8,3.3,5.7,4.5,8.7c0.2,0.4,0.3,0.7,0.4,1.1c0,0.1-0.1,0.1-0.1,0.1c-0.9-0.8-1.8-1.5-3-2c-1.6-0.7-3.3-1.1-5-1.4
		c-3.8-0.7-7.5-0.7-11.2-0.8c-3.9-0.1-7.8,0-11.7,0.4c-1.8,0.2-3.6,0.4-5.4,0.2c-0.2,0-0.4-0.1-0.6-0.2c-1.7-1-3.4-2.1-5.1-3.2
		C44.8,51,43,49.6,41.3,48C41.2,48,41.2,48,41.3,48z M37.7,44.6c0.8,0.1,1.7,0.2,2.5,0.2c1.9,0.1,3.8,0.1,5.7-0.1
		c3.9-0.3,7.8-0.8,11.7-1.5c4.1-0.7,8.3-1.7,12.5-1.4c1.9,0.1,3.9,0.3,5.7,0.7c1.6,0.4,3,1.2,4.5,2c0.2,0.1,0.3,0.2,0.5,0.4
		c0.8,1.1,1.6,2.1,2.3,3.2c0.1,0.1,0,0.2-0.1,0.1c-2.8-1-5.5-1.5-8.6-1.3c-3.7,0.2-7.3,0.9-10.9,1.4c-4.2,0.5-8.7,0.8-12.8,0.5
		c-2.2-0.2-4.4-0.3-6.6-0.7c-1.3-0.3-2.6-0.8-3.9-1.2c-0.2-0.1-0.3-0.2-0.5-0.3c-0.7-0.6-1.3-1.2-2-1.8
		C37.6,44.8,37.6,44.6,37.7,44.6z M34.9,41.8c2.4,0.3,4.7,0.2,7.2-0.2c3.6-0.6,7.2-1.4,10.6-2.6c3.5-1.2,7.1-2.8,10.9-3.1
		c1.9-0.2,3.9-0.2,5.8,0.2c1.8,0.3,3.2,0.9,4.8,1.8c0.2,0.1,0.3,0.2,0.4,0.3c1.7,1.6,3.3,3.4,4.8,5.2c0,0,0,0.1-0.1,0.1
		c-1-0.5-1.9-1-3-1.3c-1.8-0.4-3.8-0.7-5.7-0.8c-3.9-0.2-7.8,0.5-11.6,1.1c-4,0.7-8.1,1.3-12.2,1.6c-2.2,0.2-4.4,0.4-6.6,0.2
		c-1.1-0.1-2.2-0.2-3.3-0.4c-0.2,0-0.4-0.1-0.5-0.2c-0.3-0.3-0.6-0.6-1-1c-0.2-0.2-0.5-0.5-0.7-0.7C34.8,42,34.8,41.8,34.9,41.8z
		 M31.4,38.4c-0.1-0.1,0-0.2,0.1-0.2c1.7-0.1,3.3-0.4,4.9-1.1c2.8-1.1,5.6-2.5,8.4-3.8c5.2-2.4,11.2-5.1,17.2-3.8
		c0.2,0,0.4,0.1,0.5,0.1c3.4,1.8,6.6,3.8,9.6,6.3c0.1,0.1,0.3,0.2,0.4,0.3c0,0,0,0.1-0.1,0.1c-0.9-0.4-1.8-0.7-2.9-0.8
		c-1.7-0.2-3.4-0.3-5-0.2c-3.5,0.2-6.7,1.4-10,2.5c-3.8,1.3-7.6,2.4-11.5,3.1c-1.8,0.3-3.7,0.6-5.5,0.6c-1.1,0-2.1-0.1-3.1-0.3
		c-0.2,0-0.4-0.1-0.5-0.2C33,40.1,32.2,39.2,31.4,38.4z M21.3,30.4c-0.1,0-0.1-0.2,0-0.2c1.8-0.1,3.5-0.4,5.1-1.2
		c1.5-0.8,2.9-1.6,4.2-2.6c1-0.8,2-1.5,3.1-2.3c0.5-0.4,1-0.8,1.6-1.1c0.1-0.1,0.3-0.1,0.4-0.2c0.2-0.1,0.4-0.1,0.5-0.1
		c2.3,0.1,4.6,0.3,6.9,0.6c0.1,0,0,0.1,0,0.1c-0.5,0.1-0.9,0.1-1.2,0.2c-1,0.3-1.9,0.6-2.8,1c-1.5,0.7-3.1,1.6-4.5,2.6
		c-1.7,1.1-3.1,2.5-4.7,3.7c-0.9,0.6-1.9,1.4-2.9,1.8c-0.3,0.1-0.6,0.2-0.9,0.3c-0.2,0.1-0.4,0.1-0.5,0
		C24.2,32.1,22.8,31.2,21.3,30.4z"/>
</g>
</svg>
