<?xml version="1.0" encoding="utf-8"?>
<!-- Generator: Adobe Illustrator 26.0.2, SVG Export Plug-In . SVG Version: 6.00 Build 0)  -->
<svg version="1.1" id="圖層_1" xmlns="http://www.w3.org/2000/svg" xmlns:xlink="http://www.w3.org/1999/xlink" x="0px" y="0px"
	 viewBox="0 0 36.13 43.21" style="enable-background:new 0 0 36.13 43.21;" xml:space="preserve">
<style type="text/css">
	.st0{fill:none;stroke:#000000;stroke-miterlimit:10;}
	.st1{fill:none;stroke:#000000;stroke-linecap:round;stroke-linejoin:round;stroke-miterlimit:10;}
	.st2{fill:none;stroke:#000000;stroke-linejoin:round;stroke-miterlimit:10;}
</style>
<g>
	<g>
		<g>
			<polyline class="st0" points="7.89,19.39 16.8,18.76 16.8,1.27 5.7,0.53 5.7,14.96 			"/>
			<g>
				<line class="st0" x1="16.8" y1="6.31" x2="13.12" y2="6.31"/>
				<line class="st0" x1="16.8" y1="10.02" x2="10.68" y2="10.02"/>
				<line class="st0" x1="16.8" y1="13.73" x2="14.54" y2="13.73"/>
			</g>
			<path class="st0" d="M24.3,16.04V4c0-1.5-1.22-2.72-2.72-2.72H16.8v17.49h4.77C23.08,18.76,24.3,17.54,24.3,16.04z"/>
			<polyline class="st0" points="36.11,11.63 24.3,11.96 24.3,8.59 36.11,8.73 			"/>
		</g>
		<g>
			<path class="st0" d="M17.03,20.49v2.8c0,0.63-0.51,1.13-1.13,1.13c-0.63,0-1.13-0.51-1.13-1.13v-0.65c0-0.63-0.51-1.13-1.13-1.13
				c-0.63,0-1.13,0.51-1.13,1.13v3.96v0.17c0,0.63-0.51,1.13-1.13,1.13c-0.63,0-1.13-0.51-1.13-1.13v-5.39"/>
			<path class="st0" d="M7.54,16.35v1.84v1.84c0,0.51-0.41,0.92-0.92,0.92c-0.51,0-0.92-0.41-0.92-0.92v-5.08"/>
			<path class="st0" d="M6.64,23.7c0.07,0.16,0.17,0.25,0.17,0.3c0,0.11-0.09,0.2-0.2,0.2c-0.11,0-0.2-0.09-0.2-0.2
				c0-0.05,0.14-0.14,0.18-0.3H6.64z"/>
		</g>
	</g>
	<g>
		<g>
			<g>
				<path class="st0" d="M3.26,33.1L3.26,33.1c0-1.39,1.12-2.51,2.51-2.51l16,0c5.21,0,3.89-5.46,3.89-5.46s0.09,0.02,0.23,0.07
					c3.45,1.11,5.45,4.52,4.52,8.03"/>
			</g>
		</g>
		<path class="st0" d="M0.51,32.95h33.36v0.23c0,5.26-4.27,9.53-9.53,9.53H10.05c-5.17,0-9.4-4.13-9.53-9.3L0.51,32.95z"/>
	</g>
</g>
</svg>
