<?xml version="1.0" encoding="utf-8"?>
<!-- Generator: Adobe Illustrator 26.0.2, SVG Export Plug-In . SVG Version: 6.00 Build 0)  -->
<svg version="1.1" id="Layer_1" xmlns="http://www.w3.org/2000/svg" xmlns:xlink="http://www.w3.org/1999/xlink" x="0px" y="0px"
	 viewBox="0 0 192.3 192.3" style="enable-background:new 0 0 192.3 192.3;" xml:space="preserve">
<style type="text/css">
	.st0{fill:#EFEFEF;}
</style>
<g id="XMLID_35_">
	<path id="XMLID_38_" class="st0" d="M126,25.8H66.3c-22.5,0-40.8,18.3-40.8,40.8v59.7c0,22.5,18.3,40.8,40.8,40.8H126
		c22.5,0,40.8-18.3,40.8-40.8V66.5C166.8,44,148.5,25.8,126,25.8z M153.8,127.3c0,14.9-12.1,27.1-27.1,27.1H65.6
		c-14.9,0-27.1-12.1-27.1-27.1V66.2c0-14.9,12.1-27.1,27.1-27.1h61.1c14.9,0,27.1,12.1,27.1,27.1V127.3z"/>
	<path id="XMLID_41_" class="st0" d="M96.2,60.1c-20.2,0-36.6,16.4-36.6,36.6s16.4,36.6,36.6,36.6s36.6-16.4,36.6-36.6
		S116.4,60.1,96.2,60.1z M96.2,120.5c-13.1,0-23.8-10.6-23.8-23.8C72.4,83.6,83,73,96.2,73c13.1,0,23.8,10.6,23.8,23.8
		C119.9,109.9,109.3,120.5,96.2,120.5z"/>
	<circle id="XMLID_42_" class="st0" cx="134" cy="58.7" r="8.5"/>
</g>
</svg>
