<?xml version="1.0" encoding="utf-8"?>
<!-- Generator: Adobe Illustrator 22.1.0, SVG Export Plug-In . SVG Version: 6.00 Build 0)  -->
<svg version="1.1" id="Layer_1" xmlns="http://www.w3.org/2000/svg" xmlns:xlink="http://www.w3.org/1999/xlink" x="0px" y="0px"
	 viewBox="0 0 46 46" style="enable-background:new 0 0 46 46;" xml:space="preserve">
<g>
	
		<image style="overflow:visible;opacity:0.2;enable-background:new    ;" width="22" height="31" xlink:href="31289BDF.png"  transform="matrix(0.9633 0 0 0.9633 14.7157 7.8807)">
	</image>
	<g>
		<g>
			<path d="M20.6,32.5c-0.3,0-0.5-0.1-0.7-0.3c-0.4-0.4-0.4-1,0-1.4l8.3-8.3l-8.3-8.2c-0.4-0.4-0.4-1,0-1.4s1-0.4,1.4,0l9,9
				c0.4,0.4,0.4,1,0,1.4l-9,9C21.2,32.4,20.9,32.5,20.6,32.5z"/>
		</g>
	</g>
</g>
<g>
	
		<image style="overflow:visible;opacity:0.2;enable-background:new    ;" width="47" height="47" xlink:href="31289BDD.png"  transform="matrix(0.9787 0 0 0.9787 0 0)">
	</image>
	<g>
		<path d="M22.9,41c-0.6,0-1.2,0-1.8-0.1c-0.2,0-0.4,0-0.5-0.1l-0.5-0.1c-0.2,0-0.5-0.1-0.7-0.1s-0.4-0.1-0.7-0.2l-0.4-0.1
			c-0.2,0-0.4-0.1-0.6-0.2C17.5,40,17.3,40,17,39.9l-0.4-0.1c-0.2-0.1-0.4-0.1-0.6-0.2c-0.2-0.1-0.4-0.2-0.6-0.3L15,39.1
			c-0.2-0.1-0.4-0.2-0.6-0.3c-0.2-0.1-0.4-0.2-0.5-0.3l-0.6-0.2c-0.2-0.1-0.4-0.2-0.6-0.4c-0.2-0.1-0.4-0.3-0.6-0.4l-0.4-0.3
			c-0.1-0.1-0.3-0.2-0.4-0.3c-0.9-0.8-1.8-1.6-2.6-2.6c-0.1-0.1-0.2-0.3-0.3-0.4l-0.2-0.4c-0.2-0.2-0.3-0.4-0.5-0.7
			c-0.1-0.2-0.2-0.4-0.3-0.6l-0.2-0.4c-0.1-0.2-0.2-0.4-0.3-0.6s-0.2-0.4-0.3-0.6l-0.3-0.3c-0.1-0.2-0.2-0.4-0.3-0.6
			s-0.2-0.4-0.2-0.6l-0.1-0.4c-0.1-0.2-0.2-0.4-0.2-0.7c-0.1-0.2-0.2-0.4-0.2-0.6l-0.1-0.5c-0.1-0.2-0.1-0.4-0.2-0.6
			c-0.1-0.3-0.1-0.5-0.1-0.8L4.8,25c0-0.2-0.1-0.4-0.1-0.5c-0.1-1.2-0.1-2.4,0-3.6c0-0.2,0-0.4,0.1-0.5l0.1-0.5
			c0-0.3,0.1-0.5,0.1-0.8c0-0.2,0.1-0.4,0.2-0.7l0.1-0.3c0-0.2,0.1-0.4,0.1-0.6c0.1-0.2,0.1-0.4,0.2-0.6l0.2-0.4
			c0.1-0.2,0.1-0.4,0.2-0.6s0.2-0.4,0.3-0.6l0.2-0.4c0.1-0.2,0.2-0.4,0.3-0.6c0.1-0.2,0.2-0.4,0.3-0.5l0.2-0.4
			c0.1-0.2,0.2-0.4,0.4-0.6c0.1-0.2,0.3-0.4,0.5-0.6l0.3-0.4c0.1-0.3,0.2-0.5,0.3-0.6c0.7-0.9,1.6-1.8,2.5-2.6
			c0.2-0.1,0.3-0.2,0.4-0.3L12.1,8c0.2-0.1,0.4-0.3,0.7-0.4c0.1-0.2,0.3-0.3,0.5-0.4L13.7,7c0.2-0.1,0.4-0.2,0.6-0.3
			c0.2-0.2,0.4-0.2,0.6-0.3l0.4-0.2c0.2-0.1,0.4-0.2,0.6-0.3c0.2-0.1,0.4-0.2,0.6-0.2l0.4-0.2c0.2-0.1,0.4-0.2,0.7-0.2
			c0.2-0.1,0.4-0.1,0.6-0.2L18.7,5c0.2-0.1,0.5-0.1,0.7-0.2c0.3,0,0.5-0.1,0.8-0.1l0.5-0.1c0.2,0,0.4-0.1,0.5-0.1
			c1.1-0.1,2.1-0.1,3.4,0h0.3c0.5,0.1,1,0.1,1.5,0.2h0.1c0.6,0.1,1.1,0.2,1.6,0.4c0.5,0.2,1,0.3,1.6,0.5L30,5.7
			c0.4,0.2,0.8,0.3,1.2,0.5l0.1,0.1c1.3,0.7,2.6,1.6,3.8,2.6L35.2,9c0.1,0.1,0.2,0.2,0.3,0.2l0.2,0.2c0.1,0.1,0.1,0.1,0.2,0.2
			C36,9.7,36,9.7,36.1,9.8l0.1,0.1c0.3,0.3,0.6,0.6,0.8,0.9l0.1,0.1c0,0.5,0.2,0.6,0.3,0.8c0.2,0.3,0.5,0.7,0.7,1l0.1,0.2
			c0.1,0.2,0.2,0.3,0.3,0.5c0.2,0.4,0.4,0.8,0.6,1.1l0.1,0.2c0.1,0.1,0.1,0.3,0.2,0.4c0.3,0.6,0.5,1.2,0.7,1.8
			c0.5,1.5,0.8,3.1,0.9,4.8v0.1c0,0.2,0,0.3,0,0.4v0.2v0.2c0,0.1,0,0.2,0,0.3c0,0.1,0,0.2,0,0.3v0.2c0,0.3,0,0.6,0,0.9
			s-0.1,0.6-0.1,1c0,0.3-0.1,0.6-0.1,0.8c-0.1,0.3-0.1,0.7-0.2,1c-0.1,0.3-0.1,0.5-0.2,0.8c-0.1,0.3-0.2,0.7-0.3,1s-0.2,0.5-0.3,0.8
			s-0.3,0.6-0.4,0.9c-0.1,0.3-0.2,0.5-0.4,0.8s-0.3,0.6-0.5,0.9l-0.1,0.1c-0.1,0.2-0.2,0.4-0.3,0.6c-0.2,0.3-0.4,0.6-0.7,0.9h-0.1
			c-0.1,0.1-0.2,0.3-0.3,0.4c-0.8,1-1.7,1.8-2.6,2.6c-0.1,0.1-0.3,0.2-0.4,0.3l-0.3,0.3c-0.2,0.2-0.4,0.3-0.6,0.5
			c-0.2,0.1-0.4,0.2-0.6,0.3l-0.4,0.2c-0.2,0.1-0.4,0.2-0.6,0.3s-0.4,0.2-0.6,0.3l-0.4,0.2c-0.2,0.1-0.4,0.2-0.6,0.3
			s-0.4,0.2-0.6,0.2l-0.4,0.1c-0.2,0.1-0.4,0.2-0.7,0.2c-0.2,0.1-0.4,0.1-0.6,0.2l-0.5,0.2c-0.2,0.1-0.5,0.1-0.7,0.2
			c-0.3,0-0.5,0.1-0.8,0.1l-0.5,0.1c-0.2,0-0.4,0.1-0.5,0.1C24.1,41,23.5,41,22.9,41z M22.9,5.5c-0.6,0-1.1,0-1.7,0.1
			c-0.2,0-0.3,0-0.5,0.1l-0.5,0.1c-0.2,0-0.5,0.1-0.7,0.1S19.1,6,18.9,6l-0.5,0.1c-0.2,0-0.4,0.1-0.5,0.1c-0.2,0.1-0.4,0.2-0.6,0.3
			l-0.4,0.2c-0.2,0.1-0.4,0.1-0.5,0.2C16.2,7,16,7.1,15.9,7.2l-0.6,0.1c-0.2,0.1-0.4,0.2-0.6,0.3c-0.2,0.1-0.3,0.2-0.5,0.3l-0.4,0.2
			c-0.1,0.1-0.3,0.2-0.5,0.3s-0.4,0.3-0.6,0.4l-0.4,0.3c-0.1,0.1-0.2,0.2-0.3,0.3c-0.9,0.7-1.7,1.5-2.4,2.4
			c-0.1,0.1-0.2,0.3-0.3,0.4L9,12.6c-0.2,0.2-0.3,0.4-0.5,0.6c-0.1,0.1-0.2,0.3-0.3,0.5L8,14.1c-0.1,0.2-0.2,0.4-0.3,0.5
			c-0.1,0.2-0.2,0.4-0.3,0.6l-0.2,0.4C7.1,15.8,7,16,7,16.1c-0.1,0.2-0.1,0.4-0.2,0.6l-0.2,0.5c-0.1,0.2-0.1,0.4-0.2,0.6
			c-0.1,0.1-0.1,0.3-0.2,0.5l-0.1,0.5C6,19,6,19.2,6,19.4s-0.1,0.5-0.1,0.7l-0.1,0.5c0,0.2-0.1,0.3-0.1,0.5c-0.1,1.1-0.1,2.3,0,3.4
			c0,0.2,0,0.3,0.1,0.5l0.1,0.5C5.9,25.7,6,26,6,26.2s0.1,0.4,0.1,0.6l0.1,0.5c0,0.2,0.1,0.4,0.1,0.5c0.1,0.2,0.1,0.4,0.2,0.6
			l0.2,0.4c0.1,0.2,0.1,0.4,0.2,0.5c0.1,0.2,0.2,0.4,0.3,0.6l0.2,0.4c0.1,0.2,0.2,0.4,0.3,0.6s0.2,0.3,0.3,0.5l0.3,0.4
			c0.1,0.2,0.2,0.3,0.3,0.5s0.3,0.4,0.4,0.6l0.3,0.4c0.1,0.1,0.2,0.2,0.3,0.4c0.7,0.9,1.5,1.7,2.4,2.4c0.1,0.1,0.2,0.2,0.4,0.3
			l0.4,0.3c0.2,0.1,0.4,0.3,0.6,0.4c0.2,0.1,0.4,0.2,0.5,0.3l0.4,0.3c0.2,0.1,0.3,0.2,0.5,0.3s0.4,0.2,0.6,0.3l0.4,0.2
			c0.2,0.1,0.4,0.2,0.5,0.2c0.2,0.1,0.4,0.1,0.6,0.2l0.4,0.2c0.2,0.1,0.4,0.1,0.6,0.2c0.2,0.1,0.4,0.1,0.6,0.1l0.5,0.1
			c0.2,0.1,0.4,0.1,0.6,0.1s0.5,0.1,0.7,0.1l0.5,0.1c0.2,0,0.3,0,0.5,0.1c1.1,0.1,2.3,0.1,3.4,0c0.2,0,0.3,0,0.5-0.1l0.5-0.1
			c0.2,0,0.5-0.1,0.7-0.1s0.4-0.1,0.6-0.1l0.5-0.1c0.2,0,0.4-0.1,0.5-0.1c0.2-0.1,0.4-0.1,0.6-0.2l0.4-0.2c0.2-0.1,0.4-0.1,0.5-0.2
			c0.2-0.1,0.4-0.2,0.5-0.3l0.4-0.2c0.2-0.1,0.4-0.2,0.6-0.3s0.3-0.2,0.5-0.3l0.4-0.2c0.2-0.1,0.3-0.2,0.5-0.3s0.4-0.3,0.6-0.4
			l0.4-0.3c0.1-0.1,0.2-0.2,0.4-0.3c0.9-0.7,1.7-1.6,2.4-2.5c0.1-0.1,0.2-0.2,0.2-0.3l0.1-0.2c0.2-0.3,0.4-0.6,0.6-0.9
			c0.1-0.2,0.2-0.3,0.3-0.5l0.1-0.1c0.2-0.3,0.3-0.6,0.5-0.8c0.1-0.2,0.2-0.4,0.3-0.6c0.2-0.4,0.3-0.7,0.4-1
			c0.1-0.2,0.2-0.5,0.3-0.7c0.1-0.3,0.2-0.6,0.3-0.9c0.1-0.2,0.1-0.5,0.2-0.7c0.1-0.3,0.1-0.6,0.2-0.9c0-0.3,0.1-0.5,0.1-0.8
			s0.1-0.6,0.1-0.9s0-0.6,0-0.9c0-0.1,0-0.2,0-0.2c0-0.1,0-0.1,0-0.2s0-0.1,0-0.2s0-0.1,0-0.2s0-0.2,0-0.2c0-0.1,0-0.1,0-0.2v-0.1
			c-0.1-1.6-0.4-3.1-0.8-4.5c-0.2-0.6-0.4-1.2-0.7-1.7c-0.1-0.1-0.1-0.2-0.2-0.3l0.1-0.6c-0.2-0.4-0.4-0.7-0.6-1.1
			c-0.1-0.1-0.2-0.3-0.3-0.4l-0.1-0.2c-0.2-0.3-0.4-0.6-0.7-0.9c-0.1-0.2-0.3-0.3-0.4-0.5l-0.1-0.1c-0.3-0.3-0.5-0.6-0.8-0.9
			c0-0.1,0-0.2-0.1-0.2l-0.1-0.1L35,10.5c-0.1,0-0.1-0.1-0.2-0.1l-0.2-0.2c0-0.1-0.1-0.1-0.1-0.1L34.4,10c-1.2-1.1-2.4-1.9-3.7-2.6
			l-0.1-0.1c-0.3-0.1-0.7-0.3-1.1-0.5l-0.2-0.1c-0.6-0.2-1-0.4-1.5-0.5s-1-0.3-1.5-0.4h-0.2c-0.5-0.1-1-0.2-1.5-0.2h-0.2
			C23.9,5.5,23.4,5.5,22.9,5.5L22.9,5.5z"/>
	</g>
</g>
</svg>
