<?xml version="1.0" encoding="utf-8"?>
<!-- Generator: Adobe Illustrator 26.0.2, SVG Export Plug-In . SVG Version: 6.00 Build 0)  -->
<svg version="1.1" id="ICON" xmlns="http://www.w3.org/2000/svg" xmlns:xlink="http://www.w3.org/1999/xlink" x="0px" y="0px"
	 viewBox="0 0 104.3 99.4" style="enable-background:new 0 0 104.3 99.4;" xml:space="preserve">
<style type="text/css">
	.st0{fill:#EFEFEF;}
</style>
<path class="st0" d="M104.3,42.3c0,4.7-0.9,9.2-2.7,13.5c-1.8,4.3-4.6,8.5-8.4,12.6c-11,12.6-35.4,28-41,30.3
	c-5.5,2.4-4.7-1.5-4.5-2.8c0.1-0.8,0.7-4.5,0.7-4.5c0.1-1.3,0.3-3.4-0.2-4.7c-0.6-1.5-2.9-2.2-4.6-2.6C18.6,80.8,0,63.2,0,42.3
	C0,19,23.4,0,52.2,0C80.9,0,104.3,19,104.3,42.3z M88,54.7V51c0-0.5-0.4-1-1-1H77v-3.8h10c0.5,0,1-0.4,1-1v-3.7c0-0.5-0.4-1-1-1H77
	v-3.8h10c0.5,0,1-0.4,1-1v-3.6c0-0.5-0.4-1-1-1H72.3c-0.3,0-0.5,0.1-0.7,0.3c-0.2,0.2-0.3,0.4-0.3,0.7v22.6c0,0.3,0.1,0.5,0.3,0.7
	c0.2,0.2,0.4,0.3,0.7,0.3H87C87.5,55.7,88,55.3,88,54.7z M67.9,54.8V32.1c0-0.5-0.4-1-1-1h-3.7c-0.5,0-1,0.4-1,1v13.3L51.8,31.3
	l-0.1-0.1c-0.1-0.1-0.1-0.1-0.1-0.1c-0.1,0-0.1,0-0.1,0c-0.1,0-0.1,0-0.1,0c-0.1,0-0.1,0-0.1,0c-0.1,0-0.1,0-0.1,0
	c-0.1,0-0.1,0-0.1,0c-0.1,0-0.1,0-0.1,0c-0.1,0-0.1,0-0.1,0c-0.1,0-0.1,0-0.1,0h-3.7c-0.5,0-1,0.4-1,1v22.7c0,0.5,0.4,1,1,1h3.7
	c0.5,0,1-0.4,1-1V41.3l10.5,14.2c0.1,0.2,0.2,0.2,0.3,0.3c0.1,0,0.1,0,0.1,0c0.1,0,0.1,0,0.1,0c0.1,0,0.2,0,0.3,0h3.7
	C67.3,55.8,67.8,55.4,67.9,54.8L67.9,54.8z M42.6,54.8V32.1c0-0.5-0.4-1-1-1h-3.7c-0.5,0-1,0.4-1,1v22.7c0,0.5,0.4,1,1,1h3.7
	C42.1,55.8,42.6,55.4,42.6,54.8z M33.8,54.8L33.8,54.8l-0.1-3.6c0-0.5-0.4-1-1-1h-9.9V32.1c0-0.5-0.4-1-1-1h-3.7c-0.5,0-1,0.4-1,1
	v22.7c0,0.3,0.1,0.5,0.3,0.7c0.2,0.2,0.4,0.3,0.7,0.3h14.7C33.3,55.8,33.8,55.4,33.8,54.8z"/>
</svg>
