<?xml version="1.0" encoding="utf-8"?>
<!-- Generator: Adobe Illustrator 22.1.0, SVG Export Plug-In . SVG Version: 6.00 Build 0)  -->
<svg version="1.1" id="Capa_1" xmlns="http://www.w3.org/2000/svg" xmlns:xlink="http://www.w3.org/1999/xlink" x="0px" y="0px"
	 viewBox="0 0 612 612" style="enable-background:new 0 0 612 612;" xml:space="preserve">
<g>
	<g>
		<path d="M604.3,194.7c4.3,0,7.7-3.6,7.7-7.7v-40.2c0-4.3-3.3-7.7-7.7-7.7H7.7c-4.3,0-7.7,3.6-7.7,7.7V187c0,4.3,3.3,7.7,7.7,7.7
			H604.3L604.3,194.7z"/>
		<path d="M0,326.1c0,4.3,3.3,7.7,7.7,7.7h596.5c4.3,0,7.7-3.6,7.7-7.7v-40.2c0-4.3-3.3-7.7-7.7-7.7H7.7c-4.3,0-7.7,3.6-7.7,7.7
			V326.1z"/>
		<path d="M0,465.2c0,4.3,3.3,7.7,7.7,7.7h596.5c4.3,0,7.7-3.6,7.7-7.7V425c0-4.3-3.3-7.7-7.7-7.7H7.7c-4.3,0-7.7,3.6-7.7,7.7V465.2
			z"/>
	</g>
</g>
</svg>
