<svg width="42" height="31" viewBox="0 0 42 31" fill="none" xmlns="http://www.w3.org/2000/svg">
<g clip-path="url(#clip0_76_771)">
<path d="M-0.000125885 30.2609C1.47282 26.0369 4.78139 22.7022 8.94432 21.1784C8.93425 21.1583 8.9282 21.1362 8.91813 21.1161C7.17921 19.6967 6.1012 17.5104 6.19993 15.0972C6.34703 11.5196 9.01686 8.64265 12.4262 8.10259C12.3778 8.51616 12.3476 8.93576 12.3456 9.35335C12.3234 14.3082 16.2506 18.3777 21.1691 18.5785C21.282 18.5825 21.3948 18.5865 21.5076 18.5865C25.6545 18.6066 29.0436 15.2518 29.0618 11.112C29.0779 7.71311 26.3234 4.93654 22.9161 4.91847C22.4829 4.91646 22.1303 5.26579 22.1283 5.69944C22.1283 6.13309 22.4748 6.48242 22.9101 6.48644C25.4509 6.49648 27.5042 8.57037 27.4921 11.104C27.476 14.3805 24.7961 17.0346 21.5137 17.0185C17.3044 17.0005 13.8951 13.5634 13.9152 9.35937C13.9152 8.92974 13.9475 8.4981 14.0059 8.07448C14.012 8.03433 14.012 7.99418 14.0099 7.95402C15.0094 3.24811 19.2831 -0.194994 24.2581 0.00777767C29.1242 0.206534 33.0393 3.82631 33.7788 8.44991C34.2684 8.33146 34.7823 8.27324 35.3102 8.29532C38.3709 8.4198 40.7506 10.9996 40.6257 14.0553C40.5894 14.9366 40.3436 15.7557 39.9486 16.4805C41.2342 17.3137 42.0623 18.7812 41.9958 20.4215C41.8951 22.8929 39.8056 24.8162 37.3312 24.7138C36.9907 24.6998 36.6622 24.6436 36.3459 24.5592C36.0295 24.4769 35.7192 24.3625 35.425 24.2179C33.5753 23.3145 32.8056 21.074 33.7103 19.2269C34.1999 18.2251 35.2397 17.6028 36.3559 17.6429C36.7892 17.657 37.1519 17.3197 37.168 16.886C37.1841 16.4524 36.8516 16.095 36.4104 16.0749C34.6755 16.0147 33.0635 16.9804 32.2998 18.5363C31.5482 20.0701 31.6147 21.7887 32.318 23.2121C31.3931 27.7695 27.3007 31.1202 22.5131 30.9937C20.1858 30.7709 18.0076 30.0702 16.0713 28.9941C15.5554 28.7231 15.0174 28.4922 14.4633 28.2934C12.9078 27.6068 11.2031 27.1913 9.3997 27.117C5.8453 26.9724 2.54881 28.171 -0.000125885 30.2589V30.2609Z" fill="#CC8869"/>
</g>
<defs>
<clipPath id="clip0_76_771">
<rect width="42" height="31" fill="white" transform="matrix(-1 0 0 1 42 0)"/>
</clipPath>
</defs>
</svg>
