<svg width="14" height="14" viewBox="0 0 14 14" fill="none" xmlns="http://www.w3.org/2000/svg">
<path d="M9.22766 5.64607V3.46582L8.05702 3.67511V4.57237H5.94289V3.67511L4.77233 3.46582V5.64607H3.381L1.79282 9.12204V9.80932V10.3032V11.7664V11.9605V12.2432C1.79282 12.5402 2.012 12.781 2.28221 12.781H11.7176C11.988 12.781 12.2071 12.5402 12.2071 12.2432V11.9605V11.7664V10.3032V9.80932V9.12204L10.5988 5.64607H9.22766ZM7 11.2243C5.90783 11.2243 5.0225 10.3389 5.0225 9.24678C5.0225 8.15462 5.90786 7.26923 7 7.26923C8.09213 7.26923 8.9775 8.15462 8.9775 9.24678C8.9775 10.3389 8.09216 11.2243 7 11.2243Z" fill="white"/>
<path d="M11.8677 1.92695C10.8148 1.4804 8.4974 1.21875 7 1.21875C5.55023 1.21875 3.18522 1.48037 2.13227 1.92695C1.06684 2.37878 0 3.39009 0 4.58148C0 5.23473 0.325555 5.6226 0.40343 5.71278C0.40343 5.71278 0.849242 5.71278 0.968133 5.71278H1.6328C1.99831 5.71278 2.43474 5.71278 2.67017 5.71278C2.80509 5.71278 3.1004 5.1271 3.1004 4.88793C3.1004 4.46722 2.8776 3.88222 2.8776 3.88222C2.89043 3.59271 3.00546 3.38118 3.47692 3.1785C4.33174 2.81106 6.21182 2.79457 7 2.79457C7.78816 2.79457 9.66826 2.81109 10.5231 3.1785C10.9945 3.38118 11.1096 3.59271 11.1224 3.88222C11.1224 3.88222 10.8996 4.46722 10.8996 4.88793C10.8996 5.1271 11.1949 5.71278 11.3298 5.71278C11.5651 5.71278 12.0016 5.71278 12.3672 5.71278H13.0319C13.1508 5.71278 13.5966 5.71278 13.5966 5.71278C13.6744 5.6226 14 5.2347 14 4.58148C14 3.39009 12.9332 2.37878 11.8677 1.92695Z" fill="white"/>
</svg>
