<svg width="14" height="15" viewBox="0 0 14 15" fill="none" xmlns="http://www.w3.org/2000/svg">
<path fill-rule="evenodd" clip-rule="evenodd" d="M7 13.125C9.89952 13.125 12.25 10.6066 12.25 7.5C12.25 4.3934 9.89952 1.875 7 1.875C4.10051 1.875 1.75 4.3934 1.75 7.5C1.75 10.6066 4.10051 13.125 7 13.125ZM7.58333 4.0625C7.58333 3.71732 7.32218 3.4375 7 3.4375C6.67782 3.4375 6.41667 3.71732 6.41667 4.0625V7.34375C6.41667 7.77525 6.7431 8.125 7.14583 8.125H9.04167C9.36384 8.125 9.625 7.84519 9.625 7.5C9.625 7.15481 9.36384 6.875 9.04167 6.875H7.58333V4.0625Z" fill="white"/>
</svg>
