<svg width="7" height="75" viewBox="0 0 7 75" fill="none" xmlns="http://www.w3.org/2000/svg">
<path d="M3.68248 28.0268C2.22188 28.0268 1.04456 26.9391 1.04456 25.5999V14.5369C1.04456 13.1977 2.22188 12.11 3.68248 12.11C5.14307 12.11 6.32039 13.1977 6.32039 14.5369V25.5999C6.32039 26.9391 5.14307 28.0268 3.68248 28.0268Z" fill="white"/>
<path d="M3.78677 33.3912C2.1257 33.3912 0.786774 35.2184 0.786774 37.4683V74.4756C1.78342 74.5711 2.78006 74.6393 3.78677 74.6393C4.79349 74.6393 5.80019 74.5711 6.78677 74.4756V37.4683C6.78677 35.2184 5.44785 33.3912 3.78677 33.3912Z" fill="white"/>
<path d="M6.32039 2.90575C6.32039 4.51284 4.90407 5.81151 3.1602 5.81151C1.41634 5.81151 0 4.51284 0 2.90575C0 1.29866 1.41634 0 3.1602 0C4.90407 0 6.32039 1.29866 6.32039 2.90575Z" fill="white"/>
</svg>
