<?xml version="1.0" encoding="utf-8"?>
<!-- Generator: Adobe Illustrator 16.0.0, SVG Export Plug-In . SVG Version: 6.00 Build 0)  -->
<!DOCTYPE svg PUBLIC "-//W3C//DTD SVG 1.1//EN" "http://www.w3.org/Graphics/SVG/1.1/DTD/svg11.dtd">
<svg version="1.1" xmlns="http://www.w3.org/2000/svg" xmlns:xlink="http://www.w3.org/1999/xlink" x="0px" y="0px" width="40px"
	 height="40px" viewBox="0 0 40 40" enable-background="new 0 0 40 40" xml:space="preserve">
<g id="尺標" display="none">
</g>
<g id="_x31_2" display="none">
</g>
<g id="背景">
</g>
<g id="圖片">
</g>
<g id="文字">
	<path fill="#FFFFFF" d="M5.092,14.648C5.092,6.555,11.771,0,20.004,0c8.233,0,14.913,6.556,14.913,14.648
		c0,9.267-9.337,20.373-13.235,24.606c-0.916,0.994-2.447,0.994-3.363,0c-3.899-4.233-13.235-15.34-13.235-24.606H5.092z
		 M20.004,19.884c2.741,0,4.971-2.23,4.971-4.972c0-2.742-2.229-4.972-4.971-4.972s-4.972,2.229-4.972,4.972
		C15.032,17.654,17.263,19.884,20.004,19.884z"/>
</g>
</svg>
