<?xml version="1.0" encoding="utf-8"?>
<!-- Generator: Adobe Illustrator 16.0.0, SVG Export Plug-In . SVG Version: 6.00 Build 0)  -->
<!DOCTYPE svg PUBLIC "-//W3C//DTD SVG 1.1//EN" "http://www.w3.org/Graphics/SVG/1.1/DTD/svg11.dtd">
<svg version="1.1" xmlns="http://www.w3.org/2000/svg" xmlns:xlink="http://www.w3.org/1999/xlink" x="0px" y="0px" width="40px"
	 height="40px" viewBox="0 0 40 40" enable-background="new 0 0 40 40" xml:space="preserve">
<g id="尺標" display="none">
</g>
<g id="_x31_2" display="none">
</g>
<g id="背景">
</g>
<g id="圖片">
</g>
<g id="文字">
	<path fill="#FFFFFF" d="M12.511,1.954c-0.617-1.476-2.228-2.258-3.758-1.844l-0.43,0.117c-5.048,1.375-9.36,6.267-8.103,12.22
		C3.12,26.121,13.878,36.879,27.55,39.777c5.962,1.266,10.845-3.055,12.22-8.102l0.117-0.43c0.422-1.54-0.367-3.148-1.836-3.759
		l-7.603-3.165c-1.289-0.539-2.78-0.164-3.672,0.924l-3.016,3.688c-5.492-2.728-9.914-7.291-12.453-12.893l3.453-2.813
		c1.086-0.883,1.453-2.375,0.922-3.671L12.511,1.954z"/>
</g>
</svg>
