<svg width="24" height="24" viewBox="0 0 24 24" fill="none" xmlns="http://www.w3.org/2000/svg">
<path d="M11 13.5C11 13.5 11.1772 13.6406 11.6835 13.9172C12.1897 14.1937 12.7494 14.3582 13.3248 14.3994C13.9002 14.4406 14.4777 14.3576 15.0181 14.156C15.5586 13.9544 16.0493 13.6389 16.4572 13.2309L18.8708 10.8173C19.6035 10.0586 20.009 9.04249 19.9998 7.98775C19.9907 6.93301 19.5676 5.92407 18.8218 5.17822C18.0759 4.43238 17.067 4.00932 16.0122 4.00015C14.9575 3.99099 13.9414 4.39645 13.1827 5.12922L11.7989 6.50499M13 10.5C13 10.5 12.8228 10.3433 12.3165 10.0667C11.8103 9.79017 11.2506 9.62571 10.6752 9.5845C10.0998 9.54329 9.52235 9.62631 8.98189 9.82792C8.44143 10.0295 7.95065 10.345 7.54284 10.753L5.12922 13.1666C4.39645 13.9253 3.99099 14.9414 4.00015 15.9962C4.00932 17.0509 4.43238 18.0598 5.17822 18.8057C5.92407 19.5515 6.93301 19.9746 7.98775 19.9838C9.04249 19.9929 10.0586 19.5875 10.8173 18.8547L12.1931 17.4789" stroke="#A39689" stroke-width="1.5" stroke-linecap="round" stroke-linejoin="round"/>
</svg>
