<svg width="24" height="24" viewBox="0 0 24 24" fill="none" xmlns="http://www.w3.org/2000/svg">
<path d="M8.70951 15.7132C5.25636 12.553 4.349 9.28001 4.16141 7.232C4.04703 5.98325 5.02938 5.02568 6.26834 4.83219L7.69573 4.60927C9.10101 4.38981 10.4266 5.32592 10.6899 6.72365L10.9178 7.93372C11.0214 8.48365 10.7168 9.02896 10.1943 9.22924C9.59715 9.45811 9.3046 10.1266 9.60957 10.6887C9.97455 11.3614 10.5355 12.2332 11.275 12.9099C12.0145 13.5867 12.9325 14.0684 13.6348 14.3724C14.2216 14.6265 14.8616 14.276 15.0368 13.661C15.1901 13.1228 15.7064 12.7712 16.2633 12.8258L17.4888 12.9458C18.9043 13.0845 19.954 14.3221 19.8596 15.7413L19.7637 17.1828C19.6806 18.434 18.8136 19.4972 17.5596 19.4937C15.503 19.4879 12.1627 18.8734 8.70951 15.7132Z" stroke="#A39689" stroke-width="1.5"/>
</svg>
