<svg width="24" height="24" viewBox="0 0 24 24" fill="none" xmlns="http://www.w3.org/2000/svg">
<path d="M18.7663 7.23375C18.3753 6.84262 17.9111 6.53234 17.4002 6.32065C16.8893 6.10896 16.3417 6 15.7887 6C15.2357 6 14.6881 6.10896 14.1772 6.32065C13.6663 6.53234 13.2021 6.84262 12.8112 7.23375L12.3082 7.73674C12.1379 7.90705 11.8617 7.90705 11.6914 7.73674L11.1884 7.23375C10.3987 6.44406 9.32768 6.00041 8.21089 6.00041C7.09409 6.00041 6.02303 6.44406 5.23334 7.23375C4.44365 8.02344 4 9.0945 4 10.2113C4 11.3281 4.44365 12.3991 5.23334 13.1888L10.1496 18.1051C11.1714 19.1269 12.8282 19.1269 13.85 18.1051L18.7663 13.1888C19.1574 12.7979 19.4677 12.3337 19.6794 11.8228C19.891 11.3119 20 10.7643 20 10.2113C20 9.65828 19.891 9.11068 19.6794 8.59978C19.4677 8.08888 19.1574 7.6247 18.7663 7.23375Z" fill="#221D1A" stroke="#221D1A" stroke-linecap="round" stroke-linejoin="round"/>
</svg>
