<svg width="24" height="24" viewBox="0 0 24 24" fill="none" xmlns="http://www.w3.org/2000/svg">
<path fill-rule="evenodd" clip-rule="evenodd" d="M12 4.00317C14.6094 4.00317 14.9185 4.01461 15.9447 4.06038C16.8984 4.10232 17.4134 4.26249 17.7568 4.39596C18.2108 4.57138 18.5389 4.78494 18.8784 5.12434C19.2217 5.46755 19.4316 5.7917 19.6071 6.2455C19.7406 6.58872 19.9008 7.10735 19.9428 8.05691C19.9886 9.08655 20 9.39544 20 12C20 14.6085 19.9886 14.9174 19.9428 15.9432C19.9008 16.8966 19.7406 17.4114 19.6071 17.7546C19.4316 18.2084 19.2179 18.5364 18.8784 18.8758C18.535 19.219 18.2108 19.4287 17.7568 19.6041C17.4134 19.7376 16.8946 19.8978 15.9447 19.9397C14.9146 19.9855 14.6056 19.9969 12 19.9969C9.39056 19.9969 9.08155 19.9855 8.05532 19.9397C7.10157 19.8978 6.58655 19.7376 6.2432 19.6041C5.78922 19.4287 5.46113 19.2152 5.1216 18.8758C4.77825 18.5325 4.56843 18.2084 4.39294 17.7546C4.25942 17.4114 4.09919 16.8927 4.05722 15.9432C4.01144 14.9136 4 14.6047 4 12C4 9.39163 4.01144 9.08273 4.05722 8.05691C4.09919 7.10354 4.25942 6.58872 4.39294 6.2455C4.56843 5.7917 4.78207 5.46374 5.1216 5.12434C5.46495 4.78112 5.78922 4.57138 6.2432 4.39596C6.58655 4.26249 7.10539 4.10232 8.05532 4.06038C9.08155 4.01461 9.39056 4.00317 12 4.00317ZM6.98331 12.0077C6.98331 9.23909 9.23033 6.99294 12 6.99294C14.7697 6.99294 17.0167 9.23909 17.0167 12.0077C17.0167 14.7763 14.7697 17.0224 12 17.0224C9.23033 17.0224 6.98331 14.7763 6.98331 12.0077ZM12 15.2606C10.2031 15.2606 8.74583 13.8038 8.74583 12.0077C8.74583 10.2115 10.2031 8.75477 12 8.75477C13.7969 8.75477 15.2542 10.2115 15.2542 12.0077C15.2542 13.8038 13.7969 15.2606 12 15.2606ZM17.2151 7.96535C17.8598 7.96535 18.3863 7.4429 18.3863 6.79461C18.3863 6.15013 17.8598 5.62386 17.2151 5.62386C16.5703 5.62386 16.0439 6.14631 16.0439 6.79461C16.0439 7.43908 16.5665 7.96535 17.2151 7.96535Z" fill="white"/>
</svg>
