<svg width="24" height="24" viewBox="0 0 24 24" fill="none" xmlns="http://www.w3.org/2000/svg">
<path fill-rule="evenodd" clip-rule="evenodd" d="M19.3518 15.505C17.3868 17.789 13.0007 20.5599 12.0006 20.9848C11.0439 21.3914 11.139 20.7769 11.1797 20.5137C11.1816 20.5018 11.1833 20.4905 11.1848 20.4802C11.2024 20.3858 11.2462 20.1173 11.3164 19.6746C11.3515 19.4268 11.3866 19.055 11.2901 18.8159C11.1848 18.5504 10.7725 18.4176 10.4655 18.3467C5.96531 17.7536 2.64062 14.5755 2.64062 10.7865C2.64062 6.56382 6.83377 3.12012 12.0006 3.12012C17.1587 3.12012 21.3606 6.56382 21.3606 10.7865C21.3606 12.4774 20.7027 14.0001 19.3518 15.505ZM18.1003 13.0795H15.4686C15.3721 13.0795 15.2932 12.9999 15.2932 12.9025V8.77714C15.2932 8.67977 15.3721 8.60009 15.4686 8.60009H18.1003C18.1968 8.60009 18.2757 8.67977 18.2757 8.77714V9.44995C18.2757 9.54733 18.1968 9.627 18.1003 9.627H16.3107V10.3264H18.1003C18.1968 10.3264 18.2757 10.406 18.2757 10.5034V11.1762C18.2757 11.2736 18.1968 11.3533 18.1003 11.3533H16.3107V12.0526H18.1003C18.1968 12.0526 18.2757 12.1323 18.2757 12.2297V12.9025C18.2757 12.9999 18.1968 13.0795 18.1003 13.0795ZM5.74017 13.0795H8.37184C8.46834 13.0795 8.54729 12.9999 8.54729 12.9025V12.2297C8.54729 12.1323 8.46834 12.0526 8.37184 12.0526H6.58231V8.77714C6.58231 8.67977 6.50336 8.60009 6.40686 8.60009H5.74017C5.64367 8.60009 5.56472 8.67977 5.56472 8.77714V12.9025C5.56472 12.9999 5.64367 13.0795 5.74017 13.0795ZM9.95067 8.60009H9.28412C9.18724 8.60009 9.10871 8.67936 9.10871 8.77714V12.9025C9.10871 13.0003 9.18724 13.0795 9.28412 13.0795H9.95067C10.0475 13.0795 10.1261 13.0003 10.1261 12.9025V8.77714C10.1261 8.67936 10.0475 8.60009 9.95067 8.60009ZM14.6528 12.9025V8.77714C14.6528 8.67977 14.5738 8.60009 14.4686 8.60009H13.8107C13.7142 8.60009 13.6264 8.67977 13.6264 8.77714V11.2205L11.758 8.67976C11.758 8.67386 11.755 8.66796 11.7492 8.66206L11.7229 8.6355H11.7141C11.7141 8.6296 11.7112 8.62665 11.7053 8.62665V8.61779H11.6878L11.679 8.60894H11.6702C11.6644 8.60894 11.6615 8.60599 11.6615 8.60009H10.9509C10.8544 8.60009 10.7667 8.67977 10.7667 8.77714V12.9025C10.7667 12.9999 10.8544 13.0795 10.9509 13.0795H11.6088C11.7141 13.0795 11.793 12.9999 11.793 12.9025V10.4503L13.6615 12.9999C13.6732 13.0176 13.6878 13.0323 13.7054 13.0441H13.7142C13.7142 13.05 13.7171 13.053 13.7229 13.053L13.7317 13.0618H13.7493V13.0707H13.7668C13.7785 13.0766 13.7931 13.0795 13.8107 13.0795H14.4686C14.5738 13.0795 14.6528 12.9999 14.6528 12.9025Z" fill="white"/>
</svg>
