<svg width="24" height="24" viewBox="0 0 24 24" fill="none" xmlns="http://www.w3.org/2000/svg">
<path fill-rule="evenodd" clip-rule="evenodd" d="M11.0977 3.6635C7.19257 4.09743 4.8805 6.76218 4.59076 11.1631C4.15981 17.7079 8.09989 21.602 13.9712 20.4342C19.0394 19.4261 20.5507 13.635 16.2874 11.5592C16.056 11.4464 15.9595 11.373 15.9454 11.2987C15.9346 11.2417 15.9022 11.0147 15.8734 10.7942C15.4654 7.67095 11.6755 6.42067 9.42505 8.66688C8.89824 9.19273 8.87813 9.08961 9.6013 9.57066C10.2081 9.97431 10.2081 9.97431 10.4777 9.70894C11.7356 8.47093 13.9594 9.01047 14.3303 10.6437C14.4008 10.9541 14.4248 10.9377 13.975 10.8861C13.3181 10.8106 11.6975 10.8683 11.2614 10.9827C7.40736 11.9937 8.2977 16.7198 12.3107 16.5523C14.1837 16.4742 15.3907 15.3971 15.8016 13.4371C15.9011 12.9629 15.9716 12.9702 16.506 13.5098C18.4508 15.4735 16.5639 18.6407 13.2042 19.0519C8.25615 19.6576 5.51165 16.3802 6.14237 10.619C6.532 7.06024 8.65716 5.11438 12.1503 5.11807C15.0517 5.12111 17.158 6.51641 17.8836 8.91597C18.0228 9.37646 17.9744 9.36226 18.7318 9.16466C19.5592 8.94879 19.5072 9.00687 19.3331 8.49282C18.1748 5.07082 15.0298 3.22656 11.0977 3.6635ZM13.6943 12.3704C14.4908 12.4558 14.4366 12.4266 14.402 12.7525C14.1845 14.8034 12.1202 15.8516 10.7068 14.629C9.30074 13.4127 11.054 12.0873 13.6943 12.3704Z" fill="white"/>
</svg>
