<svg xmlns="http://www.w3.org/2000/svg" width="10.848" height="10.848" viewBox="0 0 10.848 10.848">
  <path id="Icon_metro-cross" data-name="Icon metro-cross" d="M13.32,10.643h0L10.029,7.352,13.32,4.061h0a.34.34,0,0,0,0-.479L11.765,2.027a.34.34,0,0,0-.479,0h0L7.995,5.318,4.7,2.027h0a.34.34,0,0,0-.479,0L2.67,3.582a.34.34,0,0,0,0,.479h0L5.961,7.352,2.67,10.643h0a.34.34,0,0,0,0,.479l1.555,1.555a.34.34,0,0,0,.479,0h0L7.995,9.386l3.291,3.291h0a.34.34,0,0,0,.479,0l1.555-1.555a.34.34,0,0,0,0-.479Z" transform="translate(-2.571 -1.928)" fill="#fff"/>
</svg>
