<svg width="21" height="24" viewBox="0 0 21 24" fill="none" xmlns="http://www.w3.org/2000/svg">
<path d="M12.3661 5.17108C12.3407 5.46363 12.0863 5.80611 12.024 6.21226C12.097 6.13845 12.1787 6.06744 12.2712 5.99972C12.4589 5.8623 12.6782 5.72575 12.9148 5.60834C13.4362 5.34974 14.0419 5.18453 14.5804 5.30716C14.5492 5.17514 14.2699 5.01388 13.584 4.74203C12.9504 4.49099 12.3451 3.53442 11.6822 2.84393C11.1319 2.2707 10.2657 1.75769 9.49262 1.62812C9.49262 1.62812 9.38842 1.76358 9.54874 2.05787C10.5174 2.56339 11.2502 2.92575 11.8991 3.86877C12.1641 4.25376 12.4075 4.69334 12.366 5.17113L12.3661 5.17108Z" fill="#578A41"/>
<path d="M12.3662 5.17114C12.3408 5.46369 12.0864 5.80617 12.0241 6.21232C12.0971 6.13851 12.1788 6.0675 12.2713 5.99978C12.459 5.86237 12.6783 5.72581 12.9149 5.6084C13.4358 5.35013 14.0407 5.18489 14.5789 5.30674C14.5721 5.2786 14.5555 5.24927 14.5247 5.21774C14.5169 5.21775 14.509 5.21761 14.5013 5.21756C14.2069 5.21634 13.9149 5.25734 13.6208 5.25377C13.3601 5.25062 13.0879 5.20568 12.871 5.04777C12.6494 4.88646 12.5552 4.62212 12.4311 4.3878C12.0743 3.71413 11.6323 3.14805 11.0071 2.70599C10.525 2.36513 9.9951 2.10355 9.46782 1.84232C9.47886 1.90145 9.50272 1.97279 9.54902 2.05782C10.5177 2.56334 11.2505 2.9257 11.8994 3.86872C12.1644 4.25371 12.4077 4.69329 12.3662 5.17108L12.3662 5.17114Z" fill="#396F3C"/>
<path d="M12.9149 5.60834C12.6782 5.72571 12.4589 5.86222 12.2713 5.99972C11.2248 6.76595 11.4759 7.94952 11.8451 9.05652C12.8181 11.9753 12.8198 15.9953 10.5302 18.489C9.3677 19.7552 8.21467 20.7251 6.13393 22.0232C5.74237 22.2675 6.22188 22.5049 6.30065 22.5208C7.31299 22.7241 9.5063 21.7369 10.3656 21.3126C12.2582 20.3779 14.0753 19.0816 15.2939 17.3288C16.9143 14.9979 17.126 11.4417 16.4385 8.82226C16.2165 7.97633 15.9063 6.17047 15.1507 5.57689C14.5089 5.07305 13.6322 5.25264 12.915 5.60838L12.9149 5.60834Z" fill="#E63414"/>
<path d="M16.572 9.40277C16.5701 9.39314 16.5683 9.38346 16.5663 9.37397C16.5499 9.29406 16.5327 9.21501 16.5147 9.13646C16.5113 9.12134 16.5081 9.1059 16.5045 9.09083C16.4835 9.00038 16.4614 8.91068 16.4383 8.82226C16.2163 7.97633 15.906 6.17047 15.1504 5.57689C14.5086 5.07305 13.6319 5.25264 12.9147 5.60829L12.9127 5.60926C12.6768 5.72637 12.4582 5.86249 12.271 5.99958C12.1611 6.08003 12.0664 6.1653 11.9838 6.25436C12.16 6.06471 12.736 6.42959 12.8705 6.56184C13.3953 7.07802 13.6267 7.91393 13.8693 8.59051C14.109 9.25869 14.3658 9.96793 14.44 10.6772C14.5154 11.3978 14.2919 12.0976 14.2187 12.8066C14.1439 13.532 14.2406 14.2563 14.1023 14.9811C14.0389 15.313 13.9138 15.6066 13.7076 15.8725C13.5145 16.1215 13.276 16.3305 13.0828 16.5799C12.6189 17.1788 12.4622 17.8728 12.1726 18.5581C11.8755 19.2612 11.3187 19.799 10.7256 20.2565C10.4057 20.5032 10.0679 20.7257 9.72596 20.9403C9.39408 21.1486 9.06195 21.3779 8.71025 21.5513C8.02903 21.8872 7.24922 21.7862 6.55998 22.0769C6.37657 22.1543 6.20187 22.2471 6.03087 22.3457C6.10958 22.4439 6.25919 22.5123 6.30025 22.5206C7.31259 22.7239 9.5059 21.7367 10.3652 21.3124C12.2578 20.3777 14.0749 19.0814 15.2935 17.3287C16.7439 15.2423 17.0651 12.1746 16.6235 9.67525C16.6231 9.67278 16.6227 9.6704 16.6223 9.66792C16.6065 9.57868 16.5898 9.49052 16.572 9.40277Z" fill="#CD1C0E"/>
<path d="M15.1505 5.57694C14.6246 5.16408 13.941 5.2103 13.3167 5.43608C13.6125 6.19219 14.297 6.72536 14.5196 7.52375C14.7024 8.17974 14.6459 8.87093 14.8059 9.53184C14.965 10.1886 15.2353 10.8114 15.4084 11.464C15.575 12.0924 15.6115 12.7135 15.5022 13.3514C15.3905 14.0048 15.19 14.6396 14.982 15.2664C14.779 15.8788 14.6149 16.5306 14.363 17.1232C14.1292 17.6729 13.7275 18.1064 13.3208 18.5302C12.8469 19.0241 12.4694 19.5521 12.1807 20.1776C12.1589 20.2249 12.137 20.2717 12.1152 20.3186C13.3435 19.5158 14.4591 18.5295 15.2937 17.3289C16.9142 14.998 17.1259 11.4418 16.4384 8.82231C16.2164 7.97638 15.9062 6.17052 15.1505 5.57694Z" fill="#B70D0A"/>
<path d="M12.1383 7.4465C11.8422 7.94632 12.1489 8.66995 12.3428 9.1565C12.628 9.87217 12.8958 10.527 12.9383 11.309C12.9531 11.5803 12.9297 11.859 12.9367 12.1324C12.943 12.3826 13.0094 13.045 13.2029 13.2455C13.7017 13.7624 13.7205 11.7179 13.7189 11.5434C13.715 11.1438 13.7003 10.7307 13.629 10.3356C13.5078 9.66483 13.0106 8.65119 12.8355 8.00045C12.7173 7.56147 12.5518 7.01801 12.1384 7.44659L12.1383 7.4465Z" fill="#ED6C4E"/>
<path d="M13.4239 13.9178C13.539 14.2542 13.1592 15.4812 12.8667 15.172C12.7677 14.7868 12.7957 14.098 13.029 13.7681C13.029 13.7681 13.2633 13.4483 13.4238 13.9177L13.4239 13.9178Z" fill="#ED6C4E"/>
</svg>
