<svg width="71" height="71" viewBox="0 0 71 71" fill="none" xmlns="http://www.w3.org/2000/svg">
<circle cx="35.5" cy="35.5" r="34.5" fill="#775343" stroke="#FFDFD0" stroke-width="2"/>
<path d="M27.72 28.7H42.34V30.22H27.72V28.7ZM27.76 21.56H42.34V23.06H27.76V21.56ZM26.92 14.58H43.12V31.44H41.58V16.04H28.4V31.44H26.92V14.58ZM34.12 15.28H35.64V29.46H34.12V15.28ZM35.6 46.46H42.74V47.84H35.6V46.46ZM37.54 47.32C38.66 51.82 40.96 55.62 44.48 57.34C44.14 57.6 43.68 58.16 43.46 58.54C39.84 56.54 37.52 52.56 36.32 47.6L37.54 47.32ZM29.84 43.6H31.14V45.98H29.84V43.6ZM27.16 45.48H28.52V56.76H27.16V45.48ZM27.96 48.16H32.82V49.24H27.96V48.16ZM25.78 56.46C27.5 56 30.1 55.24 32.6 54.5L32.78 55.72C30.52 56.48 28.16 57.26 26.3 57.86L25.78 56.46ZM30.8 53.1L32.02 52.64C32.8 53.88 33.66 55.52 33.98 56.56L32.7 57.14C32.38 56.08 31.56 54.38 30.8 53.1ZM27.96 45.48H33.54V52H27.96V50.88H32.2V46.6H27.96V45.48ZM35.86 41.2H43.84V42.6H35.86V41.2ZM35.1 41.2H36.52V48.22C36.52 51.4 36.2 55.78 33.92 58.62C33.68 58.34 33.06 57.92 32.74 57.76C34.9 55.06 35.1 51.2 35.1 48.22V41.2ZM42.42 46.46H42.7L42.98 46.4L43.86 46.74C42.8 52.78 40.02 56.58 36.5 58.54C36.28 58.2 35.82 57.62 35.5 57.38C38.92 55.62 41.52 52.14 42.42 46.76V46.46ZM29.48 40.22H30.28V40.54H30.74V40.94C29.88 42.46 28.44 44.52 26.28 46.18C26.06 45.88 25.62 45.46 25.3 45.26C27.32 43.78 28.72 41.8 29.48 40.22ZM29.88 40.22H30.94C32.18 41.24 33.68 42.72 34.4 43.72L33.42 44.78C32.74 43.8 31.34 42.2 30.16 41.22H29.88V40.22Z" fill="#FFDFD0"/>
</svg>
