<svg width="71" height="71" viewBox="0 0 71 71" fill="none" xmlns="http://www.w3.org/2000/svg">
<circle cx="35.5" cy="35.5" r="34.5" fill="#775343" stroke="#FFDFD0" stroke-width="2"/>
<path d="M31.495 53.27C28.345 53.27 25.825 52.925 23.935 52.235C22.045 51.545 20.68 50.375 19.84 48.725C19 47.045 18.58 44.72 18.58 41.75V31.265C18.58 28.295 19 25.97 19.84 24.29C20.68 22.61 22.045 21.44 23.935 20.78C25.825 20.09 28.345 19.745 31.495 19.745H39.505C42.655 19.745 45.175 20.09 47.065 20.78C48.955 21.44 50.32 22.61 51.16 24.29C52 25.97 52.42 28.295 52.42 31.265V41.75C52.42 44.72 52 47.045 51.16 48.725C50.32 50.375 48.955 51.545 47.065 52.235C45.175 52.925 42.655 53.27 39.505 53.27H31.495ZM31.495 50.525H34.06V37.835H21.55V41.795C21.55 44.075 21.865 45.86 22.495 47.15C23.125 48.41 24.16 49.295 25.6 49.805C27.07 50.285 29.035 50.525 31.495 50.525ZM36.94 50.525H39.505C41.995 50.525 43.96 50.285 45.4 49.805C46.84 49.295 47.875 48.41 48.505 47.15C49.135 45.86 49.45 44.075 49.45 41.795V37.835H36.94V50.525ZM21.55 35.18H34.06V22.49H31.495C29.035 22.49 27.07 22.745 25.6 23.255C24.16 23.735 23.125 24.605 22.495 25.865C21.865 27.125 21.55 28.91 21.55 31.22V35.18ZM36.94 35.18H49.45V31.22C49.45 28.91 49.135 27.125 48.505 25.865C47.875 24.605 46.84 23.735 45.4 23.255C43.96 22.745 41.995 22.49 39.505 22.49H36.94V35.18Z" fill="#FFDFD0"/>
</svg>
