<svg width="38" height="50" viewBox="0 0 38 50" fill="none" xmlns="http://www.w3.org/2000/svg">
<path d="M6.30773 15.8157C6.25104 15.8588 6.29931 15.9225 6.29931 15.9225L26.2057 40.9808C26.2057 40.9808 26.2423 41.0385 26.2881 41.0039C26.7012 40.6899 27.5312 40.0599 27.9482 39.7435C27.986 39.7146 27.9438 39.6672 27.9438 39.6672L9.16831 13.78C9.16831 13.78 9.10269 13.6935 9.03268 13.7466C8.33696 14.2749 6.98888 15.2982 6.30773 15.8157Z" fill="#8B4B2D"/>
<path d="M7.96257 12.3077C8.06564 12.2293 7.97187 12.1303 7.97187 12.1303L4.36341 7.15499C3.84127 6.43488 2.83457 6.28605 2.12628 6.82403L1.50861 7.29275C0.800193 7.83072 0.673241 8.84044 1.22668 9.53679L5.04179 14.3391C5.04179 14.3391 5.1343 14.455 5.21914 14.3906C5.89677 13.8762 7.28469 12.8221 7.96257 12.3077ZM3.49183 10.79C3.68553 10.6843 3.67083 10.547 3.4589 10.4848C3.24736 10.4226 3.10406 10.2702 3.14052 10.1462C3.17709 10.0218 3.38009 9.97107 3.59176 10.0335C3.80343 10.0956 3.89004 9.98791 3.78433 9.79434C3.67862 9.60077 3.6849 9.39148 3.79866 9.32952C3.91203 9.26755 4.09153 9.37539 4.19736 9.56897C4.30295 9.76279 4.44046 9.74796 4.50255 9.53603C4.56465 9.32449 4.71737 9.1812 4.84118 9.21752C4.96549 9.25397 5.01627 9.4571 4.95405 9.66889C4.89158 9.88069 4.9993 9.96729 5.19274 9.86146C5.38644 9.75575 5.59572 9.76216 5.65769 9.87566C5.71979 9.98929 5.61207 10.1688 5.41837 10.2745C5.2248 10.3802 5.23938 10.5175 5.4513 10.5797C5.66297 10.6419 5.80626 10.7942 5.76969 10.9183C5.73324 11.0426 5.53024 11.0934 5.31844 11.0309C5.10677 10.9688 5.01991 11.0762 5.12575 11.27C5.23159 11.4634 5.22505 11.6727 5.11167 11.7348C4.99817 11.7969 4.8188 11.6891 4.71284 11.4955C4.60713 11.3019 4.46975 11.3166 4.40765 11.5283C4.34531 11.74 4.19296 11.8833 4.06903 11.8469C3.94472 11.8105 3.89406 11.6074 3.95628 11.3956C4.01862 11.1838 3.91103 11.0972 3.71733 11.203C3.52376 11.3088 3.31448 11.3023 3.25251 11.1888C3.19029 11.075 3.29826 10.8958 3.49183 10.79Z" fill="#8B4B2D"/>
<path d="M29.2992 41.6023C29.3341 41.5755 29.3042 41.5426 29.3042 41.5426L28.5078 40.4448C28.5078 40.4448 28.4881 40.4185 28.4623 40.4381C28.0458 40.7546 27.2346 41.3698 26.8181 41.6868C26.7864 41.7105 26.8117 41.744 26.8117 41.744L27.6519 42.8006C27.6519 42.8006 27.6724 42.8374 27.7076 42.8106C28.1131 42.5025 28.9012 41.9042 29.2992 41.6023Z" fill="#8B4B2D"/>
<path d="M28.2425 43.4896C28.2158 43.5098 28.2419 43.5444 28.2419 43.5444L32.6865 49.1389C33.2396 49.8351 33.9881 50.18 34.3497 49.9059C34.7114 49.6309 34.5801 48.8176 34.0581 48.0975L29.8627 42.3129C29.8627 42.3129 29.8371 42.2789 29.8059 42.3028C29.415 42.5992 28.6333 43.1929 28.2425 43.4896Z" fill="#8B4B2D"/>
<path d="M15.5102 9.7758C15.4465 9.80773 15.4823 9.87938 15.4823 9.87938L30.4367 38.1735C30.4367 38.1735 30.4621 38.2369 30.5132 38.2111C30.977 37.9788 31.9088 37.512 32.377 37.2777C32.4194 37.2566 32.3865 37.2018 32.3865 37.2018L18.6967 8.30177C18.6967 8.30177 18.6481 8.20474 18.5695 8.24395C17.7883 8.63549 16.275 9.39306 15.5102 9.7758Z" fill="#8B4B2D"/>
<path d="M17.7825 6.63282C17.8983 6.57475 17.8245 6.46011 17.8245 6.46011L15.1931 0.905757C14.8124 0.102061 13.8504 -0.229649 13.0551 0.168805L12.3618 0.51585C11.5665 0.914305 11.2559 1.88342 11.6716 2.66952L14.5376 8.09227C14.5376 8.09227 14.6075 8.22312 14.7026 8.17535C15.4632 7.79412 17.0217 7.01355 17.7825 6.63282ZM13.6674 4.31814C13.8772 4.25001 13.8881 4.1125 13.6911 4.01232C13.4947 3.91201 13.3817 3.73604 13.4405 3.62078C13.4992 3.50526 13.7081 3.49269 13.9048 3.593C14.1013 3.69293 14.2064 3.60306 14.138 3.39327C14.0696 3.18348 14.1144 2.97885 14.2375 2.93913C14.3606 2.89916 14.5172 3.03793 14.5855 3.24784C14.6537 3.45775 14.7916 3.46856 14.8915 3.2716C14.9916 3.07513 15.1679 2.96213 15.283 3.02083C15.3986 3.07953 15.411 3.28844 15.3111 3.48515C15.2108 3.68174 15.3007 3.7867 15.5102 3.71844C15.7203 3.65019 15.9248 3.69494 15.9646 3.81799C16.0047 3.94105 15.8658 4.09767 15.656 4.16592C15.4462 4.23417 15.4353 4.37181 15.6321 4.47199C15.8286 4.57204 15.9416 4.74814 15.8828 4.86353C15.8241 4.97892 15.6153 4.99136 15.4187 4.89131C15.2222 4.79125 15.1169 4.88075 15.1852 5.09066C15.2537 5.30057 15.2088 5.50495 15.0859 5.54505C14.9628 5.58515 14.8063 5.44625 14.7378 5.23647C14.6697 5.02668 14.5319 5.01587 14.4316 5.21246C14.3316 5.40892 14.1553 5.52192 14.0403 5.46335C13.9247 5.40452 13.9122 5.19562 14.0123 4.99903C14.1127 4.80232 14.0229 4.69749 13.8131 4.76574C13.6032 4.83412 13.3988 4.78937 13.3588 4.66619C13.3185 4.54301 13.4574 4.38626 13.6674 4.31814Z" fill="#8B4B2D"/>
<path d="M33.3629 39.3537C33.4022 39.3341 33.3788 39.2965 33.3788 39.2965L32.7981 38.0702C32.7981 38.0702 32.7836 38.0411 32.7545 38.0555C32.2865 38.2895 31.3765 38.7456 30.9084 38.9799C30.8728 38.9979 30.8915 39.035 30.8915 39.035L31.5226 40.2283C31.5226 40.2283 31.5358 40.2683 31.5757 40.2484C32.0315 40.0205 32.916 39.5773 33.3629 39.3537Z" fill="#8B4B2D"/>
<path d="M31.9768 41.0145C31.9469 41.0292 31.9662 41.0681 31.9662 41.0681L35.3052 47.3853C35.7209 48.1714 36.393 48.6484 36.7992 48.4451C37.2051 48.2419 37.2261 47.4177 36.8451 46.6143L33.7862 40.1564C33.7862 40.1564 33.7672 40.1181 33.7318 40.1358C33.2931 40.3551 32.4156 40.7948 31.9768 41.0145Z" fill="#8B4B2D"/>
</svg>
