<svg width="44" height="44" viewBox="0 0 44 44" fill="none" xmlns="http://www.w3.org/2000/svg">
<g clip-path="url(#clip0_80_32)">
<path d="M42.4199 19.9796C42.2583 19.525 42.0173 19.1019 41.7075 18.7319C42.1021 17.8836 42.1981 16.9095 41.9494 15.9811C41.7007 15.0529 41.1302 14.2572 40.3644 13.7196C40.526 12.798 40.3666 11.832 39.8862 10.9999C39.4055 10.1673 38.6488 9.54642 37.7701 9.22562C37.6876 8.2938 37.2838 7.4022 36.6041 6.72269C35.9244 6.04275 35.0329 5.63893 34.1009 5.55652C33.7801 4.67781 33.1593 3.92104 32.3267 3.44048C31.4944 2.95991 30.5289 2.80076 29.6069 2.96215C29.0694 2.19636 28.2737 1.62591 27.3456 1.37729C26.4171 1.12859 25.443 1.22467 24.5947 1.61912C23.8773 1.01842 22.9612 0.673462 22 0.673462C21.0388 0.673462 20.1228 1.0185 19.4055 1.61903C18.5571 1.22467 17.583 1.1285 16.6546 1.3772C15.7264 1.62591 14.9308 2.19636 14.3932 2.96215C13.4716 2.80033 12.5055 2.96 11.6734 3.44039C10.8408 3.92104 10.2199 4.67772 9.89914 5.55643C8.96741 5.63893 8.07572 6.04275 7.39621 6.72243C6.71627 7.4022 6.31245 8.2938 6.23004 9.2257C5.35141 9.54651 4.59456 10.1673 4.114 10.9999C3.63352 11.8321 3.4742 12.798 3.63576 13.7196C2.86988 14.2571 2.29943 15.0529 2.05081 15.981C1.80202 16.9095 1.89819 17.8836 2.29264 18.7319C1.98292 19.1018 1.74178 19.5249 1.5803 19.9796H0V21.3265C0 27.2028 2.28834 32.7276 6.44368 36.8828C8.37427 38.8134 10.6006 40.3402 13.0204 41.4226V43.3265H30.9796V41.4226C33.3994 40.3403 35.6258 38.8134 37.5563 36.8828C41.7117 32.7276 44 27.2028 44 21.3265V19.9796H42.4199ZM4.65274 16.6783C4.77735 16.213 5.14559 15.8477 5.61387 15.7246L6.26132 15.5543L6.78803 14.2769L6.45202 13.7009C6.20804 13.2828 6.20606 12.7638 6.44677 12.3469C6.68671 11.9313 7.13393 11.6742 7.6157 11.6742C7.61862 11.6742 7.62163 11.6742 7.62455 11.6743L8.29228 11.6787L9.13421 10.587L8.95606 9.93916C8.82741 9.4714 8.95959 8.96884 9.30102 8.62749C9.64227 8.28606 10.1449 8.15406 10.6126 8.28263L11.2604 8.46077L12.3521 7.61884L12.3478 6.95111C12.3445 6.46599 12.6022 6.01474 13.0203 5.77334C13.4374 5.53254 13.9562 5.5346 14.3743 5.77858L14.9519 6.11554L16.2278 5.5878L16.398 4.94034C16.5211 4.47216 16.8865 4.10392 17.3518 3.97922C17.8176 3.85435 18.3189 3.99108 18.6595 4.33569L19.127 4.8086L20.4961 4.63467L20.8294 4.04977C21.0692 3.62868 21.5178 3.36717 22 3.36717C22.4822 3.36717 22.9308 3.62877 23.1706 4.04977L23.4999 4.63424L24.8731 4.80852L25.3406 4.3356C25.6812 3.99099 26.1827 3.85418 26.6483 3.97913C27.1135 4.10374 27.4789 4.47199 27.602 4.94026L27.7722 5.58771L29.0497 6.11451L29.6257 5.77832C30.0437 5.53434 30.5626 5.53237 30.9797 5.77317C31.3978 6.01456 31.6555 6.46582 31.6522 6.95094L31.6479 7.61867L32.7396 8.4606L33.3874 8.28245C33.8552 8.15389 34.3577 8.28589 34.6991 8.62749C35.0405 8.96884 35.1726 9.47131 35.0439 9.93907L34.8658 10.5869L35.7077 11.6786L36.3755 11.6742C36.3783 11.6741 36.3813 11.6741 36.3843 11.6741C36.866 11.6741 37.3134 11.9314 37.5533 12.3468C37.7941 12.7639 37.792 13.2827 37.5481 13.7008L37.2121 14.2768L37.7388 15.5542L38.3862 15.7245C38.8544 15.8476 39.2226 16.2129 39.3473 16.6783C39.4722 17.1442 39.3356 17.6452 38.9909 17.986L38.518 18.4535L38.6919 19.8225L38.9675 19.9796H5.03628L5.30784 19.8267L5.48212 18.4535L5.0093 17.986C4.66452 17.6453 4.52796 17.1442 4.65274 16.6783ZM22 40.6326C11.8075 40.6326 3.43432 32.6927 2.74038 22.6734H41.2597C40.5657 32.6927 32.1925 40.6326 22 40.6326Z" fill="white"/>
<path d="M32.3265 17.2857C33.0704 17.2857 33.6734 16.6826 33.6734 15.9388C33.6734 15.1949 33.0704 14.5919 32.3265 14.5919C31.5826 14.5919 30.9796 15.1949 30.9796 15.9388C30.9796 16.6826 31.5826 17.2857 32.3265 17.2857Z" fill="white"/>
<path d="M28.7347 11.8979C29.4786 11.8979 30.0816 11.2949 30.0816 10.551C30.0816 9.80713 29.4786 9.2041 28.7347 9.2041C27.9908 9.2041 27.3878 9.80713 27.3878 10.551C27.3878 11.2949 27.9908 11.8979 28.7347 11.8979Z" fill="white"/>
<path d="M13.4695 14.5917C14.2133 14.5917 14.8164 13.9887 14.8164 13.2448C14.8164 12.501 14.2133 11.8979 13.4695 11.8979C12.7256 11.8979 12.1226 12.501 12.1226 13.2448C12.1226 13.9887 12.7256 14.5917 13.4695 14.5917Z" fill="white"/>
</g>
<defs>
<clipPath id="clip0_80_32">
<rect width="44" height="44" fill="white"/>
</clipPath>
</defs>
</svg>
