<svg width="50" height="50" viewBox="0 0 50 50" fill="none" xmlns="http://www.w3.org/2000/svg">
<g clip-path="url(#clip0_38_2439)">
<path d="M12.3077 15.8156C12.251 15.8587 12.2993 15.9225 12.2993 15.9225L32.2057 40.9807C32.2057 40.9807 32.2423 41.0384 32.2881 41.0039C32.7012 40.6899 33.5312 40.0599 33.9482 39.7435C33.986 39.7146 33.9438 39.6672 33.9438 39.6672L15.1683 13.78C15.1683 13.78 15.1027 13.6935 15.0327 13.7466C14.337 14.2749 12.9889 15.2981 12.3077 15.8156Z" fill="white"/>
<path d="M13.9626 12.3077C14.0656 12.2293 13.9719 12.1302 13.9719 12.1302L10.3634 7.15496C9.84127 6.43485 8.83457 6.28603 8.12628 6.82401L7.50861 7.29273C6.80019 7.8307 6.67324 8.84041 7.22668 9.53677L11.0418 14.3391C11.0418 14.3391 11.1343 14.455 11.2191 14.3906C11.8968 13.8761 13.2847 12.8221 13.9626 12.3077ZM9.49183 10.7899C9.68553 10.6842 9.67083 10.547 9.4589 10.4848C9.24736 10.4225 9.10406 10.2702 9.14052 10.1461C9.17709 10.0218 9.38009 9.97104 9.59176 10.0335C9.80343 10.0956 9.89004 9.98789 9.78433 9.79431C9.67862 9.60074 9.6849 9.39146 9.79866 9.32949C9.91203 9.26753 10.0915 9.37537 10.1974 9.56894C10.3029 9.76277 10.4405 9.74793 10.5026 9.53601C10.5646 9.32447 10.7174 9.18117 10.8412 9.2175C10.9655 9.25395 11.0163 9.45707 10.9541 9.66887C10.8916 9.88067 10.9993 9.96727 11.1927 9.86144C11.3864 9.75573 11.5957 9.76214 11.6577 9.87564C11.7198 9.98927 11.6121 10.1688 11.4184 10.2745C11.2248 10.3802 11.2394 10.5174 11.4513 10.5797C11.663 10.6419 11.8063 10.7942 11.7697 10.9183C11.7332 11.0426 11.5302 11.0934 11.3184 11.0309C11.1068 10.9688 11.0199 11.0762 11.1257 11.27C11.2316 11.4634 11.225 11.6727 11.1117 11.7348C10.9982 11.7969 10.8188 11.689 10.7128 11.4955C10.6071 11.3019 10.4697 11.3166 10.4077 11.5283C10.3453 11.74 10.193 11.8832 10.069 11.8469C9.94472 11.8105 9.89406 11.6073 9.95628 11.3955C10.0186 11.1838 9.91103 11.0971 9.71733 11.203C9.52376 11.3088 9.31448 11.3023 9.25251 11.1888C9.19029 11.075 9.29826 10.8958 9.49183 10.7899Z" fill="white"/>
<path d="M35.2992 41.6023C35.3341 41.5755 35.3042 41.5426 35.3042 41.5426L34.5078 40.4448C34.5078 40.4448 34.4881 40.4185 34.4623 40.4381C34.0458 40.7546 33.2346 41.3698 32.8181 41.6868C32.7864 41.7105 32.8117 41.744 32.8117 41.744L33.6519 42.8005C33.6519 42.8005 33.6724 42.8374 33.7076 42.8106C34.1131 42.5025 34.9012 41.9042 35.2992 41.6023Z" fill="white"/>
<path d="M34.2425 43.4896C34.2158 43.5097 34.2419 43.5444 34.2419 43.5444L38.6865 49.1389C39.2396 49.8351 39.9881 50.18 40.3497 49.9059C40.7114 49.6308 40.5801 48.8176 40.0581 48.0975L35.8627 42.3128C35.8627 42.3128 35.8371 42.2789 35.8059 42.3028C35.415 42.5992 34.6333 43.1928 34.2425 43.4896Z" fill="white"/>
<path d="M21.5102 9.77584C21.4465 9.80777 21.4823 9.87942 21.4823 9.87942L36.4367 38.1736C36.4367 38.1736 36.4621 38.2369 36.5132 38.2112C36.977 37.9789 37.9088 37.512 38.377 37.2777C38.4194 37.2566 38.3865 37.2018 38.3865 37.2018L24.6967 8.30181C24.6967 8.30181 24.6481 8.20477 24.5695 8.24399C23.7883 8.63553 22.275 9.3931 21.5102 9.77584Z" fill="white"/>
<path d="M23.7825 6.63282C23.8983 6.57475 23.8245 6.46012 23.8245 6.46012L21.1931 0.905765C20.8124 0.102069 19.8504 -0.229642 19.0551 0.168813L18.3618 0.515858C17.5665 0.914312 17.2559 1.88342 17.6716 2.66952L20.5376 8.09227C20.5376 8.09227 20.6075 8.22312 20.7026 8.17536C21.4632 7.79413 23.0217 7.01356 23.7825 6.63282ZM19.6674 4.31814C19.8772 4.25002 19.8881 4.11251 19.6911 4.01233C19.4947 3.91202 19.3817 3.73605 19.4405 3.62079C19.4992 3.50527 19.7081 3.4927 19.9048 3.59301C20.1013 3.69293 20.2064 3.60306 20.138 3.39328C20.0696 3.18349 20.1144 2.97886 20.2375 2.93914C20.3606 2.89917 20.5172 3.03794 20.5855 3.24785C20.6537 3.45776 20.7916 3.46857 20.8915 3.2716C20.9916 3.07514 21.1679 2.96214 21.283 3.02084C21.3986 3.07954 21.411 3.28845 21.3111 3.48516C21.2108 3.68175 21.3007 3.7867 21.5102 3.71845C21.7203 3.6502 21.9248 3.69495 21.9646 3.818C22.0047 3.94106 21.8658 4.09767 21.656 4.16593C21.4462 4.23418 21.4353 4.37182 21.6321 4.47199C21.8286 4.57205 21.9416 4.74815 21.8828 4.86354C21.8241 4.97892 21.6153 4.99137 21.4187 4.89131C21.2222 4.79126 21.1169 4.88076 21.1852 5.09067C21.2537 5.30058 21.2088 5.50496 21.0859 5.54506C20.9628 5.58515 20.8063 5.44626 20.7378 5.23647C20.6697 5.02669 20.5319 5.01588 20.4316 5.21247C20.3316 5.40893 20.1553 5.52193 20.0403 5.46336C19.9247 5.40453 19.9122 5.19562 20.0123 4.99904C20.1127 4.80232 20.0229 4.69749 19.8131 4.76575C19.6032 4.83412 19.3988 4.78938 19.3588 4.66619C19.3185 4.54301 19.4574 4.38627 19.6674 4.31814Z" fill="white"/>
<path d="M39.3629 39.3537C39.4022 39.3341 39.3788 39.2965 39.3788 39.2965L38.7981 38.0703C38.7981 38.0703 38.7836 38.0411 38.7545 38.0556C38.2865 38.2895 37.3765 38.7456 36.9084 38.9799C36.8728 38.9979 36.8915 39.035 36.8915 39.035L37.5226 40.2283C37.5226 40.2283 37.5358 40.2683 37.5757 40.2484C38.0315 40.0205 38.916 39.5773 39.3629 39.3537Z" fill="white"/>
<path d="M37.9768 41.0145C37.9469 41.0292 37.9662 41.0681 37.9662 41.0681L41.3052 47.3853C41.7209 48.1714 42.393 48.6484 42.7992 48.4452C43.2051 48.2419 43.2261 47.4177 42.8451 46.6143L39.7862 40.1564C39.7862 40.1564 39.7672 40.1181 39.7318 40.1358C39.2931 40.3551 38.4156 40.7948 37.9768 41.0145Z" fill="white"/>
</g>
<defs>
<clipPath id="clip0_38_2439">
<rect width="50" height="50" fill="white"/>
</clipPath>
</defs>
</svg>
