<svg width="45" height="45" viewBox="0 0 45 45" fill="none" xmlns="http://www.w3.org/2000/svg">
<path d="M11.8407 14.0815C9.54251 11.6507 2.61911 4.75221 2.61911 4.75221C2.12047 4.24583 1.30126 4.24272 0.798744 4.74511L0.55453 4.98932C0.0520178 5.49196 0.0551189 6.31105 0.561637 6.80981C0.561637 6.80981 6.64011 12.8612 8.69267 14.8513C8.79656 14.9518 8.92267 14.9002 8.92267 14.9002C8.92267 14.9002 11.013 14.4634 11.7699 14.2894C11.9698 14.2436 11.8784 14.1214 11.8407 14.0815Z" fill="white"/>
<path d="M19.1027 12.8321L6.8068 0.381836C6.30816 -0.124553 5.48894 -0.127654 4.98643 0.374859L4.74222 0.618944C4.23958 1.12146 4.24281 1.94067 4.74919 2.43931L15.9696 13.5238C15.9696 13.5238 16.07 13.6225 16.1952 13.5867C16.8256 13.4067 18.5665 13.0745 19.0696 12.9664C19.2182 12.9346 19.1027 12.8321 19.1027 12.8321Z" fill="white"/>
<path d="M21.2524 13.8223L8.60418 16.3945C7.9094 16.5438 7.75189 17.077 8.25453 17.5795L35.2979 44.6231C35.8007 45.1257 36.6229 45.1257 37.1255 44.6231L44.4431 37.3055C44.9458 36.8028 44.9458 35.9806 44.4431 35.478L23.4294 14.4646C22.9271 13.9621 21.9472 13.673 21.2524 13.8223ZM25.9899 23.2563C25.7988 23.3775 25.8206 23.4017 26.0328 23.3223C29.5593 22.0005 28.3248 28.1937 25.4199 25.8289C25.2657 25.7031 25.2284 25.7035 25.3476 25.8485C27.9081 28.9624 20.8432 29.8149 22.8478 26.0531C22.933 25.893 22.8935 25.8734 22.7795 26.0166C20.0598 29.4284 17.5533 22.9659 21.8668 23.7408C21.9698 23.7596 21.9822 23.7269 21.889 23.6903C17.9268 22.1483 23.0483 17.9749 23.7062 21.9989C23.7412 22.213 23.7955 22.1932 23.7997 21.9895C23.8767 17.8508 29.4483 21.0571 25.9899 23.2563Z" fill="white"/>
</svg>
