<svg width="61" height="61" viewBox="0 0 61 61" fill="none" xmlns="http://www.w3.org/2000/svg">
<g clip-path="url(#clip0_80_25)">
<path d="M30.504 31.333C14.8364 31.9223 6.59058 37.708 0.0730381 46.5855C-0.000275255 46.6852 -0.104268 46.9907 0.250344 46.9907C1.86194 46.9907 6.52936 46.9907 6.52936 46.9907C9.38225 46.9907 12.8329 35.4344 30.5038 35.4344C48.4119 35.4344 51.6256 46.9907 54.7844 46.9907H60.6787C61.1828 46.9907 60.9751 46.6395 60.846 46.4655C54.3531 37.7134 46.0392 31.9174 30.504 31.333Z" fill="white"/>
<path d="M58.3115 30.2052C58.2124 30.2052 58.1314 30.0756 58.1314 29.9171V29.269C58.1314 29.1105 58.1301 28.9809 58.1287 28.9809C58.127 28.9809 58.2189 28.8906 58.3328 28.7803C58.3328 28.7803 59.0318 28.1026 59.0318 27.44C59.0318 26.4655 58.242 25.6756 57.2674 25.6756C56.293 25.6756 55.5029 26.4655 55.5029 27.44C55.5029 28.1026 56.2021 28.7803 56.2021 28.7803C56.3159 28.8906 56.4076 28.9809 56.4062 28.9809C56.4046 28.9809 56.4032 29.1105 56.4032 29.269V29.9171C56.4032 30.0756 56.3222 30.2052 56.2231 30.2052C56.1242 30.2052 56.0431 30.3348 56.0431 30.4933V32.6254C56.0431 32.8775 55.9045 32.8236 55.8352 32.7514C53.4199 30.2406 50.8743 28.3012 48.0246 26.7855C47.9547 26.7484 47.8141 26.7109 47.8141 26.5489V22.7323C47.8141 22.5739 47.7332 22.4442 47.6341 22.4442C47.535 22.4442 47.454 22.3146 47.454 22.1562V21.5597C47.454 21.4013 47.5471 21.1812 47.6606 21.0706C47.6606 21.0706 48.3542 20.3945 48.3542 19.7342C48.3542 18.7597 47.5645 17.9698 46.5898 17.9698C45.6153 17.9698 44.8254 18.7597 44.8254 19.7342C44.8254 20.3945 45.5192 21.0706 45.5192 21.0706C45.6326 21.1812 45.7256 21.4013 45.7256 21.5597V22.1562C45.7256 22.3146 45.6447 22.4442 45.5456 22.4442C45.4465 22.4442 45.3655 22.5739 45.3655 22.7323V25.2437C45.3655 25.4597 45.1638 25.4492 45.0624 25.4084C41.1711 23.8416 36.7032 22.929 31.5069 22.6407C31.4631 22.6382 31.3754 22.6241 31.3754 22.507V18.9301C31.3754 18.7716 31.2943 18.642 31.1953 18.642C31.0962 18.642 31.0153 18.5124 31.0153 18.3539V17.5989C31.0153 17.4403 31.1082 17.2202 31.2217 17.1098C31.2217 17.1098 31.9155 16.4338 31.9155 15.7736C31.9155 14.799 31.1255 14.0092 30.1511 14.0092C29.1765 14.0092 28.3867 14.799 28.3867 15.7736C28.3867 16.4338 29.0805 17.1099 29.0805 17.1099C29.194 17.2205 29.2869 17.4406 29.2869 17.5991V18.3541C29.2869 18.5125 29.2058 18.6422 29.1068 18.6422C29.0079 18.6422 28.9268 18.7718 28.9268 18.9302V22.4351C28.9268 22.6032 28.7842 22.639 28.7132 22.643C23.5048 22.9345 19.0283 23.8542 15.1316 25.4318C15.0664 25.4583 14.9365 25.4717 14.9365 25.3157V22.7323C14.9365 22.5739 14.8554 22.4442 14.7564 22.4442C14.6575 22.4442 14.5764 22.3146 14.5764 22.1562V21.5597C14.5764 21.4013 14.6693 21.1812 14.7827 21.0706C14.7827 21.0706 15.4766 20.3945 15.4766 19.7342C15.4766 18.7597 14.6867 17.9698 13.7122 17.9698C12.7377 17.9698 11.9478 18.7597 11.9478 19.7342C11.9478 20.3945 12.6416 21.0706 12.6416 21.0706C12.7551 21.1812 12.848 21.4013 12.848 21.5597V22.1562C12.848 22.3146 12.7669 22.4442 12.6679 22.4442C12.569 22.4442 12.4879 22.5739 12.4879 22.7323V26.504C12.4879 26.684 12.3956 26.6961 12.3496 26.7203C9.45008 28.2455 6.86524 30.2042 4.41508 32.7514C4.36294 32.8056 4.25895 32.8534 4.25895 32.6614V30.4933C4.25895 30.3348 4.17786 30.2052 4.07891 30.2052C3.97995 30.2052 3.89886 30.0756 3.89886 29.9171V29.269C3.89886 29.1105 3.89757 28.9809 3.89613 28.9809C3.89454 28.9809 3.98629 28.8906 4.10022 28.7803C4.10022 28.7803 4.79922 28.1026 4.79922 27.44C4.79922 26.4655 4.00934 25.6756 3.0348 25.6756C2.06041 25.6756 1.27039 26.4655 1.27039 27.44C1.27039 28.1026 1.96938 28.7803 1.96938 28.7803C2.08317 28.8906 2.17492 28.9809 2.17348 28.9809C2.17204 28.9809 2.1706 29.1105 2.1706 29.269V29.9171C2.1706 30.0756 2.08951 30.2052 1.99056 30.2052C1.8916 30.2052 1.81051 30.3348 1.81051 30.4933V35.7386C1.80979 35.7397 1.80893 35.7406 1.80821 35.7416L1.81051 35.7437V41.6761C1.81051 41.9162 1.99257 41.8051 2.08375 41.7032C2.75494 40.9549 3.43551 40.2483 4.12845 39.5821C4.17195 39.5402 4.25895 39.4529 4.25895 39.3273V36.2744C4.25895 36.1483 4.32492 36.0818 4.3579 36.0429C6.81008 33.151 9.42703 30.8819 12.3758 29.1589C12.4131 29.1371 12.4879 29.097 12.4879 29.2321V33.238C12.4879 33.508 12.6787 33.3748 12.7747 33.3306C13.4247 33.029 14.0891 32.7455 14.7693 32.4808C14.8249 32.4593 14.9365 32.419 14.9365 32.2482V27.9692C14.9365 27.8521 15.0582 27.7837 15.1193 27.7566C18.9823 26.0422 23.4156 25.1045 28.728 24.8051C28.7941 24.8015 28.9268 24.8244 28.9268 24.9805V29.5386C28.9268 29.6826 29.0799 29.6551 29.1565 29.651C29.4714 29.634 29.7877 29.6183 30.1077 29.6062L30.1511 29.6044L30.1944 29.6062C30.5179 29.6184 30.8374 29.6343 31.1554 29.6513C31.2292 29.6551 31.3754 29.6645 31.3754 29.5294V24.9383C31.3754 24.8123 31.4753 24.8028 31.5252 24.8055C36.8122 25.1037 41.2292 26.0334 45.0792 27.7326C45.1751 27.7749 45.3657 27.921 45.3657 28.0771V32.1579C45.3657 32.3499 45.4916 32.3621 45.5545 32.386C46.2662 32.6564 46.9626 32.945 47.642 33.2553C47.6995 33.2818 47.8143 33.3282 47.8143 33.1481V29.2772C47.8143 29.1451 47.9613 29.2083 48.0342 29.2517C50.8999 30.9525 53.4522 33.1736 55.847 35.988C55.9126 36.0649 56.0429 36.1429 56.0429 36.4548V38.5793C56.0429 38.8075 56.1754 38.9236 56.2416 38.9841C56.9295 39.6142 57.5521 40.2261 58.2171 40.9339C58.2913 41.0127 58.4915 41.0279 58.4915 40.788V30.4938C58.4915 30.3348 58.4104 30.2052 58.3115 30.2052Z" fill="white"/>
</g>
<defs>
<clipPath id="clip0_80_25">
<rect width="61" height="61" fill="white"/>
</clipPath>
</defs>
</svg>
