<svg width="44" height="44" viewBox="0 0 44 44" fill="none" xmlns="http://www.w3.org/2000/svg">
<g clip-path="url(#clip0_45_16)">
<path d="M42.4199 19.9796C42.2583 19.525 42.0173 19.1019 41.7075 18.732C42.1021 17.8836 42.1981 16.9096 41.9494 15.9811C41.7007 15.0529 41.1302 14.2572 40.3644 13.7197C40.526 12.798 40.3666 11.832 39.8862 10.9999C39.4055 10.1674 38.6488 9.54645 37.7701 9.22565C37.6876 8.29383 37.2838 7.40223 36.6041 6.72272C35.9244 6.04278 35.0329 5.63896 34.1009 5.55655C33.7801 4.67784 33.1593 3.92107 32.3267 3.44051C31.4944 2.95995 30.5289 2.80079 29.6069 2.96218C29.0694 2.19639 28.2737 1.62594 27.3456 1.37732C26.4171 1.12862 25.443 1.2247 24.5947 1.61915C23.8773 1.01845 22.9612 0.673492 22 0.673492C21.0388 0.673492 20.1228 1.01853 19.4055 1.61906C18.5571 1.2247 17.583 1.12853 16.6546 1.37723C15.7264 1.62594 14.9308 2.19639 14.3932 2.96218C13.4716 2.80036 12.5055 2.96003 11.6734 3.44042C10.8408 3.92107 10.2199 4.67775 9.89914 5.55646C8.96741 5.63896 8.07572 6.04278 7.39621 6.72246C6.71627 7.40223 6.31245 8.29383 6.23004 9.22573C5.35141 9.54654 4.59456 10.1674 4.114 10.9999C3.63352 11.8321 3.4742 12.798 3.63576 13.7197C2.86988 14.2571 2.29943 15.0529 2.05081 15.981C1.80202 16.9095 1.89819 17.8836 2.29264 18.732C1.98292 19.1018 1.74178 19.5249 1.5803 19.9796H0V21.3265C0 27.2028 2.28834 32.7277 6.44368 36.8828C8.37427 38.8134 10.6006 40.3403 13.0204 41.4226V43.3265H30.9796V41.4226C33.3993 40.3404 35.6258 38.8134 37.5563 36.8828C41.7117 32.7277 44 27.2028 44 21.3265V19.9796H42.4199ZM4.65274 16.6783C4.77735 16.2131 5.14559 15.8477 5.61387 15.7246L6.26132 15.5543L6.78803 14.2769L6.45202 13.7009C6.20804 13.2828 6.20606 12.7639 6.44677 12.3469C6.68671 11.9313 7.13393 11.6743 7.6157 11.6743C7.61862 11.6743 7.62162 11.6743 7.62455 11.6744L8.29228 11.6787L9.13421 10.587L8.95606 9.93919C8.82741 9.47143 8.95959 8.96887 9.30102 8.62752C9.64227 8.28609 10.1449 8.15409 10.6126 8.28266L11.2604 8.46081L12.3521 7.61888L12.3478 6.95114C12.3445 6.46602 12.6022 6.01477 13.0203 5.77337C13.4374 5.53257 13.9563 5.53463 14.3743 5.77861L14.9519 6.11557L16.2278 5.58783L16.398 4.94038C16.5211 4.47219 16.8865 4.10395 17.3518 3.97925C17.8176 3.85438 18.3189 3.99111 18.6595 4.33572L19.127 4.80863L20.4961 4.6347L20.8294 4.04981C21.0692 3.62871 21.5178 3.3672 22 3.3672C22.4822 3.3672 22.9308 3.6288 23.1706 4.04981L23.4999 4.63427L24.8731 4.80855L25.3406 4.33563C25.6812 3.99102 26.1827 3.85421 26.6483 3.97916C27.1135 4.10377 27.4789 4.47202 27.602 4.94029L27.7722 5.58774L29.0497 6.11454L29.6257 5.77835C30.0437 5.53438 30.5626 5.5324 30.9797 5.7732C31.3978 6.01459 31.6555 6.46585 31.6522 6.95097L31.6479 7.6187L32.7396 8.46063L33.3874 8.28248C33.8552 8.15392 34.3577 8.28592 34.6991 8.62752C35.0405 8.96887 35.1726 9.47134 35.0439 9.9391L34.8658 10.5869L35.7077 11.6786L36.3755 11.6743C36.3783 11.6742 36.3813 11.6742 36.3843 11.6742C36.866 11.6742 37.3134 11.9314 37.5533 12.3468C37.7941 12.764 37.792 13.2828 37.5481 13.7008L37.2121 14.2768L37.7388 15.5543L38.3862 15.7245C38.8544 15.8476 39.2226 16.213 39.3473 16.6783C39.4722 17.1442 39.3356 17.6452 38.9909 17.986L38.518 18.4535L38.6919 19.8225L38.9675 19.9796H5.03628L5.30784 19.8267L5.48212 18.4535L5.0093 17.986C4.66452 17.6453 4.52796 17.1442 4.65274 16.6783ZM22 40.6326C11.8075 40.6326 3.43432 32.6928 2.74038 22.6734H41.2597C40.5657 32.6928 32.1925 40.6326 22 40.6326Z" fill="#8B4B2D"/>
<path d="M32.3265 17.2856C33.0704 17.2856 33.6734 16.6826 33.6734 15.9387C33.6734 15.1949 33.0704 14.5918 32.3265 14.5918C31.5826 14.5918 30.9796 15.1949 30.9796 15.9387C30.9796 16.6826 31.5826 17.2856 32.3265 17.2856Z" fill="#8B4B2D"/>
<path d="M28.7347 11.8979C29.4786 11.8979 30.0816 11.2948 30.0816 10.551C30.0816 9.80711 29.4786 9.20408 28.7347 9.20408C27.9908 9.20408 27.3878 9.80711 27.3878 10.551C27.3878 11.2948 27.9908 11.8979 28.7347 11.8979Z" fill="#8B4B2D"/>
<path d="M13.4695 14.5918C14.2133 14.5918 14.8164 13.9887 14.8164 13.2449C14.8164 12.501 14.2133 11.898 13.4695 11.898C12.7256 11.898 12.1226 12.501 12.1226 13.2449C12.1226 13.9887 12.7256 14.5918 13.4695 14.5918Z" fill="#8B4B2D"/>
</g>
<defs>
<clipPath id="clip0_45_16">
<rect width="44" height="44" fill="white"/>
</clipPath>
</defs>
</svg>
