<svg width="100" height="100" viewBox="0 0 100 100" fill="none" xmlns="http://www.w3.org/2000/svg">
<path d="M78.1459 45.2917C84.618 38.8196 84.6181 28.3262 78.1459 21.8541C71.6737 15.382 61.1803 15.382 54.7082 21.854L44.4412 32.1209C43.6393 32.9227 43.6393 34.2229 44.4412 35.0247C45.2431 35.8266 46.5432 35.8266 47.3451 35.0248L57.6121 24.758C62.4804 19.8896 70.3736 19.8897 75.242 24.758C80.1103 29.6263 80.1103 37.5195 75.242 42.3878L64.9751 52.6546C64.1732 53.4565 64.1732 54.7566 64.9751 55.5585C65.777 56.3604 67.0771 56.3604 67.879 55.5585L78.1459 45.2917Z" fill="#E6E6E6"/>
<path d="M21.8541 54.7083C15.382 61.1804 15.3819 71.6738 21.8541 78.1459C28.3263 84.618 38.8197 84.618 45.2919 78.146L55.5588 67.8791C56.3607 67.0773 56.3607 65.7771 55.5588 64.9752C54.757 64.1733 53.4568 64.1733 52.6549 64.9752L42.3879 75.242C37.5196 80.1103 29.6264 80.1103 24.758 75.242C19.8897 70.3737 19.8897 62.4805 24.7581 57.6122L35.0249 47.3454C35.8268 46.5435 35.8268 45.2434 35.0249 44.4415C34.223 43.6396 32.9229 43.6396 32.121 44.4415L21.8541 54.7083Z" fill="#E6E6E6"/>
<path d="M61.719 41.1854C62.5209 40.3836 62.5209 39.0834 61.719 38.2815C60.9171 37.4796 59.617 37.4796 58.8151 38.2815L38.2812 58.8152C37.4793 59.6171 37.4794 60.9172 38.2812 61.7191C39.0831 62.521 40.3833 62.521 41.1852 61.7191L61.719 41.1854Z" fill="#E6E6E6"/>
</svg>
