<svg width="100" height="100" viewBox="0 0 100 100" fill="none" xmlns="http://www.w3.org/2000/svg">
<path fill-rule="evenodd" clip-rule="evenodd" d="M17.0004 37.4569C16.9999 37.4845 16.9999 37.512 17.0004 37.5395V67.1667C17.0004 71.4929 20.4724 75 24.7553 75H75.2447C79.5276 75 82.9996 71.4929 82.9996 67.1667V37.5395C83.0001 37.512 83.0001 37.4845 82.9996 37.4569V32.8333C82.9996 28.5071 79.5276 25 75.2447 25H24.7553C20.4724 25 17.0004 28.5071 17.0004 32.8333L17.0004 37.4569ZM78.8746 36.25V32.8333C78.8746 30.8083 77.2495 29.1667 75.2447 29.1667H24.7553C22.7505 29.1667 21.1254 30.8083 21.1254 32.8333V36.25L50 51.8056L78.8746 36.25ZM78.8746 40.9722L50 56.5278L21.1254 40.9722V67.1667C21.1254 69.1917 22.7505 70.8333 24.7553 70.8333H75.2447C77.2495 70.8333 78.8746 69.1917 78.8746 67.1667L78.8746 40.9722Z" fill="#E6E6E6"/>
</svg>
