<svg width="79" height="52" viewBox="0 0 79 52" fill="none" xmlns="http://www.w3.org/2000/svg">
<g filter="url(#filter0_ddii_85150_534)">
<mask id="path-1-outside-1_85150_534" maskUnits="userSpaceOnUse" x="18" y="10.5" width="43" height="16" fill="black">
<rect fill="white" x="18" y="10.5" width="43" height="16"/>
<path d="M19.9735 24.5V12.752H22.2835L23.2735 15.227V24.5H19.9735ZM28.0585 24.5L21.244 15.9365L22.2835 12.752L29.098 21.3155L28.0585 24.5ZM28.0585 24.5L27.2335 21.893V12.752H30.5335V24.5H28.0585ZM32.4774 24.5V12.752H35.7774V24.5H32.4774ZM35.1504 24.5V21.761H41.4534V24.5H35.1504ZM35.1504 19.847V17.174H40.8429V19.847H35.1504ZM35.1504 15.491V12.752H41.3544V15.491H35.1504ZM45.87 24.5L42.174 12.752H45.4575L48.0645 21.794H46.5465L49.1205 12.752H51.843L54.417 21.794H52.9155L55.5225 12.752H58.773L55.077 24.5H52.338L49.764 15.4745H51.183L48.609 24.5H45.87Z"/>
</mask>
<path d="M19.9735 24.5V12.752H22.2835L23.2735 15.227V24.5H19.9735ZM28.0585 24.5L21.244 15.9365L22.2835 12.752L29.098 21.3155L28.0585 24.5ZM28.0585 24.5L27.2335 21.893V12.752H30.5335V24.5H28.0585ZM32.4774 24.5V12.752H35.7774V24.5H32.4774ZM35.1504 24.5V21.761H41.4534V24.5H35.1504ZM35.1504 19.847V17.174H40.8429V19.847H35.1504ZM35.1504 15.491V12.752H41.3544V15.491H35.1504ZM45.87 24.5L42.174 12.752H45.4575L48.0645 21.794H46.5465L49.1205 12.752H51.843L54.417 21.794H52.9155L55.5225 12.752H58.773L55.077 24.5H52.338L49.764 15.4745H51.183L48.609 24.5H45.87Z" fill="#EA10AC"/>
<path d="M19.9735 24.5V12.752H22.2835L23.2735 15.227V24.5H19.9735ZM28.0585 24.5L21.244 15.9365L22.2835 12.752L29.098 21.3155L28.0585 24.5ZM28.0585 24.5L27.2335 21.893V12.752H30.5335V24.5H28.0585ZM32.4774 24.5V12.752H35.7774V24.5H32.4774ZM35.1504 24.5V21.761H41.4534V24.5H35.1504ZM35.1504 19.847V17.174H40.8429V19.847H35.1504ZM35.1504 15.491V12.752H41.3544V15.491H35.1504ZM45.87 24.5L42.174 12.752H45.4575L48.0645 21.794H46.5465L49.1205 12.752H51.843L54.417 21.794H52.9155L55.5225 12.752H58.773L55.077 24.5H52.338L49.764 15.4745H51.183L48.609 24.5H45.87Z" fill="#F24822"/>
<path d="M19.9735 24.5V12.752H22.2835L23.2735 15.227V24.5H19.9735ZM28.0585 24.5L21.244 15.9365L22.2835 12.752L29.098 21.3155L28.0585 24.5ZM28.0585 24.5L27.2335 21.893V12.752H30.5335V24.5H28.0585ZM32.4774 24.5V12.752H35.7774V24.5H32.4774ZM35.1504 24.5V21.761H41.4534V24.5H35.1504ZM35.1504 19.847V17.174H40.8429V19.847H35.1504ZM35.1504 15.491V12.752H41.3544V15.491H35.1504ZM45.87 24.5L42.174 12.752H45.4575L48.0645 21.794H46.5465L49.1205 12.752H51.843L54.417 21.794H52.9155L55.5225 12.752H58.773L55.077 24.5H52.338L49.764 15.4745H51.183L48.609 24.5H45.87Z" fill="#FFD966"/>
<path d="M19.9735 24.5H18.4735C18.4735 25.3284 19.1451 26 19.9735 26V24.5ZM19.9735 12.752V11.252C19.1451 11.252 18.4735 11.9236 18.4735 12.752H19.9735ZM22.2835 12.752L23.6762 12.1949C23.4484 11.6254 22.8969 11.252 22.2835 11.252V12.752ZM23.2735 15.227H24.7735C24.7735 15.0362 24.7371 14.8471 24.6662 14.6699L23.2735 15.227ZM23.2735 24.5V26C24.1019 26 24.7735 25.3284 24.7735 24.5H23.2735ZM28.0585 24.5L26.8848 25.434C27.2284 25.8658 27.7814 26.0741 28.3246 25.9762C28.8677 25.8783 29.3132 25.4901 29.4845 24.9655L28.0585 24.5ZM21.244 15.9365L19.818 15.471C19.6616 15.9503 19.7564 16.476 20.0703 16.8705L21.244 15.9365ZM22.2835 12.752L23.4572 11.818C23.1136 11.3862 22.5606 11.1779 22.0174 11.2758C21.4743 11.3737 21.0288 11.7619 20.8575 12.2865L22.2835 12.752ZM29.098 21.3155L30.524 21.781C30.6804 21.3017 30.5856 20.776 30.2717 20.3815L29.098 21.3155ZM28.0585 24.5L26.6284 24.9526C26.8257 25.5762 27.4044 26 28.0585 26V24.5ZM27.2335 21.893H25.7335C25.7335 22.0465 25.7571 22.1992 25.8034 22.3456L27.2335 21.893ZM27.2335 12.752V11.252C26.4051 11.252 25.7335 11.9236 25.7335 12.752H27.2335ZM30.5335 12.752H32.0335C32.0335 11.9236 31.3619 11.252 30.5335 11.252V12.752ZM30.5335 24.5V26C31.3619 26 32.0335 25.3284 32.0335 24.5H30.5335ZM21.4735 24.5V12.752H18.4735V24.5H21.4735ZM19.9735 14.252H22.2835V11.252H19.9735V14.252ZM20.8908 13.3091L21.8808 15.7841L24.6662 14.6699L23.6762 12.1949L20.8908 13.3091ZM21.7735 15.227V24.5H24.7735V15.227H21.7735ZM23.2735 23H19.9735V26H23.2735V23ZM29.2322 23.566L22.4177 15.0025L20.0703 16.8705L26.8848 25.434L29.2322 23.566ZM22.67 16.402L23.7095 13.2175L20.8575 12.2865L19.818 15.471L22.67 16.402ZM21.1098 13.686L27.9243 22.2495L30.2717 20.3815L23.4572 11.818L21.1098 13.686ZM27.672 20.85L26.6325 24.0345L29.4845 24.9655L30.524 21.781L27.672 20.85ZM29.4886 24.0474L28.6636 21.4404L25.8034 22.3456L26.6284 24.9526L29.4886 24.0474ZM28.7335 21.893V12.752H25.7335V21.893H28.7335ZM27.2335 14.252H30.5335V11.252H27.2335V14.252ZM29.0335 12.752V24.5H32.0335V12.752H29.0335ZM30.5335 23H28.0585V26H30.5335V23ZM32.4774 24.5H30.9774C30.9774 25.3284 31.649 26 32.4774 26V24.5ZM32.4774 12.752V11.252C31.649 11.252 30.9774 11.9236 30.9774 12.752H32.4774ZM35.7774 12.752H37.2774C37.2774 11.9236 36.6058 11.252 35.7774 11.252V12.752ZM35.7774 24.5V26C36.6058 26 37.2774 25.3284 37.2774 24.5H35.7774ZM35.1504 24.5H33.6504C33.6504 25.3284 34.322 26 35.1504 26V24.5ZM35.1504 21.761V20.261C34.322 20.261 33.6504 20.9326 33.6504 21.761H35.1504ZM41.4534 21.761H42.9534C42.9534 20.9326 42.2818 20.261 41.4534 20.261V21.761ZM41.4534 24.5V26C42.2818 26 42.9534 25.3284 42.9534 24.5H41.4534ZM35.1504 19.847H33.6504C33.6504 20.6754 34.322 21.347 35.1504 21.347V19.847ZM35.1504 17.174V15.674C34.322 15.674 33.6504 16.3456 33.6504 17.174H35.1504ZM40.8429 17.174H42.3429C42.3429 16.3456 41.6713 15.674 40.8429 15.674V17.174ZM40.8429 19.847V21.347C41.6713 21.347 42.3429 20.6754 42.3429 19.847H40.8429ZM35.1504 15.491H33.6504C33.6504 16.3194 34.322 16.991 35.1504 16.991V15.491ZM35.1504 12.752V11.252C34.322 11.252 33.6504 11.9236 33.6504 12.752H35.1504ZM41.3544 12.752H42.8544C42.8544 11.9236 42.1828 11.252 41.3544 11.252V12.752ZM41.3544 15.491V16.991C42.1828 16.991 42.8544 16.3194 42.8544 15.491H41.3544ZM33.9774 24.5V12.752H30.9774V24.5H33.9774ZM32.4774 14.252H35.7774V11.252H32.4774V14.252ZM34.2774 12.752V24.5H37.2774V12.752H34.2774ZM35.7774 23H32.4774V26H35.7774V23ZM36.6504 24.5V21.761H33.6504V24.5H36.6504ZM35.1504 23.261H41.4534V20.261H35.1504V23.261ZM39.9534 21.761V24.5H42.9534V21.761H39.9534ZM41.4534 23H35.1504V26H41.4534V23ZM36.6504 19.847V17.174H33.6504V19.847H36.6504ZM35.1504 18.674H40.8429V15.674H35.1504V18.674ZM39.3429 17.174V19.847H42.3429V17.174H39.3429ZM40.8429 18.347H35.1504V21.347H40.8429V18.347ZM36.6504 15.491V12.752H33.6504V15.491H36.6504ZM35.1504 14.252H41.3544V11.252H35.1504V14.252ZM39.8544 12.752V15.491H42.8544V12.752H39.8544ZM41.3544 13.991H35.1504V16.991H41.3544V13.991ZM45.87 24.5L44.4391 24.9502C44.6357 25.575 45.215 26 45.87 26V24.5ZM42.174 12.752V11.252C41.6963 11.252 41.2472 11.4795 40.9646 11.8647C40.682 12.2498 40.5998 12.7465 40.7431 13.2022L42.174 12.752ZM45.4575 12.752L46.8988 12.3364C46.7136 11.6942 46.1259 11.252 45.4575 11.252V12.752ZM48.0645 21.794V23.294C48.5358 23.294 48.9797 23.0725 49.2631 22.6959C49.5465 22.3192 49.6364 21.8313 49.5058 21.3784L48.0645 21.794ZM46.5465 21.794L45.1038 21.3833C44.975 21.8358 45.0659 22.3224 45.3494 22.6979C45.6329 23.0733 46.0761 23.294 46.5465 23.294V21.794ZM49.1205 12.752V11.252C48.4502 11.252 47.8613 11.6967 47.6778 12.3413L49.1205 12.752ZM51.843 12.752L53.2857 12.3413C53.1022 11.6967 52.5132 11.252 51.843 11.252V12.752ZM54.417 21.794V23.294C54.8874 23.294 55.3306 23.0733 55.6141 22.6979C55.8976 22.3224 55.9885 21.8358 55.8597 21.3833L54.417 21.794ZM52.9155 21.794L51.4742 21.3784C51.3436 21.8313 51.4335 22.3192 51.7169 22.6959C52.0003 23.0725 52.4442 23.294 52.9155 23.294V21.794ZM55.5225 12.752V11.252C54.8541 11.252 54.2664 11.6942 54.0812 12.3364L55.5225 12.752ZM58.773 12.752L60.2039 13.2022C60.3472 12.7465 60.265 12.2498 59.9824 11.8647C59.6998 11.4795 59.2507 11.252 58.773 11.252V12.752ZM55.077 24.5V26C55.732 26 56.3113 25.575 56.5079 24.9502L55.077 24.5ZM52.338 24.5L50.8955 24.9114C51.0793 25.5557 51.668 26 52.338 26V24.5ZM49.764 15.4745V13.9745C49.2934 13.9745 48.8501 14.1953 48.5667 14.5709C48.2832 14.9465 48.1925 15.4334 48.3215 15.8859L49.764 15.4745ZM51.183 15.4745L52.6255 15.8859C52.7545 15.4334 52.6638 14.9465 52.3803 14.5709C52.0968 14.1953 51.6536 13.9745 51.183 13.9745V15.4745ZM48.609 24.5V26C49.279 26 49.8677 25.5557 50.0515 24.9114L48.609 24.5ZM47.3009 24.0498L43.6049 12.3018L40.7431 13.2022L44.4391 24.9502L47.3009 24.0498ZM42.174 14.252H45.4575V11.252H42.174V14.252ZM44.0162 13.1676L46.6232 22.2096L49.5058 21.3784L46.8988 12.3364L44.0162 13.1676ZM48.0645 20.294H46.5465V23.294H48.0645V20.294ZM47.9892 22.2047L50.5632 13.1627L47.6778 12.3413L45.1038 21.3833L47.9892 22.2047ZM49.1205 14.252H51.843V11.252H49.1205V14.252ZM50.4003 13.1627L52.9743 22.2047L55.8597 21.3833L53.2857 12.3413L50.4003 13.1627ZM54.417 20.294H52.9155V23.294H54.417V20.294ZM54.3568 22.2096L56.9638 13.1676L54.0812 12.3364L51.4742 21.3784L54.3568 22.2096ZM55.5225 14.252H58.773V11.252H55.5225V14.252ZM57.3421 12.3018L53.6461 24.0498L56.5079 24.9502L60.2039 13.2022L57.3421 12.3018ZM55.077 23H52.338V26H55.077V23ZM53.7805 24.0886L51.2065 15.0631L48.3215 15.8859L50.8955 24.9114L53.7805 24.0886ZM49.764 16.9745H51.183V13.9745H49.764V16.9745ZM49.7405 15.0631L47.1665 24.0886L50.0515 24.9114L52.6255 15.8859L49.7405 15.0631ZM48.609 23H45.87V26H48.609V23Z" fill="#EA10AC" mask="url(#path-1-outside-1_85150_534)"/>
<path d="M19.9735 24.5H18.4735C18.4735 25.3284 19.1451 26 19.9735 26V24.5ZM19.9735 12.752V11.252C19.1451 11.252 18.4735 11.9236 18.4735 12.752H19.9735ZM22.2835 12.752L23.6762 12.1949C23.4484 11.6254 22.8969 11.252 22.2835 11.252V12.752ZM23.2735 15.227H24.7735C24.7735 15.0362 24.7371 14.8471 24.6662 14.6699L23.2735 15.227ZM23.2735 24.5V26C24.1019 26 24.7735 25.3284 24.7735 24.5H23.2735ZM28.0585 24.5L26.8848 25.434C27.2284 25.8658 27.7814 26.0741 28.3246 25.9762C28.8677 25.8783 29.3132 25.4901 29.4845 24.9655L28.0585 24.5ZM21.244 15.9365L19.818 15.471C19.6616 15.9503 19.7564 16.476 20.0703 16.8705L21.244 15.9365ZM22.2835 12.752L23.4572 11.818C23.1136 11.3862 22.5606 11.1779 22.0174 11.2758C21.4743 11.3737 21.0288 11.7619 20.8575 12.2865L22.2835 12.752ZM29.098 21.3155L30.524 21.781C30.6804 21.3017 30.5856 20.776 30.2717 20.3815L29.098 21.3155ZM28.0585 24.5L26.6284 24.9526C26.8257 25.5762 27.4044 26 28.0585 26V24.5ZM27.2335 21.893H25.7335C25.7335 22.0465 25.7571 22.1992 25.8034 22.3456L27.2335 21.893ZM27.2335 12.752V11.252C26.4051 11.252 25.7335 11.9236 25.7335 12.752H27.2335ZM30.5335 12.752H32.0335C32.0335 11.9236 31.3619 11.252 30.5335 11.252V12.752ZM30.5335 24.5V26C31.3619 26 32.0335 25.3284 32.0335 24.5H30.5335ZM21.4735 24.5V12.752H18.4735V24.5H21.4735ZM19.9735 14.252H22.2835V11.252H19.9735V14.252ZM20.8908 13.3091L21.8808 15.7841L24.6662 14.6699L23.6762 12.1949L20.8908 13.3091ZM21.7735 15.227V24.5H24.7735V15.227H21.7735ZM23.2735 23H19.9735V26H23.2735V23ZM29.2322 23.566L22.4177 15.0025L20.0703 16.8705L26.8848 25.434L29.2322 23.566ZM22.67 16.402L23.7095 13.2175L20.8575 12.2865L19.818 15.471L22.67 16.402ZM21.1098 13.686L27.9243 22.2495L30.2717 20.3815L23.4572 11.818L21.1098 13.686ZM27.672 20.85L26.6325 24.0345L29.4845 24.9655L30.524 21.781L27.672 20.85ZM29.4886 24.0474L28.6636 21.4404L25.8034 22.3456L26.6284 24.9526L29.4886 24.0474ZM28.7335 21.893V12.752H25.7335V21.893H28.7335ZM27.2335 14.252H30.5335V11.252H27.2335V14.252ZM29.0335 12.752V24.5H32.0335V12.752H29.0335ZM30.5335 23H28.0585V26H30.5335V23ZM32.4774 24.5H30.9774C30.9774 25.3284 31.649 26 32.4774 26V24.5ZM32.4774 12.752V11.252C31.649 11.252 30.9774 11.9236 30.9774 12.752H32.4774ZM35.7774 12.752H37.2774C37.2774 11.9236 36.6058 11.252 35.7774 11.252V12.752ZM35.7774 24.5V26C36.6058 26 37.2774 25.3284 37.2774 24.5H35.7774ZM35.1504 24.5H33.6504C33.6504 25.3284 34.322 26 35.1504 26V24.5ZM35.1504 21.761V20.261C34.322 20.261 33.6504 20.9326 33.6504 21.761H35.1504ZM41.4534 21.761H42.9534C42.9534 20.9326 42.2818 20.261 41.4534 20.261V21.761ZM41.4534 24.5V26C42.2818 26 42.9534 25.3284 42.9534 24.5H41.4534ZM35.1504 19.847H33.6504C33.6504 20.6754 34.322 21.347 35.1504 21.347V19.847ZM35.1504 17.174V15.674C34.322 15.674 33.6504 16.3456 33.6504 17.174H35.1504ZM40.8429 17.174H42.3429C42.3429 16.3456 41.6713 15.674 40.8429 15.674V17.174ZM40.8429 19.847V21.347C41.6713 21.347 42.3429 20.6754 42.3429 19.847H40.8429ZM35.1504 15.491H33.6504C33.6504 16.3194 34.322 16.991 35.1504 16.991V15.491ZM35.1504 12.752V11.252C34.322 11.252 33.6504 11.9236 33.6504 12.752H35.1504ZM41.3544 12.752H42.8544C42.8544 11.9236 42.1828 11.252 41.3544 11.252V12.752ZM41.3544 15.491V16.991C42.1828 16.991 42.8544 16.3194 42.8544 15.491H41.3544ZM33.9774 24.5V12.752H30.9774V24.5H33.9774ZM32.4774 14.252H35.7774V11.252H32.4774V14.252ZM34.2774 12.752V24.5H37.2774V12.752H34.2774ZM35.7774 23H32.4774V26H35.7774V23ZM36.6504 24.5V21.761H33.6504V24.5H36.6504ZM35.1504 23.261H41.4534V20.261H35.1504V23.261ZM39.9534 21.761V24.5H42.9534V21.761H39.9534ZM41.4534 23H35.1504V26H41.4534V23ZM36.6504 19.847V17.174H33.6504V19.847H36.6504ZM35.1504 18.674H40.8429V15.674H35.1504V18.674ZM39.3429 17.174V19.847H42.3429V17.174H39.3429ZM40.8429 18.347H35.1504V21.347H40.8429V18.347ZM36.6504 15.491V12.752H33.6504V15.491H36.6504ZM35.1504 14.252H41.3544V11.252H35.1504V14.252ZM39.8544 12.752V15.491H42.8544V12.752H39.8544ZM41.3544 13.991H35.1504V16.991H41.3544V13.991ZM45.87 24.5L44.4391 24.9502C44.6357 25.575 45.215 26 45.87 26V24.5ZM42.174 12.752V11.252C41.6963 11.252 41.2472 11.4795 40.9646 11.8647C40.682 12.2498 40.5998 12.7465 40.7431 13.2022L42.174 12.752ZM45.4575 12.752L46.8988 12.3364C46.7136 11.6942 46.1259 11.252 45.4575 11.252V12.752ZM48.0645 21.794V23.294C48.5358 23.294 48.9797 23.0725 49.2631 22.6959C49.5465 22.3192 49.6364 21.8313 49.5058 21.3784L48.0645 21.794ZM46.5465 21.794L45.1038 21.3833C44.975 21.8358 45.0659 22.3224 45.3494 22.6979C45.6329 23.0733 46.0761 23.294 46.5465 23.294V21.794ZM49.1205 12.752V11.252C48.4502 11.252 47.8613 11.6967 47.6778 12.3413L49.1205 12.752ZM51.843 12.752L53.2857 12.3413C53.1022 11.6967 52.5132 11.252 51.843 11.252V12.752ZM54.417 21.794V23.294C54.8874 23.294 55.3306 23.0733 55.6141 22.6979C55.8976 22.3224 55.9885 21.8358 55.8597 21.3833L54.417 21.794ZM52.9155 21.794L51.4742 21.3784C51.3436 21.8313 51.4335 22.3192 51.7169 22.6959C52.0003 23.0725 52.4442 23.294 52.9155 23.294V21.794ZM55.5225 12.752V11.252C54.8541 11.252 54.2664 11.6942 54.0812 12.3364L55.5225 12.752ZM58.773 12.752L60.2039 13.2022C60.3472 12.7465 60.265 12.2498 59.9824 11.8647C59.6998 11.4795 59.2507 11.252 58.773 11.252V12.752ZM55.077 24.5V26C55.732 26 56.3113 25.575 56.5079 24.9502L55.077 24.5ZM52.338 24.5L50.8955 24.9114C51.0793 25.5557 51.668 26 52.338 26V24.5ZM49.764 15.4745V13.9745C49.2934 13.9745 48.8501 14.1953 48.5667 14.5709C48.2832 14.9465 48.1925 15.4334 48.3215 15.8859L49.764 15.4745ZM51.183 15.4745L52.6255 15.8859C52.7545 15.4334 52.6638 14.9465 52.3803 14.5709C52.0968 14.1953 51.6536 13.9745 51.183 13.9745V15.4745ZM48.609 24.5V26C49.279 26 49.8677 25.5557 50.0515 24.9114L48.609 24.5ZM47.3009 24.0498L43.6049 12.3018L40.7431 13.2022L44.4391 24.9502L47.3009 24.0498ZM42.174 14.252H45.4575V11.252H42.174V14.252ZM44.0162 13.1676L46.6232 22.2096L49.5058 21.3784L46.8988 12.3364L44.0162 13.1676ZM48.0645 20.294H46.5465V23.294H48.0645V20.294ZM47.9892 22.2047L50.5632 13.1627L47.6778 12.3413L45.1038 21.3833L47.9892 22.2047ZM49.1205 14.252H51.843V11.252H49.1205V14.252ZM50.4003 13.1627L52.9743 22.2047L55.8597 21.3833L53.2857 12.3413L50.4003 13.1627ZM54.417 20.294H52.9155V23.294H54.417V20.294ZM54.3568 22.2096L56.9638 13.1676L54.0812 12.3364L51.4742 21.3784L54.3568 22.2096ZM55.5225 14.252H58.773V11.252H55.5225V14.252ZM57.3421 12.3018L53.6461 24.0498L56.5079 24.9502L60.2039 13.2022L57.3421 12.3018ZM55.077 23H52.338V26H55.077V23ZM53.7805 24.0886L51.2065 15.0631L48.3215 15.8859L50.8955 24.9114L53.7805 24.0886ZM49.764 16.9745H51.183V13.9745H49.764V16.9745ZM49.7405 15.0631L47.1665 24.0886L50.0515 24.9114L52.6255 15.8859L49.7405 15.0631ZM48.609 23H45.87V26H48.609V23Z" fill="white" mask="url(#path-1-outside-1_85150_534)"/>
<path d="M19.9735 24.5H18.4735C18.4735 25.3284 19.1451 26 19.9735 26V24.5ZM19.9735 12.752V11.252C19.1451 11.252 18.4735 11.9236 18.4735 12.752H19.9735ZM22.2835 12.752L23.6762 12.1949C23.4484 11.6254 22.8969 11.252 22.2835 11.252V12.752ZM23.2735 15.227H24.7735C24.7735 15.0362 24.7371 14.8471 24.6662 14.6699L23.2735 15.227ZM23.2735 24.5V26C24.1019 26 24.7735 25.3284 24.7735 24.5H23.2735ZM28.0585 24.5L26.8848 25.434C27.2284 25.8658 27.7814 26.0741 28.3246 25.9762C28.8677 25.8783 29.3132 25.4901 29.4845 24.9655L28.0585 24.5ZM21.244 15.9365L19.818 15.471C19.6616 15.9503 19.7564 16.476 20.0703 16.8705L21.244 15.9365ZM22.2835 12.752L23.4572 11.818C23.1136 11.3862 22.5606 11.1779 22.0174 11.2758C21.4743 11.3737 21.0288 11.7619 20.8575 12.2865L22.2835 12.752ZM29.098 21.3155L30.524 21.781C30.6804 21.3017 30.5856 20.776 30.2717 20.3815L29.098 21.3155ZM28.0585 24.5L26.6284 24.9526C26.8257 25.5762 27.4044 26 28.0585 26V24.5ZM27.2335 21.893H25.7335C25.7335 22.0465 25.7571 22.1992 25.8034 22.3456L27.2335 21.893ZM27.2335 12.752V11.252C26.4051 11.252 25.7335 11.9236 25.7335 12.752H27.2335ZM30.5335 12.752H32.0335C32.0335 11.9236 31.3619 11.252 30.5335 11.252V12.752ZM30.5335 24.5V26C31.3619 26 32.0335 25.3284 32.0335 24.5H30.5335ZM21.4735 24.5V12.752H18.4735V24.5H21.4735ZM19.9735 14.252H22.2835V11.252H19.9735V14.252ZM20.8908 13.3091L21.8808 15.7841L24.6662 14.6699L23.6762 12.1949L20.8908 13.3091ZM21.7735 15.227V24.5H24.7735V15.227H21.7735ZM23.2735 23H19.9735V26H23.2735V23ZM29.2322 23.566L22.4177 15.0025L20.0703 16.8705L26.8848 25.434L29.2322 23.566ZM22.67 16.402L23.7095 13.2175L20.8575 12.2865L19.818 15.471L22.67 16.402ZM21.1098 13.686L27.9243 22.2495L30.2717 20.3815L23.4572 11.818L21.1098 13.686ZM27.672 20.85L26.6325 24.0345L29.4845 24.9655L30.524 21.781L27.672 20.85ZM29.4886 24.0474L28.6636 21.4404L25.8034 22.3456L26.6284 24.9526L29.4886 24.0474ZM28.7335 21.893V12.752H25.7335V21.893H28.7335ZM27.2335 14.252H30.5335V11.252H27.2335V14.252ZM29.0335 12.752V24.5H32.0335V12.752H29.0335ZM30.5335 23H28.0585V26H30.5335V23ZM32.4774 24.5H30.9774C30.9774 25.3284 31.649 26 32.4774 26V24.5ZM32.4774 12.752V11.252C31.649 11.252 30.9774 11.9236 30.9774 12.752H32.4774ZM35.7774 12.752H37.2774C37.2774 11.9236 36.6058 11.252 35.7774 11.252V12.752ZM35.7774 24.5V26C36.6058 26 37.2774 25.3284 37.2774 24.5H35.7774ZM35.1504 24.5H33.6504C33.6504 25.3284 34.322 26 35.1504 26V24.5ZM35.1504 21.761V20.261C34.322 20.261 33.6504 20.9326 33.6504 21.761H35.1504ZM41.4534 21.761H42.9534C42.9534 20.9326 42.2818 20.261 41.4534 20.261V21.761ZM41.4534 24.5V26C42.2818 26 42.9534 25.3284 42.9534 24.5H41.4534ZM35.1504 19.847H33.6504C33.6504 20.6754 34.322 21.347 35.1504 21.347V19.847ZM35.1504 17.174V15.674C34.322 15.674 33.6504 16.3456 33.6504 17.174H35.1504ZM40.8429 17.174H42.3429C42.3429 16.3456 41.6713 15.674 40.8429 15.674V17.174ZM40.8429 19.847V21.347C41.6713 21.347 42.3429 20.6754 42.3429 19.847H40.8429ZM35.1504 15.491H33.6504C33.6504 16.3194 34.322 16.991 35.1504 16.991V15.491ZM35.1504 12.752V11.252C34.322 11.252 33.6504 11.9236 33.6504 12.752H35.1504ZM41.3544 12.752H42.8544C42.8544 11.9236 42.1828 11.252 41.3544 11.252V12.752ZM41.3544 15.491V16.991C42.1828 16.991 42.8544 16.3194 42.8544 15.491H41.3544ZM33.9774 24.5V12.752H30.9774V24.5H33.9774ZM32.4774 14.252H35.7774V11.252H32.4774V14.252ZM34.2774 12.752V24.5H37.2774V12.752H34.2774ZM35.7774 23H32.4774V26H35.7774V23ZM36.6504 24.5V21.761H33.6504V24.5H36.6504ZM35.1504 23.261H41.4534V20.261H35.1504V23.261ZM39.9534 21.761V24.5H42.9534V21.761H39.9534ZM41.4534 23H35.1504V26H41.4534V23ZM36.6504 19.847V17.174H33.6504V19.847H36.6504ZM35.1504 18.674H40.8429V15.674H35.1504V18.674ZM39.3429 17.174V19.847H42.3429V17.174H39.3429ZM40.8429 18.347H35.1504V21.347H40.8429V18.347ZM36.6504 15.491V12.752H33.6504V15.491H36.6504ZM35.1504 14.252H41.3544V11.252H35.1504V14.252ZM39.8544 12.752V15.491H42.8544V12.752H39.8544ZM41.3544 13.991H35.1504V16.991H41.3544V13.991ZM45.87 24.5L44.4391 24.9502C44.6357 25.575 45.215 26 45.87 26V24.5ZM42.174 12.752V11.252C41.6963 11.252 41.2472 11.4795 40.9646 11.8647C40.682 12.2498 40.5998 12.7465 40.7431 13.2022L42.174 12.752ZM45.4575 12.752L46.8988 12.3364C46.7136 11.6942 46.1259 11.252 45.4575 11.252V12.752ZM48.0645 21.794V23.294C48.5358 23.294 48.9797 23.0725 49.2631 22.6959C49.5465 22.3192 49.6364 21.8313 49.5058 21.3784L48.0645 21.794ZM46.5465 21.794L45.1038 21.3833C44.975 21.8358 45.0659 22.3224 45.3494 22.6979C45.6329 23.0733 46.0761 23.294 46.5465 23.294V21.794ZM49.1205 12.752V11.252C48.4502 11.252 47.8613 11.6967 47.6778 12.3413L49.1205 12.752ZM51.843 12.752L53.2857 12.3413C53.1022 11.6967 52.5132 11.252 51.843 11.252V12.752ZM54.417 21.794V23.294C54.8874 23.294 55.3306 23.0733 55.6141 22.6979C55.8976 22.3224 55.9885 21.8358 55.8597 21.3833L54.417 21.794ZM52.9155 21.794L51.4742 21.3784C51.3436 21.8313 51.4335 22.3192 51.7169 22.6959C52.0003 23.0725 52.4442 23.294 52.9155 23.294V21.794ZM55.5225 12.752V11.252C54.8541 11.252 54.2664 11.6942 54.0812 12.3364L55.5225 12.752ZM58.773 12.752L60.2039 13.2022C60.3472 12.7465 60.265 12.2498 59.9824 11.8647C59.6998 11.4795 59.2507 11.252 58.773 11.252V12.752ZM55.077 24.5V26C55.732 26 56.3113 25.575 56.5079 24.9502L55.077 24.5ZM52.338 24.5L50.8955 24.9114C51.0793 25.5557 51.668 26 52.338 26V24.5ZM49.764 15.4745V13.9745C49.2934 13.9745 48.8501 14.1953 48.5667 14.5709C48.2832 14.9465 48.1925 15.4334 48.3215 15.8859L49.764 15.4745ZM51.183 15.4745L52.6255 15.8859C52.7545 15.4334 52.6638 14.9465 52.3803 14.5709C52.0968 14.1953 51.6536 13.9745 51.183 13.9745V15.4745ZM48.609 24.5V26C49.279 26 49.8677 25.5557 50.0515 24.9114L48.609 24.5ZM47.3009 24.0498L43.6049 12.3018L40.7431 13.2022L44.4391 24.9502L47.3009 24.0498ZM42.174 14.252H45.4575V11.252H42.174V14.252ZM44.0162 13.1676L46.6232 22.2096L49.5058 21.3784L46.8988 12.3364L44.0162 13.1676ZM48.0645 20.294H46.5465V23.294H48.0645V20.294ZM47.9892 22.2047L50.5632 13.1627L47.6778 12.3413L45.1038 21.3833L47.9892 22.2047ZM49.1205 14.252H51.843V11.252H49.1205V14.252ZM50.4003 13.1627L52.9743 22.2047L55.8597 21.3833L53.2857 12.3413L50.4003 13.1627ZM54.417 20.294H52.9155V23.294H54.417V20.294ZM54.3568 22.2096L56.9638 13.1676L54.0812 12.3364L51.4742 21.3784L54.3568 22.2096ZM55.5225 14.252H58.773V11.252H55.5225V14.252ZM57.3421 12.3018L53.6461 24.0498L56.5079 24.9502L60.2039 13.2022L57.3421 12.3018ZM55.077 23H52.338V26H55.077V23ZM53.7805 24.0886L51.2065 15.0631L48.3215 15.8859L50.8955 24.9114L53.7805 24.0886ZM49.764 16.9745H51.183V13.9745H49.764V16.9745ZM49.7405 15.0631L47.1665 24.0886L50.0515 24.9114L52.6255 15.8859L49.7405 15.0631ZM48.609 23H45.87V26H48.609V23Z" fill="#3C3C3C" mask="url(#path-1-outside-1_85150_534)"/>
</g>
<defs>
<filter id="filter0_ddii_85150_534" x="0.473633" y="0.751953" width="77.7993" height="50.748" filterUnits="userSpaceOnUse" color-interpolation-filters="sRGB">
<feFlood flood-opacity="0" result="BackgroundImageFix"/>
<feColorMatrix in="SourceAlpha" type="matrix" values="0 0 0 0 0 0 0 0 0 0 0 0 0 0 0 0 0 0 127 0" result="hardAlpha"/>
<feOffset dy="1.5"/>
<feGaussianBlur stdDeviation="2.25"/>
<feColorMatrix type="matrix" values="0 0 0 0 0 0 0 0 0 0 0 0 0 0 0 0 0 0 0.5 0"/>
<feBlend mode="normal" in2="BackgroundImageFix" result="effect1_dropShadow_85150_534"/>
<feColorMatrix in="SourceAlpha" type="matrix" values="0 0 0 0 0 0 0 0 0 0 0 0 0 0 0 0 0 0 127 0" result="hardAlpha"/>
<feOffset dy="7.5"/>
<feGaussianBlur stdDeviation="9"/>
<feColorMatrix type="matrix" values="0 0 0 0 0 0 0 0 0 0 0 0 0 0 0 0 0 0 0.35 0"/>
<feBlend mode="normal" in2="effect1_dropShadow_85150_534" result="effect2_dropShadow_85150_534"/>
<feBlend mode="normal" in="SourceGraphic" in2="effect2_dropShadow_85150_534" result="shape"/>
<feColorMatrix in="SourceAlpha" type="matrix" values="0 0 0 0 0 0 0 0 0 0 0 0 0 0 0 0 0 0 127 0" result="hardAlpha"/>
<feOffset/>
<feGaussianBlur stdDeviation="0.75"/>
<feComposite in2="hardAlpha" operator="arithmetic" k2="-1" k3="1"/>
<feColorMatrix type="matrix" values="0 0 0 0 1 0 0 0 0 1 0 0 0 0 1 0 0 0 0.3 0"/>
<feBlend mode="normal" in2="shape" result="effect3_innerShadow_85150_534"/>
<feColorMatrix in="SourceAlpha" type="matrix" values="0 0 0 0 0 0 0 0 0 0 0 0 0 0 0 0 0 0 127 0" result="hardAlpha"/>
<feOffset dy="1.5"/>
<feComposite in2="hardAlpha" operator="arithmetic" k2="-1" k3="1"/>
<feColorMatrix type="matrix" values="0 0 0 0 1 0 0 0 0 1 0 0 0 0 1 0 0 0 0.08 0"/>
<feBlend mode="normal" in2="effect3_innerShadow_85150_534" result="effect4_innerShadow_85150_534"/>
</filter>
</defs>
</svg>
