<svg xmlns="http://www.w3.org/2000/svg" xmlns:xlink="http://www.w3.org/1999/xlink" width="28" height="20" viewBox="0 0 28 20">
  <defs>
    <clipPath id="clip-path">
      <rect id="Rectangle_648" data-name="Rectangle 648" width="28" height="20" transform="translate(785 3618)" fill="#a2a2a2" stroke="#707070" stroke-width="1"/>
    </clipPath>
  </defs>
  <g id="Mask_Group_59" data-name="Mask Group 59" transform="translate(-785 -3618)" clip-path="url(#clip-path)">
    <g id="book_5_" data-name="book (5)" transform="translate(786.784 3618)">
      <path id="Path_378" data-name="Path 378" d="M27.557,17.945V0l-.685.057A26.333,26.333,0,0,0,18.89,2l-1.205.5V20.377l.878-.365a27.393,27.393,0,0,1,8.256-2.008Zm0,0" transform="translate(-4.672)" fill="#a2a2a2"/>
      <path id="Path_379" data-name="Path 379" d="M30.458,3.605H29.112V19.311a.449.449,0,0,1-.412.449l-1.149.094q-.5.041-.992.1c-.107.013-.213.03-.319.045-.222.03-.444.06-.665.095-.129.021-.257.045-.385.067-.2.035-.4.069-.594.108-.135.027-.269.057-.407.086-.188.04-.376.081-.563.125-.14.033-.28.069-.419.1-.182.045-.362.093-.543.144-.14.039-.281.079-.421.121-.179.053-.356.107-.534.163l-.416.135q-.266.09-.53.185l-.407.149-.184.072H30.458Zm0,0" transform="translate(-5.33 -0.953)" fill="#a2a2a2"/>
      <path id="Path_380" data-name="Path 380" d="M3.734.057,3.049,0V17.946l.8.068a27.21,27.21,0,0,1,8.248,2.019l.828.344V2.5l-1.2-.5A26.332,26.332,0,0,0,3.734.057Zm0,0" transform="translate(-0.806)" fill="#a2a2a2"/>
      <path id="Path_381" data-name="Path 381" d="M0,3.605V21.554H10.292c-.055-.022-.11-.045-.166-.066-.128-.049-.258-.1-.387-.143-.182-.066-.364-.131-.548-.192q-.2-.067-.4-.131-.273-.09-.548-.169c-.135-.039-.269-.079-.4-.117-.184-.051-.369-.1-.555-.147-.135-.035-.269-.069-.407-.1-.188-.045-.377-.086-.566-.127-.135-.029-.269-.059-.4-.086-.2-.039-.392-.073-.589-.108L4.933,20.1c-.217-.034-.434-.064-.652-.093-.11-.015-.219-.032-.329-.045q-.494-.06-.987-.1l-1.208-.1a.449.449,0,0,1-.411-.449V3.605Zm0,0" transform="translate(0 -0.953)" fill="#a2a2a2"/>
    </g>
  </g>
</svg>
