<svg xmlns="http://www.w3.org/2000/svg" xmlns:xlink="http://www.w3.org/1999/xlink" width="48" height="38" viewBox="0 0 48 38">
  <defs>
    <clipPath id="clip-path">
      <rect id="Rectangle_622" data-name="Rectangle 622" width="48" height="38" transform="translate(972 467.847)" fill="#ccc" stroke="#707070" stroke-width="1"/>
    </clipPath>
  </defs>
  <g id="Mask_Group_50" data-name="Mask Group 50" transform="translate(-972 -467.847)" clip-path="url(#clip-path)">
    <g id="cloud-storage" transform="translate(974.925 467.981)">
      <path id="Path_329" data-name="Path 329" d="M32.236,11.144A12.907,12.907,0,0,0,7.917,14.991H7.755a7.766,7.766,0,0,0,0,15.531h3.237v5.818a1.942,1.942,0,0,0,1.939,1.941h4.377l-.388,1.941h-.763a.647.647,0,0,0,0,1.294H25.2a.647.647,0,0,0,0-1.294h-.764l-.388-1.941H28.43a1.942,1.942,0,0,0,1.939-1.941V30.523h1.3a9.7,9.7,0,0,0,.569-19.379ZM29.077,34.4H12.284V24.7a.647.647,0,0,1,.646-.647h15.5a.647.647,0,0,1,.646.647Zm-5.954,5.824H18.238l.388-1.941h4.11Zm5.308-3.236h-15.5a.647.647,0,0,1-.646-.647v-.647h8.409a.65.65,0,1,0,.007,0h8.377v.647a.648.648,0,0,1-.647.647Zm3.237-7.759h-1.3V24.7a1.942,1.942,0,0,0-1.939-1.941h-15.5A1.942,1.942,0,0,0,10.992,24.7v4.529H7.755a6.471,6.471,0,0,1,0-12.943h.033c-.011.215-.033.428-.033.647a.646.646,0,1,0,1.293,0,11.633,11.633,0,1,1,23.266,0,.646.646,0,1,0,1.293,0,12.987,12.987,0,0,0-.29-2.736,12.823,12.823,0,0,0-.5-1.7,8.407,8.407,0,0,1-1.145,16.734Z" transform="translate(0 -3.99)" fill="#ccc"/>
      <path id="Path_330" data-name="Path 330" d="M46.215,22.763a.648.648,0,0,0-.915,0l-1.292,1.294a.647.647,0,1,0,.914.915l.189-.19v4.91a.646.646,0,1,0,1.293,0v-4.91l.189.19a.647.647,0,1,0,.914-.915Z" transform="translate(-22.491 -13.516)" fill="#ccc"/>
      <path id="Path_331" data-name="Path 331" d="M35.967,27.941l-.189.19V23.22a.646.646,0,1,0-1.293,0V28.13l-.189-.19a.647.647,0,1,0-.914.915l1.292,1.294a.648.648,0,0,0,.915,0l1.292-1.294a.647.647,0,0,0-.914-.915Z" transform="translate(-17.037 -13.516)" fill="#ccc"/>
    </g>
  </g>
</svg>
