<svg xmlns="http://www.w3.org/2000/svg" xmlns:xlink="http://www.w3.org/1999/xlink" width="16" height="16" viewBox="0 0 16 16">
  <defs>
    <clipPath id="clip-path">
      <rect id="Rectangle_2349" data-name="Rectangle 2349" width="16" height="16" transform="translate(470 274)" fill="#fff" stroke="#707070" stroke-width="1"/>
    </clipPath>
  </defs>
  <g id="Mask_Group_763" data-name="Mask Group 763" transform="translate(-470 -274)" clip-path="url(#clip-path)">
    <g id="trash" transform="translate(471.776 274)">
      <path id="Path_1121" data-name="Path 1121" d="M4.887.966H7.561v.45h.966V.9a.9.9,0,0,0-.9-.9h-2.8a.9.9,0,0,0-.9.9v.513h.966Zm0,0" fill="#fff"/>
      <path id="Path_1122" data-name="Path 1122" d="M10.757,5.242H1.691a.425.425,0,0,0-.424.46l.758,9.372a1.007,1.007,0,0,0,1,.926H9.42a1.007,1.007,0,0,0,1-.926L11.18,5.7A.425.425,0,0,0,10.757,5.242ZM3.886,15h-.03a.483.483,0,0,1-.481-.453L2.9,6.854a.483.483,0,1,1,.964-.059l.475,7.694A.483.483,0,0,1,3.886,15Zm2.826-.482a.483.483,0,0,1-.966,0V6.824a.483.483,0,0,1,.966,0ZM9.548,6.853l-.453,7.694A.483.483,0,0,1,8.613,15H8.584a.483.483,0,0,1-.454-.51L8.584,6.8a.483.483,0,0,1,.964.057Zm0,0" fill="#fff"/>
      <path id="Path_1123" data-name="Path 1123" d="M12.427,3.752,12.109,2.8a.614.614,0,0,0-.583-.42H.92a.614.614,0,0,0-.582.42l-.317.951A.4.4,0,0,0,.4,4.276h11.65a.393.393,0,0,0,.211-.061A.4.4,0,0,0,12.427,3.752Zm0,0" fill="#fff"/>
    </g>
  </g>
</svg>
