<svg xmlns="http://www.w3.org/2000/svg" xmlns:xlink="http://www.w3.org/1999/xlink" width="16" height="16" viewBox="0 0 16 16">
  <defs>
    <clipPath id="clip-path">
      <rect id="Rectangle_2339" data-name="Rectangle 2339" width="16" height="16" transform="translate(465 218)" fill="#585858" stroke="#707070" stroke-width="1"/>
    </clipPath>
  </defs>
  <g id="Mask_Group_753" data-name="Mask Group 753" transform="translate(-465 -218)" clip-path="url(#clip-path)">
    <g id="key" transform="translate(465 218)">
      <g id="Group_1218" data-name="Group 1218">
        <g id="Group_1217" data-name="Group 1217">
          <circle id="Ellipse_45" data-name="Ellipse 45" cx="1" cy="1" r="1" transform="translate(10.375 3.377)" fill="#585858"/>
        </g>
      </g>
      <g id="Group_1220" data-name="Group 1220">
        <g id="Group_1219" data-name="Group 1219">
          <path id="Path_1100" data-name="Path 1100" d="M15.827,5.186a9.118,9.118,0,0,0-1.966-3.091A8.907,8.907,0,0,0,10.793.167,2.513,2.513,0,0,0,8.127.732L5.673,3.175a2.5,2.5,0,0,0-.522,2.772c.129.29.269.573.419.847L.183,12.181A.625.625,0,0,0,0,12.623v2.75A.625.625,0,0,0,.625,16h2.75A.625.625,0,0,0,4,15.373V14.248H5.125a.625.625,0,0,0,.625-.625V12.5H6.875a.625.625,0,0,0,0-1.25H5.125a.625.625,0,0,0-.625.625V13H3.375a.625.625,0,0,0-.625.625v1.125H1.25V12.882L6.792,7.34a.625.625,0,0,0,.092-.766,10.115,10.115,0,0,1-.591-1.134,1.244,1.244,0,0,1,.261-1.379L9.009,1.618a1.261,1.261,0,0,1,1.337-.283A7.652,7.652,0,0,1,12.98,2.98a7.863,7.863,0,0,1,1.684,2.662,1.241,1.241,0,0,1-.28,1.334L11.9,9.449a1.259,1.259,0,0,1-1.375.268A8.112,8.112,0,0,1,9.4,9.143a.625.625,0,0,0-.654,1.065,9.367,9.367,0,0,0,1.3.663,2.5,2.5,0,0,0,2.737-.536l2.484-2.472A2.49,2.49,0,0,0,15.827,5.186Z" fill="#585858"/>
        </g>
      </g>
    </g>
  </g>
</svg>
