<svg xmlns="http://www.w3.org/2000/svg" xmlns:xlink="http://www.w3.org/1999/xlink" width="16" height="16" viewBox="0 0 16 16">
  <defs>
    <clipPath id="clip-path">
      <rect id="Rectangle_2341" data-name="Rectangle 2341" width="16" height="16" transform="translate(527 218)" fill="#585858" stroke="#707070" stroke-width="1"/>
    </clipPath>
  </defs>
  <g id="Mask_Group_755" data-name="Mask Group 755" transform="translate(-527 -218)" clip-path="url(#clip-path)">
    <g id="user_3_" data-name="user (3)" transform="translate(528.326 218)">
      <path id="Path_1111" data-name="Path 1111" d="M6.573,7.707A3.729,3.729,0,0,0,9.3,6.578a3.729,3.729,0,0,0,1.129-2.725A3.729,3.729,0,0,0,9.3,1.129,3.73,3.73,0,0,0,6.573,0,3.729,3.729,0,0,0,3.849,1.129,3.729,3.729,0,0,0,2.72,3.854,3.729,3.729,0,0,0,3.849,6.578,3.73,3.73,0,0,0,6.573,7.707ZM4.512,1.792A2.785,2.785,0,0,1,6.573.938a2.786,2.786,0,0,1,2.062.854A2.786,2.786,0,0,1,9.49,3.854a2.786,2.786,0,0,1-.854,2.062,2.786,2.786,0,0,1-2.062.854,2.786,2.786,0,0,1-2.062-.854,2.785,2.785,0,0,1-.854-2.062A2.786,2.786,0,0,1,4.512,1.792Zm0,0" fill="#585858"/>
      <path id="Path_1112" data-name="Path 1112" d="M13.317,12.3a9.519,9.519,0,0,0-.13-1.011,7.965,7.965,0,0,0-.249-1.016,5.021,5.021,0,0,0-.418-.948,3.574,3.574,0,0,0-.63-.821,2.778,2.778,0,0,0-.905-.569A3.128,3.128,0,0,0,9.83,7.729a1.173,1.173,0,0,0-.626.266c-.188.122-.407.264-.652.421a3.739,3.739,0,0,1-.844.372,3.278,3.278,0,0,1-2.065,0A3.727,3.727,0,0,1,4.8,8.415c-.243-.155-.463-.3-.653-.421a1.172,1.172,0,0,0-.626-.266,3.124,3.124,0,0,0-1.155.209,2.776,2.776,0,0,0-.905.569,3.574,3.574,0,0,0-.63.821,5.031,5.031,0,0,0-.418.948,7.984,7.984,0,0,0-.249,1.016A9.454,9.454,0,0,0,.032,12.3c-.021.306-.032.624-.032.945a2.657,2.657,0,0,0,.789,2.01A2.84,2.84,0,0,0,2.822,16h7.7a2.841,2.841,0,0,0,2.033-.742,2.656,2.656,0,0,0,.789-2.01C13.349,12.926,13.338,12.608,13.317,12.3Zm-1.4,2.276a1.912,1.912,0,0,1-1.387.483h-7.7a1.912,1.912,0,0,1-1.387-.483,1.735,1.735,0,0,1-.5-1.331c0-.3.01-.6.03-.88a8.527,8.527,0,0,1,.117-.911,7.042,7.042,0,0,1,.219-.9,4.1,4.1,0,0,1,.34-.771,2.649,2.649,0,0,1,.463-.607,1.843,1.843,0,0,1,.6-.374,2.158,2.158,0,0,1,.738-.142c.033.017.091.051.186.113.193.126.415.269.661.426a4.646,4.646,0,0,0,1.06.474,4.215,4.215,0,0,0,2.642,0,4.651,4.651,0,0,0,1.06-.474c.251-.161.467-.3.66-.426.095-.062.153-.1.186-.113a2.159,2.159,0,0,1,.739.142,1.846,1.846,0,0,1,.6.374,2.642,2.642,0,0,1,.463.607,4.082,4.082,0,0,1,.34.771,7.026,7.026,0,0,1,.219.9,8.6,8.6,0,0,1,.117.911h0c.02.283.03.579.03.88A1.735,1.735,0,0,1,11.913,14.579Zm0,0" fill="#585858"/>
    </g>
  </g>
</svg>
