<svg xmlns="http://www.w3.org/2000/svg" xmlns:xlink="http://www.w3.org/1999/xlink" width="95" height="95" viewBox="0 0 95 95">
  <defs>
    <clipPath id="clip-path">
      <rect id="Rectangle_2073" data-name="Rectangle 2073" width="95" height="95" transform="translate(562 390)" fill="#fff" stroke="#707070" stroke-width="1"/>
    </clipPath>
  </defs>
  <g id="Mask_Group_699" data-name="Mask Group 699" transform="translate(-562 -390)" clip-path="url(#clip-path)">
    <g id="list_9_" data-name="list (9)" transform="translate(562 390)">
      <g id="Group_958" data-name="Group 958">
        <g id="Group_955" data-name="Group 955">
          <g id="Group_943" data-name="Group 943">
            <path id="Path_995" data-name="Path 995" d="M62.531,91.491V11.325a3.509,3.509,0,0,0-3.509-3.509H10.011A3.509,3.509,0,0,0,6.5,11.325V91.491A3.509,3.509,0,0,0,10.011,95H59.022a3.509,3.509,0,0,0,3.509-3.509Z" fill="#ffc250"/>
            <path id="Path_996" data-name="Path 996" d="M70.528,7.816H58.783a3.509,3.509,0,0,1,3.509,3.509V91.491A3.509,3.509,0,0,1,58.783,95H70.528a3.509,3.509,0,0,0,3.509-3.509V11.325a3.509,3.509,0,0,0-3.509-3.509Z" fill="#eab14d"/>
            <path id="Path_997" data-name="Path 997" d="M12.238,88.01v-73.2a1.254,1.254,0,0,1,1.254-1.254H67.047A1.254,1.254,0,0,1,68.3,14.806v73.2a1.254,1.254,0,0,1-1.254,1.254H13.492a1.254,1.254,0,0,1-1.254-1.254Z" fill="#f5f5f5"/>
            <path id="Path_998" data-name="Path 998" d="M67.047,13.552H55.3a1.254,1.254,0,0,1,1.254,1.254v73.2A1.254,1.254,0,0,1,55.3,89.264H67.047A1.254,1.254,0,0,0,68.3,88.01v-73.2A1.254,1.254,0,0,0,67.047,13.552Z" fill="#eaeaea"/>
            <path id="Path_999" data-name="Path 999" d="M47.725,4.367V2.52A2.52,2.52,0,0,0,45.2,0H35.334a2.52,2.52,0,0,0-2.52,2.52V4.367A1.031,1.031,0,0,1,31.784,5.4H27.676A2.475,2.475,0,0,0,25.2,7.872v5.68H55.338V7.872A2.475,2.475,0,0,0,52.863,5.4H48.755a1.031,1.031,0,0,1-1.031-1.031Z" fill="#c2d0da"/>
          </g>
          <g id="Group_948" data-name="Group 948">
            <g id="Group_944" data-name="Group 944">
              <path id="Path_1000" data-name="Path 1000" d="M19.534,33.916V22.869a2.216,2.216,0,0,1,2.216-2.216H32.8a2.216,2.216,0,0,1,2.216,2.216V33.916A2.216,2.216,0,0,1,32.8,36.133H21.75A2.216,2.216,0,0,1,19.534,33.916Z" fill="#66b49d"/>
              <path id="Path_1001" data-name="Path 1001" d="M19.534,56.932V45.885a2.216,2.216,0,0,1,2.216-2.216H32.8a2.216,2.216,0,0,1,2.216,2.216V56.932A2.216,2.216,0,0,1,32.8,59.148H21.75A2.216,2.216,0,0,1,19.534,56.932Z" fill="#66b49d"/>
              <path id="Path_1002" data-name="Path 1002" d="M19.534,79.947V68.9a2.216,2.216,0,0,1,2.216-2.216H32.8A2.216,2.216,0,0,1,35.013,68.9V79.947A2.216,2.216,0,0,1,32.8,82.163H21.75A2.216,2.216,0,0,1,19.534,79.947Z" fill="#66b49d"/>
            </g>
            <g id="Group_945" data-name="Group 945">
              <path id="Path_1003" data-name="Path 1003" d="M26.339,32.349h0a2,2,0,0,1-1.606-.82l-1.674-2.3a1.434,1.434,0,1,1,2.318-1.688l.971,1.333L29.18,25.02a1.434,1.434,0,1,1,2.309,1.7l-3.546,4.818A2,2,0,0,1,26.339,32.349Z" fill="#f6f9f9"/>
            </g>
            <g id="Group_946" data-name="Group 946">
              <path id="Path_1004" data-name="Path 1004" d="M26.338,55.865h-.005a2,2,0,0,1-1.606-.82l-1.674-2.3a1.434,1.434,0,1,1,2.318-1.688l.971,1.333,2.838-3.856a1.434,1.434,0,1,1,2.309,1.7l-3.546,4.818a2,2,0,0,1-1.6.811Z" fill="#f6f9f9"/>
            </g>
            <g id="Group_947" data-name="Group 947">
              <path id="Path_1005" data-name="Path 1005" d="M26.338,78.38h0a2,2,0,0,1-1.606-.819l-1.674-2.3a1.434,1.434,0,0,1,2.318-1.688l.97,1.333,2.838-3.856a1.434,1.434,0,1,1,2.309,1.7l-3.546,4.818a2,2,0,0,1-1.6.811Z" fill="#f6f9f9"/>
            </g>
          </g>
          <g id="Group_951" data-name="Group 951">
            <g id="Group_949" data-name="Group 949">
              <path id="Path_1006" data-name="Path 1006" d="M59.874,26.831H42.152a1.434,1.434,0,1,1,0-2.867H59.874a1.434,1.434,0,1,1,0,2.867Z" fill="#ddeafb"/>
            </g>
            <g id="Group_950" data-name="Group 950">
              <path id="Path_1007" data-name="Path 1007" d="M51.013,32.822H42.152a1.434,1.434,0,1,1,0-2.867h8.861a1.434,1.434,0,1,1,0,2.867Z" fill="#ddeafb"/>
            </g>
          </g>
          <g id="Group_954" data-name="Group 954">
            <g id="Group_952" data-name="Group 952">
              <path id="Path_1008" data-name="Path 1008" d="M54.043,49.846H42.152a1.434,1.434,0,0,1,0-2.867H54.043a1.434,1.434,0,1,1,0,2.867Z" fill="#ddeafb"/>
            </g>
            <g id="Group_953" data-name="Group 953">
              <path id="Path_1009" data-name="Path 1009" d="M51.013,55.837H42.152a1.434,1.434,0,0,1,0-2.867h8.861a1.434,1.434,0,1,1,0,2.867Z" fill="#ddeafb"/>
            </g>
          </g>
        </g>
        <g id="Group_957" data-name="Group 957">
          <g id="Group_956" data-name="Group 956">
            <path id="Path_1010" data-name="Path 1010" d="M82.923,37.428l-1.408-1.854-5.267-3.335-2.024-.319L47.256,74.535a11.1,11.1,0,0,0-1.413,3.337,8.687,8.687,0,0,1,7.7,4.875,11.1,11.1,0,0,0,2.413-2.7Z" fill="#fc8086"/>
            <path id="Path_1011" data-name="Path 1011" d="M86.73,24.305l-2.276-1.441a3.8,3.8,0,0,0-5.246,1.179l-2.087,3.3.666,1.342,6.333,4.01,1.7.156,2.088-3.3A3.8,3.8,0,0,0,86.73,24.305Z" fill="#8c9ba6"/>
          </g>
          <path id="Path_1012" data-name="Path 1012" d="M77.322,27.239h5.42v10.3h-5.42Z" transform="matrix(0.535, -0.845, 0.845, 0.535, 9.85, 82.665)" fill="#c9e2e7"/>
          <path id="Path_1013" data-name="Path 1013" d="M53.542,82.748l-7.679,6.188a1.457,1.457,0,0,1-2.331-1.476l2.311-9.587A8.687,8.687,0,0,1,53.542,82.748Z" fill="#7c8b96"/>
          <path id="Path_1014" data-name="Path 1014" d="M51.527,80.091,79.8,35.449l-2.422-1.534L49.105,78.557A8.69,8.69,0,0,1,51.527,80.091Z" fill="#fb636f"/>
        </g>
      </g>
    </g>
  </g>
</svg>
