<svg xmlns="http://www.w3.org/2000/svg" xmlns:xlink="http://www.w3.org/1999/xlink" width="22" height="22" viewBox="0 0 22 22">
  <defs>
    <clipPath id="clip-path">
      <rect id="Rectangle_2077" data-name="Rectangle 2077" width="12" height="12" transform="translate(200 79)" fill="#fff" stroke="#707070" stroke-width="1"/>
    </clipPath>
  </defs>
  <g id="Group_960" data-name="Group 960" transform="translate(-195 -74)">
    <circle id="Ellipse_43" data-name="Ellipse 43" cx="11" cy="11" r="11" transform="translate(195 74)" fill="#55a500"/>
    <g id="Mask_Group_700" data-name="Mask Group 700" clip-path="url(#clip-path)">
      <g id="OBJECTS" transform="translate(200 80.035)">
        <g id="Group_959" data-name="Group 959">
          <path id="Path_1015" data-name="Path 1015" d="M5.465,10.857a.357.357,0,0,1-.3-.15L1.352,5.541a.379.379,0,0,1,.3-.6c.1,0,.15,0,.2.05L5.414,7.5,11.834,1.73a.375.375,0,0,1,.552.5l-6.62,8.475a.3.3,0,0,1-.3.15Z" transform="translate(-0.887 -1.279)" fill="#fff"/>
          <path id="Path_1016" data-name="Path 1016" d="M12.051,2h0m0,0-6.62,8.475L1.62,5.312,5.432,8.02,12.051,2m0-.752h0a.891.891,0,0,0-.5.2L5.331,7.067,2.021,4.71a.569.569,0,0,0-.4-.15.754.754,0,0,0-.552.2.7.7,0,0,0-.05.953L4.88,10.878a.715.715,0,0,0,.6.3h0a.715.715,0,0,0,.6-.3L12.653,2.5a.891.891,0,0,0,.2-.5.783.783,0,0,0-.8-.752Zm0,1.5Z" transform="translate(-0.854 -1.25)" fill="#fff"/>
        </g>
      </g>
    </g>
  </g>
</svg>
