<svg id="圖層_1" data-name="圖層 1" xmlns="http://www.w3.org/2000/svg" viewBox="0 0 556 619"><defs><style>.cls-1{fill:#111111;}.cls-2{fill:#fff;}.cls-10,.cls-11,.cls-12,.cls-13,.cls-3,.cls-4,.cls-5,.cls-6,.cls-7,.cls-8,.cls-9{fill:#797a7c;}.cls-10,.cls-11,.cls-12,.cls-13,.cls-4,.cls-5,.cls-6,.cls-7,.cls-8,.cls-9{isolation:isolate;}.cls-4{opacity:0.95;}.cls-5{opacity:0.8;}.cls-6{opacity:0.85;}.cls-7{opacity:0.7;}.cls-8{opacity:0.65;}.cls-9{opacity:0.5;}.cls-10{opacity:0.45;}.cls-11{opacity:0.4;}.cls-12{opacity:0.35;}.cls-13{opacity:0.3;}</style></defs><rect class="cls-1" width="556" height="619"/><path class="cls-2" d="M207.55,375.26V349.35h3v23.21h11.61v2.7Z"/><path class="cls-2" d="M244.62,365.5a14.18,14.18,0,0,1-.61,4.29,9,9,0,0,1-1.8,3.17,7.68,7.68,0,0,1-2.83,2,9.81,9.81,0,0,1-3.75.68,9,9,0,0,1-3.58-.68,8.08,8.08,0,0,1-2.79-2,8.94,8.94,0,0,1-1.84-3.17,13,13,0,0,1-.63-4.29,12.32,12.32,0,0,1,1.09-5.42,7.7,7.7,0,0,1,3.08-3.43,9.43,9.43,0,0,1,4.79-1.18,8.84,8.84,0,0,1,4.65,1.21,7.75,7.75,0,0,1,3.11,3.42A12.12,12.12,0,0,1,244.62,365.5Zm-14.79,0a11.43,11.43,0,0,0,.63,4.06,5.48,5.48,0,0,0,1.91,2.68,6.39,6.39,0,0,0,6.64,0,5.35,5.35,0,0,0,1.93-2.68,11.94,11.94,0,0,0,.64-4.06,11.51,11.51,0,0,0-.64-4,5.24,5.24,0,0,0-1.9-2.63,5.63,5.63,0,0,0-3.36-.91,5,5,0,0,0-4.54,2A9.47,9.47,0,0,0,229.83,365.5Z"/><path class="cls-2" d="M258.77,355.52a7.44,7.44,0,0,1,5.18,1.56,6.48,6.48,0,0,1,1.67,5v13.21h-2.26L263,372.4h-.14a11.38,11.38,0,0,1-1.7,1.77,6.58,6.58,0,0,1-2,1.09,10.49,10.49,0,0,1-2.84.36,7.35,7.35,0,0,1-3.27-.57,4.79,4.79,0,0,1-2.26-1.86,5.81,5.81,0,0,1-.8-3.2,5.12,5.12,0,0,1,2.27-4.53,13.31,13.31,0,0,1,7-1.71l3.34-.13v-1.18a4.72,4.72,0,0,0-1.07-3.54,4.26,4.26,0,0,0-3.06-1,9.54,9.54,0,0,0-2.91.43,17.67,17.67,0,0,0-2.6,1.05l-.91-2.27a15.32,15.32,0,0,1,3-1.16A13.12,13.12,0,0,1,258.77,355.52Zm4,10.16-3,.14a9.8,9.8,0,0,0-5.11,1.18,3.41,3.41,0,0,0-1.49,3,2.94,2.94,0,0,0,1,2.45,4.08,4.08,0,0,0,2.68.79,6.1,6.1,0,0,0,4.21-1.43,5.32,5.32,0,0,0,1.66-4.31Z"/><path class="cls-2" d="M280.42,375.62a7.36,7.36,0,0,1-5.86-2.52A14,14,0,0,1,274.7,358a7.37,7.37,0,0,1,5.85-2.57,8,8,0,0,1,2.7.41,6.29,6.29,0,0,1,2,1.09,6.36,6.36,0,0,1,1.4,1.57h.23c-.08-.51-.13-1-.16-1.52v-9.33h2.95v27.57h-2.27l-.43-2.77h-.14a6.32,6.32,0,0,1-3.38,2.7A7.88,7.88,0,0,1,280.42,375.62Zm.45-2.45a5.12,5.12,0,0,0,4.42-1.77,8.94,8.94,0,0,0,1.3-5.26v-.55a10.56,10.56,0,0,0-1.25-5.67,4.78,4.78,0,0,0-4.54-2,4.54,4.54,0,0,0-4.06,2.09,10.5,10.5,0,0,0-1.34,5.67,9.85,9.85,0,0,0,1.34,5.54A4.55,4.55,0,0,0,280.87,373.17Z"/><path class="cls-2" d="M299,348.58a1.69,1.69,0,0,1,1.77,1.93,1.91,1.91,0,0,1-.52,1.45,1.8,1.8,0,0,1-1.25.47,1.75,1.75,0,0,1-1.27-.47,1.91,1.91,0,0,1-.52-1.45,2,2,0,0,1,.52-1.48A1.85,1.85,0,0,1,299,348.58Zm1.43,7.26v19.42h-3V355.84Z"/><path class="cls-2" d="M317.69,355.47a6.17,6.17,0,0,1,7,5.18,6.08,6.08,0,0,1,0,2v12.66h-2.9V362.8a5.18,5.18,0,0,0-1.12-3.63,4.3,4.3,0,0,0-3.38-1.2,5.18,5.18,0,0,0-4.53,1.81,9,9,0,0,0-1.32,5.31v10.17H308.5V355.84h2.27l.43,2.79h.16A6,6,0,0,1,313,356.9a7.72,7.72,0,0,1,2.13-1.06A9.25,9.25,0,0,1,317.69,355.47Z"/><path class="cls-2" d="M338,384a10.36,10.36,0,0,1-5.9-1.43,4.55,4.55,0,0,1-2.06-4,4.5,4.5,0,0,1,1.16-3.1,5.77,5.77,0,0,1,3.22-1.73,3.26,3.26,0,0,1-1.32-1.06,2.63,2.63,0,0,1-.54-1.64,3,3,0,0,1,.61-1.86,6,6,0,0,1,1.82-1.54,5.32,5.32,0,0,1-2.48-2.11,6.18,6.18,0,0,1-.95-3.45,7,7,0,0,1,.86-3.56,5.71,5.71,0,0,1,2.52-2.27,13.45,13.45,0,0,1,5-.77l1,.11a4.64,4.64,0,0,1,.82.19h6.67v1.9l-3.58.43a6,6,0,0,1,.88,1.68,6.52,6.52,0,0,1-1.61,6.81,8,8,0,0,1-5.4,1.7,10.11,10.11,0,0,1-1.65-.14,4.37,4.37,0,0,0-1.34,1.07,2.23,2.23,0,0,0-.43,1.34,1.17,1.17,0,0,0,.34.9,1.88,1.88,0,0,0,1,.48,6.39,6.39,0,0,0,1.57.16h3.43a7.75,7.75,0,0,1,4.87,1.34,4.66,4.66,0,0,1,1.68,3.88,5.56,5.56,0,0,1-2.61,4.94A14,14,0,0,1,338,384Zm0-2.27a13.19,13.19,0,0,0,4-.5,4.87,4.87,0,0,0,2.38-1.38,3.3,3.3,0,0,0,.79-2.27,2.61,2.61,0,0,0-.54-1.77,2.73,2.73,0,0,0-1.55-.79,13.22,13.22,0,0,0-2.51-.21h-3.29a6,6,0,0,0-2.27.41,3.46,3.46,0,0,0-1.5,1.2,3.7,3.7,0,0,0-.52,2,2.69,2.69,0,0,0,1.34,2.4,7.34,7.34,0,0,0,3.76.87Zm.77-15.52a4.34,4.34,0,0,0,3.18-1.06A4.27,4.27,0,0,0,343,362a4.55,4.55,0,0,0-1.09-3.27,4.37,4.37,0,0,0-3.2-1.09,4.16,4.16,0,0,0-3.11,1.12,4.56,4.56,0,0,0-1.09,3.28,4.08,4.08,0,0,0,1.11,3.07,4.36,4.36,0,0,0,3.23,1Z"/><circle class="cls-3" cx="277.51" cy="242.68" r="7.69"/><circle class="cls-4" cx="296.86" cy="248.62" r="6.99"/><circle class="cls-5" cx="310.07" cy="264.05" r="6.67"/><circle class="cls-6" cx="312.63" cy="284.56" r="6.13"/><circle class="cls-7" cx="303.85" cy="302.86" r="5.56"/><circle class="cls-8" cx="286.11" cy="313.41" r="4.97"/><circle class="cls-9" cx="266.03" cy="312.3" r="4.67"/><circle class="cls-10" cx="249.04" cy="300.32" r="4.02"/><circle class="cls-11" cx="241.92" cy="281.38" r="3.43"/><circle class="cls-12" cx="246.34" cy="261.37" r="2.93"/><circle class="cls-13" cx="260.77" cy="246.94" r="2.4"/></svg>