<svg id="圖層_1" data-name="圖層 1" xmlns="http://www.w3.org/2000/svg" viewBox="0 0 556 619"><defs><style>.cls-1{fill:#111111;}.cls-2{fill:#7a7b7c;}.cls-3{fill:#ababac;}.cls-4{fill:#fff;}</style></defs><rect class="cls-1" width="556" height="619"/><path class="cls-2" d="M313.23,301.52h-33L277.72,304h36.76a1.25,1.25,0,0,0,1.25-1.25V266l-2.5,2.49Zm1.25-63.19h-85.3a1.24,1.24,0,0,0-1.24,1.25v63.18a1.24,1.24,0,0,0,1.24,1.25H270.9l2.49-2.49h-43V240.83h82.8v20.84l2.5-2.49v-19.6A1.25,1.25,0,0,0,314.48,238.33Z"/><path class="cls-3" d="M288,275l5.69,6.26L291.89,283l-5-5.53-8.32,5.78a1.26,1.26,0,0,1-1.6-.15l-13.42-13.69-19.59,22.22a1.22,1.22,0,0,1-.94.43,1.24,1.24,0,0,1-.93-2.07l20.47-23.23a1.26,1.26,0,0,1,.91-.42,1.23,1.23,0,0,1,.92.37L278,280.62l8.36-5.81A1.25,1.25,0,0,1,288,275Z"/><path class="cls-3" d="M301.52,291.75a1.24,1.24,0,0,1-1.76-.08l-4.62-5.08,1.76-1.76,4.7,5.16A1.25,1.25,0,0,1,301.52,291.75Z"/><path class="cls-3" d="M288.59,252.09a6.32,6.32,0,1,0,6.32,6.31A6.32,6.32,0,0,0,288.59,252.09Zm0,10.14a3.83,3.83,0,1,1,3.83-3.83A3.83,3.83,0,0,1,288.59,262.23Z"/><path class="cls-2" d="M266.82,315.08a1.21,1.21,0,0,1-.88-.37,1.24,1.24,0,0,1,0-1.76l60-60a1.24,1.24,0,1,1,1.76,1.76l-60,60A1.21,1.21,0,0,1,266.82,315.08Z"/><path class="cls-4" d="M220.17,372h-3.48l-14.12-21.77h-.14q0,.87.12,2c0,.74.09,1.52.12,2.36s0,1.68,0,2.54V372h-2.8V346h3.46l14.07,21.69h.12c0-.41-.05-1-.09-1.76s-.06-1.59-.09-2.47,0-1.7,0-2.45V346h2.84Z"/><path class="cls-4" d="M243.55,362.2a13.7,13.7,0,0,1-.62,4.27,8.83,8.83,0,0,1-1.79,3.17,7.75,7.75,0,0,1-2.83,2,9.9,9.9,0,0,1-3.75.68,9.19,9.19,0,0,1-3.57-.68,7.81,7.81,0,0,1-2.8-2,8.9,8.9,0,0,1-1.83-3.17,13.12,13.12,0,0,1-.64-4.27,12.4,12.4,0,0,1,1.08-5.43,7.69,7.69,0,0,1,3.09-3.42,9.27,9.27,0,0,1,4.79-1.18,8.85,8.85,0,0,1,4.66,1.19,8,8,0,0,1,3.1,3.42A12.13,12.13,0,0,1,243.55,362.2Zm-14.79,0a12.08,12.08,0,0,0,.62,4.06,5.54,5.54,0,0,0,10.5,0,12.08,12.08,0,0,0,.62-4.06,11.79,11.79,0,0,0-.62-4,5.49,5.49,0,0,0-1.92-2.61,5.67,5.67,0,0,0-3.35-.92,5.06,5.06,0,0,0-4.44,2A9.53,9.53,0,0,0,228.76,362.2Z"/><path class="cls-4" d="M259.57,345.26a1.79,1.79,0,0,1,1.25.47,2.3,2.3,0,0,1,0,2.91,1.8,1.8,0,0,1-1.25.48,1.78,1.78,0,0,1-1.27-.48,2.37,2.37,0,0,1,0-2.91A1.77,1.77,0,0,1,259.57,345.26Zm1.43,7.26V372h-2.94V352.52Z"/><path class="cls-4" d="M288.32,352.17a6.47,6.47,0,0,1,4.83,1.67q1.64,1.68,1.63,5.38V372h-2.9V359.36a5.26,5.26,0,0,0-1-3.53,3.77,3.77,0,0,0-3-1.18,4.88,4.88,0,0,0-4.1,1.63,7.7,7.7,0,0,0-1.27,4.8V372h-2.93V359.36a6.66,6.66,0,0,0-.45-2.62,3.22,3.22,0,0,0-1.35-1.57,4.4,4.4,0,0,0-2.26-.52,5.36,5.36,0,0,0-3.1.8,4.46,4.46,0,0,0-1.69,2.36,12.3,12.3,0,0,0-.52,3.86V372h-2.95V352.52h2.38l.44,2.75h.16a5.89,5.89,0,0,1,1.47-1.7,6.43,6.43,0,0,1,2-1.05,7.74,7.74,0,0,1,2.34-.35,7.62,7.62,0,0,1,3.71.82,4.8,4.8,0,0,1,2.17,2.51H282a6.09,6.09,0,0,1,2.62-2.51A8.13,8.13,0,0,1,288.32,352.17Z"/><path class="cls-4" d="M308.09,352.2q3.48,0,5.16,1.56c1.12,1,1.69,2.7,1.69,5V372h-2.15l-.57-2.87h-.14a10.76,10.76,0,0,1-1.7,1.78,6,6,0,0,1-2.05,1.08,9.67,9.67,0,0,1-2.84.36,7.66,7.66,0,0,1-3.15-.62,4.87,4.87,0,0,1-2.16-1.88,5.87,5.87,0,0,1-.79-3.19,5.05,5.05,0,0,1,2.31-4.46q2.3-1.56,7-1.71l3.35-.14v-1.18a4.7,4.7,0,0,0-1.08-3.53,4.26,4.26,0,0,0-3.05-1,9.61,9.61,0,0,0-2.9.44,20.44,20.44,0,0,0-2.62,1.05l-.91-2.24a17.19,17.19,0,0,1,3-1.15A13.17,13.17,0,0,1,308.09,352.2ZM312,362.38l-3,.12c-2.42.1-4.13.49-5.12,1.19a3.39,3.39,0,0,0-1.49,3,3,3,0,0,0,1,2.46,4.18,4.18,0,0,0,2.67.8,6.21,6.21,0,0,0,4.24-1.44,5.38,5.38,0,0,0,1.65-4.3Z"/><path class="cls-4" d="M326.42,380.67a10.35,10.35,0,0,1-5.9-1.43,4.59,4.59,0,0,1-2.08-4,4.51,4.51,0,0,1,1.17-3.12,5.69,5.69,0,0,1,3.21-1.71,3.51,3.51,0,0,1-1.3-1.07,2.6,2.6,0,0,1-.54-1.63,3.11,3.11,0,0,1,.59-1.87,6.3,6.3,0,0,1,1.82-1.55,5.17,5.17,0,0,1-2.47-2.1,6.21,6.21,0,0,1-.95-3.45,6.94,6.94,0,0,1,.87-3.57,5.69,5.69,0,0,1,2.51-2.26,9.28,9.28,0,0,1,4-.78c.34,0,.69,0,1,.05s.68.07,1,.12a6.08,6.08,0,0,1,.83.19h6.67v1.89l-3.58.45a6.06,6.06,0,0,1,.88,1.66,6.2,6.2,0,0,1,.36,2.16,5.82,5.82,0,0,1-2,4.62,8,8,0,0,1-5.41,1.71,9.54,9.54,0,0,1-1.66-.14,4.17,4.17,0,0,0-1.32,1.06,2.15,2.15,0,0,0-.45,1.35,1.18,1.18,0,0,0,.34.9,2,2,0,0,0,1,.49,7.24,7.24,0,0,0,1.58.15h3.42a7.78,7.78,0,0,1,4.87,1.33,4.66,4.66,0,0,1,1.69,3.88A5.59,5.59,0,0,1,334,379C332.26,380.09,329.73,380.67,326.42,380.67Zm.09-2.31a14.06,14.06,0,0,0,4-.48,5.14,5.14,0,0,0,2.37-1.4,3.22,3.22,0,0,0,.79-2.18,2.59,2.59,0,0,0-.53-1.76,2.77,2.77,0,0,0-1.56-.8,13.82,13.82,0,0,0-2.52-.2h-3.37a5.91,5.91,0,0,0-2.28.41,3.22,3.22,0,0,0-1.5,1.2,3.55,3.55,0,0,0-.52,2,2.65,2.65,0,0,0,1.33,2.4A7.21,7.21,0,0,0,326.51,378.36Zm.76-15.52a4.29,4.29,0,0,0,3.17-1.07,4.2,4.2,0,0,0,1.07-3.1,4.48,4.48,0,0,0-1.08-3.27,4.36,4.36,0,0,0-3.19-1.09,4.12,4.12,0,0,0-3.11,1.13,4.52,4.52,0,0,0-1.09,3.29,4,4,0,0,0,1.09,3A4.34,4.34,0,0,0,327.27,362.84Z"/><path class="cls-4" d="M348.18,352.17a7.85,7.85,0,0,1,4.26,1.1,7.11,7.11,0,0,1,2.71,3.07,10.62,10.62,0,0,1,.94,4.62v1.82H342.67a7.68,7.68,0,0,0,1.7,5.21,6,6,0,0,0,4.65,1.79,14.48,14.48,0,0,0,3.26-.33,19.57,19.57,0,0,0,2.94-1V371a14.15,14.15,0,0,1-2.91,1,17,17,0,0,1-3.42.3,10,10,0,0,1-4.88-1.14,7.77,7.77,0,0,1-3.23-3.36,11.61,11.61,0,0,1-1.16-5.42,13,13,0,0,1,1.06-5.44,7.85,7.85,0,0,1,7.5-4.77Zm0,2.41a4.82,4.82,0,0,0-3.76,1.54,7.23,7.23,0,0,0-1.66,4.31H353a8.65,8.65,0,0,0-.55-3.06,4.33,4.33,0,0,0-1.58-2.06A4.7,4.7,0,0,0,348.15,354.58Z"/></svg>