<svg width="543" height="11" viewBox="0 0 543 11" fill="none" xmlns="http://www.w3.org/2000/svg">
<path d="M542.75 2.59C542.13 0.639995 540.04 -0.440004 538.09 0.179996L531.44 2.29L524.81 1.22L517.27 0.189995H517.22C517.08 0.159995 516.93 0.149996 516.78 0.149996H509.3L509.25 0.159995C509.08 0.159995 508.9 0.179995 508.72 0.209995L501.13 1.47L493.95 3.02L487.07 3.08L479.84 2.16H479.79C479.65 2.14 479.51 2.13 479.37 2.13L472.03 2.2L464.76 1.62L457.35 0.789995H457.3C457.15 0.769995 456.99 0.759995 456.83 0.769995L449.36 1.08H449.31C449.11 1.09 448.9 1.12 448.7 1.17L442.06 2.81L435.42 0.969995H435.38C435.11 0.879995 434.82 0.849995 434.53 0.849995L427.06 0.909995H427.02C426.85 0.909995 426.67 0.929995 426.5 0.959995L419.5 2.28L412.52 1.45H412.48C412.19 1.41 411.9 1.42 411.6 1.47L404.32 2.76L397.57 3.08L390.6 1.04H390.58C390.02 0.869995 389.41 0.859995 388.81 1.06L381.98 3.26L375.19 2.38H375.15C374.93 2.35 374.71 2.35 374.49 2.37L367.36 3.14L360.26 2.2L352.8 1.16H352.76C352.47 1.12 352.17 1.12 351.87 1.18L344.9 2.46L337.95 1.21H337.91C337.53 1.14 337.12 1.15 336.72 1.25L329.6 3.14H322.71L315.42 1.99L307.85 1.2H307.82C307.55 1.17 307.27 1.18 306.99 1.25L299.69 2.89L292.79 3.47L285.7 1.97H285.66C285.51 1.93 285.35 1.91 285.18 1.91L277.72 1.84L270.26 1.71H270.22C270.1 1.71 269.97 1.71 269.85 1.73L262.51 2.8L255.3 3.07L248.01 2.59L240.62 1.69H240.59C240.48 1.67 240.37 1.67 240.25 1.67L232.91 1.92L225.59 1.29H225.56C225.3 1.27 225.03 1.29 224.76 1.36L217.76 3.31L210.78 2.27H210.75C210.48 2.23 210.2 2.24 209.91 2.3L202.82 4.01L195.75 3.2H195.72C195.57 3.18 195.42 3.18 195.26 3.2L187.96 4.01L180.69 3.63L173.31 3.13L165.92 2.08H165.89C165.76 2.06 165.62 2.05 165.48 2.06L158.08 2.58L150.7 2.53H150.68C150.62 2.53 150.55 2.53 150.49 2.53L143.12 3.26L135.89 3.2L128.56 2.11H128.54C128.48 2.1 128.42 2.09 128.36 2.09L120.89 1.76H120.87C120.68 1.76 120.49 1.77 120.3 1.83L113.31 3.84L106.32 2.07H106.3C106.07 2.01 105.82 1.99 105.57 2.04L98.2498 3.35L90.9398 3.42H90.9198C90.8598 3.42 90.7898 3.42 90.7298 3.43L83.4098 4.41L76.2298 4.06L68.8898 2.48H68.8698C68.6998 2.44 68.5098 2.43 68.3298 2.46L60.9798 3.45L53.6898 3.3L46.2798 2.58H46.2598C46.0898 2.56 45.9098 2.58 45.7298 2.62L38.4998 4.59L31.4098 4.19L24.0698 2.41H24.0498C23.9098 2.37 23.7598 2.36 23.6098 2.37L16.2798 2.97L8.94984 2.11H8.92984C8.78984 2.09 8.64984 2.1 8.49984 2.13L1.04984 3.82C0.339837 3.97 -0.120163 4.68 0.0298372 5.4C0.179837 6.12 0.889837 6.59 1.60984 6.44L8.85984 4.94L16.1098 5.85C16.1898 5.86 16.2898 5.86 16.3798 5.85H16.3898L23.6198 5.32L30.8598 7.14C30.9398 7.16 31.0298 7.17 31.1098 7.18H31.1198L38.5898 7.67C38.7398 7.67 38.8998 7.67 39.0598 7.63H39.0698L46.2698 5.73L53.4598 6.49C53.4598 6.49 53.5298 6.49 53.5698 6.49H53.5798L61.0498 6.7C61.1198 6.7 61.2098 6.7 61.2798 6.69H61.2898L68.4698 5.78L75.6598 7.39C75.7398 7.41 75.8298 7.42 75.9198 7.43H75.9298L83.3998 7.86C83.4898 7.86 83.5998 7.86 83.6898 7.86H83.6998L91.0598 6.94H98.4298C98.5198 6.94 98.6198 6.92 98.7098 6.91H98.7298L105.81 5.7L112.9 7.56C113.2 7.64 113.52 7.64 113.84 7.56H113.86L121.04 5.56L128.1 5.93L135.47 7.09C135.55 7.1 135.64 7.11 135.72 7.11H135.74L143.21 7.23C143.27 7.23 143.34 7.23 143.4 7.23H143.42L150.78 6.56L158.15 6.68C158.15 6.68 158.24 6.68 158.29 6.68H158.31L165.55 6.24L172.81 7.34C172.81 7.34 172.9 7.35 172.95 7.36H172.97L180.45 7.93L187.94 8.39C188.05 8.39 188.16 8.39 188.27 8.39H188.29L195.51 7.65L202.74 8.54C202.98 8.57 203.24 8.56 203.5 8.5H203.52L210.56 6.86L217.6 7.97C217.9 8.02 218.22 8 218.54 7.92H218.56L225.62 6.01L232.68 6.68C232.76 6.68 232.86 6.69 232.94 6.68H232.96L240.23 6.49L247.57 7.45L255.13 8.01C255.2 8.01 255.28 8.01 255.36 8.01H255.38L262.85 7.8C262.93 7.8 263.01 7.8 263.1 7.78H263.12L270.38 6.78L277.66 6.97L284.87 7.1L292.09 8.7C292.32 8.75 292.58 8.77 292.83 8.75H292.85L300.32 8.18C300.43 8.18 300.55 8.15 300.66 8.13H300.68L307.72 6.6L314.72 7.39L322.09 8.63C322.22 8.65 322.36 8.66 322.5 8.67H322.52L329.99 8.72999C330.21 8.72999 330.46 8.69999 330.68 8.64999H330.7L337.56 6.88L344.42 8.18C344.74 8.24 345.08 8.25 345.42 8.18H345.44L352.44 6.95L359.46 8L366.94 9.06C367.16 9.09 367.39 9.09999 367.62 9.06999H367.65L374.76 8.35999L381.89 9.35C382.3 9.41 382.75 9.38 383.18 9.24H383.21L389.79 7.18L396.37 9.17C396.68 9.26 397.02 9.31 397.36 9.3H397.39L404.86 9.01C404.98 9.01 405.11 8.99 405.23 8.97H405.26L412.26 7.79L419.28 8.68999C419.58 8.72999 419.9 8.72 420.22 8.67H420.25L427.43 7.38H434.16L441.2 9.39C441.71 9.53 442.28 9.56 442.83 9.43H442.86L450 7.73L456.88 7.5L464.15 8.38L471.69 9.05C471.78 9.05 471.87 9.06 471.96 9.06H479.21L486.46 10.05C486.6 10.07 486.76 10.08 486.9 10.08H494.4C494.62 10.08 494.86 10.05 495.08 10.01H495.11L502.47 8.47999L509.59 7.37L516.53 7.42L523.74 8.46L531.15 9.72999C531.69 9.81999 532.27 9.79 532.82 9.62H532.85L540.34 7.3H540.37C542.32 6.67 543.4 4.58 542.78 2.63L542.75 2.59Z" fill="#DCDCDC"/>
</svg>
