<svg width="20" height="21" viewBox="0 0 20 21" fill="none" xmlns="http://www.w3.org/2000/svg">
<path d="M18.9972 8.92506C19.0246 9.89933 18.8505 10.8685 18.4865 11.7691C18.1225 12.6696 17.5766 13.4812 16.8848 14.1505C15.014 16.0387 12.8438 17.5331 10.6464 18.9893C10.3256 19.1986 9.97581 19.3571 9.60888 19.4596C9.18709 19.5885 9.04764 19.4039 9.17009 18.9789C9.29255 18.5539 9.44221 18.101 9.53066 17.6516C9.6191 17.2022 9.43541 16.9549 8.9592 16.8643C8.23009 16.7488 7.50785 16.5918 6.79581 16.394C4.61201 15.6764 2.83298 14.3909 1.7717 12.2589C0.601559 9.90048 0.771636 7.56992 2.2173 5.39961C3.7344 3.13176 5.95902 1.99609 8.55441 1.61986C10.7335 1.27537 12.9627 1.67831 14.8949 2.76598C16.7862 3.81107 18.1706 5.34039 18.7557 7.5107C18.8638 7.97677 18.9444 8.44908 18.9972 8.92506ZM11.6906 10.7296L11.626 10.754C11.5614 10.6634 11.4934 10.5728 11.4321 10.4788C10.9491 9.7263 10.4627 8.97731 9.98307 8.22485C9.84361 8.00538 9.67693 7.82771 9.3912 7.87648C9.10547 7.92525 9.01022 8.19349 9.00682 8.4687C9.00682 9.56953 9.00682 10.6704 9.00682 11.7712C9.00682 12.0151 9.09865 12.231 9.37758 12.2345C9.65651 12.238 9.77897 12.0185 9.78237 11.7607C9.78237 11.0884 9.78237 10.4126 9.78237 9.73675C9.78237 9.62875 9.78237 9.51728 9.80618 9.31871C10.2858 10.0712 10.711 10.7435 11.1396 11.4089C11.2504 11.6288 11.3938 11.8298 11.5648 12.0046C11.7402 12.1396 11.9588 12.2018 12.1771 12.1788C12.2893 12.1579 12.4186 11.8827 12.4356 11.712C12.473 11.3253 12.4356 10.9316 12.4356 10.5415C12.4356 9.78552 12.4356 9.02609 12.4356 8.27014C12.4441 8.21969 12.4416 8.16794 12.4284 8.11858C12.4152 8.06922 12.3914 8.02345 12.359 7.98454C12.3265 7.94562 12.286 7.91451 12.2405 7.89343C12.1949 7.87234 12.1454 7.8618 12.0954 7.86255C11.8505 7.86255 11.7553 8.00538 11.7043 8.21091C11.6873 8.3402 11.6805 8.47067 11.6838 8.60108C11.6873 9.33265 11.6906 10.0294 11.6906 10.7296ZM14.2486 8.60108H16.0617C16.2862 8.60108 16.5039 8.55579 16.5005 8.27014C16.497 7.98448 16.2793 7.94615 16.0514 7.94615C15.3711 7.94615 14.6636 7.94615 13.9697 7.94615C13.5139 7.94615 13.3982 8.06808 13.3948 8.54534C13.3948 9.56256 13.3948 10.5821 13.3948 11.604C13.3948 12.0603 13.5207 12.1823 13.9867 12.1892C14.5207 12.1892 15.0514 12.1892 15.5854 12.1892C15.8128 12.2036 16.0409 12.1919 16.2657 12.1544C16.3342 12.1288 16.3953 12.0861 16.4434 12.0301C16.4915 11.9741 16.5252 11.9067 16.5413 11.8339C16.5413 11.7224 16.3746 11.5831 16.2487 11.5169C16.1254 11.4849 15.9972 11.4778 15.8712 11.496H14.2554V10.3011H14.4527C14.963 10.3011 15.4732 10.3011 15.98 10.2837C16.0568 10.2647 16.1278 10.2269 16.1871 10.1734C16.2463 10.12 16.292 10.0527 16.3202 9.97712C16.3746 9.7681 16.1943 9.67404 16.0004 9.66011C15.861 9.66011 15.7215 9.66011 15.582 9.66011H14.2486V8.60108ZM4.50654 11.4751C4.50654 11.1267 4.50654 10.8097 4.50654 10.4927C4.50654 9.76113 4.50654 9.02608 4.48614 8.29452C4.48502 8.24054 4.47354 8.18731 4.45234 8.13787C4.43113 8.08844 4.40062 8.04376 4.36256 8.0064C4.3245 7.96904 4.27962 7.93972 4.2305 7.92012C4.18137 7.90052 4.12897 7.89101 4.07626 7.89216C4.02355 7.8933 3.97156 7.90507 3.92329 7.92678C3.87502 7.9485 3.83141 7.97974 3.79492 8.01872C3.75844 8.0577 3.72981 8.10366 3.71067 8.15397C3.69153 8.20428 3.68225 8.25795 3.68337 8.31194C3.68337 9.44761 3.68337 10.5833 3.68337 11.7189C3.67811 11.7754 3.68453 11.8324 3.7022 11.8862C3.71988 11.94 3.74843 11.9894 3.78597 12.0311C3.82352 12.0728 3.86922 12.106 3.92011 12.1285C3.97101 12.1509 4.02594 12.1621 4.08135 12.1614C4.17274 12.1735 4.26473 12.1805 4.35687 12.1823C4.97936 12.1823 5.60185 12.1823 6.22773 12.1823C6.43523 12.1823 6.62232 12.0917 6.61552 11.8339C6.60871 11.5761 6.42843 11.4855 6.21073 11.4855H4.50995L4.50654 11.4751ZM7.22779 10.0224V11.6911C7.22779 11.9802 7.30603 12.2345 7.63598 12.238C7.96594 12.2415 8.06118 11.9802 8.06118 11.698C8.06118 10.6111 8.06118 9.52076 8.06118 8.43038C8.06118 8.04718 7.89111 7.84513 7.62579 7.86603C7.28563 7.8939 7.23119 8.14472 7.22779 8.42342C7.21419 8.97035 7.2176 9.50334 7.2176 10.0363L7.22779 10.0224Z" fill="white"/>
</svg>
