<svg width="15" height="13" viewBox="0 0 15 13" fill="none" xmlns="http://www.w3.org/2000/svg">
<path d="M7.49998 12.8782L7.03519 12.4536C5.68908 11.2389 4.57797 10.2066 3.70185 9.35671C2.82588 8.50671 2.14081 7.76469 1.64665 7.13067C1.15248 6.49664 0.810049 5.92692 0.619355 5.4215C0.42866 4.91622 0.333313 4.40768 0.333313 3.89587C0.333313 2.90546 0.679494 2.06414 1.37185 1.37192C2.06408 0.679554 2.9054 0.333374 3.89581 0.333374C4.58706 0.333374 5.24679 0.51393 5.87498 0.875041C6.50317 1.23615 7.04484 1.76073 7.49998 2.44879C7.95512 1.76073 8.49679 1.23615 9.12498 0.875041C9.75317 0.51393 10.4129 0.333374 11.1041 0.333374C12.0946 0.333374 12.9359 0.679554 13.6281 1.37192C14.3205 2.06414 14.6666 2.90546 14.6666 3.89587C14.6666 4.40768 14.5748 4.90928 14.391 5.40067C14.2073 5.89219 13.8683 6.4515 13.3741 7.07858C12.88 7.70567 12.1941 8.45115 11.3164 9.31504C10.4388 10.1788 9.30769 11.2389 7.9231 12.4952L7.49998 12.8782ZM7.49998 11.9792C8.79165 10.8157 9.85415 9.82511 10.6875 9.00733C11.5208 8.18942 12.184 7.47837 12.6771 6.87421C13.1701 6.27004 13.5139 5.73455 13.7083 5.26775C13.9028 4.8008 14 4.34351 14 3.89587C14 3.07643 13.7222 2.38893 13.1666 1.83337C12.6111 1.27782 11.9236 1.00004 11.1041 1.00004C10.6073 1.00004 10.1445 1.10608 9.7156 1.31817C9.28658 1.53025 8.80179 1.91296 8.26123 2.46629L7.53206 3.32046H7.4679L6.73873 2.46629C6.18748 1.90226 5.6931 1.51685 5.2556 1.31004C4.8181 1.10337 4.36484 1.00004 3.89581 1.00004C3.08706 1.00004 2.4022 1.27782 1.84123 1.83337C1.2804 2.38893 0.99998 3.07643 0.99998 3.89587C0.99998 4.34351 1.09026 4.79039 1.27081 5.2365C1.45137 5.68247 1.78123 6.20407 2.2604 6.80129C2.73956 7.39851 3.39929 8.10685 4.23956 8.92629C5.07984 9.74574 6.16665 10.7634 7.49998 11.9792Z" fill="white"/>
</svg>
