<svg width="25" height="21" viewBox="0 0 25 21" fill="none" xmlns="http://www.w3.org/2000/svg">
<path d="M19.8489 17.4777C19.8524 17.3428 19.8284 17.2085 19.7786 17.0831C19.7288 16.9576 19.654 16.8435 19.5589 16.7477L16.6289 13.7377C16.5005 13.615 16.3417 13.5287 16.1689 13.4877C15.8855 13.4083 15.5826 13.4368 15.3189 13.5677L13.9889 14.3377H13.8489H13.7289L13.5089 14.2277C13.2996 14.1034 13.1051 13.9558 12.9289 13.7877C12.6191 13.4722 12.3286 13.1382 12.0589 12.7877C11.6464 12.2485 11.2786 11.6766 10.9589 11.0777C10.6176 10.5009 10.3201 9.89917 10.0689 9.27771C9.91309 8.86794 9.78939 8.44668 9.69893 8.01772C9.62004 7.6906 9.58971 7.35366 9.60893 7.01772C9.62214 6.96965 9.64608 6.9252 9.67893 6.88771C9.70097 6.84799 9.73174 6.81381 9.76893 6.78772L10.9089 6.14772C11.1139 6.03096 11.2806 5.85729 11.3889 5.64772C11.4989 5.44599 11.5275 5.20986 11.4689 4.98772L10.5489 0.747711C10.4993 0.598415 10.4286 0.456985 10.3389 0.327713C10.2412 0.207052 10.1084 0.1197 9.95893 0.077713C9.84846 0.0480723 9.73319 0.0407749 9.61986 0.0562286C9.50653 0.0716823 9.39743 0.109573 9.29893 0.167709L6.20893 1.91771C6.04541 2.00288 5.89951 2.11825 5.77893 2.25772C5.58824 2.50568 5.44577 2.78722 5.35893 3.08772C5.26225 3.38606 5.20181 3.69495 5.17893 4.00772C5.14136 4.49366 5.14136 4.98177 5.17893 5.46771C5.21817 6.14084 5.31181 6.80969 5.45893 7.46771C5.64933 8.31451 5.89997 9.14663 6.20893 9.95772C6.61086 10.9951 7.09576 11.9983 7.65893 12.9577C8.30276 14.1687 9.07739 15.3055 9.96893 16.3477C10.6206 17.1113 11.3402 17.8142 12.1189 18.4477C12.6526 18.8836 13.2328 19.2592 13.8489 19.5677C14.3074 19.7823 14.7866 19.9499 15.2789 20.0677C15.4674 20.1023 15.6605 20.1023 15.8489 20.0677C16.0305 20.0414 16.2044 19.9766 16.3589 19.8777L19.4489 18.1577C19.5629 18.0822 19.6581 17.9817 19.7274 17.8639C19.7967 17.7461 19.8383 17.614 19.8489 17.4777Z" fill="black"/>
</svg>
