<?xml version="1.0" encoding="utf-8"?>
<!-- Generator: Adobe Illustrator 23.1.1, SVG Export Plug-In . SVG Version: 6.00 Build 0)  -->
<svg version="1.1" id="Capa_1" xmlns="http://www.w3.org/2000/svg" xmlns:xlink="http://www.w3.org/1999/xlink" x="0px" y="0px"
	 viewBox="0 0 14.3 14.3" style="enable-background:new 0 0 14.3 14.3;" xml:space="preserve">
<style type="text/css">
	.st0{fill:#FFD2B3;}
	.st1{fill:#FC5E5E;}
	.st2{fill:#2980BA;}
	.st3{fill:#3B97D3;}
	.st4{fill:#84B5CB;}
	.st5{fill:#547580;}
	.st6{fill:#FFFFFF;}
	.st7{fill:#CECECE;}
	.st8{fill:#295EB2;}
	.st9{fill:#F44336;}
	.st10{fill:#FFC107;}
	.st11{fill:#4CAF50;}
	.st12{fill:#2196F3;}
	.st13{fill:#FAFAFA;}
	.st14{fill:#3FA0E1;}
	.st15{fill:#2568BD;}
	.st16{fill:#FF9842;}
	.st17{fill:#FF8322;}
	.st18{fill:#FFD664;}
	.st19{fill:#DDB200;}
	.st20{fill:#D1E7F8;}
	.st21{fill:#FFDA44;}
	.st22{fill:#FFCD00;}
	.st23{opacity:0.742;}
	.st24{fill:#FCFCFC;}
	.st25{clip-path:url(#SVGID_2_);}
	.st26{fill:#485160;}
	.st27{clip-path:url(#SVGID_4_);}
	.st28{fill:#D1F2AF;}
</style>
<g>
	<path class="st26" d="M10,10.2c-0.1,0-0.2,0.1-0.3,0.2c0,0.1,0.1,0.2,0.2,0.3c2.5,0.3,3.8,1.1,3.8,1.5c0,0.6-2.5,1.5-6.5,1.5
		s-6.5-0.9-6.5-1.5c0-0.5,1.3-1.2,3.8-1.5c0.1,0,0.2-0.1,0.2-0.3c0-0.1-0.1-0.2-0.3-0.2c-2.5,0.3-4.2,1.1-4.2,2c0,1,2.4,2,7,2
		s7-1,7-2C14.2,11.3,12.5,10.5,10,10.2z"/>
	<path class="st26" d="M7.1,12.9l3.6-5.2c1.3-1.8,1.2-4.7-0.4-6.3c-0.8-0.8-2-1.3-3.2-1.3S4.8,0.6,4,1.4C2.4,3,2.2,5.9,3.5,7.7
		L7.1,12.9z M7.2,2.9c0.9,0,1.6,0.7,1.6,1.6S8.1,6.2,7.2,6.2S5.5,5.5,5.5,4.6S6.3,2.9,7.2,2.9z"/>
</g>
</svg>
