<svg width="24" height="24" viewBox="0 0 24 24" fill="none" xmlns="http://www.w3.org/2000/svg">
<path d="M19.3489 19.4068C19.3524 19.2718 19.3285 19.1376 19.2786 19.0121C19.2288 18.8867 19.154 18.7726 19.0589 18.6768L16.1289 15.6668C16.0005 15.5441 15.8417 15.4578 15.6689 15.4168C15.3855 15.3374 15.0826 15.3659 14.8189 15.4968L13.4889 16.2668H13.3489H13.2289L13.0089 16.1568C12.7996 16.0324 12.6051 15.8848 12.4289 15.7168C12.1191 15.4012 11.8286 15.0673 11.5589 14.7168C11.1464 14.1776 10.7786 13.6057 10.4589 13.0068C10.1176 12.4299 9.82006 11.8282 9.56893 11.2068C9.4131 10.797 9.2894 10.3758 9.19894 9.94679C9.12005 9.61968 9.08972 9.28274 9.10894 8.94679C9.12215 8.89873 9.14608 8.85428 9.17894 8.81679C9.20098 8.77707 9.23175 8.74289 9.26894 8.7168L10.4089 8.0768C10.6139 7.96004 10.7806 7.78636 10.8889 7.5768C10.9989 7.37507 11.0275 7.13894 10.9689 6.91679L10.0489 2.67679C9.99932 2.52749 9.9286 2.38606 9.83893 2.25679C9.7412 2.13613 9.60843 2.04878 9.45894 2.00679C9.34847 1.97715 9.2332 1.96985 9.11987 1.98531C9.00654 2.00076 8.89743 2.03865 8.79894 2.09679L5.70894 3.84679C5.54542 3.93195 5.39952 4.04733 5.27894 4.1868C5.08824 4.43475 4.94578 4.71629 4.85894 5.0168C4.76226 5.31514 4.70182 5.62402 4.67893 5.9368C4.64136 6.42274 4.64136 6.91085 4.67893 7.39679C4.71817 8.06992 4.81181 8.73877 4.95894 9.39679C5.14934 10.2436 5.39998 11.0757 5.70894 11.8868C6.11087 12.9241 6.59577 13.9274 7.15893 14.8868C7.80277 16.0978 8.5774 17.2346 9.46894 18.2768C10.1206 19.0404 10.8402 19.7433 11.6189 20.3768C12.1526 20.8127 12.7328 21.1883 13.3489 21.4968C13.8075 21.7114 14.2866 21.8789 14.7789 21.9968C14.9674 22.0313 15.1605 22.0313 15.3489 21.9968C15.5305 21.9704 15.7044 21.9057 15.8589 21.8068L18.9489 20.0868C19.0629 20.0113 19.1581 19.9108 19.2274 19.793C19.2967 19.6751 19.3383 19.5431 19.3489 19.4068Z" fill="#FFD54F"/>
</svg>
