<svg width="25" height="24" viewBox="0 0 25 24" fill="none" xmlns="http://www.w3.org/2000/svg">
<mask id="mask0_200_4454" style="mask-type:alpha" maskUnits="userSpaceOnUse" x="0" y="0" width="25" height="24">
<rect x="0.333252" width="24" height="24" fill="#D9D9D9"/>
</mask>
<g mask="url(#mask0_200_4454)">
<path d="M12.3333 19C9.98325 17.2667 8.22909 15.5833 7.07075 13.95C5.91242 12.3167 5.33325 10.7167 5.33325 9.15C5.33325 7.06667 5.98325 5.35417 7.28325 4.0125C8.58325 2.67083 10.2666 2 12.3333 2C14.3999 2 16.0833 2.67083 17.3833 4.0125C18.6833 5.35417 19.3333 7.06667 19.3333 9.15C19.3333 10.7167 18.7541 12.3167 17.5958 13.95C16.4374 15.5833 14.6833 17.2667 12.3333 19ZM12.3333 11C12.8833 11 13.3541 10.8042 13.7458 10.4125C14.1374 10.0208 14.3333 9.55 14.3333 9C14.3333 8.45 14.1374 7.97917 13.7458 7.5875C13.3541 7.19583 12.8833 7 12.3333 7C11.7833 7 11.3124 7.19583 10.9208 7.5875C10.5291 7.97917 10.3333 8.45 10.3333 9C10.3333 9.55 10.5291 10.0208 10.9208 10.4125C11.3124 10.8042 11.7833 11 12.3333 11ZM5.33325 22V20H19.3333V22H5.33325Z" fill="#3D3D3D"/>
</g>
</svg>
