<svg width="21" height="20" viewBox="0 0 21 20" fill="none" xmlns="http://www.w3.org/2000/svg">
<mask id="mask0_200_4451" style="mask-type:alpha" maskUnits="userSpaceOnUse" x="0" y="0" width="21" height="20">
<rect x="0.333374" width="20" height="20" fill="#D9D9D9"/>
</mask>
<g mask="url(#mask0_200_4451)">
<path d="M10.9225 16.4818C9.94043 17.4639 8.76192 17.955 7.38699 17.955C6.01206 17.955 4.83354 17.4639 3.85145 16.4818C2.86936 15.4997 2.37831 14.3212 2.37831 12.9463C2.37831 11.5714 2.86936 10.3928 3.85145 9.41076C4.64695 8.61526 5.5652 8.14385 6.60622 7.99654C7.64724 7.84923 8.62442 7.99654 9.53777 8.43848L15.6366 2.33969L17.9936 4.69671L16.8151 5.87522L19.1721 8.23224L16.8151 10.5893L14.4581 8.23224L11.8948 10.7955C12.3367 11.7089 12.484 12.686 12.3367 13.7271C12.1894 14.7681 11.718 15.6863 10.9225 16.4818ZM8.5655 14.1248C8.88959 13.8007 9.05163 13.4079 9.05163 12.9463C9.05163 12.4847 8.88959 12.0919 8.5655 11.7678C8.24141 11.4437 7.84857 11.2816 7.38699 11.2816C6.9254 11.2816 6.53257 11.4437 6.20847 11.7678C5.88438 12.0919 5.72234 12.4847 5.72234 12.9463C5.72234 13.4079 5.88438 13.8007 6.20847 14.1248C6.53256 14.4489 6.9254 14.6109 7.38699 14.6109C7.84857 14.6109 8.24141 14.4489 8.5655 14.1248Z" fill="#202020"/>
</g>
</svg>
