<svg xmlns="http://www.w3.org/2000/svg" xmlns:xlink="http://www.w3.org/1999/xlink" width="48" height="38" viewBox="0 0 48 38">
  <defs>
    <clipPath id="clip-path">
      <rect id="Rectangle_1664" data-name="Rectangle 1664" width="48" height="38" transform="translate(-2564 7891)" fill="#ccc" stroke="#707070" stroke-width="1"/>
    </clipPath>
  </defs>
  <g id="Mask_Group_129" data-name="Mask Group 129" transform="translate(2564 -7891)" clip-path="url(#clip-path)">
    <g id="settings" transform="translate(-2559 7891)">
      <g id="Group_345" data-name="Group 345">
        <path id="Path_481" data-name="Path 481" d="M36.055,15.011l-2.667-.452a15.06,15.06,0,0,0-1.072-2.588l1.572-2.2a2.34,2.34,0,0,0-.254-3.024L31.268,4.382a2.33,2.33,0,0,0-1.659-.691,2.306,2.306,0,0,0-1.357.437L26.045,5.7a14.9,14.9,0,0,0-2.683-1.1l-.445-2.635A2.345,2.345,0,0,0,20.6,0H17.258A2.345,2.345,0,0,0,14.94,1.961l-.46,2.7A14.689,14.689,0,0,0,11.9,5.747L9.716,4.176a2.345,2.345,0,0,0-3.024.254L4.318,6.8A2.35,2.35,0,0,0,4.064,9.82L5.652,12.05a14.711,14.711,0,0,0-1.056,2.6l-2.635.445A2.345,2.345,0,0,0,0,17.408V20.75a2.345,2.345,0,0,0,1.961,2.318l2.7.46a14.689,14.689,0,0,0,1.088,2.58L4.183,28.284a2.34,2.34,0,0,0,.254,3.024L6.8,33.674a2.33,2.33,0,0,0,1.659.691,2.306,2.306,0,0,0,1.357-.437L12.05,32.34a15.017,15.017,0,0,0,2.508,1.032L15,36.039A2.345,2.345,0,0,0,17.321,38h3.35a2.345,2.345,0,0,0,2.318-1.961l.452-2.667A15.061,15.061,0,0,0,26.029,32.3l2.2,1.572a2.33,2.33,0,0,0,1.365.437h0a2.33,2.33,0,0,0,1.659-.691l2.366-2.366a2.35,2.35,0,0,0,.254-3.024L32.3,26.021a14.952,14.952,0,0,0,1.072-2.588l2.667-.445A2.345,2.345,0,0,0,38,20.671V17.329A2.317,2.317,0,0,0,36.055,15.011Zm-.183,5.66a.206.206,0,0,1-.175.206l-3.334.556a1.066,1.066,0,0,0-.857.786,12.708,12.708,0,0,1-1.381,3.326,1.073,1.073,0,0,0,.048,1.167l1.961,2.762a.216.216,0,0,1-.024.27L29.744,32.11a.2.2,0,0,1-.151.064.2.2,0,0,1-.119-.04L26.72,30.173a1.073,1.073,0,0,0-1.167-.048,12.708,12.708,0,0,1-3.326,1.381,1.054,1.054,0,0,0-.786.857L20.877,35.7a.206.206,0,0,1-.206.175H17.329a.206.206,0,0,1-.206-.175l-.556-3.334a1.066,1.066,0,0,0-.786-.857,13.2,13.2,0,0,1-3.255-1.334,1.1,1.1,0,0,0-.54-.143,1.045,1.045,0,0,0-.619.2L8.589,32.205a.236.236,0,0,1-.119.04.213.213,0,0,1-.151-.064L5.954,29.816a.215.215,0,0,1-.024-.27l1.953-2.739a1.087,1.087,0,0,0,.048-1.175,12.588,12.588,0,0,1-1.4-3.318,1.087,1.087,0,0,0-.857-.786l-3.358-.572a.206.206,0,0,1-.175-.206V17.408a.206.206,0,0,1,.175-.206l3.31-.556a1.073,1.073,0,0,0,.865-.794,12.7,12.7,0,0,1,1.357-3.334A1.06,1.06,0,0,0,7.8,11.36L5.819,8.581a.216.216,0,0,1,.024-.27L8.208,5.946a.2.2,0,0,1,.151-.064.2.2,0,0,1,.119.04l2.739,1.953a1.087,1.087,0,0,0,1.175.048,12.588,12.588,0,0,1,3.318-1.4,1.087,1.087,0,0,0,.786-.857l.572-3.358a.206.206,0,0,1,.206-.175h3.342a.206.206,0,0,1,.206.175l.556,3.31a1.073,1.073,0,0,0,.794.865,12.885,12.885,0,0,1,3.405,1.4,1.073,1.073,0,0,0,1.167-.048l2.739-1.969a.236.236,0,0,1,.119-.04.213.213,0,0,1,.151.064l2.366,2.366a.215.215,0,0,1,.024.27L30.181,11.28a1.073,1.073,0,0,0-.048,1.167,12.708,12.708,0,0,1,1.381,3.326,1.054,1.054,0,0,0,.857.786l3.334.564a.206.206,0,0,1,.175.206v3.342Z" fill="#ccc"/>
        <path id="Path_482" data-name="Path 482" d="M19,10.8A8.2,8.2,0,1,0,27.2,19,8.205,8.205,0,0,0,19,10.8Zm0,14.257A6.057,6.057,0,1,1,25.061,19,6.061,6.061,0,0,1,19,25.053Z" fill="#ccc"/>
      </g>
    </g>
  </g>
</svg>
