<?xml version="1.0" encoding="utf-8"?>
<!-- Generator: Adobe Illustrator 24.3.0, SVG Export Plug-In . SVG Version: 6.00 Build 0)  -->
<svg version="1.1" baseProfile="tiny" xmlns="http://www.w3.org/2000/svg" xmlns:xlink="http://www.w3.org/1999/xlink" x="0px"
	 y="0px" viewBox="0 0 101.9 24.8" overflow="visible" xml:space="preserve">
<g id="圖層_1" display="none">
	<g display="inline">
		<path fill="none" d="M55.1,14v-1.3l0,0h0h-0.3h-5.2h0c0,0,0,0,0,0V14c0,0-0.1,2.1,2.7,2.2l0,0l0,0C55.2,16.1,55.1,14,55.1,14z"/>
		<path fill="#CCCCCC" d="M54,7.7v2.5h1.7V7.7c0-0.5-0.4-0.8-0.8-0.8C54.3,6.9,54,7.3,54,7.7z"/>
		<path fill="#CCCCCC" d="M49,7.7v2.5h1.7V7.7c0-0.5-0.4-0.8-0.8-0.8C49.4,6.9,49,7.3,49,7.7z"/>
		<path fill="#CCCCCC" d="M56.5,13.6v-0.8h0.4c0.2,0,0.4-0.2,0.4-0.4v-0.8c0-0.2-0.2-0.4-0.4-0.4h-9.1c-0.2,0-0.4,0.2-0.4,0.4v0.8
			c0,0.2,0.2,0.4,0.4,0.4h0.4v0.8c0,2,1.4,3.7,3.3,4.1v2.6h1.7v-2.6C55.1,17.3,56.5,15.6,56.5,13.6z M52.3,16.2L52.3,16.2L52.3,16.2
			c-2.9-0.1-2.8-2.2-2.8-2.2v-1.2c0,0,0,0,0,0h0h5.2h0.3h0l0,0V14C55.1,14,55.2,16.1,52.3,16.2z"/>
	</g>
</g>
<g id="圖層_2" display="none">
	<g id="MDen6q.tif" display="inline">
		<g>
			<path fill="#CCCCCC" d="M46.4,13.5c0-1.3,0-2.6,0-3.9c0-0.2,0.1-0.3,0.3-0.3c0.4,0,0.8,0,1.2,0c0.2,0,0.3,0.1,0.3,0.3
				c0,2.6,0,5.3,0,7.9c0,0.2-0.1,0.3-0.3,0.3c-0.4,0-0.8,0-1.2,0c-0.2,0-0.3-0.1-0.3-0.2C46.4,16.2,46.4,14.9,46.4,13.5
				C46.4,13.5,46.4,13.5,46.4,13.5z"/>
			<path fill="#CCCCCC" d="M54.9,13.5c0,1.3,0,2.6,0,4c0,0.1,0,0.2-0.1,0.2c0,0-0.1,0-0.1,0c-0.4,0-0.8,0-1.2,0
				c-0.2,0-0.3-0.1-0.3-0.3c0-1.9,0-3.8,0-5.7c0-0.8,0-1.5,0-2.3c0-0.2,0.1-0.3,0.3-0.3c0.4,0,0.8,0,1.2,0c0.2,0,0.3,0.1,0.3,0.3
				C54.9,10.9,54.9,12.2,54.9,13.5C54.9,13.5,54.9,13.5,54.9,13.5z"/>
			<path fill="#CCCCCC" d="M56.6,13.5c0-1.3,0-2.6,0-3.9c0,0,0-0.1,0-0.1c0-0.1,0.1-0.2,0.2-0.2c0.4,0,0.9,0,1.3,0
				c0.1,0,0.2,0.1,0.2,0.2c0,0,0,0.1,0,0.1c0,2.6,0,5.3,0,7.9c0,0.1,0,0.2-0.1,0.3c0,0-0.1,0-0.1,0c-0.4,0-0.8,0-1.2,0
				c-0.2,0-0.2-0.1-0.2-0.2c0-0.7,0-1.4,0-2.1C56.6,14.8,56.6,14.1,56.6,13.5z"/>
			<path fill="#CCCCCC" d="M48.9,13.5c0-1.3,0-2.6,0-4c0-0.2,0.1-0.3,0.3-0.3c0.1,0,0.2,0,0.3,0c0.2,0,0.2,0.1,0.2,0.2
				c0,0.2,0,0.5,0,0.7c0,2.4,0,4.8,0,7.2c0,0,0,0.1,0,0.1c0,0.1-0.1,0.2-0.2,0.2c-0.1,0-0.3,0-0.4,0c-0.1,0-0.2-0.1-0.2-0.2
				c0-0.2,0-0.5,0-0.7C48.9,15.7,48.9,14.6,48.9,13.5z"/>
			<path fill="#CCCCCC" d="M51.5,13.5c0,1.3,0,2.6,0,4c0,0.1,0,0.2-0.1,0.2c0,0-0.1,0-0.1,0c-0.1,0-0.2,0-0.3,0
				c-0.2,0-0.3-0.1-0.3-0.3c0-0.8,0-1.5,0-2.3c0-1.9,0-3.8,0-5.6c0,0,0,0,0-0.1c0-0.1,0.1-0.2,0.2-0.2c0.1,0,0.3,0,0.4,0
				c0.2,0,0.2,0.1,0.2,0.2c0,0.5,0,1,0,1.4C51.5,11.8,51.5,12.7,51.5,13.5z"/>
			<path fill="#CCCCCC" d="M43.9,9c0-0.7,0-1.3,0-2c0-0.2,0.1-0.3,0.2-0.3c1.2,0,2.5,0,3.7,0c0.2,0,0.2,0.1,0.3,0.2
				c0,0.1,0,0.2,0,0.3c0,0.2-0.1,0.3-0.3,0.3c-0.3,0-0.5,0-0.8,0c-0.7,0-1.5,0-2.2,0c-0.1,0-0.1,0-0.1,0.1c0,1.1,0,2.1,0,3.2
				c0,0,0,0.1,0,0.1c0,0.1-0.1,0.2-0.2,0.2c-0.1,0-0.3,0-0.4,0c-0.1,0-0.2-0.1-0.2-0.2C43.9,10.3,43.9,9.6,43.9,9z"/>
			<path fill="#CCCCCC" d="M60.8,9c0,0.7,0,1.3,0,2c0,0.2-0.1,0.2-0.2,0.2c-0.1,0-0.2,0-0.3,0c-0.2,0-0.2-0.1-0.2-0.3
				c0-0.5,0-1,0-1.5c0-0.6,0-1.2,0-1.7c0-0.1,0-0.1-0.1-0.1c-1,0-2,0-3,0c0,0-0.1,0-0.1,0c-0.1,0-0.2-0.1-0.2-0.2c0-0.1,0-0.3,0-0.4
				c0-0.1,0.1-0.2,0.2-0.2c0,0,0.1,0,0.1,0c1.2,0,2.5,0,3.7,0c0,0,0,0,0,0c0.2,0,0.2,0.1,0.2,0.2C60.8,7.7,60.8,8.3,60.8,9z"/>
			<path fill="#CCCCCC" d="M43.9,18.1c0-0.7,0-1.3,0-2c0-0.2,0.1-0.2,0.2-0.2c0.1,0,0.2,0,0.3,0c0.2,0,0.3,0.1,0.3,0.3
				c0,1.1,0,2.1,0,3.2c0,0.2,0,0.1,0.1,0.1c1,0,2,0,3,0c0.2,0,0.3,0.1,0.3,0.3c0,0.1,0,0.2,0,0.3c0,0.1-0.1,0.2-0.2,0.2
				c-1.3,0-2.5,0-3.8,0c-0.1,0-0.2-0.1-0.2-0.2C43.9,19.4,43.9,18.7,43.9,18.1z"/>
			<path fill="#CCCCCC" d="M60.8,18.1c0,0.7,0,1.3,0,2c0,0.2-0.1,0.2-0.2,0.2c-1.2,0-2.5,0-3.7,0c-0.2,0-0.2-0.1-0.3-0.2
				c0-0.1,0-0.2,0-0.4c0-0.2,0.1-0.2,0.2-0.2c1,0,2,0,3,0c0.2,0,0.2,0,0.2-0.2c0-1.1,0-2.1,0-3.2c0-0.1,0-0.1,0-0.2
				c0-0.1,0.1-0.1,0.2-0.1c0.1,0,0.3,0,0.4,0c0.1,0,0.2,0.1,0.2,0.2C60.8,16.8,60.8,17.4,60.8,18.1z"/>
		</g>
	</g>
</g>
<g id="圖層_3">
	<g id="vrojWv.tif">
		<g>
			<path fill="#CCCCCC" d="M52.7,10.2c0,1.6,0,3.2,0,4.8c0,1.4,0,2.7,0,4.1c0,0.8-0.3,1.2-1.1,1.2c-2,0-4.1,0-6.1,0
				c-0.7,0-0.8-0.5-0.8-1c0-1,0-2.1,0-3.1c0-2.7,0-5.4,0-8.1C44.8,7,45,6.8,46,6.8c1.8,0,3.5,0,5.3,0c0.6,0,1.2,0,1.5,0.8
				c0.1,0.2,0.8,0.3,1.1,0.3c0.7-0.1,1.4-0.2,1.9-0.8c0.4-0.4,0.8-0.3,1,0.4c1,3.7,2,7.4,3,11.2c0.2,0.6-0.3,0.9-0.9,0.7
				c-0.9-0.2-1.7,0-2.3,0.6c-0.7,0.6-1,0.5-1.3-0.3c-0.8-2.9-1.5-5.8-2.3-8.7c-0.1-0.2-0.1-0.4-0.2-0.6
				C52.8,10.2,52.8,10.2,52.7,10.2z M53.8,9c0.8,3.2,1.7,6.5,2.5,9.7c0.7-0.2,1.4-0.4,2.1-0.5c-0.8-3.3-1.7-6.5-2.5-9.7
				C55.2,8.6,54.5,8.8,53.8,9z M46.1,10.6c0,2,0,3.9,0,5.8c0.7,0,1.4,0,2,0c0-2,0-3.9,0-5.8C47.4,10.6,46.7,10.6,46.1,10.6z
				 M49.4,10.6c0,2,0,3.9,0,5.8c0.7,0,1.4,0,2,0c0-2,0-3.9,0-5.8C50.8,10.6,50.1,10.6,49.4,10.6z M48.1,8.1c-0.7,0-1.4,0-2.1,0
				c0,0.4,0,0.8,0,1.2c0.7,0,1.4,0,2.1,0C48.1,8.9,48.1,8.5,48.1,8.1z M51.5,8.1c-0.7,0-1.4,0-2.1,0c0,0.4,0,0.8,0,1.2
				c0.7,0,1.4,0,2.1,0C51.5,8.8,51.5,8.5,51.5,8.1z M46.1,17.8c0,0.5,0,0.8,0,1.2c0.7,0,1.4,0,2,0c0-0.4,0-0.8,0-1.2
				C47.4,17.8,46.7,17.8,46.1,17.8z M51.5,19c0-0.5,0-0.8,0-1.2c-0.7,0-1.4,0-2,0c0,0.4,0,0.8,0,1.2C50.1,19,50.8,19,51.5,19z"/>
		</g>
	</g>
</g>
</svg>
