<svg xmlns="http://www.w3.org/2000/svg" xmlns:xlink="http://www.w3.org/1999/xlink" width="48" height="38" viewBox="0 0 48 38">
  <defs>
    <clipPath id="clip-path">
      <rect id="Rectangle_1669" data-name="Rectangle 1669" width="48" height="38" transform="translate(-2328 7891)" fill="#ccc" stroke="#707070" stroke-width="1"/>
    </clipPath>
  </defs>
  <g id="Mask_Group_133" data-name="Mask Group 133" transform="translate(2328 -7891)" clip-path="url(#clip-path)">
    <path id="woman" d="M21.309,24.772H16.691a9.251,9.251,0,0,0-9.24,9.24v2.762a1.225,1.225,0,1,0,2.45,0V34.013a6.8,6.8,0,0,1,4.5-6.392,4.824,4.824,0,0,0,9.2,0,6.8,6.8,0,0,1,4.5,6.392v2.762a1.225,1.225,0,1,0,2.451,0V34.013a9.251,9.251,0,0,0-9.24-9.24Zm-4.426,2.451h4.234A2.361,2.361,0,0,1,16.883,27.223Zm.385-13.147v.391a1.225,1.225,0,1,1-2.45,0v-.391a1.225,1.225,0,1,1,2.45,0Zm5.915,0v.391a1.225,1.225,0,1,1-2.45,0v-.391a1.225,1.225,0,1,1,2.45,0Zm3.811-12.26-1.322.357a11.326,11.326,0,0,0-13.343,0l-1.322-.357A5.425,5.425,0,0,0,4.169,7.052V8.824a1.225,1.225,0,1,0,2.45,0V7.052a2.972,2.972,0,0,1,3.675-2.887C7.725,7.442,8,10.555,8,12.834A10.811,10.811,0,0,0,19.2,23.632,10.81,10.81,0,0,0,30,12.834c0-2.229.288-5.372-2.3-8.67A2.972,2.972,0,0,1,31.38,7.052V8.824a1.225,1.225,0,1,0,2.45,0V7.052a5.425,5.425,0,0,0-6.837-5.235ZM19.2,2.468a8.361,8.361,0,0,1,8.151,6.548,15.2,15.2,0,0,1-4.973.11,15.338,15.338,0,0,1-5.54-1.957,1.226,1.226,0,0,0-1.615.119,5.532,5.532,0,0,1-4.535,1.524,8.361,8.361,0,0,1,8.1-6.343Zm0,18.713H18.8a8.356,8.356,0,0,1-8.347-8.347V11.25a8.091,8.091,0,0,0,5.8-1.6,17.594,17.594,0,0,0,11.3,1.819v1.362A8.356,8.356,0,0,1,19.2,21.181Z" transform="translate(-2323 7891)" fill="#ccc"/>
  </g>
</svg>
