<svg width="21" height="21" viewBox="0 0 21 21" fill="none" xmlns="http://www.w3.org/2000/svg">
<path d="M14.6685 1.51005H12.4998C10.074 1.51005 8.50638 3.25015 8.50638 5.93727V7.97854H6.33771C6.2931 7.97854 6.24893 7.98808 6.20775 8.00662C6.16658 8.02516 6.12921 8.05232 6.09781 8.08655C6.06641 8.12077 6.04161 8.16138 6.02482 8.20602C6.00804 8.25066 5.9996 8.29845 6.00001 8.34663V11.3048C6.00001 11.4015 6.03559 11.4943 6.09892 11.5627C6.16225 11.6311 6.24814 11.6696 6.33771 11.6696H8.50638V19.1319C8.50638 19.2295 8.54228 19.3232 8.60619 19.3922C8.6701 19.4612 8.75679 19.5 8.84717 19.5H11.6788C11.7692 19.5 11.8559 19.4612 11.9198 19.3922C11.9837 19.3232 12.0196 19.2295 12.0196 19.1319V11.6729H14.557C14.6016 11.6733 14.6458 11.6642 14.6872 11.6461C14.7285 11.628 14.7661 11.6012 14.7978 11.5673C14.8295 11.5333 14.8546 11.493 14.8718 11.4485C14.8889 11.404 14.8978 11.3563 14.8978 11.3082V8.32656C14.8968 8.22906 14.8613 8.13567 14.7986 8.06554C14.7341 7.99721 14.6474 7.95879 14.557 7.95846H12.0196V6.2284C12.0196 5.3985 12.2024 4.97687 13.2031 4.97687H14.6592C14.7038 4.97731 14.7481 4.9682 14.7894 4.95006C14.8307 4.93193 14.8683 4.90514 14.9 4.87122C14.9317 4.83731 14.9568 4.79695 14.974 4.75247C14.9912 4.708 15 4.66029 15 4.61211V1.86477C15 1.81658 14.9912 1.76888 14.974 1.7244C14.9568 1.67993 14.9317 1.63957 14.9 1.60566C14.8683 1.57174 14.8307 1.54494 14.7894 1.52681C14.7481 1.50868 14.7038 1.49957 14.6592 1.50002L14.6685 1.51005Z" fill="white"/>
</svg>
