<svg xmlns="http://www.w3.org/2000/svg" xmlns:xlink="http://www.w3.org/1999/xlink" width="21" height="21" viewBox="0 0 21 21">
  <defs>
    <clipPath id="clip-path">
      <rect id="Rectangle_236" data-name="Rectangle 236" width="21" height="21" transform="translate(0 0.136)" fill="#567148" stroke="#707070" stroke-width="1"/>
    </clipPath>
  </defs>
  <g id="Mask_Group_17" data-name="Mask Group 17" transform="translate(0 -0.136)" clip-path="url(#clip-path)">
    <g id="birthday-cake_2_" data-name="birthday-cake (2)" transform="translate(-0.12 0.56)">
      <path id="Path_22" data-name="Path 22" d="M18.685,14.4V12.415a1.9,1.9,0,0,0-1.9-1.9H16.1V7.885a.6.6,0,1,0-1.209,0v2.632H10.918V7.885a.6.6,0,0,0-1.209,0v2.632H5.74V7.885a.6.6,0,1,0-1.209,0v2.632h-.69a1.9,1.9,0,0,0-1.9,1.9V14.4A1.9,1.9,0,0,0,0,16.3v5.825a.6.6,0,0,0,.6.6H20.022a.6.6,0,0,0,.6-.6V16.3A1.9,1.9,0,0,0,18.685,14.4ZM3.15,12.415a.69.69,0,0,1,.69-.69H16.786a.69.69,0,0,1,.69.69V14.4H3.15ZM1.9,15.609H18.728a.69.69,0,0,1,.69.69v1.044L18.34,18.422a.368.368,0,0,1-.518,0l-.569-.569a1.577,1.577,0,0,0-2.228,0l-.568.569a.367.367,0,0,1-.518,0l-.569-.569a1.577,1.577,0,0,0-2.228,0l-.568.569a.367.367,0,0,1-.518,0l-.569-.569a1.577,1.577,0,0,0-2.228,0l-.568.569a.367.367,0,0,1-.518,0L5.6,17.853a1.577,1.577,0,0,0-2.228,0l-.568.569a.367.367,0,0,1-.519,0L1.209,17.343V16.3A.69.69,0,0,1,1.9,15.609Zm-.69,5.911V19.053l.224.224a1.578,1.578,0,0,0,2.228,0l.568-.569a.367.367,0,0,1,.518,0l.569.569a1.578,1.578,0,0,0,2.228,0l.568-.569a.367.367,0,0,1,.518,0l.569.569a1.578,1.578,0,0,0,2.228,0L12,18.707a.367.367,0,0,1,.518,0l.569.57a1.578,1.578,0,0,0,2.228,0l.568-.569a.367.367,0,0,1,.518,0l.569.569a1.578,1.578,0,0,0,2.228,0l.224-.224V21.52Zm0,0" transform="translate(0 -2.102)" fill="#567148"/>
      <path id="Path_23" data-name="Path 23" d="M19.662,3.869a1.867,1.867,0,0,0,2.7,0l.006-.006a1.985,1.985,0,0,0,0-2.731L21.445.185a.6.6,0,0,0-.869,0l-.916.948a1.985,1.985,0,0,0,0,2.731Zm.868-1.9.481-.5.481.5a.767.767,0,0,1,0,1.055l0,0a.659.659,0,0,1-.956,0l0,0A.767.767,0,0,1,20.53,1.972Zm0,0" transform="translate(-5.519 0)" fill="#567148"/>
      <path id="Path_24" data-name="Path 24" d="M5.1,3.869a1.867,1.867,0,0,0,2.7,0L7.8,3.863a1.985,1.985,0,0,0,0-2.731L6.885.185a.6.6,0,0,0-.869,0L5.1,1.133a1.985,1.985,0,0,0,0,2.731Zm.868-1.9.481-.5.481.5a.767.767,0,0,1,0,1.055l0,0a.659.659,0,0,1-.956,0l0,0A.767.767,0,0,1,5.969,1.972Zm0,0" transform="translate(-1.315 0)" fill="#567148"/>
      <path id="Path_25" data-name="Path 25" d="M12.382,3.869a1.867,1.867,0,0,0,2.7,0l.006-.006a1.985,1.985,0,0,0,0-2.731L14.165.185a.6.6,0,0,0-.869,0l-.916.948a1.985,1.985,0,0,0,0,2.731Zm.868-1.9.481-.5.481.5a.767.767,0,0,1,0,1.055l0,0a.659.659,0,0,1-.956,0l0,0A.767.767,0,0,1,13.249,1.972Zm0,0" transform="translate(-3.417 0)" fill="#567148"/>
    </g>
  </g>
</svg>
