<svg xmlns="http://www.w3.org/2000/svg" xmlns:xlink="http://www.w3.org/1999/xlink" width="21" height="21" viewBox="0 0 21 21">
  <defs>
    <clipPath id="clip-path">
      <rect id="Rectangle_282" data-name="Rectangle 282" width="21" height="21" transform="translate(578 386)" fill="#567148" stroke="#707070" stroke-width="1"/>
    </clipPath>
  </defs>
  <g id="Mask_Group_25" data-name="Mask Group 25" transform="translate(-578 -386)" clip-path="url(#clip-path)">
    <g id="phone_2_" data-name="phone (2)" transform="translate(578 386)">
      <g id="Group_47" data-name="Group 47">
        <g id="Group_46" data-name="Group 46">
          <path id="Path_45" data-name="Path 45" d="M10.992,2.506h.041A7.446,7.446,0,0,1,18.494,10a.82.82,0,0,0,.816.824h0a.82.82,0,0,0,.82-.816,9.087,9.087,0,0,0-9.1-9.147h-.045a.82.82,0,0,0,0,1.641Z" fill="#567148"/>
          <path id="Path_46" data-name="Path 46" d="M21,16.921a3.106,3.106,0,0,0-.953-2.135,7.63,7.63,0,0,0-3.021-2.007,3.381,3.381,0,0,0-3.472.985l0,0-1.11,1.1a16.516,16.516,0,0,1-3.5-2.706l-.108-.108a16.62,16.62,0,0,1-2.7-3.5l1.1-1.109,0,0A3.381,3.381,0,0,0,8.22,3.975,7.629,7.629,0,0,0,6.213.955,3.121,3.121,0,0,0,1.881.8L1.858.82,1.826.85A6.655,6.655,0,0,0,0,5.725C.017,9.1,1.87,12.954,4.958,16.042l.008.008a20.018,20.018,0,0,0,1.959,1.7.82.82,0,0,0,1-1.3,18.343,18.343,0,0,1-1.8-1.571l-.008-.008c-2.784-2.788-4.455-6.21-4.47-9.157a5.068,5.068,0,0,1,1.33-3.692l.006-.006a1.476,1.476,0,0,1,2.055.074C7.156,4.3,7,5.336,6.064,6.3L4.543,7.83a.82.82,0,0,0-.167.912,16.575,16.575,0,0,0,3.3,4.476l.108.108a16.574,16.574,0,0,0,4.476,3.3.82.82,0,0,0,.912-.167l1.532-1.52c.962-.939,2-1.093,4.2,1.031a1.476,1.476,0,0,1,.074,2.055l-.006.006a5.053,5.053,0,0,1-3.655,1.33h-.037a10.637,10.637,0,0,1-4.048-.958.82.82,0,0,0-.65,1.506A12.1,12.1,0,0,0,15.275,21h.046a6.641,6.641,0,0,0,4.829-1.826l.03-.032.021-.024A3.107,3.107,0,0,0,21,16.921Z" fill="#567148"/>
          <path id="Path_47" data-name="Path 47" d="M15.154,5.847a4.508,4.508,0,0,0-2.13-1.226A.82.82,0,1,0,12.586,6.2a2.869,2.869,0,0,1,1.407.8,2.932,2.932,0,0,1,.8,1.382l.012.04a.82.82,0,1,0,1.573-.466l-.011-.038A4.514,4.514,0,0,0,15.154,5.847Z" fill="#567148"/>
        </g>
      </g>
    </g>
  </g>
</svg>
