<svg xmlns="http://www.w3.org/2000/svg" xmlns:xlink="http://www.w3.org/1999/xlink" width="22" height="22" viewBox="0 0 22 22">
  <defs>
    <clipPath id="clip-path">
      <rect id="Rectangle_288" data-name="Rectangle 288" width="22" height="22" transform="translate(249 481)" fill="#fff" stroke="#707070" stroke-width="1"/>
    </clipPath>
  </defs>
  <g id="Mask_Group_27" data-name="Mask Group 27" transform="translate(-249 -481)" clip-path="url(#clip-path)">
    <g id="icon_3_" data-name="icon (3)" transform="translate(249.157 481)">
      <path id="Path_54" data-name="Path 54" d="M15.046,4.643A1.522,1.522,0,0,0,16.572,3.12V1.526a1.526,1.526,0,1,0-3.051,0V3.121A1.522,1.522,0,0,0,15.046,4.643Z" transform="translate(1.195)" fill="#fff"/>
      <path id="Path_55" data-name="Path 55" d="M21.805,2.4H18.733v.776a2.323,2.323,0,1,1-4.645,0V2.4h-6.2v.776a2.323,2.323,0,1,1-4.647,0V2.4l-3.1-.039v19.4H20.281l1.548,0ZM20.279,20.219H1.693V7.826H20.281V20.219Z" transform="translate(-0.143 0.236)" fill="#fff"/>
      <path id="Path_56" data-name="Path 56" d="M5.189,4.643A1.523,1.523,0,0,0,6.716,3.12V1.526a1.526,1.526,0,1,0-3.051,0V3.121A1.52,1.52,0,0,0,5.189,4.643Z" transform="translate(0.209)" fill="#fff"/>
      <rect id="Rectangle_289" data-name="Rectangle 289" width="2.441" height="2.155" transform="translate(7.751 9.725)" fill="#fff"/>
      <rect id="Rectangle_290" data-name="Rectangle 290" width="2.443" height="2.155" transform="translate(11.698 9.725)" fill="#fff"/>
      <rect id="Rectangle_291" data-name="Rectangle 291" width="2.441" height="2.155" transform="translate(15.358 9.725)" fill="#fff"/>
      <rect id="Rectangle_292" data-name="Rectangle 292" width="2.441" height="2.153" transform="translate(7.751 13.303)" fill="#fff"/>
      <rect id="Rectangle_293" data-name="Rectangle 293" width="2.443" height="2.153" transform="translate(11.698 13.303)" fill="#fff"/>
      <rect id="Rectangle_294" data-name="Rectangle 294" width="2.441" height="2.153" transform="translate(15.358 13.303)" fill="#fff"/>
      <rect id="Rectangle_295" data-name="Rectangle 295" width="2.441" height="2.153" transform="translate(7.751 16.952)" fill="#fff"/>
      <rect id="Rectangle_296" data-name="Rectangle 296" width="2.439" height="2.153" transform="translate(3.874 13.303)" fill="#fff"/>
      <rect id="Rectangle_297" data-name="Rectangle 297" width="2.439" height="2.153" transform="translate(3.874 16.952)" fill="#fff"/>
      <rect id="Rectangle_298" data-name="Rectangle 298" width="2.443" height="2.153" transform="translate(11.698 16.952)" fill="#fff"/>
      <rect id="Rectangle_299" data-name="Rectangle 299" width="2.441" height="2.153" transform="translate(15.358 16.952)" fill="#fff"/>
    </g>
  </g>
</svg>
