<svg xmlns="http://www.w3.org/2000/svg" xmlns:xlink="http://www.w3.org/1999/xlink" width="21" height="21" viewBox="0 0 21 21">
  <defs>
    <clipPath id="clip-path">
      <rect id="Rectangle_237" data-name="Rectangle 237" width="21" height="21" transform="translate(0 0.181)" fill="#567148" stroke="#707070" stroke-width="1"/>
    </clipPath>
  </defs>
  <g id="Mask_Group_18" data-name="Mask Group 18" transform="translate(0 -0.181)" clip-path="url(#clip-path)">
    <g id="key" transform="translate(-0.12 -0.132)">
      <g id="Group_20" data-name="Group 20" transform="translate(13.375 4.351)">
        <g id="Group_19" data-name="Group 19">
          <circle id="Ellipse_2" data-name="Ellipse 2" cx="1.289" cy="1.289" r="1.289" fill="#567148"/>
        </g>
      </g>
      <g id="Group_22" data-name="Group 22" transform="translate(0 0)">
        <g id="Group_21" data-name="Group 21">
          <path id="Path_26" data-name="Path 26" d="M20.4,6.686A11.755,11.755,0,0,0,17.87,2.7,11.483,11.483,0,0,0,13.914.216a3.239,3.239,0,0,0-3.436.728L7.313,4.094a3.224,3.224,0,0,0-.673,3.574c.166.374.347.739.54,1.092L.236,15.7a.806.806,0,0,0-.236.57v3.545a.806.806,0,0,0,.806.806H4.351a.806.806,0,0,0,.806-.806v-1.45h1.45a.806.806,0,0,0,.806-.806v-1.45h1.45a.806.806,0,0,0,0-1.611H6.607a.806.806,0,0,0-.806.806v1.45H4.351a.806.806,0,0,0-.806.806v1.45H1.611V16.608L8.756,9.463a.806.806,0,0,0,.119-.988,13.039,13.039,0,0,1-.762-1.462A1.6,1.6,0,0,1,8.45,5.236l3.164-3.149a1.625,1.625,0,0,1,1.724-.365,9.865,9.865,0,0,1,3.394,2.121A10.137,10.137,0,0,1,18.9,7.275a1.6,1.6,0,0,1-.361,1.72l-3.2,3.187a1.623,1.623,0,0,1-1.773.346,10.458,10.458,0,0,1-1.45-.74.806.806,0,0,0-.843,1.373,12.076,12.076,0,0,0,1.674.854,3.229,3.229,0,0,0,3.529-.691l3.2-3.187A3.211,3.211,0,0,0,20.4,6.686Z" transform="translate(0 -0.004)" fill="#567148"/>
        </g>
      </g>
    </g>
  </g>
</svg>
