<svg xmlns="http://www.w3.org/2000/svg" xmlns:xlink="http://www.w3.org/1999/xlink" width="23" height="24" viewBox="0 0 23 24">
  <defs>
    <clipPath id="clip-path">
      <rect id="Rectangle_223" data-name="Rectangle 223" width="23" height="24" transform="translate(0.077 -0.312)" fill="#fff" stroke="#707070" stroke-width="1"/>
    </clipPath>
  </defs>
  <g id="Mask_Group_10" data-name="Mask Group 10" transform="translate(-0.077 0.312)" clip-path="url(#clip-path)">
    <g id="right-arrow_3_" data-name="right-arrow (3)" transform="translate(0.176 2.08)">
      <g id="Group_4" data-name="Group 4" transform="translate(0 0)">
        <path id="Path_12" data-name="Path 12" d="M23.09,12.631,14.616,4.156a1.288,1.288,0,0,0-1.816,0l-.769.77a1.275,1.275,0,0,0-.375.908,1.3,1.3,0,0,0,.375.919l4.944,4.955H1.268A1.253,1.253,0,0,0,0,12.97v1.088a1.3,1.3,0,0,0,1.268,1.319H17.03l-5,4.982a1.272,1.272,0,0,0,0,1.8l.769.767a1.288,1.288,0,0,0,1.816,0l8.474-8.474a1.3,1.3,0,0,0,0-1.823Z" transform="translate(0 -3.782)" fill="#fff"/>
      </g>
    </g>
  </g>
</svg>
