<svg xmlns="http://www.w3.org/2000/svg" xmlns:xlink="http://www.w3.org/1999/xlink" width="24" height="24" viewBox="0 0 24 24">
  <defs>
    <clipPath id="clip-path">
      <rect id="Rectangle_265" data-name="Rectangle 265" width="24" height="24" transform="translate(251 631)" fill="#fff" stroke="#707070" stroke-width="1"/>
    </clipPath>
  </defs>
  <g id="Mask_Group_23" data-name="Mask Group 23" transform="translate(-251 -631)" clip-path="url(#clip-path)">
    <g id="book_6_" data-name="book (6)" transform="translate(251 633.161)">
      <path id="Path_38" data-name="Path 38" d="M21.857,17.139V0L21.2.055A25.15,25.15,0,0,0,13.58,1.913l-1.151.478V19.462l.838-.348A26.163,26.163,0,0,1,21.153,17.2Zm0,0" fill="#fff"/>
      <path id="Path_39" data-name="Path 39" d="M24,2.534H22.714v15a.429.429,0,0,1-.393.429l-1.1.09q-.475.039-.948.1c-.1.012-.2.029-.305.043-.212.028-.424.057-.635.09-.123.02-.245.043-.368.064-.189.033-.378.066-.567.1-.129.026-.257.055-.388.082-.18.038-.359.077-.537.119-.134.032-.267.065-.4.1-.173.043-.346.089-.519.137-.134.037-.268.076-.4.115-.171.051-.34.1-.51.156l-.4.128q-.254.086-.506.177l-.389.143-.176.069H24Zm0,0" fill="#fff"/>
      <path id="Path_40" data-name="Path 40" d="M2.8.055,2.143,0V17.14l.761.065a25.988,25.988,0,0,1,7.878,1.929l.79.329V2.391l-1.15-.478A25.15,25.15,0,0,0,2.8.055Zm0,0" fill="#fff"/>
      <path id="Path_41" data-name="Path 41" d="M0,2.534V19.677H9.83c-.053-.021-.105-.043-.159-.063-.123-.047-.246-.091-.37-.136-.174-.063-.348-.125-.523-.184q-.19-.064-.381-.125-.261-.086-.523-.161c-.129-.038-.257-.076-.386-.112-.176-.049-.353-.1-.53-.14-.128-.033-.257-.066-.389-.1-.18-.043-.36-.082-.541-.121-.128-.028-.257-.056-.386-.082-.187-.037-.375-.07-.562-.1l-.369-.065c-.207-.033-.415-.061-.623-.089-.105-.014-.209-.031-.314-.043q-.471-.057-.943-.1l-1.154-.1a.429.429,0,0,1-.392-.429v-15Zm0,0" fill="#fff"/>
    </g>
  </g>
</svg>
