<?xml version="1.0" encoding="utf-8"?>
<!-- Generator: Adobe Illustrator 23.1.1, SVG Export Plug-In . SVG Version: 6.00 Build 0)  -->
<svg version="1.1" id="圖層_1" xmlns="http://www.w3.org/2000/svg" xmlns:xlink="http://www.w3.org/1999/xlink" x="0px" y="0px"
	 viewBox="0 0 24 24" style="enable-background:new 0 0 24 24;" xml:space="preserve">
<style type="text/css">
	.st0{clip-path:url(#SVGID_2_);}
	.st1{fill:#567148;}
</style>
<g>
	<defs>
		<rect id="SVGID_1_" y="0" width="24" height="24"/>
	</defs>
	<clipPath id="SVGID_2_">
		<use xlink:href="#SVGID_1_"  style="overflow:visible;"/>
	</clipPath>
	<g id="Mask_Group_33" transform="translate(-263 -208)" class="st0">
		<g id="high-school" transform="translate(263 208)">
			<path id="Path_94" class="st1" d="M18.3,8.8l-5.6-4.3V4.2h2.1c1.2,0,2.1-0.9,2.1-2.1V0h-5.6v4.6L5.7,8.8v2.5H0V24h24V11.3h-5.7
				V8.8z M12.7,18.3h1.4v4.3h-1.4V18.3z M11.3,22.6H9.9v-4.3h1.4V22.6z M8.5,16.9v5.7H7.1V9.9h9.8v12.7h-1.4v-5.7H8.5z M8.5,8.5
				L12,5.8l3.5,2.7L8.5,8.5z M12.7,1.4h2.8v0.7c0,0.4-0.3,0.7-0.7,0.7h-2.1V1.4z M5.7,12.7v1.4H1.4v-1.4H5.7z M1.4,21.1h1.4v-1.4
				H1.4v-1.4h1.4v-1.4H1.4v-1.4h4.3v7.1H1.4V21.1z M18.3,22.6v-7.1h4.3v1.4h-1.4v1.4h1.4v1.4h-1.4v1.4h1.4v1.5L18.3,22.6z
				 M22.6,12.7v1.4h-4.3v-1.4H22.6z"/>
			<path id="Path_95" class="st1" d="M12,11.3c-1.2,0-2.1,0.9-2.1,2.1s0.9,2.1,2.1,2.1s2.1-0.9,2.1-2.1C14.1,12.2,13.2,11.3,12,11.3
				z M12,14.1c-0.4,0-0.7-0.3-0.7-0.7s0.3-0.7,0.7-0.7c0.4,0,0.7,0.3,0.7,0.7l0,0C12.7,13.8,12.4,14.1,12,14.1L12,14.1z"/>
		</g>
	</g>
</g>
</svg>
