<svg xmlns="http://www.w3.org/2000/svg" xmlns:xlink="http://www.w3.org/1999/xlink" width="33" height="33" viewBox="0 0 33 33">
  <defs>
    <clipPath id="clip-path">
      <rect id="Rectangle_223" data-name="Rectangle 223" width="33" height="33" transform="translate(0.187 0.165)" fill="#fff" stroke="#707070" stroke-width="1"/>
    </clipPath>
  </defs>
  <g id="Mask_Group_10" data-name="Mask Group 10" transform="translate(-0.187 -0.165)" clip-path="url(#clip-path)">
    <g id="right-arrow_3_" data-name="right-arrow (3)" transform="translate(0 3.152)">
      <g id="Group_4" data-name="Group 4" transform="translate(0 0)">
        <path id="Path_12" data-name="Path 12" d="M32.463,16.223,20.549,4.308a1.811,1.811,0,0,0-2.554,0L16.914,5.39a1.792,1.792,0,0,0-.527,1.277,1.828,1.828,0,0,0,.527,1.292l6.95,6.966H1.782A1.762,1.762,0,0,0,0,16.7v1.53a1.83,1.83,0,0,0,1.782,1.854H23.943l-7.029,7a1.788,1.788,0,0,0,0,2.535L18,30.7a1.811,1.811,0,0,0,2.554,0L32.463,18.785a1.821,1.821,0,0,0,0-2.563Z" transform="translate(0 -3.782)" fill="#fff"/>
      </g>
    </g>
  </g>
</svg>
