<svg xmlns="http://www.w3.org/2000/svg" xmlns:xlink="http://www.w3.org/1999/xlink" width="24" height="24" viewBox="0 0 24 24">
  <defs>
    <clipPath id="clip-path">
      <rect id="Rectangle_264" data-name="Rectangle 264" width="24" height="24" transform="translate(-0.396)" fill="#fff" stroke="#707070" stroke-width="1"/>
    </clipPath>
  </defs>
  <g id="Mask_Group_22" data-name="Mask Group 22" transform="translate(0.396)" clip-path="url(#clip-path)">
    <g id="pen_1_" data-name="pen (1)" transform="translate(0.004)">
      <path id="Path_32" data-name="Path 32" d="M.048,23.081a.7.7,0,0,0,.675.9.655.655,0,0,0,.192-.028l6.553-1.87-5.55-5.55Zm0,0" transform="translate(0)" fill="#fff"/>
      <path id="Path_33" data-name="Path 33" d="M.723,24a.722.722,0,0,1-.694-.923l1.884-6.591L7.52,22.092l-6.6,1.88A.709.709,0,0,1,.723,24Zm1.209-7.43L.072,23.086a.677.677,0,0,0,.651.862.652.652,0,0,0,.188-.028l6.516-1.861Zm0,0" transform="translate(0)" fill="#fff"/>
      <path id="Path_34" data-name="Path 34" d="M23.359,3.619,20.383.642a2.116,2.116,0,0,0-2.986,0l-1.491,1.49,5.958,5.958L23.355,6.6a2.116,2.116,0,0,0,0-2.977Zm0,0" transform="translate(0)" fill="#fff"/>
      <path id="Path_35" data-name="Path 35" d="M21.869,8.119,15.878,2.128l1.5-1.5a2.128,2.128,0,0,1,3.01,0L23.369,3.6a2.128,2.128,0,0,1,0,3.009ZM15.944,2.128l5.925,5.925L23.34,6.581a2.082,2.082,0,0,0,0-2.944L20.364.656a2.088,2.088,0,0,0-2.948,0Zm0,0" transform="translate(0)" fill="#fff"/>
      <path id="Path_36" data-name="Path 36" d="M2.71,15.329,14.917,3.121l5.96,5.96L8.669,21.288Zm0,0" transform="translate(0)" fill="#fff"/>
      <path id="Path_37" data-name="Path 37" d="M8.669,21.323l-6-6L14.917,3.089,20.908,9.08Zm-5.925-6,5.925,5.925L20.842,9.08,14.917,3.155Zm0,0" transform="translate(0)" fill="#fff"/>
    </g>
  </g>
</svg>
