<svg xmlns="http://www.w3.org/2000/svg" xmlns:xlink="http://www.w3.org/1999/xlink" width="22" height="22" viewBox="0 0 22 22">
  <defs>
    <clipPath id="clip-path">
      <rect id="Rectangle_280" data-name="Rectangle 280" width="22" height="22" transform="translate(257 251)" fill="#fff" stroke="#707070" stroke-width="1"/>
    </clipPath>
  </defs>
  <g id="Mask_Group_24" data-name="Mask Group 24" transform="translate(-257 -251)" clip-path="url(#clip-path)">
    <g id="phone_1_" data-name="phone (1)" transform="translate(257 251.917)">
      <g id="Group_43" data-name="Group 43" transform="translate(0)">
        <g id="Group_42" data-name="Group 42">
          <path id="Path_43" data-name="Path 43" d="M21.625,5.627a14.513,14.513,0,0,0-21.251,0,1.4,1.4,0,0,0,0,1.905L2.488,9.755a1.318,1.318,0,0,0,1.875,0A9.287,9.287,0,0,1,6.748,7.936a1.335,1.335,0,0,0,.717-1.149l.319-2.409a9.512,9.512,0,0,1,6.433,0l.315,2.349a1.378,1.378,0,0,0,.71,1.214,9.315,9.315,0,0,1,2.39,1.821,1.287,1.287,0,0,0,1.875,0l2.119-2.229A1.4,1.4,0,0,0,21.625,5.627Z" transform="translate(0 -1)" fill="#fff"/>
          <path id="Path_44" data-name="Path 44" d="M17.13,10.213A2.288,2.288,0,0,0,15.108,9H7.225A2.288,2.288,0,0,0,5.2,10.213l-2.933,5.5A2.3,2.3,0,0,0,2,16.792V20a1.835,1.835,0,0,0,1.833,1.833H18.5A1.835,1.835,0,0,0,20.333,20V16.792a2.306,2.306,0,0,0-.269-1.079Zm-8.715,8.87a.917.917,0,1,1,.917-.917A.918.918,0,0,1,8.416,19.083Zm0-2.75a.917.917,0,1,1,.917-.917A.918.918,0,0,1,8.416,16.333Zm0-2.75a.917.917,0,1,1,.917-.917A.918.918,0,0,1,8.416,13.583Zm2.751,5.5a.917.917,0,1,1,.917-.917A.918.918,0,0,1,11.167,19.083Zm0-2.75a.917.917,0,1,1,.917-.917A.918.918,0,0,1,11.167,16.333Zm0-2.75a.917.917,0,1,1,.917-.917A.918.918,0,0,1,11.167,13.583Zm2.749,5.5a.917.917,0,1,1,.917-.917A.918.918,0,0,1,13.916,19.083Zm0-2.75a.917.917,0,1,1,.917-.917A.918.918,0,0,1,13.916,16.333Zm0-2.75a.917.917,0,1,1,.917-.917A.918.918,0,0,1,13.916,13.583Z" transform="translate(-0.167 -1.667)" fill="#fff"/>
        </g>
      </g>
    </g>
  </g>
</svg>
