<svg width="18" height="16" viewBox="0 0 18 16" fill="none" xmlns="http://www.w3.org/2000/svg">
<g clip-path="url(#clip0_564_4)">
<path d="M17.5986 7.22308C16.7902 9.18424 12.0466 13.4173 9.70154 15.4321C9.46061 15.641 9.24645 15.8232 9.06442 15.9786C9.02694 16.0108 8.97875 16.0108 8.94128 15.9786C8.75924 15.8232 8.54508 15.641 8.30416 15.4321C5.95377 13.4173 1.21016 9.18424 0.40707 7.22308C-0.67443 4.5975 0.482025 1.55396 2.98232 0.423353C5.16674 -0.562581 7.65633 0.230453 8.96805 2.1916C8.98411 2.21304 9.01088 2.21304 9.02694 2.1916C10.344 0.230453 12.8336 -0.562581 15.018 0.423353C17.5237 1.55396 18.6748 4.5975 17.5986 7.22308Z" fill="#969696"/>
</g>
<defs>
<clipPath id="clip0_564_4">
<rect width="18" height="16" fill="white"/>
</clipPath>
</defs>
</svg>
