<svg width="26" height="16" viewBox="0 0 26 16" fill="none" xmlns="http://www.w3.org/2000/svg">
<g clip-path="url(#clip0_1_3)">
<path d="M9.37 7.7C8.97631 7.01299 8.36367 6.47781 7.63 6.18C6.91199 6.77607 6.00818 7.10234 5.075 7.10234C4.14182 7.10234 3.238 6.77607 2.52 6.18C1.94156 6.41666 1.43608 6.80223 1.05493 7.29754C0.673792 7.79285 0.430574 8.38024 0.349997 9L-2.51271e-06 11.9C-0.0242685 12.0793 0.0198769 12.2612 0.123647 12.4094C0.227418 12.5577 0.383203 12.6614 0.559997 12.7C2.04328 13.0095 3.55477 13.1637 5.07 13.16C5.68 13.16 6.27 13.16 6.86 13.09L7.1 11.09C7.19066 10.388 7.44282 9.71647 7.83668 9.12828C8.23054 8.54009 8.75538 8.0512 9.37 7.7Z" fill="#909090"/>
<path d="M5.08 0C4.48665 0 3.90663 0.175947 3.41329 0.505591C2.91994 0.835235 2.53542 1.30377 2.30836 1.85195C2.08129 2.40013 2.02188 3.00333 2.13764 3.58527C2.2534 4.16721 2.53912 4.70176 2.95868 5.12132C3.37823 5.54088 3.91278 5.8266 4.49472 5.94236C5.07667 6.05811 5.67987 5.9987 6.22805 5.77164C6.77622 5.54458 7.24476 5.16006 7.5744 4.66671C7.90405 4.17336 8.08 3.59334 8.08 3C8.08 2.20435 7.76393 1.44129 7.20132 0.87868C6.63871 0.31607 5.87565 0 5.08 0Z" fill="#909090"/>
<path d="M25.38 9C25.3044 8.37489 25.0635 7.78125 24.6821 7.28027C24.3006 6.7793 23.7925 6.38913 23.21 6.15C22.492 6.74607 21.5882 7.07234 20.655 7.07234C19.7218 7.07234 18.818 6.74607 18.1 6.15C17.3617 6.4555 16.7485 7.00177 16.36 7.7C16.9778 8.05128 17.5043 8.54298 17.8969 9.13536C18.2895 9.72773 18.5372 10.4042 18.62 11.11L18.86 13.11C19.45 13.16 20.04 13.18 20.65 13.18C22.1652 13.1837 23.6767 13.0295 25.16 12.72C25.3375 12.6815 25.4943 12.5781 25.5997 12.4302C25.7051 12.2823 25.7516 12.1004 25.73 11.92L25.38 9Z" fill="#909090"/>
<path d="M20.65 0C20.0567 0 19.4766 0.175947 18.9833 0.505591C18.4899 0.835235 18.1054 1.30377 17.8784 1.85195C17.6513 2.40013 17.5919 3.00333 17.7076 3.58527C17.8234 4.16721 18.1091 4.70176 18.5287 5.12132C18.9482 5.54088 19.4828 5.8266 20.0647 5.94236C20.6467 6.05811 21.2499 5.9987 21.798 5.77164C22.3462 5.54458 22.8148 5.16006 23.1444 4.66671C23.474 4.17336 23.65 3.59334 23.65 3C23.65 2.20435 23.3339 1.44129 22.7713 0.87868C22.2087 0.31607 21.4456 0 20.65 0Z" fill="#909090"/>
<path d="M17.59 11.24C17.5185 10.6135 17.2792 10.018 16.8972 9.51635C16.5153 9.0147 16.0049 8.62554 15.42 8.39C14.702 8.98607 13.7982 9.31234 12.865 9.31234C11.9318 9.31234 11.028 8.98607 10.31 8.39C9.72633 8.62735 9.21706 9.01701 8.83536 9.51833C8.45366 10.0196 8.21352 10.6142 8.14 11.24L7.79 14.11C7.7703 14.2886 7.81626 14.4683 7.91931 14.6155C8.02235 14.7627 8.17544 14.8674 8.35 14.91C9.83348 15.2182 11.3448 15.3724 12.86 15.37C14.3785 15.3731 15.8932 15.2189 17.38 14.91C17.5546 14.8674 17.7076 14.7627 17.8107 14.6155C17.9137 14.4683 17.9597 14.2886 17.94 14.11L17.59 11.24Z" fill="#909090"/>
<path d="M12.86 2.21C12.2666 2.21 11.6866 2.38595 11.1933 2.71559C10.6999 3.04523 10.3154 3.51377 10.0884 4.06195C9.86129 4.61013 9.80188 5.21333 9.91764 5.79527C10.0334 6.37721 10.3191 6.91176 10.7387 7.33132C11.1582 7.75088 11.6928 8.0366 12.2747 8.15236C12.8567 8.26811 13.4599 8.2087 14.008 7.98164C14.5562 7.75457 15.0248 7.37006 15.3544 6.87671C15.684 6.38336 15.86 5.80334 15.86 5.21C15.86 4.41435 15.5439 3.65129 14.9813 3.08868C14.4187 2.52607 13.6556 2.21 12.86 2.21Z" fill="#909090"/>
</g>
<defs>
<clipPath id="clip0_1_3">
<rect width="25.73" height="15.37" fill="white"/>
</clipPath>
</defs>
</svg>
