<svg width="21" height="21" viewBox="0 0 21 21" fill="none" xmlns="http://www.w3.org/2000/svg">
<path d="M20.9718 16.3522C20.9718 16.3522 20.941 16.2393 20.8999 16.1572C20.746 15.8597 20.4689 15.6237 20.1508 15.5006L15.7688 13.7974C15.2864 13.6332 14.6912 13.8692 14.3834 14.177L12.803 15.7571C12.4438 16.1162 11.9204 16.2085 11.5715 15.9623C10.3605 15.1517 9.13931 14.1565 7.98994 13.0073C6.84056 11.8582 5.8554 10.6372 5.03442 9.42654C4.79839 9.06744 4.89073 8.54415 5.23965 8.19531L6.82005 6.61525C7.12792 6.30745 7.36395 5.71235 7.19975 5.23012L5.49621 0.849046C5.37306 0.530981 5.1473 0.264206 4.83943 0.100043C4.75734 0.0590023 4.66497 0.02823 4.64445 0.02823C3.94661 -0.0743716 3.28981 0.120565 2.70486 0.325768C2.13017 0.530971 1.62734 0.838785 1.21684 1.24919C-0.774041 3.23966 -0.240422 7.21034 2.22253 11.2118C3.09482 12.638 4.2237 14.0744 5.57832 15.4185C6.92268 16.7626 8.35938 17.8912 9.78584 18.7735C13.7779 21.236 17.7494 21.7798 19.7506 19.779C20.1713 19.3584 20.4689 18.8556 20.6742 18.2913C20.8794 17.7065 21.0744 17.0498 20.9718 16.3522Z" fill="white"/>
</svg>
