<svg width="21" height="21" viewBox="0 0 21 21" fill="none" xmlns="http://www.w3.org/2000/svg">
<path d="M17.8982 8.475L13.4282 4.00499L10.5282 1.105C10.3882 0.965 10.1482 0.965 10.0082 1.105L7.10823 4.00499L2.63823 8.475L0.108226 11.005C-0.121774 11.235 0.0382055 11.635 0.368205 11.635H2.27821C2.47821 11.635 2.6482 11.795 2.6482 12.005V18.905C2.6482 19.105 2.80823 19.275 3.01823 19.275H8.49821C8.69821 19.275 8.86821 19.115 8.86821 18.905V14.275C8.86821 14.075 9.0282 13.905 9.2382 13.905H11.3382C11.5382 13.905 11.7082 14.065 11.7082 14.275V18.905C11.7082 19.105 11.8682 19.275 12.0782 19.275H17.5582C17.7582 19.275 17.9282 19.115 17.9282 18.905V12.005C17.9282 11.805 18.0882 11.635 18.2982 11.635H20.2082C20.5382 11.635 20.6982 11.235 20.4682 11.005L17.9382 8.475H17.8982Z" fill="white"/>
</svg>
