<svg id="圖層_1" data-name="圖層 1" xmlns="http://www.w3.org/2000/svg" viewBox="0 0 860 947"><defs><style>.cls-1{fill:#ccc;}.cls-10,.cls-11,.cls-12,.cls-2,.cls-3,.cls-4,.cls-5,.cls-6,.cls-7,.cls-8,.cls-9{fill:#797a7c;}.cls-10,.cls-11,.cls-12,.cls-3,.cls-4,.cls-5,.cls-6,.cls-7,.cls-8,.cls-9{isolation:isolate;}.cls-3{opacity:0.95;}.cls-4{opacity:0.8;}.cls-5{opacity:0.85;}.cls-6{opacity:0.7;}.cls-7{opacity:0.65;}.cls-8{opacity:0.5;}.cls-9{opacity:0.45;}.cls-10{opacity:0.4;}.cls-11{opacity:0.35;}.cls-12{opacity:0.3;}</style></defs><path class="cls-1" d="M332.7,564.32V528.54h4.17v32.05h16v3.73Z"/><path class="cls-1" d="M383.89,550.84a18.91,18.91,0,0,1-.84,5.93,12.78,12.78,0,0,1-2.48,4.38,10.81,10.81,0,0,1-3.91,2.73,13.65,13.65,0,0,1-5.17.94,12.71,12.71,0,0,1-4.95-.94,11,11,0,0,1-3.86-2.73,12.26,12.26,0,0,1-2.53-4.38,18.11,18.11,0,0,1-.88-5.93,17.07,17.07,0,0,1,1.5-7.48,10.63,10.63,0,0,1,4.26-4.74,13,13,0,0,1,6.61-1.63,12.29,12.29,0,0,1,6.43,1.67,10.68,10.68,0,0,1,4.29,4.73A16.37,16.37,0,0,1,383.89,550.84Zm-20.42,0a16,16,0,0,0,.87,5.61,7.52,7.52,0,0,0,2.64,3.7,8.85,8.85,0,0,0,9.18,0,7.45,7.45,0,0,0,2.66-3.7,16.68,16.68,0,0,0,.88-5.61,16.14,16.14,0,0,0-.88-5.51,7.4,7.4,0,0,0-2.63-3.64,7.85,7.85,0,0,0-4.64-1.25,7,7,0,0,0-6.27,2.76A13.19,13.19,0,0,0,363.47,550.84Z"/><path class="cls-1" d="M403.45,537.06a10.17,10.17,0,0,1,7.14,2.16,9,9,0,0,1,2.32,6.86v18.24h-3.13l-.47-4h-.19a15.08,15.08,0,0,1-2.35,2.44,8.94,8.94,0,0,1-2.82,1.51,14.06,14.06,0,0,1-3.92.5,10.11,10.11,0,0,1-4.51-.79,6.55,6.55,0,0,1-3.13-2.56,8,8,0,0,1-1.1-4.42,7.08,7.08,0,0,1,3.13-6.27,18.52,18.52,0,0,1,9.72-2.35l4.6-.19v-1.63a6.49,6.49,0,0,0-1.47-4.88,5.89,5.89,0,0,0-4.23-1.38,13.29,13.29,0,0,0-4,.59,27.42,27.42,0,0,0-3.61,1.44l-1.25-3.13a21.5,21.5,0,0,1,4.17-1.6A17.92,17.92,0,0,1,403.45,537.06Zm5.45,14-4.11.19a13.64,13.64,0,0,0-7.05,1.63,4.7,4.7,0,0,0-2.06,4.11,4,4,0,0,0,1.41,3.38,5.61,5.61,0,0,0,3.69,1.1,8.54,8.54,0,0,0,5.83-2,7.41,7.41,0,0,0,2.29-5.95Z"/><path class="cls-1" d="M433.34,564.82a10.15,10.15,0,0,1-8.09-3.48,19.34,19.34,0,0,1,.19-20.8,10.21,10.21,0,0,1,8.08-3.55,11.23,11.23,0,0,1,3.73.57,8.67,8.67,0,0,1,2.73,1.5,9.08,9.08,0,0,1,1.94,2.16h.32a18.28,18.28,0,0,1-.22-2.09V526.25h4.07v38.07H443l-.6-3.83h-.19a9.12,9.12,0,0,1-1.91,2.2,8.79,8.79,0,0,1-2.76,1.53A10.89,10.89,0,0,1,433.34,564.82Zm.62-3.39a7.06,7.06,0,0,0,6.11-2.44,12.31,12.31,0,0,0,1.79-7.27V551a14.59,14.59,0,0,0-1.72-7.83,6.61,6.61,0,0,0-6.27-2.76,6.27,6.27,0,0,0-5.61,2.88,14.58,14.58,0,0,0-1.85,7.83,13.57,13.57,0,0,0,1.85,7.65A6.25,6.25,0,0,0,434,561.43Z"/><path class="cls-1" d="M459.06,527.47a2.81,2.81,0,0,1,1.72,4.67,2.53,2.53,0,0,1-1.72.66,2.45,2.45,0,0,1-1.75-.66,2.67,2.67,0,0,1-.72-2,2.64,2.64,0,0,1,.72-2A2.55,2.55,0,0,1,459.06,527.47Zm2,10v26.82H457V537.5Z"/><path class="cls-1" d="M484.82,537a8.53,8.53,0,0,1,9.7,7.15,8.67,8.67,0,0,1,0,2.69v17.49h-4v-17.2a7.17,7.17,0,0,0-1.54-5,6,6,0,0,0-4.67-1.66A7.22,7.22,0,0,0,478,543a12.52,12.52,0,0,0-1.82,7.33v14h-4.07V537.5h3.13l.59,3.85h.22a8.33,8.33,0,0,1,2.2-2.38,10.13,10.13,0,0,1,2.94-1.47A12.6,12.6,0,0,1,484.82,537Z"/><path class="cls-1" d="M512.86,576.38a14.38,14.38,0,0,1-8.15-2,6.71,6.71,0,0,1-1.25-9.84,7.92,7.92,0,0,1,4.45-2.38,4.61,4.61,0,0,1-1.82-1.48,3.53,3.53,0,0,1-.75-2.25,4.11,4.11,0,0,1,.84-2.57,8.28,8.28,0,0,1,2.51-2.13,7.25,7.25,0,0,1-3.41-2.92,8.52,8.52,0,0,1-1.32-4.76,9.61,9.61,0,0,1,1.19-4.92,7.88,7.88,0,0,1,3.48-3.13,12.87,12.87,0,0,1,5.51-1.07,11.53,11.53,0,0,1,1.44,0l1.38.16a8.77,8.77,0,0,1,1.13.25h9.21V540l-4.95.6a9,9,0,0,1-1,11.72,11,11,0,0,1-7.46,2.35,16.08,16.08,0,0,1-2.29-.19,6,6,0,0,0-1.84,1.47,3.17,3.17,0,0,0-.6,1.85,1.7,1.7,0,0,0,.47,1.25,2.7,2.7,0,0,0,1.38.66,8.71,8.71,0,0,0,2.16.22h4.73a10.76,10.76,0,0,1,6.74,1.85,6.47,6.47,0,0,1,2.32,5.36,7.68,7.68,0,0,1-3.61,6.83A19.31,19.31,0,0,1,512.86,576.38Zm0-3.13a18.32,18.32,0,0,0,5.51-.69,6.74,6.74,0,0,0,3.29-1.91,4.56,4.56,0,0,0,1.1-3.14,3.57,3.57,0,0,0-.75-2.44,3.79,3.79,0,0,0-2.13-1.1,18.5,18.5,0,0,0-3.48-.28h-4.54a8.2,8.2,0,0,0-3.14.56,4.88,4.88,0,0,0-2.07,1.66,5.25,5.25,0,0,0-.72,2.76,3.75,3.75,0,0,0,1.85,3.32,10,10,0,0,0,5.2,1.19Zm1.06-21.44a6,6,0,0,0,4.39-1.47,5.9,5.9,0,0,0,1.47-4.29,6.29,6.29,0,0,0-1.5-4.51,6,6,0,0,0-4.42-1.51,5.71,5.71,0,0,0-4.29,1.54,6.28,6.28,0,0,0-1.51,4.54,5.6,5.6,0,0,0,1.54,4.23,6,6,0,0,0,4.45,1.41Z"/><circle class="cls-2" cx="429.33" cy="381.21" r="10.62"/><circle class="cls-3" cx="456.05" cy="389.42" r="9.65"/><circle class="cls-4" cx="474.29" cy="410.73" r="9.21"/><circle class="cls-5" cx="477.83" cy="439.05" r="8.46"/><circle class="cls-6" cx="465.7" cy="464.34" r="7.68"/><circle class="cls-7" cx="441.2" cy="478.91" r="6.86"/><circle class="cls-8" cx="413.47" cy="477.37" r="6.45"/><circle class="cls-9" cx="390" cy="460.83" r="5.55"/><circle class="cls-10" cx="380.17" cy="434.66" r="4.73"/><circle class="cls-11" cx="386.28" cy="407.03" r="4.04"/><circle class="cls-12" cx="406.2" cy="387.1" r="3.32"/></svg>