<svg id="圖層_1" data-name="圖層 1" xmlns="http://www.w3.org/2000/svg" viewBox="0 0 860 947"><defs><style>.cls-1{fill:#7a7b7c;}.cls-2{fill:#ababac;}.cls-3{fill:#cccccc;}</style></defs><path class="cls-1" d="M478.66,462.47H433.05l-3.44,3.45h50.77a1.73,1.73,0,0,0,1.73-1.72V413.42l-3.45,3.45Zm1.72-87.26H362.58a1.73,1.73,0,0,0-1.73,1.72V464.2a1.73,1.73,0,0,0,1.73,1.72h57.61l3.45-3.45H364.3V378.65H478.66v28.8l3.45-3.45V376.93A1.73,1.73,0,0,0,480.38,375.21Z"/><path class="cls-2" d="M443.76,425.85l7.86,8.64-2.44,2.44-6.95-7.64-11.49,8a1.72,1.72,0,0,1-2.21-.21L410,418.16l-27.06,30.69a1.72,1.72,0,0,1-2.59-2.27l28.29-32.08a1.73,1.73,0,0,1,1.24-.59,1.76,1.76,0,0,1,1.28.52L430,433.61l11.53-8A1.72,1.72,0,0,1,443.76,425.85Z"/><path class="cls-2" d="M462.48,449a1.71,1.71,0,0,1-2.43-.12l-6.38-7,2.44-2.44,6.49,7.14A1.71,1.71,0,0,1,462.48,449Z"/><path class="cls-2" d="M444.63,394.2a8.73,8.73,0,1,0,8.73,8.73A8.74,8.74,0,0,0,444.63,394.2Zm0,14a5.28,5.28,0,1,1,5.28-5.28A5.29,5.29,0,0,1,444.63,408.21Z"/><path class="cls-1" d="M414.56,481.21a1.73,1.73,0,0,1-1.22-2.94l82.87-82.87a1.7,1.7,0,0,1,2.43,0,1.72,1.72,0,0,1,0,2.43L415.77,480.7A1.68,1.68,0,0,1,414.56,481.21Z"/><path class="cls-3" d="M350.13,559.75h-4.8l-19.51-30.06h-.2q.08,1.2.18,2.73c.06,1,.11,2.1.16,3.25s.06,2.33.06,3.52v20.56h-3.87V524h4.77l19.44,30h.17q0-.85-.12-2.43c-.05-1.06-.1-2.19-.14-3.41s-.06-2.34-.06-3.39V524h3.92Z"/><path class="cls-3" d="M382.41,546.28a18.8,18.8,0,0,1-.85,5.9,12.15,12.15,0,0,1-2.47,4.38,10.48,10.48,0,0,1-3.91,2.73,13.47,13.47,0,0,1-5.18,1,12.56,12.56,0,0,1-4.93-1,10.74,10.74,0,0,1-3.87-2.73,12.53,12.53,0,0,1-2.52-4.38,18.2,18.2,0,0,1-.89-5.9,17.26,17.26,0,0,1,1.49-7.5,10.72,10.72,0,0,1,4.27-4.72,12.86,12.86,0,0,1,6.63-1.63,12.36,12.36,0,0,1,6.42,1.64,11,11,0,0,1,4.28,4.74A16.7,16.7,0,0,1,382.41,546.28Zm-20.41,0a16.3,16.3,0,0,0,.86,5.61,7.05,7.05,0,0,0,7.24,5,7.62,7.62,0,0,0,4.59-1.3,7.51,7.51,0,0,0,2.66-3.67,16.55,16.55,0,0,0,.85-5.61,16.17,16.17,0,0,0-.85-5.54,7.43,7.43,0,0,0-2.65-3.61,7.77,7.77,0,0,0-4.62-1.27c-2.79,0-4.84.92-6.13,2.76A13.13,13.13,0,0,0,362,546.28Z"/><path class="cls-3" d="M404.54,522.88a2.51,2.51,0,0,1,1.73.65,3.18,3.18,0,0,1,0,4,2.62,2.62,0,0,1-3.48,0,3.25,3.25,0,0,1,0-4A2.49,2.49,0,0,1,404.54,522.88Zm2,10v26.83h-4.07V532.92Z"/><path class="cls-3" d="M444.25,532.43q4.42,0,6.68,2.31t2.25,7.43v17.58h-4V542.37a7.32,7.32,0,0,0-1.41-4.89,5.23,5.23,0,0,0-4.17-1.62c-2.6,0-4.48.75-5.66,2.25s-1.76,3.71-1.76,6.63v15h-4V542.37a9.35,9.35,0,0,0-.62-3.63,4.51,4.51,0,0,0-1.86-2.16,6.17,6.17,0,0,0-3.13-.72,7.42,7.42,0,0,0-4.28,1.1,6.1,6.1,0,0,0-2.34,3.27,17,17,0,0,0-.72,5.32v14.2h-4.06V532.92h3.28l.61,3.79h.22a8.08,8.08,0,0,1,2-2.35,9.09,9.09,0,0,1,2.74-1.44,10.35,10.35,0,0,1,3.23-.49,10.52,10.52,0,0,1,5.13,1.14,6.61,6.61,0,0,1,3,3.46h.22a8.38,8.38,0,0,1,3.62-3.46A11.24,11.24,0,0,1,444.25,532.43Z"/><path class="cls-3" d="M471.56,532.48q4.8,0,7.13,2.15t2.32,6.88v18.24h-3l-.78-4h-.2a14.23,14.23,0,0,1-2.35,2.46,8.42,8.42,0,0,1-2.83,1.49,13,13,0,0,1-3.92.51,10.45,10.45,0,0,1-4.35-.86,6.79,6.79,0,0,1-3-2.59,8.23,8.23,0,0,1-1.08-4.41,7,7,0,0,1,3.18-6.17q3.18-2.15,9.69-2.35l4.63-.2V542c0-2.31-.5-3.94-1.5-4.87a5.91,5.91,0,0,0-4.21-1.39,13,13,0,0,0-4,.61,28.43,28.43,0,0,0-3.62,1.44l-1.25-3.08a22.29,22.29,0,0,1,4.16-1.59A18.19,18.19,0,0,1,471.56,532.48Zm5.44,14-4.09.17c-3.35.13-5.7.68-7.07,1.64a4.71,4.71,0,0,0-2.06,4.09,4.07,4.07,0,0,0,1.4,3.4,5.81,5.81,0,0,0,3.69,1.1,8.6,8.6,0,0,0,5.85-2c1.52-1.32,2.28-3.31,2.28-6Z"/><path class="cls-3" d="M496.87,571.79q-5.28,0-8.15-2a6.31,6.31,0,0,1-2.86-5.52,6.22,6.22,0,0,1,1.6-4.31,7.91,7.91,0,0,1,4.45-2.37,4.72,4.72,0,0,1-1.8-1.47,3.59,3.59,0,0,1-.75-2.25,4.25,4.25,0,0,1,.82-2.59,8.76,8.76,0,0,1,2.51-2.14,7.26,7.26,0,0,1-3.42-2.9,8.65,8.65,0,0,1-1.31-4.76,9.58,9.58,0,0,1,1.2-4.93,7.78,7.78,0,0,1,3.48-3.12,12.77,12.77,0,0,1,5.51-1.08c.47,0,1,0,1.43.06s.94.1,1.38.17a10,10,0,0,1,1.15.26h9.21v2.62l-4.95.61a8.79,8.79,0,0,1,1.23,2.3,8.89,8.89,0,0,1,.49,3,8,8,0,0,1-2.72,6.37,11,11,0,0,1-7.47,2.37,14,14,0,0,1-2.3-.2,5.68,5.68,0,0,0-1.82,1.47,3,3,0,0,0-.63,1.86,1.66,1.66,0,0,0,.48,1.25,2.88,2.88,0,0,0,1.38.67,9.82,9.82,0,0,0,2.18.21h4.73q4.38,0,6.72,1.84a6.42,6.42,0,0,1,2.33,5.36,7.67,7.67,0,0,1-3.62,6.83Q503.74,571.79,496.87,571.79Zm.13-3.18a19,19,0,0,0,5.52-.68A6.84,6.84,0,0,0,505.8,566a4.47,4.47,0,0,0,1.09-3,3.53,3.53,0,0,0-.74-2.43,3.72,3.72,0,0,0-2.15-1.1,18,18,0,0,0-3.48-.29h-4.65a8.07,8.07,0,0,0-3.16.57,4.52,4.52,0,0,0-2.07,1.66,4.92,4.92,0,0,0-.72,2.74,3.67,3.67,0,0,0,1.84,3.32A10,10,0,0,0,497,568.61Zm1.05-21.44a5.94,5.94,0,0,0,4.38-1.47,5.81,5.81,0,0,0,1.47-4.29,6.18,6.18,0,0,0-1.49-4.51,5.94,5.94,0,0,0-4.41-1.51,5.71,5.71,0,0,0-4.3,1.56,6.28,6.28,0,0,0-1.5,4.54,5.57,5.57,0,0,0,1.52,4.21A6,6,0,0,0,498.05,547.17Z"/><path class="cls-3" d="M526.93,532.43a11,11,0,0,1,5.88,1.52,9.78,9.78,0,0,1,3.74,4.24,14.65,14.65,0,0,1,1.3,6.38v2.52H519.32q.07,4.73,2.35,7.2a8.28,8.28,0,0,0,6.41,2.47,19.68,19.68,0,0,0,4.51-.46,24.36,24.36,0,0,0,4.06-1.38v3.58a20.17,20.17,0,0,1-4,1.32,23.12,23.12,0,0,1-4.71.42,13.81,13.81,0,0,1-6.74-1.58A10.84,10.84,0,0,1,516.7,554a16.11,16.11,0,0,1-1.59-7.49,17.82,17.82,0,0,1,1.46-7.5,10.8,10.8,0,0,1,10.36-6.6Zm0,3.33a6.63,6.63,0,0,0-5.18,2.13,10.05,10.05,0,0,0-2.31,6h14.2a11.92,11.92,0,0,0-.74-4.23,6.17,6.17,0,0,0-2.2-2.84A6.51,6.51,0,0,0,526.88,535.76Z"/></svg>