<?xml version="1.0" encoding="utf-8"?>
<!-- Generator: Adobe Illustrator 23.1.1, SVG Export Plug-In . SVG Version: 6.00 Build 0)  -->
<svg version="1.1" id="Capa_1" xmlns="http://www.w3.org/2000/svg" xmlns:xlink="http://www.w3.org/1999/xlink" x="0px" y="0px"
	 viewBox="0 0 14.4 14.5" style="enable-background:new 0 0 14.4 14.5;" xml:space="preserve">
<style type="text/css">
	.st0{fill:#FFD2B3;}
	.st1{fill:#FC5E5E;}
	.st2{fill:#2980BA;}
	.st3{fill:#3B97D3;}
	.st4{fill:#84B5CB;}
	.st5{fill:#547580;}
	.st6{fill:#FFFFFF;}
	.st7{fill:#CECECE;}
	.st8{fill:#295EB2;}
	.st9{fill:#F44336;}
	.st10{fill:#FFC107;}
	.st11{fill:#4CAF50;}
	.st12{fill:#2196F3;}
	.st13{fill:#FAFAFA;}
	.st14{fill:#3FA0E1;}
	.st15{fill:#2568BD;}
	.st16{fill:#FF9842;}
	.st17{fill:#FF8322;}
	.st18{fill:#FFD664;}
	.st19{fill:#DDB200;}
	.st20{fill:#D1E7F8;}
	.st21{fill:#FFDA44;}
	.st22{fill:#FFCD00;}
	.st23{clip-path:url(#SVGID_2_);}
	.st24{fill:#D1F2AF;}
	.st25{opacity:0.742;}
	.st26{fill:#FCFCFC;}
	.st27{clip-path:url(#SVGID_4_);}
	.st28{fill:#485160;}
	.st29{clip-path:url(#SVGID_6_);}
</style>
<g id="telephone" transform="translate(-0.006)">
	<g id="Group_31" transform="translate(0.006)">
		<path id="Path_30" class="st28" d="M10.5,9.7c-0.3-0.4-0.9-0.4-1.3-0.1c0,0-0.1,0.1-0.1,0.1c-0.3,0.3-0.7,0.7-1,1
			c-0.1,0.1-0.2,0.1-0.3,0.1c-0.2-0.1-0.5-0.2-0.7-0.3C6.2,9.8,5.3,9,4.6,8.1C4.2,7.6,3.9,7.2,3.7,6.6c-0.1-0.1,0-0.2,0.1-0.3
			c0.3-0.3,0.7-0.7,1-1C5.2,5,5.2,4.4,4.9,4c0,0-0.1-0.1-0.1-0.1C4.5,3.6,4.2,3.4,4,3.1S3.4,2.6,3.1,2.3c-0.4-0.4-1-0.4-1.4-0.1
			c0,0-0.1,0.1-0.1,0.1C1.4,2.6,1,3,0.7,3.3C0.4,3.6,0.2,4,0.2,4.4c0,0.7,0.1,1.4,0.4,2C1,7.8,1.8,9,2.7,10.1
			c1.2,1.5,2.7,2.7,4.5,3.5c0.8,0.4,1.6,0.6,2.5,0.7c0.6,0.1,1.2-0.2,1.6-0.6c0.3-0.3,0.6-0.6,0.9-0.9c0.4-0.3,0.5-1,0.1-1.4
			c0,0-0.1-0.1-0.1-0.1C11.6,10.7,11.1,10.2,10.5,9.7z"/>
		<path id="Path_31" class="st28" d="M10.3,8l1.3-0.2c-0.4-2.6-2.5-4.6-5.1-4.9L6.3,4.1C8.3,4.4,9.9,6,10.3,8L10.3,8z"/>
		<path id="Path_32" class="st28" d="M11.4,3.1C9.8,1.6,7.8,0.6,5.7,0.3L5.5,1.6c3.7,0.5,6.7,3.4,7.3,7.1l1.3-0.2
			C13.8,6.5,12.8,4.6,11.4,3.1z"/>
	</g>
</g>
</svg>
