<?xml version="1.0" encoding="utf-8"?>
<!-- Generator: Adobe Illustrator 23.1.1, SVG Export Plug-In . SVG Version: 6.00 Build 0)  -->
<svg version="1.1" id="Capa_1" xmlns="http://www.w3.org/2000/svg" xmlns:xlink="http://www.w3.org/1999/xlink" x="0px" y="0px"
	 viewBox="0 0 264.5 61.7" style="enable-background:new 0 0 264.5 61.7;" xml:space="preserve">
<style type="text/css">
	.st0{fill:#FCFCFC;}
	.st1{fill:#F44336;}
	.st2{fill:#FFC107;}
	.st3{fill:#4CAF50;}
	.st4{fill:#2196F3;}
	.st5{fill:#FAFAFA;}
	.st6{font-family:'HelveticaNeue';}
	.st7{font-size:18px;}
</style>
<g id="Rectangle_394">
	
		<image style="overflow:visible;opacity:0.6;" width="231" height="62" xlink:href="E5F1BC6F270B12DF.png"  transform="matrix(1 0 0 1 31 -0.2)">
	</image>
	<g>
		<path class="st0" d="M48.6,7.4h192c5.5,0,10,4.5,10,10v23c0,5.5-4.5,10-10,10h-192c-5.5,0-10-4.5-10-10v-23
			C38.6,11.9,43,7.4,48.6,7.4z"/>
	</g>
</g>
<g id="chrome" transform="translate(-0.001 0)">
	<path id="Path_78" class="st1" d="M53.6,17.6H28.1c-5.7,0-10.3,4.6-10.3,10.3c0,1.8,0.5,3.5,1.3,5.1L6.3,11.1
		c9.3-12,26.5-14.2,38.6-4.9C48.7,9.2,51.7,13.1,53.6,17.6z"/>
	<path id="Path_79" class="st2" d="M55.6,27.9c0,15.2-12.3,27.5-27.5,27.5c-1.1,0-2.3-0.1-3.4-0.2L37,33.1
		c2.8-4.9,1.1-11.2-3.8-14.1c-1.6-0.9-3.3-1.4-5.1-1.4h25.5C54.9,20.9,55.6,24.4,55.6,27.9z"/>
	<path id="Path_80" class="st3" d="M37,33.1L24.6,55.2l0,0C9.6,53.3-1.1,39.6,0.8,24.5c0.6-4.9,2.5-9.5,5.5-13.4L19.1,33l0.1,0.1
		c2.8,4.9,9.1,6.6,14.1,3.8C34.8,36,36.1,34.7,37,33.1L37,33.1z"/>
	<path id="Path_81" class="st1" d="M37,33.1c-2.8,4.9-9.1,6.6-14.1,3.8c-1.6-0.9-2.9-2.2-3.8-3.8V33c-2.8-5-1-11.3,4-14
		c1.5-0.9,3.3-1.3,5.1-1.3l0,0c1.8,0,3.6,0.5,5.1,1.4C38.2,21.9,39.8,28.2,37,33.1z"/>
	<path id="Path_82" class="st4" d="M37,33.1c-2.8,4.9-9.1,6.6-14.1,3.8c-1.6-0.9-2.9-2.2-3.8-3.8V33c-2.8-5-1-11.3,4-14
		c1.5-0.9,3.3-1.3,5.1-1.3l0,0c1.8,0,3.6,0.5,5.1,1.4C38.2,21.9,39.8,28.2,37,33.1z"/>
	<path id="Path_83" class="st5" d="M28,39.4c-2,0-4-0.5-5.7-1.5c-5.5-3.2-7.4-10.2-4.2-15.7s10.2-7.4,15.7-4.2s7.4,10.2,4.2,15.7
		l0,0l0,0C35.9,37.2,32.1,39.4,28,39.4z M28.1,18.8c-5.1,0-9.2,4.1-9.2,9.1c0,5.1,4.1,9.2,9.1,9.2c3.3,0,6.3-1.7,8-4.6l0,0
		c2.5-4.4,1-10-3.4-12.5C31.3,19.2,29.7,18.8,28.1,18.8L28.1,18.8L28.1,18.8z"/>
</g>
<text transform="matrix(1 0 0 1 59.4164 33.0401)" class="st6 st7">https://esa.ntpc.edu.tw</text>
</svg>
