<svg width="100" height="100" viewBox="0 0 100 100" fill="none" xmlns="http://www.w3.org/2000/svg">
<path fill-rule="evenodd" clip-rule="evenodd" d="M50.0199 32.5384C40.3721 32.5384 32.5448 40.3626 32.5448 50.0066C32.5448 59.6507 40.3721 67.4749 50.0199 67.4749C59.6678 67.4749 67.495 59.6507 67.495 50.0066C67.495 40.3626 59.6678 32.5384 50.0199 32.5384ZM50.0199 61.3378C43.7608 61.3378 38.6844 56.2633 38.6844 50.0066C38.6844 43.75 43.7608 38.6755 50.0199 38.6755C56.2791 38.6755 61.3555 43.75 61.3555 50.0066C61.3555 56.2633 56.2791 61.3378 50.0199 61.3378Z" fill="#E6E6E6"/>
<path d="M68.186 35.9256C70.4319 35.9256 72.2658 34.1058 72.2658 31.8475C72.2658 29.6025 70.4319 27.7693 68.186 27.7693C65.9402 27.7693 64.1063 29.5892 64.1063 31.8475C64.1063 34.0925 65.9269 35.9256 68.186 35.9256Z" fill="#E6E6E6"/>
<path fill-rule="evenodd" clip-rule="evenodd" d="M50.0199 16C40.7841 16 39.6279 16.0399 36 16.1993C32.3854 16.3587 29.9003 16.9432 27.7475 17.78C25.5017 18.6568 23.6013 19.8125 21.7143 21.7121C19.814 23.5984 18.6578 25.498 17.7807 27.7296C16.9435 29.8949 16.3588 32.3657 16.1993 35.9789C16.0399 39.6187 16 40.7744 16 50.0066C16 59.2389 16.0399 60.3946 16.1993 64.0211C16.3588 67.6343 16.9435 70.1184 17.7807 72.2704C18.6578 74.5153 19.814 76.4149 21.7143 78.3012C23.6013 80.1875 25.5017 81.3565 27.7342 82.22C29.9003 83.0568 32.3721 83.6413 35.9867 83.8007C39.6146 83.9601 40.7708 84 50.0066 84C59.2425 84 60.3987 83.9601 64.0266 83.8007C67.6412 83.6413 70.1263 83.0568 72.2791 82.22C74.5116 81.3565 76.412 80.1875 78.299 78.3012C80.186 76.4149 81.3555 74.5153 82.2193 72.2837C83.0565 70.1184 83.6412 67.6476 83.8007 64.0344C83.9601 60.4079 84 59.2522 84 50.0199C84 40.7877 83.9601 39.632 83.8007 36.0055C83.6412 32.3923 83.0565 29.9082 82.2193 27.7562C81.3821 25.4979 80.2259 23.5984 78.3256 21.7121C76.4385 19.8257 74.5382 18.6568 72.3056 17.7933C70.1395 16.9564 67.6678 16.3719 64.0532 16.2125C60.412 16.0399 59.2558 16 50.0199 16ZM50.0199 22.1239C59.1096 22.1239 60.186 22.1637 63.7608 22.3231C67.0831 22.4692 68.8771 23.0272 70.0731 23.4921C71.6545 24.1031 72.7973 24.847 73.9801 26.0293C75.1761 27.2248 75.907 28.354 76.5183 29.9348C76.9834 31.1303 77.5415 32.9369 77.6877 36.2446C77.8472 39.8312 77.887 40.9072 77.887 49.9801C77.887 59.0662 77.8472 60.1422 77.6877 63.7156C77.5415 67.0365 76.9834 68.8299 76.5183 70.0254C75.907 71.6062 75.1628 72.7486 73.9801 73.9308C72.784 75.1264 71.6545 75.857 70.0731 76.4681C68.8771 76.933 67.0698 77.4909 63.7608 77.637C60.1728 77.7964 59.0963 77.8363 50.0199 77.8363C40.9302 77.8363 39.8538 77.7964 36.2791 77.637C32.9568 77.4909 31.1628 76.933 29.9668 76.4681C28.3854 75.857 27.2425 75.1131 26.0598 73.9308C24.8638 72.7353 24.1329 71.6062 23.5216 70.0254C23.0565 68.8299 22.4983 67.0233 22.3522 63.7156C22.1927 60.1289 22.1528 59.0529 22.1528 49.9801C22.1528 40.8939 22.1927 39.8179 22.3522 36.2446C22.4983 32.9236 23.0565 31.1303 23.5216 29.9348C24.1329 28.354 24.8771 27.2116 26.0598 26.0293C27.2558 24.8338 28.3854 24.1031 29.9668 23.4921C31.1628 23.0272 32.9701 22.4692 36.2791 22.3231C39.8538 22.1637 40.9302 22.1239 50.0199 22.1239Z" fill="#E6E6E6"/>
</svg>
