<svg xmlns="http://www.w3.org/2000/svg" xmlns:xlink="http://www.w3.org/1999/xlink" width="39" height="39" viewBox="0 0 39 39">
  <defs>
    <clipPath id="clip-path">
      <rect id="Rectangle_2426" data-name="Rectangle 2426" width="39" height="39" transform="translate(4377 3495)" fill="#fff" stroke="#707070" stroke-width="1"/>
    </clipPath>
  </defs>
  <g id="Mask_Group_806" data-name="Mask Group 806" transform="translate(-4377 -3495)" clip-path="url(#clip-path)">
    <g id="back" transform="translate(4377 3495)">
      <g id="Group_1349" data-name="Group 1349">
        <path id="Path_1265" data-name="Path 1265" d="M38.349,20.525c-2.095-6.74-8.743-11.339-16.713-11.476V1.171a.7.7,0,0,0-.683-.683.735.735,0,0,0-.41.137L.279,15.288a.665.665,0,0,0-.137.956l.137.137L20.544,30.953a.707.707,0,0,0,.956-.137.735.735,0,0,0,.137-.41V22.574c4.918,0,9.062,2.322,10.519,5.829,1.23,3.006.228,6.239-2.687,8.926a.662.662,0,0,0-.046.956.731.731,0,0,0,.5.228h.546a.517.517,0,0,0,.364-.137C37.53,33.959,40.4,27.082,38.349,20.525Z" fill="#fff"/>
      </g>
    </g>
  </g>
</svg>
