<svg xmlns="http://www.w3.org/2000/svg" xmlns:xlink="http://www.w3.org/1999/xlink" width="27" height="27" viewBox="0 0 27 27">
  <defs>
    <clipPath id="clip-path">
      <rect id="Rectangle_2423" data-name="Rectangle 2423" width="27" height="27" transform="translate(4237 3526)" fill="#fff" stroke="#707070" stroke-width="1"/>
    </clipPath>
  </defs>
  <g id="Mask_Group_804" data-name="Mask Group 804" transform="translate(-4237 -3526)" clip-path="url(#clip-path)">
    <g id="save-file" transform="translate(4237 3526)">
      <g id="Group_1342" data-name="Group 1342">
        <g id="Group_1341" data-name="Group 1341">
          <rect id="Rectangle_2424" data-name="Rectangle 2424" width="12.273" height="2.455" transform="translate(7.364 19.636)" fill="#fff"/>
        </g>
      </g>
      <g id="Group_1344" data-name="Group 1344">
        <g id="Group_1343" data-name="Group 1343">
          <path id="Path_1260" data-name="Path 1260" d="M7.364,24.545V27H19.636V24.545Z" fill="#fff"/>
        </g>
      </g>
      <g id="Group_1346" data-name="Group 1346">
        <g id="Group_1345" data-name="Group 1345">
          <path id="Path_1261" data-name="Path 1261" d="M26.754,7.058,21.823.49A1.227,1.227,0,0,0,20.841,0H18.818V10.227a1.227,1.227,0,0,1-1.227,1.227H6.136a1.227,1.227,0,0,1-1.227-1.227V0H1.227A1.227,1.227,0,0,0,0,1.227V25.773A1.227,1.227,0,0,0,1.227,27H4.909V18.409a1.227,1.227,0,0,1,1.227-1.227H20.864a1.227,1.227,0,0,1,1.227,1.227V27h3.682A1.227,1.227,0,0,0,27,25.773V7.8A1.228,1.228,0,0,0,26.754,7.058Z" fill="#fff"/>
        </g>
      </g>
      <g id="Group_1348" data-name="Group 1348">
        <g id="Group_1347" data-name="Group 1347">
          <path id="Path_1262" data-name="Path 1262" d="M7.364,0V9h9V0Z" fill="#fff"/>
        </g>
      </g>
    </g>
  </g>
</svg>
