<svg xmlns="http://www.w3.org/2000/svg" xmlns:xlink="http://www.w3.org/1999/xlink" width="48" height="38" viewBox="0 0 48 38">
  <defs>
    <clipPath id="clip-path">
      <rect id="Rectangle_734" data-name="Rectangle 734" width="48" height="38" transform="translate(861 1508)" fill="#ccc" stroke="#707070" stroke-width="1"/>
    </clipPath>
  </defs>
  <g id="Mask_Group_78" data-name="Mask Group 78" transform="translate(-861 -1508)" clip-path="url(#clip-path)">
    <g id="shield" transform="translate(866 1508)">
      <g id="Group_355" data-name="Group 355">
        <g id="Group_354" data-name="Group 354">
          <path id="Path_454" data-name="Path 454" d="M35.193,6.045a4.936,4.936,0,0,1-4.93-4.93V0H7.737V1.115a4.936,4.936,0,0,1-4.93,4.93H1.692v7.417A26.042,26.042,0,0,0,18.609,37.854L19,38l.391-.146A26.042,26.042,0,0,0,36.308,13.463V6.045Zm-1.115,7.417h0A23.812,23.812,0,0,1,19,35.614,23.811,23.811,0,0,1,3.922,13.463V8.189A7.179,7.179,0,0,0,9.881,2.231H28.119a7.178,7.178,0,0,0,5.959,5.959Z" fill="#ccc"/>
        </g>
      </g>
      <g id="Group_357" data-name="Group 357">
        <g id="Group_356" data-name="Group 356">
          <path id="Path_455" data-name="Path 455" d="M23.977,10.479l-7.383,7.383-2.571-2.571L9.291,20.023l7.3,7.3L28.709,15.211ZM12.446,20.023l1.577-1.577,2.571,2.571,7.383-7.383,1.577,1.577-8.96,8.96Z" fill="#ccc"/>
        </g>
      </g>
    </g>
  </g>
</svg>
