<svg width="18" height="16" viewBox="0 0 18 16" fill="none" xmlns="http://www.w3.org/2000/svg">
<g clip-path="url(#clip0_564_2)">
<path d="M8.99755 16C8.85186 16 8.70115 15.9501 8.58058 15.8503C8.40977 15.7057 8.2038 15.531 7.97773 15.3365C5.49601 13.2161 1.20575 9.3795 0.422051 7.48365C-0.703263 4.77457 0.507454 1.61648 3.12481 0.439056C5.16444 -0.473946 7.53062 0.0748532 8.99755 1.72624C10.4695 0.0748532 12.8357 -0.473946 14.8753 0.439056C17.4927 1.61149 18.7034 4.77457 17.5831 7.48365C16.8346 9.28471 13.0567 12.7471 10.0224 15.3365C9.79632 15.531 9.59537 15.7007 9.41954 15.8454C9.29897 15.9451 9.15328 16 9.00257 16H8.99755ZM5.17449 1.10759C4.63695 1.10759 4.09439 1.21735 3.58197 1.44685C1.50717 2.37981 0.547644 4.8993 1.44689 7.06456C1.94926 8.27691 4.66207 11.0558 8.70115 14.5033C8.80664 14.5931 8.90209 14.6729 8.99755 14.7527C9.08797 14.6729 9.18845 14.5931 9.28892 14.5033C13.333 11.0558 16.0458 8.27691 16.5482 7.06456C17.4474 4.8993 16.4879 2.37981 14.4131 1.44685C12.6548 0.658576 10.585 1.27223 9.48485 2.89868C9.37432 3.06332 9.19347 3.15811 8.99755 3.15811C8.80162 3.15811 8.61574 3.06332 8.51024 2.89868C7.73157 1.7462 6.47061 1.10261 5.17449 1.10261V1.10759Z" fill="#969696"/>
</g>
<defs>
<clipPath id="clip0_564_2">
<rect width="18" height="16" fill="white"/>
</clipPath>
</defs>
</svg>
