<svg width="102" height="102" viewBox="0 0 102 102" fill="none" xmlns="http://www.w3.org/2000/svg">
<rect width="102" height="102" fill="#E1E3EC"/>
<g clip-path="url(#clip0_163_38)">
<path d="M67.633 25.4574C65.8146 23.7236 63.7457 22.8996 61.4476 23.0071C56.7226 23.2364 52.5846 27.3274 51.5036 28.481C50.4226 27.3274 46.2775 23.2364 41.5596 23.0071C39.2759 22.8925 37.1926 23.7164 35.3741 25.4503C31.1073 29.5127 30.1838 35.3161 32.7611 41.7787C34.6081 46.3999 38.0731 50.885 41.8388 54.059C41.8818 54.1306 41.9462 54.1808 42.0249 54.2095C45.2537 56.8819 48.6829 58.5943 51.5036 58.5943C54.3243 58.5943 57.7606 56.8891 60.9822 54.2095C61.061 54.1808 61.1254 54.1306 61.1684 54.059C64.9341 50.885 68.3991 46.3999 70.2461 41.7787C72.8306 35.3161 71.8999 29.5198 67.633 25.4574ZM35.861 25.9661C37.436 24.4687 39.2186 23.7092 41.1587 23.7092C41.2804 23.7092 41.4021 23.7092 41.5238 23.7164C46.6068 23.96 51.1958 29.1903 51.2387 29.2476C51.3747 29.4052 51.6396 29.4052 51.7756 29.2476C51.8186 29.1974 56.4076 23.96 61.4905 23.7164C63.5738 23.6161 65.4782 24.3756 67.1534 25.9661C70.2962 28.961 71.1625 32.4287 70.9763 35.6743C70.2819 35.3089 69.4873 35.1656 68.6854 35.2659C68.4993 35.2874 68.3203 35.3304 68.1485 35.3734C68.2774 32.4789 67.3037 30.007 65.2133 28.0224C64.1537 27.0122 63.0942 26.5465 61.87 26.5465C58.6484 26.5465 54.9686 29.9211 53.9305 31.1032L53.7229 31.3397C53.0213 31.1391 52.2839 31.0244 51.5179 31.0244C50.7519 31.0244 50.0217 31.1391 49.3272 31.3397L49.1196 31.1032C47.9956 29.8351 44.3803 26.5465 41.173 26.5465C39.9488 26.5465 38.8893 27.0193 37.8297 28.0224C35.7464 30.007 34.7656 32.486 34.8945 35.3806C34.7155 35.3304 34.5365 35.2946 34.3504 35.2659C33.5486 35.1656 32.7539 35.3089 32.0595 35.6743C31.8733 32.4287 32.7396 28.961 35.8824 25.9661H35.861ZM62.4141 39.228C61.6409 39.5504 60.9966 40.1093 60.5742 40.8186C60.0874 39.923 59.6077 39.4215 59.3929 39.2209C59.3929 39.1277 59.4072 39.0274 59.4072 38.9343C59.4072 35.6027 57.3383 32.7583 54.4245 31.5904L54.446 31.5689C55.4268 30.4512 58.8918 27.2558 61.8557 27.2558C62.8866 27.2558 63.7958 27.6642 64.7121 28.5383C66.7167 30.4441 67.6187 32.8371 67.4183 35.6528C66.1153 36.2977 65.2419 37.6375 65.2204 39.1421C64.3327 38.8411 63.3447 38.8483 62.4212 39.2352L62.4141 39.228ZM42.4402 53.6005C40.586 45.3467 42.7051 41.4706 43.7002 40.1809C44.2801 43.8349 47.3656 46.6507 51.1385 46.8226C49.0623 48.0765 45.2394 50.8779 44.2013 54.9546C43.6143 54.539 43.0272 54.0805 42.4402 53.5933V53.6005ZM37.7868 39.1349C37.7653 37.6375 36.8919 36.2977 35.5961 35.6528C35.3956 32.8371 36.2977 30.4441 38.3022 28.5383C39.2329 27.6498 40.1135 27.2558 41.1587 27.2558C44.0939 27.2558 47.5876 30.4512 48.5755 31.5689L48.5898 31.5833C45.6689 32.744 43.5999 35.5955 43.5999 38.9343C43.5999 39.0346 43.6143 39.1277 43.6143 39.2209C43.3995 39.4215 42.9198 39.9302 42.433 40.8186C42.0106 40.1093 41.3663 39.5504 40.5931 39.228C39.6696 38.834 38.6745 38.834 37.7939 39.1349H37.7868ZM53.8589 36.398C53.6943 36.2905 53.4795 36.3335 53.3721 36.4983C53.0786 36.9496 52.6204 37.2577 52.0906 37.3652C51.5609 37.4727 51.0239 37.3652 50.5729 37.0714C49.7281 36.5126 49.4704 35.4164 49.9214 34.5351C50.4226 34.3918 50.9523 34.313 51.4964 34.313C54.7252 34.313 57.3597 36.9425 57.3597 40.1809C57.3597 43.4194 54.7323 46.0488 51.4964 46.0488C48.2605 46.0488 45.6331 43.4194 45.6331 40.1809C45.6331 37.8166 47.0363 35.789 49.048 34.8576C48.8118 35.9036 49.227 37.0356 50.172 37.6661C50.623 37.967 51.1385 38.1175 51.6683 38.1175C51.8544 38.1175 52.0334 38.096 52.2195 38.0602C52.9354 37.9169 53.5439 37.5013 53.9448 36.8923C54.0522 36.7275 54.0093 36.5126 53.8446 36.4051L53.8589 36.398ZM51.5036 33.6109C50.9237 33.6109 50.3653 33.6969 49.8284 33.833C49.6923 33.79 49.5492 33.833 49.4561 33.9405C46.8359 34.8002 44.9315 37.2721 44.9315 40.1809C44.9315 41.2055 45.1749 42.1727 45.5902 43.0325C44.7812 41.8646 44.3015 40.4532 44.3015 38.9271C44.3015 34.9579 47.5303 31.7266 51.5036 31.7266C55.4769 31.7266 58.6985 34.9579 58.6985 38.9271C58.6985 40.4532 58.2188 41.8646 57.4099 43.0325C57.8251 42.1656 58.0685 41.2055 58.0685 40.1809C58.0685 36.5556 55.1189 33.6109 51.5036 33.6109ZM33.4197 41.5136C32.8183 40.009 32.31 38.2823 32.1024 36.4624C32.7324 36.0469 33.4841 35.8678 34.243 35.9609C35.9683 36.1759 37.2069 37.7234 37.0708 39.4501C36.3478 39.8657 35.7536 40.5105 35.4028 41.3345C35.324 41.5136 35.4099 41.7214 35.5889 41.8002C35.7679 41.8718 35.9755 41.793 36.0543 41.6139C36.7558 39.9588 38.6673 39.185 40.3211 39.88C41.1086 40.2096 41.7243 40.8401 42.0464 41.621C41.1515 43.6988 40.4571 47.2382 41.5596 52.8267C38.1662 49.7602 35.0806 45.6548 33.4197 41.5064V41.5136ZM44.8313 55.3916C45.9911 50.1399 52.3985 46.9158 52.7708 46.7367C56.1212 46.1921 58.7629 43.5412 59.2999 40.1809C59.5719 40.5248 59.9155 41.0479 60.252 41.8002C60.252 41.8073 60.252 41.8145 60.2663 41.8288C61.1684 43.8779 61.9272 47.5606 60.567 53.6076C57.4528 56.2084 54.1525 57.8921 51.5036 57.8921C49.5277 57.8921 47.1867 56.9535 44.8313 55.3988V55.3916ZM69.5875 41.5136C67.9266 45.6619 64.8482 49.7673 61.4476 52.8338C62.5572 47.2382 61.8557 43.706 60.9608 41.6282C61.2758 40.8401 61.8914 40.2096 62.6861 39.8872C64.3327 39.1922 66.2442 39.966 66.9529 41.621C67.0317 41.8002 67.2393 41.8861 67.4183 41.8073C67.5972 41.7285 67.6832 41.5207 67.6044 41.3416C67.2536 40.5177 66.6522 39.8729 65.9363 39.4573C65.8003 37.7306 67.0388 36.183 68.7642 35.9681C69.5302 35.8678 70.2748 36.0541 70.9048 36.4696C70.7043 38.2895 70.1888 40.0161 69.5875 41.5207V41.5136Z" fill="#10395A"/>
<path d="M49.8212 40.661C49.6351 40.5966 49.4347 40.6897 49.3702 40.8688C49.2485 41.1912 48.9407 41.4133 48.6042 41.4133C48.2677 41.4133 47.9527 41.1912 47.8453 40.876C47.7809 40.6897 47.5804 40.5894 47.3943 40.6539C47.2082 40.7184 47.1079 40.919 47.1724 41.1052C47.38 41.7142 47.9527 42.1226 48.6042 42.1226C49.2557 42.1226 49.8069 41.7142 50.0289 41.1124C50.0933 40.9261 50.0002 40.7255 49.8212 40.661Z" fill="#10395A"/>
<path d="M53.6515 40.8831C53.5871 40.6969 53.3866 40.6037 53.2005 40.661C53.0143 40.7255 52.9141 40.9261 52.9785 41.1124C53.1861 41.7142 53.766 42.1298 54.396 42.1298C55.026 42.1298 55.6202 41.7214 55.8279 41.1124C55.8923 40.9261 55.7921 40.7255 55.6059 40.661C55.4198 40.5965 55.2193 40.6969 55.1549 40.8831C55.0475 41.1984 54.7325 41.4205 54.396 41.4205C54.0596 41.4205 53.7517 41.1984 53.6443 40.8831H53.6515Z" fill="#10395A"/>
<path d="M52.6635 43.1472C52.4702 43.1472 52.3127 43.3048 52.3127 43.4983C52.3127 43.9425 51.9476 44.3079 51.5037 44.3079C51.0599 44.3079 50.6948 43.9425 50.6948 43.4983C50.6948 43.3048 50.5373 43.1472 50.344 43.1472C50.1507 43.1472 49.9932 43.3048 49.9932 43.4983C49.9932 44.3365 50.6733 45.0172 51.5109 45.0172C52.3485 45.0172 53.0286 44.3365 53.0286 43.4983C53.0286 43.3048 52.8711 43.1472 52.6778 43.1472H52.6635Z" fill="#10395A"/>
<path d="M16.8462 70.0722C18.0418 70.1868 19.2159 71.1684 19.2159 72.4437C19.2159 73.7907 18.1062 74.7293 16.8104 74.7293C15.8225 74.7293 14.8775 74.3782 14.405 73.454C14.1687 74.2421 13.5315 74.7293 12.6868 74.7293C12.3002 74.7293 11.8778 74.629 11.4411 74.3281V73.0814C11.6559 73.3537 12.0639 73.5184 12.4004 73.5184C12.9373 73.5184 13.2094 73.0456 13.2094 72.5799V65.365H14.5052V69.5205C14.7056 69.5205 14.8918 69.5205 15.0779 69.5062C16.7889 69.456 18.8436 68.9545 18.8436 66.8481C18.8436 64.7417 16.7961 63.667 14.6412 63.667C12.2859 63.667 10.2527 64.9423 10.2527 67.4857C10.2527 68.1736 10.4531 68.8327 10.9256 69.3342L9.96631 70.1582C9.24324 69.3701 8.99268 68.5461 8.99268 67.4857C8.99268 64.2186 11.5127 62.4561 14.6054 62.4561C17.6981 62.4561 20.168 64.0395 20.168 66.7621C20.168 68.582 18.7219 69.8716 16.839 70.0794L16.8462 70.0722ZM15.1996 70.5451C14.9634 70.5451 14.7486 70.5594 14.5123 70.5809V72.0139C14.5123 73.0527 15.35 73.6259 16.3809 73.6259C17.1684 73.6259 17.9416 73.153 17.9416 72.3004C17.9416 70.803 16.3952 70.5523 15.1996 70.5523V70.5451Z" fill="#10395A"/>
<path d="M29.2384 73.2892V74.3997C28.8876 74.6505 28.4294 74.7508 27.9927 74.7508C27.2339 74.7508 26.6325 74.2492 26.432 73.454C25.9452 74.2779 25.1362 74.7293 24.1769 74.7293C22.4444 74.7293 21.1987 73.2963 21.1987 71.5983C21.1987 69.9003 22.4444 68.4888 24.1769 68.4888C25.0646 68.4888 25.8378 68.8757 26.3461 69.5993V68.6393H27.5703V72.7805C27.5703 73.2677 27.8567 73.6188 28.3578 73.6188C28.6943 73.6188 28.9807 73.5328 29.2312 73.282L29.2384 73.2892ZM26.3461 71.1326C26.2316 70.2943 25.4083 69.5349 24.4132 69.5349C23.2892 69.5349 22.4158 70.4949 22.4158 71.6055C22.4158 72.716 23.2892 73.6761 24.4132 73.6761C25.4226 73.6761 26.2316 72.9166 26.3461 72.0783V71.1398V71.1326Z" fill="#10395A"/>
<path d="M36.8702 71.4908C36.8702 73.2892 35.4384 74.7508 33.713 74.7508C31.9877 74.7508 30.606 73.3393 30.606 71.6198V62.6352H31.8302V71.6198C31.8302 72.6802 32.7179 73.5686 33.7774 73.5686C34.9014 73.5686 35.7462 72.6587 35.7462 71.4693C35.7462 70.9821 35.5457 70.2728 35.0589 70.0077C34.9945 70.3445 34.6079 70.6311 34.1855 70.6311C33.6486 70.6311 33.1403 70.1439 33.1403 69.585C33.1403 68.9473 33.7273 68.4745 34.3358 68.4745C36.0182 68.4745 36.8773 70.0364 36.8773 71.4837L36.8702 71.4908Z" fill="#10395A"/>
<path d="M44.3728 68.6464V75.7968C44.3728 77.0077 43.5137 78.3546 42.2394 78.4908L41.817 77.4447C42.5759 77.3444 43.1629 76.5491 43.1629 75.7968V73.7477C42.7906 74.3854 42.1535 74.7579 41.4304 74.7579C40.0487 74.7579 39.1753 73.7191 39.1753 72.3864V68.6536H40.3995V72.2861C40.3995 73.0957 40.8219 73.6832 41.6738 73.6832C42.5258 73.6832 43.0698 72.9094 43.1558 72.0855V68.6536H44.3656L44.3728 68.6464Z" fill="#10395A"/>
<path d="M59.2639 69.0836C59.2639 72.0426 57.7175 74.7366 54.4745 74.7366C53.2646 74.7366 52.1549 74.3497 51.5822 73.2535C51.3961 74.1132 50.7947 74.7366 49.8497 74.7366C49.4631 74.7366 49.0407 74.6363 48.604 74.3353V73.0887C48.8259 73.3609 49.2269 73.5257 49.5776 73.5257C50.1003 73.5257 50.3651 73.0529 50.3651 72.5872V65.3723H51.6609V71.362C51.8614 72.8594 52.9567 73.5974 54.4673 73.5974C56.973 73.5974 57.9466 71.276 57.9466 69.0908C57.9466 66.0099 55.4911 63.6742 52.4484 63.6742C49.7924 63.6742 47.4084 64.9997 47.4084 67.9158C47.4084 68.5892 47.6447 69.2412 48.0456 69.7643L47.072 70.5739C46.4634 69.8144 46.1484 68.8758 46.1484 67.9158C46.1484 64.2976 49.0694 62.4634 52.4198 62.4634C56.1855 62.4634 59.2639 65.272 59.2639 69.0908V69.0836Z" fill="#10395A"/>
<path d="M65.6211 69.4847C65.6211 70.0221 65.1844 70.4734 64.6331 70.4734C64.2609 70.4734 63.9244 70.237 63.774 69.8859C63.2371 70.1582 62.9149 70.7099 62.8648 71.3834V74.5788H61.6406V68.6393H62.8648V69.6352C63.2013 68.9975 63.8385 68.4888 64.583 68.4888C65.1557 68.4888 65.6211 68.9259 65.6211 69.4847Z" fill="#10395A"/>
<path d="M70.0313 73.6761C70.5897 73.6761 71.2555 73.5399 71.7781 73.1387V74.3496C71.2412 74.6361 70.5539 74.7365 70.0456 74.7365C68.1484 74.7365 66.6665 73.4253 66.6665 71.5911C66.6665 69.9218 68.0482 68.496 69.7091 68.496C70.8188 68.496 71.6278 68.9689 72.3007 69.8071L68.757 73.3393C69.1078 73.5543 69.5445 73.6761 70.0313 73.6761ZM67.7762 71.5911C67.7762 71.9924 67.8764 72.3649 68.0768 72.6658L70.7687 69.9576C70.4823 69.7211 70.0456 69.5564 69.6733 69.5564C68.5493 69.5564 67.7762 70.4949 67.7762 71.5911Z" fill="#10395A"/>
<path d="M81.6935 73.2892V74.3997C81.3427 74.6505 80.8845 74.7508 80.4478 74.7508C79.6889 74.7508 79.0876 74.2492 78.8871 73.454C78.4003 74.2779 77.5913 74.7293 76.632 74.7293C74.8995 74.7293 73.6538 73.2963 73.6538 71.5983C73.6538 69.9003 74.8995 68.4888 76.632 68.4888C77.5197 68.4888 78.2929 68.8757 78.8012 69.5993V68.6393H80.0254V72.7805C80.0254 73.2677 80.3118 73.6188 80.8129 73.6188C81.1494 73.6188 81.4358 73.5328 81.6863 73.282L81.6935 73.2892ZM78.8084 71.1326C78.6938 70.2943 77.8705 69.5349 76.8754 69.5349C75.7514 69.5349 74.878 70.4949 74.878 71.6055C74.878 72.716 75.7514 73.6761 76.8754 73.6761C77.8848 73.6761 78.6938 72.9166 78.8084 72.0783V71.1398V71.1326Z" fill="#10395A"/>
<path d="M92.7898 74.7365C91.7302 74.7365 91.1074 73.8624 91.1074 72.9023V70.9535C91.1074 70.1295 90.6707 69.542 89.8975 69.542C89.0098 69.542 88.4013 70.3301 88.3368 71.1541V74.586H87.1269V70.9535C87.1269 70.1295 86.6902 69.542 85.9171 69.542C85.0293 69.542 84.4208 70.3158 84.3707 71.1541V74.586H83.1465V68.6464H84.3707V69.5205C84.7215 68.8829 85.3658 68.496 86.139 68.496C86.9981 68.496 87.7355 68.933 88.0863 69.757C88.4084 68.9832 89.1458 68.496 90.0693 68.496C91.3938 68.496 92.3245 69.4561 92.3245 70.8532V72.7876C92.3245 73.2605 92.6251 73.6259 93.1979 73.6259C93.4699 73.6259 93.7491 73.5256 94.0068 73.2892V74.3854C93.656 74.6576 93.1979 74.7365 92.797 74.7365H92.7898Z" fill="#10395A"/>
</g>
<defs>
<clipPath id="clip0_163_38">
<rect width="85" height="61.33" fill="white" transform="translate(9 23)"/>
</clipPath>
</defs>
</svg>
