<svg width="21" height="21" viewBox="0 0 21 21" fill="none" xmlns="http://www.w3.org/2000/svg">
<path d="M18.2666 8.77154L13.7046 4.12421L10.7449 1.10917C10.6021 0.963611 10.3571 0.963611 10.2142 1.10917L7.25454 4.12421L2.69253 8.77154L0.110449 11.4019C-0.124286 11.641 0.0390079 12.0569 0.375801 12.0569H2.32512C2.52923 12.0569 2.70273 12.2233 2.70273 12.4416V19.6153C2.70273 19.8233 2.86603 20 3.08035 20H8.67315C8.87727 20 9.05077 19.8336 9.05077 19.6153V14.8016C9.05077 14.5937 9.21406 14.417 9.42839 14.417H11.5716C11.7757 14.417 11.9492 14.5833 11.9492 14.8016V19.6153C11.9492 19.8233 12.1125 20 12.3268 20H17.9197C18.1238 20 18.2973 19.8336 18.2973 19.6153V12.4416C18.2973 12.2336 18.4606 12.0569 18.6749 12.0569H20.6242C20.961 12.0569 21.1243 11.641 20.8896 11.4019L18.3075 8.77154H18.2666Z" fill="#3C3C3C"/>
</svg>
