<svg width="22" height="17" viewBox="0 0 22 17" fill="none" xmlns="http://www.w3.org/2000/svg">
<g clip-path="url(#clip0_1_11)">
<path d="M14.76 5.65H14.24V9.52H14.76C14.8291 9.52133 14.8978 9.50886 14.9621 9.48332C15.0263 9.45779 15.0848 9.41969 15.1342 9.37128C15.1835 9.32286 15.2227 9.26508 15.2495 9.20133C15.2762 9.13758 15.29 9.06914 15.29 9V6.17C15.29 6.10086 15.2762 6.03242 15.2495 5.96867C15.2227 5.90492 15.1835 5.84714 15.1342 5.79872C15.0848 5.7503 15.0263 5.71221 14.9621 5.68667C14.8978 5.66114 14.8291 5.64867 14.76 5.65Z" fill="#909090"/>
<path d="M13.41 0.529999C13.4189 0.419265 13.3929 0.308521 13.3354 0.213417C13.278 0.118313 13.1922 0.0436575 13.09 -9.08971e-07C12.9931 -0.0399405 12.8866 -0.0508068 12.7836 -0.0312739C12.6806 -0.0117411 12.5856 0.0373464 12.51 0.109999C10.9164 1.80267 9.00282 3.16226 6.88 4.11C6.45532 4.29253 6.0214 4.45275 5.58 4.59V10.59C6.87 10.9 9.39 11.88 12.51 15C12.6111 15.1006 12.7474 15.158 12.89 15.16C13.0288 15.1574 13.1611 15.1004 13.2583 15.0013C13.3556 14.9022 13.41 14.7688 13.41 14.63V0.529999Z" fill="#909090"/>
<path d="M4.74 4.61H0.550003C0.400576 4.61522 0.259185 4.67895 0.156303 4.78744C0.0534213 4.89593 -0.00271182 5.04051 2.49382e-06 5.19V10.6H4.74V4.6V4.61Z" fill="#909090"/>
<path d="M4.77001 11.35H0.710007L2.54001 15.76C2.58056 15.854 2.64747 15.9342 2.73265 15.991C2.81784 16.0478 2.91764 16.0787 3.02001 16.08H5.94001C6.00913 16.0813 6.07783 16.0689 6.14207 16.0433C6.20632 16.0178 6.26483 15.9797 6.31418 15.9313C6.36353 15.8829 6.40273 15.8251 6.42949 15.7613C6.45625 15.6976 6.47002 15.6291 6.47001 15.56C6.47132 15.4761 6.45063 15.3934 6.41001 15.32L4.77001 11.35Z" fill="#909090"/>
<path d="M16.46 4.24C16.3599 4.34112 16.3037 4.47768 16.3037 4.62C16.3037 4.76232 16.3599 4.89888 16.46 5C17.1445 5.68614 17.529 6.61578 17.529 7.585C17.529 8.55422 17.1445 9.48386 16.46 10.17C16.3852 10.2455 16.3344 10.3414 16.3138 10.4457C16.2933 10.5499 16.304 10.6579 16.3446 10.7562C16.3851 10.8544 16.4538 10.9385 16.5419 10.9978C16.63 11.0572 16.7337 11.0893 16.84 11.09C16.9124 11.0908 16.9843 11.0771 17.0513 11.0496C17.1183 11.0221 17.179 10.9815 17.23 10.93C18.1148 10.0416 18.6116 8.83885 18.6116 7.585C18.6116 6.33115 18.1148 5.12837 17.23 4.24C17.1805 4.18765 17.1208 4.14594 17.0546 4.11744C16.9884 4.08894 16.9171 4.07425 16.845 4.07425C16.7729 4.07425 16.7016 4.08894 16.6354 4.11744C16.5692 4.14594 16.5095 4.18765 16.46 4.24Z" fill="#909090"/>
<path d="M19.63 1.84C19.5272 1.73922 19.389 1.68278 19.245 1.68278C19.101 1.68278 18.9628 1.73922 18.86 1.84C18.7599 1.94112 18.7037 2.07768 18.7037 2.22C18.7037 2.36232 18.7599 2.49888 18.86 2.6C19.5179 3.25587 20.04 4.03514 20.3961 4.89314C20.7523 5.75114 20.9357 6.671 20.9357 7.6C20.9357 8.52899 20.7523 9.44886 20.3961 10.3069C20.04 11.1649 19.5179 11.9441 18.86 12.6C18.7592 12.7028 18.7028 12.841 18.7028 12.985C18.7028 13.129 18.7592 13.2672 18.86 13.37C18.9094 13.4208 18.9685 13.4612 19.0337 13.4888C19.099 13.5163 19.1691 13.5305 19.24 13.5305C19.3109 13.5305 19.381 13.5163 19.4463 13.4888C19.5115 13.4612 19.5706 13.4208 19.62 13.37C20.3793 12.6145 20.982 11.7165 21.3935 10.7276C21.8051 9.73864 22.0174 8.67821 22.0183 7.60707C22.0193 6.53594 21.8088 5.47514 21.3989 4.48551C20.9891 3.49588 20.388 2.59686 19.63 1.84Z" fill="#909090"/>
</g>
<defs>
<clipPath id="clip0_1_11">
<rect width="22" height="16.08" fill="white"/>
</clipPath>
</defs>
</svg>
