<svg width="35" height="35" viewBox="0 0 35 35" fill="none" xmlns="http://www.w3.org/2000/svg">
<path d="M22.2285 17.2696C22.1433 17.2283 22.0569 17.1886 21.9693 17.1505C21.8168 14.3061 20.2812 12.6776 17.7027 12.6609C17.6911 12.6609 17.6794 12.6609 17.6678 12.6609C16.1255 12.6609 14.8428 13.3272 14.0534 14.5397L15.4714 15.5243C16.0612 14.6186 16.9868 14.4255 17.6684 14.4255C17.6763 14.4255 17.6842 14.4255 17.692 14.4256C18.541 14.4311 19.1816 14.6809 19.5963 15.1681C19.898 15.5228 20.0999 16.013 20.1998 16.6316C19.4471 16.5022 18.633 16.4623 17.7627 16.5128C15.3113 16.6558 13.7353 18.1029 13.8411 20.1137C13.8948 21.1337 14.3969 22.0112 15.2547 22.5845C15.98 23.0691 16.9141 23.306 17.8849 23.2524C19.167 23.1812 20.1728 22.6861 20.8745 21.7808C21.4074 21.0933 21.7444 20.2024 21.8933 19.0798C22.5043 19.453 22.9571 19.9442 23.2072 20.5346C23.6324 21.5382 23.6572 23.1875 22.3277 24.5321C21.1628 25.71 19.7625 26.2196 17.6463 26.2353C15.2989 26.2177 13.5235 25.4557 12.3693 23.9705C11.2884 22.5798 10.7298 20.571 10.7089 18C10.7298 15.4289 11.2884 13.4202 12.3693 12.0294C13.5235 10.5443 15.2988 9.78229 17.6463 9.76464C20.0107 9.78243 21.817 10.5481 23.0154 12.0404C23.6031 12.7722 24.0461 13.6926 24.3382 14.7657L26 14.3169C25.646 12.9961 25.0889 11.8579 24.3308 10.914C22.7944 9.0007 20.5473 8.02033 17.6521 8H17.6405C14.7511 8.02026 12.5292 9.00435 11.0365 10.9249C9.70825 12.634 9.02309 15.0121 9.00007 17.993L9 18L9.00007 18.007C9.02309 20.9879 9.70825 23.366 11.0365 25.0751C12.5292 26.9956 14.7511 27.9798 17.6405 28H17.6521C20.2209 27.982 22.0316 27.3013 23.5232 25.7928C25.4748 23.8194 25.4161 21.3457 24.7728 19.8272C24.3114 18.7382 23.4315 17.8538 22.2285 17.2696ZM17.7932 21.4903C16.7187 21.5516 15.6025 21.0634 15.5474 20.0179C15.5066 19.2427 16.0925 18.3777 17.8591 18.2747C18.0614 18.2629 18.2599 18.2571 18.455 18.2571C19.0966 18.2571 19.6969 18.3202 20.2427 18.4409C20.0391 21.0141 18.8451 21.4319 17.7932 21.4903Z" fill="#1E1E1E"/>
</svg>
