<?xml version="1.0" encoding="UTF-8"?>
<svg id="_圖層_1" data-name="圖層 1" xmlns="http://www.w3.org/2000/svg" viewBox="0 0 33.62 29.86">
  <defs>
    <style>
      .cls-1 {
        fill: #dfdddd;
      }
    </style>
  </defs>
  <path class="cls-1" d="M32.87,13.48c-1.51,3.66-10.37,11.56-14.75,15.32-.45.39-.85.73-1.19,1.02-.07.06-.16.06-.23,0-.34-.29-.74-.63-1.19-1.02C11.12,25.04,2.26,17.14.76,13.48-1.26,8.58.9,2.9,5.57.79c4.08-1.84,8.73-.36,11.18,3.3.03.04.08.04.11,0C19.32.43,23.97-1.05,28.05.79c4.68,2.11,6.83,7.79,4.82,12.69Z"/>
</svg>