<svg id="圖層_1" data-name="圖層 1" xmlns="http://www.w3.org/2000/svg" viewBox="0 0 147 186"><defs><style>.cls-1{fill:#fff;}.cls-10,.cls-11,.cls-12,.cls-2,.cls-3,.cls-4,.cls-5,.cls-6,.cls-7,.cls-8,.cls-9{fill:#797a7c;}.cls-3{opacity:0.95;}.cls-4{opacity:0.8;}.cls-5{opacity:0.85;}.cls-6{opacity:0.7;}.cls-7{opacity:0.65;}.cls-8{opacity:0.5;}.cls-9{opacity:0.45;}.cls-10{opacity:0.4;}.cls-11{opacity:0.35;}.cls-12{opacity:0.3;}</style></defs><path class="cls-1" d="M42.55,113.09V101.67h1.33V111.9H49v1.19Z"/><path class="cls-1" d="M58.89,108.79a6.07,6.07,0,0,1-.27,1.89,4.06,4.06,0,0,1-.79,1.4,3.44,3.44,0,0,1-1.25.87,4.33,4.33,0,0,1-1.65.3,4,4,0,0,1-1.58-.3,3.54,3.54,0,0,1-1.23-.87,3.94,3.94,0,0,1-.81-1.4,5.78,5.78,0,0,1-.28-1.89,5.45,5.45,0,0,1,.48-2.39,3.39,3.39,0,0,1,1.36-1.51,4.15,4.15,0,0,1,2.11-.52,3.91,3.91,0,0,1,2.05.53,3.42,3.42,0,0,1,1.37,1.51A5.26,5.26,0,0,1,58.89,108.79Zm-6.52,0a5.06,5.06,0,0,0,.28,1.79,2.41,2.41,0,0,0,.84,1.18,2.82,2.82,0,0,0,2.93,0,2.37,2.37,0,0,0,.85-1.18,5.3,5.3,0,0,0,.28-1.79,5.12,5.12,0,0,0-.28-1.76,2.36,2.36,0,0,0-.84-1.16,2.49,2.49,0,0,0-1.48-.4,2.23,2.23,0,0,0-2,.88A4.21,4.21,0,0,0,52.37,108.79Z"/><path class="cls-1" d="M65.13,104.39a3.26,3.26,0,0,1,2.28.69,2.87,2.87,0,0,1,.74,2.19v5.82h-1L67,111.83h-.06a4.67,4.67,0,0,1-.75.78,2.78,2.78,0,0,1-.9.48,4.47,4.47,0,0,1-1.25.16A3.23,3.23,0,0,1,62.6,113a2.11,2.11,0,0,1-1-.82,2.54,2.54,0,0,1-.35-1.41,2.26,2.26,0,0,1,1-2,5.89,5.89,0,0,1,3.1-.75l1.47-.06v-.52a2.08,2.08,0,0,0-.47-1.56,1.89,1.89,0,0,0-1.35-.44,4.22,4.22,0,0,0-1.28.19,8.36,8.36,0,0,0-1.15.46l-.4-1a6.84,6.84,0,0,1,1.33-.51A5.78,5.78,0,0,1,65.13,104.39Zm1.74,4.48-1.31.06a4.33,4.33,0,0,0-2.25.52,1.5,1.5,0,0,0-.66,1.31,1.29,1.29,0,0,0,.45,1.08,1.8,1.8,0,0,0,1.18.35,2.72,2.72,0,0,0,1.86-.63,2.36,2.36,0,0,0,.73-1.9Z"/><path class="cls-1" d="M74.67,113.25a3.24,3.24,0,0,1-2.58-1.11,5,5,0,0,1-.94-3.3,5,5,0,0,1,1-3.34,3.25,3.25,0,0,1,2.58-1.13,3.55,3.55,0,0,1,1.19.18,2.8,2.8,0,0,1,.87.48,2.9,2.9,0,0,1,.62.69h.1a6.64,6.64,0,0,1-.07-.67c0-.28,0-.51,0-.68v-3.43h1.3v12.15h-1l-.19-1.22h-.06a2.87,2.87,0,0,1-.61.7,2.78,2.78,0,0,1-.88.49A3.45,3.45,0,0,1,74.67,113.25Zm.2-1.08a2.26,2.26,0,0,0,1.95-.78,3.93,3.93,0,0,0,.57-2.32v-.24a4.66,4.66,0,0,0-.55-2.5,2.11,2.11,0,0,0-2-.88,2,2,0,0,0-1.79.92,4.62,4.62,0,0,0-.59,2.5,4.31,4.31,0,0,0,.59,2.44A2,2,0,0,0,74.87,112.17Z"/><path class="cls-1" d="M82.88,101.33a.85.85,0,0,1,.55.2.86.86,0,0,1,.23.65.85.85,0,0,1-.23.64.81.81,0,0,1-.55.21.78.78,0,0,1-.56-.21.85.85,0,0,1-.23-.64.86.86,0,0,1,.23-.65A.82.82,0,0,1,82.88,101.33Zm.63,3.2v8.56h-1.3v-8.56Z"/><path class="cls-1" d="M91.1,104.37a2.72,2.72,0,0,1,3.09,3.14v5.58H92.91V107.6a2.27,2.27,0,0,0-.49-1.6,1.9,1.9,0,0,0-1.49-.53,2.3,2.3,0,0,0-2,.8,4,4,0,0,0-.58,2.34v4.48h-1.3v-8.56h1l.19,1.23h.07a2.67,2.67,0,0,1,.7-.76,3.31,3.31,0,0,1,.94-.47A4,4,0,0,1,91.1,104.37Z"/><path class="cls-1" d="M100.05,116.94a4.56,4.56,0,0,1-2.6-.63,2,2,0,0,1-.91-1.77,2,2,0,0,1,.51-1.37,2.54,2.54,0,0,1,1.42-.76,1.46,1.46,0,0,1-.58-.47,1.14,1.14,0,0,1-.24-.72,1.32,1.32,0,0,1,.27-.82,2.66,2.66,0,0,1,.8-.68,2.33,2.33,0,0,1-1.09-.93,2.73,2.73,0,0,1-.42-1.52,3.09,3.09,0,0,1,.38-1.57,2.51,2.51,0,0,1,1.11-1,4.09,4.09,0,0,1,1.76-.34,3.62,3.62,0,0,1,.46,0l.44.05a2.45,2.45,0,0,1,.36.08h2.94v.84l-1.58.19a2.59,2.59,0,0,1,.39.74,2.63,2.63,0,0,1,.16,1,2.57,2.57,0,0,1-.87,2,3.5,3.5,0,0,1-2.38.75,4.59,4.59,0,0,1-.73-.06,1.94,1.94,0,0,0-.59.47,1,1,0,0,0-.19.59.54.54,0,0,0,.15.4.86.86,0,0,0,.44.21,2.77,2.77,0,0,0,.69.07h1.51a3.44,3.44,0,0,1,2.15.59,2.06,2.06,0,0,1,.74,1.71,2.45,2.45,0,0,1-1.15,2.18A6.17,6.17,0,0,1,100.05,116.94Zm0-1a5.81,5.81,0,0,0,1.76-.22,2.14,2.14,0,0,0,1.05-.61,1.44,1.44,0,0,0,.35-1,1.14,1.14,0,0,0-.24-.78,1.2,1.2,0,0,0-.68-.35,5.93,5.93,0,0,0-1.11-.09H99.73a2.64,2.64,0,0,0-1,.18,1.51,1.51,0,0,0-.66.53,1.62,1.62,0,0,0-.23.88,1.19,1.19,0,0,0,.59,1.06A3.21,3.21,0,0,0,100.09,115.92Zm.34-6.84a1.92,1.92,0,0,0,1.4-.47,1.88,1.88,0,0,0,.47-1.37,2,2,0,0,0-.48-1.44,1.91,1.91,0,0,0-1.41-.48,1.82,1.82,0,0,0-1.37.49,2,2,0,0,0-.48,1.45,1.78,1.78,0,0,0,.49,1.35A1.91,1.91,0,0,0,100.43,109.08Z"/><circle class="cls-2" cx="73.39" cy="54.65" r="3.39"/><circle class="cls-3" cx="81.92" cy="57.27" r="3.08"/><circle class="cls-4" cx="87.74" cy="64.07" r="2.94"/><circle class="cls-5" cx="88.87" cy="73.11" r="2.7"/><circle class="cls-6" cx="85" cy="81.18" r="2.45"/><circle class="cls-7" cx="77.18" cy="85.83" r="2.19"/><circle class="cls-8" cx="68.33" cy="85.34" r="2.06"/><circle class="cls-9" cx="60.84" cy="80.06" r="1.77"/><circle class="cls-10" cx="57.7" cy="71.71" r="1.51"/><circle class="cls-11" cx="59.65" cy="62.89" r="1.29"/><circle class="cls-12" cx="66.01" cy="56.53" r="1.06"/></svg>