<svg width="21" height="26" viewBox="0 0 21 26" fill="none" xmlns="http://www.w3.org/2000/svg">
<path d="M14.6722 12.3427C14.5971 12.3055 14.5208 12.2697 14.4435 12.2355C14.3089 9.67546 12.954 8.20984 10.6789 8.19484C10.6686 8.19478 10.6583 8.19478 10.648 8.19478C9.28721 8.19478 8.15544 8.79446 7.45885 9.88569L8.71009 10.7718C9.23047 9.95672 10.0472 9.78295 10.6486 9.78295C10.6556 9.78295 10.6625 9.78295 10.6694 9.78302C11.4185 9.78795 11.9838 10.0128 12.3497 10.4513C12.6159 10.7706 12.794 11.2117 12.8822 11.7685C12.218 11.6519 11.4997 11.6161 10.7318 11.6616C8.56876 11.7902 7.17817 13.0926 7.27156 14.9024C7.31896 15.8204 7.76194 16.6101 8.51885 17.126C9.1588 17.5622 9.98303 17.7754 10.8396 17.7272C11.9709 17.6631 12.8584 17.2175 13.4775 16.4028C13.9477 15.784 14.2451 14.9822 14.3764 13.9718C14.9155 14.3077 15.3151 14.7498 15.5357 15.2811C15.911 16.1844 15.9329 17.6687 14.7597 18.8789C13.7319 19.939 12.4963 20.3976 10.6291 20.4118C8.55782 20.3959 6.99135 19.7102 5.97288 18.3735C5.01916 17.1218 4.52627 15.3139 4.50788 13C4.52627 10.686 5.01916 8.87815 5.97288 7.6265C6.99135 6.28983 8.55779 5.60406 10.6291 5.58817C12.7153 5.60418 14.3091 6.29326 15.3666 7.63637C15.8851 8.29502 16.276 9.12333 16.5337 10.0891L18 9.68521C17.6876 8.49646 17.1961 7.4721 16.5272 6.62256C15.1715 4.90063 13.1888 4.0183 10.6342 4H10.6239C8.07449 4.01823 6.11399 4.90392 4.79693 6.63243C3.62493 8.1706 3.02038 10.3108 3.00006 12.9937L3 13L3.00006 13.0063C3.02038 15.6891 3.62493 17.8294 4.79693 19.3676C6.11399 21.0961 8.07449 21.9818 10.6239 22H10.6342C12.9008 21.9838 14.4984 21.3711 15.8146 20.0135C17.5366 18.2374 17.4848 16.0112 16.9172 14.6445C16.51 13.6644 15.7337 12.8684 14.6722 12.3427ZM10.7587 16.1413C9.81063 16.1964 8.82572 15.7571 8.77716 14.8161C8.74116 14.1184 9.25809 13.3399 10.8168 13.2472C10.9954 13.2366 11.1705 13.2314 11.3426 13.2314C11.9088 13.2314 12.4385 13.2882 12.92 13.3968C12.7404 15.7127 11.6869 16.0887 10.7587 16.1413Z" fill="white"/>
</svg>
