<?xml version="1.0" encoding="utf-8"?>
<!-- Generator: Adobe Illustrator 23.1.1, SVG Export Plug-In . SVG Version: 6.00 Build 0)  -->
<svg version="1.1" id="Capa_1" xmlns="http://www.w3.org/2000/svg" xmlns:xlink="http://www.w3.org/1999/xlink" x="0px" y="0px"
	 viewBox="0 0 172.5 77.4" style="enable-background:new 0 0 172.5 77.4;" xml:space="preserve">
<style type="text/css">
	.st0{fill:#FFD2B3;}
	.st1{fill:#FC5E5E;}
	.st2{fill:#2980BA;}
	.st3{fill:#3B97D3;}
	.st4{fill:#84B5CB;}
	.st5{fill:#547580;}
	.st6{fill:#FFFFFF;}
	.st7{fill:#CECECE;}
	.st8{fill:#295EB2;}
	.st9{fill:#F44336;}
	.st10{fill:#FFC107;}
	.st11{fill:#4CAF50;}
	.st12{fill:#2196F3;}
	.st13{fill:#FAFAFA;}
	.st14{fill:#3FA0E1;}
	.st15{fill:#2568BD;}
	.st16{fill:#FF9842;}
	.st17{fill:#FF8322;}
	.st18{fill:#FFD664;}
	.st19{fill:#DDB200;}
	.st20{fill:#D1E7F8;}
	.st21{fill:#FFDA44;}
	.st22{fill:#FFCD00;}
	.st23{opacity:0.742;}
	.st24{fill:#FCFCFC;}
	.st25{clip-path:url(#SVGID_2_);}
	.st26{fill:#485160;}
	.st27{clip-path:url(#SVGID_4_);}
	.st28{fill:#D1F2AF;}
</style>
<g id="Page-1" transform="translate(85.326 12.439)">
	<g id="Group_33" transform="translate(0)">
		<path id="Shape" class="st2" d="M87.1,2.6v47.2h-87V2.6C0,1.2,1.4,0.1,3.1,0h81C85.8,0.1,87.2,1.2,87.1,2.6z"/>
		<path id="Path_35" class="st3" d="M76.7,0C75.6,6.9,69,41.5,0.1,42V2.6C0,1.2,1.4,0.1,3.1,0H76.7z"/>
		<path id="Path_36" class="st4" d="M87.1,49.8v4.5c0.1,1.4-1.3,2.5-3,2.6h-81c-1.7-0.1-3.1-1.2-3-2.6v-4.5H87.1z"/>
		<path id="Path_37" class="st5" d="M46.4,61.9H37l1.3-5h6.8L46.4,61.9z"/>
		<path id="Path_38" class="st4" d="M56.8,63.4c-0.1,0.9-0.9,1.6-1.8,1.5H28.4c-0.8,0.1-1.6-0.4-1.8-1.3c-0.1-0.8,0.4-1.6,1.3-1.8
			c0.2,0,0.3,0,0.5,0H55C55.9,61.8,56.7,62.5,56.8,63.4z"/>
		<g id="Group_32" transform="translate(2.689 2.271)">
			<path id="Path_39" class="st6" d="M1.3,7.1c-0.5,0-0.9-0.3-1.1-0.7C0,6,0.1,5.4,0.4,5.1l4.7-4.7C5.5,0.1,5.9-0.1,6.3,0
				c0.4,0.1,0.7,0.4,0.8,0.8c0.1,0.4,0,0.9-0.3,1.2L2.1,6.8C1.9,7,1.6,7.1,1.3,7.1z"/>
			<path id="Path_40" class="st6" d="M1.3,14.2c-0.5,0-0.9-0.3-1.1-0.7c-0.2-0.4-0.1-1,0.3-1.3L12.3,0.4C12.6,0.1,13-0.1,13.4,0
				c0.4,0.1,0.7,0.4,0.8,0.8c0.1,0.4,0,0.9-0.3,1.2L2.1,13.9C1.9,14.1,1.6,14.2,1.3,14.2z"/>
		</g>
		<rect id="Rectangle_386" x="0.1" y="46.1" class="st7" width="87" height="3.7"/>
		<path id="Path_41" class="st8" d="M50,22.7h10.1c0.3,0,0.6-0.3,0.6-0.6c0,0,0,0,0,0V9.8c0-0.2-0.1-0.4-0.2-0.5
			c-0.1-0.1-0.3-0.2-0.5-0.1l-10.1,2.2c-0.3,0.1-0.5,0.3-0.5,0.6v10.2C49.3,22.5,49.6,22.7,50,22.7C50,22.7,50,22.7,50,22.7z"/>
		<path id="Path_42" class="st8" d="M63.8,39.6l12.8,2.8c0,0,0.1,0,0.1,0c0.1,0,0.3,0,0.4-0.1c0.1-0.1,0.2-0.3,0.2-0.5V26
			c0-0.3-0.3-0.6-0.6-0.6H64c-0.3,0-0.6,0.3-0.6,0.6V39C63.4,39.3,63.6,39.5,63.8,39.6z"/>
		<path id="Path_43" class="st8" d="M64,22.8h12.8c0.3,0,0.6-0.3,0.6-0.6V6.5c0-0.2-0.1-0.4-0.2-0.5c-0.1-0.1-0.3-0.2-0.5-0.1
			L63.8,8.6c-0.3,0.1-0.5,0.3-0.5,0.6v12.9C63.4,22.5,63.6,22.7,64,22.8z"/>
		<path id="Path_44" class="st8" d="M49.8,36.8L59.9,39c0,0,0.1,0,0.1,0c0.1,0,0.3,0,0.4-0.1c0.1-0.1,0.2-0.3,0.2-0.5V26
			c0-0.3-0.3-0.6-0.6-0.6l0,0H50c-0.3,0-0.6,0.3-0.6,0.6v0v10.2C49.4,36.5,49.6,36.8,49.8,36.8z"/>
	</g>
	<g id="Group_34" transform="translate(3.053 17.394)">
		<path id="Path_45" class="st9" d="M5.6,1.8H2.9c-0.6,0-1.1,0.5-1.1,1.1c0,0.2,0,0.4,0.1,0.5L0.7,1.1c1-1.2,2.8-1.5,4-0.5
			C5.1,0.9,5.4,1.3,5.6,1.8z"/>
		<path id="Path_46" class="st10" d="M5.8,2.9c0,1.6-1.3,2.9-2.9,2.9c-0.1,0-0.2,0-0.4,0l1.3-2.3C4.2,2.9,4,2.2,3.5,1.9
			C3.3,1.8,3.1,1.8,3,1.8h2.7C5.7,2.1,5.8,2.5,5.8,2.9z"/>
		<path id="Path_47" class="st11" d="M3.9,3.4L2.6,5.7l0,0C1,5.5-0.1,4.1,0.1,2.5c0,0,0,0,0,0c0.1-0.5,0.3-1,0.6-1.4L2,3.4l0,0
			c0.3,0.5,1,0.7,1.5,0.4C3.6,3.7,3.8,3.6,3.9,3.4z"/>
		<path id="Path_48" class="st9" d="M3.9,3.4c-0.3,0.5-1,0.7-1.5,0.4C2.3,3.7,2.1,3.6,2,3.4l0,0C1.7,2.9,1.9,2.2,2.4,1.9
			c0,0,0,0,0,0C2.6,1.8,2.8,1.8,3,1.8l0,0C3.5,1.8,4,2.3,4,2.9C4,3.1,4,3.2,3.9,3.4L3.9,3.4z"/>
		<path id="Path_49" class="st12" d="M3.9,3.4c-0.3,0.5-1,0.7-1.5,0.4C2.3,3.7,2.1,3.6,2,3.4l0,0C1.7,2.9,1.9,2.2,2.4,1.9
			c0,0,0,0,0,0C2.6,1.8,2.8,1.8,3,1.8l0,0C3.5,1.8,4,2.3,4,2.9C4,3.1,4,3.2,3.9,3.4L3.9,3.4z"/>
		<path id="Path_50" class="st13" d="M2.9,4.1C2.7,4.1,2.5,4,2.3,3.9C1.8,3.6,1.6,2.9,1.9,2.3C2,2.1,2.2,1.9,2.3,1.8
			C2.9,1.5,3.7,1.7,4,2.3c0.2,0.4,0.2,0.8,0,1.2l0,0C3.8,3.8,3.4,4.1,2.9,4.1z M2.9,1.9c-0.5,0-1,0.4-1,0.9s0.4,1,0.9,1
			c0.3,0,0.7-0.2,0.8-0.5l0,0c0.3-0.5,0.1-1-0.3-1.3c0,0,0,0,0,0C3.3,2,3.1,1.9,2.9,1.9L2.9,1.9z"/>
	</g>
	<g id="Group_36" transform="translate(3.318 25.059)">
		<path id="Path_51" class="st14" d="M3.2,6.1c-1.7,0-3.1-1.4-3.1-3.1S1.5,0,3.2,0c1.7,0,3.1,1.4,3.1,3.1l0,0
			C6.2,4.8,4.9,6.1,3.2,6.1C3.2,6.1,3.2,6.1,3.2,6.1z"/>
		<path id="Path_52" class="st15" d="M3.2,0v6.1c1.7,0,3.1-1.3,3.1-3C6.3,1.4,5,0,3.3,0C3.2,0,3.2,0,3.2,0z"/>
		<path id="Path_53" class="st16" d="M3.2,0H3C4.1,0.6,4.9,1.7,5,3c0.1,1.2-0.6,2.4-3.2,2.9C2.3,6,2.7,6.1,3.2,6.1
			c1.7,0,3.1-1.4,3.1-3.1C6.2,1.4,4.8,0,3.2,0L3.2,0z"/>
		<path id="Path_54" class="st17" d="M3.2,0L3.2,0c1,0.7,1.7,1.8,1.9,3c0.1,1.2-0.7,2.2-1.9,2.5v0.6c1.7,0,3.1-1.3,3.1-3
			C6.3,1.4,5,0,3.3,0C3.2,0,3.2,0,3.2,0z"/>
		<g id="Group_35" transform="translate(0)">
			<path id="Path_55" class="st16" d="M1.3,1.1l-0.9-1C0.4,0,0.3,0,0.2,0C0.1,0,0.1,0.1,0.1,0.2v2.9c0,0.1,0.1,0.2,0.2,0.2
				c0.1,0,0.2-0.1,0.2-0.2c0-0.5,0.2-1,0.4-1.5L1.3,1.1z"/>
			<path id="Path_56" class="st16" d="M2,4c0,0-0.1,0-0.1-0.1C1.6,3.6,1.4,3.2,1.4,2.7c0-0.1,0.1-0.2,0.2-0.2c0,0,0.1,0,0.1,0.1
				C2,2.8,2.3,2.9,2.6,2.8c0.5-0.1,1.1,0,1.4,0.5c0.1,0.1,0.1,0.3,0,0.4C4,3.8,3.8,3.8,3.6,3.8C3.4,3.7,3.1,3.7,2.9,3.9
				C2.6,4,2.3,4.1,2,4z"/>
		</g>
		<path id="Path_57" class="st18" d="M6.1,2.2C5.5,5.5,1.9,4.9,1.8,2.8l1-0.6c0.1,0,0.1-0.1,0.1-0.2V1.8c0-0.1,0-0.1-0.1-0.2
			L2.1,1.3V0.2C2.1,0.1,2,0,1.9,0C1.9,0,1.8,0,1.7,0.1L0.9,1c-1.2,1.2-1.1,3.2,0.1,4.3c0.6,0.5,1.3,0.8,2.1,0.8
			c0.8,0,1.6-0.3,2.2-0.9C6.1,4.4,6.4,3.3,6.1,2.2z"/>
		<path id="Path_58" class="st17" d="M4,3.3C3.8,3,3.5,2.8,3.1,2.8v1c0.2,0,0.3,0,0.5,0c0.1,0,0.3,0,0.4-0.1C4.1,3.5,4.1,3.4,4,3.3z
			"/>
		<path id="Path_59" class="st16" d="M6.1,2.2c-0.3,2-1.8,2.5-2.9,2.2v1.7c0.8,0,1.6-0.3,2.2-0.9C6.1,4.4,6.4,3.3,6.1,2.2z"/>
	</g>
	<g id="Folder" transform="translate(3.587 32.992)">
		<path id="Path_60" class="st19" d="M5,1.8V1c0-0.2-0.2-0.4-0.4-0.4H2.8c-0.1,0-0.2,0-0.3-0.1L2.1,0.1C2.1,0,2,0,1.9,0H0.5
			C0.3,0,0.1,0.2,0.1,0.4v4.1H5L5,1.8L5,1.8z"/>
		<path id="Path_61" class="st20" d="M4.2,1.2H0.9c-0.1,0-0.2,0.1-0.2,0.2v1.5L1,2C1,1.9,1.2,1.8,1.3,1.8h3V1.4
			C4.4,1.3,4.3,1.2,4.2,1.2z"/>
		<path id="Path_62" class="st21" d="M5.4,1.8H1.3C1.2,1.8,1,1.9,1,2L0.7,2.9L0.1,4.5v0.2c0,0.2,0.2,0.4,0.4,0.4h4
			c0.2,0,0.3-0.1,0.4-0.3l0.9-2.6c0.1-0.2,0-0.4-0.2-0.5C5.5,1.8,5.4,1.8,5.4,1.8L5.4,1.8z"/>
		<path id="Path_63" class="st22" d="M5.4,1.8H5c0,0,0,0,0,0L4.1,4.4C4,4.5,3.9,4.6,3.7,4.6H0.1v0.1c0,0.2,0.2,0.4,0.4,0.4h4
			c0.2,0,0.3-0.1,0.4-0.3l0.9-2.6c0.1-0.2,0-0.4-0.2-0.5C5.5,1.8,5.5,1.8,5.4,1.8L5.4,1.8z"/>
	</g>
</g>
<g id="Folder-2">
	<path id="Path_64" class="st19" d="M43.2,15.5V8.6c0-1.9-1.5-3.5-3.5-3.5H24c-0.9,0-1.8-0.4-2.4-1L18.4,1c-0.6-0.6-1.5-1-2.4-1H3.5
		C1.6,0,0.1,1.5,0.1,3.5l0,0v36.3h43.2V15.5z"/>
	<path id="Path_65" class="st20" d="M36.3,10.4H7c-1,0-1.7,0.8-1.7,1.7v13.1l2.6-7.4c0.5-1.4,1.8-2.3,3.3-2.3h26.9v-3.5
		C38.1,11.1,37.3,10.4,36.3,10.4z"/>
	<path id="Path_66" class="st21" d="M47,15.5H11.2c-1.5,0-2.8,0.9-3.3,2.3l-2.6,7.4L0.1,39.7v1.7c0,1.9,1.5,3.5,3.5,3.5h35.5
		c1.5,0,2.8-0.9,3.3-2.3l7.9-22.5c0.6-1.8-0.3-3.8-2.1-4.4C47.8,15.6,47.4,15.5,47,15.5z"/>
	<path id="Path_67" class="st22" d="M47,15.5h-3.6c0,0.1,0,0.2-0.1,0.3l-7.9,22.4c-0.5,1.4-1.8,2.3-3.3,2.3H0.1v0.9
		c0,1.9,1.5,3.5,3.5,3.5h35.5c1.5,0,2.8-0.9,3.3-2.3l7.9-22.5c0.6-1.8-0.3-3.8-2.1-4.4C47.8,15.6,47.4,15.5,47,15.5z"/>
</g>
<g>
	<g id="reply_1_">
		<path class="st28" d="M73,22.6l2.9-5l4.1,14L65.9,35l2.9-5.1c-6.5-3.7-12.2-4.4-18-1.9C55.7,22.5,63.2,18.6,73,22.6z"/>
	</g>
</g>
</svg>
