<svg xmlns="http://www.w3.org/2000/svg" xmlns:xlink="http://www.w3.org/1999/xlink" width="48" height="38" viewBox="0 0 48 38">
  <defs>
    <clipPath id="clip-path">
      <rect id="Rectangle_736" data-name="Rectangle 736" width="48" height="38" transform="translate(695 1513)" fill="#ccc" stroke="#707070" stroke-width="1"/>
    </clipPath>
  </defs>
  <g id="Mask_Group_80" data-name="Mask Group 80" transform="translate(-695 -1513)" clip-path="url(#clip-path)">
    <g id="elevator" transform="translate(700 1513)">
      <g id="Group_399" data-name="Group 399">
        <g id="Group_398" data-name="Group 398">
          <path id="Path_458" data-name="Path 458" d="M37.174,0H.826A.826.826,0,0,0,0,.826V37.174A.826.826,0,0,0,.826,38H7.435a.826.826,0,0,0,.826-.826v-.826H29.739v.826a.826.826,0,0,0,.826.826h6.609A.826.826,0,0,0,38,37.174V.826A.826.826,0,0,0,37.174,0Zm-.826,36.348H31.391v-.826a.826.826,0,0,0-.826-.826H7.435a.826.826,0,0,0-.826.826v.826H1.652V1.652h34.7Z" fill="#ccc"/>
        </g>
      </g>
      <g id="Group_401" data-name="Group 401">
        <g id="Group_400" data-name="Group 400">
          <path id="Path_459" data-name="Path 459" d="M30.565,8.261H7.435a.826.826,0,0,0-.826.826V35.522a.826.826,0,0,0,.826.826h23.13a.826.826,0,0,0,.826-.826V9.087A.826.826,0,0,0,30.565,8.261ZM29.739,34.7H8.261V9.913H29.739Z" fill="#ccc"/>
        </g>
      </g>
      <g id="Group_403" data-name="Group 403">
        <g id="Group_402" data-name="Group 402">
          <path id="Path_460" data-name="Path 460" d="M19,8.261a.826.826,0,0,0-.826.826V35.522a.826.826,0,0,0,1.652,0V9.087A.826.826,0,0,0,19,8.261Z" fill="#ccc"/>
        </g>
      </g>
      <g id="Group_405" data-name="Group 405">
        <g id="Group_404" data-name="Group 404">
          <circle id="Ellipse_110" data-name="Ellipse 110" cx="0.826" cy="0.826" r="0.826" transform="translate(33.043 16.522)" fill="#ccc"/>
        </g>
      </g>
      <g id="Group_407" data-name="Group 407">
        <g id="Group_406" data-name="Group 406">
          <circle id="Ellipse_111" data-name="Ellipse 111" cx="0.826" cy="0.826" r="0.826" transform="translate(33.043 19.826)" fill="#ccc"/>
        </g>
      </g>
      <g id="Group_409" data-name="Group 409">
        <g id="Group_408" data-name="Group 408">
          <path id="Path_461" data-name="Path 461" d="M16.281,5.2,14.628,3.547a.827.827,0,0,0-1.168,0L11.808,5.2a.826.826,0,1,0,1.168,1.168L14.044,5.3l1.067,1.069A.827.827,0,1,0,16.281,5.2Z" fill="#ccc"/>
        </g>
      </g>
      <g id="Group_411" data-name="Group 411">
        <g id="Group_410" data-name="Group 410">
          <path id="Path_462" data-name="Path 462" d="M26.192,3.547a.827.827,0,0,0-1.168,0L23.956,4.615,22.887,3.547a.826.826,0,0,0-1.168,1.168l1.652,1.652a.828.828,0,0,0,1.168,0l1.652-1.652A.827.827,0,0,0,26.192,3.547Z" fill="#ccc"/>
        </g>
      </g>
    </g>
  </g>
</svg>
