<svg xmlns="http://www.w3.org/2000/svg" xmlns:xlink="http://www.w3.org/1999/xlink" width="48" height="38" viewBox="0 0 48 38">
  <defs>
    <clipPath id="clip-path">
      <rect id="Rectangle_732" data-name="Rectangle 732" width="48" height="38" transform="translate(354 1523)" fill="#ccc" stroke="#707070" stroke-width="1"/>
    </clipPath>
  </defs>
  <g id="Mask_Group_77" data-name="Mask Group 77" transform="translate(-354 -1523)" clip-path="url(#clip-path)">
    <g id="identification_1_" data-name="identification (1)" transform="translate(354 1524.72)">
      <path id="Path_448" data-name="Path 448" d="M14.34,16.88a5.17,5.17,0,1,0-5.17-5.17A5.17,5.17,0,0,0,14.34,16.88Zm0-8.33a3.17,3.17,0,1,1-3.17,3.17A3.17,3.17,0,0,1,14.34,8.55Zm0,0" fill="#ccc"/>
      <path id="Path_449" data-name="Path 449" d="M14.34,18.79a7.759,7.759,0,0,0-5.62,2.35A8.294,8.294,0,0,0,6.4,27.01a1,1,0,0,0,1,1H21.28a1,1,0,0,0,1-1,8.294,8.294,0,0,0-2.32-5.87A7.758,7.758,0,0,0,14.34,18.79ZM8.47,26.01a6.117,6.117,0,0,1,1.68-3.47,5.891,5.891,0,0,1,8.38,0,6.146,6.146,0,0,1,1.68,3.47Zm0,0" fill="#ccc"/>
      <path id="Path_450" data-name="Path 450" d="M43-.42H5a5,5,0,0,0-5,5v25.4a5,5,0,0,0,5,5H43a5,5,0,0,0,5-5V4.58A5,5,0,0,0,43-.42Zm3,30.4a3.009,3.009,0,0,1-3,3H5a3.009,3.009,0,0,1-3-3V4.58a3.009,3.009,0,0,1,3-3H43a3.009,3.009,0,0,1,3,3Zm0,0" fill="#ccc"/>
      <path id="Path_451" data-name="Path 451" d="M40.54,16.28H28.89a1,1,0,0,0,0,2H40.54a1,1,0,0,0,0-2Zm0,0" fill="#ccc"/>
      <path id="Path_452" data-name="Path 452" d="M40.54,22.68H28.89a1,1,0,1,0,0,2H40.54a1,1,0,1,0,0-2Zm0,0" fill="#ccc"/>
      <path id="Path_453" data-name="Path 453" d="M40.54,9.88H28.89a1,1,0,0,0,0,2H40.54a1,1,0,0,0,0-2Zm0,0" fill="#ccc"/>
    </g>
  </g>
</svg>
