<svg xmlns="http://www.w3.org/2000/svg" xmlns:xlink="http://www.w3.org/1999/xlink" width="48" height="38" viewBox="0 0 48 38">
  <defs>
    <clipPath id="clip-path">
      <rect id="Rectangle_775" data-name="Rectangle 775" width="48" height="38" transform="translate(824 1314)" fill="#ccc" stroke="#707070" stroke-width="1"/>
    </clipPath>
  </defs>
  <g id="Mask_Group_70" data-name="Mask Group 70" transform="translate(-824 -1314)" clip-path="url(#clip-path)">
    <path id="draw" d="M2.272,28.6a4.034,4.034,0,0,0,1.113.363l-.6.862a1.375,1.375,0,0,0-.233.585l-.9,6.064A1.371,1.371,0,0,0,3.657,37.88l5.078-2.75a4.108,4.108,0,0,0,6.342,1.078,4.111,4.111,0,0,0,6.854-3.063v-.525a18.888,18.888,0,0,0,8.224,1.9,19.091,19.091,0,0,0,8.407-1.942v3.312a1.371,1.371,0,0,0,1.984,1.226l5.483-2.741a1.371,1.371,0,0,0,.758-1.226V16.7a1.371,1.371,0,0,0-1.371-1.371H35.956l-9.67-4.732L29.96,5.348a1.371,1.371,0,0,0-.337-1.909L25.132.293A1.371,1.371,0,0,0,23.223.63L18.362,7.572a4.09,4.09,0,0,0-3.328-.217L9.818,9.621a4.1,4.1,0,0,0-1.832,1.566L.5,22.959a4.1,4.1,0,0,0,1.77,5.64Zm2.491,5.565.45-3.032,1.226-1.751a5.522,5.522,0,0,0,2.077,1.813L7.458,32.7Zm7.573.352a1.373,1.373,0,0,1-1.371-1.371v-.67l.491-.7h2.251v1.371A1.372,1.372,0,0,1,12.335,34.517Zm5.483,0a1.372,1.372,0,0,1-1.371-1.371V31.775h2.741v1.371A1.373,1.373,0,0,1,17.819,34.517ZM44.046,32.3,41.3,33.669v-15.6h2.742Zm-9.01-14.371a1.372,1.372,0,0,0,.6.14h2.924V29.538a18.011,18.011,0,0,1-8.407,2.236,18.513,18.513,0,0,1-8.983-2.6,1.386,1.386,0,0,0-.613-.145h-9.6a2.745,2.745,0,0,1-2.721-2.417,1.369,1.369,0,0,0-.006-.6,2.745,2.745,0,0,1,2.728-2.468h8.46a10.661,10.661,0,0,0,7.588-3.143,1.371,1.371,0,0,0-1.939-1.939,7.938,7.938,0,0,1-5.649,2.34h-.291l5.56-7.941ZM21.537,7.817,23.783,9.39l-8,11.419H12.44Zm3.145-4.491L26.928,4.9,25.355,7.144,23.11,5.571ZM2.86,24.361l7.44-11.7a1.366,1.366,0,0,1,.611-.522L16.061,9.9a1.376,1.376,0,0,1,.688-.022L8.772,21.268a5.5,5.5,0,0,0-3.224,4.175,1.576,1.576,0,0,1-2.05.7A1.37,1.37,0,0,1,2.86,24.361Zm0,0" transform="translate(824.606 1313.954)" fill="#ccc"/>
  </g>
</svg>
