<svg xmlns="http://www.w3.org/2000/svg" xmlns:xlink="http://www.w3.org/1999/xlink" width="48" height="38" viewBox="0 0 48 38">
  <defs>
    <clipPath id="clip-path">
      <rect id="Rectangle_621" data-name="Rectangle 621" width="48" height="38" transform="translate(718 468.924)" fill="#ccc" stroke="#707070" stroke-width="1"/>
    </clipPath>
  </defs>
  <g id="Mask_Group_49" data-name="Mask Group 49" transform="translate(-718 -468.924)" clip-path="url(#clip-path)">
    <g id="book_1_" data-name="book (1)" transform="translate(723.033 468.121)">
      <path id="Path_326" data-name="Path 326" d="M19.375,0h-8.4a.646.646,0,0,0-.646.647V5.174H.646A.646.646,0,0,0,0,5.82V38.156a.646.646,0,0,0,.646.647h18.73a.646.646,0,0,0,.646-.647V.647A.646.646,0,0,0,19.375,0ZM18.73,33.629h-7.1V32.335h7.1ZM1.292,9.7h9.042V29.1H1.292ZM18.73,7.114h-7.1V5.174h7.1ZM1.292,30.4h9.042v1.94H1.292Zm10.334.647V8.407h7.1V31.042Zm7.1-29.749V3.88h-7.1V1.293Zm-8.4,5.174v1.94H1.292V6.467ZM1.292,33.629h9.042v3.88H1.292Zm10.334,3.88V34.922h7.1v2.587Zm0,0" fill="#ccc"/>
      <path id="Path_327" data-name="Path 327" d="M58.492,40.5l-7.75-29.749a.645.645,0,0,0-.792-.462l-9.688,2.587a.646.646,0,0,0-.459.788l7.75,29.749a.644.644,0,0,0,.792.46l9.688-2.587A.647.647,0,0,0,58.492,40.5ZM42.245,17.909l8.44-2.253.3,1.164-8.439,2.257Zm9.07.166,3.746,14.388-8.437,2.254L42.878,20.328Zm4.075,15.64.661,2.538-8.44,2.253-.659-2.537ZM49.656,11.706l.7,2.7-8.44,2.252-.7-2.7ZM48.64,42.457l-.7-2.7,8.44-2.254.7,2.7Zm0,0" transform="translate(-19.762 -5.093)" fill="#ccc"/>
      <path id="Path_328" data-name="Path 328" d="M10.946,23.1H5.779a.646.646,0,0,0-.646.647V28.92a.646.646,0,0,0,.646.647h5.167a.646.646,0,0,0,.646-.647V23.747A.646.646,0,0,0,10.946,23.1ZM10.3,28.274H6.425v-3.88H10.3Zm0,0" transform="translate(-2.55 -11.459)" fill="#ccc"/>
    </g>
  </g>
</svg>
