<svg width="26" height="26" viewBox="0 0 26 26" fill="none" xmlns="http://www.w3.org/2000/svg">
<path d="M2.16675 13C2.16675 8.91453 2.16675 6.87179 3.43595 5.60257C4.70516 4.33337 6.7479 4.33337 10.8334 4.33337H15.1667C19.2522 4.33337 21.2951 4.33337 22.5642 5.60257C23.8334 6.87179 23.8334 8.91453 23.8334 13C23.8334 17.0855 23.8334 19.1283 22.5642 20.3975C21.2951 21.6667 19.2522 21.6667 15.1667 21.6667H10.8334C6.7479 21.6667 4.70516 21.6667 3.43595 20.3975C2.16675 19.1283 2.16675 17.0855 2.16675 13Z" stroke="white" stroke-width="2"/>
<path d="M6.5 8.66663L8.83881 10.6156C10.8285 12.2737 11.8234 13.1028 13 13.1028C14.1766 13.1028 15.1715 12.2737 17.1612 10.6156L19.5 8.66663" stroke="white" stroke-width="2" stroke-linecap="round"/>
</svg>
