<svg width="100" height="100" viewBox="0 0 100 100" fill="none" xmlns="http://www.w3.org/2000/svg">
<path fill-rule="evenodd" clip-rule="evenodd" d="M46.2461 15.2642C29.9749 17.0722 20.3413 28.1754 19.134 46.5125C17.3384 73.7823 33.7554 90.0077 58.2192 85.142C79.3366 80.9418 85.634 56.8121 67.8701 48.1627C66.9058 47.6931 66.5038 47.387 66.4451 47.0774C66.4001 46.8402 66.2652 45.8943 66.1451 44.9753C64.4452 31.9619 48.6538 26.7524 39.2769 36.1116C37.0819 38.3026 36.9981 37.873 40.0113 39.8773C42.5395 41.5592 42.5395 41.5592 43.6629 40.4535C48.9041 35.2951 58.1698 37.5432 59.7155 44.3484C60.0093 45.6417 60.1093 45.5735 58.235 45.3582C55.498 45.0438 48.7454 45.2843 46.9284 45.7608C30.8699 49.9733 34.5796 69.6652 51.3003 68.9677C59.1046 68.6421 64.1339 64.154 65.8461 55.9873C66.2603 54.0116 66.5543 54.0419 68.7809 56.2902C76.8842 64.4727 69.0222 77.6693 55.0235 79.3826C34.4065 81.9063 22.971 68.2505 25.5991 44.2454C27.2225 29.4172 36.0773 21.3095 50.6322 21.3249C62.7213 21.3376 71.4976 27.1513 74.5208 37.1495C75.1007 39.0682 74.8991 39.009 78.055 38.1857C81.5024 37.2862 81.2858 37.5282 80.5606 35.3863C75.7341 21.128 62.6299 13.4436 46.2461 15.2642ZM57.0653 51.543C60.384 51.8989 60.1584 51.7771 60.0144 53.135C59.1079 61.6803 50.5065 66.0479 44.6173 60.9537C38.759 55.8857 46.064 50.3632 57.0653 51.543Z" fill="#E6E6E6"/>
</svg>
