<svg xmlns="http://www.w3.org/2000/svg" xmlns:xlink="http://www.w3.org/1999/xlink" width="24" height="24" viewBox="0 0 24 24">
  <defs>
    <clipPath id="clip-path">
      <rect id="Rectangle_18" data-name="Rectangle 18" width="24" height="24" fill="#fff" stroke="#707070" stroke-width="1"/>
    </clipPath>
  </defs>
  <g id="Mask_Group_1" data-name="Mask Group 1" clip-path="url(#clip-path)">
    <g id="speaker-symbol-of-voice-volume" transform="translate(0 3.368)">
      <path id="Path_1" data-name="Path 1" d="M15.992,3.913V18.659a.541.541,0,0,1-.993.3c-1.656-2.581-3.292-3.935-9.037-4.222l1.814,5.9H5.066L3.231,14.67a3.39,3.39,0,0,1,.157-6.776c7.878,0,9.73-1.349,11.611-4.281A.541.541,0,0,1,15.992,3.913ZM20.658,12a6.315,6.315,0,0,1-1.191,3.693,1.024,1.024,0,0,1-.762.392.935.935,0,0,1-.922-.927,1.039,1.039,0,0,1,.182-.552A4.243,4.243,0,0,0,18.8,12a4.244,4.244,0,0,0-.839-2.606,1.039,1.039,0,0,1-.182-.552.935.935,0,0,1,.922-.927,1.024,1.024,0,0,1,.762.392A6.315,6.315,0,0,1,20.658,12ZM19.97,6.651a1.048,1.048,0,0,1-.418-.768.931.931,0,0,1,.927-.93,1.16,1.16,0,0,1,.61.224C22.208,6.015,24,8.162,24,12s-1.792,5.985-2.912,6.823a1.16,1.16,0,0,1-.61.224.932.932,0,0,1-.927-.93,1.048,1.048,0,0,1,.418-.768A6.523,6.523,0,0,0,22.146,12,6.523,6.523,0,0,0,19.97,6.651Z" transform="translate(0 -3.368)" fill="#fff"/>
    </g>
  </g>
</svg>
