<svg width="25" height="22" viewBox="0 0 25 22" fill="none" xmlns="http://www.w3.org/2000/svg">
<path d="M19.8489 18.4068C19.8524 18.2718 19.8284 18.1376 19.7786 18.0121C19.7288 17.8867 19.654 17.7726 19.5589 17.6768L16.6289 14.6668C16.5005 14.5441 16.3417 14.4578 16.1689 14.4168C15.8855 14.3374 15.5826 14.3659 15.3189 14.4968L13.9889 15.2668H13.8489H13.7289L13.5089 15.1568C13.2996 15.0324 13.1051 14.8848 12.9289 14.7168C12.6191 14.4012 12.3286 14.0673 12.0589 13.7168C11.6464 13.1776 11.2786 12.6057 10.9589 12.0068C10.6176 11.4299 10.3201 10.8282 10.0689 10.2068C9.91309 9.79702 9.78939 9.37575 9.69893 8.94679C9.62004 8.61968 9.58971 8.28274 9.60893 7.94679C9.62214 7.89873 9.64608 7.85428 9.67893 7.81679C9.70097 7.77707 9.73174 7.74289 9.76893 7.7168L10.9089 7.0768C11.1139 6.96004 11.2806 6.78636 11.3889 6.5768C11.4989 6.37507 11.5275 6.13894 11.4689 5.91679L10.5489 1.67679C10.4993 1.52749 10.4286 1.38606 10.3389 1.25679C10.2412 1.13613 10.1084 1.04878 9.95893 1.00679C9.84846 0.977149 9.73319 0.969852 9.61986 0.985306C9.50653 1.00076 9.39743 1.03865 9.29893 1.09679L6.20893 2.84679C6.04541 2.93195 5.89951 3.04733 5.77893 3.1868C5.58824 3.43475 5.44577 3.71629 5.35893 4.0168C5.26225 4.31514 5.20181 4.62402 5.17893 4.9368C5.14136 5.42274 5.14136 5.91085 5.17893 6.39679C5.21817 7.06992 5.31181 7.73877 5.45893 8.39679C5.64933 9.24359 5.89997 10.0757 6.20893 10.8868C6.61086 11.9241 7.09576 12.9274 7.65893 13.8868C8.30276 15.0978 9.07739 16.2346 9.96893 17.2768C10.6206 18.0404 11.3402 18.7433 12.1189 19.3768C12.6526 19.8127 13.2328 20.1883 13.8489 20.4968C14.3074 20.7114 14.7866 20.8789 15.2789 20.9968C15.4674 21.0313 15.6605 21.0313 15.8489 20.9968C16.0305 20.9704 16.2044 20.9057 16.3589 20.8068L19.4489 19.0868C19.5629 19.0113 19.6581 18.9108 19.7274 18.793C19.7967 18.6751 19.8383 18.5431 19.8489 18.4068Z" fill="white"/>
</svg>
