<svg width="26" height="20" viewBox="0 0 26 20" fill="none" xmlns="http://www.w3.org/2000/svg">
<mask id="mask0_200_4810" style="mask-type:alpha" maskUnits="userSpaceOnUse" x="0" y="0" width="26" height="20">
<rect x="0.333313" width="25" height="20" fill="#D9D9D9"/>
</mask>
<g mask="url(#mask0_200_4810)">
<path d="M12.3333 15H8.33331C6.94998 15 5.77081 14.5125 4.79581 13.5375C3.82081 12.5625 3.33331 11.3833 3.33331 10C3.33331 8.61667 3.82081 7.4375 4.79581 6.4625C5.77081 5.4875 6.94998 5 8.33331 5H12.3333V7H8.33331C7.49998 7 6.79165 7.29167 6.20831 7.875C5.62498 8.45833 5.33331 9.16667 5.33331 10C5.33331 10.8333 5.62498 11.5417 6.20831 12.125C6.79165 12.7083 7.49998 13 8.33331 13H12.3333V15ZM9.33331 11V9H17.3333V11H9.33331ZM14.3333 15V13H18.3333C19.1666 13 19.875 12.7083 20.4583 12.125C21.0416 11.5417 21.3333 10.8333 21.3333 10C21.3333 9.16667 21.0416 8.45833 20.4583 7.875C19.875 7.29167 19.1666 7 18.3333 7H14.3333V5H18.3333C19.7166 5 20.8958 5.4875 21.8708 6.4625C22.8458 7.4375 23.3333 8.61667 23.3333 10C23.3333 11.3833 22.8458 12.5625 21.8708 13.5375C20.8958 14.5125 19.7166 15 18.3333 15H14.3333Z" fill="#FFD54F"/>
</g>
</svg>
