<svg width="20" height="20" viewBox="0 0 20 20" fill="none" xmlns="http://www.w3.org/2000/svg">
<mask id="mask0_152_1785" style="mask-type:alpha" maskUnits="userSpaceOnUse" x="0" y="0" width="20" height="20">
<rect width="20" height="20" fill="#D9D9D9"/>
</mask>
<g mask="url(#mask0_152_1785)">
<path d="M4.99998 18.3334C4.54165 18.3334 4.14929 18.1702 3.8229 17.8438C3.49651 17.5174 3.33331 17.125 3.33331 16.6667V8.33337C3.33331 7.87504 3.49651 7.48268 3.8229 7.15629C4.14929 6.8299 4.54165 6.66671 4.99998 6.66671H5.83331V5.00004C5.83331 3.84726 6.23956 2.86462 7.05206 2.05212C7.86456 1.23962 8.8472 0.833374 9.99998 0.833374C11.1528 0.833374 12.1354 1.23962 12.9479 2.05212C13.7604 2.86462 14.1666 3.84726 14.1666 5.00004V6.66671H15C15.4583 6.66671 15.8507 6.8299 16.1771 7.15629C16.5035 7.48268 16.6666 7.87504 16.6666 8.33337V16.6667C16.6666 17.125 16.5035 17.5174 16.1771 17.8438C15.8507 18.1702 15.4583 18.3334 15 18.3334H4.99998ZM9.99998 14.1667C10.4583 14.1667 10.8507 14.0035 11.1771 13.6771C11.5035 13.3507 11.6666 12.9584 11.6666 12.5C11.6666 12.0417 11.5035 11.6493 11.1771 11.323C10.8507 10.9966 10.4583 10.8334 9.99998 10.8334C9.54165 10.8334 9.14929 10.9966 8.8229 11.323C8.49651 11.6493 8.33331 12.0417 8.33331 12.5C8.33331 12.9584 8.49651 13.3507 8.8229 13.6771C9.14929 14.0035 9.54165 14.1667 9.99998 14.1667ZM7.49998 6.66671H12.5V5.00004C12.5 4.3056 12.2569 3.71532 11.7708 3.22921C11.2847 2.7431 10.6944 2.50004 9.99998 2.50004C9.30554 2.50004 8.71526 2.7431 8.22915 3.22921C7.74303 3.71532 7.49998 4.3056 7.49998 5.00004V6.66671Z" fill="#4600A8"/>
</g>
</svg>
