<svg width="18" height="17" viewBox="0 0 18 17" fill="none" xmlns="http://www.w3.org/2000/svg">
<path d="M17.5043 7.01132C17.5301 7.93221 17.3656 8.8483 17.0215 9.6995C16.6774 10.5507 16.1615 11.3178 15.5076 11.9505C13.7393 13.7352 11.688 15.1478 9.61099 16.5241C9.30778 16.7219 8.97717 16.8718 8.63035 16.9687C8.23167 17.0905 8.09985 16.916 8.2156 16.5142C8.33134 16.1125 8.47281 15.6845 8.55641 15.2597C8.64 14.8349 8.46638 14.6012 8.01626 14.5155C7.3271 14.4064 6.64443 14.258 5.97141 14.071C3.90726 13.3927 2.22571 12.1777 1.22258 10.1625C0.116554 7.9333 0.277313 5.73044 1.64376 3.67904C3.07774 1.53545 5.18047 0.462014 7.63365 0.106396C9.69334 -0.219219 11.8004 0.161646 13.6268 1.18971C15.4144 2.17754 16.723 3.62307 17.276 5.67446C17.3781 6.115 17.4544 6.56142 17.5043 7.01132ZM10.598 8.71698L10.5369 8.74003C10.4759 8.65441 10.4116 8.5688 10.3537 8.4799C9.89714 7.76866 9.43737 7.06072 8.98403 6.34948C8.85221 6.14204 8.69467 5.9741 8.42459 6.0202C8.15452 6.0663 8.06449 6.31984 8.06127 6.57997C8.06127 7.62049 8.06127 8.661 8.06127 9.70152C8.06127 9.93201 8.14807 10.1362 8.41172 10.1395C8.67536 10.1427 8.79111 9.93531 8.79433 9.69164C8.79433 9.05614 8.79433 8.41734 8.79433 7.77854C8.79433 7.67646 8.79433 7.5711 8.81683 7.38341C9.27017 8.09465 9.67207 8.73015 10.0772 9.35907C10.1819 9.56693 10.3175 9.75689 10.4791 9.92213C10.6449 10.0497 10.8516 10.1085 11.0578 10.0868C11.1639 10.067 11.2861 9.80688 11.3022 9.64554C11.3375 9.28004 11.3022 8.90796 11.3022 8.53917C11.3022 7.82464 11.3022 7.10682 11.3022 6.39229C11.3102 6.3446 11.3079 6.2957 11.2954 6.24904C11.2829 6.20238 11.2604 6.15912 11.2298 6.12234C11.1991 6.08556 11.1608 6.05615 11.1178 6.03622C11.0747 6.01629 11.0279 6.00633 10.9806 6.00703C10.7492 6.00703 10.6591 6.14204 10.6109 6.33631C10.5949 6.45851 10.5884 6.58184 10.5916 6.7051C10.5948 7.39658 10.598 8.05513 10.598 8.71698ZM13.0159 6.7051H14.7296C14.9418 6.7051 15.1475 6.66229 15.1443 6.39229C15.1411 6.12228 14.9353 6.08606 14.7199 6.08606C14.0769 6.08606 13.4081 6.08606 12.7522 6.08606C12.3214 6.08606 12.2121 6.2013 12.2088 6.65241C12.2088 7.6139 12.2088 8.57758 12.2088 9.54346C12.2088 9.97481 12.3278 10.0901 12.7683 10.0967C13.2731 10.0967 13.7746 10.0967 14.2794 10.0967C14.4943 10.1102 14.71 10.0992 14.9225 10.0637C14.9871 10.0396 15.0449 9.99918 15.0904 9.94626C15.1359 9.89333 15.1677 9.82956 15.1829 9.76079C15.1829 9.65542 15.0253 9.52371 14.9064 9.46114C14.7898 9.43088 14.6686 9.42418 14.5495 9.44139H13.0223V8.31197H13.2088C13.6911 8.31197 14.1733 8.31197 14.6524 8.29551C14.7249 8.27755 14.7921 8.24179 14.8481 8.19131C14.9041 8.14082 14.9473 8.07713 14.9739 8.00574C15.0254 7.80817 14.855 7.71927 14.6717 7.7061C14.5399 7.7061 14.408 7.7061 14.2762 7.7061H13.0159V6.7051ZM3.80758 9.42163C3.80758 9.09235 3.80758 8.79271 3.80758 8.49307C3.80758 7.80159 3.80758 7.10681 3.78829 6.41533C3.78723 6.36431 3.77638 6.314 3.75634 6.26727C3.7363 6.22054 3.70746 6.17832 3.67148 6.143C3.63551 6.10769 3.59309 6.07998 3.54666 6.06145C3.50022 6.04292 3.45069 6.03394 3.40087 6.03502C3.35105 6.0361 3.30191 6.04722 3.25628 6.06775C3.21066 6.08827 3.16943 6.1178 3.13495 6.15464C3.10046 6.19149 3.0734 6.23493 3.05531 6.28248C3.03722 6.33004 3.02845 6.38077 3.02951 6.4318C3.02951 7.50524 3.02951 8.57868 3.02951 9.65212C3.02454 9.70552 3.0306 9.75939 3.04731 9.81023C3.06401 9.86107 3.091 9.90773 3.12649 9.94718C3.16198 9.98663 3.20517 10.018 3.25328 10.0392C3.30138 10.0604 3.35331 10.071 3.40568 10.0703C3.49207 10.0818 3.57901 10.0884 3.66611 10.0901C4.25449 10.0901 4.84286 10.0901 5.43446 10.0901C5.63058 10.0901 5.80742 10.0045 5.80099 9.76079C5.79456 9.51712 5.62416 9.43151 5.41839 9.43151H3.81079L3.80758 9.42163ZM6.37972 8.04855V9.62578C6.37972 9.89908 6.45367 10.1395 6.76555 10.1427C7.07742 10.146 7.16744 9.89908 7.16744 9.63237C7.16744 8.60503 7.16744 7.57439 7.16744 6.54375C7.16744 6.18155 7.0067 5.99057 6.75591 6.01032C6.43439 6.03667 6.38294 6.27375 6.37972 6.53717C6.36686 7.05413 6.37009 7.55792 6.37009 8.06172L6.37972 8.04855Z" fill="white"/>
</svg>
