<svg width="144" height="75" viewBox="0 0 144 75" fill="none" xmlns="http://www.w3.org/2000/svg">
<g clip-path="url(#clip0_301_145160)">
<mask id="mask0_301_145160" style="mask-type:luminance" maskUnits="userSpaceOnUse" x="0" y="0" width="144" height="75">
<path d="M144 0H0V75H144V0Z" fill="white"/>
</mask>
<g mask="url(#mask0_301_145160)">
<path d="M68.1104 26.4595C68.4656 25.0759 67.6386 23.659 66.2571 23.2982L66.256 23.2979C64.8663 22.9367 63.462 23.7761 63.1063 25.1612L63.1061 25.1623C62.2127 28.6563 62.6313 32.3528 64.283 35.5577C66.4391 39.7356 70.0812 42.8198 74.5397 44.2413C76.2787 44.7956 78.0588 45.069 79.8316 45.069C82.6103 45.069 85.3655 44.3959 87.8924 43.0706C94.2917 39.7124 98.4687 33.4355 99.2038 26.3265C102.979 27.9198 105.716 31.5146 106.105 35.8043C103.412 37.1074 101.174 39.2919 99.8032 42.1116C98.4653 44.8577 98.2696 47.9705 99.2519 50.8636C100.234 53.7548 102.273 56.1003 105.003 57.4493C106.333 58.1113 107.785 58.4442 109.241 58.4442C110.119 58.4442 111 58.3255 111.864 58.0786C113.236 57.6852 114.033 56.2497 113.644 54.875C113.255 53.5023 111.832 52.698 110.456 53.0858L110.455 53.0863C109.398 53.3862 108.272 53.2834 107.283 52.7961C105.792 52.0603 104.677 50.7851 104.14 49.1962L104.139 49.1937C103.599 47.6098 103.707 45.909 104.441 44.4001C105.178 42.8846 106.319 41.6676 107.693 40.8424C109 40.2583 110.391 39.8513 111.832 39.6521C111.844 39.6515 111.854 39.6509 111.859 39.6506C111.861 39.6505 111.863 39.6504 111.865 39.6503C112.04 39.6493 112.204 39.6275 112.347 39.5978C113.718 39.4503 115.126 39.4797 116.549 39.7182C121.863 40.6124 126.106 44.116 128.194 48.7197L128.595 49.6046L128.687 49.566C130.377 52.553 133.337 54.781 136.973 55.394L140 55.5338C141.806 55.8363 140.561 55.56 142.209 55.0716C139.595 60.4903 133.725 63.7897 127.554 62.867L126.941 62.7753L126.586 63.2839C123.357 67.9134 117.69 70.5183 111.795 69.5268C105.976 68.5466 101.494 64.323 99.8763 58.985L99.0816 56.3624L98.0004 58.8804C93.5577 69.2267 82.5622 75.5897 71.0532 73.6501C64.5675 72.5595 59.0958 69.0241 55.388 64.136C56.9167 61.0327 57.2419 57.418 56.1791 53.986C55.2766 51.0653 53.2942 48.6711 50.606 47.2473L50.6049 47.2467C47.9159 45.827 44.8286 45.5438 41.9285 46.4581C39.661 47.1743 37.7435 48.7028 36.5302 50.7568M68.1104 26.4595L68.1106 26.4584M68.1104 26.4595C67.5334 28.7197 66.9136 31.5625 67.9826 33.632M36.5302 50.7568L37.3912 51.2654M36.5302 50.7568C35.805 51.9841 36.2044 53.5765 37.4303 54.3099C38.6604 55.0457 40.2457 54.6349 40.973 53.4059M34.4939 63.8941C37.811 64.4507 46.7934 66.4956 48.9909 64.2584C49.0159 64.2271 49.0566 64.1789 49.1135 64.1266C49.2336 64.0083 49.3505 63.8836 49.4607 63.756C49.9997 63.1256 50.4661 62.4239 50.8393 61.6656L50.8422 61.6569L50.8707 61.5981C50.9088 61.5192 50.9307 61.4663 50.9594 61.3969C50.9821 61.3422 51.009 61.2773 51.0514 61.1813C51.7456 59.4141 51.8383 57.4284 51.2505 55.5338L51.2501 55.5325C50.7552 53.9294 49.6748 52.6255 48.2037 51.8468C46.7345 51.0691 45.057 50.918 43.475 51.4145C42.4259 51.7442 41.5395 52.4505 40.973 53.4059M34.4939 63.8941L32.9163 63.8257C30.1399 67.0946 26.0228 69.1615 21.4273 69.1615C13.0834 69.1615 6.30502 62.3389 6.30502 53.9053V53.9041C6.30115 50.6082 4.74223 47.4065 1.98279 45.4101C2.99956 44.9667 4.12034 44.7217 5.30096 44.7217C7.3588 44.7217 9.26157 45.4176 10.703 46.6254L10.9817 46.8589H10.9847C12.2697 48.03 13.9077 48.8 15.8217 48.8C19.6465 48.8 22.8173 45.8886 22.8173 41.9604C22.8173 33.7392 29.421 27.0924 37.5537 27.0924C40.965 27.0924 44.1005 28.2584 46.5957 30.2176M34.4939 63.8941L34.5035 63.9077C33.7051 63.8599 31.5 63.3917 34.4939 63.8941ZM40.973 53.4059L40.9737 53.4047L40.1128 52.8959L40.973 53.4059ZM67.9826 33.632C69.5069 36.5854 72.9604 38.2977 76.1018 39.2995C79.2422 40.3009 82.5769 40.007 85.5014 38.4755M67.9826 33.632C69.6277 36.8195 72.4021 39.1693 75.798 40.2522C79.1939 41.3351 82.8051 41.0164 85.9653 39.3614M85.5014 38.4755L85.9653 39.3614M85.5014 38.4755C90.8895 35.6516 94.2078 30.0894 94.1619 23.9545L94.1618 23.947C94.1618 23.9134 94.1633 23.8843 94.165 23.8615C93.8583 11.1787 83.5758 1.00403 70.9438 1.00403C58.2974 1.00403 47.7096 11.493 47.7096 24.4415C47.7096 26.0814 47.8773 27.6858 48.193 29.2309L48.7385 31.9001L46.5957 30.2176M85.9653 39.3614C91.6888 36.3618 95.2106 30.4527 95.1618 23.947C95.1618 23.9368 95.1629 23.9276 95.1639 23.9184C95.1649 23.9092 95.1659 23.9 95.1659 23.8898C94.8734 10.6494 83.2017 1.02354 70 1.02354C56.7983 1.02354 46.7096 10.9437 46.7096 24.4415L46.5957 30.2176" stroke="white" stroke-width="2"/>
</g>
</g>
<defs>
<clipPath id="clip0_301_145160">
<rect width="144" height="75" fill="white"/>
</clipPath>
</defs>
</svg>
