<svg width="99" height="55" viewBox="0 0 99 55" fill="none" xmlns="http://www.w3.org/2000/svg">
<g clip-path="url(#clip0_301_145166)">
<mask id="mask0_301_145166" style="mask-type:luminance" maskUnits="userSpaceOnUse" x="0" y="0" width="99" height="55">
<path d="M99 0H0V55H99V0Z" fill="white"/>
</mask>
<g mask="url(#mask0_301_145166)">
<path d="M69.6387 25.1843C69.8877 23.955 70.0256 22.73 70.0658 21.5198C70.8759 21.3158 71.7194 21.2056 72.5915 21.2056C77.1666 21.2056 81.0591 24.156 82.4812 28.2762C83.3963 33.5289 87.8673 37.5547 93.3145 37.7533L93.3266 37.7654H93.7411C94.8428 37.7654 95.9066 37.6085 96.9133 37.3166C94.192 41.7384 89.0309 44.7541 83.0603 44.7541C81.0943 44.7541 79.2181 44.427 77.4838 43.832C75.4917 42.9883 73.3115 42.2467 70.8681 42.2467C66.0435 42.2467 62.2201 44.6389 59.2489 48.0833C55.6215 51.7412 50.6036 53.9998 45.0608 53.9998C38.4597 53.9998 32.6011 50.7914 28.9449 45.8381L28.1384 44.7454L27.3344 45.8399C24.5779 49.5923 19.6686 51.3666 14.9901 49.916C10.2457 48.4399 7.16518 44.0917 7.07581 39.3515L7.07555 39.338L7.07494 39.3245C6.89917 35.4931 5.07287 31.9095 2.09717 29.5254C3.17372 29.1918 4.31915 29.0115 5.47058 29.0115C7.23288 29.0115 8.89266 29.4162 10.3807 30.1338C10.9519 30.4267 11.4982 30.662 12.1349 30.8584C16.9365 32.3487 21.6574 29.6217 23.117 24.8726C23.4381 23.8333 23.5797 22.7676 23.5237 21.7197V21.6188C23.5237 10.2228 32.7141 0.995361 44.04 0.995361C47.2807 0.995361 50.5038 1.76877 53.383 3.25418L53.3839 3.25464C60.1781 6.75116 64.8004 14.1829 64.5569 21.8885C64.311 29.6229 56.8022 35.6368 49.2682 34.0976C46.7419 33.5838 44.5663 32.1092 43.1431 29.947C41.7194 27.7796 41.2191 25.1911 41.7324 22.65C42.0308 21.1754 41.0871 19.7316 39.609 19.4296C38.1276 19.1269 36.6989 20.0932 36.4004 21.562C35.5968 25.5288 36.3824 29.5765 38.6043 32.9511C40.827 36.3315 44.2331 38.64 48.1845 39.4465C49.4025 39.6944 50.6183 39.8166 51.8176 39.8166C60.2848 39.8166 67.8857 33.8354 69.6387 25.1843ZM69.6387 25.1843L68.6586 24.9857" stroke="white" stroke-width="2"/>
</g>
</g>
<defs>
<clipPath id="clip0_301_145166">
<rect width="99" height="55" fill="white"/>
</clipPath>
</defs>
</svg>
