<svg width="104" height="77" viewBox="0 0 104 77" fill="none" xmlns="http://www.w3.org/2000/svg">
<g clip-path="url(#clip0_301_145148)">
<mask id="mask0_301_145148" style="mask-type:luminance" maskUnits="userSpaceOnUse" x="0" y="0" width="104" height="77">
<path d="M104 0H0V77H104V0Z" fill="white"/>
</mask>
<g mask="url(#mask0_301_145148)">
<path d="M13.4655 43.8371C16.2296 43.7374 18.8042 45.2832 20.0166 47.7716C22.2569 52.3594 20.3509 57.9246 15.7706 60.1686C15.0422 60.5277 14.2738 60.8119 13.4904 61.0164C12.7071 61.2258 11.8938 61.3654 11.0506 61.4003C4.92354 61.6547 1.74948 57.1387 1.50001 51M13.4655 43.8371C12.3928 43.872 11.4947 43.0342 11.4547 41.9571L13.4655 43.8371ZM1.50001 51C1.35033 47.2942 2.21347 43.6741 5.11434 41.7882L5.88913 41.2845L5.448 40.4724C4.53844 38.7981 3.9752 36.912 3.892 34.8851C3.60507 27.8453 9.07041 21.9047 16.0958 21.6181L16.0969 21.618C17.3029 21.5674 18.4816 21.7006 19.6112 21.9747L20.6639 22.2302L20.8345 21.1603C22.5924 10.1353 31.9 1.50661 43.463 1.03286C55.2437 0.551202 65.3748 8.70048 67.7955 19.8634C67.7949 19.966 67.7998 20.0845 67.8184 20.2114C67.957 21.2209 68.0329 22.2457 68.0329 23.2619V23.2667C68.0802 33.1583 60.082 41.2437 50.2134 41.2862C42.6403 41.3234 36.4513 35.1788 36.414 27.5904C36.3868 21.8472 41.0276 17.1486 46.764 17.1259L46.7693 17.1258C48.3965 17.1108 49.696 15.7961 49.696 14.1711L49.6959 14.1664C49.6884 12.536 48.3655 11.2312 46.7451 11.2312L46.7398 11.2313C37.7498 11.2791 30.485 18.6261 30.5273 27.6197C30.5746 38.4522 39.4138 47.2321 50.2352 47.1809M1.50001 51C1.72725 56.5885 5.43635 60.6325 11.0091 60.4012C11.7684 60.3698 12.5086 60.2438 13.2321 60.0503L13.2379 60.0488C13.9572 59.861 14.662 59.6002 15.3285 59.2717L15.3306 59.2706C19.4146 57.2698 21.1166 52.3033 19.118 48.2104C18.0787 46.0774 15.8702 44.751 13.5015 44.8364L13.498 44.8366C11.8735 44.8894 10.5157 43.6198 10.4554 41.9941L10.4553 41.9897C10.4025 40.3686 11.6479 39.0182 13.2852 38.9435L13.296 38.943C17.9869 38.7796 22.3435 41.3984 24.4075 45.6167C26.3565 49.6065 26.2401 54.0613 24.5124 57.7959C26.8315 68.4708 36.4487 76.2812 47.6819 76.0001C53.2912 75.4564 58.5399 73.7604 63.2073 71.1586L63.2176 71.1529L63.228 71.1474C64.5389 70.4564 65.9032 69.8633 67.3051 69.3622C71.2592 67.6164 75.5916 66.5596 80.173 66.3703C87.9392 66.0535 95.2239 68.2617 101.237 72.2621C97.2422 63.6009 89.9365 56.8397 80.9972 53.5574L79.947 53.1718L80.4377 52.191C80.4377 52.191 80.4391 52.1875 80.4399 52.1853C80.4441 52.1742 80.4535 52.1494 80.4643 52.1231C80.4756 52.0955 80.4916 52.0584 80.5124 52.0167L80.608 51.8257L80.7732 51.6904C84.8479 48.3541 87.3694 43.22 87.1384 37.5549C86.8126 29.6077 81.2029 23.1324 73.8437 21.3815C73.8896 21.9984 73.9167 22.62 73.9197 23.2421C73.977 36.0879 63.8282 46.6394 51.1118 47.1601L51.1066 47.1603L51.0987 47.1606C50.8253 47.1703 50.5317 47.1808 50.2352 47.1809M1.50001 51C1.34387 47.1601 0.708742 44.8707 3.892 42.8012L1.45336 46.1809L1.50001 51ZM50.2352 47.1809L50.2376 47.1808L50.2327 46.1809V47.1809H50.2352Z" stroke="white" stroke-width="2"/>
</g>
</g>
<defs>
<clipPath id="clip0_301_145148">
<rect width="104" height="77" fill="white"/>
</clipPath>
</defs>
</svg>
