<svg xmlns="http://www.w3.org/2000/svg" xmlns:xlink="http://www.w3.org/1999/xlink" width="13" height="13" viewBox="0 0 13 13">
  <defs>
    <clipPath id="clip-path">
      <rect id="Rectangle_2078" data-name="Rectangle 2078" width="13" height="13" transform="translate(552 278)" fill="#fff" stroke="#707070" stroke-width="1"/>
    </clipPath>
  </defs>
  <g id="Mask_Group_701" data-name="Mask Group 701" transform="translate(-552 -278)" clip-path="url(#clip-path)">
    <g id="download_1_" data-name="download (1)" transform="translate(552 278)">
      <g id="Group_962" data-name="Group 962">
        <g id="Group_961" data-name="Group 961">
          <path id="Path_1018" data-name="Path 1018" d="M9.713,5.926a.405.405,0,0,0-.37-.238H7.719V.406A.406.406,0,0,0,7.313,0H5.688a.406.406,0,0,0-.406.406V5.688H3.656a.406.406,0,0,0-.306.674l2.844,3.25a.405.405,0,0,0,.611,0l2.844-3.25A.405.405,0,0,0,9.713,5.926Z" fill="#fff"/>
        </g>
      </g>
      <g id="Group_964" data-name="Group 964">
        <g id="Group_963" data-name="Group 963">
          <path id="Path_1019" data-name="Path 1019" d="M10.969,8.938v2.438H2.031V8.938H.406v3.25A.812.812,0,0,0,1.219,13H11.781a.812.812,0,0,0,.813-.812V8.938Z" fill="#fff"/>
        </g>
      </g>
    </g>
  </g>
</svg>
