<svg xmlns="http://www.w3.org/2000/svg" xmlns:xlink="http://www.w3.org/1999/xlink" width="16" height="16" viewBox="0 0 16 16">
  <defs>
    <clipPath id="clip-path">
      <rect id="Rectangle_2342" data-name="Rectangle 2342" width="16" height="16" transform="translate(494 236)" fill="#585858" stroke="#707070" stroke-width="1"/>
    </clipPath>
  </defs>
  <g id="Mask_Group_756" data-name="Mask Group 756" transform="translate(-494 -236)" clip-path="url(#clip-path)">
    <g id="university_1_" data-name="university (1)" transform="translate(494 236)">
      <g id="Group_1222" data-name="Group 1222">
        <g id="Group_1221" data-name="Group 1221">
          <circle id="Ellipse_46" data-name="Ellipse 46" cx="0.625" cy="0.625" r="0.625" transform="translate(7.375 2.781)" fill="#585858"/>
          <path id="Path_1113" data-name="Path 1113" d="M15.887,15.017l-1.531-2.187a.625.625,0,0,0-.512-.267h-2.5V6.875a.781.781,0,1,1,1.562,0v3.219a.625.625,0,1,0,1.25,0V6.062h1.219A.625.625,0,0,0,16,5.437V3.75a.625.625,0,0,0-.382-.576L8.228.049a.625.625,0,0,0-.488,0L.381,3.175A.625.625,0,0,0,0,3.75V5.437a.625.625,0,0,0,.625.625H1.656v6.75l-.012.016L.113,15.017A.625.625,0,0,0,.625,16h14.75a.625.625,0,0,0,.512-.983ZM1.25,4.812V4.164L7.985,1.3,14.75,4.164v.648Zm8.844,2.062v5.687H8.531V6.875a.781.781,0,0,1,1.562,0Zm-2.812,0v5.687H5.719V6.875a.781.781,0,0,1,1.562,0Zm-2.812,0v5.687H2.906V6.875a.781.781,0,0,1,1.562,0ZM1.825,14.75l.656-.937H13.518l.656.937Z" fill="#585858"/>
        </g>
      </g>
    </g>
  </g>
</svg>
