<?xml version="1.0" encoding="utf-8"?>
<!-- Generator: Adobe Illustrator 16.0.2, SVG Export Plug-In . SVG Version: 6.00 Build 0)  -->
<!DOCTYPE svg PUBLIC "-//W3C//DTD SVG 1.1//EN" "http://www.w3.org/Graphics/SVG/1.1/DTD/svg11.dtd">
<svg version="1.1" id="圖層_1" xmlns="http://www.w3.org/2000/svg" xmlns:xlink="http://www.w3.org/1999/xlink" x="0px" y="0px"
	 width="242px" height="56.667px" viewBox="0 0 242 56.667" enable-background="new 0 0 242 56.667" xml:space="preserve">
<g>
	<g>
		<path fill="#4F301B" d="M8.781,22.351c1.189-0.123,2.646-0.308,4.368-0.554c1.231-0.246,2.378-0.471,3.446-0.677
			c0.451-0.492,0.902-1.066,1.354-1.723c0.697-0.984,1.64-2.215,2.831-3.691c1.148-1.477,2.03-2.728,2.646-3.753
			c-0.042-0.246-0.206-0.369-0.492-0.369c-0.78,0.123-1.477,0.226-2.092,0.308c-0.615,0.123-1.292,0.246-2.031,0.369
			c-0.698,0.123-1.292,0.185-1.784,0.185c-0.329-0.123-0.595-0.287-0.8-0.492c-0.492,0.615-0.964,1.169-1.415,1.661
			c-1.067,1.19-1.949,2.052-2.646,2.584c-0.657,0.615-1.333,1.005-2.03,1.169c-0.329-0.041-0.534-0.185-0.615-0.431
			c1.23-0.984,2.42-2.215,3.568-3.692c1.148-1.517,2.112-2.789,2.892-3.814c0.779-1.025,1.312-1.908,1.6-2.646
			c0.246-0.492,0.431-0.881,0.554-1.169c0.082-0.287,0.287-0.451,0.615-0.492c0.697,0.083,1.189,0.288,1.477,0.615
			c0.246,0.329,0.389,0.677,0.431,1.046c-0.206,0.329-0.964,1.23-2.277,2.708c-0.287,0.329-0.533,0.615-0.738,0.861
			c2.708-0.123,6.439-0.923,11.198-2.4c0.492,0.206,0.84,0.514,1.046,0.923c-0.123,0.369-0.308,0.575-0.554,0.615
			c-0.821,0.369-1.621,0.984-2.399,1.846c-0.821,0.861-1.846,1.929-3.077,3.2c-1.272,1.313-2.687,2.872-4.246,4.676
			c-0.575,0.698-1.067,1.231-1.477,1.6c7.465-1.394,12.838-2.194,16.121-2.4c0.697-0.369,1.415-0.594,2.153-0.677
			c0.82,0.329,1.477,0.841,1.969,1.538c-0.903,0.944-1.826,2.236-2.769,3.876c-0.944,1.641-2.646,4.779-5.107,9.414
			c-0.41,0.452-0.944,0.718-1.6,0.8c-0.369-0.164-0.657-0.492-0.861-0.985c0.287-0.409,0.574-0.881,0.861-1.415
			c-2.544,0.246-5.025,0.637-7.445,1.169c-0.206,0.862-0.431,1.723-0.677,2.584c-1.026,3.979-2.995,7.691-5.907,11.137
			C12,49.259,8.535,51.802,4.474,53.484L3.92,53.3c3.404-1.929,6.419-4.43,9.044-7.506c2.584-3.035,4.45-7.076,5.599-12.121
			c0.082-0.287,0.144-0.574,0.185-0.861c-2.174,0.615-4.225,1.313-6.153,2.092c0.082,0.246,0.164,0.472,0.246,0.677
			c-0.083,0.78-0.369,1.23-0.861,1.354c-0.369-0.04-0.595-0.451-0.677-1.23c-0.083-0.205-0.165-0.41-0.246-0.615
			c-0.615-0.205-1.087-0.615-1.415-1.23c0.246-0.164,0.492-0.308,0.738-0.431c-0.534-1.354-1.21-3.077-2.03-5.168
			c-1.395-3.773-2.482-6.03-3.261-6.768c0-0.533,0.246-0.882,0.738-1.046C7.467,20.485,8.452,21.121,8.781,22.351z M19.179,30.719
			c0.697-3.527,1.046-6.214,1.046-8.06c0-0.205,0.02-0.328,0.062-0.369c-3.036,0.615-6.707,1.375-11.014,2.276
			c0.246,1.149,0.615,2.482,1.107,4c0.492,1.559,0.943,2.953,1.354,4.184c1.723-0.656,4-1.292,6.83-1.908
			C18.769,30.802,18.973,30.76,19.179,30.719z M30.008,28.935c0.41-0.697,0.82-1.456,1.23-2.276c1.354-2.584,2.154-4.451,2.4-5.599
			c0.163-0.369-0.083-0.554-0.738-0.554c-1.477,0-3.918,0.267-7.322,0.8c-0.944,0.164-1.969,0.349-3.076,0.554
			c0.492,0.329,0.8,0.759,0.923,1.292c-0.288,0.369-0.452,1.046-0.492,2.03c-0.165,1.395-0.492,3.036-0.984,4.922
			c3.035-0.574,5.639-0.984,7.814-1.23C29.885,28.915,29.966,28.935,30.008,28.935z M42.99,51.454
			c-4.267,0.123-8.02,0.02-11.26-0.308c-5.168-0.944-7.691-2.605-7.568-4.984c-0.083-3.979,0.164-7.753,0.738-11.321
			c0.082-1.107,0.39-1.805,0.923-2.092c0.616,0.123,0.943,0.575,0.985,1.354c-0.329,3.487-0.452,7.097-0.369,10.829
			c-0.206,1.6,1.743,2.811,5.845,3.63c2.584,0.41,5.865,0.513,9.844,0.308c0.697,0,1.066-0.288,1.107-0.861l0.185-12.183
			c0-0.738,0.062-1.128,0.185-1.169c0.41-0.123,0.697,0.144,0.862,0.8l1.354,11.567c0.409,0.738,0.677,1.538,0.8,2.399
			C46.375,50.9,45.164,51.577,42.99,51.454z M36.161,42.102c-0.411-0.041-0.677-0.225-0.8-0.554c-0.78-1.066-1.58-2.03-2.399-2.892
			c-0.78-0.861-1.518-1.578-2.215-2.153c-0.206-0.205-0.349-0.471-0.431-0.8c0.041-0.492,0.308-0.779,0.8-0.861
			c0.492,0,0.882,0.103,1.169,0.308c0.492,0.288,1.127,0.903,1.907,1.846c0.738,0.903,1.374,1.744,1.907,2.523
			c0.492,0.821,0.717,1.436,0.677,1.846C36.735,41.815,36.53,42.061,36.161,42.102z"/>
		<path fill="#4F301B" d="M85.568,9.492C89.137,9,93.238,8.59,97.874,8.261c2.42,0.206,3.732,0.923,3.938,2.153
			c0.205,0.984-2.523,2.872-8.184,5.661c-0.369,0.041-0.533-0.082-0.492-0.369c1.969-1.394,3.527-2.851,4.676-4.369
			c0.041-0.492-0.144-0.82-0.554-0.984c-1.846-0.164-4.041-0.143-6.583,0.062v4.307c0.451,1.887,1.517,2.892,3.199,3.015
			c2.338,0.246,4.389-0.185,6.153-1.292c0.779,0.123,1.086,0.636,0.923,1.538c-1.436,1.477-3.794,2.153-7.076,2.03
			c-2.953-0.451-4.737-1.969-5.353-4.553c0-1.682-0.062-3.281-0.185-4.799c-1.477,0.165-3.015,0.369-4.614,0.615
			c-1.437,0.206-2.749,0.431-3.938,0.677c0.041,0.083,0.102,0.144,0.185,0.185c0.533,0.492,0.861,1.498,0.984,3.015
			c-0.329,1.846-1.723,3.897-4.184,6.153c-0.247,0.41-0.575,0.615-0.985,0.615c-0.369,0-0.595-0.164-0.677-0.492
			c-0.123-0.246,0.082-0.697,0.615-1.354c0.533-0.615,1.108-1.477,1.723-2.584c0.655-1.066,0.984-2.112,0.984-3.138
			c-0.165-0.739-0.492-1.231-0.984-1.477c-0.206-0.04-0.308-0.163-0.308-0.369c-2.379,0.575-4.307,1.21-5.784,1.908
			c-0.698,3.856-1.395,6.748-2.092,8.675c-0.287,0.329-0.636,0.452-1.046,0.369c-0.452-0.123-0.615-0.471-0.492-1.046
			c0.246-0.779,0.574-2.461,0.984-5.045c0.451-2.625,0.84-5.496,1.169-8.614c0.328-0.164,0.677-0.225,1.046-0.185
			c0.82,0.206,1.209,0.718,1.169,1.538c-0.123,0.821-0.246,1.621-0.369,2.399c1.681-0.656,4.143-1.312,7.383-1.969
			c1.477-0.287,3.097-0.554,4.861-0.8c-0.657-0.697-1.292-1.313-1.908-1.846c-0.698-0.615-1.333-1.107-1.907-1.477
			c-0.246-0.205-0.411-0.492-0.492-0.861c0.041-0.492,0.308-0.779,0.8-0.861c0.533,0,0.943,0.103,1.23,0.308
			c0.451,0.206,1.005,0.677,1.662,1.415c0.655,0.698,1.189,1.333,1.6,1.908C85.362,8.856,85.568,9.246,85.568,9.492z M76.338,23.151
			c0.041,0.123,0.082,0.226,0.123,0.308c0.82-0.082,1.702-0.185,2.646-0.308c6.809-1.271,11.567-1.969,14.274-2.092
			c0.533-0.328,1.066-0.533,1.6-0.615c0.616,0.287,1.108,0.779,1.477,1.477c-0.369,0.78-0.78,1.887-1.23,3.322
			c-0.37,1.272-1.046,3.63-2.031,7.076c4.799-0.655,7.547-1.127,8.245-1.415c0.738-0.328,1.312-0.492,1.723-0.492
			c1.189,0.123,1.804,0.78,1.846,1.969c-0.083,0.534-0.308,1.683-0.677,3.446c-0.369,1.764-1.046,4.861-2.03,9.291
			c-0.944,4.47-1.375,7.26-1.292,8.368c-0.206,0.492-0.595,0.717-1.169,0.677c-2.092-0.452-4.021-1.19-5.784-2.215
			c-1.764-1.026-3.282-2.215-4.553-3.569c-0.083-0.206,0.102-0.349,0.554-0.431c1.148,0.492,2.666,1.086,4.553,1.784
			c1.928,0.738,3.261,1.107,4,1.107c0.328-0.123,0.902-2.522,1.723-7.199c0.738-4.676,1.189-7.937,1.354-9.783
			c0-0.369-0.246-0.533-0.739-0.492c-2.995,0.41-6.728,0.882-11.198,1.415c-4.472,0.534-10.358,1.21-17.659,2.03l-0.185-0.062
			c0.082,1.641,0.308,3.59,0.677,5.845c0.492,3.282,1.189,5.763,2.092,7.445c0,1.066-0.452,1.682-1.354,1.846
			c-1.23-1.764-2.256-5.147-3.077-10.152c-0.861-5.045-1.354-7.978-1.477-8.798c0.123-0.41,0.492-0.677,1.107-0.8
			c0.492,0,1.148,0.883,1.969,2.646c0.205-0.041,0.471-0.062,0.8-0.062c1.312-0.123,2.625-0.267,3.938-0.431
			c-0.246-4.061-0.944-7.547-2.092-10.46c-0.083-0.41,0.102-0.8,0.554-1.169C75.579,22.577,76.01,22.741,76.338,23.151z
			 M78.615,37.856c0.287,0.411,0.512,0.78,0.677,1.108c0.574-0.082,1.271-0.185,2.092-0.308c4.348-0.984,7.383-1.538,9.106-1.661
			c0.656-0.369,1.312-0.594,1.969-0.677c0.738,0.329,1.333,0.861,1.784,1.6c-0.41,0.369-0.841,0.883-1.292,1.539
			c-0.329,0.492-0.882,1.354-1.661,2.584c0.451-0.082,0.881-0.185,1.292-0.308c0.492-0.041,0.82,0.165,0.984,0.615
			c0.041,0.698-0.226,1.149-0.8,1.354c-2.83,0.575-6.604,1.539-11.321,2.892c-0.083,0-0.123-0.021-0.123-0.062
			c0.041,0.164,0.062,0.329,0.062,0.492c0,0.411-0.164,0.759-0.492,1.046c-0.411,0.328-0.841,0.164-1.292-0.492
			c-0.288-3.527-1.23-6.542-2.83-9.045c-0.083-0.409,0.102-0.8,0.554-1.169C77.855,37.241,78.286,37.405,78.615,37.856z
			 M78.431,34.103c1.763-0.164,3.527-0.348,5.292-0.554c-0.042-0.123-0.062-0.246-0.062-0.369c0.04-1.969-0.062-3.138-0.308-3.507
			c0-0.123,0.02-0.246,0.062-0.369c-0.616,0.123-1.169,0.246-1.662,0.369c-0.656,0.042-1.149-0.225-1.477-0.8
			c-0.042-0.492,0.328-0.84,1.107-1.046c3.24-0.574,6.891-1.066,10.952-1.477c0.082,0,0.143,0.021,0.185,0.062
			c0.246-1.23,0.389-2.173,0.431-2.83c0.082-0.328-0.103-0.492-0.554-0.492c-0.944,0-2.544,0.165-4.799,0.492
			c-2.215,0.329-5.702,0.964-10.459,1.907C77.835,27.827,78.266,30.699,78.431,34.103z M88.521,42.717
			c0.205-0.369,0.451-0.84,0.739-1.415c0.369-0.738,0.594-1.271,0.677-1.6c0.123-0.369-0.103-0.554-0.677-0.554
			c-0.534,0-1.437,0.123-2.708,0.369c-1.272,0.287-3.282,0.821-6.03,1.6c-0.123,0-0.206-0.02-0.246-0.062
			c0.369,1.107,0.656,2.318,0.861,3.63l0.123-0.062C83.639,43.969,86.06,43.332,88.521,42.717z M85.629,33.303
			c1.682-0.246,3.363-0.471,5.045-0.677c0.246-0.04,0.451-0.062,0.615-0.062c0.246-1.024,0.533-2.44,0.861-4.245
			c0.041-0.082,0.062-0.144,0.062-0.185c-0.206-0.041-0.411-0.062-0.615-0.062c-2.133,0.164-4.225,0.431-6.276,0.8
			c0.123,0.165,0.225,0.329,0.308,0.492c-0.206,0.575-0.308,1.333-0.308,2.276C85.322,32.175,85.424,32.729,85.629,33.303z"/>
		<path fill="#4F301B" d="M126.977,22.043c-1.313-0.123-2.153-0.738-2.522-1.846c0-0.369,0.389-0.594,1.169-0.677
			c0.164,0.369,0.759,0.534,1.785,0.492c1.024,0.123,3.65-0.431,7.875-1.661c4.224-1.23,6.87-1.989,7.937-2.276
			c1.107-0.287,1.886-0.431,2.338-0.431c0.616,0.246,0.963,0.615,1.046,1.107c-0.288,0.492-1.046,0.821-2.277,0.984
			c-0.903-0.041-3.713,0.657-8.429,2.092C131.263,21.265,128.289,22.003,126.977,22.043z M137.56,44.624
			c0.41,0.575,0.431,1.087,0.062,1.539c-0.657,0.083-1.251-0.082-1.784-0.492c-0.984-0.943-1.99-2.378-3.015-4.307
			c-0.984-1.886-1.682-3.609-2.092-5.168c-0.123-0.492,0.062-0.881,0.554-1.169c0.451-0.123,0.882,0,1.292,0.369
			c0.164,0.698,0.348,1.333,0.554,1.907c3.773-1.394,6.399-2.44,7.876-3.138c1.558-0.738,2.851-1.107,3.876-1.107
			c1.025,0.041,1.517,0.492,1.477,1.354c-0.123,0.534-1.19,1.846-3.2,3.938c-0.615,0.616-1.21,1.231-1.784,1.846
			c0.984-0.533,1.969-1.066,2.953-1.6c0.41,0,0.717,0.185,0.923,0.554c0.041,0.575-0.083,0.984-0.369,1.23
			c-0.369,0.287-1.375,0.821-3.015,1.6C140.39,42.676,138.954,43.558,137.56,44.624z M131.653,30.719
			c2.501-0.287,4.963-0.923,7.383-1.907c2.501-0.943,3.938-1.456,4.307-1.538c0.451,0,0.8,0.246,1.046,0.738
			c-0.083,0.698-0.41,1.19-0.984,1.477c-2.338,0.78-4.41,1.437-6.214,1.969c-1.723,0.492-3.179,0.698-4.369,0.615
			C132.166,31.949,131.776,31.499,131.653,30.719z M131.714,24.997c2.543-0.286,5.045-0.923,7.506-1.907
			c2.543-0.984,4-1.517,4.369-1.6c0.492,0,0.861,0.267,1.107,0.8c-0.083,0.698-0.431,1.21-1.046,1.538
			c-2.338,0.821-4.41,1.498-6.214,2.03c-1.764,0.492-3.241,0.698-4.43,0.615C132.268,26.35,131.837,25.858,131.714,24.997z
			 M141.99,36.072c0.041-0.205-0.083-0.369-0.369-0.492l-7.937,3.199c0.328,0.78,0.697,1.539,1.107,2.277
			c0.492,0.78,0.923,1.395,1.292,1.846c1.354-1.066,2.461-2.132,3.322-3.199C140.472,38.431,141.333,37.221,141.99,36.072z
			 M135.468,9.738c-0.575-0.205-0.861-0.615-0.861-1.23c0.123-0.369,0.451-0.574,0.984-0.616c1.477,0.123,2.851,0.698,4.123,1.723
			c1.271,1.026,2.071,2.174,2.399,3.445c-0.042,0.657-0.308,1.026-0.8,1.107c-0.329-0.04-0.615-0.205-0.861-0.492
			c-0.246-0.901-0.883-1.763-1.908-2.584C137.518,10.313,136.493,9.861,135.468,9.738z M150.111,32.134
			c0.246-0.082,0.574-0.123,0.984-0.123c1.436-0.286,3.035-0.655,4.799-1.107c1.763-0.41,3.855-1.066,6.276-1.969
			c1.354-0.123,2.03,0.472,2.03,1.784c-0.821,2.379-1.948,5.148-3.384,8.307c-0.246,0.575-0.513,1.087-0.8,1.538
			c1.886,1.436,3.917,2.933,6.091,4.492l6.153,2.953c0.082,0.164,0.143,0.369,0.185,0.615c-0.165,0.287-0.349,0.471-0.554,0.554
			c-1.764-0.329-4.041-1.067-6.83-2.215c-1.19-0.328-3.303-1.743-6.337-4.246c-0.821,1.313-1.703,2.379-2.646,3.2
			c-1.682,1.436-3.63,2.215-5.845,2.338c-2.256,0.041-4.328-0.431-6.214-1.415c-0.287-0.246-0.39-0.451-0.308-0.615
			c0.902,0.492,2.297,0.882,4.184,1.169c3.199,0.083,5.907-1.436,8.122-4.553c0.41-0.533,0.759-1.046,1.046-1.538
			c-2.42-2.132-5.271-4.758-8.552-7.875c-0.492-0.533-0.411-1.066,0.246-1.6C149.291,31.745,149.742,31.848,150.111,32.134z
			 M148.635,28.258c-0.206,0.615-0.595,0.923-1.169,0.923c-0.288-0.164-0.472-0.554-0.554-1.169
			c0.615-1.763,1.127-4.061,1.538-6.891c0.369-2.831,0.615-5.312,0.738-7.445c-0.083-1.147-0.472-2.03-1.169-2.646
			c0-0.41,0.246-0.656,0.738-0.738c0.369,0.042,0.902,0.288,1.6,0.738c0.697,0.492,1.148,1.375,1.354,2.646
			c-0.123,1.026-0.533,3.344-1.23,6.953C149.783,24.197,149.167,26.741,148.635,28.258z M158.172,39.21
			c1.147-2.255,2.03-4.655,2.646-7.199c-0.083-0.328-0.246-0.554-0.492-0.677c-1.272,0.123-4.021,1.046-8.245,2.769
			C153.72,35.662,155.751,37.364,158.172,39.21z M161.74,7.769c0.615,0.206,0.963,0.718,1.046,1.539
			c0,0.452-0.103,1.067-0.308,1.846c-0.206,0.78-0.657,4.943-1.354,12.49c0.082,0.411,0.287,0.698,0.615,0.861
			c4.881,0.123,8.224-0.02,10.029-0.431c0.246-0.205,0.389-1.004,0.431-2.399c0-1.394-0.042-2.994-0.123-4.799
			c0.082-0.205,0.246-0.287,0.492-0.246c0.246,0.165,0.615,1.272,1.107,3.322c0.492,2.092,0.697,3.938,0.615,5.538
			c-0.206,0.534-0.657,0.903-1.354,1.108c-2.421,0.206-6.194,0.308-11.321,0.308c-0.615-0.082-1.169-0.348-1.661-0.8
			c-0.575-0.492-0.883-1.107-0.923-1.846c0.04-0.779,0.225-2.953,0.554-6.522c0.286-3.609,0.451-5.865,0.492-6.768
			c-0.083-0.287-0.206-0.431-0.369-0.431c-0.288,0-1.129,0.349-2.523,1.046c-1.436,0.615-2.399,0.944-2.892,0.984
			c-0.411-0.082-0.78-0.287-1.107-0.615c-0.329-0.246-0.492-0.574-0.492-0.984c-0.042-0.328,0.286-0.512,0.984-0.554
			c3.568-0.943,5.742-1.62,6.522-2.03C161.022,7.933,161.535,7.729,161.74,7.769z"/>
		<path fill="#4F301B" d="M190.166,21.428c-1.271-0.123-2.092-0.717-2.461-1.785c0-0.328,0.389-0.532,1.169-0.615
			c0.164,0.329,0.697,0.472,1.6,0.431c1.147,0.123,3.958-0.532,8.429-1.969c4.512-1.477,7.342-2.378,8.491-2.707
			c1.148-0.328,1.969-0.492,2.461-0.492c0.615,0.246,0.963,0.615,1.046,1.107c-0.288,0.492-1.046,0.821-2.277,0.984
			c-0.984-0.041-3.979,0.78-8.983,2.461C194.719,20.526,191.56,21.388,190.166,21.428z M202.287,43.763
			c0.451,0.575,0.471,1.067,0.062,1.477c-0.656,0.123-1.251-0.021-1.784-0.431c-0.984-0.943-1.99-2.378-3.015-4.307
			c-0.984-1.886-1.683-3.609-2.092-5.168c-0.123-0.492,0.062-0.882,0.554-1.169c0.451-0.123,0.902,0,1.354,0.369
			c0.123,0.698,0.286,1.333,0.492,1.907c3.814-1.394,6.439-2.44,7.875-3.138c1.559-0.739,2.851-1.108,3.876-1.108
			c1.024,0.042,1.517,0.493,1.477,1.354c-0.123,0.533-1.19,1.846-3.2,3.938c-0.615,0.657-1.19,1.292-1.723,1.908
			c0.943-0.533,1.907-1.086,2.892-1.662c0.409,0,0.717,0.185,0.923,0.554c0.04,0.575-0.083,0.985-0.369,1.231
			c-0.369,0.287-1.375,0.821-3.015,1.6C205.118,41.815,203.681,42.697,202.287,43.763z M196.38,29.919
			c2.502-0.287,4.984-0.943,7.445-1.969c2.501-0.984,3.938-1.517,4.307-1.6c0.451,0,0.779,0.247,0.985,0.739
			c-0.083,0.615-0.391,1.046-0.923,1.292c-2.379,0.821-4.491,1.498-6.337,2.03c-1.764,0.534-3.261,0.76-4.491,0.677
			C196.79,30.965,196.462,30.576,196.38,29.919z M196.442,24.135c2.543-0.287,5.066-0.943,7.568-1.969
			c2.584-0.984,4.061-1.517,4.43-1.6c0.451,0,0.779,0.246,0.985,0.738c-0.083,0.615-0.391,1.046-0.923,1.292
			c-2.379,0.903-4.491,1.641-6.337,2.215c-1.764,0.575-3.261,0.821-4.491,0.738C196.975,25.427,196.565,24.957,196.442,24.135z
			 M197.98,9.43c-0.615-0.328-0.923-0.8-0.923-1.416c0.123-0.409,0.492-0.635,1.107-0.677c1.681,0.123,3.24,0.657,4.676,1.6
			c1.477,0.944,2.378,2.01,2.707,3.199c-0.042,0.738-0.349,1.149-0.923,1.23c-0.369-0.04-0.657-0.225-0.861-0.554
			c-0.329-0.82-1.067-1.558-2.215-2.215C200.359,9.902,199.169,9.513,197.98,9.43z M206.717,35.21
			c0.041-0.205-0.083-0.348-0.369-0.431l-7.875,3.138c0.328,0.821,0.677,1.58,1.046,2.277c0.451,0.821,0.861,1.457,1.23,1.907
			c1.354-1.107,2.481-2.194,3.384-3.261C205.199,37.57,206.061,36.359,206.717,35.21z M213.301,23.335
			c-1.395-0.123-2.276-0.779-2.646-1.969c0-0.369,0.431-0.594,1.292-0.677c0.164,0.369,0.738,0.533,1.723,0.492
			c1.313,0.123,4.492-0.431,9.537-1.662c0.574-0.163,1.148-0.308,1.723-0.431l-0.123-11.937c-0.165-1.354,0.246-2.009,1.23-1.969
			c0.615,0.165,1.066,0.615,1.354,1.354l-0.37,12.06c2.912-0.697,4.84-1.127,5.784-1.292c1.271-0.287,2.194-0.431,2.769-0.431
			c0.615,0.206,0.963,0.575,1.046,1.107c-0.288,0.492-1.046,0.821-2.276,0.984c-0.903-0.04-3.344,0.431-7.322,1.416l-0.492,31.441
			c-0.041,0.655-0.144,1.23-0.308,1.723l-0.308,0.492l-0.308-0.185c-0.287-0.903-0.431-1.744-0.431-2.522l-0.246-30.395
			c-0.329,0.083-0.595,0.144-0.8,0.185C218.469,22.557,214.859,23.295,213.301,23.335z"/>
	</g>
</g>
</svg>
