<?xml version="1.0" encoding="utf-8"?>
<!-- Generator: Adobe Illustrator 16.0.2, SVG Export Plug-In . SVG Version: 6.00 Build 0)  -->
<!DOCTYPE svg PUBLIC "-//W3C//DTD SVG 1.1//EN" "http://www.w3.org/Graphics/SVG/1.1/DTD/svg11.dtd">
<svg version="1.1" id="圖層_1" xmlns="http://www.w3.org/2000/svg" xmlns:xlink="http://www.w3.org/1999/xlink" x="0px" y="0px"
	 width="143.5px" height="45.767px" viewBox="0 0 143.5 45.767" enable-background="new 0 0 143.5 45.767" xml:space="preserve">
<polygon fill="#FFE9F0" points="45.729,0 30.117,17.287 30.117,26.453 45.729,15.627 "/>
<polygon fill="#FFE9F0" points="29.958,29.022 36.301,43.281 25.648,43.281 25.039,42.061 25.039,41.382 "/>
<polygon fill="#FFE9F0" points="1.106,0 16.718,17.287 16.718,26.453 1.106,15.627 "/>
<g>
	<polygon fill="#FFE9F0" points="23.426,42.103 23.409,42.103 22.604,42.103 21.797,43.281 23.409,43.281 23.426,43.281 
		25.039,43.281 24.231,42.103 	"/>
	<polygon fill="#FFE9F0" points="23.409,41.466 23.426,41.466 24.224,41.466 29.345,28.229 23.426,28.229 23.409,28.229 
		17.49,28.229 22.611,41.466 	"/>
</g>
<polygon fill="#FFE9F0" points="16.878,29.022 10.535,43.281 21.187,43.281 21.797,42.061 21.797,41.382 "/>
<ellipse fill="#723925" cx="18.622" cy="41.399" rx="0.682" ry="1.184"/>
<ellipse fill="#723925" cx="27.941" cy="41.436" rx="0.661" ry="1.147"/>
<g>
	<path fill="#FFE9F0" d="M46.555,30.674c0.5-0.052,1.112-0.13,1.837-0.233c0.518-0.104,1-0.199,1.449-0.285
		c0.19-0.208,0.379-0.448,0.57-0.725c0.293-0.414,0.69-0.932,1.19-1.552c0.483-0.621,0.854-1.147,1.113-1.579
		c-0.018-0.104-0.087-0.156-0.208-0.156c-0.328,0.052-0.621,0.096-0.88,0.13c-0.259,0.052-0.543,0.104-0.854,0.155
		c-0.293,0.052-0.543,0.078-0.75,0.078c-0.138-0.052-0.25-0.121-0.336-0.207c-0.208,0.259-0.406,0.492-0.595,0.699
		c-0.449,0.5-0.82,0.863-1.113,1.087c-0.277,0.258-0.562,0.423-0.854,0.492c-0.138-0.017-0.225-0.078-0.259-0.182
		c0.518-0.414,1.018-0.931,1.502-1.553c0.482-0.638,0.888-1.173,1.216-1.604c0.327-0.431,0.552-0.802,0.672-1.113
		c0.104-0.207,0.181-0.371,0.233-0.492c0.035-0.121,0.121-0.19,0.259-0.208c0.293,0.035,0.5,0.122,0.621,0.26
		c0.104,0.138,0.164,0.284,0.182,0.439c-0.087,0.138-0.406,0.518-0.958,1.139c-0.121,0.138-0.224,0.258-0.311,0.362
		c1.139-0.052,2.709-0.388,4.711-1.009c0.207,0.086,0.354,0.216,0.44,0.388c-0.052,0.155-0.129,0.242-0.233,0.259
		c-0.346,0.155-0.682,0.414-1.01,0.776c-0.345,0.362-0.776,0.812-1.294,1.346c-0.535,0.553-1.13,1.208-1.786,1.967
		c-0.242,0.294-0.449,0.518-0.622,0.673c3.141-0.586,5.401-0.923,6.781-1.01c0.293-0.155,0.596-0.25,0.906-0.285
		c0.345,0.139,0.621,0.354,0.828,0.647c-0.38,0.397-0.769,0.941-1.165,1.631c-0.397,0.69-1.114,2.01-2.148,3.96
		c-0.173,0.19-0.398,0.302-0.673,0.337c-0.155-0.069-0.276-0.208-0.362-0.415c0.121-0.172,0.241-0.372,0.362-0.595
		c-1.07,0.104-2.114,0.268-3.131,0.492c-0.087,0.362-0.182,0.725-0.285,1.086c-0.432,1.674-1.259,3.236-2.485,4.685
		c-1.208,1.432-2.666,2.502-4.374,3.209l-0.232-0.078c1.431-0.812,2.699-1.863,3.804-3.158c1.087-1.277,1.872-2.977,2.354-5.099
		c0.035-0.12,0.06-0.242,0.078-0.362c-0.915,0.259-1.778,0.552-2.588,0.88c0.035,0.104,0.069,0.199,0.104,0.285
		c-0.034,0.328-0.155,0.518-0.362,0.569c-0.155-0.017-0.25-0.189-0.285-0.518c-0.035-0.085-0.069-0.172-0.104-0.258
		c-0.259-0.086-0.458-0.26-0.595-0.518c0.104-0.068,0.207-0.129,0.31-0.181c-0.224-0.569-0.509-1.294-0.854-2.174
		c-0.586-1.587-1.044-2.536-1.372-2.847c0-0.224,0.104-0.371,0.31-0.439C46.002,29.888,46.416,30.156,46.555,30.674z M50.929,34.193
		c0.293-1.484,0.44-2.614,0.44-3.391c0-0.086,0.009-0.138,0.026-0.155c-1.277,0.259-2.821,0.578-4.633,0.958
		c0.103,0.483,0.259,1.044,0.465,1.682c0.208,0.656,0.397,1.243,0.57,1.76c0.725-0.275,1.682-0.543,2.873-0.802
		C50.756,34.228,50.842,34.211,50.929,34.193z M55.484,33.443c0.172-0.293,0.345-0.613,0.517-0.958
		c0.57-1.087,0.906-1.872,1.01-2.355c0.069-0.156-0.035-0.234-0.311-0.234c-0.621,0-1.647,0.112-3.08,0.337
		c-0.396,0.069-0.828,0.146-1.294,0.233c0.207,0.138,0.336,0.319,0.389,0.543c-0.121,0.156-0.19,0.44-0.208,0.854
		c-0.069,0.587-0.207,1.277-0.414,2.07c1.277-0.241,2.372-0.414,3.287-0.518C55.432,33.434,55.466,33.443,55.484,33.443z
		 M60.945,42.916c-1.795,0.052-3.374,0.008-4.737-0.13c-2.173-0.396-3.235-1.096-3.183-2.096c-0.035-1.674,0.068-3.262,0.311-4.762
		c0.034-0.466,0.164-0.76,0.388-0.881c0.259,0.052,0.397,0.242,0.415,0.57c-0.138,1.467-0.19,2.985-0.156,4.556
		c-0.086,0.672,0.733,1.181,2.459,1.526c1.087,0.172,2.467,0.215,4.141,0.13c0.293,0,0.448-0.121,0.466-0.363l0.078-5.125
		c0-0.31,0.026-0.474,0.078-0.492c0.172-0.052,0.292,0.061,0.362,0.336l0.57,4.866c0.172,0.311,0.284,0.647,0.336,1.009
		C62.368,42.683,61.859,42.967,60.945,42.916z M58.072,38.981c-0.173-0.016-0.285-0.094-0.336-0.233
		c-0.329-0.448-0.665-0.854-1.01-1.216c-0.327-0.362-0.638-0.664-0.931-0.905c-0.087-0.086-0.147-0.199-0.182-0.337
		c0.017-0.207,0.129-0.328,0.336-0.362c0.207,0,0.371,0.043,0.492,0.129c0.207,0.121,0.474,0.38,0.803,0.776
		c0.311,0.379,0.578,0.733,0.802,1.062c0.207,0.345,0.301,0.604,0.285,0.776C58.313,38.861,58.228,38.965,58.072,38.981z"/>
	<path fill="#FFE9F0" d="M78.855,25.264c1.5-0.207,3.226-0.379,5.176-0.518c1.017,0.086,1.569,0.388,1.656,0.906
		c0.086,0.414-1.061,1.208-3.442,2.381c-0.156,0.018-0.225-0.034-0.207-0.155c0.828-0.587,1.483-1.199,1.967-1.838
		c0.017-0.207-0.061-0.345-0.233-0.414c-0.776-0.069-1.699-0.061-2.769,0.026v1.812c0.189,0.793,0.638,1.216,1.346,1.268
		c0.983,0.104,1.846-0.078,2.588-0.543c0.327,0.052,0.457,0.268,0.388,0.647c-0.604,0.621-1.596,0.906-2.976,0.854
		c-1.242-0.189-1.994-0.828-2.252-1.915c0-0.707-0.026-1.38-0.078-2.019c-0.622,0.069-1.268,0.155-1.941,0.258
		c-0.604,0.087-1.156,0.182-1.656,0.285c0.017,0.035,0.042,0.061,0.078,0.078c0.224,0.207,0.362,0.63,0.414,1.269
		c-0.138,0.776-0.724,1.639-1.759,2.588c-0.104,0.172-0.242,0.258-0.414,0.258c-0.155,0-0.25-0.069-0.284-0.207
		c-0.052-0.104,0.034-0.293,0.258-0.57c0.225-0.259,0.466-0.621,0.725-1.087c0.276-0.449,0.415-0.889,0.415-1.32
		c-0.069-0.311-0.208-0.518-0.415-0.621c-0.086-0.017-0.129-0.068-0.129-0.155c-1.001,0.242-1.812,0.509-2.433,0.802
		c-0.293,1.623-0.586,2.838-0.879,3.649c-0.122,0.139-0.268,0.19-0.44,0.155c-0.191-0.051-0.259-0.198-0.207-0.439
		c0.103-0.328,0.241-1.036,0.414-2.122c0.189-1.104,0.353-2.312,0.491-3.624c0.138-0.069,0.285-0.094,0.44-0.078
		c0.345,0.087,0.509,0.302,0.491,0.646c-0.051,0.346-0.104,0.682-0.155,1.01c0.707-0.275,1.742-0.552,3.105-0.828
		c0.621-0.12,1.303-0.233,2.044-0.336c-0.276-0.293-0.543-0.552-0.802-0.777c-0.293-0.258-0.561-0.465-0.802-0.621
		c-0.104-0.086-0.172-0.208-0.207-0.362c0.017-0.208,0.129-0.328,0.336-0.363c0.224,0,0.397,0.043,0.518,0.129
		c0.19,0.086,0.423,0.285,0.699,0.596c0.275,0.293,0.5,0.561,0.673,0.802C78.769,24.997,78.855,25.161,78.855,25.264z M74.973,31.01
		c0.017,0.052,0.034,0.095,0.052,0.129c0.345-0.034,0.715-0.077,1.112-0.129c2.864-0.535,4.866-0.828,6.005-0.879
		c0.224-0.139,0.449-0.225,0.672-0.259c0.259,0.121,0.466,0.328,0.621,0.621c-0.155,0.328-0.327,0.793-0.518,1.398
		c-0.155,0.535-0.44,1.527-0.854,2.976c2.019-0.275,3.174-0.475,3.468-0.595c0.311-0.139,0.552-0.208,0.725-0.208
		c0.5,0.051,0.759,0.328,0.777,0.828c-0.035,0.225-0.129,0.708-0.285,1.449c-0.155,0.742-0.439,2.044-0.854,3.908
		c-0.397,1.881-0.578,3.054-0.543,3.52c-0.087,0.207-0.251,0.302-0.492,0.285c-0.88-0.19-1.691-0.5-2.433-0.932
		c-0.742-0.432-1.38-0.932-1.915-1.501c-0.035-0.087,0.043-0.147,0.233-0.182c0.483,0.208,1.122,0.458,1.916,0.75
		c0.811,0.311,1.372,0.466,1.682,0.466c0.138-0.052,0.379-1.061,0.725-3.028c0.311-1.967,0.5-3.338,0.569-4.115
		c0-0.155-0.104-0.224-0.311-0.207c-1.26,0.173-2.831,0.371-4.71,0.595c-1.88,0.225-4.357,0.51-7.428,0.854l-0.078-0.026
		c0.035,0.69,0.13,1.51,0.285,2.458c0.208,1.381,0.5,2.424,0.88,3.132c0,0.449-0.19,0.708-0.57,0.776
		c-0.518-0.742-0.948-2.165-1.293-4.27c-0.363-2.123-0.57-3.356-0.622-3.701c0.052-0.172,0.208-0.285,0.466-0.336
		c0.207,0,0.483,0.372,0.828,1.113c0.086-0.017,0.199-0.026,0.337-0.026c0.552-0.051,1.104-0.111,1.657-0.181
		c-0.104-1.708-0.398-3.175-0.88-4.4c-0.035-0.172,0.043-0.336,0.232-0.492C74.653,30.768,74.834,30.837,74.973,31.01z
		 M75.93,37.195c0.12,0.173,0.216,0.328,0.285,0.466c0.241-0.034,0.535-0.077,0.88-0.129c1.829-0.414,3.106-0.646,3.831-0.699
		c0.276-0.155,0.552-0.25,0.828-0.285c0.311,0.138,0.561,0.362,0.75,0.673c-0.172,0.155-0.354,0.371-0.543,0.646
		c-0.139,0.207-0.372,0.57-0.699,1.087c0.19-0.034,0.371-0.078,0.544-0.129c0.207-0.017,0.345,0.069,0.414,0.258
		c0.017,0.294-0.095,0.483-0.336,0.57c-1.19,0.242-2.778,0.647-4.762,1.216c-0.034,0-0.051-0.008-0.051-0.026
		c0.017,0.069,0.025,0.139,0.025,0.207c0,0.172-0.069,0.32-0.207,0.44c-0.172,0.138-0.354,0.069-0.543-0.207
		c-0.121-1.484-0.518-2.752-1.191-3.804c-0.035-0.172,0.043-0.337,0.233-0.492C75.61,36.937,75.792,37.006,75.93,37.195z
		 M75.853,35.617c0.742-0.068,1.483-0.146,2.225-0.233c-0.017-0.052-0.025-0.104-0.025-0.155c0.017-0.828-0.026-1.32-0.129-1.475
		c0-0.052,0.008-0.103,0.025-0.155c-0.258,0.052-0.492,0.104-0.699,0.155c-0.276,0.017-0.482-0.095-0.621-0.336
		c-0.018-0.207,0.139-0.354,0.466-0.44c1.363-0.241,2.898-0.448,4.607-0.621c0.034,0,0.061,0.009,0.078,0.026
		c0.104-0.518,0.164-0.915,0.182-1.191c0.035-0.138-0.043-0.207-0.233-0.207c-0.397,0-1.07,0.069-2.019,0.207
		c-0.932,0.138-2.398,0.405-4.4,0.803C75.603,32.977,75.784,34.185,75.853,35.617z M80.097,39.24
		c0.086-0.156,0.19-0.354,0.311-0.595c0.155-0.311,0.25-0.535,0.285-0.673c0.052-0.155-0.043-0.232-0.285-0.232
		c-0.224,0-0.604,0.052-1.139,0.155c-0.535,0.121-1.381,0.345-2.537,0.672c-0.051,0-0.086-0.009-0.104-0.025
		c0.155,0.465,0.276,0.976,0.362,1.527l0.052-0.026C78.044,39.766,79.062,39.499,80.097,39.24z M78.881,35.28
		c0.707-0.104,1.415-0.198,2.123-0.285c0.104-0.017,0.189-0.026,0.258-0.026c0.104-0.431,0.225-1.027,0.363-1.786
		c0.017-0.034,0.025-0.06,0.025-0.077c-0.086-0.017-0.173-0.026-0.259-0.026c-0.897,0.069-1.777,0.181-2.64,0.337
		c0.051,0.069,0.094,0.138,0.129,0.207c-0.086,0.242-0.129,0.561-0.129,0.958C78.751,34.806,78.794,35.039,78.881,35.28z"/>
	<path fill="#FFE9F0" d="M96.273,30.544c-0.552-0.052-0.906-0.31-1.061-0.777c0-0.155,0.164-0.25,0.492-0.285
		c0.068,0.156,0.319,0.225,0.75,0.207c0.431,0.052,1.535-0.181,3.313-0.699c1.777-0.517,2.89-0.836,3.339-0.958
		c0.465-0.12,0.793-0.181,0.983-0.181c0.259,0.104,0.405,0.258,0.44,0.466c-0.122,0.207-0.44,0.345-0.958,0.414
		c-0.379-0.017-1.561,0.276-3.545,0.88C98.076,30.216,96.826,30.527,96.273,30.544z M100.725,40.042
		c0.172,0.242,0.182,0.458,0.026,0.647c-0.276,0.034-0.527-0.035-0.75-0.207c-0.414-0.397-0.837-1.001-1.268-1.812
		c-0.414-0.793-0.708-1.519-0.88-2.174c-0.052-0.207,0.026-0.371,0.233-0.492c0.189-0.052,0.371,0,0.543,0.155
		c0.069,0.293,0.146,0.561,0.233,0.803c1.587-0.586,2.692-1.027,3.313-1.32c0.655-0.311,1.199-0.466,1.63-0.466
		c0.431,0.017,0.638,0.207,0.622,0.569c-0.052,0.225-0.501,0.776-1.346,1.657c-0.259,0.258-0.509,0.517-0.75,0.776
		c0.414-0.224,0.828-0.449,1.242-0.673c0.173,0,0.302,0.078,0.388,0.233c0.018,0.242-0.034,0.414-0.155,0.517
		c-0.155,0.121-0.578,0.346-1.269,0.673C101.915,39.223,101.312,39.594,100.725,40.042z M98.24,34.193
		c1.053-0.121,2.088-0.388,3.106-0.803c1.052-0.396,1.656-0.612,1.812-0.647c0.189,0,0.336,0.104,0.44,0.311
		c-0.034,0.293-0.172,0.5-0.414,0.622c-0.984,0.328-1.855,0.604-2.614,0.828c-0.725,0.208-1.337,0.293-1.837,0.259
		C98.456,34.711,98.292,34.521,98.24,34.193z M98.266,31.787c1.07-0.121,2.122-0.388,3.158-0.803
		c1.07-0.414,1.682-0.638,1.837-0.673c0.207,0,0.362,0.113,0.466,0.337c-0.034,0.293-0.181,0.509-0.439,0.647
		c-0.984,0.346-1.856,0.63-2.615,0.854c-0.742,0.207-1.363,0.294-1.863,0.259C98.499,32.355,98.318,32.148,98.266,31.787z
		 M102.588,36.445c0.017-0.086-0.035-0.155-0.156-0.207l-3.338,1.346c0.138,0.328,0.293,0.647,0.466,0.958
		c0.207,0.328,0.388,0.586,0.543,0.776c0.569-0.448,1.035-0.896,1.398-1.346C101.95,37.438,102.313,36.929,102.588,36.445z
		 M99.845,25.368c-0.242-0.086-0.362-0.259-0.362-0.518c0.052-0.156,0.189-0.242,0.414-0.259c0.621,0.052,1.199,0.294,1.735,0.725
		c0.534,0.433,0.87,0.915,1.008,1.45c-0.017,0.276-0.129,0.432-0.336,0.466c-0.138-0.018-0.258-0.087-0.362-0.207
		c-0.104-0.38-0.371-0.742-0.803-1.087C100.707,25.609,100.276,25.419,99.845,25.368z M106.004,34.789
		c0.104-0.035,0.242-0.052,0.415-0.052c0.603-0.12,1.276-0.275,2.019-0.465c0.742-0.173,1.622-0.449,2.64-0.829
		c0.569-0.052,0.854,0.198,0.854,0.75c-0.346,1-0.82,2.166-1.424,3.494c-0.104,0.243-0.215,0.458-0.336,0.647
		c0.793,0.604,1.647,1.233,2.563,1.889l2.588,1.242c0.035,0.069,0.06,0.156,0.078,0.259c-0.07,0.12-0.147,0.198-0.233,0.232
		c-0.742-0.138-1.7-0.449-2.873-0.931c-0.501-0.138-1.389-0.734-2.666-1.786c-0.345,0.553-0.716,1.001-1.113,1.346
		c-0.708,0.604-1.527,0.932-2.459,0.983c-0.949,0.017-1.82-0.181-2.614-0.595c-0.121-0.104-0.164-0.19-0.129-0.259
		c0.38,0.208,0.966,0.372,1.76,0.492c1.346,0.035,2.485-0.604,3.416-1.916c0.172-0.224,0.319-0.44,0.44-0.646
		c-1.018-0.897-2.217-2.001-3.598-3.313c-0.207-0.224-0.172-0.448,0.104-0.673C105.659,34.624,105.849,34.668,106.004,34.789z
		 M105.383,33.158c-0.087,0.259-0.25,0.389-0.492,0.389c-0.121-0.07-0.198-0.233-0.232-0.493c0.258-0.741,0.474-1.708,0.647-2.898
		c0.155-1.191,0.259-2.234,0.31-3.131c-0.035-0.483-0.198-0.854-0.492-1.114c0-0.172,0.104-0.275,0.311-0.31
		c0.156,0.018,0.379,0.121,0.673,0.31c0.293,0.208,0.483,0.579,0.569,1.114c-0.051,0.431-0.224,1.406-0.518,2.924
		C105.866,31.45,105.607,32.52,105.383,33.158z M109.396,37.765c0.483-0.948,0.854-1.958,1.112-3.028
		c-0.035-0.138-0.104-0.233-0.207-0.285c-0.535,0.052-1.691,0.44-3.468,1.165C107.523,36.273,108.377,36.989,109.396,37.765z
		 M110.896,24.54c0.259,0.086,0.405,0.302,0.439,0.647c0,0.19-0.043,0.449-0.129,0.776c-0.086,0.328-0.277,2.08-0.569,5.254
		c0.034,0.172,0.12,0.294,0.258,0.362c2.053,0.052,3.459-0.008,4.219-0.181c0.104-0.086,0.164-0.423,0.181-1.01
		c0-0.586-0.018-1.259-0.052-2.019c0.035-0.086,0.104-0.121,0.208-0.104c0.104,0.07,0.259,0.535,0.466,1.397
		c0.207,0.88,0.293,1.657,0.258,2.33c-0.086,0.224-0.276,0.38-0.569,0.465c-1.019,0.087-2.605,0.13-4.762,0.13
		c-0.259-0.034-0.492-0.146-0.699-0.337c-0.241-0.207-0.371-0.465-0.388-0.776c0.018-0.327,0.095-1.242,0.233-2.744
		c0.121-1.518,0.19-2.467,0.207-2.847c-0.035-0.121-0.086-0.181-0.155-0.181c-0.121,0-0.474,0.147-1.061,0.439
		c-0.604,0.259-1.01,0.397-1.217,0.415c-0.173-0.035-0.328-0.121-0.466-0.259c-0.138-0.104-0.207-0.241-0.207-0.414
		c-0.017-0.137,0.121-0.215,0.415-0.233c1.501-0.397,2.416-0.682,2.743-0.854C110.594,24.608,110.81,24.522,110.896,24.54z"/>
	<path fill="#FFE9F0" d="M122.853,30.285c-0.534-0.051-0.879-0.302-1.035-0.75c0-0.138,0.164-0.224,0.492-0.259
		c0.068,0.139,0.293,0.199,0.673,0.181c0.483,0.052,1.665-0.224,3.545-0.828c1.899-0.621,3.089-1,3.572-1.138
		c0.483-0.139,0.828-0.208,1.036-0.208c0.259,0.104,0.405,0.259,0.44,0.466c-0.122,0.207-0.44,0.345-0.958,0.414
		c-0.415-0.017-1.674,0.328-3.779,1.036C124.769,29.905,123.44,30.268,122.853,30.285z M127.953,39.68
		c0.189,0.243,0.198,0.449,0.026,0.622c-0.276,0.052-0.527-0.009-0.751-0.181c-0.414-0.396-0.837-1-1.268-1.812
		c-0.415-0.794-0.708-1.519-0.88-2.174c-0.052-0.207,0.025-0.371,0.232-0.492c0.19-0.052,0.379,0,0.57,0.155
		c0.051,0.293,0.12,0.561,0.207,0.802c1.604-0.586,2.708-1.026,3.313-1.32c0.655-0.311,1.199-0.466,1.63-0.466
		c0.431,0.018,0.638,0.207,0.621,0.569c-0.051,0.225-0.5,0.776-1.346,1.656c-0.258,0.276-0.5,0.544-0.725,0.803
		c0.397-0.224,0.803-0.458,1.217-0.699c0.172,0,0.302,0.078,0.389,0.233c0.016,0.242-0.035,0.414-0.156,0.518
		c-0.155,0.121-0.578,0.345-1.268,0.672C129.143,38.861,128.539,39.232,127.953,39.68z M125.468,33.857
		c1.052-0.121,2.097-0.396,3.132-0.829c1.052-0.414,1.656-0.638,1.811-0.673c0.19,0,0.328,0.104,0.414,0.311
		c-0.034,0.259-0.164,0.44-0.388,0.544c-1.001,0.345-1.89,0.63-2.666,0.854c-0.743,0.224-1.372,0.32-1.89,0.285
		C125.64,34.297,125.502,34.133,125.468,33.857z M125.494,31.424c1.069-0.12,2.13-0.396,3.183-0.828
		c1.087-0.414,1.708-0.638,1.864-0.673c0.189,0,0.327,0.104,0.414,0.312c-0.035,0.258-0.165,0.44-0.389,0.543
		c-1.001,0.379-1.89,0.69-2.666,0.932c-0.742,0.242-1.372,0.345-1.889,0.311C125.717,31.967,125.545,31.769,125.494,31.424z
		 M126.141,25.238c-0.259-0.138-0.388-0.336-0.388-0.595c0.052-0.172,0.207-0.267,0.466-0.285c0.707,0.053,1.363,0.276,1.967,0.673
		c0.622,0.397,1,0.846,1.139,1.346c-0.018,0.311-0.147,0.483-0.388,0.518c-0.155-0.017-0.276-0.095-0.362-0.233
		c-0.139-0.345-0.449-0.655-0.932-0.932C127.141,25.437,126.641,25.273,126.141,25.238z M129.816,36.083
		c0.017-0.086-0.035-0.146-0.155-0.181l-3.313,1.32c0.138,0.345,0.285,0.664,0.439,0.958c0.19,0.345,0.363,0.613,0.518,0.802
		c0.57-0.466,1.043-0.922,1.424-1.371C129.177,37.075,129.54,36.566,129.816,36.083z M132.584,31.087
		c-0.586-0.051-0.957-0.328-1.112-0.828c0-0.155,0.18-0.25,0.543-0.285c0.068,0.156,0.31,0.225,0.725,0.207
		c0.552,0.052,1.889-0.182,4.011-0.699c0.241-0.068,0.483-0.129,0.725-0.181l-0.052-5.021c-0.069-0.569,0.104-0.845,0.518-0.829
		c0.258,0.069,0.449,0.259,0.569,0.57l-0.155,5.073c1.225-0.294,2.036-0.475,2.432-0.544c0.535-0.12,0.923-0.181,1.165-0.181
		c0.259,0.086,0.405,0.242,0.44,0.465c-0.121,0.207-0.44,0.346-0.957,0.414c-0.38-0.017-1.407,0.181-3.08,0.595l-0.208,13.226
		c-0.018,0.276-0.061,0.518-0.129,0.725l-0.13,0.207l-0.129-0.078c-0.121-0.38-0.181-0.733-0.181-1.061l-0.104-12.786
		c-0.138,0.035-0.25,0.061-0.336,0.078C134.759,30.76,133.24,31.07,132.584,31.087z"/>
</g>
</svg>
