<svg width="26" height="20" viewBox="0 0 26 20" fill="none" xmlns="http://www.w3.org/2000/svg">
<mask id="mask0_200_4807" style="mask-type:alpha" maskUnits="userSpaceOnUse" x="0" y="0" width="26" height="20">
<rect x="0.333252" width="25" height="20" fill="#D9D9D9"/>
</mask>
<g mask="url(#mask0_200_4807)">
<path d="M5.93325 16C5.49325 16 5.11659 15.8409 4.80325 15.5227C4.48992 15.2044 4.33325 14.8219 4.33325 14.375V4.625C4.33325 4.17813 4.48992 3.79557 4.80325 3.47734C5.11659 3.15911 5.49325 3 5.93325 3H18.7333C19.1733 3 19.5499 3.15911 19.8633 3.47734C20.1766 3.79557 20.3333 4.17813 20.3333 4.625V14.375C20.3333 14.8219 20.1766 15.2044 19.8633 15.5227C19.5499 15.8409 19.1733 16 18.7333 16H5.93325ZM12.3333 10.3125L18.7333 6.25V4.625L12.3333 8.6875L5.93325 4.625V6.25L12.3333 10.3125Z" fill="#FFD54F"/>
</g>
</svg>
