<svg id="圖層_1" data-name="圖層 1" xmlns="http://www.w3.org/2000/svg" viewBox="0 0 16.35 16.35"><defs><style>.cls-1{fill:#f0833b;}.cls-2{fill:#fff;}</style></defs><path class="cls-1" d="M16.35,8.18a8.17,8.17,0,0,1-8.17,8.17c-.27,0-.52,0-.78,0A8.18,8.18,0,0,1,7.4,0c.26,0,.51,0,.78,0A8.17,8.17,0,0,1,16.35,8.18Z"/><path class="cls-2" d="M12.23,3.93a.69.69,0,0,0-1,.21L7.09,10.75,4.64,8.3a.69.69,0,1,0-1,1l3.05,3a.41.41,0,0,0,.11.07l0,0,.05,0,.07,0a.7.7,0,0,0,.25,0,.67.67,0,0,0,.58-.32l4.64-7.33A.68.68,0,0,0,12.23,3.93Z"/></svg>