<svg id="圖層_1" data-name="圖層 1" xmlns="http://www.w3.org/2000/svg" viewBox="0 0 16.35 16.35"><defs><style>.cls-1{fill:#656565;}.cls-2{fill:#fff;}</style></defs><path class="cls-1" d="M16.35,8.18a8.17,8.17,0,0,1-8.17,8.17c-.27,0-.52,0-.78,0A8.18,8.18,0,0,1,7.4,0c.26,0,.51,0,.78,0A8.17,8.17,0,0,1,16.35,8.18Z"/><path class="cls-2" d="M9,8.18,11.6,5.6a.69.69,0,0,0,0-1,.68.68,0,0,0-1,0L8.05,7.2,5.47,4.62a.69.69,0,0,0-1,1L7.07,8.18,4.49,10.76A.7.7,0,0,0,5,11.94a.67.67,0,0,0,.49-.21L8.05,9.16l2.58,2.57a.67.67,0,0,0,1,0,.68.68,0,0,0,0-1Z"/></svg>