<svg id="圖層_1" data-name="圖層 1" xmlns="http://www.w3.org/2000/svg" viewBox="0 0 156.93 153.78"><defs><style>.cls-1{fill:#040000;}</style></defs><path class="cls-1" d="M107.83,71.38c.59.24,1.14.52,1.7.76,7.91,3.82,13.71,9.53,16.74,16.62,4.25,9.89,4.66,25.95-8.21,38.78-9.8,9.8-21.74,14.22-38.61,14.35h-.08c-19-.13-33.6-6.52-43.43-19C27.19,111.78,22.7,96.32,22.53,77v-.14C22.67,57.46,27.16,42,35.91,30.9c9.83-12.48,24.45-18.87,43.46-19h.08c19,.14,33.82,6.5,44,18.93a59.46,59.46,0,0,1,11,22.12l-10.94,2.93a47.47,47.47,0,0,0-8.72-17.71C106.83,28.46,95,23.48,79.4,23.37,64,23.51,52.29,28.46,44.68,38.1c-7.09,9-10.77,22.07-10.91,38.78.14,16.7,3.82,29.76,10.91,38.8,7.58,9.64,19.28,14.6,34.72,14.73,13.91-.11,23.12-3.41,30.78-11.07,8.75-8.72,8.59-19.45,5.8-26a20.63,20.63,0,0,0-8.64-9.45c-1,7.28-3.19,13.08-6.69,17.54C96,107.37,89.44,110.56,81,111a28.77,28.77,0,0,1-17.31-4.33,20.17,20.17,0,0,1-9.28-16.06C53.7,77.55,64,68.16,80.16,67.24a71.44,71.44,0,0,1,16,.76,19.24,19.24,0,0,0-4-9.54c-2.71-3.16-6.93-4.79-12.51-4.81h-.19C75,53.65,69,54.89,65.1,60.77l-9.31-6.39C61,46.5,69.41,42.16,79.56,42.16h.22c17,.11,27.05,10.7,28.08,29.17l-.06,0ZM65.59,90c.35,6.8,7.69,10,14.78,9.56,6.93-.38,14.79-3.09,16.11-19.82a54.63,54.63,0,0,0-11.75-1.19c-1.3,0-2.6,0-3.9.1C69.22,79.31,65.34,85,65.61,90l0,0Z"/></svg>