<svg id="圖層_1" data-name="圖層 1" xmlns="http://www.w3.org/2000/svg" viewBox="0 0 156.93 153.78"><defs><style>.cls-1{fill-rule:evenodd;}</style></defs><path class="cls-1" d="M111,13.25a3.49,3.49,0,0,1,1.91,3.56c0,5.84,0,11.68,0,17.53,0,2.74-.82,3.53-3.55,3.55-4.14,0-8.29,0-12.42.2-4.32.22-6.35,1.9-6.65,6.16C90,49.1,90.23,54,90.23,59H109c2.17,0,3.12.91,3.12,3.09q0,10,0,20c0,2.13-.92,3-3,3H90.13v1.53q0,25.1,0,50.21a3.83,3.83,0,0,1-1.75,3.67H65c-1.44-.73-1.82-1.92-1.82-3.48q.06-25.08,0-50.18V85.13H47.13C45,85.12,44,84.2,44,82q0-9.93,0-19.87C44,59.94,45,59,47.21,59h16c0-.56,0-1,0-1.44,0-5.26-.21-10.53.12-15.78.66-10.81,5-19.61,14.89-25a29,29,0,0,1,11.09-3.3,4.86,4.86,0,0,0,.8-.24Z"/></svg>