<svg id="圖層_1" data-name="圖層 1" xmlns="http://www.w3.org/2000/svg" viewBox="0 0 156.93 153.78"><defs><style>.cls-1{fill-rule:evenodd;}</style></defs><path class="cls-1" d="M16.06,50.73c.57-3.25,1-6.54,1.76-9.73,3.62-14.35,15-24.64,29.88-25.12,20.58-.66,41.22-.74,61.79,0A31.75,31.75,0,0,1,140.34,47c.71,19.89.7,39.85,0,59.74-.6,17-13.51,30.36-30.52,31.05-20.79.85-41.68.87-62.47,0-17-.72-29.12-14-30.61-31.12-.11-1.23-.46-2.44-.69-3.66ZM78.64,26.59c-8.71,0-17.42-.17-26.12,0C37.09,27,28.17,35.57,27.83,51.09q-.58,25.77,0,51.55c.35,15.52,9.26,24.21,24.7,24.44q26.1.38,52.23,0c15.32-.22,24.24-8.74,24.66-24.09q.71-26.12,0-52.24C129,35.38,120.07,27,104.75,26.63,96.05,26.42,87.34,26.59,78.64,26.59Z"/><path class="cls-1" d="M78.57,108.62a32,32,0,0,1-32.15-32C46.52,59.18,61,45.06,78.7,45.1a32,32,0,0,1,32.16,32C110.75,94.55,96.3,108.66,78.57,108.62ZM99.38,76.83a20.74,20.74,0,1,0-20.8,20.66A20.69,20.69,0,0,0,99.38,76.83Z"/><path class="cls-1" d="M112.09,36.35a7.48,7.48,0,1,1-.07,15,7.48,7.48,0,1,1,.07-15Z"/></svg>