<svg id="圖層_1" data-name="圖層 1" xmlns="http://www.w3.org/2000/svg" viewBox="0 0 141.73 141.73"><defs><style>.cls-1{fill:#231815;}</style></defs><path class="cls-1" d="M70.74,70.87A34.8,34.8,0,1,0,36,36.08,34.83,34.83,0,0,0,70.74,70.87Zm0-59.15A24.36,24.36,0,1,1,46.38,36.08,24.38,24.38,0,0,1,70.74,11.72Z"/><path class="cls-1" d="M118.33,103.46C105.7,85.68,76.47,84.78,70.74,84.78s-35,.9-47.6,18.68c-6.33,8.9-7.19,20.17-2.56,33.48a5.22,5.22,0,0,0,4.93,3.51H116a5.22,5.22,0,0,0,4.93-3.51C125.53,123.63,124.67,112.36,118.33,103.46ZM112.12,130H29.36c-2.23-8.34-1.46-15.23,2.29-20.51,8-11.27,28.34-14.28,39.09-14.28s31.07,3,39.09,14.28C113.58,114.78,114.34,121.67,112.12,130Z"/></svg>