<svg width="18" height="16" viewBox="0 0 18 16" fill="none" xmlns="http://www.w3.org/2000/svg">
<g clip-path="url(#clip0_566_9)">
<path d="M8.99803 16C8.85235 16 8.70163 15.9501 8.58106 15.8503C8.41026 15.7057 8.20429 15.531 7.97822 15.3365C5.4965 13.2161 1.20624 9.3795 0.422539 7.48365C-0.702775 4.77457 0.507942 1.61648 3.1253 0.439056C5.16493 -0.473946 7.53111 0.0748532 8.99803 1.72624C10.47 0.0748532 12.8362 -0.473946 14.8758 0.439056C17.4931 1.61149 18.7039 4.77457 17.5836 7.48365C16.835 9.28471 13.0572 12.7471 10.0229 15.3365C9.79681 15.531 9.59586 15.7007 9.42003 15.8454C9.29946 15.9451 9.15377 16 9.00306 16H8.99803ZM5.17498 1.10759C4.63744 1.10759 4.09488 1.21735 3.58246 1.44685C1.50766 2.37981 0.548132 4.8993 1.44738 7.06456C1.94975 8.27691 4.66256 11.0558 8.70163 14.5033C8.80713 14.5931 8.90258 14.6729 8.99803 14.7527C9.08846 14.6729 9.18894 14.5931 9.28941 14.5033C13.3335 11.0558 16.0463 8.27691 16.5487 7.06456C17.4479 4.8993 16.4884 2.37981 14.4136 1.44685C12.6553 0.658576 10.5855 1.27223 9.48533 2.89868C9.37481 3.06332 9.19396 3.15811 8.99803 3.15811C8.80211 3.15811 8.61623 3.06332 8.51073 2.89868C7.73206 1.7462 6.4711 1.10261 5.17498 1.10261V1.10759Z" fill="white"/>
</g>
<defs>
<clipPath id="clip0_566_9">
<rect width="18" height="16" fill="white"/>
</clipPath>
</defs>
</svg>
