<svg width="18" height="16" viewBox="0 0 18 16" fill="none" xmlns="http://www.w3.org/2000/svg">
<g clip-path="url(#clip0_566_11)">
<path d="M17.5991 7.22308C16.7907 9.18424 12.0471 13.4173 9.70203 15.4321C9.4611 15.641 9.24694 15.8232 9.06491 15.9786C9.02743 16.0108 8.97924 16.0108 8.94176 15.9786C8.75973 15.8232 8.54557 15.641 8.30464 15.4321C5.95426 13.4173 1.21065 9.18424 0.407558 7.22308C-0.673941 4.5975 0.482513 1.55396 2.98281 0.423353C5.16723 -0.562581 7.65681 0.230453 8.96853 2.1916C8.9846 2.21304 9.01137 2.21304 9.02743 2.1916C10.3445 0.230453 12.8341 -0.562581 15.0185 0.423353C17.5242 1.55396 18.6753 4.5975 17.5991 7.22308Z" fill="white"/>
</g>
<defs>
<clipPath id="clip0_566_11">
<rect width="18" height="16" fill="white"/>
</clipPath>
</defs>
</svg>
