<svg width="112" height="112" viewBox="0 0 112 112" fill="none" xmlns="http://www.w3.org/2000/svg">
<g clip-path="url(#clip0_357_166)">
<path d="M56.014 27.2861C40.1229 27.2861 27.305 40.1068 27.305 56.0015C27.305 71.8961 40.1229 84.7169 56.014 84.7169C71.9051 84.7169 84.723 71.8961 84.723 56.0015C84.723 40.1068 71.9051 27.2861 56.014 27.2861ZM56.014 74.6702C45.7447 74.6702 37.3494 66.298 37.3494 56.0015C37.3494 45.7049 45.7198 37.3327 56.014 37.3327C66.3083 37.3327 74.6786 45.7049 74.6786 56.0015C74.6786 66.298 66.2833 74.6702 56.014 74.6702ZM92.5911 26.1115C92.5911 29.8352 89.5928 32.8092 85.8948 32.8092C82.1969 32.8092 79.1986 29.8102 79.1986 26.1115C79.1986 22.4127 82.1969 19.4137 85.8948 19.4137C89.5928 19.4137 92.5911 22.4127 92.5911 26.1115ZM111.608 32.9092C111.183 23.9372 109.134 15.9899 102.563 9.44205C96.0142 2.89425 88.0686 0.842433 79.0986 0.395083C69.8538 -0.129741 42.1443 -0.129741 32.8994 0.395083C23.9544 0.819941 16.0088 2.86925 9.43751 9.41706C2.86617 15.9649 0.842303 23.9122 0.392554 32.8817C-0.132153 42.1286 -0.132153 69.8443 0.392554 79.0912C0.817317 88.0632 2.86617 96.0106 9.43751 102.558C16.0088 109.106 23.9294 111.156 32.8994 111.605C42.1443 112.13 69.8538 112.13 79.0986 111.605C88.0686 111.18 96.0142 109.131 102.561 102.558C109.107 96.0106 111.156 88.0632 111.605 79.0912C112.13 69.8443 112.13 42.1536 111.605 32.9067L111.608 32.9092ZM99.6622 89.0154C97.7132 93.9138 93.9403 97.6875 89.0181 99.6618C81.6472 102.586 64.157 101.911 56.0115 101.911C47.8661 101.911 30.3508 102.561 23.0049 99.6618C18.1077 97.7125 14.3348 93.9388 12.3609 89.0154C9.43751 81.6429 10.1121 64.1487 10.1121 56.0015C10.1121 47.8542 9.46249 30.3351 12.3609 22.9875C14.3098 18.0892 18.0827 14.3154 23.0049 12.3411C30.3758 9.41706 47.8661 10.0918 56.0115 10.0918C64.157 10.0918 81.6722 9.44205 89.0181 12.3411C93.9154 14.2904 97.6883 18.0642 99.6622 22.9875C102.586 30.3601 101.911 47.8542 101.911 56.0015C101.911 64.1487 102.586 81.6679 99.6622 89.0154Z" fill="#CDE3DA"/>
</g>
<defs>
<clipPath id="clip0_357_166">
<rect width="112" height="112" fill="white"/>
</clipPath>
</defs>
</svg>
