<svg width="112" height="128" viewBox="0 0 112 128" fill="none" xmlns="http://www.w3.org/2000/svg">
<path d="M82.875 58.925C83.425 59.15 83.925 59.4 84.45 59.625C91.75 63.15 97.1 68.425 99.9 74.975C103.825 84.1 104.2 98.925 92.325 110.775C83.275 119.825 72.25 123.9 56.675 124.025H56.6C39.05 123.9 25.575 118 16.5 106.475C8.425 96.225 4.275 81.95 4.125 64.075V63.95C4.25 46.075 8.4 31.8 16.475 21.55C25.55 10.025 39.05 4.125 56.6 4H56.675C74.25 4.125 87.9 10 97.25 21.475C101.85 27.15 105.25 33.975 107.4 41.9L97.3 44.6C95.525 38.15 92.85 32.65 89.25 28.25C81.95 19.3 71 14.7 56.625 14.6C42.375 14.725 31.6 19.3 24.575 28.2C18.025 36.525 14.625 48.575 14.5 64C14.625 79.425 18.025 91.475 24.575 99.825C31.575 108.725 42.375 113.3 56.625 113.425C69.475 113.325 77.975 110.275 85.05 103.2C93.125 95.15 92.975 85.25 90.4 79.225C88.875 75.675 86.125 72.725 82.425 70.5C81.5 77.225 79.475 82.575 76.25 86.7C71.975 92.15 65.9 95.1 58.075 95.525C52.175 95.85 46.5 94.425 42.1 91.525C36.9 88.075 33.85 82.825 33.525 76.7C32.9 64.625 42.45 55.95 57.325 55.1C62.6 54.8 67.55 55.025 72.125 55.8C71.525 52.1 70.3 49.15 68.475 47C65.975 44.075 62.075 42.575 56.925 42.55H56.75C52.6 42.55 47 43.7 43.425 49.125L34.825 43.225C39.625 35.95 47.4 31.95 56.775 31.95H56.975C72.625 32.05 81.95 41.825 82.9 58.875L82.85 58.925H82.875ZM43.875 76.125C44.2 82.4 50.975 85.325 57.525 84.95C63.925 84.6 71.175 82.1 72.4 66.65C69.1 65.925 65.45 65.55 61.55 65.55C60.35 65.55 59.15 65.575 57.95 65.65C47.225 66.25 43.65 71.45 43.9 76.1L43.875 76.125Z" fill="#CDE3DA"/>
</svg>
