<svg width="9" height="19" viewBox="0 0 9 19" fill="none" xmlns="http://www.w3.org/2000/svg">
<path d="M8.64748 0.555413H6.48974C4.07617 0.555413 2.51644 2.28673 2.51644 4.96029V6.99127H0.358708C0.314324 6.99126 0.270375 7.00076 0.229409 7.0192C0.188443 7.03765 0.151265 7.06468 0.120025 7.09873C0.0887847 7.13278 0.0641058 7.17319 0.0474031 7.2176C0.0307004 7.26202 0.022312 7.30957 0.0227192 7.3575V10.3007C0.0227192 10.397 0.0581152 10.4893 0.121125 10.5574C0.184136 10.6254 0.269598 10.6637 0.358708 10.6637H2.51644V18.0884C2.51644 18.1855 2.55216 18.2787 2.61575 18.3473C2.67934 18.416 2.76559 18.4546 2.85551 18.4546H5.67289C5.76282 18.4546 5.84907 18.416 5.91266 18.3473C5.97624 18.2787 6.01196 18.1855 6.01196 18.0884V10.667H8.53651C8.58089 10.6674 8.62492 10.6584 8.66604 10.6403C8.70716 10.6223 8.74456 10.5956 8.77609 10.5619C8.80762 10.5281 8.83264 10.488 8.84972 10.4437C8.86679 10.3995 8.87559 10.352 8.87559 10.3041V7.33753C8.87464 7.24053 8.83934 7.1476 8.77695 7.07783C8.71271 7.00985 8.62644 6.97162 8.53651 6.97129H6.01196V5.24995C6.01196 4.42425 6.19383 4.00474 7.18947 4.00474H8.63823C8.68261 4.00518 8.72663 3.99611 8.76775 3.97807C8.80888 3.96003 8.84628 3.93337 8.87781 3.89963C8.90933 3.86588 8.93436 3.82573 8.95143 3.78148C8.96851 3.73723 8.97731 3.68976 8.9773 3.64182V0.908336C8.97731 0.860396 8.96851 0.812931 8.95143 0.768682C8.93436 0.724433 8.90933 0.684276 8.87781 0.650533C8.84628 0.61679 8.80888 0.590128 8.76775 0.572087C8.72663 0.554046 8.68261 0.544986 8.63823 0.545425L8.64748 0.555413Z" fill="white"/>
</svg>
