<svg width="18" height="17" viewBox="0 0 18 17" fill="none" xmlns="http://www.w3.org/2000/svg">
<path d="M17.5042 7.01138C17.5301 7.93227 17.3656 8.84836 17.0215 9.69956C16.6774 10.5508 16.1615 11.3179 15.5076 11.9505C13.7392 13.7352 11.688 15.1478 9.61096 16.5242C9.30774 16.722 8.97714 16.8718 8.63032 16.9687C8.23164 17.0905 8.09982 16.916 8.21557 16.5143C8.33131 16.1126 8.47278 15.6845 8.55637 15.2598C8.63997 14.835 8.46635 14.6012 8.01623 14.5156C7.32707 14.4065 6.6444 14.258 5.97138 14.0711C3.90723 13.3928 2.22568 12.1777 1.22255 10.1626C0.116524 7.93336 0.277282 5.7305 1.64373 3.67911C3.07771 1.53551 5.18044 0.462075 7.63362 0.106457C9.69331 -0.219158 11.8003 0.161707 13.6267 1.18977C15.4144 2.1776 16.7229 3.62313 17.2759 5.67452C17.3781 6.11506 17.4543 6.56148 17.5042 7.01138ZM10.598 8.71704L10.5369 8.74009C10.4758 8.65448 10.4115 8.56887 10.3537 8.47996C9.89711 7.76872 9.43734 7.06078 8.984 6.34954C8.85218 6.1421 8.69464 5.97416 8.42456 6.02026C8.15449 6.06636 8.06446 6.3199 8.06124 6.58003C8.06124 7.62055 8.06124 8.66107 8.06124 9.70158C8.06124 9.93207 8.14804 10.1362 8.41169 10.1395C8.67533 10.1428 8.79108 9.93537 8.7943 9.6917C8.7943 9.0562 8.7943 8.4174 8.7943 7.7786C8.7943 7.67652 8.7943 7.57116 8.8168 7.38347C9.27014 8.09471 9.67204 8.73021 10.0771 9.35913C10.1818 9.56699 10.3174 9.75695 10.479 9.92219C10.6448 10.0498 10.8515 10.1086 11.0578 10.0868C11.1639 10.0671 11.2861 9.80694 11.3021 9.6456C11.3375 9.2801 11.3021 8.90802 11.3021 8.53923C11.3021 7.8247 11.3021 7.10688 11.3021 6.39235C11.3102 6.34467 11.3079 6.29576 11.2953 6.2491C11.2828 6.20244 11.2604 6.15918 11.2297 6.1224C11.199 6.08562 11.1608 6.05621 11.1177 6.03628C11.0747 6.01635 11.0279 6.00639 10.9806 6.00709C10.7491 6.00709 10.6591 6.1421 10.6109 6.33637C10.5948 6.45857 10.5884 6.5819 10.5916 6.70516C10.5948 7.39664 10.598 8.05519 10.598 8.71704ZM13.0158 6.70516H14.7295C14.9417 6.70516 15.1475 6.66235 15.1443 6.39235C15.1411 6.12234 14.9353 6.08612 14.7199 6.08612C14.0768 6.08612 13.4081 6.08612 12.7522 6.08612C12.3213 6.08612 12.212 6.20136 12.2088 6.65247C12.2088 7.61396 12.2088 8.57765 12.2088 9.54352C12.2088 9.97488 12.3278 10.0901 12.7683 10.0967C13.273 10.0967 13.7746 10.0967 14.2794 10.0967C14.4943 10.1103 14.7099 10.0992 14.9224 10.0638C14.9871 10.0396 15.0449 9.99924 15.0904 9.94632C15.1358 9.89339 15.1677 9.82962 15.1829 9.76085C15.1829 9.65548 15.0253 9.52377 14.9064 9.4612C14.7898 9.43095 14.6686 9.42424 14.5495 9.44145H13.0223V8.31203H13.2088C13.691 8.31203 14.1733 8.31203 14.6524 8.29557C14.7249 8.27761 14.7921 8.24185 14.8481 8.19137C14.9041 8.14088 14.9473 8.07719 14.9739 8.0058C15.0253 7.80824 14.8549 7.71933 14.6717 7.70616C14.5398 7.70616 14.408 7.70616 14.2762 7.70616H13.0158V6.70516ZM3.80755 9.42169C3.80755 9.09242 3.80755 8.79277 3.80755 8.49313C3.80755 7.80165 3.80755 7.10688 3.78825 6.41539C3.7872 6.36437 3.77635 6.31406 3.75631 6.26733C3.73627 6.2206 3.70743 6.17838 3.67145 6.14306C3.63548 6.10775 3.59306 6.08004 3.54663 6.06151C3.50019 6.04298 3.45066 6.034 3.40084 6.03508C3.35102 6.03616 3.30188 6.04728 3.25625 6.06781C3.21062 6.08833 3.1694 6.11786 3.13492 6.15471C3.10043 6.19155 3.07337 6.23499 3.05528 6.28255C3.03719 6.3301 3.02842 6.38083 3.02948 6.43186C3.02948 7.5053 3.02948 8.57874 3.02948 9.65219C3.02451 9.70558 3.03057 9.75945 3.04728 9.81029C3.06398 9.86113 3.09097 9.90779 3.12646 9.94724C3.16195 9.98669 3.20514 10.018 3.25325 10.0393C3.30135 10.0605 3.35328 10.0711 3.40565 10.0704C3.49204 10.0819 3.57898 10.0885 3.66608 10.0901C4.25445 10.0901 4.84283 10.0901 5.43443 10.0901C5.63055 10.0901 5.80739 10.0045 5.80096 9.76085C5.79453 9.51718 5.62413 9.43157 5.41835 9.43157H3.81076L3.80755 9.42169ZM6.37969 8.04861V9.62584C6.37969 9.89914 6.45364 10.1395 6.76552 10.1428C7.07739 10.1461 7.16741 9.89914 7.16741 9.63243C7.16741 8.60509 7.16741 7.57445 7.16741 6.54381C7.16741 6.18161 7.00666 5.99063 6.75588 6.01039C6.43436 6.03673 6.38291 6.27381 6.37969 6.53723C6.36683 7.05419 6.37006 7.55798 6.37006 8.06178L6.37969 8.04861Z" fill="#1E1E1E"/>
</svg>
