<svg width="25" height="22" viewBox="0 0 25 22" fill="none" xmlns="http://www.w3.org/2000/svg">
<path d="M19.8489 18.4067C19.8524 18.2717 19.8284 18.1375 19.7786 18.012C19.7288 17.8865 19.654 17.7725 19.5589 17.6767L16.6289 14.6667C16.5005 14.544 16.3417 14.4577 16.1689 14.4167C15.8855 14.3373 15.5826 14.3658 15.3189 14.4967L13.9889 15.2667H13.8489H13.7289L13.5089 15.1567C13.2996 15.0323 13.1051 14.8847 12.9289 14.7167C12.6191 14.4011 12.3286 14.0672 12.0589 13.7167C11.6464 13.1775 11.2786 12.6056 10.9589 12.0067C10.6176 11.4298 10.3201 10.8281 10.0689 10.2067C9.91309 9.7969 9.78939 9.37563 9.69893 8.94667C9.62004 8.61956 9.58971 8.28261 9.60893 7.94667C9.62214 7.89861 9.64608 7.85416 9.67893 7.81667C9.70097 7.77695 9.73174 7.74276 9.76893 7.71667L10.9089 7.07668C11.1139 6.95992 11.2806 6.78624 11.3889 6.57668C11.4989 6.37495 11.5275 6.13882 11.4689 5.91667L10.5489 1.67667C10.4993 1.52737 10.4286 1.38594 10.3389 1.25667C10.2412 1.13601 10.1084 1.04866 9.95893 1.00667C9.84846 0.977027 9.73319 0.96973 9.61986 0.985184C9.50653 1.00064 9.39743 1.03853 9.29893 1.09666L6.20893 2.84666C6.04541 2.93183 5.89951 3.04721 5.77893 3.18668C5.58824 3.43463 5.44577 3.71617 5.35893 4.01668C5.26225 4.31502 5.20181 4.6239 5.17893 4.93668C5.14136 5.42262 5.14136 5.91073 5.17893 6.39667C5.21817 7.06979 5.31181 7.73864 5.45893 8.39667C5.64933 9.24346 5.89997 10.0756 6.20893 10.8867C6.61086 11.924 7.09576 12.9273 7.65893 13.8867C8.30276 15.0977 9.07739 16.2344 9.96893 17.2767C10.6206 18.0403 11.3402 18.7432 12.1189 19.3767C12.6526 19.8125 13.2328 20.1881 13.8489 20.4967C14.3074 20.7113 14.7866 20.8788 15.2789 20.9967C15.4674 21.0312 15.6605 21.0312 15.8489 20.9967C16.0305 20.9703 16.2044 20.9056 16.3589 20.8067L19.4489 19.0867C19.5629 19.0112 19.6581 18.9107 19.7274 18.7928C19.7967 18.675 19.8383 18.5429 19.8489 18.4067Z" fill="white"/>
</svg>
