<?xml version="1.0" encoding="utf-8"?>
<!-- Generator: Adobe Illustrator 23.1.1, SVG Export Plug-In . SVG Version: 6.00 Build 0)  -->
<svg version="1.1" id="Capa_1" xmlns="http://www.w3.org/2000/svg" xmlns:xlink="http://www.w3.org/1999/xlink" x="0px" y="0px"
	 viewBox="0 0 158.6 100.9" style="enable-background:new 0 0 158.6 100.9;" xml:space="preserve">
<style type="text/css">
	.st0{fill:#FFD2B3;}
	.st1{fill:#FC5E5E;}
	.st2{fill:#2980BA;}
	.st3{fill:#3B97D3;}
	.st4{fill:#84B5CB;}
	.st5{fill:#547580;}
	.st6{fill:#FFFFFF;}
	.st7{fill:#CECECE;}
	.st8{fill:#295EB2;}
	.st9{fill:#F44336;}
	.st10{fill:#FFC107;}
	.st11{fill:#4CAF50;}
	.st12{fill:#2196F3;}
	.st13{fill:#FAFAFA;}
	.st14{fill:#3FA0E1;}
	.st15{fill:#2568BD;}
	.st16{fill:#FF9842;}
	.st17{fill:#FF8322;}
	.st18{fill:#FFD664;}
	.st19{fill:#DDB200;}
	.st20{fill:#D1E7F8;}
	.st21{fill:#FFDA44;}
	.st22{fill:#FFCD00;}
	.st23{opacity:0.742;}
	.st24{fill:#FCFCFC;}
	.st25{clip-path:url(#SVGID_2_);}
	.st26{fill:#485160;}
	.st27{clip-path:url(#SVGID_4_);}
	.st28{fill:#D1F2AF;}
</style>
<g id="Page-1_1_" class="st23">
	<g id="Group_33_1_" transform="translate(0)">
		<path id="Shape_1_" class="st2" d="M134.3,4.3V77H0.3V4.3c-0.1-2.1,2-3.9,4.6-4h124.8C132.4,0.4,134.5,2.2,134.3,4.3z"/>
		<path id="Path_35_1_" class="st3" d="M118.3,0.3c-1.7,10.6-11.9,63.9-118,64.7V4.3c-0.1-2.1,1.9-3.9,4.6-4H118.3z"/>
		<path id="Path_36_1_" class="st4" d="M134.3,77.1v7c0.1,2.1-2,3.9-4.6,4H4.9c-2.7-0.1-4.7-1.9-4.6-4v-7H134.3z"/>
		<path id="Path_37_1_" class="st5" d="M71.6,95.6H57.2l2-7.7h10.5L71.6,95.6z"/>
		<path id="Path_38_1_" class="st4" d="M87.6,98c-0.1,1.4-1.3,2.4-2.7,2.3h-41c-1.3,0.2-2.5-0.7-2.7-2c-0.2-1.3,0.7-2.5,2-2.7
			c0.2,0,0.5,0,0.7,0h41C86.3,95.6,87.5,96.6,87.6,98z"/>
		<g id="Group_32_1_" transform="translate(4.143 3.499)">
			<path id="Path_39_1_" class="st6" d="M2.1,11.3c-0.7,0-1.4-0.4-1.7-1.1c-0.3-0.7-0.1-1.5,0.4-2l7.3-7.3c0.5-0.5,1.1-0.7,1.8-0.5
				c0.6,0.2,1.1,0.7,1.3,1.3c0.2,0.6,0,1.3-0.5,1.8l-7.3,7.3C3.1,11.1,2.6,11.3,2.1,11.3z"/>
			<path id="Path_40_1_" class="st6" d="M2.1,22.3c-0.7,0-1.4-0.4-1.7-1.1c-0.3-0.7-0.1-1.5,0.4-2L19.1,0.9c0.5-0.5,1.1-0.7,1.8-0.5
				c0.6,0.2,1.1,0.7,1.3,1.3c0.2,0.6,0,1.3-0.5,1.8L3.4,21.8C3.1,22.1,2.6,22.3,2.1,22.3z"/>
		</g>
		<rect id="Rectangle_386_1_" x="0.3" y="71.4" class="st7" width="134" height="5.7"/>
		<path id="Path_41_1_" class="st8" d="M77.1,35.4h15.6c0.5,0,0.9-0.4,0.9-0.9c0,0,0,0,0,0v-19c0-0.3-0.1-0.6-0.4-0.7
			c-0.2-0.2-0.5-0.2-0.8-0.2l-15.6,3.4c-0.4,0.1-0.7,0.5-0.7,0.9v15.7C76.2,35,76.6,35.4,77.1,35.4C77.1,35.4,77.1,35.4,77.1,35.4z"
			/>
		<path id="Path_42_1_" class="st8" d="M98.5,61.3l19.7,4.2c0.1,0,0.1,0,0.2,0c0.2,0,0.4-0.1,0.6-0.2c0.2-0.2,0.3-0.4,0.4-0.7V40.5
			c0-0.5-0.4-0.9-0.9-0.9c0,0,0,0,0,0H98.7c-0.5,0-0.9,0.4-0.9,0.9c0,0,0,0,0,0v19.9C97.8,60.8,98.1,61.2,98.5,61.3z"/>
		<path id="Path_43_1_" class="st8" d="M98.7,35.4h19.7c0.5,0,0.9-0.4,0.9-0.9c0,0,0,0,0,0V10.3c0-0.3-0.1-0.6-0.4-0.7
			c-0.2-0.2-0.5-0.2-0.8-0.2l-19.7,4.2c-0.4,0.1-0.7,0.5-0.7,0.9v19.9C97.8,35,98.2,35.4,98.7,35.4z"/>
		<path id="Path_44_1_" class="st8" d="M76.9,57l15.6,3.4c0.1,0,0.1,0,0.2,0c0.2,0,0.4-0.1,0.6-0.2c0.2-0.2,0.3-0.4,0.4-0.7v-19
			c0-0.5-0.4-0.9-0.9-0.9c0,0,0,0,0,0H77.1c-0.5,0-0.9,0.4-0.9,0.9c0,0,0,0,0,0v15.7C76.2,56.6,76.5,57,76.9,57z"/>
	</g>
	<g id="Group_34_1_" transform="translate(4.703 26.797)">
		<path id="Path_45_1_" class="st9" d="M8.8,3.1H4.7C3.8,3.1,3.1,3.8,3,4.8c0,0.3,0.1,0.6,0.2,0.8L1.2,2.1c1.5-1.9,4.3-2.3,6.2-0.8
			C8,1.7,8.5,2.4,8.8,3.1z"/>
		<path id="Path_46_1_" class="st10" d="M9.1,4.8c0,2.4-2,4.4-4.4,4.4c-0.2,0-0.4,0-0.6,0l2-3.6c0.5-0.8,0.2-1.8-0.6-2.3
			C5.3,3.2,5,3.1,4.7,3.1h4.1C9,3.6,9.1,4.2,9.1,4.8z"/>
		<path id="Path_47_1_" class="st11" d="M6.1,5.6l-2,3.6l0,0C1.7,8.9,0,6.7,0.3,4.2c0,0,0,0,0,0c0.1-0.8,0.4-1.5,0.9-2.2l2,3.5l0,0
			c0.5,0.8,1.5,1.1,2.3,0.6C5.8,6.1,6,5.8,6.1,5.6z"/>
		<path id="Path_48_1_" class="st9" d="M6.1,5.6C5.7,6.4,4.7,6.6,3.9,6.2C3.6,6,3.4,5.8,3.3,5.6l0,0C2.8,4.8,3.1,3.8,3.9,3.3
			c0,0,0,0,0,0c0.2-0.1,0.5-0.2,0.8-0.2l0,0c0.9,0,1.7,0.8,1.6,1.7C6.4,5.1,6.3,5.3,6.1,5.6L6.1,5.6z"/>
		<path id="Path_49_1_" class="st12" d="M6.1,5.6C5.7,6.4,4.7,6.6,3.9,6.2C3.6,6,3.4,5.8,3.3,5.6l0,0C2.8,4.8,3.1,3.8,3.9,3.3
			c0,0,0,0,0,0c0.2-0.1,0.5-0.2,0.8-0.2l0,0c0.9,0,1.7,0.8,1.6,1.7C6.4,5.1,6.3,5.3,6.1,5.6L6.1,5.6z"/>
		<path id="Path_50_1_" class="st13" d="M4.7,6.6c-0.3,0-0.6-0.1-0.9-0.2C2.9,5.9,2.6,4.7,3.1,3.9c0.2-0.3,0.4-0.5,0.7-0.7
			c0.9-0.5,2-0.2,2.5,0.7c0.3,0.6,0.3,1.3,0,1.9l0,0C6,6.3,5.4,6.6,4.7,6.6z M4.7,3.3c-0.8,0-1.5,0.6-1.5,1.5s0.6,1.5,1.5,1.5
			c0.5,0,1-0.3,1.3-0.7l0,0c0.4-0.7,0.2-1.6-0.5-2c0,0,0,0,0,0C5.2,3.4,5,3.3,4.7,3.3L4.7,3.3z"/>
	</g>
	<g id="Group_36_1_" transform="translate(5.112 38.605)">
		<path id="Path_51_1_" class="st14" d="M5,9.8c-2.6,0-4.7-2.1-4.7-4.7S2.4,0.4,5,0.4c2.6,0,4.7,2.1,4.7,4.7C9.8,7.7,7.6,9.8,5,9.8
			C5,9.8,5,9.8,5,9.8z"/>
		<path id="Path_52_1_" class="st15" d="M5,0.4v9.4c2.6,0,4.7-2.1,4.7-4.7C9.8,2.5,7.6,0.4,5,0.4z"/>
		<path id="Path_53_1_" class="st16" d="M5,0.4H4.7c1.8,0.9,3,2.6,3.2,4.5C8.1,6.7,7,8.6,3,9.3c0.6,0.3,1.3,0.5,2,0.5
			c2.6,0,4.7-2.1,4.7-4.7C9.7,2.5,7.6,0.4,5,0.4L5,0.4z"/>
		<path id="Path_54_1_" class="st17" d="M5,0.4v0.1c1.6,0.9,2.7,2.6,2.9,4.4C8,6.4,7.4,7.9,5,8.8v1c2.6,0,4.7-2.1,4.7-4.7
			C9.8,2.5,7.6,0.4,5,0.4L5,0.4z"/>
		<g id="Group_35_1_" transform="translate(0)">
			<path id="Path_55_1_" class="st16" d="M2.2,2L0.8,0.4C0.7,0.4,0.6,0.3,0.5,0.4c-0.1,0-0.2,0.1-0.2,0.2v4.4c0,0.1,0.1,0.3,0.3,0.3
				c0.1,0,0.3-0.1,0.3-0.3c0-0.8,0.2-1.6,0.7-2.3L2.2,2z"/>
			<path id="Path_56_1_" class="st16" d="M3.2,6.5C3.1,6.5,3.1,6.5,3,6.4C2.6,5.9,2.4,5.2,2.4,4.5c0-0.1,0.1-0.3,0.3-0.3
				c0.1,0,0.1,0,0.2,0.1c0.4,0.3,0.9,0.5,1.4,0.3c0.8-0.2,1.6,0,2.1,0.7c0.1,0.2,0.2,0.4,0,0.6C6.3,6.2,6,6.3,5.8,6.2
				C5.4,6.1,5,6.1,4.7,6.3C4.2,6.6,3.7,6.6,3.2,6.5z"/>
		</g>
		<path id="Path_57_1_" class="st18" d="M9.6,3.8C8.7,8.8,3.2,7.9,3,4.7l1.5-0.8c0.1-0.1,0.1-0.1,0.1-0.2V3.2c0-0.1-0.1-0.2-0.2-0.2
			L3.3,2.4V0.6c0-0.1-0.1-0.2-0.2-0.2c-0.1,0-0.2,0-0.3,0.1L1.6,1.8c-1.8,1.9-1.7,4.9,0.2,6.7c0.9,0.8,2,1.3,3.2,1.3
			c1.3,0,2.5-0.5,3.3-1.4C9.6,7.2,10,5.4,9.6,3.8z"/>
		<path id="Path_58_1_" class="st17" d="M6.4,5.3C6,4.9,5.5,4.7,5,4.6v1.6c0.3-0.1,0.5-0.1,0.8,0C6,6.3,6.3,6.2,6.4,6
			C6.5,5.8,6.5,5.5,6.4,5.3z"/>
		<path id="Path_59_1_" class="st16" d="M9.6,3.8C9,6.8,6.8,7.7,5,7.1v2.6c1.3,0,2.5-0.5,3.3-1.4C9.6,7.2,10,5.4,9.6,3.8z"/>
	</g>
	<g id="Folder_1_" transform="translate(5.526 50.826)">
		<path id="Path_60_1_" class="st19" d="M7.8,3.1V1.9c0-0.3-0.3-0.6-0.6-0.6c0,0,0,0,0,0H4.5C4.3,1.3,4.2,1.2,4,1.1L3.5,0.5
			C3.4,0.4,3.2,0.4,3.1,0.3H0.9c-0.3,0-0.6,0.3-0.6,0.6l0,0v6.3h7.6L7.8,3.1L7.8,3.1z"/>
		<path id="Path_61_1_" class="st20" d="M6.6,2.2H1.5c-0.2,0-0.3,0.1-0.3,0.3v2.3l0.5-1.3C1.7,3.2,2,3.1,2.2,3.1h4.7V2.5
			C6.9,2.3,6.8,2.2,6.6,2.2C6.7,2.2,6.7,2.2,6.6,2.2z"/>
		<path id="Path_62_1_" class="st21" d="M8.5,3.1H2.2C2,3.1,1.8,3.2,1.7,3.5L1.2,4.8L0.3,7.3v0.3c0,0.3,0.3,0.6,0.6,0.6c0,0,0,0,0,0
			h6.2c0.3,0,0.5-0.2,0.6-0.4l1.4-3.9C9.2,3.6,9,3.2,8.7,3.1C8.6,3.1,8.6,3.1,8.5,3.1L8.5,3.1z"/>
		<path id="Path_63_1_" class="st22" d="M8.5,3.1H7.9c0,0,0,0,0,0L6.5,7C6.4,7.3,6.2,7.5,5.9,7.4H0.3v0.1c0,0.3,0.3,0.6,0.6,0.6
			c0,0,0,0,0,0h6.2c0.3,0,0.5-0.2,0.6-0.4l1.4-3.9C9.2,3.6,9,3.2,8.7,3.1C8.6,3.1,8.6,3.1,8.5,3.1L8.5,3.1z"/>
	</g>
</g>
<g id="Folder-2_1_" transform="translate(46.099 12.189)">
	<path id="Path_64_1_" class="st19" d="M54.4,19.8v-8.7c0-2.4-1.9-4.3-4.3-4.3H30.3c-1.1,0-2.3-0.5-3.1-1.3l-4-4
		c-0.8-0.8-1.9-1.3-3.1-1.3H4.6c-2.4,0-4.3,1.9-4.3,4.3l0,0v45.5h54.1V19.8z"/>
	<path id="Path_65_1_" class="st20" d="M45.8,13.3H9c-1.2,0-2.2,1-2.2,2.2l0,0V32l3.3-9.3c0.6-1.7,2.3-2.9,4.1-2.9H48v-4.3
		C48,14.3,47,13.3,45.8,13.3L45.8,13.3z"/>
	<path id="Path_66_1_" class="st21" d="M59.2,19.8h-45c-1.8,0-3.5,1.2-4.1,2.9L6.8,32L0.3,50.2v2.2c0,2.4,1.9,4.3,4.3,4.3
		c0,0,0,0,0,0h44.6c1.8,0,3.5-1.2,4.1-2.9l9.9-28.2c0.8-2.3-0.4-4.7-2.6-5.5C60.1,19.9,59.6,19.8,59.2,19.8z"/>
	<path id="Path_67_1_" class="st22" d="M59.2,19.8h-4.5c0,0.1-0.1,0.2-0.1,0.4l-9.9,28.2c-0.6,1.7-2.2,2.9-4.1,2.9H0.3v1.1
		c0,2.4,1.9,4.3,4.3,4.3c0,0,0,0,0,0h44.6c1.8,0,3.5-1.2,4.1-2.9l9.9-28.2c0.8-2.3-0.4-4.7-2.6-5.5C60.1,19.9,59.6,19.8,59.2,19.8z"
		/>
</g>
<g id="Group_55" transform="translate(82.517 37.569)">
	<path id="Path_90" class="st0" d="M39.6,45.9L15.8,20.6l1.2-2.9l2.9-1.2l3.1,1l8.3,8l0.9-4.5l5.1-1.2l1.9,1.3l2.5-2.3l1.3-1.8
		l5.7,0.4l4.1-3.9l4.5,0.1l14.8,18.4l1.5,7.3l-5.7,11.4L58,57l-35.9-0.1l-1.3-3.4l2.5-3.1L39.6,45.9z"/>
	<g id="Group_50" transform="translate(14.292 11.097)">
		<g id="Group_49" transform="translate(0 0)">
			<g id="Group_48">
				<path id="Path_91" class="st1" d="M56.4,14.9L44.6,2c-2.4-2.3-6.1-2.3-8.4,0c-0.7,0.7-1.2,1.6-1.5,2.6c-2.4-1.8-5.7-1.5-7.8,0.5
					c-0.7,0.7-1.2,1.6-1.5,2.6c-2.4-1.8-5.7-1.5-7.8,0.5C16.8,9,16.3,9.9,16,10.8l-5.5-5.5C8.1,3,4.3,3,2,5.4c-2.2,2.3-2.2,6,0,8.3
					L23.3,35l-12.6,2c-3.4,0.5-6,3.4-6,6.9c0,2.6,2.1,4.7,4.7,4.7h29.4c4.6,0,8.9-1.8,12.1-5l4.9-4.9C62.3,32.1,62.5,21.7,56.4,14.9
					L56.4,14.9z M53.6,36.4l-4.9,4.9c-2.6,2.6-6.2,4.1-9.9,4.1H9.4c-0.9,0-1.6-0.7-1.6-1.6c0-1.9,1.4-3.5,3.3-3.8l15.6-2.5
					c0.8-0.1,1.4-0.9,1.3-1.8c-0.1-0.3-0.2-0.6-0.4-0.9L4.2,11.5c-1.1-1.1-1.1-2.9,0-4c1.1-1.1,2.9-1.1,4,0l0,0l9.2,9.2
					c0,0,0.1,0.1,0.1,0.1l6.4,6.4c0.6,0.6,1.6,0.7,2.2,0.1c0.6-0.6,0.7-1.6,0.1-2.2c0-0.1-0.1-0.1-0.1-0.1l-6.4-6.4
					c-1.1-1.1-1-2.9,0.1-4c1.1-1.1,2.9-1.1,4,0l3.1,3.1c0,0,0,0,0.1,0.1l3.3,3.3c0.6,0.6,1.6,0.5,2.2-0.1c0.5-0.6,0.5-1.5,0-2.1
					L29,11.4c-1.1-1.1-1-2.9,0.1-4c1.1-1.1,2.9-1.1,4,0l3.3,3.3c0,0,0,0,0,0l0,0l0,0l0,0l0,0l0,0h0c0.6,0.6,1.6,0.5,2.2-0.1
					c0.6-0.6,0.6-1.6,0-2.2l-0.2-0.2c-1.1-1.1-1-2.9,0.1-4c1.1-1,2.8-1.1,4-0.1L54,17C59.1,22.5,58.9,31.1,53.6,36.4L53.6,36.4z"/>
			</g>
		</g>
	</g>
	<g id="Group_52" transform="translate(6.235 6.235)">
		<g id="Group_51">
			<path id="Path_93" class="st1" d="M27.1,8.6c-3.2-7.1-11.5-10.2-18.5-7C1.5,4.8-1.6,13,1.5,20.1c1.4,3.1,3.9,5.6,7,7
				c0.8,0.3,1.7,0,2.1-0.8c0.3-0.8,0-1.7-0.8-2c-5.5-2.5-8-8.9-5.5-14.4c2.5-5.5,8.9-8,14.4-5.5c2.4,1.1,4.4,3.1,5.5,5.5
				c0.4,0.8,1.3,1.1,2.1,0.8C27.1,10.3,27.5,9.4,27.1,8.6L27.1,8.6L27.1,8.6z"/>
		</g>
	</g>
	<g id="Group_54" transform="translate(0 0)">
		<g id="Group_53" transform="translate(0 0)">
			<path id="Path_94" class="st1" d="M40.1,15.4C37.3,4.6,26.2-1.8,15.4,1S-1.9,15,1,25.8c1.9,7,7.4,12.5,14.4,14.4
				c0.1,0,0.3,0.1,0.4,0.1c0.9,0,1.6-0.7,1.6-1.6c0-0.7-0.5-1.3-1.2-1.5C7,34.7,1.6,25.4,4,16.2S15.8,1.6,24.9,4
				c5.9,1.6,10.6,6.2,12.2,12.2c0.2,0.8,1.1,1.3,1.9,1.1c0,0,0,0,0,0C39.9,17.1,40.3,16.2,40.1,15.4z"/>
		</g>
	</g>
</g>
</svg>
