<svg xmlns="http://www.w3.org/2000/svg" xmlns:xlink="http://www.w3.org/1999/xlink" width="22" height="22" viewBox="0 0 22 22">
  <defs>
    <clipPath id="clip-path">
      <rect id="矩形_1020" data-name="矩形 1020" width="22" height="22" transform="translate(1050 3435)" fill="#2c4b79" stroke="#707070" stroke-width="1"/>
    </clipPath>
  </defs>
  <g id="蒙版组_5" data-name="蒙版组 5" transform="translate(-1050 -3435)" clip-path="url(#clip-path)">
    <path id="fb" d="M10.595.012H7.944c-2.965,0-4.881,2.127-4.881,5.411V7.918H.413a.386.386,0,0,0-.159.034.413.413,0,0,0-.134.1A.45.45,0,0,0,.03,8.2.477.477,0,0,0,0,8.368v3.616a.465.465,0,0,0,.121.315.4.4,0,0,0,.292.131H3.063V21.55a.469.469,0,0,0,.122.318A.4.4,0,0,0,3.48,22H6.941a.4.4,0,0,0,.295-.132.469.469,0,0,0,.122-.318V12.434h3.1a.386.386,0,0,0,.159-.033.411.411,0,0,0,.135-.1.45.45,0,0,0,.09-.145.477.477,0,0,0,.032-.172V8.344a.486.486,0,0,0-.121-.319.409.409,0,0,0-.3-.131h-3.1V5.779c0-1.014.223-1.53,1.446-1.53h1.78a.386.386,0,0,0,.159-.033.411.411,0,0,0,.135-.1.449.449,0,0,0,.09-.145A.477.477,0,0,0,11,3.8V.446a.477.477,0,0,0-.032-.172.449.449,0,0,0-.09-.145.412.412,0,0,0-.135-.1A.386.386,0,0,0,10.583,0Z" transform="translate(1055.5 3435)" fill="#2c4b79"/>
  </g>
</svg>
