<svg xmlns="http://www.w3.org/2000/svg" xmlns:xlink="http://www.w3.org/1999/xlink" width="22" height="22" viewBox="0 0 22 22">
  <defs>
    <clipPath id="clip-path">
      <rect id="矩形_1021" data-name="矩形 1021" width="22" height="22" transform="translate(1106 3435)" fill="#2c4b79" stroke="#707070" stroke-width="1"/>
    </clipPath>
  </defs>
  <g id="蒙版组_6" data-name="蒙版组 6" transform="translate(-1106 -3435)" clip-path="url(#clip-path)">
    <path id="line" d="M22,9.075a8.631,8.631,0,0,1-.624,3.476,8.461,8.461,0,0,1-1.958,2.911,47.021,47.021,0,0,1-7.625,5.914,4.573,4.573,0,0,1-1.268.575c-.516.157-.686-.068-.536-.588s.333-1.073.441-1.622-.116-.851-.7-.962A23.747,23.747,0,0,1,7.084,18.2,9.968,9.968,0,0,1,.943,13.15a7.941,7.941,0,0,1,.545-8.384A10.688,10.688,0,0,1,9.233.146a11.972,11.972,0,0,1,7.75,1.4,9.24,9.24,0,0,1,4.719,5.8A14.935,14.935,0,0,1,22,9.075Zm-8.93,2.206-.079.03c-.079-.111-.162-.221-.237-.336-.59-.92-1.185-1.835-1.771-2.755-.17-.268-.374-.485-.723-.426s-.466.387-.47.724v4.036c0,.3.112.562.453.566s.491-.264.495-.579V10.067a3.736,3.736,0,0,1,.029-.511c.586.92,1.106,1.741,1.63,2.555a2.919,2.919,0,0,0,.52.728,1.047,1.047,0,0,0,.748.213c.137-.026.3-.362.316-.571.046-.473,0-.954,0-1.431V8.275a.437.437,0,0,0-.009-.185.429.429,0,0,0-.085-.164.418.418,0,0,0-.145-.111.408.408,0,0,0-.177-.038c-.3,0-.416.175-.478.426a3.046,3.046,0,0,0-.025.477C13.062,9.573,13.066,10.425,13.066,11.281Zm3.126-2.6h2.216c.274,0,.541-.055.536-.4s-.27-.4-.549-.4H15.852c-.557,0-.7.149-.7.732v3.738c0,.558.154.707.723.715h1.954a3.647,3.647,0,0,0,.831-.043.531.531,0,0,0,.217-.152.55.55,0,0,0,.12-.24c0-.136-.2-.307-.358-.387a1.17,1.17,0,0,0-.461-.026H16.2v-1.46h.241c.624,0,1.247,0,1.867-.021a.589.589,0,0,0,.253-.135.61.61,0,0,0,.163-.24c.066-.255-.154-.37-.391-.387H16.193ZM4.286,12.192v-1.2c0-.894,0-1.793-.025-2.687a.512.512,0,0,0-.041-.191.5.5,0,0,0-.11-.161.489.489,0,0,0-.161-.105.48.48,0,0,0-.375.008.491.491,0,0,0-.157.112.5.5,0,0,0-.1.165.514.514,0,0,0-.033.193V12.49a.505.505,0,0,0,.023.2.5.5,0,0,0,.1.177.482.482,0,0,0,.164.119.473.473,0,0,0,.2.04,3,3,0,0,0,.337.026H6.389c.254,0,.482-.111.474-.426s-.229-.426-.495-.426H4.29Zm3.326-1.776v2.039c0,.353.1.664.5.668s.52-.315.52-.66V8.47c0-.468-.208-.715-.532-.69-.416.034-.482.341-.486.681C7.6,9.13,7.6,9.782,7.6,10.433Z" transform="translate(1106 3435)" fill="#2c4b79"/>
  </g>
</svg>
