<svg xmlns="http://www.w3.org/2000/svg" xmlns:xlink="http://www.w3.org/1999/xlink" width="22" height="22" viewBox="0 0 22 22">
  <defs>
    <clipPath id="clip-path">
      <rect id="矩形_1018" data-name="矩形 1018" width="22" height="22" transform="translate(692 3400)" fill="#2c4b79" stroke="#707070" stroke-width="1"/>
    </clipPath>
  </defs>
  <g id="蒙版组_4" data-name="蒙版组 4" transform="translate(-692 -3400)" clip-path="url(#clip-path)">
    <path id="mail" d="M2.039,15.08A2.046,2.046,0,0,1,.6,14.527,1.753,1.753,0,0,1,0,13.2V1.885A1.747,1.747,0,0,1,.6.554,2.052,2.052,0,0,1,2.039,0H18.351a2.048,2.048,0,0,1,1.441.554,1.746,1.746,0,0,1,.6,1.331V13.2a1.752,1.752,0,0,1-.6,1.332,2.042,2.042,0,0,1-1.441.553Zm8.156-6.6L18.351,3.77V1.885L10.195,6.6,2.039,1.885V3.77Z" transform="translate(692.805 3403.46)" fill="#2c4b79"/>
  </g>
</svg>
