<svg xmlns="http://www.w3.org/2000/svg" xmlns:xlink="http://www.w3.org/1999/xlink" width="22" height="22" viewBox="0 0 22 22">
  <defs>
    <clipPath id="clip-path">
      <rect id="矩形_1019" data-name="矩形 1019" width="22" height="22" transform="translate(690 3464)" fill="#2c4b79" stroke="#707070" stroke-width="1"/>
    </clipPath>
  </defs>
  <g id="蒙版组_3" data-name="蒙版组 3" transform="translate(-690 -3464)" clip-path="url(#clip-path)">
    <path id="map" d="M7.7,18.7a25.828,25.828,0,0,1-5.789-5.555A9.141,9.141,0,0,1,0,7.865,7.786,7.786,0,0,1,2.145,2.214,7.391,7.391,0,0,1,7.7,0a7.391,7.391,0,0,1,5.555,2.214A7.786,7.786,0,0,1,15.4,7.865a9.141,9.141,0,0,1-1.911,5.28A25.827,25.827,0,0,1,7.7,18.7Zm0-8.8A2.206,2.206,0,0,0,9.9,7.7,2.206,2.206,0,0,0,7.7,5.5,2.206,2.206,0,0,0,5.5,7.7,2.206,2.206,0,0,0,7.7,9.9ZM0,22V19.8H15.4V22Z" transform="translate(693.3 3464)" fill="#2c4b79"/>
  </g>
</svg>
