<svg xmlns="http://www.w3.org/2000/svg" xmlns:xlink="http://www.w3.org/1999/xlink" width="22" height="22" viewBox="0 0 22 22">
  <defs>
    <clipPath id="clip-path">
      <rect id="矩形_1013" data-name="矩形 1013" width="22" height="22" transform="translate(478 3398)" fill="#2c4b79" stroke="#707070" stroke-width="1"/>
    </clipPath>
  </defs>
  <g id="蒙版组_2" data-name="蒙版组 2" transform="translate(-478 -3398)" clip-path="url(#clip-path)">
    <path id="phone" d="M16.132,19.129a1.1,1.1,0,0,0-.318-.8l-3.216-3.3a1.1,1.1,0,0,0-.5-.274,1.306,1.306,0,0,0-.933.088l-1.46.845H9.415l-.241-.121a3.551,3.551,0,0,1-.637-.483,12.083,12.083,0,0,1-.955-1.1A13.721,13.721,0,0,1,6.375,12.1,14.677,14.677,0,0,1,5.4,10.129a9.274,9.274,0,0,1-.406-1.383,3.764,3.764,0,0,1-.1-1.1.362.362,0,0,1,.077-.143.329.329,0,0,1,.1-.11l1.251-.7a1.339,1.339,0,0,0,.527-.549.988.988,0,0,0,.088-.724L5.925.768a1.811,1.811,0,0,0-.23-.461A.823.823,0,0,0,5.277.032a.944.944,0,0,0-.724.1L1.161,2.052a1.6,1.6,0,0,0-.472.373,2.744,2.744,0,0,0-.461.911,4.291,4.291,0,0,0-.2,1.01,10.393,10.393,0,0,0,0,1.6,13.719,13.719,0,0,0,.307,2.2,20.008,20.008,0,0,0,.823,2.733,22.718,22.718,0,0,0,1.591,3.293,20.6,20.6,0,0,0,2.535,3.721,18.207,18.207,0,0,0,2.36,2.3,10.281,10.281,0,0,0,1.9,1.229,8.216,8.216,0,0,0,1.569.549,1.737,1.737,0,0,0,.626,0,1.417,1.417,0,0,0,.56-.209l3.391-1.888a.988.988,0,0,0,.439-.746Z" transform="translate(480.934 3398)" fill="#2c4b79"/>
  </g>
</svg>
