<svg width="14" height="14" viewBox="0 0 14 14" fill="none" xmlns="http://www.w3.org/2000/svg">
<g clip-path="url(#clip0_182_121486)">
<path d="M13.892 2.69228L12.8767 6.9674C12.6914 7.74747 12.002 8.29228 11.2003 8.29228H5.03715L5.27967 9.30287C5.37271 9.69067 5.71631 9.96151 6.11509 9.96151H12.2228V10.8231H6.11509C5.31634 10.8231 4.62829 10.2806 4.44188 9.50393L2.55171 1.6279C2.45861 1.24005 2.11508 0.969204 1.71624 0.969204H0.107422V0.107666H1.71624C2.51494 0.107666 3.20304 0.650112 3.38945 1.42684L3.69315 2.69228H13.892ZM5.20391 12.6538C5.20391 13.3378 5.75836 13.8923 6.44237 13.8923C7.12638 13.8923 7.68083 13.3378 7.68083 12.6538C7.68083 11.9698 7.12638 11.4154 6.44237 11.4154C5.75836 11.4154 5.20391 11.9698 5.20391 12.6538ZM9.72698 12.6538C9.72698 13.3378 10.2814 13.8923 10.9654 13.8923C11.6495 13.8923 12.2039 13.3378 12.2039 12.6538C12.2039 11.9698 11.6495 11.4154 10.9654 11.4154C10.2814 11.4154 9.72698 11.9698 9.72698 12.6538Z" fill="#CC8869"/>
</g>
<defs>
<clipPath id="clip0_182_121486">
<rect width="14" height="14" fill="white"/>
</clipPath>
</defs>
</svg>
