<svg width="137" height="76" viewBox="0 0 137 76" fill="none" xmlns="http://www.w3.org/2000/svg">
<g opacity="0.3" clip-path="url(#clip0_90_25324)">
<path d="M134.948 50.892C131.269 57.5928 123.719 62.2242 114.942 62.2242C112.174 62.2242 109.531 61.7634 107.087 60.9247C104.342 59.7632 101.379 58.7593 98.0702 58.7593C91.5328 58.7593 86.3372 61.9936 82.2736 66.7015C77.1842 71.8311 70.1392 75 62.3571 75C53.094 75 44.8742 70.5039 39.7459 63.5664L38.9399 62.4759L38.1363 63.5682C34.2282 68.8805 27.2659 71.3948 20.6289 69.3394C13.8993 67.249 9.53483 61.0923 9.40817 54.384L9.40792 54.3705L9.4073 54.357C9.15817 48.9344 6.4624 43.8795 2.09942 40.6647C3.82139 40.0455 5.69007 39.7071 7.57056 39.7071C10.0709 39.7071 12.4263 40.2811 14.5369 41.2982C15.3133 41.6959 16.0496 42.0123 16.9068 42.2764C16.9071 42.2765 16.9074 42.2766 16.9077 42.2767L17.2021 41.321M134.948 50.892L31.6234 34.2577M134.948 50.892C133.317 51.4813 131.559 51.8034 129.723 51.8034H129.309L129.297 51.7917L134.948 50.892ZM17.2021 41.321C23.0666 43.1391 28.8578 39.8457 30.6679 33.9628M17.2021 41.321C16.4071 41.0761 15.7222 40.7823 14.9822 40.4028L17.2021 41.321ZM30.6679 33.9628L31.6232 34.2585C31.6232 34.2582 31.6233 34.258 31.6234 34.2577M30.6679 33.9628L31.6236 34.2569C31.6236 34.2572 31.6235 34.2574 31.6234 34.2577M30.6679 33.9628C31.0715 32.6589 31.2427 31.3366 31.1693 30.0511M31.6234 34.2577C32.0566 32.8579 32.2457 31.4267 32.1693 30.0232M31.1693 30.0511H32.1693V30.0232M31.1693 30.0511V29.8736C31.1693 13.3697 44.5006 -0.00610352 60.9445 -0.00610352C65.6471 -0.00610352 70.3253 1.11415 74.5081 3.26897L32.1693 30.0232M31.1693 30.0511L32.1677 29.9941C32.1682 30.0038 32.1688 30.0135 32.1693 30.0232" stroke="#CC8869" stroke-width="2"/>
</g>
<defs>
<clipPath id="clip0_90_25324">
<rect width="137" height="76" fill="white"/>
</clipPath>
</defs>
</svg>
