<svg width="154" height="102" viewBox="0 0 154 102" fill="none" xmlns="http://www.w3.org/2000/svg">
<g opacity="0.3" clip-path="url(#clip0_90_25321)">
<path d="M186.498 74.974L186.496 74.981C181.546 74.1473 177.537 71.0659 175.317 66.9526L175.216 66.9947L174.815 66.1105C171.927 59.7462 166.054 54.8992 158.697 53.662C156.72 53.3308 154.763 53.291 152.86 53.4971C152.677 53.536 152.47 53.5641 152.25 53.5645C152.247 53.5647 152.242 53.565 152.231 53.5656C152.222 53.5662 152.204 53.5672 152.182 53.5682C150.173 53.844 148.234 54.4113 146.414 55.2262C144.478 56.384 142.869 58.0953 141.831 60.2272L141.831 60.2273C140.791 62.3643 140.637 64.7752 141.403 67.0195L141.404 67.022C142.165 69.2728 143.748 71.0821 145.864 72.1255C147.29 72.8277 148.915 72.9762 150.44 72.5438L150.442 72.5433C152.12 72.0705 153.858 73.0504 154.334 74.7281C154.811 76.4081 153.835 78.1611 152.16 78.641L152.159 78.6412C151.017 78.9676 149.852 79.1243 148.689 79.1243C146.763 79.1243 144.842 78.6842 143.082 77.8094C139.453 76.0179 136.741 72.9028 135.435 69.0591C134.128 65.214 134.389 61.0785 136.168 57.429C138.036 53.5903 141.108 50.6356 144.801 48.912C144.332 42.6625 140.282 37.4342 134.714 35.2894C133.866 45.036 128.208 53.6724 119.463 58.2576L119.463 58.2577C116.075 60.033 112.383 60.934 108.66 60.934C106.284 60.934 103.898 60.5679 101.567 59.8253L101.567 59.8253C95.5902 57.9215 90.7085 53.7915 87.8174 48.1938L87.8171 48.1933C85.6094 43.9129 85.0502 38.9765 86.2443 34.3098L86.2446 34.3087C86.6797 32.6157 88.3953 31.5933 90.0907 32.0336L90.0918 32.0339C91.7779 32.4739 92.7907 34.2038 92.356 35.8956M186.498 74.974L91.3874 35.647M186.498 74.974C189.185 75.4236 191.829 75.152 194.232 74.3019C190.8 82.2526 182.405 87.1765 173.562 85.8553L172.949 85.7637L172.594 86.2719C168.123 92.6771 160.273 96.2842 152.106 94.9116C144.044 93.5546 137.836 87.708 135.597 80.3239L134.802 77.7036L133.721 80.2193C127.611 94.4374 112.486 103.186 96.6511 100.519L96.6508 100.519C87.6485 99.0067 80.0676 94.0732 74.9665 87.2636C77.0916 83.0806 77.5627 78.1783 76.1207 73.5266C74.9202 69.6453 72.285 66.4659 68.7111 64.5745L68.71 64.5739C65.1352 62.6879 61.033 62.3121 57.1781 63.5264L57.1776 63.5266C54.1768 64.4737 51.6393 66.4947 50.0328 69.2122C49.1458 70.7121 49.6352 72.6579 51.1325 73.5528C52.6337 74.4501 54.5697 73.9499 55.4584 72.4483C56.2742 71.0738 57.5521 70.0557 59.0663 69.5803C61.3114 68.8764 63.6946 69.0908 65.7799 70.1938C67.8671 71.2978 69.4006 73.1476 70.1022 75.4183L70.1026 75.4197C70.9279 78.0776 70.7972 80.8648 69.82 83.3453C69.768 83.4627 69.7313 83.5508 69.699 83.6283C69.6556 83.7327 69.62 83.818 69.5659 83.9299L69.5374 83.9887L69.5336 84.0003C69.5329 84.0018 69.5323 84.0033 69.5316 84.0048C69.0083 85.0714 68.353 86.0577 67.5954 86.9429C67.4375 87.1256 67.2702 87.3039 67.0981 87.473C67.0308 87.5343 66.984 87.591 66.9572 87.6251C66.9561 87.6266 66.955 87.628 66.9539 87.6294C63.8837 90.7614 59.4025 92.389 54.7585 91.6104C51.5111 91.0637 48.7147 89.4312 46.6798 87.1387L46.6554 87.1043L45.9108 86.0564L45.0783 87.0358C41.2341 91.5582 35.5312 94.4198 29.165 94.4198C17.6049 94.4198 8.22075 84.9763 8.22075 73.3113L8.22075 73.3102C8.21538 68.74 5.95382 64.3092 1.9775 61.6983C3.55413 60.906 5.33072 60.4616 7.21522 60.4616C10.0976 60.4616 12.7706 61.4357 14.8003 63.135L15.0789 63.3683H15.0928C16.8017 64.9636 18.9838 66.0082 21.5351 66.0082C26.5546 66.0082 30.6958 62.1972 30.6958 57.0663C30.6958 45.6902 39.8423 36.4858 51.1148 36.4858C55.8421 36.4858 60.1878 38.1006 63.6453 40.8132L65.788 42.4942L65.2423 39.8261C64.8077 37.7013 64.577 35.4954 64.577 33.2405C64.577 15.4336 79.148 1.00562 96.5625 1.00562C113.962 1.00562 128.118 15.0132 128.53 32.4615C128.53 32.4636 128.53 32.4656 128.53 32.4677C128.528 32.4935 128.526 32.5277 128.526 32.568L128.526 32.5755C128.589 41.0521 124 48.7417 116.545 52.6455M186.498 74.974L129.531 32.4902C129.531 32.5041 129.53 32.5166 129.529 32.5291C129.527 32.5416 129.526 32.5541 129.526 32.568C129.592 41.4159 124.799 49.4522 117.008 53.5316M92.356 35.8956C92.356 35.8957 92.356 35.8958 92.3559 35.8959L91.3874 35.647M92.356 35.8956C92.3561 35.8953 92.3562 35.895 92.3563 35.8946L91.3874 35.647M92.356 35.8956C91.5488 39.0545 91.9245 42.3872 93.4202 45.2805L93.4204 45.2808C95.5386 49.3815 99.1053 52.3986 103.473 53.7904C107.84 55.1818 112.479 54.7731 116.545 52.6455M91.3874 35.647C90.5194 39.0427 90.923 42.6274 92.5319 45.7397C94.7711 50.0747 98.5474 53.2704 103.17 54.7432C107.792 56.2159 112.707 55.7824 117.008 53.5316M116.545 52.6455C116.545 52.6456 116.545 52.6456 116.545 52.6457L117.008 53.5316M116.545 52.6455L117.008 53.5316M64.2626 40.0264C63.8795 39.7259 63.486 39.4382 63.0827 39.1639C63.144 39.5202 63.2108 39.8746 63.2828 40.2268L64.2626 40.0264ZM64.2626 40.0264C64.165 39.5493 64.0774 39.0682 64 38.5835C64.2988 38.7951 64.5921 39.0139 64.8798 39.2397L64.2626 40.0264ZM-0.0166016 61.7236L0.171382 61.807L-0.0166016 61.7236ZM69.5595 83.9453L69.559 83.9465C69.5601 83.9442 69.5609 83.9426 69.5595 83.9453Z" stroke="#CC8869" stroke-width="2"/>
</g>
<defs>
<clipPath id="clip0_90_25321">
<rect width="196" height="102" fill="white"/>
</clipPath>
</defs>
</svg>
