<svg xmlns="http://www.w3.org/2000/svg" xmlns:xlink="http://www.w3.org/1999/xlink" width="48" height="38" viewBox="0 0 48 38">
  <defs>
    <clipPath id="clip-path">
      <rect id="Rectangle_762" data-name="Rectangle 762" width="48" height="38" transform="translate(822 1370)" fill="#ccc" stroke="#707070" stroke-width="1"/>
    </clipPath>
  </defs>
  <g id="Mask_Group_64" data-name="Mask Group 64" transform="translate(-822 -1370)" clip-path="url(#clip-path)">
    <g id="list_5_" data-name="list (5)" transform="translate(827 1370)">
      <g id="Group_408" data-name="Group 408">
        <g id="Group_407" data-name="Group 407">
          <path id="Path_450" data-name="Path 450" d="M30.128,4.979H26.69V3.441c0-.5-.543-.724-1.04-.724H22.981A4.046,4.046,0,0,0,18.955,0a4.116,4.116,0,0,0-4.026,2.714H12.305c-.5,0-1,.226-1,.724V4.979H7.872a3.845,3.845,0,0,0-3.8,3.664V34.562A3.639,3.639,0,0,0,7.872,38H30.128a3.639,3.639,0,0,0,3.8-3.438V8.643A3.845,3.845,0,0,0,30.128,4.979ZM13.12,4.526h2.488a1,1,0,0,0,.859-.814,2.624,2.624,0,0,1,2.488-2.036A2.578,2.578,0,0,1,21.4,3.712a1,1,0,0,0,.9.814h2.578V8.145H13.12Zm19,30.036a1.835,1.835,0,0,1-1.99,1.628H7.872a1.835,1.835,0,0,1-1.99-1.628V8.643a2.035,2.035,0,0,1,1.99-1.855H11.31V9.1a.95.95,0,0,0,1,.86H25.65a1,1,0,0,0,1.04-.86V6.788h3.438a2.036,2.036,0,0,1,1.99,1.855v25.92Z" fill="#ccc"/>
          <path id="Path_451" data-name="Path 451" d="M15.517,20.223a.9.9,0,0,0-1.267-.045l-2.9,2.759L10.134,21.67a.9.9,0,0,0-1.267-.045.95.95,0,0,0,0,1.312l1.855,1.9a.814.814,0,0,0,.633.271.9.9,0,0,0,.633-.271l3.528-3.347a.859.859,0,0,0,.052-1.214C15.553,20.257,15.535,20.24,15.517,20.223Z" fill="#ccc"/>
          <path id="Path_452" data-name="Path 452" d="M28.5,22.168H18.1a.9.9,0,0,0,0,1.809H28.5a.9.9,0,0,0,0-1.809Z" fill="#ccc"/>
          <path id="Path_453" data-name="Path 453" d="M15.517,12.985a.9.9,0,0,0-1.267-.045l-2.9,2.759-1.221-1.267a.9.9,0,0,0-1.267-.045.95.95,0,0,0,0,1.312l1.855,1.9a.814.814,0,0,0,.633.271.9.9,0,0,0,.633-.271l3.528-3.347a.859.859,0,0,0,.052-1.214C15.553,13.019,15.535,13,15.517,12.985Z" fill="#ccc"/>
          <path id="Path_454" data-name="Path 454" d="M28.5,14.93H18.1a.9.9,0,1,0,0,1.809H28.5a.9.9,0,0,0,0-1.809Z" fill="#ccc"/>
          <path id="Path_455" data-name="Path 455" d="M15.517,27.46a.9.9,0,0,0-1.267-.045l-2.9,2.759-1.221-1.267a.9.9,0,0,0-1.267-.045.95.95,0,0,0,0,1.312l1.855,1.9a.814.814,0,0,0,.633.271.9.9,0,0,0,.633-.271l3.528-3.347a.859.859,0,0,0,.052-1.214C15.553,27.494,15.535,27.477,15.517,27.46Z" fill="#ccc"/>
          <path id="Path_456" data-name="Path 456" d="M28.5,29.406H18.1a.9.9,0,1,0,0,1.809H28.5a.9.9,0,0,0,0-1.809Z" fill="#ccc"/>
        </g>
      </g>
    </g>
  </g>
</svg>
