<svg width="25" height="22" viewBox="0 0 25 22" fill="none" xmlns="http://www.w3.org/2000/svg">
<path d="M19.8489 18.4067C19.8524 18.2718 19.8285 18.1375 19.7786 18.0121C19.7288 17.8866 19.654 17.7725 19.5589 17.6767L16.6289 14.6667C16.5005 14.544 16.3417 14.4577 16.1689 14.4167C15.8855 14.3373 15.5826 14.3658 15.3189 14.4967L13.9889 15.2667H13.8489H13.7289L13.5089 15.1567C13.2996 15.0324 13.1051 14.8848 12.9289 14.7167C12.6191 14.4012 12.3286 14.0672 12.0589 13.7167C11.6464 13.1775 11.2786 12.6057 10.9589 12.0067C10.6176 11.4299 10.3201 10.8282 10.0689 10.2067C9.9131 9.79696 9.7894 9.37569 9.69894 8.94673C9.62005 8.61962 9.58972 8.28267 9.60894 7.94673C9.62215 7.89867 9.64608 7.85422 9.67894 7.81673C9.70098 7.77701 9.73175 7.74283 9.76894 7.71674L10.9089 7.07674C11.1139 6.95998 11.2806 6.7863 11.3889 6.57674C11.4989 6.37501 11.5275 6.13888 11.4689 5.91673L10.5489 1.67673C10.4993 1.52743 10.4286 1.386 10.3389 1.25673C10.2412 1.13607 10.1084 1.04872 9.95894 1.00673C9.84847 0.977088 9.7332 0.969791 9.61987 0.985245C9.50654 1.0007 9.39743 1.03859 9.29894 1.09673L6.20894 2.84673C6.04542 2.93189 5.89952 3.04727 5.77894 3.18674C5.58824 3.43469 5.44578 3.71623 5.35894 4.01674C5.26226 4.31508 5.20182 4.62396 5.17893 4.93674C5.14136 5.42268 5.14136 5.91079 5.17893 6.39673C5.21817 7.06986 5.31181 7.7387 5.45894 8.39673C5.64934 9.24352 5.89998 10.0756 6.20894 10.8867C6.61087 11.9241 7.09577 12.9273 7.65893 13.8867C8.30277 15.0977 9.0774 16.2345 9.96894 17.2767C10.6206 18.0403 11.3402 18.7432 12.1189 19.3767C12.6526 19.8126 13.2328 20.1882 13.8489 20.4967C14.3075 20.7113 14.7866 20.8789 15.2789 20.9967C15.4674 21.0313 15.6605 21.0313 15.8489 20.9967C16.0305 20.9704 16.2044 20.9056 16.3589 20.8067L19.4489 19.0867C19.5629 19.0112 19.6581 18.9107 19.7274 18.7929C19.7967 18.6751 19.8383 18.543 19.8489 18.4067Z" fill="#009DFF"/>
</svg>
