<svg width="25" height="20" viewBox="0 0 25 20" fill="none" xmlns="http://www.w3.org/2000/svg">
<path d="M12.5 19C11.2615 19 10.0948 18.7632 9 18.2895C7.90517 17.8157 6.95167 17.1727 6.1395 16.3605C5.32733 15.5483 4.68433 14.5948 4.2105 13.5C3.73683 12.4052 3.5 11.2385 3.5 10C3.5 8.75767 3.73683 7.59 4.2105 6.497C4.68433 5.40417 5.32733 4.45167 6.1395 3.6395C6.95167 2.82733 7.90517 2.18433 9 1.7105C10.0948 1.23683 11.2615 1 12.5 1C13.7423 1 14.91 1.23683 16.003 1.7105C17.0958 2.18433 18.0483 2.82733 18.8605 3.6395C19.6727 4.45167 20.3157 5.40417 20.7895 6.497C21.2632 7.59 21.5 8.75767 21.5 10C21.5 11.2385 21.2632 12.4052 20.7895 13.5C20.3157 14.5948 19.6727 15.5483 18.8605 16.3605C18.0483 17.1727 17.0958 17.8157 16.003 18.2895C14.91 18.7632 13.7423 19 12.5 19ZM12.5 18.0077C13.0872 17.2539 13.5712 16.5135 13.952 15.7865C14.3327 15.0597 14.6423 14.2463 14.8807 13.3463H10.1192C10.3834 14.2974 10.6994 15.1365 11.0673 15.8635C11.4353 16.5903 11.9128 17.3051 12.5 18.0077ZM11.227 17.8577C10.7603 17.3078 10.3343 16.6279 9.949 15.8182C9.56383 15.0086 9.277 14.1846 9.0885 13.3463H5.25375C5.82692 14.5898 6.63942 15.6096 7.69125 16.4057C8.74325 17.2019 9.92183 17.6859 11.227 17.8577ZM13.773 17.8577C15.0782 17.6859 16.2567 17.2019 17.3087 16.4057C18.3606 15.6096 19.1731 14.5898 19.7463 13.3463H15.9115C15.659 14.1974 15.3401 15.0278 14.9548 15.8375C14.5696 16.6472 14.1757 17.3206 13.773 17.8577ZM4.84625 12.3463H8.88075C8.80508 11.9359 8.75158 11.5362 8.72025 11.147C8.68875 10.758 8.673 10.3757 8.673 10C8.673 9.62433 8.68875 9.242 8.72025 8.853C8.75158 8.46383 8.80508 8.06408 8.88075 7.65375H4.84625C4.73725 7.99992 4.65225 8.37717 4.59125 8.7855C4.53042 9.19383 4.5 9.59867 4.5 10C4.5 10.4013 4.53042 10.8062 4.59125 11.2145C4.65225 11.6228 4.73725 12.0001 4.84625 12.3463ZM9.88075 12.3463H15.1193C15.1949 11.9359 15.2484 11.5426 15.2797 11.1663C15.3112 10.7901 15.327 10.4013 15.327 10C15.327 9.59867 15.3112 9.20992 15.2797 8.83375C15.2484 8.45742 15.1949 8.06408 15.1193 7.65375H9.88075C9.80508 8.06408 9.75158 8.45742 9.72025 8.83375C9.68875 9.20992 9.673 9.59867 9.673 10C9.673 10.4013 9.68875 10.7901 9.72025 11.1663C9.75158 11.5426 9.80508 11.9359 9.88075 12.3463ZM16.1193 12.3463H20.1538C20.2628 12.0001 20.3477 11.6228 20.4088 11.2145C20.4696 10.8062 20.5 10.4013 20.5 10C20.5 9.59867 20.4696 9.19383 20.4088 8.7855C20.3477 8.37717 20.2628 7.99992 20.1538 7.65375H16.1193C16.1949 8.06408 16.2484 8.46383 16.2797 8.853C16.3112 9.242 16.327 9.62433 16.327 10C16.327 10.3757 16.3112 10.758 16.2797 11.147C16.2484 11.5362 16.1949 11.9359 16.1193 12.3463ZM15.9115 6.65375H19.7463C19.1602 5.38458 18.3573 4.36475 17.3375 3.59425C16.3177 2.82375 15.1295 2.33333 13.773 2.123C14.2397 2.73717 14.6593 3.43942 15.0318 4.22975C15.4043 5.02025 15.6975 5.82825 15.9115 6.65375ZM10.1192 6.65375H14.8807C14.6166 5.71542 14.2909 4.86675 13.9038 4.10775C13.5166 3.34875 13.0487 2.64358 12.5 1.99225C11.9513 2.64358 11.4834 3.34875 11.0963 4.10775C10.7091 4.86675 10.3834 5.71542 10.1192 6.65375ZM5.25375 6.65375H9.0885C9.3025 5.82825 9.59575 5.02025 9.96825 4.22975C10.3408 3.43942 10.7603 2.73717 11.227 2.123C9.85767 2.33333 8.66633 2.82692 7.653 3.60375C6.6395 4.38075 5.83975 5.39742 5.25375 6.65375Z" fill="#009DFF"/>
</svg>
