<svg xmlns="http://www.w3.org/2000/svg" xmlns:xlink="http://www.w3.org/1999/xlink" width="62" height="59" viewBox="0 0 62 59">
  <defs>
    <clipPath id="clip-path">
      <rect id="Rectangle_186" data-name="Rectangle 186" width="62" height="50" transform="translate(-0.429 -0.267)" fill="#fff" stroke="#707070" stroke-width="1"/>
    </clipPath>
    <clipPath id="clip-path-2">
      <rect id="Rectangle_189" data-name="Rectangle 189" width="49" height="49" transform="translate(0.304 -0.162)" fill="#fff" stroke="#707070" stroke-width="1"/>
    </clipPath>
  </defs>
  <g id="Group_376" data-name="Group 376" transform="translate(-137 -134)">
    <g id="Ellipse_60" data-name="Ellipse 60" transform="translate(139 134)" fill="#fff" stroke="#ffe58d" stroke-width="1">
      <circle cx="29.5" cy="29.5" r="29.5" stroke="none"/>
      <circle cx="29.5" cy="29.5" r="29" fill="none"/>
    </g>
    <g id="Group_339" data-name="Group 339" transform="translate(137.429 138.267)">
      <g id="Mask_Group_10" data-name="Mask Group 10" transform="translate(0 0)" clip-path="url(#clip-path)">
        <g id="team" transform="translate(6.267 6.67)">
          <path id="Path_684" data-name="Path 684" d="M39.919,24.116v.557a6.354,6.354,0,0,0,.326,2.009l1.262,3.787H43.89V21.734H42.3A2.383,2.383,0,0,0,39.919,24.116Z" transform="translate(-4.179 -9.026)" fill="#fff" stroke="#fff" stroke-width="3"/>
          <path id="Path_685" data-name="Path 685" d="M50.98,25.673l-1.344,4.7-6.354-5.56a1.588,1.588,0,0,1-1.588-1.588h0a2.383,2.383,0,0,1,2.383-2.383h5.56a1.588,1.588,0,0,1,1.588,1.588v1.493A6.351,6.351,0,0,1,50.98,25.673Z" transform="translate(-4.365 -8.933)" fill="#fff" stroke="#fff" stroke-width="3"/>
          <rect id="Rectangle_184" data-name="Rectangle 184" width="4.765" height="3.515" transform="translate(38.916 23.827)" fill="#fff" stroke="#fff" stroke-width="3"/>
          <path id="Path_686" data-name="Path 686" d="M43.468,35.612a6.3,6.3,0,0,0,4.765,0V34.153H43.468v1.459Z" transform="translate(-4.551 -10.326)" fill="#fff" stroke="#fff" stroke-width="3"/>
          <path id="Path_687" data-name="Path 687" d="M51.414,37.4l-3.832-1.095L45.2,37.886l-2.383-1.581L38.986,37.4a2.383,2.383,0,0,0-1.728,2.291V45.5a.794.794,0,0,0,.794.794h14.3a.794.794,0,0,0,.794-.794V39.691A2.383,2.383,0,0,0,51.414,37.4Z" transform="translate(-3.901 -10.552)" fill="#fff" stroke="#fff" stroke-width="3"/>
          <path id="Path_688" data-name="Path 688" d="M46.83,46.477H45.242l.4-8.4h.794Z" transform="translate(-4.737 -10.738)" fill="#fff" stroke="#fff" stroke-width="3"/>
          <path id="Path_689" data-name="Path 689" d="M45.572,34.02h0a4.765,4.765,0,0,1-4.765-4.765v-.93a1.589,1.589,0,0,1,.465-1.123l1.44-1.44a1.57,1.57,0,0,1,1.153-.467c2.539.08,4.786.624,6.015,1.824a1.568,1.568,0,0,1,.458,1.125v1.012A4.765,4.765,0,0,1,45.572,34.02Z" transform="translate(-4.272 -9.399)" fill="#fff" stroke="#fff" stroke-width="3"/>
          <path id="Path_690" data-name="Path 690" d="M43.189,28.521a1.585,1.585,0,0,1,1.684-1.586,16.759,16.759,0,0,1,5.442,1.072,1.535,1.535,0,0,0-.436-.89c-1.228-1.2-3.476-1.744-6.015-1.824h0a1.57,1.57,0,0,0-1.153.467l-1.44,1.44a1.588,1.588,0,0,0-.465,1.123v.93a4.764,4.764,0,0,0,3.445,4.576,4.726,4.726,0,0,1-1.062-2.987V28.521Z" transform="translate(-4.272 -9.399)" fill="#fff" stroke="#fff" stroke-width="3"/>
          <path id="Path_691" data-name="Path 691" d="M51.452,42.294a2.383,2.383,0,0,1,.7-1.685l2.044-2.044a2.373,2.373,0,0,1,.435,1.363v5.807a.794.794,0,0,1-.794.794H51.452V42.294Z" transform="translate(-5.387 -10.788)" fill="#fff" stroke="#fff" stroke-width="3"/>
          <path id="Path_692" data-name="Path 692" d="M46.433,39.668h-.794a.4.4,0,0,1-.4-.4V38.079H46.83v1.191A.4.4,0,0,1,46.433,39.668Z" transform="translate(-4.737 -10.738)" fill="#fff" stroke="#fff" stroke-width="3"/>
          <g id="Group_315" data-name="Group 315" transform="translate(38.039 25.123)">
            <path id="Path_693" data-name="Path 693" d="M45.748,37.813,44.4,38.841a.477.477,0,0,1-.707-.15l-1.208-2.205.486-.741a.318.318,0,0,1,.482-.059Z" transform="translate(-42.487 -35.601)" fill="#fff" stroke="#fff" stroke-width="3"/>
            <path id="Path_694" data-name="Path 694" d="M46.129,37.813l1.346,1.028a.477.477,0,0,0,.707-.15l1.208-2.205-.486-.741a.318.318,0,0,0-.482-.059Z" transform="translate(-42.868 -35.601)" fill="#fff" stroke="#fff" stroke-width="3"/>
          </g>
          <path id="Path_695" data-name="Path 695" d="M14.24,33.26a28.664,28.664,0,0,1-1.333-6.5A5.757,5.757,0,0,0,7.257,21.2a5.757,5.757,0,0,0-5.649,5.56,28.665,28.665,0,0,1-1.333,6.5A.791.791,0,0,0,.688,34.27,15.17,15.17,0,0,0,4.836,35.5H9.678a15.3,15.3,0,0,0,4.148-1.227A.791.791,0,0,0,14.24,33.26Z" transform="translate(-0.023 -8.97)" fill="#fff" stroke="#fff" stroke-width="3"/>
          <path id="Path_696" data-name="Path 696" d="M14.372,34.27a.791.791,0,0,0,.413-1.011,28.663,28.663,0,0,1-1.333-6.5A5.757,5.757,0,0,0,7.8,21.2H7.78A2.424,2.424,0,0,0,6.6,25.694a2.192,2.192,0,0,0,.2.108L8.609,35.5h1.616A15.313,15.313,0,0,0,14.372,34.27Z" transform="translate(-0.569 -8.97)" fill="#fff" stroke="#fff" stroke-width="3"/>
          <path id="Path_697" data-name="Path 697" d="M12.979,38.355l-2.57-1.285a1.588,1.588,0,0,1-.878-1.421V33.266H4.765v2.383a1.588,1.588,0,0,1-.878,1.421l-2.57,1.285A2.382,2.382,0,0,0,0,40.486v4.694a.794.794,0,0,0,.794.794H13.5a.794.794,0,0,0,.794-.794V40.486A2.383,2.383,0,0,0,12.979,38.355Z" transform="translate(0 -10.234)" fill="#fff" stroke="#fff" stroke-width="3"/>
          <path id="Path_698" data-name="Path 698" d="M7.7,36.443a6.277,6.277,0,0,0,2.425-.49,1.566,1.566,0,0,1-.043-.3V33.266H5.318v2.383a1.564,1.564,0,0,1-.043.305A6.309,6.309,0,0,0,7.7,36.443Z" transform="translate(-0.552 -10.234)" fill="#fff" stroke="#fff" stroke-width="3"/>
          <path id="Path_699" data-name="Path 699" d="M12.979,38.843l-1.831-.915a4.759,4.759,0,0,1-8,0l-1.831.916A2.382,2.382,0,0,0,0,40.974v4.694a.794.794,0,0,0,.794.794H13.5a.794.794,0,0,0,.794-.794V40.974A2.383,2.383,0,0,0,12.979,38.843Z" transform="translate(0 -10.722)" fill="#fff" stroke="#fff" stroke-width="3"/>
          <path id="Path_700" data-name="Path 700" d="M7.43,34.127h0A4.766,4.766,0,0,1,2.7,29.978a.8.8,0,0,1,.424-.826A6.63,6.63,0,0,0,4.535,28.2a4.586,4.586,0,0,0,1.087-1.43.786.786,0,0,1,.9-.435A13.684,13.684,0,0,1,11.908,29.1a.768.768,0,0,1,.273.639A4.766,4.766,0,0,1,7.43,34.127Z" transform="translate(-0.282 -9.506)" fill="#fff" stroke="#fff" stroke-width="3"/>
          <path id="Path_701" data-name="Path 701" d="M11.908,29.1a13.683,13.683,0,0,0-5.391-2.762.786.786,0,0,0-.9.435A4.547,4.547,0,0,1,4.9,27.833v0a4.261,4.261,0,0,1-.36.368,6.626,6.626,0,0,1-1.406.949.8.8,0,0,0-.424.826,4.773,4.773,0,0,0,4,4.094,3.477,3.477,0,0,1-1.66-3.122V29.817c.18-.133.362-.266.545-.429a6.323,6.323,0,0,0,1.136-1.34A11.994,11.994,0,0,1,10.868,30.3c.151.132.524.476.961.886a4.729,4.729,0,0,0,.352-1.448A.768.768,0,0,0,11.908,29.1Z" transform="translate(-0.282 -9.506)" fill="#fff" stroke="#fff" stroke-width="3"/>
          <path id="Path_702" data-name="Path 702" d="M.484,39.731A2.378,2.378,0,0,0,0,41.163v4.694a.794.794,0,0,0,.794.794H3.177v-4a1.588,1.588,0,0,0-.6-1.24Z" transform="translate(0 -10.91)" fill="#fff" stroke="#fff" stroke-width="3"/>
          <path id="Path_703" data-name="Path 703" d="M37.332,37.457,30.686,35.04l-4.765,1.589L21.156,35.04l-6.645,2.417a3.177,3.177,0,0,0-2.091,2.986v4.923a.794.794,0,0,0,.794.794H38.629a.794.794,0,0,0,.794-.794V40.442A3.177,3.177,0,0,0,37.332,37.457Z" transform="translate(-1.3 -10.419)" fill="#fff" stroke="#fff" stroke-width="3"/>
          <path id="Path_704" data-name="Path 704" d="M26.482,38.589l-.756,7.942H28.9l-.756-7.942Z" transform="translate(-2.693 -10.791)" fill="#fff" stroke="#fff" stroke-width="3"/>
          <path id="Path_705" data-name="Path 705" d="M28.171,39.494H26.5a.556.556,0,0,1-.556-.556V36.814h2.78v2.124A.556.556,0,0,1,28.171,39.494Z" transform="translate(-2.717 -10.605)" fill="#fff" stroke="#fff" stroke-width="3"/>
          <path id="Path_706" data-name="Path 706" d="M41.168,38.656a3.173,3.173,0,0,1,.855,2.165v4.923a.794.794,0,0,1-.794.794H37.258V43.883a3.177,3.177,0,0,1,.93-2.246Z" transform="translate(-3.901 -10.798)" fill="#fff" stroke="#fff" stroke-width="3"/>
          <path id="Path_707" data-name="Path 707" d="M35.215,15.782V9.129A1.588,1.588,0,0,0,33.626,7.54H24.1a6.354,6.354,0,0,0-6.354,6.354v1.888a7.941,7.941,0,0,0,.408,2.512l.264.793a2.382,2.382,0,0,1,.122.753v.408H34.421V19.84a2.382,2.382,0,0,1,.122-.753l.264-.793A7.94,7.94,0,0,0,35.215,15.782Z" transform="translate(-1.857 -7.54)" fill="#fff" stroke="#fff" stroke-width="3"/>
          <path id="Path_708" data-name="Path 708" d="M22.177,10.767A3.226,3.226,0,0,0,25.4,13.993h.447l.216,6.254h8.819V19.84a2.382,2.382,0,0,1,.122-.753l.264-.793a7.941,7.941,0,0,0,.408-2.512V9.129A1.588,1.588,0,0,0,34.091,7.54H25.4A3.226,3.226,0,0,0,22.177,10.767Z" transform="translate(-2.322 -7.54)" fill="#fff" stroke="#fff" stroke-width="3"/>
          <rect id="Rectangle_185" data-name="Rectangle 185" width="9.531" height="7.148" transform="translate(19.855 19.062)" fill="#fff" stroke="#fff" stroke-width="3"/>
          <path id="Path_709" data-name="Path 709" d="M22.177,31.516a9.475,9.475,0,0,0,9.531,0V28.831H22.177v2.686Z" transform="translate(-2.322 -9.769)" fill="#fff" stroke="#fff" stroke-width="3"/>
          <g id="Group_316" data-name="Group 316" transform="translate(18.267 23.298)">
            <path id="Path_710" data-name="Path 710" d="M26.757,36.474l-2.533,2.533a.794.794,0,0,1-1.194-.081L20.4,35.465l.687-1.448a.794.794,0,0,1,1.134-.336Z" transform="translate(-20.403 -33.563)" fill="#fff" stroke="#fff" stroke-width="3"/>
            <path id="Path_711" data-name="Path 711" d="M27.5,36.474l2.533,2.533a.794.794,0,0,0,1.194-.081l2.626-3.461-.687-1.448a.794.794,0,0,0-1.134-.336Z" transform="translate(-21.146 -33.563)" fill="#fff" stroke="#fff" stroke-width="3"/>
          </g>
          <path id="Path_712" data-name="Path 712" d="M26.571,29.737h0A7.942,7.942,0,0,1,18.629,21.8v-.93a1.589,1.589,0,0,1,.465-1.123l.658-.658a1.588,1.588,0,0,0,.465-1.123v-1.9a.788.788,0,0,1,.6-.772c1.878-.444,7.724-1.495,11.7,1.431a1.019,1.019,0,0,1,.4.823v.422a1.589,1.589,0,0,0,.465,1.123l.658.658a1.588,1.588,0,0,1,.465,1.123v.93A7.942,7.942,0,0,1,26.571,29.737Z" transform="translate(-1.95 -8.293)" fill="#fff" stroke="#fff" stroke-width="3"/>
          <path id="Path_713" data-name="Path 713" d="M32.524,16.716c-2.8-2.058-6.514-2.147-9.129-1.865a21.422,21.422,0,0,0-2.572.434.788.788,0,0,0-.6.772v1.9a1.589,1.589,0,0,1-.465,1.123l-.658.658a1.589,1.589,0,0,0-.465,1.123v.93a7.939,7.939,0,0,0,6.983,7.879,7.909,7.909,0,0,1-2.217-5.5V18.373a1.59,1.59,0,0,1,1.4-1.578c1.906-.239,5.4-.383,8.134,1.165v-.422A1.019,1.019,0,0,0,32.524,16.716Z" transform="translate(-1.95 -8.293)" fill="#fff" stroke="#fff" stroke-width="3"/>
          <path id="Path_714" data-name="Path 714" d="M13.274,38.656a3.173,3.173,0,0,0-.855,2.165v4.923a.794.794,0,0,0,.794.794h3.971V43.883a3.177,3.177,0,0,0-.93-2.246Z" transform="translate(-1.3 -10.798)" fill="#fff" stroke="#fff" stroke-width="3"/>
        </g>
      </g>
      <g id="Mask_Group_11" data-name="Mask Group 11" transform="translate(6.267 0.895)" clip-path="url(#clip-path-2)">
        <g id="team-2" data-name="team" transform="translate(0 6.67)">
          <path id="Path_715" data-name="Path 715" d="M39.919,24.116v.557a6.354,6.354,0,0,0,.326,2.009l1.262,3.787H43.89V21.734H42.3A2.383,2.383,0,0,0,39.919,24.116Z" transform="translate(-4.179 -9.026)" fill="#5a4146"/>
          <path id="Path_716" data-name="Path 716" d="M50.98,25.673l-1.344,4.7-6.354-5.56a1.588,1.588,0,0,1-1.588-1.588h0a2.383,2.383,0,0,1,2.383-2.383h5.56a1.588,1.588,0,0,1,1.588,1.588v1.493A6.351,6.351,0,0,1,50.98,25.673Z" transform="translate(-4.365 -8.933)" fill="#694b4b"/>
          <rect id="Rectangle_187" data-name="Rectangle 187" width="4.765" height="3.515" transform="translate(38.916 23.827)" fill="#e6af78"/>
          <path id="Path_717" data-name="Path 717" d="M43.468,35.612a6.3,6.3,0,0,0,4.765,0V34.153H43.468v1.459Z" transform="translate(-4.551 -10.326)" fill="#d29b6e"/>
          <path id="Path_718" data-name="Path 718" d="M51.414,37.4l-3.832-1.095L45.2,37.886l-2.383-1.581L38.986,37.4a2.383,2.383,0,0,0-1.728,2.291V45.5a.794.794,0,0,0,.794.794h14.3a.794.794,0,0,0,.794-.794V39.691A2.383,2.383,0,0,0,51.414,37.4Z" transform="translate(-3.901 -10.552)" fill="#d5dced"/>
          <path id="Path_719" data-name="Path 719" d="M46.83,46.477H45.242l.4-8.4h.794Z" transform="translate(-4.737 -10.738)" fill="#afb9d2"/>
          <path id="Path_720" data-name="Path 720" d="M45.572,34.02h0a4.765,4.765,0,0,1-4.765-4.765v-.93a1.589,1.589,0,0,1,.465-1.123l1.44-1.44a1.57,1.57,0,0,1,1.153-.467c2.539.08,4.786.624,6.015,1.824a1.568,1.568,0,0,1,.458,1.125v1.012A4.765,4.765,0,0,1,45.572,34.02Z" transform="translate(-4.272 -9.399)" fill="#f0c087"/>
          <path id="Path_721" data-name="Path 721" d="M43.189,28.521a1.585,1.585,0,0,1,1.684-1.586,16.759,16.759,0,0,1,5.442,1.072,1.535,1.535,0,0,0-.436-.89c-1.228-1.2-3.476-1.744-6.015-1.824h0a1.57,1.57,0,0,0-1.153.467l-1.44,1.44a1.588,1.588,0,0,0-.465,1.123v.93a4.764,4.764,0,0,0,3.445,4.576,4.726,4.726,0,0,1-1.062-2.987V28.521Z" transform="translate(-4.272 -9.399)" fill="#e6af78"/>
          <path id="Path_722" data-name="Path 722" d="M51.452,42.294a2.383,2.383,0,0,1,.7-1.685l2.044-2.044a2.373,2.373,0,0,1,.435,1.363v5.807a.794.794,0,0,1-.794.794H51.452V42.294Z" transform="translate(-5.387 -10.788)" fill="#c7cfe2"/>
          <path id="Path_723" data-name="Path 723" d="M46.433,39.668h-.794a.4.4,0,0,1-.4-.4V38.079H46.83v1.191A.4.4,0,0,1,46.433,39.668Z" transform="translate(-4.737 -10.738)" fill="#959cb5"/>
          <g id="Group_317" data-name="Group 317" transform="translate(38.039 25.123)">
            <path id="Path_724" data-name="Path 724" d="M45.748,37.813,44.4,38.841a.477.477,0,0,1-.707-.15l-1.208-2.205.486-.741a.318.318,0,0,1,.482-.059Z" transform="translate(-42.487 -35.601)" fill="#c7cfe2"/>
            <path id="Path_725" data-name="Path 725" d="M46.129,37.813l1.346,1.028a.477.477,0,0,0,.707-.15l1.208-2.205-.486-.741a.318.318,0,0,0-.482-.059Z" transform="translate(-42.868 -35.601)" fill="#c7cfe2"/>
          </g>
          <path id="Path_726" data-name="Path 726" d="M14.24,33.26a28.664,28.664,0,0,1-1.333-6.5A5.757,5.757,0,0,0,7.257,21.2a5.757,5.757,0,0,0-5.649,5.56,28.665,28.665,0,0,1-1.333,6.5A.791.791,0,0,0,.688,34.27,15.17,15.17,0,0,0,4.836,35.5H9.678a15.3,15.3,0,0,0,4.148-1.227A.791.791,0,0,0,14.24,33.26Z" transform="translate(-0.023 -8.97)" fill="#5a4146"/>
          <path id="Path_727" data-name="Path 727" d="M14.372,34.27a.791.791,0,0,0,.413-1.011,28.663,28.663,0,0,1-1.333-6.5A5.757,5.757,0,0,0,7.8,21.2H7.78A2.424,2.424,0,0,0,6.6,25.694a2.192,2.192,0,0,0,.2.108L8.609,35.5h1.616A15.313,15.313,0,0,0,14.372,34.27Z" transform="translate(-0.569 -8.97)" fill="#694b4b"/>
          <path id="Path_728" data-name="Path 728" d="M12.979,38.355l-2.57-1.285a1.588,1.588,0,0,1-.878-1.421V33.266H4.765v2.383a1.588,1.588,0,0,1-.878,1.421l-2.57,1.285A2.382,2.382,0,0,0,0,40.486v4.694a.794.794,0,0,0,.794.794H13.5a.794.794,0,0,0,.794-.794V40.486A2.383,2.383,0,0,0,12.979,38.355Z" transform="translate(0 -10.234)" fill="#e6af78"/>
          <path id="Path_729" data-name="Path 729" d="M7.7,36.443a6.277,6.277,0,0,0,2.425-.49,1.566,1.566,0,0,1-.043-.3V33.266H5.318v2.383a1.564,1.564,0,0,1-.043.305A6.309,6.309,0,0,0,7.7,36.443Z" transform="translate(-0.552 -10.234)" fill="#d29b6e"/>
          <path id="Path_730" data-name="Path 730" d="M12.979,38.843l-1.831-.915a4.759,4.759,0,0,1-8,0l-1.831.916A2.382,2.382,0,0,0,0,40.974v4.694a.794.794,0,0,0,.794.794H13.5a.794.794,0,0,0,.794-.794V40.974A2.383,2.383,0,0,0,12.979,38.843Z" transform="translate(0 -10.722)" fill="#d5dced"/>
          <path id="Path_731" data-name="Path 731" d="M7.43,34.127h0A4.766,4.766,0,0,1,2.7,29.978a.8.8,0,0,1,.424-.826A6.63,6.63,0,0,0,4.535,28.2a4.586,4.586,0,0,0,1.087-1.43.786.786,0,0,1,.9-.435A13.684,13.684,0,0,1,11.908,29.1a.768.768,0,0,1,.273.639A4.766,4.766,0,0,1,7.43,34.127Z" transform="translate(-0.282 -9.506)" fill="#f0c087"/>
          <path id="Path_732" data-name="Path 732" d="M11.908,29.1a13.683,13.683,0,0,0-5.391-2.762.786.786,0,0,0-.9.435A4.547,4.547,0,0,1,4.9,27.833v0a4.261,4.261,0,0,1-.36.368,6.626,6.626,0,0,1-1.406.949.8.8,0,0,0-.424.826,4.773,4.773,0,0,0,4,4.094,3.477,3.477,0,0,1-1.66-3.122V29.817c.18-.133.362-.266.545-.429a6.323,6.323,0,0,0,1.136-1.34A11.994,11.994,0,0,1,10.868,30.3c.151.132.524.476.961.886a4.729,4.729,0,0,0,.352-1.448A.768.768,0,0,0,11.908,29.1Z" transform="translate(-0.282 -9.506)" fill="#e6af78"/>
          <path id="Path_733" data-name="Path 733" d="M.484,39.731A2.378,2.378,0,0,0,0,41.163v4.694a.794.794,0,0,0,.794.794H3.177v-4a1.588,1.588,0,0,0-.6-1.24Z" transform="translate(0 -10.91)" fill="#c7cfe2"/>
          <path id="Path_734" data-name="Path 734" d="M37.332,37.457,30.686,35.04l-4.765,1.589L21.156,35.04l-6.645,2.417a3.177,3.177,0,0,0-2.091,2.986v4.923a.794.794,0,0,0,.794.794H38.629a.794.794,0,0,0,.794-.794V40.442A3.177,3.177,0,0,0,37.332,37.457Z" transform="translate(-1.3 -10.419)" fill="#ff507d"/>
          <path id="Path_735" data-name="Path 735" d="M26.482,38.589l-.756,7.942H28.9l-.756-7.942Z" transform="translate(-2.693 -10.791)" fill="#707487"/>
          <path id="Path_736" data-name="Path 736" d="M28.171,39.494H26.5a.556.556,0,0,1-.556-.556V36.814h2.78v2.124A.556.556,0,0,1,28.171,39.494Z" transform="translate(-2.717 -10.605)" fill="#5b5d6e"/>
          <path id="Path_737" data-name="Path 737" d="M41.168,38.656a3.173,3.173,0,0,1,.855,2.165v4.923a.794.794,0,0,1-.794.794H37.258V43.883a3.177,3.177,0,0,1,.93-2.246Z" transform="translate(-3.901 -10.798)" fill="#d23c69"/>
          <path id="Path_738" data-name="Path 738" d="M35.215,15.782V9.129A1.588,1.588,0,0,0,33.626,7.54H24.1a6.354,6.354,0,0,0-6.354,6.354v1.888a7.941,7.941,0,0,0,.408,2.512l.264.793a2.382,2.382,0,0,1,.122.753v.408H34.421V19.84a2.382,2.382,0,0,1,.122-.753l.264-.793A7.94,7.94,0,0,0,35.215,15.782Z" transform="translate(-1.857 -7.54)" fill="#5a4146"/>
          <path id="Path_739" data-name="Path 739" d="M22.177,10.767A3.226,3.226,0,0,0,25.4,13.993h.447l.216,6.254h8.819V19.84a2.382,2.382,0,0,1,.122-.753l.264-.793a7.941,7.941,0,0,0,.408-2.512V9.129A1.588,1.588,0,0,0,34.091,7.54H25.4A3.226,3.226,0,0,0,22.177,10.767Z" transform="translate(-2.322 -7.54)" fill="#694b4b"/>
          <rect id="Rectangle_188" data-name="Rectangle 188" width="9.531" height="7.148" transform="translate(19.855 19.062)" fill="#e6af78"/>
          <path id="Path_740" data-name="Path 740" d="M22.177,31.516a9.475,9.475,0,0,0,9.531,0V28.831H22.177v2.686Z" transform="translate(-2.322 -9.769)" fill="#d29b6e"/>
          <g id="Group_318" data-name="Group 318" transform="translate(18.267 23.298)">
            <path id="Path_741" data-name="Path 741" d="M26.757,36.474l-2.533,2.533a.794.794,0,0,1-1.194-.081L20.4,35.465l.687-1.448a.794.794,0,0,1,1.134-.336Z" transform="translate(-20.403 -33.563)" fill="#d23c69"/>
            <path id="Path_742" data-name="Path 742" d="M27.5,36.474l2.533,2.533a.794.794,0,0,0,1.194-.081l2.626-3.461-.687-1.448a.794.794,0,0,0-1.134-.336Z" transform="translate(-21.146 -33.563)" fill="#d23c69"/>
          </g>
          <path id="Path_743" data-name="Path 743" d="M26.571,29.737h0A7.942,7.942,0,0,1,18.629,21.8v-.93a1.589,1.589,0,0,1,.465-1.123l.658-.658a1.588,1.588,0,0,0,.465-1.123v-1.9a.788.788,0,0,1,.6-.772c1.878-.444,7.724-1.495,11.7,1.431a1.019,1.019,0,0,1,.4.823v.422a1.589,1.589,0,0,0,.465,1.123l.658.658a1.588,1.588,0,0,1,.465,1.123v.93A7.942,7.942,0,0,1,26.571,29.737Z" transform="translate(-1.95 -8.293)" fill="#f0c087"/>
          <path id="Path_744" data-name="Path 744" d="M32.524,16.716c-2.8-2.058-6.514-2.147-9.129-1.865a21.422,21.422,0,0,0-2.572.434.788.788,0,0,0-.6.772v1.9a1.589,1.589,0,0,1-.465,1.123l-.658.658a1.589,1.589,0,0,0-.465,1.123v.93a7.939,7.939,0,0,0,6.983,7.879,7.909,7.909,0,0,1-2.217-5.5V18.373a1.59,1.59,0,0,1,1.4-1.578c1.906-.239,5.4-.383,8.134,1.165v-.422A1.019,1.019,0,0,0,32.524,16.716Z" transform="translate(-1.95 -8.293)" fill="#e6af78"/>
          <path id="Path_745" data-name="Path 745" d="M13.274,38.656a3.173,3.173,0,0,0-.855,2.165v4.923a.794.794,0,0,0,.794.794h3.971V43.883a3.177,3.177,0,0,0-.93-2.246Z" transform="translate(-1.3 -10.798)" fill="#d23c69"/>
        </g>
      </g>
    </g>
  </g>
</svg>
