<svg xmlns="http://www.w3.org/2000/svg" xmlns:xlink="http://www.w3.org/1999/xlink" width="48" height="38" viewBox="0 0 48 38">
  <defs>
    <clipPath id="clip-path">
      <rect id="Rectangle_1665" data-name="Rectangle 1665" width="48" height="38" transform="translate(-2505 7891)" fill="#ccc" stroke="#707070" stroke-width="1"/>
    </clipPath>
  </defs>
  <g id="Mask_Group_130" data-name="Mask Group 130" transform="translate(2505 -7891)" clip-path="url(#clip-path)">
    <g id="barcode" transform="translate(-2505 7886)">
      <g id="Group_346" data-name="Group 346">
        <path id="Path_483" data-name="Path 483" d="M7.3,35.478a1.044,1.044,0,0,1-1.044-1.044V13.565a1.044,1.044,0,0,1,2.087,0v20.87A1.044,1.044,0,0,1,7.3,35.478Z" fill="#ccc"/>
        <path id="Path_484" data-name="Path 484" d="M11.478,31.3a1.044,1.044,0,0,1-1.044-1.044v-16.7a1.044,1.044,0,1,1,2.087,0v16.7A1.044,1.044,0,0,1,11.478,31.3Z" fill="#ccc"/>
        <path id="Path_485" data-name="Path 485" d="M15.652,31.3a1.044,1.044,0,0,1-1.044-1.044v-16.7a1.044,1.044,0,1,1,2.087,0v16.7A1.044,1.044,0,0,1,15.652,31.3Z" fill="#ccc"/>
        <path id="Path_486" data-name="Path 486" d="M19.826,31.3a1.044,1.044,0,0,1-1.044-1.044v-16.7a1.044,1.044,0,1,1,2.087,0v16.7A1.044,1.044,0,0,1,19.826,31.3Z" fill="#ccc"/>
        <path id="Path_487" data-name="Path 487" d="M24,35.478a1.044,1.044,0,0,1-1.044-1.044V13.565a1.044,1.044,0,1,1,2.087,0v20.87A1.044,1.044,0,0,1,24,35.478Z" fill="#ccc"/>
        <path id="Path_488" data-name="Path 488" d="M28.174,31.3a1.044,1.044,0,0,1-1.044-1.044v-16.7a1.044,1.044,0,1,1,2.087,0v16.7A1.044,1.044,0,0,1,28.174,31.3Z" fill="#ccc"/>
        <path id="Path_489" data-name="Path 489" d="M32.348,31.3A1.044,1.044,0,0,1,31.3,30.261v-16.7a1.044,1.044,0,0,1,2.087,0v16.7A1.044,1.044,0,0,1,32.348,31.3Z" fill="#ccc"/>
        <path id="Path_490" data-name="Path 490" d="M36.522,31.3a1.044,1.044,0,0,1-1.044-1.044v-16.7a1.044,1.044,0,1,1,2.087,0v16.7A1.044,1.044,0,0,1,36.522,31.3Z" fill="#ccc"/>
        <path id="Path_491" data-name="Path 491" d="M40.7,35.478a1.044,1.044,0,0,1-1.044-1.044V13.565a1.044,1.044,0,1,1,2.087,0v20.87A1.044,1.044,0,0,1,40.7,35.478Z" fill="#ccc"/>
        <path id="Path_492" data-name="Path 492" d="M11.478,35.478a.847.847,0,0,1-.4-.083.739.739,0,0,1-.334-.23,1.008,1.008,0,0,1-.036-1.425l.036-.036a.737.737,0,0,1,.334-.23,1.031,1.031,0,0,1,1.127.23,1.043,1.043,0,0,1-.73,1.774Z" fill="#ccc"/>
        <path id="Path_493" data-name="Path 493" d="M15.652,35.478a.847.847,0,0,1-.4-.083.739.739,0,0,1-.334-.23,1.008,1.008,0,0,1-.036-1.425l.036-.036a.737.737,0,0,1,.334-.23,1.023,1.023,0,0,1,1.127.23.739.739,0,0,1,.23.334.983.983,0,0,1,0,.793.73.73,0,0,1-.23.334A.977.977,0,0,1,15.652,35.478Z" fill="#ccc"/>
        <path id="Path_494" data-name="Path 494" d="M19.826,35.478a.847.847,0,0,1-.4-.083.739.739,0,0,1-.334-.23,1.008,1.008,0,0,1-.036-1.425L19.1,33.7a.737.737,0,0,1,.334-.23,1.023,1.023,0,0,1,1.127.23.739.739,0,0,1,.23.334.983.983,0,0,1,0,.793.73.73,0,0,1-.23.334A.977.977,0,0,1,19.826,35.478Z" fill="#ccc"/>
        <path id="Path_495" data-name="Path 495" d="M28.174,35.478A1.037,1.037,0,1,1,28.9,33.7a.739.739,0,0,1,.23.334.983.983,0,0,1,0,.793.73.73,0,0,1-.23.334A.977.977,0,0,1,28.174,35.478Z" fill="#ccc"/>
        <path id="Path_496" data-name="Path 496" d="M32.348,35.478a1.043,1.043,0,1,1,.716-.3A1.044,1.044,0,0,1,32.348,35.478Z" fill="#ccc"/>
        <path id="Path_497" data-name="Path 497" d="M36.522,35.478a.977.977,0,0,1-.73-.313.729.729,0,0,1-.23-.334.983.983,0,0,1,0-.793.737.737,0,0,1,.23-.334,1.033,1.033,0,1,1,.73,1.774Z" fill="#ccc"/>
      </g>
      <g id="Group_347" data-name="Group 347">
        <path id="Path_498" data-name="Path 498" d="M1.044,14.609A1.043,1.043,0,0,1,0,13.565V7.3A1.044,1.044,0,0,1,1.044,6.261H7.3a1.044,1.044,0,0,1,0,2.087H2.087v5.217A1.043,1.043,0,0,1,1.044,14.609Z" fill="#ccc"/>
        <path id="Path_499" data-name="Path 499" d="M7.3,41.739H1.044A1.044,1.044,0,0,1,0,40.7V34.435a1.043,1.043,0,1,1,2.087,0v5.217H7.3a1.044,1.044,0,0,1,0,2.087Z" fill="#ccc"/>
        <path id="Path_500" data-name="Path 500" d="M46.956,14.609a1.044,1.044,0,0,1-1.044-1.044V8.348H40.7a1.043,1.043,0,1,1,0-2.087h6.261A1.044,1.044,0,0,1,48,7.3v6.261A1.043,1.043,0,0,1,46.956,14.609Z" fill="#ccc"/>
        <path id="Path_501" data-name="Path 501" d="M46.956,41.739H40.7a1.044,1.044,0,1,1,0-2.087h5.217V34.435a1.044,1.044,0,0,1,2.087,0V40.7A1.044,1.044,0,0,1,46.956,41.739Z" fill="#ccc"/>
      </g>
      <path id="Path_502" data-name="Path 502" d="M7.3,35.478a1.044,1.044,0,0,1-1.044-1.044V13.565a1.044,1.044,0,0,1,2.087,0v20.87A1.044,1.044,0,0,1,7.3,35.478Z" fill="#ccc"/>
      <path id="Path_503" data-name="Path 503" d="M11.478,31.3a1.044,1.044,0,0,1-1.044-1.044v-16.7a1.044,1.044,0,1,1,2.087,0v16.7A1.044,1.044,0,0,1,11.478,31.3Z" fill="#ccc"/>
      <path id="Path_504" data-name="Path 504" d="M15.652,31.3a1.044,1.044,0,0,1-1.044-1.044v-16.7a1.044,1.044,0,1,1,2.087,0v16.7A1.044,1.044,0,0,1,15.652,31.3Z" fill="#ccc"/>
      <path id="Path_505" data-name="Path 505" d="M19.826,31.3a1.044,1.044,0,0,1-1.044-1.044v-16.7a1.044,1.044,0,1,1,2.087,0v16.7A1.044,1.044,0,0,1,19.826,31.3Z" fill="#ccc"/>
      <path id="Path_506" data-name="Path 506" d="M24,35.478a1.044,1.044,0,0,1-1.044-1.044V13.565a1.044,1.044,0,1,1,2.087,0v20.87A1.044,1.044,0,0,1,24,35.478Z" fill="#ccc"/>
      <path id="Path_507" data-name="Path 507" d="M28.174,31.3a1.044,1.044,0,0,1-1.044-1.044v-16.7a1.044,1.044,0,1,1,2.087,0v16.7A1.044,1.044,0,0,1,28.174,31.3Z" fill="#ccc"/>
      <path id="Path_508" data-name="Path 508" d="M32.348,31.3A1.044,1.044,0,0,1,31.3,30.261v-16.7a1.044,1.044,0,0,1,2.087,0v16.7A1.044,1.044,0,0,1,32.348,31.3Z" fill="#ccc"/>
      <path id="Path_509" data-name="Path 509" d="M36.522,31.3a1.044,1.044,0,0,1-1.044-1.044v-16.7a1.044,1.044,0,1,1,2.087,0v16.7A1.044,1.044,0,0,1,36.522,31.3Z" fill="#ccc"/>
      <path id="Path_510" data-name="Path 510" d="M40.7,35.478a1.044,1.044,0,0,1-1.044-1.044V13.565a1.044,1.044,0,1,1,2.087,0v20.87A1.044,1.044,0,0,1,40.7,35.478Z" fill="#ccc"/>
      <path id="Path_511" data-name="Path 511" d="M11.478,35.478a.858.858,0,0,1-.4-.083.745.745,0,0,1-.334-.23,1.01,1.01,0,0,1-.033-1.428l.033-.033a.743.743,0,0,1,.334-.23,1.043,1.043,0,0,1,.793,0,.732.732,0,0,1,.334.23,1.043,1.043,0,0,1-.73,1.774Z" fill="#ccc"/>
      <path id="Path_512" data-name="Path 512" d="M15.652,35.478A1.044,1.044,0,0,1,14.92,33.7a1.019,1.019,0,0,1,1.127-.23.732.732,0,0,1,.334.23,1.044,1.044,0,0,1-.728,1.774Z" fill="#ccc"/>
      <path id="Path_513" data-name="Path 513" d="M19.826,35.478a1.044,1.044,0,0,1-.733-1.774.743.743,0,0,1,.334-.23,1.031,1.031,0,0,1,1.127.23,1.043,1.043,0,0,1-.73,1.774h0Z" fill="#ccc"/>
      <path id="Path_514" data-name="Path 514" d="M28.174,35.478a.915.915,0,0,1-.4-.083.745.745,0,0,1-.334-.23,1.01,1.01,0,0,1-.033-1.428l.033-.033a.743.743,0,0,1,.334-.23,1.043,1.043,0,0,1,.793,0,.732.732,0,0,1,.334.23,1.043,1.043,0,0,1-.73,1.774Z" fill="#ccc"/>
      <path id="Path_515" data-name="Path 515" d="M32.348,35.478a.915.915,0,0,1-.4-.083.745.745,0,0,1-.334-.23,1.01,1.01,0,0,1-.033-1.428l.033-.033a1.043,1.043,0,0,1,1.461,0,1.006,1.006,0,0,1,.039,1.422l-.039.039a.735.735,0,0,1-.334.23A.908.908,0,0,1,32.348,35.478Z" fill="#ccc"/>
      <path id="Path_516" data-name="Path 516" d="M36.522,35.478a.915.915,0,0,1-.4-.083.745.745,0,0,1-.334-.23.979.979,0,0,1-.313-.73.834.834,0,0,1,.083-.4.734.734,0,0,1,.227-.334.743.743,0,0,1,.334-.23,1.031,1.031,0,0,1,1.127.23.756.756,0,0,1,.23.334.835.835,0,0,1,.083.4,1.073,1.073,0,0,1-1.044,1.044Z" fill="#ccc"/>
      <path id="Path_517" data-name="Path 517" d="M1.044,14.609A1.043,1.043,0,0,1,0,13.565V7.3A1.044,1.044,0,0,1,1.044,6.261H7.3a1.044,1.044,0,0,1,0,2.087H2.087v5.217A1.043,1.043,0,0,1,1.044,14.609Z" fill="#ccc"/>
      <path id="Path_518" data-name="Path 518" d="M7.3,41.739H1.044A1.044,1.044,0,0,1,0,40.7V34.435a1.043,1.043,0,1,1,2.087,0v5.217H7.3a1.044,1.044,0,0,1,0,2.087Z" fill="#ccc"/>
      <path id="Path_519" data-name="Path 519" d="M46.956,14.609a1.044,1.044,0,0,1-1.044-1.044V8.348H40.7a1.043,1.043,0,1,1,0-2.087h6.261A1.044,1.044,0,0,1,48,7.3v6.261A1.043,1.043,0,0,1,46.956,14.609Z" fill="#ccc"/>
      <path id="Path_520" data-name="Path 520" d="M46.956,41.739H40.7a1.044,1.044,0,1,1,0-2.087h5.217V34.435a1.044,1.044,0,0,1,2.087,0V40.7A1.044,1.044,0,0,1,46.956,41.739Z" fill="#ccc"/>
    </g>
  </g>
</svg>
