<svg xmlns="http://www.w3.org/2000/svg" xmlns:xlink="http://www.w3.org/1999/xlink" width="48" height="38" viewBox="0 0 48 38">
  <defs>
    <clipPath id="clip-path">
      <rect id="Rectangle_1666" data-name="Rectangle 1666" width="48" height="38" transform="translate(-2446 7891)" fill="#ccc" stroke="#707070" stroke-width="1"/>
    </clipPath>
  </defs>
  <g id="Mask_Group_131" data-name="Mask Group 131" transform="translate(2446 -7891)" clip-path="url(#clip-path)">
    <g id="audience" transform="translate(-2446 7886)">
      <g id="Group_349" data-name="Group 349">
        <g id="Group_348" data-name="Group 348">
          <path id="Path_521" data-name="Path 521" d="M24.071,9.745a6.778,6.778,0,0,0-6.577,6.95,6.778,6.778,0,0,0,6.577,6.949,6.778,6.778,0,0,0,6.577-6.949A6.778,6.778,0,0,0,24.071,9.745Zm0,11.086a3.968,3.968,0,0,1-3.765-4.136,3.969,3.969,0,0,1,3.765-4.137,3.969,3.969,0,0,1,3.765,4.137A3.968,3.968,0,0,1,24.071,20.831Z" fill="#ccc"/>
        </g>
      </g>
      <g id="Group_351" data-name="Group 351">
        <g id="Group_350" data-name="Group 350">
          <path id="Path_522" data-name="Path 522" d="M38.077,10.68h-.045a5.874,5.874,0,0,0-5.656,6.062,5.876,5.876,0,0,0,5.71,5.967h.045a5.527,5.527,0,0,0,4.054-1.83,6.155,6.155,0,0,0,1.6-4.232A5.876,5.876,0,0,0,38.077,10.68Zm2.035,8.3a2.739,2.739,0,0,1-2,.92h-.022a3.065,3.065,0,0,1-2.9-3.178,3.063,3.063,0,0,1,2.867-3.226h.022a3.066,3.066,0,0,1,2.9,3.178A3.345,3.345,0,0,1,40.112,18.977Z" fill="#ccc"/>
        </g>
      </g>
      <g id="Group_353" data-name="Group 353">
        <g id="Group_352" data-name="Group 352">
          <path id="Path_523" data-name="Path 523" d="M39.534,23.412H36.628a8.431,8.431,0,0,0-5.786,2.293,9.833,9.833,0,0,0-5.023-1.373h-3.5a9.838,9.838,0,0,0-5.109,1.423,8.437,8.437,0,0,0-5.842-2.344H8.466A8.475,8.475,0,0,0,0,31.878v3.584H12.426v2.793h23.29V35.462H48V31.878A8.475,8.475,0,0,0,39.534,23.412ZM12.552,32.649H2.813v-.772a5.659,5.659,0,0,1,5.653-5.653h2.906a5.626,5.626,0,0,1,3.645,1.336A9.856,9.856,0,0,0,12.552,32.649ZM32.9,35.442H15.238V34.23a7.09,7.09,0,0,1,7.085-7.085h3.5a7.035,7.035,0,0,1,3.3.819,7.122,7.122,0,0,1,2.238,1.858A7.052,7.052,0,0,1,32.9,34.23v1.212Zm12.284-2.793h-9.6a9.878,9.878,0,0,0-2.526-5.156,5.624,5.624,0,0,1,3.564-1.268h2.906a5.659,5.659,0,0,1,5.653,5.653v.772Z" fill="#ccc"/>
        </g>
      </g>
      <g id="Group_355" data-name="Group 355">
        <g id="Group_354" data-name="Group 354">
          <path id="Path_524" data-name="Path 524" d="M9.914,10.68H9.869a5.874,5.874,0,0,0-5.656,6.062,5.876,5.876,0,0,0,5.71,5.967h.045a5.527,5.527,0,0,0,4.054-1.83,6.155,6.155,0,0,0,1.6-4.232A5.876,5.876,0,0,0,9.914,10.68Zm2.035,8.3a2.739,2.739,0,0,1-2,.92H9.923a3.065,3.065,0,0,1-2.9-3.178,3.063,3.063,0,0,1,2.867-3.226h.022a3.066,3.066,0,0,1,2.9,3.178A3.345,3.345,0,0,1,11.949,18.977Z" fill="#ccc"/>
        </g>
      </g>
    </g>
  </g>
</svg>
