<svg width="543" height="11" viewBox="0 0 543 11" fill="none" xmlns="http://www.w3.org/2000/svg">
<path d="M542.75 2.58499C542.13 0.63499 540.04 -0.445009 538.09 0.174991L531.44 2.28499L524.81 1.21499L517.27 0.184991H517.22C517.08 0.154991 516.93 0.144991 516.78 0.144991H509.3L509.25 0.154991C509.08 0.154991 508.9 0.174991 508.72 0.204991L501.13 1.46499L493.95 3.01499L487.07 3.07499L479.84 2.15499H479.79C479.65 2.13499 479.51 2.12499 479.37 2.12499L472.03 2.19499L464.76 1.61499L457.35 0.784991H457.3C457.15 0.764991 456.99 0.754991 456.83 0.764991L449.36 1.07499H449.31C449.11 1.08499 448.9 1.11499 448.7 1.16499L442.06 2.80499L435.42 0.964991H435.38C435.11 0.874991 434.82 0.844991 434.53 0.844991L427.06 0.904991H427.02C426.85 0.904991 426.67 0.924991 426.5 0.954991L419.5 2.27499L412.52 1.44499H412.48C412.19 1.40499 411.9 1.41499 411.6 1.46499L404.32 2.75499L397.57 3.07499L390.6 1.03499H390.58C390.02 0.864991 389.41 0.854991 388.81 1.05499L381.98 3.25499L375.19 2.37499H375.15C374.93 2.34499 374.71 2.34499 374.49 2.36499L367.36 3.13499L360.26 2.19499L352.8 1.15499H352.76C352.47 1.11499 352.17 1.11499 351.87 1.17499L344.9 2.45499L337.95 1.20499H337.91C337.53 1.13499 337.12 1.14499 336.72 1.24499L329.6 3.13499H322.71L315.42 1.98499L307.85 1.19499H307.82C307.55 1.16499 307.27 1.17499 306.99 1.24499L299.69 2.88499L292.79 3.46499L285.7 1.96499H285.66C285.51 1.92499 285.35 1.90499 285.18 1.90499L277.72 1.83499L270.26 1.70499H270.22C270.1 1.70499 269.97 1.70499 269.85 1.72499L262.51 2.79499L255.3 3.06499L248.01 2.58499L240.62 1.68499H240.59C240.48 1.66499 240.37 1.66499 240.25 1.66499L232.91 1.91499L225.59 1.28499H225.56C225.3 1.26499 225.03 1.28499 224.76 1.35499L217.76 3.30499L210.78 2.26499H210.75C210.48 2.22499 210.2 2.23499 209.91 2.29499L202.82 4.00499L195.75 3.19499H195.72C195.57 3.17499 195.42 3.17499 195.26 3.19499L187.96 4.00499L180.69 3.62499L173.31 3.12499L165.92 2.07499H165.89C165.76 2.05499 165.62 2.04499 165.48 2.05499L158.08 2.57499L150.7 2.52499H150.68C150.62 2.52499 150.55 2.52499 150.49 2.52499L143.12 3.25499L135.89 3.19499L128.56 2.10499H128.54C128.48 2.09499 128.42 2.08499 128.36 2.08499L120.89 1.75499H120.87C120.68 1.75499 120.49 1.76499 120.3 1.82499L113.31 3.83499L106.32 2.06499H106.3C106.07 2.00499 105.82 1.98499 105.57 2.03499L98.2498 3.34499L90.9398 3.41499H90.9198C90.8598 3.41499 90.7898 3.41499 90.7298 3.42499L83.4098 4.40499L76.2298 4.05499L68.8898 2.47499H68.8698C68.6998 2.43499 68.5098 2.42499 68.3298 2.45499L60.9798 3.44499L53.6898 3.29499L46.2798 2.57499H46.2598C46.0898 2.55499 45.9098 2.57499 45.7298 2.61499L38.4998 4.58499L31.4098 4.18499L24.0698 2.40499H24.0498C23.9098 2.36499 23.7598 2.35499 23.6098 2.36499L16.2798 2.96499L8.94984 2.10499H8.92984C8.78984 2.08499 8.64984 2.09499 8.49984 2.12499L1.04984 3.81499C0.339837 3.96499 -0.120163 4.67499 0.0298372 5.39499C0.179837 6.11499 0.889837 6.58499 1.60984 6.43499L8.85984 4.93499L16.1098 5.84499C16.1898 5.85499 16.2898 5.85499 16.3798 5.84499H16.3898L23.6198 5.31499L30.8598 7.13499C30.9398 7.15499 31.0298 7.16499 31.1098 7.17499H31.1198L38.5898 7.66499C38.7398 7.66499 38.8998 7.66499 39.0598 7.62499H39.0698L46.2698 5.72499L53.4598 6.48499C53.4598 6.48499 53.5298 6.48499 53.5698 6.48499H53.5798L61.0498 6.69499C61.1198 6.69499 61.2098 6.69499 61.2798 6.68499H61.2898L68.4698 5.77499L75.6598 7.38499C75.7398 7.40499 75.8298 7.41499 75.9198 7.42499H75.9298L83.3998 7.85499C83.4898 7.85499 83.5998 7.85499 83.6898 7.85499H83.6998L91.0598 6.93499H98.4298C98.5198 6.93499 98.6198 6.91499 98.7098 6.90499H98.7298L105.81 5.69499L112.9 7.55499C113.2 7.63499 113.52 7.63499 113.84 7.55499H113.86L121.04 5.55499L128.1 5.92499L135.47 7.08499C135.55 7.09499 135.64 7.10499 135.72 7.10499H135.74L143.21 7.22499C143.27 7.22499 143.34 7.22499 143.4 7.22499H143.42L150.78 6.55499L158.15 6.67499C158.15 6.67499 158.24 6.67499 158.29 6.67499H158.31L165.55 6.23499L172.81 7.33499C172.81 7.33499 172.9 7.34499 172.95 7.35499H172.97L180.45 7.92499L187.94 8.38499C188.05 8.38499 188.16 8.38499 188.27 8.38499H188.29L195.51 7.64499L202.74 8.53499C202.98 8.56499 203.24 8.55499 203.5 8.49499H203.52L210.56 6.85499L217.6 7.96499C217.9 8.01499 218.22 7.99499 218.54 7.91499H218.56L225.62 6.00499L232.68 6.67499C232.76 6.67499 232.86 6.68499 232.94 6.67499H232.96L240.23 6.48499L247.57 7.44499L255.13 8.00499C255.2 8.00499 255.28 8.00499 255.36 8.00499H255.38L262.85 7.79499C262.93 7.79499 263.01 7.79499 263.1 7.77499H263.12L270.38 6.77499L277.66 6.96499L284.87 7.09499L292.09 8.69499C292.32 8.74499 292.58 8.76499 292.83 8.74499H292.85L300.32 8.17499C300.43 8.17499 300.55 8.14499 300.66 8.12499H300.68L307.72 6.59499L314.72 7.38499L322.09 8.62499C322.22 8.64499 322.36 8.65499 322.5 8.66499H322.52L329.99 8.72499C330.21 8.72499 330.46 8.69499 330.68 8.64499H330.7L337.56 6.87499L344.42 8.17499C344.74 8.23499 345.08 8.24499 345.42 8.17499H345.44L352.44 6.94499L359.46 7.99499L366.94 9.05499C367.16 9.08499 367.39 9.09499 367.62 9.06499H367.65L374.76 8.35499L381.89 9.34499C382.3 9.40499 382.75 9.37499 383.18 9.23499H383.21L389.79 7.17499L396.37 9.16499C396.68 9.25499 397.02 9.30499 397.36 9.29499H397.39L404.86 9.00499C404.98 9.00499 405.11 8.98499 405.23 8.96499H405.26L412.26 7.78499L419.28 8.68499C419.58 8.72499 419.9 8.71499 420.22 8.66499H420.25L427.43 7.37499H434.16L441.2 9.38499C441.71 9.52499 442.28 9.55499 442.83 9.42499H442.86L450 7.72499L456.88 7.49499L464.15 8.37499L471.69 9.04499C471.78 9.04499 471.87 9.05499 471.96 9.05499H479.21L486.46 10.045C486.6 10.065 486.76 10.075 486.9 10.075H494.4C494.62 10.075 494.86 10.045 495.08 10.005H495.11L502.47 8.47499L509.59 7.36499L516.53 7.41499L523.74 8.45499L531.15 9.72499C531.69 9.81499 532.27 9.78499 532.82 9.61499H532.85L540.34 7.29499H540.37C542.32 6.66499 543.4 4.57499 542.78 2.62499L542.75 2.58499Z" fill="#A1A5B6"/>
</svg>
