<svg width="32" height="33" viewBox="0 0 32 33" fill="none" xmlns="http://www.w3.org/2000/svg">
<path d="M19.3447 1.73389C20.1096 1.55413 20.7041 1.54893 21.1094 1.6792C21.4455 1.78731 21.7154 2.00337 21.877 2.52197C22.3271 3.9676 23.5352 4.75057 24.6611 5.30811C25.2312 5.59037 25.8668 5.85376 26.4482 6.10791C27.0475 6.36985 27.6223 6.63501 28.1582 6.94678C29.2172 7.56291 30.074 8.33315 30.5596 9.52979C31.0527 10.7453 31.2202 12.5432 30.5928 15.3208C29.2957 21.0631 28.1574 24.1145 27.3311 25.8979C26.9176 26.7903 26.5785 27.3742 26.3066 27.8628C26.056 28.3133 25.8042 28.7784 25.6982 29.3237C25.6903 29.3377 25.6699 29.3722 25.625 29.4272C25.5326 29.5407 25.3814 29.6897 25.165 29.8608C24.734 30.2018 24.1186 30.5723 23.3994 30.8843C21.9235 31.5244 20.2531 31.8167 18.9814 31.3833C17.9888 31.045 16.9211 31.0262 15.9209 31.0825C15.4157 31.111 14.9003 31.1605 14.4033 31.2085C13.8993 31.2572 13.4107 31.3039 12.9258 31.3315C10.9885 31.442 9.35814 31.2292 8.05566 29.7573C6.76062 28.2938 5.33802 26.6909 4.13574 25.229C2.90802 23.7362 1.99855 22.4935 1.65137 21.728C0.895936 20.0622 0.822262 18.0433 1.30078 16.0229C1.77869 14.0054 2.79146 12.061 4.10254 10.5903C5.42232 9.10993 7.44839 7.68251 9.50391 6.48682C11.5461 5.2989 13.5435 4.38238 14.7422 3.90771L14.8438 3.8667L14.9346 3.80518C16.0819 3.02786 17.8248 2.0912 19.3447 1.73389Z" fill="white" stroke="#333333" stroke-width="2"/>
</svg>
