<svg width="20" height="20" viewBox="0 0 20 20" fill="none" xmlns="http://www.w3.org/2000/svg">
<path d="M1.02155 9.86874C0.973757 8.34625 1.00547 6.82229 1.11656 5.3031C1.25169 4.11744 1.82029 3.02378 2.71287 2.23279C3.60544 1.4418 4.75883 1.00945 5.95084 1.01902C8.64162 0.993659 11.3337 0.993659 14.027 1.01902C14.681 1.01897 15.3284 1.14889 15.9319 1.40126C16.5353 1.65362 17.0827 2.0234 17.5423 2.48916C18.0019 2.95492 18.3645 3.50737 18.6092 4.11451C18.8539 4.72164 18.9757 5.37136 18.9677 6.026C19.0108 8.70451 19.0108 11.383 18.9677 14.0615C18.9527 15.3728 18.4213 16.6251 17.489 17.5463C16.5567 18.4675 15.2989 18.9831 13.989 18.9809C11.3312 19.0064 8.67077 19.0064 6.00786 18.9809C5.3508 18.9815 4.70013 18.852 4.09323 18.6C3.48633 18.3479 2.93518 17.9782 2.47146 17.5122C2.00773 17.0463 1.64057 16.493 1.3911 15.8845C1.14162 15.276 1.01474 14.6242 1.01775 13.9664C1.01775 12.6195 1.01775 11.2727 1.01775 9.92201C1.02535 9.87635 1.02155 9.89157 1.02155 9.86874ZM14.9923 9.98288C14.9915 8.992 14.6966 8.02372 14.145 7.20097C13.5934 6.37821 12.8101 5.7381 11.8944 5.36191C10.9787 4.98572 9.972 4.89041 9.00211 5.08811C8.03221 5.28579 7.14286 5.76755 6.447 6.47222C5.75113 7.17688 5.28013 8.07266 5.09379 9.04582C4.90746 10.019 5.01422 11.0256 5.40048 11.938C5.78674 12.8502 6.43509 13.6271 7.26322 14.1698C8.09135 14.7125 9.06188 14.9966 10.0516 14.986C11.3675 14.972 12.6247 14.4386 13.5499 13.5017C14.475 12.5649 14.9934 11.3003 14.9923 9.98288ZM16.9686 3.9981C16.9747 3.8656 16.9529 3.7333 16.9047 3.60977C16.8564 3.48623 16.7828 3.37422 16.6886 3.28097C16.5944 3.18772 16.4816 3.11532 16.3577 3.06844C16.2337 3.02158 16.1013 3.00128 15.9691 3.00887C15.7108 3.0077 15.4621 3.10705 15.2756 3.28594C15.0891 3.46484 14.9794 3.70928 14.9695 3.96766C14.9747 4.23477 15.0799 4.49018 15.2643 4.68327C15.4488 4.87635 15.699 4.99301 15.9653 5.01015C16.0977 5.01015 16.2288 4.98392 16.351 4.93297C16.4732 4.88201 16.5842 4.80735 16.6774 4.71326C16.7707 4.61919 16.8445 4.50755 16.8944 4.38482C16.9444 4.26208 16.9696 4.13064 16.9686 3.9981Z" fill="white"/>
<path d="M12.9704 10.0249C12.9629 10.6126 12.7819 11.185 12.4502 11.6699C12.1186 12.1549 11.651 12.5307 11.1064 12.7503C10.5618 12.9698 9.96456 13.0232 9.38973 12.9038C8.8149 12.7842 8.28824 12.4972 7.87601 12.0786C7.46378 11.6602 7.1844 11.129 7.07305 10.5519C6.96171 9.97483 7.02337 9.37768 7.25025 8.83561C7.47714 8.29354 7.85912 7.83076 8.34813 7.50552C8.83714 7.18029 9.41134 7.00712 9.99843 7.00782C10.3933 7.00414 10.7849 7.07999 11.1498 7.23084C11.5148 7.38169 11.8457 7.60448 12.123 7.88594C12.4002 8.16741 12.6182 8.50182 12.7637 8.86927C12.9093 9.23674 12.9796 9.62975 12.9704 10.0249Z" fill="white"/>
</svg>
