<svg width="25" height="20" viewBox="0 0 25 20" fill="none" xmlns="http://www.w3.org/2000/svg">
<mask id="mask0_261_5105" style="mask-type:alpha" maskUnits="userSpaceOnUse" x="0" y="-2" width="25" height="24">
<rect x="0.5" y="-2" width="24" height="24" fill="#D9D9D9"/>
</mask>
<g mask="url(#mask0_261_5105)">
<path d="M4.5 18C3.95 18 3.47917 17.8042 3.0875 17.4125C2.69583 17.0208 2.5 16.55 2.5 16V4C2.5 3.45 2.69583 2.97917 3.0875 2.5875C3.47917 2.19583 3.95 2 4.5 2H20.5C21.05 2 21.5208 2.19583 21.9125 2.5875C22.3042 2.97917 22.5 3.45 22.5 4V16C22.5 16.55 22.3042 17.0208 21.9125 17.4125C21.5208 17.8042 21.05 18 20.5 18H4.5ZM12.5 11L4.5 6V16H20.5V6L12.5 11ZM12.5 9L20.5 4H4.5L12.5 9ZM4.5 6V4V16V6Z" fill="#333333"/>
</g>
</svg>
