<svg width="25" height="22" viewBox="0 0 25 22" fill="none" xmlns="http://www.w3.org/2000/svg">
<path d="M19.8491 18.4067C19.8525 18.2717 19.8286 18.1375 19.7787 18.012C19.7289 17.8865 19.6542 17.7725 19.5591 17.6767L16.6291 14.6667C16.5006 14.544 16.3419 14.4577 16.1691 14.4167C15.8856 14.3373 15.5827 14.3658 15.3191 14.4967L13.9891 15.2667H13.8491H13.7291L13.5091 15.1567C13.2998 15.0323 13.1052 14.8847 12.9291 14.7167C12.6192 14.4011 12.3287 14.0672 12.0591 13.7167C11.6466 13.1775 11.2787 12.6056 10.9591 12.0067C10.6177 11.4298 10.3202 10.8281 10.0691 10.2067C9.91322 9.7969 9.78952 9.37563 9.69906 8.94667C9.62017 8.61956 9.58984 8.28261 9.60906 7.94667C9.62227 7.89861 9.6462 7.85416 9.67906 7.81667C9.7011 7.77695 9.73187 7.74276 9.76906 7.71667L10.9091 7.07668C11.114 6.95992 11.2808 6.78624 11.3891 6.57668C11.499 6.37495 11.5276 6.13882 11.4691 5.91667L10.5491 1.67667C10.4994 1.52737 10.4287 1.38594 10.3391 1.25667C10.2413 1.13601 10.1086 1.04866 9.95906 1.00667C9.84859 0.977027 9.73332 0.96973 9.61999 0.985184C9.50666 1.00064 9.39756 1.03853 9.29906 1.09666L6.20906 2.84666C6.04554 2.93183 5.89964 3.04721 5.77906 3.18668C5.58837 3.43463 5.4459 3.71617 5.35906 4.01668C5.26238 4.31502 5.20194 4.6239 5.17906 4.93668C5.14149 5.42262 5.14149 5.91073 5.17906 6.39667C5.2183 7.06979 5.31194 7.73864 5.45906 8.39667C5.64946 9.24346 5.9001 10.0756 6.20906 10.8867C6.61099 11.924 7.09589 12.9273 7.65906 13.8867C8.30289 15.0977 9.07752 16.2344 9.96906 17.2767C10.6207 18.0403 11.3403 18.7432 12.1191 19.3767C12.6527 19.8125 13.2329 20.1881 13.8491 20.4967C14.3076 20.7113 14.7867 20.8788 15.2791 20.9967C15.4675 21.0312 15.6606 21.0312 15.8491 20.9967C16.0306 20.9703 16.2045 20.9056 16.3591 20.8067L19.4491 19.0867C19.563 19.0112 19.6582 18.9107 19.7275 18.7928C19.7968 18.675 19.8384 18.5429 19.8491 18.4067Z" fill="#333333"/>
</svg>
