<svg width="20" height="20" viewBox="0 0 20 20" fill="none" xmlns="http://www.w3.org/2000/svg">
<g clip-path="url(#clip0_857_14)">
<path d="M13.8941 9.34265C13.824 9.30549 13.7527 9.26972 13.6806 9.23548C13.555 6.67546 12.2904 5.20984 10.167 5.19484C10.1573 5.19478 10.1478 5.19478 10.1382 5.19478C8.86806 5.19478 7.81174 5.79446 7.16159 6.88569L8.32942 7.77183C8.81511 6.95672 9.57735 6.78295 10.1387 6.78295C10.1452 6.78295 10.1517 6.78295 10.1581 6.78302C10.8573 6.78795 11.3849 7.01281 11.7263 7.45131C11.9748 7.77056 12.1411 8.21172 12.2233 8.76848C11.6035 8.65194 10.9331 8.61611 10.2164 8.66156C8.19751 8.79019 6.89963 10.0926 6.98679 11.9024C7.03103 12.8204 7.44448 13.6101 8.15093 14.126C8.74821 14.5622 9.51749 14.7754 10.317 14.7272C11.3728 14.6631 12.2011 14.2175 12.779 13.4028C13.2179 12.784 13.4954 11.9822 13.618 10.9718C14.1211 11.3077 14.4941 11.7498 14.7 12.2811C15.0503 13.1844 15.0707 14.6687 13.9757 15.8789C13.0164 16.939 11.8632 17.3976 10.1205 17.4118C8.1873 17.3959 6.72526 16.7102 5.77469 15.3735C4.88455 14.1218 4.42452 12.3139 4.40735 10C4.42452 7.68604 4.88455 5.87815 5.77469 4.6265C6.72526 3.28983 8.18727 2.60406 10.1205 2.58817C12.0677 2.60418 13.5552 3.29326 14.5422 4.63637C15.0261 5.29502 15.3909 6.12333 15.6315 7.08909L17 6.68521C16.7084 5.49646 16.2497 4.4721 15.6254 3.62256C14.3601 1.90063 12.5095 1.0183 10.1252 1H10.1157C7.73619 1.01823 5.90639 1.90392 4.67713 3.63243C3.58327 5.1706 3.01902 7.31085 3.00006 9.99367L3 10L3.00006 10.0063C3.01902 12.6891 3.58327 14.8294 4.67713 16.3676C5.90639 18.0961 7.73619 18.9818 10.1157 19H10.1252C12.2407 18.9838 13.7318 18.3711 14.9603 17.0135C16.5675 15.2374 16.5191 13.0112 15.9894 11.6445C15.6093 10.6644 14.8848 9.86839 13.8941 9.34265ZM10.2414 13.1413C9.35659 13.1964 8.43734 12.7571 8.39202 11.8161C8.35842 11.1184 8.84088 10.3399 10.2957 10.2472C10.4623 10.2366 10.6258 10.2314 10.7864 10.2314C11.3149 10.2314 11.8092 10.2882 12.2587 10.3968C12.091 12.7127 11.1077 13.0887 10.2414 13.1413Z" fill="white"/>
</g>
<defs>
<clipPath id="clip0_857_14">
<rect width="14" height="18" fill="white" transform="translate(3 1)"/>
</clipPath>
</defs>
</svg>
