<svg width="25" height="20" viewBox="0 0 25 20" fill="none" xmlns="http://www.w3.org/2000/svg">
<g clip-path="url(#clip0_715_23)">
<path d="M13 20C11.6333 20 10.3417 19.7375 9.125 19.2125C7.90833 18.6875 6.84583 17.9708 5.9375 17.0625C5.02917 16.1542 4.3125 15.0917 3.7875 13.875C3.2625 12.6583 3 11.3667 3 10C3 8.61667 3.2625 7.32083 3.7875 6.1125C4.3125 4.90417 5.02917 3.84583 5.9375 2.9375C6.84583 2.02917 7.90833 1.3125 9.125 0.7875C10.3417 0.2625 11.6333 0 13 0C14.3833 0 15.6792 0.2625 16.8875 0.7875C18.0958 1.3125 19.1542 2.02917 20.0625 2.9375C20.9708 3.84583 21.6875 4.90417 22.2125 6.1125C22.7375 7.32083 23 8.61667 23 10C23 11.3667 22.7375 12.6583 22.2125 13.875C21.6875 15.0917 20.9708 16.1542 20.0625 17.0625C19.1542 17.9708 18.0958 18.6875 16.8875 19.2125C15.6792 19.7375 14.3833 20 13 20ZM13 17.95C13.4333 17.35 13.8083 16.725 14.125 16.075C14.4417 15.425 14.7 14.7333 14.9 14H11.1C11.3 14.7333 11.5583 15.425 11.875 16.075C12.1917 16.725 12.5667 17.35 13 17.95ZM10.4 17.55C10.1 17 9.8375 16.4292 9.6125 15.8375C9.3875 15.2458 9.2 14.6333 9.05 14H6.1C6.58333 14.8333 7.1875 15.5583 7.9125 16.175C8.6375 16.7917 9.46667 17.25 10.4 17.55ZM15.6 17.55C16.5333 17.25 17.3625 16.7917 18.0875 16.175C18.8125 15.5583 19.4167 14.8333 19.9 14H16.95C16.8 14.6333 16.6125 15.2458 16.3875 15.8375C16.1625 16.4292 15.9 17 15.6 17.55ZM5.25 12H8.65C8.6 11.6667 8.5625 11.3375 8.5375 11.0125C8.5125 10.6875 8.5 10.35 8.5 10C8.5 9.65 8.5125 9.3125 8.5375 8.9875C8.5625 8.6625 8.6 8.33333 8.65 8H5.25C5.16667 8.33333 5.10417 8.6625 5.0625 8.9875C5.02083 9.3125 5 9.65 5 10C5 10.35 5.02083 10.6875 5.0625 11.0125C5.10417 11.3375 5.16667 11.6667 5.25 12ZM10.65 12H15.35C15.4 11.6667 15.4375 11.3375 15.4625 11.0125C15.4875 10.6875 15.5 10.35 15.5 10C15.5 9.65 15.4875 9.3125 15.4625 8.9875C15.4375 8.6625 15.4 8.33333 15.35 8H10.65C10.6 8.33333 10.5625 8.6625 10.5375 8.9875C10.5125 9.3125 10.5 9.65 10.5 10C10.5 10.35 10.5125 10.6875 10.5375 11.0125C10.5625 11.3375 10.6 11.6667 10.65 12ZM17.35 12H20.75C20.8333 11.6667 20.8958 11.3375 20.9375 11.0125C20.9792 10.6875 21 10.35 21 10C21 9.65 20.9792 9.3125 20.9375 8.9875C20.8958 8.6625 20.8333 8.33333 20.75 8H17.35C17.4 8.33333 17.4375 8.6625 17.4625 8.9875C17.4875 9.3125 17.5 9.65 17.5 10C17.5 10.35 17.4875 10.6875 17.4625 11.0125C17.4375 11.3375 17.4 11.6667 17.35 12ZM16.95 6H19.9C19.4167 5.16667 18.8125 4.44167 18.0875 3.825C17.3625 3.20833 16.5333 2.75 15.6 2.45C15.9 3 16.1625 3.57083 16.3875 4.1625C16.6125 4.75417 16.8 5.36667 16.95 6ZM11.1 6H14.9C14.7 5.26667 14.4417 4.575 14.125 3.925C13.8083 3.275 13.4333 2.65 13 2.05C12.5667 2.65 12.1917 3.275 11.875 3.925C11.5583 4.575 11.3 5.26667 11.1 6ZM6.1 6H9.05C9.2 5.36667 9.3875 4.75417 9.6125 4.1625C9.8375 3.57083 10.1 3 10.4 2.45C9.46667 2.75 8.6375 3.20833 7.9125 3.825C7.1875 4.44167 6.58333 5.16667 6.1 6Z" fill="#333333"/>
</g>
<defs>
<clipPath id="clip0_715_23">
<rect width="20" height="20" fill="white" transform="translate(3)"/>
</clipPath>
</defs>
</svg>
