<svg width="35" height="35" viewBox="0 0 35 35" fill="none" xmlns="http://www.w3.org/2000/svg">
<path d="M8.02394 17.8614C7.97084 16.2544 8.00608 14.6457 8.12952 13.0422C8.27965 11.7906 8.91143 10.6362 9.90318 9.80128C10.8949 8.96635 12.1765 8.50998 13.5009 8.52008C16.4907 8.49331 19.4819 8.49331 22.4744 8.52008C23.2011 8.52003 23.9205 8.65717 24.591 8.92355C25.2615 9.18993 25.8697 9.58026 26.3803 10.0719C26.891 10.5635 27.2939 11.1467 27.5658 11.7875C27.8377 12.4284 27.9731 13.1142 27.9641 13.8052C28.012 16.6325 28.012 19.4598 27.9641 22.2872C27.9474 23.6713 27.357 24.9932 26.3211 25.9655C25.2852 26.9379 23.8877 27.4821 22.4322 27.4799C19.4791 27.5067 16.5231 27.5067 13.5643 27.4799C12.8342 27.4805 12.1113 27.3438 11.4369 27.0777C10.7626 26.8116 10.1502 26.4214 9.63495 25.9296C9.1197 25.4377 8.71175 24.8538 8.43455 24.2115C8.15735 23.5691 8.01638 22.8811 8.01972 22.1867C8.01972 20.7651 8.01972 19.3434 8.01972 17.9177C8.02816 17.8695 8.02394 17.8855 8.02394 17.8614ZM23.547 17.9819C23.5461 16.936 23.2184 15.9139 22.6056 15.0455C21.9927 14.177 21.1223 13.5013 20.1049 13.1042C19.0874 12.7071 17.9689 12.6066 16.8912 12.8152C15.8136 13.0239 14.8254 13.5324 14.0522 14.2762C13.279 15.02 12.7557 15.9656 12.5487 16.9928C12.3416 18.02 12.4602 19.0826 12.8894 20.0456C13.3186 21.0086 14.039 21.8286 14.9591 22.4014C15.8793 22.9743 16.9576 23.2742 18.0574 23.2631C19.5194 23.2482 20.9163 22.6852 21.9443 21.6963C22.9723 20.7073 23.5482 19.3725 23.547 17.9819ZM25.7429 11.6647C25.7496 11.5248 25.7254 11.3852 25.6718 11.2548C25.6182 11.1244 25.5364 11.0061 25.4318 10.9077C25.3271 10.8093 25.2018 10.7328 25.0641 10.6834C24.9264 10.6339 24.7793 10.6125 24.6323 10.6205C24.3453 10.6192 24.069 10.7241 23.8618 10.9129C23.6546 11.1018 23.5326 11.3598 23.5217 11.6325C23.5274 11.9145 23.6444 12.1841 23.8493 12.3879C24.0542 12.5917 24.3322 12.7149 24.6281 12.7329C24.7752 12.7329 24.9209 12.7052 25.0567 12.6515C25.1925 12.5977 25.3158 12.5189 25.4194 12.4196C25.523 12.3203 25.6049 12.2024 25.6605 12.0729C25.716 11.9433 25.744 11.8046 25.7429 11.6647Z" fill="#1E1E1E"/>
<path d="M21.3006 18.0263C21.2922 18.6466 21.0911 19.2507 20.7226 19.7626C20.3541 20.2745 19.8345 20.6713 19.2294 20.9031C18.6243 21.1348 17.9607 21.1911 17.322 21.065C16.6833 20.9388 16.0981 20.6358 15.6401 20.1941C15.182 19.7523 14.8716 19.1916 14.7479 18.5825C14.6242 17.9734 14.6927 17.3431 14.9448 16.7709C15.1969 16.1987 15.6213 15.7102 16.1646 15.3669C16.708 15.0236 17.346 14.8408 17.9983 14.8415C18.437 14.8377 18.8721 14.9177 19.2777 15.0769C19.6832 15.2362 20.0509 15.4713 20.359 15.7684C20.6671 16.0655 20.9092 16.4185 21.0709 16.8064C21.2327 17.1943 21.3108 17.6091 21.3006 18.0263Z" fill="#1E1E1E"/>
</svg>
