<svg xmlns="http://www.w3.org/2000/svg" xmlns:xlink="http://www.w3.org/1999/xlink" width="48" height="38" viewBox="0 0 48 38">
  <defs>
    <clipPath id="clip-path">
      <rect id="Rectangle_641" data-name="Rectangle 641" width="48" height="38" transform="translate(616 1413)" fill="#ccc" stroke="#707070" stroke-width="1"/>
    </clipPath>
  </defs>
  <g id="Mask_Group_53" data-name="Mask Group 53" transform="translate(-616 -1413)" clip-path="url(#clip-path)">
    <g id="notification" transform="translate(621 1413)">
      <path id="Path_396" data-name="Path 396" d="M30.5,19.509V15.957A11.524,11.524,0,0,0,22.34,4.948V3.34a3.34,3.34,0,1,0-6.68,0V4.948A11.524,11.524,0,0,0,7.5,15.957v3.552A17.481,17.481,0,0,1,2.61,31.663a1.113,1.113,0,0,0,.8,1.884H13.546a5.567,5.567,0,0,0,10.909,0H34.586a1.113,1.113,0,0,0,.8-1.884A17.481,17.481,0,0,1,30.5,19.509ZM17.887,3.34a1.113,1.113,0,0,1,2.227,0V4.507c-.366-.035-.738-.054-1.113-.054s-.747.019-1.113.054ZM19,35.773a3.345,3.345,0,0,1-3.148-2.227h6.3A3.345,3.345,0,0,1,19,35.773ZM5.814,31.32A19.684,19.684,0,0,0,9.723,19.509V15.957a9.277,9.277,0,1,1,18.555,0v3.552A19.683,19.683,0,0,0,32.187,31.32Z" fill="#ccc"/>
      <path id="Path_397" data-name="Path 397" d="M33.473,15.957a1.113,1.113,0,0,0,2.227,0A16.59,16.59,0,0,0,30.808,4.149a1.113,1.113,0,1,0-1.574,1.574,14.378,14.378,0,0,1,4.239,10.234Z" fill="#ccc"/>
      <path id="Path_398" data-name="Path 398" d="M3.414,17.07a1.113,1.113,0,0,0,1.113-1.113A14.378,14.378,0,0,1,8.766,5.723,1.113,1.113,0,1,0,7.192,4.149,16.59,16.59,0,0,0,2.3,15.957,1.113,1.113,0,0,0,3.414,17.07Z" fill="#ccc"/>
    </g>
  </g>
</svg>
