<svg id="圖層_1" data-name="圖層 1" xmlns="http://www.w3.org/2000/svg" xmlns:xlink="http://www.w3.org/1999/xlink" viewBox="0 0 73.03 69.74"><defs><style>.cls-1{fill:#758087;}.cls-2{fill:url(#linear-gradient);}</style><linearGradient id="linear-gradient" x1="13.69" y1="39.91" x2="54.87" y2="7.17" gradientUnits="userSpaceOnUse"><stop offset="0" stop-color="#2ea0d2"/><stop offset="1" stop-color="#48285b"/></linearGradient></defs><polygon class="cls-1" points="8.05 69.7 7.56 69.7 7.56 68.59 6.44 66.89 7.03 66.89 7.81 68.13 8.6 66.89 9.17 66.89 8.05 68.58 8.05 69.7"/><path class="cls-1" d="M12.26,68.85a1.31,1.31,0,0,1-.3.46,1.56,1.56,0,0,1-1.65.32,1.38,1.38,0,0,1-.46-.31,1.41,1.41,0,0,1-.3-.46,1.33,1.33,0,0,1-.11-.56,1.3,1.3,0,0,1,.11-.56,1.45,1.45,0,0,1,.3-.47,1.62,1.62,0,0,1,.46-.31,1.54,1.54,0,0,1,1.19,0,1.33,1.33,0,0,1,.46.31,1.31,1.31,0,0,1,.3.46,1.47,1.47,0,0,1,.11.56A1.51,1.51,0,0,1,12.26,68.85Zm-.48-.94a.86.86,0,0,0-.5-.53.79.79,0,0,0-.38-.08.92.92,0,0,0-.38.07,1,1,0,0,0-.3.22,1.1,1.1,0,0,0-.2.31,1.23,1.23,0,0,0-.07.39,1.28,1.28,0,0,0,.07.39,1.1,1.1,0,0,0,.2.31.81.81,0,0,0,.3.22,1,1,0,0,0,.39.08,1,1,0,0,0,.38-.08.81.81,0,0,0,.3-.21.85.85,0,0,0,.19-.32,1,1,0,0,0,.07-.38A1,1,0,0,0,11.78,67.91Z"/><path class="cls-1" d="M15.52,68.48a1.82,1.82,0,0,1-.08.55,1.22,1.22,0,0,1-.24.4,1.14,1.14,0,0,1-.38.23,1.6,1.6,0,0,1-1,0,1,1,0,0,1-.37-.23,1,1,0,0,1-.24-.39,1.44,1.44,0,0,1-.09-.53V66.89h.49v1.6a.85.85,0,0,0,.19.59.68.68,0,0,0,.53.21.7.7,0,0,0,.52-.2.84.84,0,0,0,.18-.58V66.89h.49Z"/><path class="cls-1" d="M18.2,69.7l-.69-1h-.62v1H16.4V66.89h1.25a1.51,1.51,0,0,1,.44.06.87.87,0,0,1,.53.46.87.87,0,0,1,.07.37.83.83,0,0,1-.05.32.72.72,0,0,1-.14.24.63.63,0,0,1-.21.18.81.81,0,0,1-.27.11l.76,1.07ZM18,67.45a.76.76,0,0,0-.43-.11h-.72v.94h.72a.65.65,0,0,0,.43-.13.42.42,0,0,0,.15-.34A.43.43,0,0,0,18,67.45Z"/><path class="cls-1" d="M21.34,67.77a.26.26,0,0,0,.1.11.69.69,0,0,0,.21.1l.33.09.39.12a.83.83,0,0,1,.28.17.58.58,0,0,1,.18.23.9.9,0,0,1,.05.3.8.8,0,0,1-.07.36.9.9,0,0,1-.2.27,1.07,1.07,0,0,1-.32.16,1.29,1.29,0,0,1-.4.06,1.8,1.8,0,0,1-.62-.11,1.74,1.74,0,0,1-.55-.34l.29-.36a1.65,1.65,0,0,0,.42.27,1,1,0,0,0,.47.1.57.57,0,0,0,.36-.1.3.3,0,0,0,.14-.26.28.28,0,0,0,0-.13.26.26,0,0,0-.1-.11.56.56,0,0,0-.19-.1l-.32-.09a2.09,2.09,0,0,1-.4-.12.81.81,0,0,1-.29-.16.58.58,0,0,1-.18-.23.81.81,0,0,1-.07-.33.77.77,0,0,1,.08-.34.67.67,0,0,1,.19-.25.9.9,0,0,1,.3-.17,1.23,1.23,0,0,1,.39-.06,1.59,1.59,0,0,1,.55.09,1.81,1.81,0,0,1,.47.26l-.27.38a1.49,1.49,0,0,0-.38-.22,1,1,0,0,0-.38-.07.51.51,0,0,0-.34.1.28.28,0,0,0-.12.23A.33.33,0,0,0,21.34,67.77Z"/><polygon class="cls-1" points="23.66 66.89 24.15 66.89 24.15 69.25 25.63 69.25 25.63 69.7 23.66 69.7 23.66 66.89"/><path class="cls-1" d="M28.89,68.85a1.49,1.49,0,0,1-.31.46,1.36,1.36,0,0,1-.46.32,1.46,1.46,0,0,1-.6.11,1.44,1.44,0,0,1-.59-.11,1.49,1.49,0,0,1-.46-.31,1.41,1.41,0,0,1-.3-.46,1.51,1.51,0,0,1-.11-.56,1.47,1.47,0,0,1,.11-.56,1.45,1.45,0,0,1,.3-.47,1.54,1.54,0,0,1,.47-.31,1.45,1.45,0,0,1,.59-.12,1.53,1.53,0,0,1,1.06.43,1.66,1.66,0,0,1,.3.46,1.47,1.47,0,0,1,.1.56A1.5,1.5,0,0,1,28.89,68.85Zm-.48-.94a1,1,0,0,0-.2-.32.81.81,0,0,0-.3-.21.85.85,0,0,0-.39-.08,1,1,0,0,0-.38.07,1.11,1.11,0,0,0-.3.22.89.89,0,0,0-.19.31,1,1,0,0,0-.07.39,1,1,0,0,0,.07.39.89.89,0,0,0,.19.31.84.84,0,0,0,.31.22.94.94,0,0,0,.76,0,.81.81,0,0,0,.3-.21.87.87,0,0,0,.2-.32,1.09,1.09,0,0,0,0-.77Z"/><path class="cls-1" d="M32.06,69.48a1.71,1.71,0,0,1-.27.14,1.5,1.5,0,0,1-.32.09,2,2,0,0,1-.35,0,1.46,1.46,0,0,1-.6-.11,1.27,1.27,0,0,1-.45-.3,1.31,1.31,0,0,1-.3-.46,1.56,1.56,0,0,1-.1-.57,1.47,1.47,0,0,1,.1-.56,1.45,1.45,0,0,1,.3-.47,1.49,1.49,0,0,1,.46-.31,1.4,1.4,0,0,1,.58-.12,1.72,1.72,0,0,1,.34,0l.28.07.24.12.22.16-.31.38a1.09,1.09,0,0,0-.17-.13.56.56,0,0,0-.17-.09.66.66,0,0,0-.2-.06,1,1,0,0,0-.25,0,.84.84,0,0,0-.35.07.93.93,0,0,0-.29.22,1,1,0,0,0-.27.7,1.24,1.24,0,0,0,.07.4.87.87,0,0,0,.2.32.81.81,0,0,0,.3.21.93.93,0,0,0,.39.08,1.1,1.1,0,0,0,.37-.06,1.05,1.05,0,0,0,.3-.15v-.53H31.1v-.43h1.19v1.18Z"/><path class="cls-1" d="M35.82,69.7H35.3L35,69H33.69l-.29.68h-.51l1.24-2.83h.45Zm-1.47-2.24-.48,1.12h1Z"/><polygon class="cls-1" points="38.45 66.89 38.94 66.89 38.94 69.7 38.53 69.7 36.99 67.7 36.99 69.7 36.5 69.7 36.5 66.89 36.95 66.89 38.45 68.83 38.45 66.89"/><path class="cls-1" d="M43.54,69.48l-.28.14a1.4,1.4,0,0,1-.31.09,2,2,0,0,1-.35,0,1.46,1.46,0,0,1-.6-.11,1.31,1.31,0,0,1-.46-.3,1.29,1.29,0,0,1-.29-.46,1.56,1.56,0,0,1-.11-.57,1.47,1.47,0,0,1,.11-.56,1.45,1.45,0,0,1,.3-.47A1.49,1.49,0,0,1,42,67a1.37,1.37,0,0,1,.58-.12,1.69,1.69,0,0,1,.33,0,1.91,1.91,0,0,1,.28.07,1.34,1.34,0,0,1,.24.12l.23.16-.32.38-.16-.13a.61.61,0,0,0-.18-.09.66.66,0,0,0-.2-.06.9.9,0,0,0-.24,0,.86.86,0,0,0-.36.07,1.06,1.06,0,0,0-.29.22,1.13,1.13,0,0,0-.19.32,1,1,0,0,0-.07.38,1,1,0,0,0,.07.4.85.85,0,0,0,.19.32,1,1,0,0,0,.3.21,1,1,0,0,0,.39.08,1.16,1.16,0,0,0,.38-.06,1.4,1.4,0,0,0,.3-.15v-.53h-.72v-.43h1.2v1.18Z"/><path class="cls-1" d="M47.31,68.85a1.21,1.21,0,0,1-.31.46,1.36,1.36,0,0,1-.46.32,1.44,1.44,0,0,1-.59.11,1.46,1.46,0,0,1-.6-.11,1.49,1.49,0,0,1-.46-.31,1.41,1.41,0,0,1-.3-.46,1.51,1.51,0,0,1-.11-.56,1.47,1.47,0,0,1,.42-1,1.49,1.49,0,0,1,.46-.31,1.54,1.54,0,0,1,1.19,0,1.33,1.33,0,0,1,.46.31,1.31,1.31,0,0,1,.3.46,1.47,1.47,0,0,1,.11.56A1.51,1.51,0,0,1,47.31,68.85Zm-.48-.94a1,1,0,0,0-.2-.32A.94.94,0,0,0,46,67.3a1,1,0,0,0-.39.07,1.06,1.06,0,0,0-.29.22.92.92,0,0,0-.2.31,1,1,0,0,0-.07.39,1,1,0,0,0,.07.39.92.92,0,0,0,.2.31.73.73,0,0,0,.3.22,1,1,0,0,0,.38.08,1,1,0,0,0,.39-.08,1,1,0,0,0,.3-.21,1,1,0,0,0,.19-.32,1,1,0,0,0,.07-.38A1,1,0,0,0,46.83,67.91Z"/><polygon class="cls-1" points="50.29 67.34 48.7 67.34 48.7 68.06 50.11 68.06 50.11 68.5 48.7 68.5 48.7 69.25 50.31 69.25 50.31 69.7 48.22 69.7 48.22 66.89 50.29 66.89 50.29 67.34"/><path class="cls-1" d="M51.54,67.77a.26.26,0,0,0,.1.11.69.69,0,0,0,.21.1l.33.09.39.12a1,1,0,0,1,.28.17.48.48,0,0,1,.17.23.7.7,0,0,1,.06.3.8.8,0,0,1-.07.36.79.79,0,0,1-.21.27.91.91,0,0,1-.31.16,1.29,1.29,0,0,1-.4.06,1.9,1.9,0,0,1-.63-.11,1.82,1.82,0,0,1-.54-.34l.29-.36a1.8,1.8,0,0,0,.41.27,1.06,1.06,0,0,0,.48.1.57.57,0,0,0,.36-.1.29.29,0,0,0,.13-.26.27.27,0,0,0,0-.13.26.26,0,0,0-.1-.11.67.67,0,0,0-.19-.1L52,68.51a2.09,2.09,0,0,1-.4-.12.81.81,0,0,1-.29-.16.58.58,0,0,1-.18-.23.67.67,0,0,1-.07-.33.94.94,0,0,1,.07-.34.82.82,0,0,1,.2-.25.81.81,0,0,1,.3-.17,1.23,1.23,0,0,1,.39-.06,1.59,1.59,0,0,1,.55.09,1.61,1.61,0,0,1,.46.26l-.26.38a1.49,1.49,0,0,0-.38-.22,1,1,0,0,0-.38-.07.49.49,0,0,0-.34.1.28.28,0,0,0-.12.23A.33.33,0,0,0,51.54,67.77Z"/><polygon class="cls-1" points="55.76 68.51 55.76 69.7 55.27 69.7 55.27 66.89 55.76 66.89 55.76 68.06 57.1 68.06 57.1 66.89 57.59 66.89 57.59 69.7 57.1 69.7 57.1 68.51 55.76 68.51"/><polygon class="cls-1" points="60.59 67.34 59 67.34 59 68.06 60.41 68.06 60.41 68.5 59 68.5 59 69.25 60.61 69.25 60.61 69.7 58.51 69.7 58.51 66.89 60.59 66.89 60.59 67.34"/><path class="cls-1" d="M63.2,69.7l-.7-1h-.61v1H61.4V66.89h1.25a1.44,1.44,0,0,1,.43.06.88.88,0,0,1,.33.18.83.83,0,0,1,.21.28,1.06,1.06,0,0,1,.07.37,1.07,1.07,0,0,1,0,.32.72.72,0,0,1-.14.24.91.91,0,0,1-.21.18.81.81,0,0,1-.27.11l.76,1.07ZM63,67.45a.79.79,0,0,0-.44-.11h-.71v.94h.72a.6.6,0,0,0,.42-.13.4.4,0,0,0,.16-.34A.43.43,0,0,0,63,67.45Z"/><polygon class="cls-1" points="66.57 67.34 64.98 67.34 64.98 68.06 66.39 68.06 66.39 68.5 64.98 68.5 64.98 69.25 66.59 69.25 66.59 69.7 64.49 69.7 64.49 66.89 66.57 66.89 66.57 67.34"/><path class="cls-2" d="M37.47,0A21.05,21.05,0,0,0,16.55,19.49l-.08,1.16,11.38-7v-.34a3.75,3.75,0,0,1,7.5,0,3.64,3.64,0,0,1-.15,1A3.68,3.68,0,0,1,30.81,17l-.24,0L16.2,25.75a3.35,3.35,0,0,0-1.45,1.81A2.61,2.61,0,0,0,15,29.75a3,3,0,0,0,4.11.73L38.51,18.59l0-.29A3.73,3.73,0,0,1,42.24,15a3.6,3.6,0,0,1,1,.14,3.73,3.73,0,0,1,1.11,6.71,3.55,3.55,0,0,1-3.29.42l-.27-.1-24.49,15A3.57,3.57,0,0,0,14.74,39a2.59,2.59,0,0,0,.19,2.23,2.7,2.7,0,0,0,2.33,1.2,3.58,3.58,0,0,0,1.46-.32L37,30.92l0-.29a3.72,3.72,0,0,1,3.7-3.36,3.77,3.77,0,0,1,1.39.27,3.74,3.74,0,0,1-1.39,7.22,3.87,3.87,0,0,1-1.26-.23l-.27-.1-9.77,6,1.2.41A21,21,0,1,0,37.47,0Z"/><path class="cls-1" d="M7.55,60.19a3.87,3.87,0,0,1-.94,1.35,4.26,4.26,0,0,1-1.44.91,4.94,4.94,0,0,1-1.84.33H0V54.23H3.33a4.94,4.94,0,0,1,1.84.32,4.09,4.09,0,0,1,1.44.9,3.87,3.87,0,0,1,.94,1.35,4.2,4.2,0,0,1,.33,1.68v0A4.32,4.32,0,0,1,7.55,60.19ZM5.91,58.5a2.75,2.75,0,0,0-.19-1,2.39,2.39,0,0,0-.52-.82,2.64,2.64,0,0,0-.81-.53,3,3,0,0,0-1.06-.19H1.88v5.16H3.33a2.78,2.78,0,0,0,1.06-.19,2.3,2.3,0,0,0,.81-.52,2.45,2.45,0,0,0,.52-.81,2.63,2.63,0,0,0,.19-1Z"/><path class="cls-1" d="M13.3,62.78V54.23h1.88v8.55Z"/><path class="cls-1" d="M27.18,62.53a5.21,5.21,0,0,1-2.08.39,4.83,4.83,0,0,1-1.82-.33,4.17,4.17,0,0,1-1.42-.91,4.06,4.06,0,0,1-.92-1.4,4.55,4.55,0,0,1-.33-1.75v0a4.31,4.31,0,0,1,1.27-3.12,4.44,4.44,0,0,1,3.21-1.3,6.56,6.56,0,0,1,1,.08,5.39,5.39,0,0,1,.88.22,3.74,3.74,0,0,1,.75.37,5.49,5.49,0,0,1,.69.5l-1.19,1.43a5.15,5.15,0,0,0-.48-.37,4.09,4.09,0,0,0-.51-.26A2.94,2.94,0,0,0,25,55.81a2.25,2.25,0,0,0-1,.22,2.46,2.46,0,0,0-.78.57,2.65,2.65,0,0,0-.53.85,2.94,2.94,0,0,0-.19,1v0a3.14,3.14,0,0,0,.19,1.08,2.62,2.62,0,0,0,.54.86,2.33,2.33,0,0,0,.82.57,2.51,2.51,0,0,0,1,.2,3,3,0,0,0,1.77-.51V59.48H25V57.85h3.71v3.72A6.51,6.51,0,0,1,27.18,62.53Z"/><path class="cls-1" d="M34.31,62.78V54.23h1.88v8.55Z"/><path class="cls-1" d="M45.87,56v6.82H44V56H41.38V54.23h7.09V56Z"/><path class="cls-1" d="M59.94,62.78l-.78-1.92H55.54l-.78,1.92H52.84l3.67-8.62h1.73l3.67,8.62Zm-2.59-6.36L56.21,59.2h2.28Z"/><path class="cls-1" d="M66.89,62.78V54.23h1.88v6.85H73v1.7Z"/></svg>