<svg width="22" height="22" viewBox="0 0 22 22" fill="none" xmlns="http://www.w3.org/2000/svg">
<path d="M20.9745 15.7948C20.9745 15.7948 20.9466 15.6927 20.9095 15.6184C20.7702 15.3492 20.5195 15.1357 20.2317 15.0243L16.267 13.4833C15.8306 13.3348 15.2921 13.5483 15.0135 13.8268L13.5836 15.2564C13.2587 15.5813 12.7851 15.6648 12.4695 15.442C11.3738 14.7087 10.2689 13.8082 9.22901 12.7685C8.18909 11.7288 7.29774 10.6242 6.55494 9.52877C6.34139 9.20387 6.42496 8.73044 6.74064 8.41481L8.17052 6.98523C8.44907 6.70674 8.66263 6.16832 8.51407 5.73202L6.97277 1.76818C6.86135 1.48041 6.65708 1.23905 6.37853 1.09052C6.30425 1.05339 6.22069 1.02554 6.20212 1.02554C5.57074 0.932711 4.97651 1.10909 4.44726 1.29475C3.92731 1.48041 3.47235 1.7589 3.10095 2.13022C1.29967 3.93112 1.78249 7.52364 4.01087 11.144C4.80009 12.4344 5.82143 13.734 7.04705 14.95C8.26337 16.1661 9.56326 17.1873 10.8539 17.9856C14.4657 20.2135 18.059 20.7055 19.8695 18.8953C20.2502 18.5147 20.5195 18.0599 20.7052 17.5493C20.8909 17.0202 21.0673 16.426 20.9745 15.7948Z" fill="white"/>
</svg>
