<svg width="112" height="107" viewBox="0 0 112 107" fill="none" xmlns="http://www.w3.org/2000/svg">
<path d="M56.9998 100.56C56.8398 100.94 56.3998 101.12 56.0198 100.95C41.1598 94.53 29.4798 85.6599 21.2998 74.5899C14.6498 65.5799 10.2898 55.11 8.33981 43.47C6.60981 33.13 7.13981 23.75 7.88981 17.71C8.04981 16.44 8.21981 15.27 8.39981 14.19C8.44981 13.86 8.50981 13.54 8.55981 13.24C8.79981 12.56 9.33981 11.83 10.4698 11.2C10.2898 12.08 10.0898 13.11 9.89981 14.25C9.70981 15.37 9.52981 16.61 9.35981 17.95C8.62981 23.9 8.10981 33.1199 9.81981 43.2799C12.8098 61.07 23.3698 85.2199 56.6098 99.59C56.9898 99.75 57.1598 100.19 56.9998 100.57V100.56Z" fill="#D3981C"/>
<path d="M52.8301 98.29C52.8301 98.29 48.6401 97.22 49.6101 91.84C50.4201 87.39 48.3301 85.49 48.3301 85.49C48.3301 85.49 54.5101 85.87 53.4201 92.79C53.2701 93.77 52.2601 97.04 52.8301 98.29Z" fill="#D3981C"/>
<path d="M45.3793 94.5099C45.3793 94.5099 41.2593 93.4399 42.2293 88.1499C43.0393 83.7699 40.9893 81.8999 40.9893 81.8999C40.9893 81.8999 47.0793 82.2899 45.9793 89.0999C45.8193 90.0599 44.8293 93.2799 45.3793 94.5199V94.5099Z" fill="#D3981C"/>
<path d="M37.9295 89.3301C37.9295 89.3301 34.0595 88.3601 34.9395 83.4001C35.6595 79.2901 33.7295 77.5601 33.7295 77.5601C33.7295 77.5601 39.4295 77.8801 38.4495 84.2601C38.3095 85.1601 37.3995 88.1801 37.9295 89.3301Z" fill="#D3981C"/>
<path d="M30.3701 82.9301C30.3701 82.9301 27.1001 81.3101 28.8501 77.0401C30.3001 73.5101 28.9101 71.5801 28.9101 71.5801C28.9101 71.5801 33.9401 72.9701 31.8201 78.4901C31.5201 79.2701 30.1201 81.7901 30.3701 82.9201V82.9301Z" fill="#D3981C"/>
<path d="M24.0198 76.44C24.0198 76.44 20.9598 74.46 23.1798 70.42C25.0198 67.08 23.8598 65 23.8598 65C23.8598 65 28.6998 66.96 25.9698 72.2C25.5798 72.94 23.9098 75.29 24.0198 76.44Z" fill="#D3981C"/>
<path d="M18.5797 68.1099C18.5797 68.1099 15.6697 65.9099 18.1797 62.0399C20.2597 58.8399 19.2597 56.6899 19.2597 56.6899C19.2597 56.6899 23.9397 58.9999 20.8297 64.0199C20.3897 64.7299 18.5497 66.9499 18.5697 68.1099H18.5797Z" fill="#D3981C"/>
<path d="M14.2896 59.5999C14.2896 59.5999 11.6896 57.2199 14.4696 53.7299C16.7696 50.8399 15.9996 48.6799 15.9996 48.6799C15.9996 48.6799 20.2896 51.3299 16.8396 55.8799C16.3496 56.5199 14.3696 58.4899 14.2896 59.5999Z" fill="#D3981C"/>
<path d="M11.09 49.8101C11.09 49.8101 8.89998 47.2201 11.97 44.2201C14.51 41.7401 14.04 39.5801 14.04 39.5801C14.04 39.5801 17.82 42.6301 13.98 46.5601C13.44 47.1201 11.31 48.7501 11.1 49.8101H11.09Z" fill="#D3981C"/>
<path d="M9.35953 40.86C9.35953 40.86 7.53953 38.37 10.5095 35.85C12.9695 33.76 12.6795 31.77 12.6795 31.77C12.6795 31.77 15.9095 34.78 12.1795 38.09C11.6495 38.56 9.61953 39.91 9.35953 40.85V40.86Z" fill="#D3981C"/>
<path d="M8.56956 32.3C8.56956 32.3 7.04956 29.93 9.90956 27.8C12.2696 26.04 12.1196 24.21 12.1196 24.21C12.1196 24.21 14.8896 27.13 11.2996 29.94C10.7896 30.34 8.85956 31.45 8.56956 32.29V32.3Z" fill="#D3981C"/>
<path d="M11.5899 13.3501C11.2999 13.5001 10.5999 13.7601 9.9399 14.0801C9.3499 14.3701 8.7899 14.7101 8.5899 15.0601C8.5899 15.0601 8.4099 14.5901 8.4399 13.9401C8.4599 13.6501 8.5199 13.3301 8.6599 13.0001C8.9299 12.3401 9.5199 11.6301 10.6799 11.0701C13.2299 9.8501 13.4299 8.1001 13.4299 8.1001C13.4299 8.1001 15.4999 11.3701 11.5899 13.3501Z" fill="#D3981C"/>
<path d="M8.62962 23.53C8.62962 23.53 7.28962 21.07 10.2596 19.16C12.7196 17.58 12.6996 15.75 12.6996 15.75C12.6996 15.75 15.2496 18.84 11.4896 21.38C10.9596 21.74 8.96962 22.71 8.61962 23.53H8.62962Z" fill="#D3981C"/>
<path d="M52.4492 100.05C52.4492 100.05 48.9592 97.49 45.4192 101.65C42.4892 105.1 39.6992 104.68 39.6992 104.68C39.6992 104.68 43.9092 109.22 48.5692 103.99C49.2292 103.25 51.1292 100.4 52.4492 100.04V100.05Z" fill="#D3981C"/>
<path d="M44.77 96.1C44.77 96.1 41.64 93.21 37.72 96.9C34.47 99.95 31.79 99.25 31.79 99.25C31.79 99.25 35.41 104.15 40.54 99.54C41.27 98.89 43.43 96.31 44.77 96.1Z" fill="#D3981C"/>
<path d="M36.47 90.9301C36.47 90.9301 33.93 87.8601 29.83 90.7901C26.44 93.2201 24.04 92.2201 24.04 92.2201C24.04 92.2201 26.79 97.2201 32.12 93.5801C32.87 93.0701 35.2 90.9501 36.47 90.9201V90.9301Z" fill="#D3981C"/>
<path d="M28.6495 84.3299C28.6495 84.3299 26.4795 81.3999 22.5895 83.8699C19.3695 85.9199 17.2295 84.8899 17.2295 84.8899C17.2295 84.8899 19.4895 89.5999 24.5495 86.5399C25.2695 86.1099 27.4995 84.2899 28.6595 84.3299H28.6495Z" fill="#D3981C"/>
<path d="M22.3094 77.2299C22.3094 77.2299 20.9494 73.8499 16.5594 75.2599C12.9294 76.4299 11.1094 74.8999 11.1094 74.8999C11.1094 74.8999 12.1094 80.0199 17.7694 78.3399C18.5694 78.0999 21.1894 76.8999 22.2994 77.2299H22.3094Z" fill="#D3981C"/>
<path d="M16.56 69.1C16.56 69.1 15.61 65.58 11.08 66.46C7.32996 67.19 5.70996 65.46 5.70996 65.46C5.70996 65.46 6.09996 70.67 11.92 69.66C12.74 69.52 15.49 68.64 16.55 69.1H16.56Z" fill="#D3981C"/>
<path d="M12.4696 60.4301C12.4696 60.4301 11.8296 56.9601 7.39957 57.4701C3.73957 57.8901 2.30957 56.0901 2.30957 56.0901C2.30957 56.0901 2.27957 61.1301 7.96957 60.6201C8.76957 60.5501 11.4896 59.9101 12.4796 60.4401L12.4696 60.4301Z" fill="#D3981C"/>
<path d="M9.10953 50.3101C9.10953 50.3101 9.05953 46.92 4.76953 46.68C1.21953 46.49 0.159527 44.55 0.159527 44.55C0.159527 44.55 -0.680473 49.34 4.79953 49.76C5.57953 49.82 8.24953 49.6501 9.10953 50.3101Z" fill="#D3981C"/>
<path d="M7.10962 41.0399C7.10962 41.0399 7.71962 38.0199 3.95962 36.9799C0.849622 36.1199 0.279622 34.1899 0.279622 34.1899C0.279622 34.1899 -1.39038 38.2799 3.38962 39.7199C4.06962 39.9199 6.47962 40.2899 7.10962 41.0399Z" fill="#D3981C"/>
<path d="M6.27918 32.2201C6.27918 32.2201 7.14918 29.54 3.84918 28.21C1.11918 27.1 0.799177 25.3 0.799177 25.3C0.799177 25.3 -1.14082 28.83 3.03918 30.64C3.62918 30.9 5.77918 31.48 6.26918 32.23L6.27918 32.2201Z" fill="#D3981C"/>
<path d="M7.49002 14.7601C7.49002 14.7601 8.61002 12.3001 5.61002 10.6701C3.12002 9.32006 3.02002 7.56006 3.02002 7.56006C3.02002 7.56006 0.780015 10.7201 4.58002 12.9001C5.12002 13.2101 7.10002 14.0001 7.49002 14.7701V14.7601Z" fill="#D3981C"/>
<path d="M6.40934 23.16C6.40934 23.16 7.28934 20.5 4.01934 19.15C1.30934 18.03 1.00934 16.24 1.00934 16.24C1.00934 16.24 -0.950658 19.74 3.19934 21.56C3.78934 21.82 5.91934 22.42 6.39934 23.16H6.40934Z" fill="#D3981C"/>
<path d="M8.80931 10.49C8.80931 10.49 6.21931 8.76999 8.14931 5.34999C9.74931 2.51999 8.77931 0.73999 8.77931 0.73999C8.77931 0.73999 12.8893 2.45999 10.5093 6.89999C10.1693 7.52999 8.71931 9.50999 8.80931 10.5V10.49Z" fill="#D3981C"/>
<path d="M55.7592 100.62C55.9292 101 56.3692 101.17 56.7492 101C71.4992 94.33 83.0292 85.27 91.0192 74.06C97.5192 64.95 101.709 54.4 103.469 42.73C105.029 32.36 104.339 22.99 103.489 16.96C103.309 15.69 103.119 14.52 102.929 13.45C102.869 13.12 102.809 12.81 102.749 12.5C102.499 11.83 101.949 11.1 100.809 10.49C101.009 11.37 101.219 12.39 101.429 13.53C101.639 14.65 101.839 15.88 102.029 17.22C102.859 23.15 103.529 32.36 101.989 42.56C99.2892 60.4 89.1392 84.72 56.1492 99.63C55.7792 99.8 55.6092 100.24 55.7692 100.61L55.7592 100.62Z" fill="#D3981C"/>
<path d="M59.8991 98.2799C59.8991 98.2799 64.069 97.1399 63.009 91.7699C62.129 87.3299 64.179 85.3999 64.179 85.3999C64.179 85.3999 57.9991 85.8799 59.2191 92.7799C59.3891 93.7599 60.4491 97.0099 59.8991 98.2699V98.2799Z" fill="#D3981C"/>
<path d="M67.2888 94.38C67.2888 94.38 71.3988 93.25 70.3288 87.97C69.4488 83.6 71.4688 81.7 71.4688 81.7C71.4688 81.7 65.3888 82.19 66.5988 88.98C66.7688 89.94 67.8188 93.14 67.2888 94.39V94.38Z" fill="#D3981C"/>
<path d="M74.6487 89.07C74.6487 89.07 78.4987 88.04 77.5387 83.09C76.7487 79 78.6487 77.23 78.6487 77.23C78.6487 77.23 72.9587 77.64 74.0387 84.01C74.1887 84.91 75.1487 87.91 74.6487 89.07Z" fill="#D3981C"/>
<path d="M82.089 82.5499C82.089 82.5499 85.329 80.8799 83.509 76.6399C81.999 73.1299 83.359 71.1799 83.359 71.1799C83.359 71.1799 78.349 72.6599 80.559 78.1399C80.869 78.9199 82.309 81.4099 82.089 82.5499Z" fill="#D3981C"/>
<path d="M88.339 75.95C88.339 75.95 91.3691 73.92 89.0791 69.92C87.1791 66.61 88.309 64.52 88.309 64.52C88.309 64.52 83.4991 66.56 86.3191 71.75C86.7191 72.48 88.439 74.8 88.339 75.96V75.95Z" fill="#D3981C"/>
<path d="M93.6391 67.5399C93.6391 67.5399 96.5091 65.2899 93.9291 61.4699C91.7991 58.3099 92.7591 56.1399 92.7591 56.1399C92.7591 56.1399 88.1191 58.5299 91.3091 63.4999C91.7591 64.1999 93.6391 66.3899 93.6291 67.5499L93.6391 67.5399Z" fill="#D3981C"/>
<path d="M97.7889 58.9601C97.7889 58.9601 100.349 56.5301 97.5189 53.0901C95.1789 50.2401 95.9089 48.0701 95.9089 48.0701C95.9089 48.0701 91.6589 50.7901 95.1889 55.2801C95.6889 55.9201 97.6989 57.8401 97.7989 58.9601H97.7889Z" fill="#D3981C"/>
<path d="M100.829 49.1199C100.829 49.1199 102.979 46.4899 99.859 43.5499C97.279 41.1099 97.719 38.9399 97.719 38.9399C97.719 38.9399 93.989 42.0499 97.899 45.9199C98.449 46.4699 100.609 48.0699 100.829 49.1199Z" fill="#D3981C"/>
<path d="M102.409 40.1401C102.409 40.1401 104.189 37.6201 101.179 35.1501C98.679 33.1001 98.939 31.1101 98.939 31.1101C98.939 31.1101 95.759 34.1701 99.549 37.4201C100.089 37.8801 102.139 39.1901 102.419 40.1401H102.409Z" fill="#D3981C"/>
<path d="M103.049 31.56C103.049 31.56 104.529 29.16 101.639 27.09C99.2489 25.37 99.3689 23.54 99.3689 23.54C99.3689 23.54 96.6489 26.51 100.289 29.26C100.809 29.65 102.749 30.73 103.059 31.57L103.049 31.56Z" fill="#D3981C"/>
<path d="M99.719 12.67C100.009 12.81 100.719 13.06 101.389 13.38C101.989 13.66 102.549 13.99 102.759 14.34C102.759 14.34 102.939 13.87 102.889 13.22C102.869 12.93 102.799 12.61 102.659 12.28C102.369 11.62 101.779 10.93 100.599 10.39C98.029 9.20997 97.799 7.46997 97.799 7.46997C97.799 7.46997 95.779 10.77 99.719 12.69V12.67Z" fill="#D3981C"/>
<path d="M102.849 22.8001C102.849 22.8001 104.149 20.3201 101.139 18.4601C98.6491 16.9201 98.6391 15.1001 98.6391 15.1001C98.6391 15.1001 96.1391 18.2301 99.9391 20.7101C100.479 21.0601 102.479 22.0001 102.839 22.8101L102.849 22.8001Z" fill="#D3981C"/>
<path d="M60.3096 100.03C60.3096 100.03 63.7496 97.41 67.3696 101.51C70.3596 104.91 73.1396 104.45 73.1396 104.45C73.1396 104.45 69.0096 109.06 64.2596 103.91C63.5896 103.18 61.6496 100.37 60.3096 100.03Z" fill="#D3981C"/>
<path d="M67.9189 95.95C67.9189 95.95 70.999 93.01 74.979 96.63C78.279 99.63 80.9489 98.88 80.9489 98.88C80.9489 98.88 77.4089 103.84 72.1989 99.32C71.4589 98.68 69.2589 96.14 67.9189 95.95Z" fill="#D3981C"/>
<path d="M76.1396 90.6501C76.1396 90.6501 78.6296 87.5401 82.7796 90.4001C86.2096 92.7701 88.5896 91.7401 88.5896 91.7401C88.5896 91.7401 85.9296 96.7901 80.5396 93.2401C79.7796 92.7401 77.4097 90.6601 76.1497 90.6501H76.1396Z" fill="#D3981C"/>
<path d="M83.8389 83.92C83.8389 83.92 85.9589 80.95 89.8889 83.36C93.1389 85.35 95.2689 84.29 95.2689 84.29C95.2689 84.29 93.0889 89.03 87.9789 86.06C87.2589 85.64 84.9889 83.85 83.8389 83.91V83.92Z" fill="#D3981C"/>
<path d="M90.0693 76.71C90.0693 76.71 91.3793 73.3 95.7893 74.65C99.4393 75.76 101.229 74.2 101.229 74.2C101.229 74.2 100.309 79.34 94.6193 77.75C93.8193 77.52 91.1693 76.37 90.0693 76.72V76.71Z" fill="#D3981C"/>
<path d="M95.6689 68.4899C95.6689 68.4899 96.5589 64.9499 101.099 65.7599C104.859 66.4299 106.449 64.6699 106.449 64.6699C106.449 64.6699 106.149 69.8799 100.309 68.9799C99.4789 68.8499 96.7189 68.0199 95.6689 68.4899Z" fill="#D3981C"/>
<path d="M99.6191 59.75C99.6191 59.75 100.209 56.27 104.639 56.7C108.309 57.06 109.709 55.23 109.709 55.23C109.709 55.23 109.819 60.27 104.129 59.85C103.319 59.79 100.599 59.2 99.6191 59.74V59.75Z" fill="#D3981C"/>
<path d="M102.81 49.5799C102.81 49.5799 102.81 46.1899 107.09 45.8799C110.63 45.6299 111.67 43.6699 111.67 43.6699C111.67 43.6699 112.59 48.4399 107.12 48.9599C106.35 49.0299 103.67 48.9099 102.82 49.5799H102.81Z" fill="#D3981C"/>
<path d="M104.649 40.2801C104.649 40.2801 103.989 37.2701 107.729 36.1601C110.829 35.2501 111.369 33.3101 111.369 33.3101C111.369 33.3101 113.109 37.3701 108.349 38.8901C107.679 39.1001 105.269 39.5101 104.649 40.2701V40.2801Z" fill="#D3981C"/>
<path d="M105.339 31.4499C105.339 31.4499 104.429 28.7899 107.699 27.3999C110.409 26.2499 110.699 24.4399 110.699 24.4399C110.699 24.4399 112.699 27.9399 108.549 29.8099C107.959 30.0799 105.829 30.6999 105.339 31.4499Z" fill="#D3981C"/>
<path d="M103.839 14.01C103.839 14.01 102.679 11.57 105.649 9.88999C108.109 8.49999 108.189 6.73999 108.189 6.73999C108.189 6.73999 110.479 9.85999 106.719 12.1C106.189 12.42 104.219 13.24 103.839 14.02V14.01Z" fill="#D3981C"/>
<path d="M105.059 22.3801C105.059 22.3801 104.129 19.7401 107.379 18.3401C110.069 17.1801 110.339 15.3801 110.339 15.3801C110.339 15.3801 112.349 18.8401 108.229 20.7301C107.649 21.0001 105.529 21.6301 105.049 22.3801H105.059Z" fill="#D3981C"/>
<path d="M102.449 9.76001C102.449 9.76001 105.019 8.00001 103.019 4.61001C101.369 1.80001 102.309 0.0100098 102.309 0.0100098C102.309 0.0100098 98.2288 1.79001 100.679 6.20001C101.029 6.82001 102.509 8.78001 102.439 9.77001L102.449 9.76001Z" fill="#D3981C"/>
<path d="M86.2997 47.0901C83.6397 57.3601 77.7197 66.5601 69.1997 73.3501L56.2597 83.6601L43.3197 73.3501C34.7897 66.5601 28.8797 57.3601 26.2197 47.0901H86.2997Z" fill="#121B3C"/>
<path d="M87.8791 12.96H24.6191V34.56H87.8791V12.96Z" fill="#121B3C"/>
<path d="M20.4697 8.80005V34.5401C20.4697 42.57 22.3097 50.6301 25.7997 57.87C29.2897 65.1 34.4497 71.57 40.7297 76.57L56.2497 88.93L71.7697 76.57C78.0497 71.57 83.2097 65.1 86.6897 57.87C90.1797 50.64 92.0197 42.57 92.0197 34.5401V8.80005H20.4697ZM89.2497 34.5401C89.2497 50.1501 82.2497 64.68 70.0397 74.41L56.2397 85.4L42.4397 74.41C30.2297 64.68 23.2297 50.1501 23.2297 34.5401V11.56H89.2497V34.5401Z" fill="#D3981C"/>
<path d="M89.8599 35.4099H22.1299V36.3699H89.8599V35.4099Z" fill="#D3981C"/>
<path d="M90.1792 45.28H22.4492V46.24H90.1792V45.28Z" fill="#D3981C"/>
<path d="M75.7894 22.6199C74.5694 22.4399 76.7194 20.8699 74.6294 18.1899C73.3794 16.5899 73.9894 15.6399 74.2694 15.1399C74.2694 15.1399 71.7094 15.6499 72.1494 18.8299C72.5094 21.4699 67.9594 22.1799 72.8594 25.1199C72.8594 25.1199 71.2294 22.0399 73.7094 20.6499C73.7094 20.6499 73.0994 21.9699 74.1394 23.0899C75.0694 24.0899 74.2294 25.2299 74.2294 25.2299C74.2294 25.2299 80.2394 24.0899 75.8294 19.2199C75.8294 19.2199 77.1694 22.8099 75.7994 22.6099L75.7894 22.6199Z" fill="#D3981C"/>
<path d="M71.2698 16.75C71.2698 16.75 72.1998 18.37 71.5998 19.99C71.2798 20.85 70.2698 21.46 70.2898 22.57C70.2898 22.57 69.1898 20.91 70.7298 19.47C71.7798 18.49 71.3098 17.05 71.2698 16.76V16.75Z" fill="#D3981C"/>
<path d="M77.4095 25.1C77.3395 25.01 77.2295 24.96 77.1195 24.96H73.6895H70.3395C70.2295 24.96 70.1195 25.01 70.0495 25.1L69.1495 26.19C68.9495 26.43 69.1195 26.8 69.4395 26.8H78.0195C78.3395 26.8 78.5095 26.43 78.3095 26.19L77.4095 25.1Z" fill="white"/>
<path d="M78.6697 28.1C78.2297 28.55 77.6297 28.8 76.9997 28.8H73.6697H70.4397C69.8097 28.8 69.2097 28.55 68.7697 28.1L68.2497 27.58C68.0197 27.35 68.1897 26.96 68.5097 26.96H78.9097C79.2297 26.96 79.3897 27.35 79.1697 27.58L78.6497 28.1H78.6697Z" fill="white"/>
<path d="M76.4098 29.87C76.2998 29.98 76.1498 30.04 75.9998 30.04H73.6998H71.4498C71.2998 30.04 71.1498 29.98 71.0398 29.87L70.4498 29.27C70.3298 29.15 70.4198 28.95 70.5798 28.95H76.8698C77.0298 28.95 77.1198 29.15 76.9998 29.27L76.4098 29.87Z" fill="white"/>
<path d="M76.2 30.1899H71.29V34.5599H76.2V30.1899Z" fill="white"/>
<path d="M73.1698 31.0601H71.7598V34.5601H73.1698V31.0601Z" fill="#121B3C"/>
<path d="M34.9993 56.6901V57.6801H35.5493C35.6293 57.6801 35.6993 57.6801 35.7393 57.6601C35.7893 57.6501 35.8293 57.6201 35.8593 57.5901C35.8893 57.5601 35.9093 57.5201 35.9193 57.4801C35.9293 57.4301 35.9393 57.3801 35.9393 57.3201H36.0093V58.1901H35.9393C35.9393 58.1301 35.9193 58.0801 35.9093 58.0401C35.9093 58.0001 35.8893 57.9701 35.8793 57.9601C35.8693 57.9401 35.8493 57.9201 35.8393 57.9001C35.8193 57.8801 35.7993 57.8701 35.7693 57.8601C35.7393 57.8501 35.7093 57.8401 35.6693 57.8301C35.6293 57.8301 35.5893 57.8301 35.5393 57.8301H34.9893V58.6601C34.9893 58.7701 34.9893 58.8401 34.9993 58.8601C34.9993 58.8701 35.0093 58.8801 35.0193 58.8901C35.0193 58.8901 35.0393 58.9101 35.0493 58.9101C35.0593 58.9101 35.0793 58.9201 35.1093 58.9301C35.1393 58.9401 35.1593 58.9301 35.1993 58.9301H35.6293C35.6993 58.9301 35.7593 58.9301 35.8093 58.9301C35.8593 58.9301 35.8993 58.9201 35.9393 58.9101C35.9793 58.9001 36.0093 58.8801 36.0393 58.8701C36.0693 58.8501 36.0993 58.8301 36.1293 58.8001C36.1693 58.7601 36.2093 58.7201 36.2493 58.6601C36.2893 58.6001 36.3293 58.5301 36.3693 58.4601H36.4393L36.2193 59.0901H34.2893V59.0201H34.3793C34.3793 59.0201 34.4293 59.0201 34.4493 59.0201C34.4793 59.0201 34.4993 59.0101 34.5193 59.0001C34.5393 58.9901 34.5593 58.9801 34.5793 58.9601C34.5993 58.9401 34.6093 58.9201 34.6193 58.9001C34.6293 58.8601 34.6393 58.7801 34.6393 58.6601V57.0301C34.6393 56.8701 34.6193 56.7701 34.5893 56.7401C34.5493 56.6901 34.4693 56.6701 34.3693 56.6701H34.2793V56.6001H36.2093V57.1501H36.1693C36.1593 57.0801 36.1393 57.0301 36.1293 56.9901C36.1193 56.9501 36.0993 56.9101 36.0793 56.8801C36.0593 56.8501 36.0393 56.8301 36.0193 56.8101C35.9993 56.7901 35.9693 56.7801 35.9393 56.7601C35.8893 56.7401 35.7993 56.7301 35.6793 56.7301H34.9893L34.9993 56.6901Z" fill="white"/>
<path d="M38.259 56.5V57.37H38.189C38.169 57.2 38.129 57.07 38.069 56.97C38.039 56.92 38.009 56.88 37.959 56.84C37.919 56.8 37.869 56.77 37.819 56.74C37.769 56.71 37.719 56.69 37.659 56.68C37.599 56.66 37.549 56.66 37.489 56.66C37.429 56.66 37.369 56.67 37.309 56.69C37.249 56.71 37.209 56.74 37.169 56.78C37.129 56.82 37.099 56.86 37.079 56.9C37.059 56.95 37.049 56.99 37.049 57.04C37.049 57.11 37.069 57.17 37.099 57.22C37.129 57.27 37.179 57.32 37.229 57.36C37.289 57.4 37.349 57.44 37.429 57.49C37.509 57.53 37.589 57.57 37.679 57.62C37.779 57.67 37.869 57.72 37.959 57.78C38.049 57.83 38.129 57.89 38.199 57.95C38.269 58.01 38.319 58.08 38.359 58.16C38.399 58.24 38.419 58.33 38.419 58.44C38.419 58.53 38.399 58.62 38.359 58.71C38.319 58.79 38.269 58.87 38.199 58.93C38.129 58.99 38.049 59.04 37.949 59.08C37.849 59.12 37.749 59.14 37.629 59.14C37.589 59.14 37.549 59.14 37.519 59.14C37.489 59.14 37.459 59.14 37.429 59.14C37.399 59.14 37.369 59.13 37.339 59.12C37.309 59.12 37.269 59.1 37.229 59.08C37.199 59.07 37.169 59.06 37.139 59.05C37.109 59.05 37.079 59.03 37.049 59.03C37.019 59.03 36.999 59.02 36.979 59.02C36.959 59.02 36.949 59.02 36.949 59.02C36.919 59.02 36.889 59.02 36.879 59.05C36.869 59.08 36.849 59.11 36.839 59.16H36.769V58.3H36.839C36.859 58.39 36.869 58.47 36.899 58.54C36.919 58.61 36.949 58.66 36.969 58.71C36.999 58.75 37.029 58.8 37.079 58.83C37.119 58.87 37.169 58.9 37.229 58.93C37.279 58.96 37.339 58.98 37.399 58.99C37.459 59.01 37.529 59.01 37.589 59.01C37.669 59.01 37.739 59 37.799 58.98C37.859 58.96 37.909 58.93 37.959 58.89C37.999 58.85 38.039 58.81 38.059 58.76C38.079 58.71 38.089 58.66 38.089 58.6C38.089 58.52 38.069 58.45 38.039 58.4C38.009 58.35 37.959 58.3 37.909 58.25C37.849 58.21 37.789 58.17 37.709 58.13C37.639 58.09 37.559 58.05 37.469 58C37.379 57.94 37.289 57.89 37.199 57.84C37.109 57.79 37.039 57.74 36.969 57.68C36.899 57.62 36.849 57.55 36.809 57.48C36.769 57.41 36.749 57.31 36.749 57.21C36.749 57.12 36.769 57.04 36.809 56.96C36.849 56.88 36.899 56.81 36.959 56.75C37.029 56.69 37.099 56.64 37.189 56.61C37.279 56.57 37.379 56.56 37.479 56.56C37.609 56.56 37.749 56.59 37.899 56.66C37.969 56.69 38.019 56.71 38.049 56.71C38.079 56.71 38.109 56.71 38.129 56.68C38.149 56.66 38.169 56.62 38.179 56.56H38.249L38.259 56.5Z" fill="white"/>
<path d="M40.8195 56.5601V57.1501H40.7795C40.7795 57.0701 40.7495 57.0001 40.7295 56.9501C40.7095 56.9001 40.6795 56.8501 40.6395 56.8201C40.5995 56.7901 40.5595 56.7601 40.5095 56.7501C40.4595 56.7301 40.3995 56.7301 40.3295 56.7301H39.9795V58.6401C39.9795 58.7901 39.9995 58.8901 40.0295 58.9301C40.0795 58.9801 40.1495 59.0101 40.2495 59.0101H40.3395V59.0801H39.2795V59.0101H39.3695C39.4795 59.0101 39.5495 58.9801 39.5995 58.9101C39.6295 58.8701 39.6395 58.7801 39.6395 58.6401V56.7301H39.3395C39.2595 56.7301 39.1995 56.7301 39.1395 56.7501C39.0795 56.7601 39.0395 56.7801 38.9995 56.8101C38.9595 56.8401 38.9295 56.8801 38.8995 56.9401C38.8795 57.0001 38.8595 57.0701 38.8395 57.1601H38.7695V56.5701H40.8495L40.8195 56.5601Z" fill="white"/>
<path d="M40.999 59.0601V58.9901H41.089C41.189 58.9901 41.269 58.9601 41.319 58.8901C41.349 58.8501 41.359 58.7601 41.359 58.6201V57.0001C41.359 56.8401 41.339 56.7401 41.309 56.7101C41.259 56.6601 41.189 56.6301 41.099 56.6301H41.009V56.5601H42.029C42.399 56.5601 42.689 56.6001 42.879 56.6901C43.079 56.7801 43.229 56.9201 43.349 57.1201C43.469 57.3201 43.529 57.5501 43.529 57.8101C43.529 57.9901 43.499 58.1601 43.439 58.3201C43.379 58.4801 43.289 58.6101 43.169 58.7201C43.049 58.8301 42.909 58.9201 42.729 58.9801C42.549 59.0401 42.349 59.0701 42.119 59.0701H40.999V59.0601ZM41.719 58.8801C41.869 58.9101 42.009 58.9301 42.109 58.9301C42.249 58.9301 42.379 58.9001 42.499 58.8501C42.619 58.8001 42.729 58.7201 42.819 58.6301C42.909 58.5301 42.979 58.4201 43.029 58.2801C43.079 58.1401 43.109 57.9901 43.109 57.8201C43.109 57.6501 43.089 57.4901 43.039 57.3501C42.989 57.2101 42.919 57.0901 42.829 57.0001C42.739 56.9001 42.629 56.8301 42.509 56.7801C42.389 56.7301 42.249 56.7001 42.099 56.7001C42.039 56.7001 41.989 56.7001 41.919 56.7101C41.859 56.7101 41.789 56.7301 41.719 56.7501V58.8801Z" fill="white"/>
<path d="M44.1492 58.71C44.1492 58.71 44.1992 58.71 44.2292 58.73C44.2492 58.74 44.2792 58.75 44.2892 58.77C44.3092 58.79 44.3192 58.81 44.3292 58.84C44.3392 58.87 44.3492 58.89 44.3492 58.92C44.3492 58.95 44.3492 58.97 44.3292 59C44.3092 59.03 44.2992 59.05 44.2892 59.06C44.2692 59.08 44.2492 59.09 44.2292 59.1C44.2092 59.11 44.1792 59.12 44.1492 59.12C44.1192 59.12 44.0992 59.12 44.0692 59.1C44.0492 59.09 44.0192 59.07 44.0092 59.06C43.9892 59.04 43.9792 59.02 43.9692 59C43.9592 58.98 43.9492 58.95 43.9492 58.92C43.9492 58.89 43.9492 58.86 43.9692 58.84C43.9892 58.82 43.9992 58.79 44.0092 58.78C44.0292 58.76 44.0492 58.75 44.0692 58.74C44.0892 58.73 44.1192 58.72 44.1492 58.72V58.71Z" fill="white"/>
<path d="M71.0692 58.4601L70.8892 58.9401H69.4092V58.8701C69.6292 58.6701 69.8092 58.4901 69.9692 58.3301C70.1192 58.1701 70.2392 58.0301 70.3292 57.9001C70.5092 57.6501 70.5992 57.4201 70.5992 57.2101C70.5992 57.1301 70.5892 57.0601 70.5592 56.9901C70.5292 56.9201 70.4992 56.8701 70.4492 56.8201C70.4092 56.7701 70.3492 56.7301 70.2892 56.7101C70.2292 56.6801 70.1692 56.6701 70.0992 56.6701C70.0392 56.6701 69.9792 56.6701 69.9192 56.7001C69.8592 56.7201 69.8092 56.7401 69.7592 56.7801C69.7092 56.8201 69.6692 56.8601 69.6292 56.9101C69.5892 56.9601 69.5592 57.0201 69.5392 57.0901H69.4692C69.4892 56.9801 69.5092 56.8701 69.5592 56.7901C69.5992 56.7001 69.6492 56.6301 69.7092 56.5701C69.7692 56.5101 69.8392 56.4601 69.9192 56.4301C69.9992 56.4001 70.0892 56.3801 70.1792 56.3801C70.2792 56.3801 70.3792 56.4001 70.4592 56.4301C70.5392 56.4601 70.6192 56.5101 70.6892 56.5701C70.7492 56.6301 70.7992 56.7001 70.8392 56.7801C70.8792 56.8601 70.8892 56.9401 70.8892 57.0301C70.8892 57.1601 70.8592 57.2801 70.7992 57.4101C70.7092 57.6101 70.5592 57.8201 70.3592 58.0401C70.2092 58.2101 70.0792 58.3401 69.9892 58.4401C69.8992 58.5401 69.8292 58.6101 69.7892 58.6401H70.4392C70.5192 58.6401 70.5892 58.6401 70.6492 58.6401C70.7092 58.6401 70.7492 58.6301 70.7892 58.6101C70.8292 58.6001 70.8592 58.5801 70.8892 58.5501C70.9192 58.5201 70.9492 58.4901 70.9692 58.4401H71.0392L71.0692 58.4601Z" fill="white"/>
<path d="M71.3594 57.7101C71.3594 57.4201 71.3994 57.1801 71.4894 56.9701C71.5194 56.8901 71.5594 56.8201 71.6094 56.7501C71.6594 56.6801 71.7094 56.6201 71.7594 56.5601C71.8194 56.5101 71.8794 56.4601 71.9494 56.4301C72.0194 56.4001 72.0994 56.3801 72.1794 56.3801C72.3694 56.3801 72.5394 56.4801 72.6994 56.6701C72.8894 56.9101 72.9894 57.2401 72.9894 57.6601C72.9894 57.7601 72.9894 57.8501 72.9794 57.9401C72.9794 58.0301 72.9594 58.1201 72.9394 58.2001C72.9194 58.2801 72.8894 58.3601 72.8594 58.4401C72.8294 58.5201 72.7794 58.5901 72.7294 58.6601C72.6994 58.7001 72.6594 58.7501 72.6194 58.7901C72.5794 58.8301 72.5294 58.8601 72.4794 58.8901C72.4294 58.9201 72.3794 58.9401 72.3294 58.9601C72.2794 58.9801 72.2294 58.9801 72.1794 58.9801C72.0694 58.9801 71.9694 58.9501 71.8794 58.8901C71.7894 58.8301 71.6994 58.7401 71.6294 58.6301C71.5494 58.5101 71.4894 58.3801 71.4494 58.2201C71.4094 58.0601 71.3794 57.8901 71.3794 57.7001L71.3594 57.7101ZM71.7294 57.7601C71.7294 57.9101 71.7294 58.0501 71.7494 58.1801C71.7694 58.3101 71.7894 58.4301 71.8194 58.5301C71.8594 58.6401 71.8994 58.7301 71.9594 58.7901C72.0194 58.8501 72.0894 58.8901 72.1694 58.8901C72.1994 58.8901 72.2394 58.8901 72.2694 58.8701C72.3094 58.8601 72.3394 58.8301 72.3694 58.8001C72.3994 58.7701 72.4294 58.7301 72.4594 58.6801C72.4894 58.6301 72.5094 58.5701 72.5294 58.5001C72.5594 58.3901 72.5794 58.2701 72.5894 58.1201C72.5994 57.9701 72.6094 57.8001 72.6094 57.6101C72.6094 57.3201 72.5794 57.0901 72.5194 56.8901C72.4794 56.7701 72.4394 56.6801 72.3794 56.6201C72.3194 56.5601 72.2494 56.5301 72.1694 56.5301C72.0694 56.5301 71.9794 56.5801 71.9094 56.6901C71.8394 56.7901 71.7894 56.9401 71.7594 57.1301C71.7394 57.2401 71.7294 57.3501 71.7194 57.4601C71.7194 57.5701 71.7094 57.6701 71.7094 57.7801L71.7294 57.7601Z" fill="white"/>
<path d="M74.8494 58.4601L74.6694 58.9401H73.1895V58.8701C73.4095 58.6701 73.5895 58.4901 73.7495 58.3301C73.8995 58.1701 74.0195 58.0301 74.1095 57.9001C74.2895 57.6501 74.3794 57.4201 74.3794 57.2101C74.3794 57.1301 74.3694 57.0601 74.3394 56.9901C74.3094 56.9201 74.2795 56.8701 74.2295 56.8201C74.1895 56.7701 74.1295 56.7301 74.0695 56.7101C74.0095 56.6801 73.9494 56.6701 73.8794 56.6701C73.8194 56.6701 73.7594 56.6701 73.6994 56.7001C73.6394 56.7201 73.5895 56.7401 73.5395 56.7801C73.4895 56.8201 73.4495 56.8601 73.4095 56.9101C73.3695 56.9601 73.3395 57.0201 73.3195 57.0901H73.2495C73.2695 56.9801 73.2895 56.8701 73.3295 56.7901C73.3695 56.7001 73.4195 56.6301 73.4795 56.5701C73.5395 56.5101 73.6095 56.4601 73.6895 56.4301C73.7695 56.4001 73.8594 56.3801 73.9494 56.3801C74.0494 56.3801 74.1495 56.4001 74.2295 56.4301C74.3095 56.4601 74.3894 56.5101 74.4594 56.5701C74.5194 56.6301 74.5695 56.7001 74.6095 56.7801C74.6495 56.8601 74.6595 56.9401 74.6595 57.0301C74.6595 57.1601 74.6295 57.2801 74.5695 57.4101C74.4795 57.6101 74.3294 57.8201 74.1294 58.0401C73.9794 58.2101 73.8495 58.3401 73.7595 58.4401C73.6695 58.5401 73.5994 58.6101 73.5594 58.6401H74.2094C74.2894 58.6401 74.3594 58.6401 74.4194 58.6401C74.4794 58.6401 74.5194 58.6301 74.5594 58.6101C74.5994 58.6001 74.6295 58.5801 74.6595 58.5501C74.6895 58.5201 74.7194 58.4901 74.7394 58.4401H74.8094L74.8494 58.4601Z" fill="white"/>
<path d="M75.1987 56.9201C75.2687 56.7501 75.3587 56.6201 75.4687 56.5301C75.5787 56.4401 75.7087 56.3901 75.8787 56.3901C75.9687 56.3901 76.0487 56.4001 76.1187 56.4301C76.1887 56.4601 76.2487 56.4901 76.2987 56.5401C76.3487 56.5901 76.3887 56.6401 76.4187 56.7001C76.4487 56.7601 76.4587 56.8301 76.4587 56.8901C76.4587 57.0701 76.3487 57.2601 76.1187 57.4601C76.2787 57.5201 76.3887 57.6101 76.4687 57.7201C76.5487 57.8301 76.5887 57.9601 76.5887 58.1201C76.5887 58.2501 76.5687 58.3601 76.5187 58.4701C76.4687 58.5801 76.4087 58.6701 76.3187 58.7501C76.2287 58.8301 76.1287 58.8901 76.0087 58.9301C75.8887 58.9701 75.7487 58.9901 75.6087 58.9901C75.5187 58.9901 75.4487 58.9901 75.3987 58.9701C75.3387 58.9601 75.2987 58.9401 75.2687 58.9201C75.2387 58.9001 75.2087 58.8801 75.1987 58.8601C75.1887 58.8401 75.1787 58.8101 75.1787 58.7901C75.1787 58.7501 75.1887 58.7201 75.2187 58.7001C75.2487 58.6701 75.2787 58.6601 75.3187 58.6601H75.3587C75.3587 58.6601 75.3787 58.6601 75.3987 58.6601C75.4087 58.6601 75.4287 58.6701 75.4587 58.6801C75.4787 58.6901 75.5187 58.7101 75.5587 58.7301C75.5987 58.7501 75.6387 58.7701 75.6687 58.7801C75.6987 58.7901 75.7187 58.8001 75.7387 58.8101C75.7587 58.8101 75.7787 58.8101 75.7987 58.8101C75.8187 58.8101 75.8387 58.8101 75.8587 58.8101C75.9187 58.8101 75.9787 58.8001 76.0387 58.7701C76.0987 58.7401 76.1487 58.7101 76.1887 58.6601C76.2287 58.6101 76.2687 58.5601 76.2887 58.5001C76.3087 58.4401 76.3287 58.3801 76.3287 58.3101C76.3287 58.2701 76.3287 58.2301 76.3187 58.1801C76.3187 58.1401 76.2987 58.1001 76.2787 58.0601C76.2587 58.0201 76.2487 57.9801 76.2287 57.9501C76.2087 57.9201 76.1887 57.8901 76.1587 57.8701C76.1287 57.8501 76.0987 57.8201 76.0587 57.8001C76.0187 57.7801 75.9787 57.7601 75.9387 57.7401C75.8987 57.7201 75.8487 57.7101 75.7987 57.7001C75.7487 57.6901 75.6987 57.6801 75.6587 57.6801H75.5987V57.6201C75.6987 57.6101 75.7887 57.5701 75.8887 57.5101C75.9887 57.4501 76.0587 57.3801 76.1087 57.3001C76.1487 57.2201 76.1787 57.1301 76.1787 57.0301C76.1787 56.9701 76.1687 56.9101 76.1487 56.8601C76.1287 56.8101 76.0987 56.7601 76.0587 56.7201C76.0187 56.6801 75.9787 56.6501 75.9287 56.6301C75.8787 56.6101 75.8287 56.6001 75.7687 56.6001C75.5787 56.6001 75.4187 56.7001 75.2887 56.9101L75.2287 56.8801L75.1987 56.9201Z" fill="white"/>
<path d="M47.6895 52.57V63.69C47.6895 63.69 52.3595 63.18 56.5395 65.73V54.51C56.5395 54.51 53.7595 52.52 47.6895 52.57Z" fill="white"/>
<path d="M56.0096 55.7501C56.0096 55.7501 55.9596 55.7501 55.9396 55.7301C53.3296 53.8401 48.8096 54.0001 48.7596 54.0001C48.6896 54.0001 48.6396 53.9501 48.6396 53.8901C48.6396 53.8301 48.6896 53.7701 48.7496 53.7701C48.7596 53.7701 49.9196 53.7301 51.3896 53.9201C52.7496 54.1001 54.6696 54.5301 56.0696 55.5401C56.1196 55.5801 56.1396 55.6501 56.0996 55.7101C56.0796 55.7401 56.0396 55.7601 55.9996 55.7601L56.0096 55.7501Z" fill="#121B3C"/>
<path d="M55.7896 56.9401C55.7896 56.9401 55.7397 56.9401 55.7197 56.9201C53.1797 55.1101 48.8096 55.3101 48.7596 55.3101C48.6896 55.3101 48.6396 55.2601 48.6396 55.2001C48.6396 55.1301 48.6896 55.0801 48.7496 55.0801C48.7596 55.0801 49.8797 55.0301 51.3097 55.2001C52.6297 55.3601 54.4896 55.7601 55.8596 56.7301C55.9096 56.7701 55.9296 56.8401 55.8896 56.9001C55.8696 56.9301 55.8296 56.9501 55.7896 56.9501V56.9401Z" fill="#121B3C"/>
<path d="M55.7589 58.1901C55.7589 58.1901 55.7089 58.1901 55.6889 58.1701C53.1689 56.3401 48.7889 56.4901 48.7489 56.5001C48.6789 56.5001 48.6289 56.4501 48.6289 56.3901C48.6289 56.3201 48.6789 56.2701 48.7389 56.2701C48.7489 56.2701 49.8689 56.2301 51.2989 56.4201C52.6189 56.5901 54.4789 57.0101 55.8289 57.9901C55.8789 58.0301 55.8989 58.1001 55.8589 58.1601C55.8389 58.1901 55.7989 58.2101 55.7589 58.2101V58.1901Z" fill="#121B3C"/>
<path d="M55.7291 59.3801C55.7291 59.3801 55.6791 59.3801 55.6591 59.3601C53.1191 57.5601 48.7491 57.7501 48.6991 57.7601C48.6291 57.7601 48.5791 57.7101 48.5791 57.6501C48.5791 57.5801 48.6291 57.5301 48.6891 57.5301C48.6991 57.5301 49.8191 57.4801 51.2491 57.6501C52.5691 57.8101 54.4291 58.2101 55.7991 59.1801C55.8491 59.2201 55.8691 59.2901 55.8291 59.3501C55.8091 59.3801 55.7691 59.4001 55.7291 59.4001V59.3801Z" fill="#121B3C"/>
<path d="M55.6992 60.59C55.6992 60.59 55.6492 60.59 55.6292 60.57C53.0892 58.77 48.7092 58.98 48.6692 58.99C48.5992 58.99 48.5492 58.94 48.5392 58.88C48.5292 58.82 48.5892 58.76 48.6492 58.75C48.6592 58.75 49.7792 58.69 51.2092 58.86C52.5292 59.02 54.3892 59.41 55.7592 60.37C55.8092 60.41 55.8292 60.48 55.7892 60.54C55.7692 60.57 55.7292 60.59 55.6892 60.59H55.6992Z" fill="#121B3C"/>
<path d="M55.6593 61.8501C55.6593 61.8501 55.6093 61.8501 55.5893 61.8301C53.0693 60.0101 48.6893 60.1701 48.6493 60.1701C48.5793 60.1701 48.5293 60.1201 48.5293 60.0601C48.5293 59.9901 48.5793 59.9401 48.6393 59.9401C48.6493 59.9401 49.7693 59.9001 51.1993 60.0801C52.5193 60.2501 54.3793 60.6601 55.7293 61.6401C55.7793 61.6801 55.7993 61.7501 55.7593 61.8101C55.7393 61.8401 55.6993 61.8601 55.6593 61.8601V61.8501Z" fill="#121B3C"/>
<path d="M55.619 63.1C55.619 63.1 55.569 63.1 55.549 63.08C53.039 61.24 48.659 61.36 48.619 61.36C48.549 61.36 48.499 61.31 48.499 61.25C48.499 61.18 48.549 61.13 48.609 61.13C48.619 61.13 49.749 61.09 51.169 61.29C52.489 61.47 54.339 61.9 55.689 62.89C55.739 62.93 55.749 63 55.719 63.06C55.699 63.09 55.659 63.11 55.619 63.11V63.1Z" fill="#121B3C"/>
<path d="M55.589 64.31C55.589 64.31 55.539 64.31 55.519 64.29C53.009 62.45 48.629 62.59 48.579 62.59C48.509 62.59 48.459 62.54 48.459 62.48C48.459 62.41 48.509 62.36 48.569 62.36C48.579 62.36 49.699 62.32 51.129 62.52C52.449 62.7 54.299 63.12 55.659 64.11C55.709 64.15 55.719 64.22 55.689 64.28C55.669 64.31 55.629 64.33 55.589 64.33V64.31Z" fill="#121B3C"/>
<path d="M56.5391 54.51C56.5391 54.51 59.3191 52.52 65.3891 52.57V63.69C65.3891 63.69 60.7191 63.18 56.5391 65.73V54.51Z" fill="white"/>
<path d="M57.0693 55.7501C57.0693 55.7501 56.9993 55.7301 56.9693 55.7001C56.9293 55.6501 56.9393 55.5701 56.9993 55.5301C58.3993 54.5201 60.3193 54.0901 61.6793 53.9101C63.1493 53.7201 64.3093 53.7601 64.3193 53.7601C64.3893 53.7601 64.4393 53.8201 64.4293 53.8801C64.4293 53.9501 64.3693 54.0001 64.3093 53.9901C64.2593 53.9901 59.7393 53.8301 57.1293 55.7201C57.1093 55.7401 57.0793 55.7401 57.0593 55.7401L57.0693 55.7501Z" fill="#121B3C"/>
<path d="M57.289 56.9399C57.289 56.9399 57.219 56.9199 57.189 56.8899C57.149 56.8399 57.159 56.7599 57.219 56.7199C58.579 55.7499 60.439 55.3499 61.769 55.1899C63.199 55.0099 64.319 55.0699 64.329 55.0699C64.399 55.0699 64.449 55.1299 64.439 55.1899C64.439 55.2599 64.379 55.3099 64.319 55.2999C64.279 55.2999 59.899 55.0999 57.359 56.9099C57.339 56.9299 57.309 56.9299 57.289 56.9299V56.9399Z" fill="#121B3C"/>
<path d="M57.3291 58.1901C57.3291 58.1901 57.2591 58.1701 57.2291 58.1401C57.1891 58.0901 57.1991 58.0101 57.2591 57.9701C58.6091 56.9901 60.4691 56.5701 61.7891 56.4001C63.2091 56.2101 64.3391 56.2501 64.3491 56.2501C64.4191 56.2501 64.4691 56.3101 64.4591 56.3701C64.4591 56.4401 64.3991 56.4901 64.3391 56.4801C64.2991 56.4801 59.9191 56.3301 57.3991 58.1501C57.3791 58.1701 57.3491 58.1701 57.3291 58.1701V58.1901Z" fill="#121B3C"/>
<path d="M57.3496 59.38C57.3496 59.38 57.2796 59.36 57.2496 59.33C57.2096 59.28 57.2196 59.2 57.2796 59.16C58.6396 58.19 60.5096 57.79 61.8296 57.63C63.2596 57.46 64.3796 57.51 64.3896 57.51C64.4596 57.51 64.5096 57.57 64.4996 57.63C64.4996 57.7 64.4396 57.75 64.3796 57.74C64.3396 57.74 59.9596 57.54 57.4196 59.34C57.3996 59.35 57.3796 59.36 57.3496 59.36V59.38Z" fill="#121B3C"/>
<path d="M57.3799 60.59C57.3799 60.59 57.3099 60.57 57.2799 60.54C57.2399 60.49 57.2499 60.41 57.3099 60.37C58.6799 59.4 60.5399 59.01 61.8599 58.86C63.2899 58.69 64.4099 58.75 64.4199 58.75C64.4899 58.75 64.5399 58.81 64.5299 58.88C64.5299 58.95 64.4699 59 64.3999 58.99C64.3599 58.99 59.9799 58.78 57.4399 60.57C57.4199 60.58 57.3999 60.59 57.3699 60.59H57.3799Z" fill="#121B3C"/>
<path d="M57.4189 61.85C57.4189 61.85 57.3489 61.83 57.3189 61.8C57.2789 61.75 57.2889 61.67 57.3489 61.63C58.7089 60.65 60.5589 60.24 61.8789 60.07C63.3089 59.88 64.4289 59.93 64.4389 59.93C64.5089 59.93 64.5589 59.99 64.5489 60.05C64.5489 60.12 64.4889 60.17 64.4289 60.16C64.3889 60.16 60.0089 60 57.4889 61.82C57.4689 61.84 57.4389 61.84 57.4189 61.84V61.85Z" fill="#121B3C"/>
<path d="M57.459 63.1C57.459 63.1 57.389 63.08 57.359 63.05C57.319 63 57.329 62.92 57.389 62.88C58.739 61.89 60.589 61.46 61.909 61.28C63.329 61.08 64.459 61.12 64.469 61.12C64.539 61.12 64.589 61.18 64.579 61.24C64.579 61.31 64.519 61.36 64.459 61.35C64.419 61.35 60.039 61.22 57.529 63.07C57.509 63.09 57.479 63.09 57.459 63.09V63.1Z" fill="#121B3C"/>
<path d="M57.4892 64.3101C57.4892 64.3101 57.4192 64.2901 57.3892 64.2601C57.3492 64.2101 57.3592 64.1301 57.4192 64.0901C58.7692 63.1001 60.6292 62.6801 61.9492 62.5001C63.3692 62.3101 64.4992 62.3401 64.5092 62.3401C64.5792 62.3401 64.6292 62.4001 64.6192 62.4601C64.6192 62.5301 64.5592 62.5801 64.4992 62.5701C64.4592 62.5701 60.0792 62.4301 57.5592 64.2701C57.5392 64.2901 57.5092 64.2901 57.4892 64.2901V64.3101Z" fill="#121B3C"/>
<path d="M56.5394 66.71C56.5394 66.71 56.4894 66.7101 56.4594 66.6901C54.2694 65.4101 51.7594 64.95 50.0294 64.78C48.1594 64.6 46.7994 64.73 46.7794 64.74C46.7394 64.74 46.6894 64.74 46.6594 64.7C46.6294 64.66 46.6094 64.63 46.6094 64.59V53.4501C46.6094 53.3701 46.6794 53.3 46.7594 53.3C46.8394 53.3 46.9094 53.3701 46.9094 53.4501V64.42C47.3394 64.39 48.5294 64.3301 50.0494 64.4801C51.7794 64.6401 54.3094 65.11 56.5294 66.38C58.7494 65.1 61.2694 64.6401 63.0094 64.4801C64.5294 64.3401 65.7194 64.39 66.1494 64.42V53.4501C66.1494 53.3701 66.2194 53.3 66.2994 53.3C66.3794 53.3 66.4494 53.3701 66.4494 53.4501V64.59C66.4494 64.59 66.4294 64.67 66.3994 64.7C66.3694 64.73 66.3294 64.74 66.2794 64.74C66.2694 64.74 64.8994 64.6101 63.0294 64.7901C61.3094 64.9501 58.7994 65.42 56.6094 66.7C56.5894 66.71 56.5594 66.7201 56.5294 66.7201L56.5394 66.71Z" fill="#D3981C"/>
<path d="M56.5496 70.53L57.2096 71.88L58.6996 72.1L57.6196 73.15L57.8797 74.63L56.5496 73.93L55.2096 74.63L55.4697 73.15L54.3896 72.1L55.8797 71.88L56.5496 70.53Z" fill="white"/>
<path d="M62.5096 70.53L63.1796 71.88L64.6696 72.1L63.5896 73.15L63.8396 74.63L62.5096 73.93L61.1796 74.63L61.4296 73.15L60.3496 72.1L61.8396 71.88L62.5096 70.53Z" fill="white"/>
<path d="M50.4793 70.53L51.1393 71.88L52.6293 72.1L51.5493 73.15L51.8093 74.63L50.4793 73.93L49.1393 74.63L49.3993 73.15L48.3193 72.1L49.8093 71.88L50.4793 70.53Z" fill="white"/>
<path d="M30.8496 38.2201V38.0601H32.8596V38.2201H32.6496C32.4296 38.2201 32.2496 38.31 32.1296 38.5C32.0696 38.59 32.0396 38.79 32.0396 39.1V41.41C32.0396 41.98 31.9796 42.4201 31.8696 42.7401C31.7996 42.9401 31.6896 43.12 31.5596 43.26C31.4296 43.4 31.2696 43.5201 31.0896 43.6101C30.9096 43.7001 30.7196 43.7701 30.5096 43.8101C30.2996 43.8501 30.0796 43.87 29.8496 43.87C29.2296 43.87 28.7596 43.76 28.4396 43.55C28.2396 43.42 28.0796 43.27 27.9696 43.12C27.8596 42.97 27.7796 42.8101 27.7296 42.6301C27.6796 42.4501 27.6496 42.25 27.6396 42.03C27.6396 41.81 27.6296 41.56 27.6296 41.28V39.0601C27.6296 38.8801 27.6196 38.7401 27.5896 38.6301C27.5696 38.5201 27.5296 38.43 27.4796 38.37C27.4296 38.31 27.3696 38.2701 27.2896 38.2401C27.2096 38.2201 27.1196 38.21 27.0196 38.21H26.8096V38.05H29.2696V38.21H29.0496C28.9196 38.21 28.8096 38.2301 28.7296 38.2701C28.6496 38.3101 28.5896 38.36 28.5496 38.44C28.5096 38.51 28.4796 38.6 28.4696 38.71C28.4596 38.82 28.4496 38.94 28.4496 39.07V41.55C28.4496 41.69 28.4496 41.83 28.4596 41.96C28.4596 42.1 28.4896 42.2301 28.5096 42.3601C28.5396 42.4901 28.5696 42.6101 28.6096 42.7201C28.6496 42.8301 28.7096 42.94 28.7796 43.03C28.8896 43.18 29.0296 43.3 29.2196 43.39C29.3996 43.48 29.6396 43.5201 29.9196 43.5201C30.0996 43.5201 30.2796 43.5 30.4496 43.46C30.6196 43.42 30.7696 43.36 30.9196 43.28C31.0596 43.2 31.1796 43.11 31.2896 43.01C31.3896 42.91 31.4696 42.79 31.5196 42.66C31.6296 42.41 31.6796 41.98 31.6796 41.37V39.07C31.6796 38.71 31.6396 38.4901 31.5596 38.4001C31.4496 38.2801 31.2896 38.2201 31.0696 38.2201H30.8596H30.8496Z" fill="#121B3C"/>
<path d="M33.6995 38.0601H35.2395L38.7095 42.32V39.0401C38.7095 38.6901 38.6695 38.47 38.5895 38.39C38.4795 38.27 38.3195 38.21 38.0995 38.21H37.8995V38.05H39.8795V38.21H39.6795C39.4395 38.21 39.2695 38.28 39.1695 38.43C39.1095 38.52 39.0795 38.7201 39.0795 39.0401V43.8301H38.9295L35.1795 39.25V42.75C35.1795 43.1 35.2195 43.3201 35.2895 43.4001C35.3895 43.5201 35.5595 43.5801 35.7795 43.5801H35.9795V43.7401H33.9995V43.5801H34.1995C34.4395 43.5801 34.6095 43.5101 34.7195 43.3601C34.7795 43.2701 34.8095 43.07 34.8095 42.75V38.8C34.7295 38.7 34.6595 38.62 34.5995 38.57C34.5395 38.51 34.4895 38.46 34.4395 38.43C34.3895 38.39 34.3395 38.36 34.2795 38.34C34.2195 38.32 34.1495 38.29 34.0595 38.26C33.9795 38.23 33.8595 38.2201 33.6895 38.2201V38.0601H33.6995Z" fill="#121B3C"/>
<path d="M43.5191 43.59V43.75H41.0791V43.59H41.2791C41.5191 43.59 41.6891 43.52 41.7891 43.38C41.8591 43.29 41.8891 43.08 41.8891 42.73V39.06C41.8891 38.93 41.8891 38.82 41.8891 38.73C41.8891 38.65 41.8691 38.58 41.8591 38.52C41.8391 38.47 41.8191 38.42 41.7891 38.39C41.7591 38.36 41.7191 38.33 41.6691 38.3C41.5491 38.23 41.4191 38.2 41.2791 38.2H41.0791V38.04H43.5191V38.2H43.3091C43.0791 38.2 42.9091 38.27 42.7991 38.41C42.7291 38.5 42.6991 38.71 42.6991 39.06V42.73C42.6991 42.86 42.6991 42.97 42.6991 43.06C42.6991 43.14 42.7191 43.21 42.7291 43.27C42.7491 43.32 42.7691 43.37 42.7991 43.4C42.8291 43.43 42.8691 43.46 42.9191 43.49C43.0391 43.56 43.1691 43.59 43.2991 43.59H43.5091H43.5191Z" fill="#121B3C"/>
<path d="M50.6792 38.0598V38.2198C50.5592 38.2398 50.4592 38.2698 50.3692 38.3198C50.2792 38.3598 50.2092 38.4198 50.1492 38.4798C50.0892 38.5498 50.0292 38.6298 49.9792 38.7198C49.9292 38.8098 49.8792 38.9198 49.8292 39.0398L47.8492 43.8798H47.6892L45.5592 38.9798C45.4492 38.7198 45.3692 38.5698 45.3292 38.5198C45.2592 38.4298 45.1692 38.3698 45.0692 38.3198C44.9692 38.2698 44.8292 38.2398 44.6592 38.2298V38.0698H46.9792V38.2298C46.8492 38.2398 46.7392 38.2598 46.6592 38.2798C46.5792 38.2998 46.5092 38.3298 46.4692 38.3598C46.4292 38.3898 46.3992 38.4298 46.3792 38.4698C46.3592 38.5098 46.3592 38.5598 46.3592 38.6098C46.3592 38.7498 46.4192 38.9698 46.5492 39.2598L47.9992 42.5898L49.3392 39.2998C49.4692 38.9698 49.5392 38.7498 49.5392 38.6298C49.5392 38.5398 49.4892 38.4598 49.3992 38.3798C49.3092 38.2998 49.1492 38.2498 48.9292 38.2198V38.0598H50.6792Z" fill="#121B3C"/>
<path d="M53.4398 38.3698V40.6198H54.6898C54.8698 40.6198 55.0198 40.5998 55.1298 40.5698C55.2398 40.5398 55.3298 40.4898 55.3998 40.4198C55.4598 40.3498 55.5098 40.2698 55.5298 40.1598C55.5598 40.0598 55.5698 39.9298 55.5798 39.7898H55.7398V41.7698H55.5798C55.5598 41.6298 55.5398 41.5198 55.5198 41.4298C55.4998 41.3398 55.4798 41.2798 55.4598 41.2398C55.4298 41.1898 55.3998 41.1498 55.3598 41.1098C55.3198 41.0698 55.2698 41.0398 55.2098 41.0098C55.1498 40.9798 55.0698 40.9598 54.9898 40.9498C54.9098 40.9398 54.7998 40.9298 54.6798 40.9298H53.4298V42.7998C53.4298 43.0498 53.4398 43.1998 53.4598 43.2598C53.4698 43.2898 53.4898 43.3098 53.4998 43.3298C53.5198 43.3498 53.5398 43.3698 53.5698 43.3898C53.5998 43.4098 53.6398 43.4198 53.6998 43.4298C53.7498 43.4298 53.8198 43.4398 53.8898 43.4398H54.8498C55.0098 43.4398 55.1498 43.4398 55.2598 43.4298C55.3698 43.4298 55.4698 43.3998 55.5498 43.3798C55.6298 43.3598 55.7098 43.3198 55.7698 43.2798C55.8298 43.2398 55.8998 43.1798 55.9698 43.1098C56.0598 43.0298 56.1398 42.9198 56.2298 42.7898C56.3198 42.6598 56.4098 42.5098 56.4998 42.3298H56.6698L56.1798 43.7598H51.7998V43.5998H51.9998C52.0498 43.5998 52.1098 43.5998 52.1698 43.5798C52.2298 43.5698 52.2798 43.5498 52.3398 43.5298C52.3998 43.5098 52.4398 43.4698 52.4798 43.4398C52.5198 43.3998 52.5498 43.3598 52.5698 43.3098C52.5998 43.2198 52.6198 43.0398 52.6198 42.7598V39.0698C52.6198 38.7098 52.5798 38.4898 52.5098 38.3998C52.4098 38.2898 52.2398 38.2298 52.0098 38.2298H51.8098V38.0698H56.1898V39.3098H56.0898C56.0598 39.1598 56.0298 39.0298 55.9998 38.9398C55.9698 38.8398 55.9298 38.7598 55.8998 38.6998C55.8598 38.6398 55.8198 38.5798 55.7698 38.5498C55.7198 38.5098 55.6598 38.4798 55.5898 38.4498C55.4798 38.4098 55.2798 38.3898 54.9998 38.3898H53.4398V38.3698Z" fill="#121B3C"/>
<path d="M63.5494 43.7401H62.0294L60.1094 41.0801C60.0394 41.0801 59.9694 41.0801 59.9194 41.0801C59.8594 41.0801 59.8094 41.0801 59.7694 41.0801C59.7294 41.0801 59.6894 41.0801 59.6494 41.0801C59.6094 41.0801 59.5594 41.0801 59.5194 41.0801V42.73C59.5194 43.09 59.5594 43.3101 59.6394 43.4001C59.7494 43.5201 59.9094 43.5801 60.1194 43.5801H60.3394V43.7401H57.8994V43.5801H58.1094C58.3494 43.5801 58.5194 43.5 58.6294 43.35C58.6894 43.26 58.7194 43.06 58.7194 42.73V39.0601C58.7194 38.7001 58.6794 38.48 58.5994 38.39C58.4894 38.27 58.3294 38.21 58.1094 38.21H57.8994V38.05H59.9694C60.5694 38.05 61.0094 38.09 61.2994 38.18C61.4394 38.22 61.5794 38.28 61.6994 38.37C61.8194 38.46 61.9294 38.55 62.0294 38.67C62.1194 38.78 62.1994 38.9101 62.2494 39.0601C62.2994 39.2001 62.3294 39.3501 62.3294 39.5201C62.3294 39.7001 62.2994 39.86 62.2494 40.01C62.1894 40.16 62.1094 40.3 61.9894 40.43C61.8694 40.5601 61.7294 40.66 61.5494 40.76C61.3694 40.85 61.1694 40.92 60.9294 40.98L62.0994 42.6101C62.3694 42.9901 62.5994 43.2401 62.7894 43.3601C62.9894 43.4801 63.2394 43.56 63.5394 43.59V43.75L63.5494 43.7401ZM59.5094 40.82C59.5594 40.82 59.6094 40.82 59.6494 40.82C59.6894 40.82 59.7194 40.82 59.7494 40.82C60.0194 40.82 60.2594 40.79 60.4594 40.73C60.6594 40.67 60.8394 40.5801 60.9694 40.4701C61.1094 40.3601 61.2094 40.23 61.2794 40.07C61.3494 39.92 61.3794 39.75 61.3794 39.57C61.3794 39.39 61.3494 39.23 61.2894 39.09C61.2294 38.94 61.1494 38.82 61.0394 38.71C60.9294 38.6 60.7994 38.52 60.6494 38.46C60.4994 38.4 60.3394 38.37 60.1594 38.37C60.0794 38.37 59.9794 38.37 59.8794 38.39C59.7694 38.4 59.6494 38.4201 59.5094 38.4501V40.8101V40.82Z" fill="#121B3C"/>
<path d="M68.2696 37.9299V39.8999H68.1096C68.0596 39.5199 67.9696 39.2199 67.8396 38.9999C67.7796 38.8899 67.6996 38.7899 67.5996 38.6999C67.4996 38.6099 67.3996 38.5299 67.2896 38.4699C67.1797 38.4099 67.0596 38.3599 66.9296 38.3199C66.7996 38.2899 66.6797 38.2699 66.5497 38.2699C66.4097 38.2699 66.2697 38.2899 66.1497 38.3399C66.0297 38.3899 65.9197 38.4499 65.8297 38.5299C65.7397 38.6099 65.6697 38.6999 65.6197 38.8099C65.5697 38.9099 65.5396 39.0199 65.5396 39.1299C65.5396 39.2899 65.5797 39.4199 65.6497 39.5399C65.7197 39.6599 65.8196 39.7599 65.9496 39.8599C66.0796 39.9599 66.2297 40.0499 66.3997 40.1499C66.5697 40.2399 66.7596 40.3399 66.9596 40.4499C67.1896 40.5699 67.3996 40.6899 67.6096 40.7999C67.8096 40.9099 67.9897 41.0399 68.1497 41.1799C68.3097 41.3199 68.4296 41.4799 68.5196 41.6499C68.6096 41.8299 68.6597 42.0399 68.6597 42.2899C68.6597 42.4999 68.6196 42.6999 68.5296 42.8999C68.4396 43.0899 68.3197 43.2599 68.1597 43.3999C67.9997 43.5399 67.8096 43.6599 67.5896 43.7399C67.3696 43.8299 67.1297 43.8699 66.8697 43.8699C66.7697 43.8699 66.6897 43.8699 66.6197 43.8699C66.5497 43.8699 66.4796 43.8699 66.4196 43.8499C66.3596 43.8499 66.2897 43.8199 66.2197 43.7999C66.1497 43.7799 66.0697 43.7499 65.9697 43.7099C65.8997 43.6799 65.8297 43.6599 65.7597 43.6399C65.6897 43.6199 65.6296 43.5999 65.5696 43.5899C65.5096 43.5799 65.4596 43.5599 65.4196 43.5599C65.3796 43.5599 65.3496 43.5499 65.3396 43.5499C65.2696 43.5499 65.2196 43.5699 65.1696 43.6099C65.1196 43.6499 65.0997 43.7399 65.0797 43.8699H64.9196V41.9199H65.0797C65.1197 42.1199 65.1596 42.2999 65.2096 42.4499C65.2596 42.5999 65.3096 42.7299 65.3796 42.8299C65.4396 42.9299 65.5197 43.0199 65.6197 43.1099C65.7197 43.1999 65.8296 43.2699 65.9496 43.3299C66.0696 43.3899 66.1996 43.4399 66.3396 43.4799C66.4796 43.5199 66.6296 43.5299 66.7696 43.5299C66.9496 43.5299 67.0996 43.4999 67.2396 43.4499C67.3796 43.3999 67.4996 43.3299 67.5996 43.2499C67.6996 43.1599 67.7696 43.0699 67.8196 42.9499C67.8696 42.8399 67.8997 42.7199 67.8997 42.5999C67.8997 42.4199 67.8596 42.2699 67.7896 42.1399C67.7097 42.0199 67.6096 41.8999 67.4896 41.8099C67.3596 41.7099 67.2097 41.6199 67.0497 41.5299C66.8797 41.4399 66.6996 41.3399 66.5196 41.2299C66.3096 41.0999 66.0997 40.9799 65.9097 40.8699C65.7097 40.7599 65.5396 40.6299 65.3896 40.4999C65.2396 40.3699 65.1196 40.2099 65.0296 40.0399C64.9396 39.8699 64.8896 39.6599 64.8896 39.4199C64.8896 39.2199 64.9296 39.0299 65.0196 38.8499C65.0996 38.6699 65.2197 38.5099 65.3697 38.3699C65.5197 38.2299 65.6897 38.1199 65.8997 38.0499C66.0997 37.9699 66.3196 37.9299 66.5596 37.9299C66.8596 37.9299 67.1796 37.9999 67.5196 38.1499C67.6696 38.2199 67.7796 38.2499 67.8496 38.2499C67.9196 38.2499 67.9796 38.2299 68.0296 38.1899C68.0796 38.1499 68.1096 38.0599 68.1396 37.9299H68.2997H68.2696Z" fill="#121B3C"/>
<path d="M72.6099 43.59V43.75H70.1699V43.59H70.3699C70.6099 43.59 70.7799 43.52 70.8799 43.38C70.9499 43.29 70.9799 43.08 70.9799 42.73V39.06C70.9799 38.93 70.9799 38.82 70.9799 38.73C70.9799 38.65 70.9599 38.58 70.9499 38.52C70.9299 38.47 70.9099 38.42 70.8799 38.39C70.8499 38.36 70.8099 38.33 70.7599 38.3C70.6399 38.23 70.5099 38.2 70.3699 38.2H70.1699V38.04H72.6099V38.2H72.3999C72.1699 38.2 71.9999 38.27 71.8899 38.41C71.8199 38.5 71.7899 38.71 71.7899 39.06V42.73C71.7899 42.86 71.7899 42.97 71.7899 43.06C71.7899 43.14 71.8099 43.21 71.8199 43.27C71.8399 43.32 71.8599 43.37 71.8899 43.4C71.9199 43.43 71.9599 43.46 72.0099 43.49C72.1299 43.56 72.2599 43.59 72.3899 43.59H72.5999H72.6099Z" fill="#121B3C"/>
<path d="M78.6497 38.0598V39.3898H78.5497C78.5297 39.2098 78.4897 39.0598 78.4397 38.9398C78.3897 38.8198 78.3197 38.7198 78.2397 38.6398C78.1597 38.5598 78.0497 38.5098 77.9297 38.4698C77.8097 38.4398 77.6697 38.4198 77.5097 38.4198H76.7097V42.7598C76.7097 43.1098 76.7497 43.3298 76.8197 43.4098C76.9197 43.5298 77.0897 43.5898 77.3097 43.5898H77.5097V43.7498H75.0997V43.5898H75.2997C75.5397 43.5898 75.7097 43.5198 75.8097 43.3698C75.8697 43.2798 75.8997 43.0798 75.8997 42.7598V38.4198H75.2197C75.0497 38.4198 74.8997 38.4298 74.7697 38.4598C74.6397 38.4898 74.5297 38.5298 74.4397 38.5998C74.3497 38.6698 74.2797 38.7698 74.2197 38.8998C74.1597 39.0298 74.1197 39.1898 74.0897 39.3998H73.9297V38.0698H78.6397L78.6497 38.0598Z" fill="#121B3C"/>
<path d="M83.8691 38.0598H85.8491V38.2198H85.7391C85.7391 38.2198 85.6591 38.2198 85.5991 38.2498C85.5391 38.2698 85.4791 38.2898 85.4191 38.3198C85.3591 38.3498 85.2891 38.3898 85.2191 38.4398C85.1491 38.4898 85.0891 38.5398 85.0391 38.5998C84.9791 38.6598 84.9191 38.7398 84.8491 38.8398C84.7791 38.9398 84.6991 39.0498 84.6191 39.1898L83.2491 41.3498V42.7798C83.2491 43.1298 83.2891 43.3498 83.3691 43.4298C83.4691 43.5498 83.6391 43.6098 83.8691 43.6098H84.0491V43.7698H81.6391V43.6098H81.8391C82.0791 43.6098 82.2491 43.5398 82.3491 43.3898C82.4091 43.2998 82.4391 43.0998 82.4391 42.7798V41.4298L80.8791 39.0498C80.7891 38.9098 80.7091 38.7898 80.6491 38.7098C80.5891 38.6198 80.5391 38.5598 80.5091 38.5298C80.4891 38.5098 80.4691 38.4898 80.4291 38.4598C80.3891 38.4298 80.3391 38.3998 80.2791 38.3598C80.2191 38.3298 80.1591 38.2998 80.0891 38.2698C80.0191 38.2498 79.9391 38.2298 79.8691 38.2298V38.0698H82.2991V38.2298H82.1691C82.1091 38.2298 82.0491 38.2298 81.9791 38.2498C81.9191 38.2598 81.8591 38.2898 81.8091 38.3198C81.7591 38.3498 81.7191 38.3898 81.6891 38.4398C81.6591 38.4898 81.6391 38.5398 81.6391 38.6098C81.6391 38.7098 81.7291 38.8898 81.8991 39.1498L83.0891 40.9798L84.1991 39.2298C84.3691 38.9698 84.4491 38.7698 84.4491 38.6398C84.4491 38.5798 84.4291 38.5298 84.4091 38.4798C84.3891 38.4298 84.3591 38.3898 84.3191 38.3498C84.2791 38.3098 84.2191 38.2898 84.1491 38.2698C84.0791 38.2498 83.9891 38.2398 83.8791 38.2398V38.0798L83.8691 38.0598Z" fill="#121B3C"/>
<path d="M55.9191 12.96H24.6191V34.56H55.9191V12.96Z" fill="#D3981C"/>
<path d="M48.5196 22.91L48.5296 23.05L49.1297 22.79L39.7496 18.46L30.1396 22.67L39.5096 27L47.8596 23.35L40.7096 23.23V23.12L48.2096 23.23L48.3097 28.14L47.8896 28.8H48.9096L48.5096 28.08L48.5196 22.91Z" fill="#121B3C"/>
<path d="M44.1995 25.2699V30.1199L43.5795 30.1899C40.7995 30.5099 37.9795 30.5299 35.1995 30.2199L34.2295 30.1099V24.8799L39.5095 27.3199L44.1995 25.2699Z" fill="#121B3C"/>
</svg>
