<svg width="22" height="22" viewBox="0 0 22 22" fill="none" xmlns="http://www.w3.org/2000/svg">
<path d="M11 0C4.93535 0 0 4.93536 0 11C0 17.0646 4.93535 22 11 22C17.0646 22 22 17.0646 22 11C22 4.93536 17.0646 0 11 0ZM11.5228 16.5314V11.5228H16.5209C16.4686 13.3108 16.1445 15.0466 15.5903 16.5314H11.5228ZM14.4924 20.3165C15.1825 19.5951 15.789 18.654 16.27 17.5665H18.4658C17.3783 18.8004 16.019 19.7414 14.4924 20.3165ZM11.5228 20.9126V17.577H15.1407C14.2101 19.4696 12.903 20.6721 11.5228 20.9126ZM16.27 4.42301C15.789 3.33556 15.1721 2.39449 14.4924 1.673C16.019 2.2481 17.3783 3.18917 18.4658 4.42301H16.27ZM11.5228 4.42301V1.08745C12.903 1.32795 14.2101 2.53042 15.1407 4.42301H11.5228ZM11.5228 10.4772V5.46864H15.5903C16.1445 6.96388 16.4686 8.68916 16.5209 10.4772H11.5228ZM20.9439 11.5228C20.8498 13.3108 20.2747 15.0466 19.2814 16.5314H16.6987C17.232 15.0152 17.5352 13.2899 17.577 11.5228H20.9544H20.9439ZM20.9439 10.4772H17.5665C17.5143 8.71008 17.211 6.9848 16.6882 5.46864H19.2709C20.2747 6.95343 20.8498 8.68916 20.9335 10.4772H20.9439ZM5.32224 16.5314H2.73954C1.73574 15.0466 1.1711 13.3108 1.077 11.5228H4.45436C4.50664 13.2899 4.8099 15.0152 5.33271 16.5314H5.32224ZM1.06653 10.4772C1.16064 8.68916 1.73573 6.95343 2.72907 5.46864H5.31178C4.77851 6.9848 4.47528 8.71008 4.43345 10.4772H1.05606H1.06653ZM5.73002 17.577C6.21101 18.6645 6.82795 19.6055 7.5076 20.327C5.98099 19.7519 4.62168 18.8108 3.53423 17.577H5.73002ZM10.4877 17.577V20.9126C9.10742 20.6721 7.8004 19.4696 6.86979 17.577H10.4877ZM10.4877 11.5228V16.5314H6.42014C5.86596 15.0361 5.54183 13.3108 5.48955 11.5228H10.4877ZM3.53423 4.42301C4.62168 3.18917 5.98099 2.2481 7.5076 1.673C6.81749 2.39449 6.21101 3.33556 5.73002 4.42301H3.53423ZM10.4877 5.46864V10.4772H5.48955C5.54183 8.68916 5.86596 6.95343 6.42014 5.46864H10.4877ZM10.4877 1.09791V4.43346H6.86979C7.8004 2.54087 9.10742 1.33841 10.4877 1.09791Z" fill="white"/>
</svg>
