<?xml version="1.0" encoding="UTF-8"?>
<svg id="_圖層_1" data-name="圖層 1" xmlns="http://www.w3.org/2000/svg" viewBox="0 0 35.83 32.07">
  <defs>
    <style>
      .cls-1 {
        fill: #cdcdcd;
      }
    </style>
  </defs>
  <path class="cls-1" d="M17.91,32.07c-.29,0-.59-.1-.83-.3-.34-.29-.75-.64-1.2-1.03C10.94,26.49,2.4,18.8.84,15-1.4,9.57,1.01,3.24,6.22.88,10.28-.95,14.99.15,17.91,3.46,20.84.15,25.55-.95,29.61.88c5.21,2.35,7.62,8.69,5.39,14.12h0c-1.49,3.61-9.01,10.55-15.05,15.74-.45.39-.85.73-1.2,1.02-.24.2-.53.31-.83.31ZM10.3,2.22c-1.07,0-2.15.22-3.17.68C3,4.77,1.09,9.82,2.88,14.16c1,2.43,6.4,8,14.44,14.91.21.18.4.34.59.5.18-.16.38-.32.58-.5,8.05-6.91,13.45-12.48,14.45-14.91,1.79-4.34-.12-9.39-4.25-11.26-3.5-1.58-7.62-.35-9.81,2.91-.22.33-.58.52-.97.52h0c-.39,0-.76-.19-.97-.52-1.55-2.31-4.06-3.6-6.64-3.6Z"/>
</svg>