<svg xmlns="http://www.w3.org/2000/svg" xmlns:xlink="http://www.w3.org/1999/xlink" width="48" height="38" viewBox="0 0 48 38">
  <defs>
    <clipPath id="clip-path">
      <rect id="Rectangle_785" data-name="Rectangle 785" width="48" height="38" transform="translate(732 1288)" fill="#ccc" stroke="#707070" stroke-width="1"/>
    </clipPath>
  </defs>
  <g id="Mask_Group_77" data-name="Mask Group 77" transform="translate(-732 -1288)" clip-path="url(#clip-path)">
    <g id="target" transform="translate(736.708 1287.962)">
      <path id="Path_496" data-name="Path 496" d="M37.673,17.79a3.5,3.5,0,0,0-2.156-.9,3.086,3.086,0,0,0-2.371.9l-4.29,4.245a2.848,2.848,0,0,0-.29-.414,2.781,2.781,0,0,0-2.173-.972H20.387a12.318,12.318,0,0,1-3.283-.436,8.079,8.079,0,0,0-7.536,1.595A10.961,10.961,0,0,0,7.6,23.914L6.527,22.869A.766.766,0,0,0,6,22.653H5.991a.767.767,0,0,0-.544.234L.212,28.321A.76.76,0,0,0,.236,29.4l8.854,8.431a.759.759,0,0,0,1.067-.02l5.186-5.321a.763.763,0,0,0-.015-1.08l-.452-.438,1.034-.116a16.426,16.426,0,0,1,1.89-.11h9.138a6.86,6.86,0,0,0,3.749-.965l.025-.016a5.058,5.058,0,0,0,.968-.879l6.158-7.244A2.651,2.651,0,0,0,37.673,17.79ZM9.593,36.212,1.835,28.825l4.179-4.339,7.713,7.484ZM36.68,20.656,30.523,27.9a3.548,3.548,0,0,1-.666.607,5.4,5.4,0,0,1-2.918.719H17.8a17.922,17.922,0,0,0-2.063.12l-2.272.255L8.708,24.984a9.467,9.467,0,0,1,1.819-2A6.534,6.534,0,0,1,16.7,21.675a13.834,13.834,0,0,0,3.688.491h6.006a1.371,1.371,0,0,1,1.366,1.486,1.644,1.644,0,0,1-.355,1.053,1.29,1.29,0,0,1-1.035.434H21.141a.759.759,0,0,0,0,1.518h5.228a2.815,2.815,0,0,0,2.192-.97,3.117,3.117,0,0,0,.715-1.934l4.941-4.889a1.777,1.777,0,0,1,2.427.04A1.143,1.143,0,0,1,36.68,20.656Zm0,0" fill="#ccc"/>
      <path id="Path_497" data-name="Path 497" d="M18.773,25.7a.759.759,0,1,0-1.478.346l.007.031a.759.759,0,0,0,.738.586.768.768,0,0,0,.174-.02.759.759,0,0,0,.566-.912Zm0,0" fill="#ccc"/>
      <path id="Path_498" data-name="Path 498" d="M5.13,16.052h7.4A1.826,1.826,0,0,0,13.6,15.7a1.826,1.826,0,0,0,1.079.351h7.4a1.826,1.826,0,0,0,1.079-.351,1.826,1.826,0,0,0,1.079.351h7.4a1.84,1.84,0,0,0,1.837-1.838V10.765a3.98,3.98,0,0,0-2.165-3.558,4.378,4.378,0,1,0-6.742,0,3.976,3.976,0,0,0-1.406,1.205,3.968,3.968,0,0,0-1.406-1.205,4.378,4.378,0,1,0-6.741,0A3.968,3.968,0,0,0,13.6,8.412,3.972,3.972,0,0,0,12.2,7.207a4.378,4.378,0,1,0-6.741,0,3.98,3.98,0,0,0-2.165,3.558v3.449A1.84,1.84,0,0,0,5.13,16.052Zm22.8-14.5a2.86,2.86,0,1,1-2.86,2.86A2.863,2.863,0,0,1,27.935,1.556ZM25.963,8.323a4.363,4.363,0,0,0,3.943,0,2.466,2.466,0,0,1,2.046,2.442v3.449a.32.32,0,0,1-.32.32h-7.4a.32.32,0,0,1-.319-.32V10.765A2.466,2.466,0,0,1,25.963,8.323ZM18.382,1.556a2.86,2.86,0,1,1-2.86,2.86A2.863,2.863,0,0,1,18.382,1.556ZM16.41,8.323a4.363,4.363,0,0,0,3.943,0A2.466,2.466,0,0,1,22.4,10.765v3.449a.32.32,0,0,1-.32.32h-7.4a.32.32,0,0,1-.32-.32V10.765A2.467,2.467,0,0,1,16.41,8.323ZM8.828,1.556a2.86,2.86,0,1,1-2.86,2.86A2.863,2.863,0,0,1,8.828,1.556ZM4.811,10.765A2.467,2.467,0,0,1,6.857,8.323a4.363,4.363,0,0,0,3.943,0,2.466,2.466,0,0,1,2.046,2.442v3.449a.32.32,0,0,1-.32.32H5.13a.32.32,0,0,1-.32-.32Zm0,0" fill="#ccc"/>
    </g>
  </g>
</svg>
