<svg xmlns="http://www.w3.org/2000/svg" xmlns:xlink="http://www.w3.org/1999/xlink" width="48" height="38" viewBox="0 0 48 38">
  <defs>
    <clipPath id="clip-path">
      <rect id="Rectangle_784" data-name="Rectangle 784" width="48" height="38" transform="translate(573 1288)" fill="#ccc" stroke="#707070" stroke-width="1"/>
    </clipPath>
  </defs>
  <g id="Mask_Group_76" data-name="Mask Group 76" transform="translate(-573 -1288)" clip-path="url(#clip-path)">
    <g id="refresh" transform="translate(578 1288)">
      <path id="Path_494" data-name="Path 494" d="M4.564,20.752A15.034,15.034,0,0,1,4.453,19,14.486,14.486,0,0,1,28.76,8.29L27.476,9.6a1.138,1.138,0,0,0-.289,1.113,1.165,1.165,0,0,0,.846.757c.224.045,7.586,2.417,7.117,2.323a1.126,1.126,0,0,0,1.314-1.314c-.045-.224-1.675-8.4-1.581-7.934a1.1,1.1,0,0,0-1.87-.557L31.922,5.054A19.013,19.013,0,0,0,0,19v.044c0,.628.029,1.113.062,1.484a1.113,1.113,0,0,0,.891.992l2.287.457A1.114,1.114,0,0,0,4.564,20.752Zm0,0" fill="#ccc"/>
      <path id="Path_495" data-name="Path 495" d="M37.054,16.479l-2.294-.467a1.114,1.114,0,0,0-1.328,1.226A15.155,15.155,0,0,1,33.547,19,14.469,14.469,0,0,1,9.24,29.688L10.524,28.4a1.138,1.138,0,0,0,.289-1.113,1.164,1.164,0,0,0-.846-.757c-.224-.045-7.586-2.417-7.117-2.323a1.091,1.091,0,0,0-1,.312,1.109,1.109,0,0,0-.312,1l1.581,7.86a1.115,1.115,0,0,0,.779.846,1.069,1.069,0,0,0,1.091-.289l1.069-1.069A18.971,18.971,0,0,0,38,19v-.067c0-.493-.018-.978-.059-1.459A1.113,1.113,0,0,0,37.054,16.479Zm0,0" fill="#ccc"/>
    </g>
  </g>
</svg>
