<svg id="圖層_1" data-name="圖層 1" xmlns="http://www.w3.org/2000/svg" viewBox="0 0 30 30"><defs><style>.cls-1{fill:#040000;}</style></defs><path class="cls-1" d="M15,28l-.33-.19C12.25,26.34.25,18.9.25,9.73A7.69,7.69,0,0,1,2.57,4.27,7.91,7.91,0,0,1,8.12,2a7.74,7.74,0,0,1,6.94,4.45A7.74,7.74,0,0,1,29.75,9.71c0,9.19-12,16.65-14.42,18ZM8,3.4A6.41,6.41,0,0,0,1.61,9.73c0,8.18,11,15.26,13.43,16.65,2.42-1.46,13.43-8.54,13.43-16.65A6.41,6.41,0,0,0,16,7.9a.94.94,0,0,1-1.16.63.89.89,0,0,1-.63-.63A6.35,6.35,0,0,0,8.06,3.4Z"/></svg>