<svg id="圖層_1" data-name="圖層 1" xmlns="http://www.w3.org/2000/svg" viewBox="0 0 30 30"><defs><style>.cls-1{fill:#040000;}</style></defs><path class="cls-1" d="M15,7.31A7.69,7.69,0,1,0,22.69,15,7.68,7.68,0,0,0,15,7.31ZM15,20a5,5,0,1,1,5-5,5,5,0,0,1-5,5ZM24.8,7A1.8,1.8,0,1,1,23,5.2,1.79,1.79,0,0,1,24.8,7Zm5.09,1.82a8.85,8.85,0,0,0-2.42-6.29A8.93,8.93,0,0,0,21.19.11C18.71,0,11.29,0,8.81.11A8.91,8.91,0,0,0,2.53,2.52,8.93,8.93,0,0,0,.11,8.81C0,11.29,0,18.71.11,21.18a8.85,8.85,0,0,0,2.42,6.29,9,9,0,0,0,6.28,2.42c2.48.14,9.9.14,12.38,0a8.85,8.85,0,0,0,6.28-2.42,8.9,8.9,0,0,0,2.42-6.29c.15-2.47.15-9.89,0-12.36Zm-3.19,15a5.1,5.1,0,0,1-2.86,2.85c-2,.79-6.65.6-8.84.6s-6.87.18-8.84-.6a5.06,5.06,0,0,1-2.85-2.85c-.78-2-.6-6.66-.6-8.84s-.18-6.87.6-8.84A5.06,5.06,0,0,1,6.16,3.31c2-.79,6.66-.6,8.84-.6s6.88-.18,8.84.6A5,5,0,0,1,26.7,6.16c.78,2,.6,6.66.6,8.84S27.48,21.87,26.7,23.84Z"/></svg>