<svg id="圖層_1" data-name="圖層 1" xmlns="http://www.w3.org/2000/svg" viewBox="0 0 30 30"><defs><style>.cls-1{fill:#040000;}</style></defs><path class="cls-1" d="M24.21,12.33a.79.79,0,0,1,0,1.57H22v1.41h2.2a.79.79,0,0,1,0,1.57h-3a.78.78,0,0,1-.78-.78v-6a.78.78,0,0,1,.79-.78h3a.79.79,0,0,1,0,1.57H22v1.41ZM19.39,16.1a.78.78,0,0,1-.79.78h0a.77.77,0,0,1-.64-.31l-3.05-4.15V16.1a.79.79,0,0,1-1.57,0h0v-6a.78.78,0,0,1,.54-.74.64.64,0,0,1,.24,0,.81.81,0,0,1,.62.32l3.07,4.16v-3.7a.79.79,0,0,1,1.58,0v6Zm-7.18,0a.79.79,0,1,1-1.57,0v-6a.79.79,0,0,1,1.57,0v6Zm-3.08.78h-3a.78.78,0,0,1-.79-.78v-6a.79.79,0,0,1,1.57,0v5.18h2.2a.79.79,0,1,1,0,1.57Zm20.87-4C30,6.18,23.27.71,15,.71S0,6.18,0,12.89c0,6,5.34,11.05,12.54,12,.49.1,1.16.33,1.33.74a2.93,2.93,0,0,1,0,1.35l-.2,1.28c-.06.37-.3,1.48,1.31.8s8.65-5.1,11.8-8.72A10.79,10.79,0,0,0,30,12.89Z"/></svg>