<svg id="圖層_1" data-name="圖層 1" xmlns="http://www.w3.org/2000/svg" viewBox="0 0 30 30"><defs><style>.cls-1{fill:none;}.cls-2{fill:#040000;}</style></defs><path class="cls-1" d="M18.73,17.49c.51.41,1.12.71,1.73,1.12.21.1.41,0,.61,0a15.41,15.41,0,0,0,1.43-.92,1.77,1.77,0,0,0,.71-.81A.6.6,0,0,0,22.9,16c-.1-.11-.3,0-.4,0H18.63c-.4.2-.61.5-.4.91S18.53,17.29,18.73,17.49Z"/><path class="cls-1" d="M24.33,25.53h-6c-.31,0-.41.1-.41.4v1.43c0,.3.1.4.41.4H22.9c1.33,0,1.83-.51,1.94-1.93C24.84,25.63,24.73,25.53,24.33,25.53Z"/><path class="cls-1" d="M10.7,16H7.34c-.4,0-.71,0-.81.5s0,1.22.41,1.43h4.17c.51-.21.4-.61.4-1C11.62,16.17,11.31,16,10.7,16Z"/><path class="cls-2" d="M22.4,3.86H17.11c-1,0-1,0-1-1,0-.82-.1-.71.61-.71h7.73c.41,0,.51-.11.51-.51V.71c0-.71,0-.71-.61-.71h-19a.75.75,0,0,0-.2.61c0,.41-.21,1.12.1,1.42s.91.11,1.32.11h6.1c.41,0,.92-.21,1.22,0s0,.81,0,1.11,0,.51-.4.51h-6A6,6,0,0,0,1.45,9a26.39,26.39,0,0,0,0,3,.27.27,0,0,0,.3.3H3.07c.31,0,.41-.1.41-.51V9.86A3.84,3.84,0,0,1,7.24,6h6.21c.4,0,.5.1.5.51V11c0,.31.11.41.41.41h1.22c.41,0,.51-.1.51-.51V6.51c0-.31.1-.41.41-.41H23a4,4,0,0,1,3.45,4V11.9c0,.3.1.41.41.41h1.32c.31,0,.41-.11.41-.41V10.27A6.1,6.1,0,0,0,22.4,3.86Z"/><path class="cls-2" d="M7.14,11.9c.2.2.31.2.51,0a10.75,10.75,0,0,1,1.12-1.12c.2-.2.3-.2.51,0A10.75,10.75,0,0,0,10.4,11.9c.2.2.3.2.5,0a9.81,9.81,0,0,1,1-1c.2-.2.2-.3,0-.51L10.4,8.85a1.57,1.57,0,0,0-1.33-.51A1.66,1.66,0,0,0,7.65,9L6.23,10.37c-.21.21-.21.31,0,.51A9.35,9.35,0,0,0,7.14,11.9Z"/><path class="cls-2" d="M19.45,12c.2.2.3.2.5,0l1-1a.39.39,0,0,1,.61,0A11.83,11.83,0,0,0,22.7,12.1a.33.33,0,0,0,.51,0l1-1c.2-.2.2-.3,0-.5L22.7,9.05a1.54,1.54,0,0,0-1.32-.51,1.54,1.54,0,0,0-1.32.51l-1.53,1.53c-.2.2-.2.3,0,.5A8.74,8.74,0,0,1,19.45,12Z"/><path class="cls-2" d="M11.82,13.93H6.43A1.79,1.79,0,0,0,4.7,15.05a6.24,6.24,0,0,0,0,3.87c.2.71.92,1,1.63,1.22a5.83,5.83,0,0,0,1.32,0c.41,0,.51,0,.51.5v6.51a1.12,1.12,0,0,1-.1.51,2.62,2.62,0,0,1-2-2.54V23.39c0-.2-.1-.41-.3-.41H4.4c-.31,0-.31.1-.31.41v2A4.59,4.59,0,0,0,8.46,30h5c.2,0,.4-.1.3-.41V28.27c0-.3-.1-.51-.41-.41H10.8c-.3,0-.3-.1-.3-.3V25.42c0-.4.1-.5.51-.4h2.44c.3,0,.5,0,.5-.41V23.39c0-.31-.1-.41-.4-.41H11c-.21,0-.31,0-.31-.3V20.54c0-.3.1-.3.31-.3h1.11a2,2,0,0,0,2-1.93V16C13.65,14.75,12.84,13.93,11.82,13.93Zm-.71,4H6.94c-.41-.21-.51-.82-.41-1.43a.71.71,0,0,1,.81-.5H10.7c.61,0,.92.2.92.91C11.62,17.29,11.72,17.69,11.11,17.9Z"/><path class="cls-2" d="M15.89,15.86a4.27,4.27,0,0,0,1.32,3.06,15.08,15.08,0,0,0,1.32.91,4,4,0,0,1-2.13.41c-.31,0-.41.1-.41.4v1.22c0,.41.1.51.51.51a7,7,0,0,0,4-1,1.06,1.06,0,0,1,.82,0,6.83,6.83,0,0,0,4,1c.31,0,.41-.1.41-.4s0-.51,0-.82c0-.91.1-.81-.81-.81A4.12,4.12,0,0,1,23.21,20a6.09,6.09,0,0,0,1-.71,4.1,4.1,0,0,0,1.62-3.25,2,2,0,0,0-1.93-2H18A1.9,1.9,0,0,0,15.89,15.86Zm2.74.11c.1-.11.31,0,.41,0H22.9a.6.6,0,0,1,.31.91,1.77,1.77,0,0,1-.71.81c-.51.31-1,.62-1.43.92a.66.66,0,0,1-.61,0,6.18,6.18,0,0,1-1.73-1.12,1.83,1.83,0,0,1-.5-.71C18,16.37,18.12,16.17,18.63,16Z"/><path class="cls-2" d="M24.53,23.49H18a2.06,2.06,0,0,0-2.13,2.24v3.66c0,.3.1.41.4.41h6.82a3.42,3.42,0,0,0,3.45-2.75,5.3,5.3,0,0,0,0-1.32A1.93,1.93,0,0,0,24.53,23.49ZM22.9,27.86H18.33c-.31,0-.41-.1-.41-.4V26c0-.3.1-.4.41-.4h6c.3,0,.4.1.4.4C24.73,27.36,24.23,27.86,22.9,27.86Z"/></svg>