<svg id="圖層_1" data-name="圖層 1" xmlns="http://www.w3.org/2000/svg" viewBox="0 0 30 30"><defs><style>.cls-1{fill:#040000;}</style></defs><path class="cls-1" d="M20,22.5c.3-2.3-1.2-3.8-5.3-5.1-2-.7-2.9-1.5-2.9-2.7a2.74,2.74,0,0,1,3-2.3,6.38,6.38,0,0,1,3.6,1.1c.1.1.2.1.3-.1s.4-.6.5-.8.1-.2-.1-.4a12.75,12.75,0,0,0-1.2-.7,8.66,8.66,0,0,0-3.2-.6c-2.4,0-4.3,1.5-4.5,3.5-.1,1.5.6,2.6,2.2,3.5A20.48,20.48,0,0,0,15.2,19c2.2.7,3.4,1.9,3.1,3.4-.2,1.3-1.6,2.2-3.6,2.2A6.27,6.27,0,0,1,11,23.2l-.2-.2a.3.3,0,0,0-.4,0c-.1.1-.5.7-.6.8s0,.2.1.3a6.08,6.08,0,0,0,1.4,1,7.4,7.4,0,0,0,3.6.9,7.46,7.46,0,0,0,2.6-.4A3.81,3.81,0,0,0,20,22.5ZM15,1.8c-2.6,0-4.7,2.4-4.8,5.5h9.7c-.2-3.1-2.3-5.5-4.9-5.5M24.9,30H4.9a2.54,2.54,0,0,1-2.5-2.5v-.2L1.5,7.9V7.7c0-.1.1-.1.1-.2s.1-.1.2-.1.1,0,.2-.1H8.3C8.5,3.2,11.4,0,15,0s6.5,3.2,6.7,7.2h6.5c.1,0,.1.1.2.1s.1.1.1.2v.2l-1,19.5v.2A2.65,2.65,0,0,1,24.9,30Z"/></svg>