<svg id="圖層_1" data-name="圖層 1" xmlns="http://www.w3.org/2000/svg" viewBox="0 0 30 30"><defs><style>.cls-1{fill:#040000;}</style></defs><path class="cls-1" d="M21.78,13.73l.39.17A7.64,7.64,0,0,1,26,17.74a8.1,8.1,0,0,1-1.89,9C21.88,29,19.12,30,15.23,30h0c-4.39,0-7.76-1.51-10-4.39-2-2.56-3.06-6.13-3.1-10.59v0c0-4.46,1.07-8,3.09-10.59C7.45,1.51,10.82,0,15.21,0h0C19.62,0,23,1.5,25.37,4.37a13.74,13.74,0,0,1,2.54,5.1l-2.53.68a11,11,0,0,0-2-4.09c-1.82-2.24-4.56-3.39-8.15-3.41S9,3.82,7.2,6.05s-2.48,5.09-2.51,9,.88,6.86,2.51,9,4.45,3.37,8,3.4c3.21,0,5.33-.79,7.1-2.56a5.45,5.45,0,0,0,1.34-6,4.8,4.8,0,0,0-2-2.18,8.2,8.2,0,0,1-1.54,4.05,5.91,5.91,0,0,1-4.54,2.21,6.63,6.63,0,0,1-4-1,4.68,4.68,0,0,1-2.15-3.71c-.15-3,2.23-5.19,6-5.4a16.46,16.46,0,0,1,3.7.18,4.49,4.49,0,0,0-.91-2.2,3.63,3.63,0,0,0-2.89-1.11h0a3.78,3.78,0,0,0-3.33,1.64L9.77,9.8A6.33,6.33,0,0,1,15.25,7h.05c3.91,0,6.25,2.46,6.48,6.73h0ZM12,18c.08,1.57,1.77,2.3,3.41,2.2s3.41-.71,3.72-4.57a12.81,12.81,0,0,0-2.71-.28l-.9,0C12.87,15.56,12,16.86,12,18Z"/></svg>