<svg id="圖層_1" data-name="圖層 1" xmlns="http://www.w3.org/2000/svg" viewBox="0 0 30 30"><defs><style>.cls-1{fill:#040000;fill-rule:evenodd;}</style></defs><path class="cls-1" d="M15,3.54c-1.69,0-3.59,0-5.48.1h-.1c-1.89.1-3.39.1-4.69.3A5.18,5.18,0,0,0,1.59,5.53,5,5,0,0,0,.2,8.92a36.05,36.05,0,0,0-.2,5v2.2a35.31,35.31,0,0,0,.2,5,5,5,0,0,0,1.39,3.39,5.74,5.74,0,0,0,3.19,1.59,29.82,29.82,0,0,0,4.69.3h.1c1.79.1,3.69.1,5.38.1s3.59,0,5.48-.1h.1c1.9-.1,3.49-.1,4.69-.3a4.93,4.93,0,0,0,3.19-1.59,6.21,6.21,0,0,0,1.39-3.39,36.05,36.05,0,0,0,.2-5V13.9a35.31,35.31,0,0,0-.2-5,5.64,5.64,0,0,0-1.49-3.39,5.74,5.74,0,0,0-3.19-1.59,29.82,29.82,0,0,0-4.69-.3h-.1C18.64,3.54,16.74,3.54,15,3.54ZM13.36,18.89a.9.9,0,0,1-.5.1,4.33,4.33,0,0,1-.5-.1.78.78,0,0,1-.4-.4,1.09,1.09,0,0,1-.1-.5V12.11a.75.75,0,0,1,.1-.5.78.78,0,0,1,.4-.4.9.9,0,0,1,.5-.1.75.75,0,0,1,.5.1l4.88,2.89a.78.78,0,0,1,.4.4,1.27,1.27,0,0,1,.1.6,1.27,1.27,0,0,1-.1.6.78.78,0,0,1-.4.4Z"/></svg>