<svg width="30" height="30" viewBox="0 0 30 30" fill="none" xmlns="http://www.w3.org/2000/svg">
<path d="M6.89063 13.9796C8.67046 13.9315 10.4506 13.9314 12.2305 13.9796C13.2405 13.9797 14.0583 14.7973 14.1064 15.8555C14.1545 16.6251 14.1545 17.3946 14.1064 18.1641C14.0583 19.2225 13.2402 19.992 12.1338 20.0401H11.0273C10.835 20.0401 10.7393 20.0887 10.7393 20.377V22.4464C10.7394 22.6864 10.8351 22.7344 11.0752 22.7344H13.625C13.9617 22.7344 14.0585 22.8307 14.0586 23.1192C14.0586 23.5041 14.0105 23.9375 14.0586 24.3223C14.0585 24.7069 13.9138 24.7549 13.5771 24.7549H11.2197C10.8832 24.7069 10.7394 24.8031 10.7393 25.1876C10.7874 25.8611 10.7393 26.5834 10.7393 27.2569C10.7393 27.4971 10.787 27.5937 11.0752 27.5938H13.5771C13.9139 27.5457 14.0098 27.6897 14.0098 28.0264V29.2774C14.0577 29.5658 13.9133 29.6622 13.6729 29.6622C12.0855 29.6622 10.4499 29.7103 8.81445 29.6622C6.45724 29.5659 4.58131 27.5929 4.5332 25.1876V23.2159C4.5332 22.9272 4.58148 22.8311 4.87012 22.8311H6.2168C6.4573 22.8311 6.55371 22.9754 6.55371 23.2159V24.9473C6.60181 26.246 7.37109 27.2564 8.52539 27.4971C8.66971 27.3528 8.62207 27.16 8.62207 27.0157V20.5694C8.62207 20.0887 8.62158 20.0889 8.14063 20.0889C7.65972 20.089 7.22679 20.1363 6.79395 20.0401C6.07241 19.8958 5.39847 19.6073 5.20606 18.8858C4.82135 17.6353 4.82139 16.3365 5.20606 15.086C5.44659 14.3644 6.12092 13.9796 6.89063 13.9796ZM18.3398 23.4083C20.5046 23.3602 22.6214 23.4083 24.7861 23.4083C25.9887 23.4083 26.9986 24.3226 26.9023 25.5733C26.8544 26.0061 26.9507 26.4393 26.8545 26.8721C26.6138 28.4593 25.171 29.566 23.4395 29.6143H16.7041C16.3674 29.6143 16.2715 29.5175 16.2715 29.1807V25.5733C16.2715 24.3225 17.041 23.4083 18.3398 23.4083ZM18.6768 25.3809C18.34 25.3809 18.2432 25.4768 18.2432 25.8135C18.2432 26.2946 18.2913 26.7759 18.2432 27.2569C18.2432 27.5934 18.3401 27.6895 18.6768 27.6895H23.1504C24.4973 27.6895 24.9782 27.1604 25.0264 25.8135C25.0264 25.4769 24.9303 25.381 24.5938 25.3809H18.6768ZM18.1953 13.9796C20.1196 13.9314 22.0923 13.9314 24.0166 13.9796C25.0747 14.0278 25.8444 14.845 25.8926 15.9512C25.9407 17.2982 25.3149 18.357 24.3047 19.1749C23.9681 19.4152 23.6315 19.6074 23.2949 19.8477C23.8241 20.0882 24.3534 20.1846 24.9307 20.1846C25.8443 20.1846 25.748 20.0891 25.748 21.003C25.748 21.2914 25.6999 21.58 25.7959 21.8204C25.7959 22.1571 25.7 22.254 25.3633 22.254C23.9682 22.3502 22.6695 21.9646 21.4668 21.2911C21.1783 21.1468 20.9857 21.147 20.6973 21.2911C19.4465 21.9165 18.1949 22.3502 16.7998 22.254C16.4153 22.2539 16.2713 22.1572 16.3193 21.7725C16.3674 21.3878 16.3194 21.003 16.3193 20.6182C16.3193 20.3296 16.4634 20.2335 16.752 20.2335C17.4736 20.2335 18.1475 20.2326 18.8691 19.8477C18.3881 19.5591 17.9552 19.2704 17.5703 18.9337C16.7525 18.0677 16.2234 17.106 16.2715 15.9034C16.3196 14.8451 17.137 13.9796 18.1953 13.9796ZM22.7656 15.9034H19.3496C19.2054 15.9033 19.0612 15.8552 18.917 15.9512C18.4841 16.1917 18.3399 16.4324 18.5322 16.8653C18.6284 17.1539 18.821 17.3467 19.0615 17.5391C19.5906 17.972 20.1679 18.261 20.7451 18.5977C20.9375 18.6938 21.1778 18.645 21.3701 18.5489C21.8511 18.2603 22.3325 17.9722 22.8135 17.6837C23.1021 17.4912 23.3908 17.202 23.5352 16.8653C23.7275 16.4324 23.6311 16.1436 23.1982 15.9512C23.0541 15.8553 22.9098 15.9034 22.7656 15.9034ZM7.90039 16.0001C7.51565 16.0001 7.22734 16.0478 7.08301 16.4805C6.93869 17.0578 7.08292 17.6355 7.46777 17.876H11.6045C12.1337 17.6836 12.0381 17.2502 12.0381 16.8653C12.038 16.192 11.7971 16.0001 11.1719 16.0001H7.90039ZM24.4492 0.316467C25.0746 0.316467 25.0742 0.316799 25.0742 0.990295V1.90436C25.1223 2.28915 24.9785 2.38577 24.5938 2.3858H17.041C16.2714 2.3858 16.415 2.28917 16.415 3.05865C16.415 4.0689 16.4155 4.0694 17.4258 4.0694H22.6211C26.1329 4.0694 28.7305 6.66697 28.7305 10.1788V11.8145C28.7304 12.103 28.6343 12.2471 28.3457 12.2471H27.0947C26.8065 12.247 26.71 12.1029 26.71 11.8145V10.0342C26.6618 8.01389 25.1709 6.3303 23.2949 6.13776H23.0537C22.8614 6.04176 22.6689 6.0899 22.4766 6.0899H16.8965C16.5597 6.0899 16.4639 6.1858 16.4639 6.52252V10.8526C16.4638 11.2371 16.3672 11.3809 15.9346 11.3809C15.5497 11.3328 15.1642 11.3809 14.7793 11.3809C14.4429 11.3808 14.3467 11.2849 14.3467 10.9483V6.57037C14.3466 6.18592 14.2506 6.08998 13.8662 6.0899H8.18945C8.04513 6.0899 7.90018 6.13776 7.75586 6.13776C5.78361 6.13794 4.09986 7.9179 4.05176 9.98639V11.7667C4.05167 12.103 3.9556 12.2471 3.61914 12.2471H2.36817C2.17586 12.2471 2.03141 12.1992 2.03125 11.959C2.03125 10.997 1.93482 10.0344 2.0791 9.07233C2.56017 6.13781 5.01445 4.06868 7.99707 4.02057H13.8662C14.2506 4.02049 14.3469 3.92465 14.2988 3.5401C14.3469 3.25147 14.5393 2.72205 14.2988 2.48151C14.0584 2.24105 13.5294 2.43352 13.1445 2.43365H7.17871C6.69768 2.4337 6.12064 2.62558 5.83203 2.33698C5.49546 2.00028 5.73547 1.37536 5.6875 0.942444C5.6875 0.750021 5.63987 0.509617 5.78418 0.365295C5.83095 0.318525 5.87732 0.316503 5.87988 0.316467H24.4492ZM21.6113 8.59088C22.1403 8.59095 22.5735 8.73541 22.9102 9.12018L24.4014 10.6114C24.5937 10.8038 24.6417 10.9483 24.4014 11.1407L23.4395 12.1026C23.247 12.295 23.1023 12.2469 22.958 12.1026C22.6213 11.7659 22.2361 11.4297 21.8994 11.045C21.707 10.8044 21.5149 10.8044 21.2744 11.045C20.9377 11.3817 20.6004 11.718 20.2637 12.0547C20.0713 12.2471 19.9268 12.2953 19.7344 12.0547C19.4458 11.7181 19.1091 11.4295 18.7725 11.0928C18.5801 10.9005 18.5801 10.7559 18.7725 10.5635C19.2535 10.0825 19.7346 9.55335 20.2637 9.07233C20.6485 8.73558 21.1303 8.59088 21.6113 8.59088ZM9.58399 8.49518C10.0651 8.49518 10.4982 8.63962 10.835 9.02448L12.3262 10.5157C12.5186 10.7081 12.5186 10.8526 12.3262 11.045C11.9895 11.3336 11.7009 11.6702 11.3643 12.0069C11.1719 12.1993 11.0274 12.1993 10.835 12.0069C10.4982 11.6701 10.1131 11.3332 9.77637 10.9483C9.58405 10.7561 9.43943 10.7559 9.24707 10.9483C8.91039 11.285 8.52614 11.6221 8.18945 12.0069C7.99707 12.1993 7.85252 12.2472 7.66016 12.0069C7.37156 11.6702 7.03471 11.3814 6.7461 11.0928C6.55367 10.9004 6.50556 10.756 6.7461 10.5635L8.18945 9.12018C8.57421 8.63941 9.05501 8.49522 9.58399 8.49518Z" fill="black"/>
</svg>
