<svg width="30" height="30" viewBox="0 0 30 30" fill="none" xmlns="http://www.w3.org/2000/svg">
<path d="M20.4718 22.4547C20.762 20.1058 19.2356 18.6083 15.2053 17.3332C13.2525 16.6732 12.3329 15.8082 12.3544 14.6194C12.4364 13.2993 13.6764 12.338 15.3213 12.3068C16.6167 12.3206 17.8802 12.7071 18.9581 13.4193C19.1044 13.5093 19.2066 13.4943 19.2898 13.3693C19.4034 13.1893 19.6872 12.753 19.7818 12.5943C19.8462 12.4943 19.8588 12.3618 19.696 12.2443C19.4627 12.073 18.808 11.7255 18.456 11.5792C17.4537 11.1588 16.3769 10.9404 15.2885 10.9367C12.8791 10.9467 10.9832 12.4555 10.823 14.4694C10.7204 15.9244 11.4478 17.1024 13.0053 18.0033C13.337 18.1933 15.1245 18.8983 15.836 19.1183C18.0738 19.8083 19.2356 21.0459 18.9619 22.4897C18.7134 23.7985 17.3232 24.6448 15.4071 24.6698C13.8896 24.6123 12.5221 23.9985 11.4625 23.1822L11.2846 23.0447C11.1535 22.9447 11.0097 22.951 10.9226 23.0822C10.8595 23.1785 10.4483 23.766 10.3449 23.9197C10.2477 24.0548 10.3007 24.1298 10.4016 24.2123C10.8431 24.5785 11.4322 24.9785 11.8321 25.181C12.9398 25.7404 14.1583 26.0507 15.4008 26.0898C16.2953 26.132 17.1884 25.981 18.0183 25.6473C19.3996 25.066 20.2927 23.9047 20.4718 22.4547ZM15.5004 1.75132C12.8917 1.75132 10.7649 4.18892 10.6653 7.23905H20.3343C20.2322 4.18768 18.1066 1.75007 15.5004 1.75007M25.4041 29.9988L25.3032 30L5.39239 29.9975C4.03758 29.9475 3.0423 28.86 2.90606 27.5086L2.89344 27.2649L2.0016 7.85658C1.99575 7.77861 2.00601 7.70028 2.03175 7.62637C2.05749 7.55247 2.09817 7.48454 2.1513 7.42674C2.20443 7.36894 2.26889 7.32249 2.34076 7.29022C2.41262 7.25795 2.49037 7.24054 2.56925 7.23905H8.84499C8.99763 3.21013 11.9179 0 15.5004 0C19.083 0 22.0007 3.21138 22.1546 7.2378H28.4215C28.5 7.23804 28.5776 7.25406 28.6497 7.28489C28.7218 7.31572 28.7868 7.36072 28.8408 7.41716C28.8948 7.47361 28.9367 7.54032 28.9639 7.61327C28.9912 7.68622 29.0032 7.76389 28.9993 7.84158L28.0242 27.3274L28.0153 27.4911C27.8968 28.8587 26.7804 29.9625 25.4041 29.9988Z" fill="black"/>
</svg>
