<svg width="30" height="30" viewBox="0 0 30 30" fill="none" xmlns="http://www.w3.org/2000/svg">
<path d="M22.8259 4.7C21.6818 3.39921 21.0512 1.729 21.0513 0H15.8783V20.6667C15.8393 21.7853 15.3653 22.8451 14.5563 23.6225C13.7474 24.3999 12.6667 24.834 11.5424 24.8333C9.16518 24.8333 7.18973 22.9 7.18973 20.5C7.18973 17.6333 9.96875 15.4833 12.8315 16.3667V11.1C7.0558 10.3333 2 14.8 2 20.5C2 26.05 6.62054 30 11.5257 30C16.7824 30 21.0513 25.75 21.0513 20.5V10.0167C23.149 11.5164 25.6675 12.3211 28.25 12.3167V7.16667C28.25 7.16667 25.1027 7.31667 22.8259 4.7Z" fill="black"/>
</svg>
