<svg width="30" height="30" viewBox="0 0 30 30" fill="none" xmlns="http://www.w3.org/2000/svg">
<path fill-rule="evenodd" clip-rule="evenodd" d="M15 4C13.3381 4 11.4 4.04102 9.5107 4.09668L9.43395 4.09961C7.51116 4.15674 5.95954 4.20215 4.73721 4.41456C3.46326 4.63576 2.40558 5.0591 1.56 5.97172C0.711628 6.88727 0.341861 8.01962 0.167442 9.37463C1.49012e-08 10.6784 0 12.3307 0 14.3845V16.617C0 18.6678 1.49012e-08 20.3202 0.167442 21.6254C0.340465 22.9804 0.711628 24.1127 1.56 25.0283C2.40558 25.9424 3.46326 26.3642 4.73721 26.5854C5.95954 26.7979 7.51116 26.8433 9.43395 26.9004L9.5107 26.9033C11.4014 26.959 13.3381 27 15 27C16.6619 27 18.6 26.959 20.4893 26.9033L20.566 26.9004C22.4888 26.8433 24.0405 26.7979 25.2628 26.5854C26.5367 26.3642 27.5944 25.9409 28.44 25.0283C29.2884 24.1127 29.6595 22.9804 29.8326 21.6254C30 20.3216 30 18.6693 30 16.6155V14.383C30 12.3307 30 10.6784 29.8326 9.37463C29.6595 8.01962 29.2884 6.88727 28.44 5.97172C27.5944 5.05764 26.5367 4.63576 25.2628 4.41456C24.0405 4.20215 22.4888 4.15674 20.5646 4.09961L20.4893 4.09668C18.66 4.03839 16.8301 4.00616 15 4ZM13.426 19.3826C13.2669 19.4781 13.0867 19.528 12.9034 19.5273C12.7202 19.5267 12.5403 19.4755 12.3818 19.3789C12.2233 19.2824 12.0917 19.1438 12.0002 18.9771C11.9087 18.8104 11.8605 18.6214 11.8605 18.429V12.5695C11.8605 12.3771 11.9087 12.1881 12.0002 12.0214C12.0917 11.8547 12.2233 11.7161 12.3818 11.6196C12.5403 11.523 12.7202 11.4719 12.9034 11.4712C13.0867 11.4706 13.2669 11.5205 13.426 11.6159L18.3098 14.5456C18.4698 14.6418 18.6029 14.7806 18.6954 14.9481C18.7879 15.1155 18.8366 15.3057 18.8366 15.4993C18.8366 15.6929 18.7879 15.883 18.6954 16.0505C18.6029 16.2179 18.4698 16.3568 18.3098 16.4529L13.426 19.3826Z" fill="black"/>
</svg>
