<svg xmlns="http://www.w3.org/2000/svg" xmlns:xlink="http://www.w3.org/1999/xlink" width="50" height="50" viewBox="0 0 50 50">
  <defs>
    <clipPath id="clip-path">
      <rect id="Rectangle_264" data-name="Rectangle 264" width="50" height="50" transform="translate(1102 2600)" fill="#c44d5f" stroke="#707070" stroke-width="1"/>
    </clipPath>
  </defs>
  <g id="Mask_Group_105" data-name="Mask Group 105" transform="translate(-1102 -2600)" clip-path="url(#clip-path)">
    <g id="shop_1_" data-name="shop (1)" transform="translate(1102 2600)">
      <g id="Group_399" data-name="Group 399">
        <g id="Group_398" data-name="Group 398">
          <path id="Path_460" data-name="Path 460" d="M47.7,43.838h-.833V22.109A6.8,6.8,0,0,0,50,16.389a.733.733,0,0,0-.1-.363L44.092,5.855a2.3,2.3,0,0,0-2-1.158H7.9a2.3,2.3,0,0,0-2,1.158L.1,16.025a.733.733,0,0,0-.1.363,6.8,6.8,0,0,0,3.131,5.721V43.838H2.3a.732.732,0,0,0,0,1.465H47.7a.732.732,0,1,0,0-1.465ZM1.515,17.121H3.863a.732.732,0,0,0,0-1.465H1.995L7.18,6.582a.835.835,0,0,1,.723-.42H42.1a.835.835,0,0,1,.723.42l5.186,9.075H46.136a.732.732,0,0,0,0,1.465h2.348a5.334,5.334,0,0,1-10.567,0h5.088a.732.732,0,0,0,0-1.465H7a.732.732,0,0,0,0,1.465h5.087a5.334,5.334,0,0,1-10.567,0Zm34.834,0a5.333,5.333,0,0,1-10.566,0Zm-12.134,0a5.333,5.333,0,0,1-10.566,0ZM41.49,43.838H33.561V41.389H41.49Zm0-3.914H33.561V26.515H41.49ZM45.4,43.838H42.955V25.783a.732.732,0,0,0-.732-.732H32.828a.732.732,0,0,0-.732.732V43.838H4.6V22.82a6.792,6.792,0,0,0,8.27-3.363,6.8,6.8,0,0,0,12.134,0,6.8,6.8,0,0,0,12.134,0A6.793,6.793,0,0,0,45.4,22.82Z" fill="#c44d5f"/>
        </g>
      </g>
      <g id="Group_401" data-name="Group 401">
        <g id="Group_400" data-name="Group 400">
          <path id="Path_461" data-name="Path 461" d="M28.914,25.05H7.778a.732.732,0,0,0-.732.732V40.657a.732.732,0,0,0,.732.732H28.914a.732.732,0,0,0,.732-.732V25.783A.732.732,0,0,0,28.914,25.05Zm-.732,14.874H8.51V26.515H28.182Z" fill="#c44d5f"/>
        </g>
      </g>
    </g>
  </g>
</svg>
