<svg xmlns="http://www.w3.org/2000/svg" xmlns:xlink="http://www.w3.org/1999/xlink" width="50" height="50" viewBox="0 0 50 50">
  <defs>
    <clipPath id="clip-path">
      <rect id="Rectangle_399" data-name="Rectangle 399" width="50" height="50" transform="translate(829 2600)" fill="#fff" stroke="#707070" stroke-width="1"/>
    </clipPath>
  </defs>
  <g id="Mask_Group_120" data-name="Mask Group 120" transform="translate(-829 -2600)" clip-path="url(#clip-path)">
    <g id="alarm_4_" data-name="alarm (4)" transform="translate(829 2600)">
      <g id="Group_447" data-name="Group 447">
        <g id="Group_446" data-name="Group 446">
          <path id="Path_499" data-name="Path 499" d="M31.836,25a.977.977,0,1,0,.977.977A.977.977,0,0,0,31.836,25Z" fill="#fff"/>
        </g>
      </g>
      <g id="Group_449" data-name="Group 449">
        <g id="Group_448" data-name="Group 448">
          <path id="Path_500" data-name="Path 500" d="M40.625,40.625H39.458L36.279,22.8a6.834,6.834,0,0,0-6.726-5.613H20.447A6.832,6.832,0,0,0,13.721,22.8l-3.18,17.821H9.375a2.933,2.933,0,0,0-2.93,2.93v3.906a.977.977,0,0,0,.977.977H42.578a.977.977,0,0,0,.977-.977V43.555A2.933,2.933,0,0,0,40.625,40.625ZM15.643,23.15a4.879,4.879,0,0,1,4.8-4.009h9.105a4.881,4.881,0,0,1,4.8,4.006l3.117,17.478H12.526ZM41.6,46.484H8.4v-2.93a.978.978,0,0,1,.977-.977h31.25a.978.978,0,0,1,.977.977Z" fill="#fff"/>
        </g>
      </g>
      <g id="Group_451" data-name="Group 451">
        <g id="Group_450" data-name="Group 450">
          <path id="Path_501" data-name="Path 501" d="M34.984,37.521l-1.433-7.886a.977.977,0,0,0-1.922.349l1.433,7.886a.977.977,0,1,0,1.922-.349Z" fill="#fff"/>
        </g>
      </g>
      <g id="Group_453" data-name="Group 453">
        <g id="Group_452" data-name="Group 452">
          <path id="Path_502" data-name="Path 502" d="M49.023,25h-8.4a.977.977,0,0,0,0,1.953h8.4a.977.977,0,0,0,0-1.953Z" fill="#fff"/>
        </g>
      </g>
      <g id="Group_455" data-name="Group 455">
        <g id="Group_454" data-name="Group 454">
          <path id="Path_503" data-name="Path 503" d="M9.375,25H.977a.977.977,0,0,0,0,1.953h8.4a.977.977,0,0,0,0-1.953Z" fill="#fff"/>
        </g>
      </g>
      <g id="Group_457" data-name="Group 457">
        <g id="Group_456" data-name="Group 456">
          <path id="Path_504" data-name="Path 504" d="M42.264,8.713a.977.977,0,0,0-1.381,0l-5.524,5.524a.977.977,0,1,0,1.381,1.381l5.524-5.524A.977.977,0,0,0,42.264,8.713Z" fill="#fff"/>
        </g>
      </g>
      <g id="Group_459" data-name="Group 459">
        <g id="Group_458" data-name="Group 458">
          <path id="Path_505" data-name="Path 505" d="M14.642,14.237,9.117,8.713a.977.977,0,1,0-1.381,1.381l5.524,5.524a.977.977,0,0,0,1.381-1.381Z" fill="#fff"/>
        </g>
      </g>
      <g id="Group_461" data-name="Group 461">
        <g id="Group_460" data-name="Group 460">
          <path id="Path_506" data-name="Path 506" d="M25,1.563a.977.977,0,0,0-.977.977v7.813a.977.977,0,0,0,1.953,0V2.539A.977.977,0,0,0,25,1.563Z" fill="#fff"/>
        </g>
      </g>
    </g>
  </g>
</svg>
