<svg xmlns="http://www.w3.org/2000/svg" xmlns:xlink="http://www.w3.org/1999/xlink" width="50" height="50" viewBox="0 0 50 50">
  <defs>
    <clipPath id="clip-path">
      <rect id="Rectangle_391" data-name="Rectangle 391" width="50" height="50" transform="translate(673 2426)" fill="#fff" stroke="#707070" stroke-width="1"/>
    </clipPath>
  </defs>
  <g id="Mask_Group_112" data-name="Mask Group 112" transform="translate(-673 -2426)" clip-path="url(#clip-path)">
    <g id="XMLID_2793_" transform="translate(673 2426.02)">
      <g id="XMLID_2639_" transform="translate(0 0)">
        <g id="XMLID_2640_">
          <path id="XMLID_2706_" d="M48.984,53.792H.976a.976.976,0,1,0,0,1.952H48.984a.976.976,0,0,0,0-1.952Z" transform="translate(0 -5.783)" fill="#fff"/>
          <path id="XMLID_2705_" d="M.976,51.372H3.318a.976.976,0,1,0,0-1.952H.976a.976.976,0,0,0,0,1.952Z" transform="translate(0 -5.315)" fill="#fff"/>
          <path id="XMLID_2671_" d="M30.556,49.42a.976.976,0,1,0,0,1.952H35.37a.976.976,0,0,0,0-1.952Z" transform="translate(-3.169 -5.315)" fill="#fff"/>
          <path id="XMLID_2670_" d="M24.587,49.42H19.773a.976.976,0,1,0,0,1.952h4.814a.976.976,0,1,0,0-1.952Z" transform="translate(-2.014 -5.315)" fill="#fff"/>
          <path id="XMLID_2669_" d="M41.339,49.42a.976.976,0,1,0,0,1.952h4.814a.976.976,0,0,0,0-1.952Z" transform="translate(-4.325 -5.315)" fill="#fff"/>
          <path id="XMLID_2668_" d="M8.99,49.42a.976.976,0,1,0,0,1.952H13.8a.976.976,0,1,0,0-1.952Z" transform="translate(-0.859 -5.315)" fill="#fff"/>
          <path id="XMLID_2667_" d="M54.464,49.42H52.122a.976.976,0,1,0,0,1.952h2.342a.976.976,0,0,0,0-1.952Z" transform="translate(-5.48 -5.315)" fill="#fff"/>
          <path id="XMLID_2663_" d="M.976,9.367H21.743a.976.976,0,0,0,.976-.958c0-.014,0-.028,0-.041A8.345,8.345,0,0,0,7.819,3.2,5.631,5.631,0,0,0,0,8.392a.976.976,0,0,0,.976.976ZM5.631,4.712A3.665,3.665,0,0,1,7.6,5.286.976.976,0,0,0,8.952,4.98,6.394,6.394,0,0,1,20.7,7.416H2.083a3.686,3.686,0,0,1,3.548-2.7Z" transform="translate(0 -0.022)" fill="#fff"/>
          <path id="XMLID_2658_" d="M17.922,16.29a.976.976,0,0,0-1.647,0L.152,41.661a.976.976,0,0,0,.824,1.5H12.3a3.373,3.373,0,0,0,1.866-.555,7.874,7.874,0,0,0,3.546-6.586,7.7,7.7,0,0,0-.93-3.719l-.01-.018a5.768,5.768,0,0,1-.754-2.9,5.977,5.977,0,0,1,.044-.722,8.393,8.393,0,0,0,3.053,4.376,8.3,8.3,0,0,1,3.36,6.648v.023a3.431,3.431,0,0,0,1.005,2.45,3.376,3.376,0,0,0,2.407,1H49.024a.976.976,0,0,0,.824-1.5l-6.243-9.824a.976.976,0,0,0-1.647,1.047l5.29,8.324H36.494v-3.06l.823.823a.976.976,0,1,0,1.38-1.38l-2.2-2.2V33.556l.49.49a.976.976,0,1,0,1.38-1.38L36.208,30.51a.976.976,0,0,0-1.38,0l-2.156,2.156a.976.976,0,1,0,1.38,1.38l.49-.49v1.832l-2.2,2.2a.976.976,0,0,0,1.38,1.38l.823-.823v3.06H25.887a1.438,1.438,0,0,1-1.025-.425,1.494,1.494,0,0,1-.436-1.069v-.026a10.255,10.255,0,0,0-4.152-8.218,6.411,6.411,0,0,1-2.442-6.563.976.976,0,0,0-1.668-.877,7.864,7.864,0,0,0-2.1,5.356,7.7,7.7,0,0,0,1,3.854,5.7,5.7,0,0,1,.689,2.78,5.927,5.927,0,0,1-2.67,4.958,1.427,1.427,0,0,1-.79.232H2.752L17.1,18.633l6.41,10.086a.976.976,0,1,0,1.647-1.047l-3.215-5.06L28.685,12l8.562,13.474A.976.976,0,1,0,38.9,24.425l-1.551-2.441h7.079a.976.976,0,0,0,.976-.957c0-.012,0-.028,0-.038A6.845,6.845,0,0,0,33.666,16.2L29.509,9.655a.976.976,0,0,0-1.647,0L20.783,20.794ZM38.554,16.1a4.9,4.9,0,0,1,4.8,3.937H36.1l-1.349-2.123A4.873,4.873,0,0,1,38.554,16.1Z" transform="translate(0 -1.006)" fill="#fff"/>
          <path id="XMLID_2657_" d="M44.471,30.181a.978.978,0,1,0,.69-.285A.981.981,0,0,0,44.471,30.181Z" transform="translate(-4.734 -3.223)" fill="#fff"/>
        </g>
      </g>
    </g>
  </g>
</svg>
