<svg xmlns="http://www.w3.org/2000/svg" xmlns:xlink="http://www.w3.org/1999/xlink" width="50" height="50" viewBox="0 0 50 50">
  <defs>
    <clipPath id="clip-path">
      <rect id="Rectangle_269" data-name="Rectangle 269" width="50" height="50" transform="translate(421 2474)" fill="#c44d5f" stroke="#707070" stroke-width="1"/>
    </clipPath>
  </defs>
  <g id="Mask_Group_106" data-name="Mask Group 106" transform="translate(-421 -2474)" clip-path="url(#clip-path)">
    <g id="place" transform="translate(421 2474)">
      <path id="Path_462" data-name="Path 462" d="M44.141,10.938A5.858,5.858,0,0,0,38.281,16.8V18.75H31.219c2.353-4.025,3.546-7.043,3.546-8.984a9.766,9.766,0,0,0-19.531,0c0,1.942,1.193,4.96,3.546,8.984H11.719V16.8A5.859,5.859,0,0,0,0,16.8v5.469a.977.977,0,0,0,1.953,0V16.8a3.906,3.906,0,0,1,7.813,0v22.98a5.847,5.847,0,0,0-7.812,0v-9.7a.977.977,0,0,0-1.953,0V44.141A6.02,6.02,0,0,0,6.138,50h38A5.866,5.866,0,0,0,50,44.141V16.8A5.866,5.866,0,0,0,44.141,10.938ZM40.234,16.8a3.906,3.906,0,0,1,7.813,0V39.75a5.707,5.707,0,0,0-2.361-1.27,5.893,5.893,0,0,0-5.451,1.292ZM38.281,30.469h-12.5L15.528,20.7h4.436c2.132,3.406,4.232,6.22,4.254,6.249a.977.977,0,0,0,1.564,0c.022-.029,2.122-2.843,4.254-6.249h8.245ZM25,1.953a7.821,7.821,0,0,1,7.813,7.813c0,3.626-5.72,12.011-7.812,14.94-2.126-2.976-7.812-11.348-7.812-14.94A7.821,7.821,0,0,1,25,1.953ZM1.953,44.141a3.906,3.906,0,0,1,7.813,0,.977.977,0,0,0,1.953,0V27.864l9.912,9.44L10.352,48.047H6.138A4.055,4.055,0,0,1,1.953,44.141ZM23.72,38.012a.976.976,0,0,0,0-1.414l-12-11.43V20.7H12.7L24.717,32.153a.977.977,0,0,0,.673.269H38.281v3.906H30.859a.977.977,0,0,0-.69.286L18.736,48.047H13.184Zm20.42,10.035H21.5l9.766-9.766h7.017v5.859a.977.977,0,0,0,1.953,0A3.916,3.916,0,0,1,45.2,40.371a3.846,3.846,0,0,1,2.85,3.769A3.911,3.911,0,0,1,44.141,48.047Zm0,0" fill="#c44d5f"/>
      <path id="Path_463" data-name="Path 463" d="M25,14.648a4.883,4.883,0,1,0-4.883-4.883A4.888,4.888,0,0,0,25,14.648Zm0-7.812a2.93,2.93,0,1,1-2.93,2.93A2.933,2.933,0,0,1,25,6.836Zm0,0" fill="#c44d5f"/>
      <path id="Path_464" data-name="Path 464" d="M.977,27.148A.977.977,0,1,0,0,26.172.977.977,0,0,0,.977,27.148Zm0,0" fill="#c44d5f"/>
    </g>
  </g>
</svg>
