<svg xmlns="http://www.w3.org/2000/svg" xmlns:xlink="http://www.w3.org/1999/xlink" width="50" height="50" viewBox="0 0 50 50">
  <defs>
    <clipPath id="clip-path">
      <rect id="Rectangle_395" data-name="Rectangle 395" width="50" height="50" transform="translate(809 2560)" fill="#fff" stroke="#707070" stroke-width="1"/>
    </clipPath>
  </defs>
  <g id="Mask_Group_116" data-name="Mask Group 116" transform="translate(-809 -2560)" clip-path="url(#clip-path)">
    <g id="XMLID_2012_" transform="translate(809 2560)">
      <g id="XMLID_459_">
        <g id="XMLID_617_">
          <path id="XMLID_620_" d="M47.108,28.516H41.8V26.758a2.933,2.933,0,0,0-2.93-2.93H33.789a2.933,2.933,0,0,0-2.93,2.93v1.758H28.516V17.773a4.888,4.888,0,0,0-4.883-4.883H21.094V2.93A2.933,2.933,0,0,0,18.164,0H10.352a2.933,2.933,0,0,0-2.93,2.93v9.961H4.883A4.888,4.888,0,0,0,0,17.773V25.1a.977.977,0,0,0,1.953,0V17.773a2.933,2.933,0,0,1,2.93-2.93h18.75a2.933,2.933,0,0,1,2.93,2.93V28.516H25.548a2.9,2.9,0,0,0-2.892,2.892V44.141H4.883a2.933,2.933,0,0,1-2.93-2.93V33.887a.977.977,0,0,0-1.953,0v7.324A4.891,4.891,0,0,0,3.906,46V47.07a2.93,2.93,0,0,0,5.859,0v-.977H18.75v.977a2.928,2.928,0,0,0,4.871,2.192A2.88,2.88,0,0,0,25.548,50h21.56A2.9,2.9,0,0,0,50,47.108v-15.7A2.9,2.9,0,0,0,47.108,28.516ZM10.352,1.953h7.813a.978.978,0,0,1,.977.977v.977H9.375V2.93A.978.978,0,0,1,10.352,1.953ZM9.375,12.891V5.859h9.766v7.031ZM48.047,31.407v1.741a3.8,3.8,0,0,1-2.679-2.679h1.741A.94.94,0,0,1,48.047,31.407Zm0,11.962a5.757,5.757,0,0,0-4.3,3.395V31.752a5.757,5.757,0,0,0,4.3,3.395ZM24.609,35.146a5.757,5.757,0,0,0,4.3-3.395V46.764a5.757,5.757,0,0,0-4.3-3.395Zm6.25-4.678H41.8V48.047H30.859Zm1.953-3.711a.978.978,0,0,1,.977-.977h5.078a.978.978,0,0,1,.977.977v1.758H32.813Zm-7.264,3.711h1.741a3.8,3.8,0,0,1-2.679,2.679V31.407A.94.94,0,0,1,25.548,30.469ZM7.813,47.07a.977.977,0,0,1-1.953,0v-.977H7.813Zm13.867.977a.978.978,0,0,1-.977-.977v-.977h1.953v.977A.978.978,0,0,1,21.68,48.047Zm2.93-.939V45.368a3.8,3.8,0,0,1,2.679,2.679H25.548A.94.94,0,0,1,24.609,47.108Zm22.5.939H45.368a3.8,3.8,0,0,1,2.679-2.679v1.741A.94.94,0,0,1,47.108,48.047Z" fill="#fff"/>
          <path id="XMLID_1623_" d="M9.245,23.177a3.971,3.971,0,1,0,3.971,3.971,3.976,3.976,0,0,0-3.971-3.971Zm0,5.99a2.018,2.018,0,1,1,2.018-2.018A2.021,2.021,0,0,1,9.245,29.167Z" fill="#fff"/>
          <path id="XMLID_1628_" d="M14.258,32.135a1.891,1.891,0,0,0-1.654.955L9.992,37.613a1.91,1.91,0,0,0,1.654,2.866h5.222a1.91,1.91,0,0,0,1.654-2.866L15.912,33.09a1.891,1.891,0,0,0-1.654-.955Zm-2.537,6.39,2.537-4.395L16.8,38.525Z" fill="#fff"/>
          <path id="XMLID_1706_" d="M22.624,26.446a.977.977,0,0,0,.977-.977V20.131a.977.977,0,0,0-.977-.977H17.285a.977.977,0,0,0-.977.977v5.339a.977.977,0,0,0,.977.977Zm-4.362-5.338h3.385v3.385H18.262Z" fill="#fff"/>
          <path id="XMLID_1711_" d="M.977,30.469A.977.977,0,1,0,.286,28.8a.977.977,0,0,0,.69,1.667Z" fill="#fff"/>
        </g>
      </g>
    </g>
  </g>
</svg>
