<svg xmlns="http://www.w3.org/2000/svg" width="15.568" height="15.598" viewBox="0 0 15.568 15.598">
  <path id="Icon_feather-phone" data-name="Icon feather-phone" d="M18.735,14.678v2.348a1.565,1.565,0,0,1-1.706,1.565,15.49,15.49,0,0,1-6.755-2.4,15.263,15.263,0,0,1-4.7-4.7,15.49,15.49,0,0,1-2.4-6.786A1.565,1.565,0,0,1,4.732,3H7.08A1.565,1.565,0,0,1,8.645,4.346a10.05,10.05,0,0,0,.548,2.2A1.565,1.565,0,0,1,8.841,8.2l-.994.994a12.524,12.524,0,0,0,4.7,4.7l.994-.994a1.565,1.565,0,0,1,1.652-.352,10.05,10.05,0,0,0,2.2.548,1.565,1.565,0,0,1,1.346,1.589Z" transform="translate(-3.168 -3)" fill="#673c42"/>
</svg>
