<svg xmlns="http://www.w3.org/2000/svg" xmlns:xlink="http://www.w3.org/1999/xlink" width="14" height="14" viewBox="0 0 14 14">
  <defs>
    <clipPath id="clip-path">
      <rect id="Rectangle_1236" data-name="Rectangle 1236" width="14" height="14" transform="translate(952 693)" fill="#b97f87" stroke="#707070" stroke-width="1"/>
    </clipPath>
  </defs>
  <g id="Mask_Group_429" data-name="Mask Group 429" transform="translate(-952 -693)" clip-path="url(#clip-path)">
    <g id="settings" transform="translate(952 693)">
      <path id="Path_714" data-name="Path 714" d="M7.439,14H6.561a1.29,1.29,0,0,1-1.289-1.289v-.3a5.652,5.652,0,0,1-.878-.364l-.211.211a1.289,1.289,0,0,1-1.823,0l-.621-.621a1.289,1.289,0,0,1,0-1.823l.21-.21a5.652,5.652,0,0,1-.364-.878h-.3A1.29,1.29,0,0,1,0,7.439V6.561A1.29,1.29,0,0,1,1.289,5.272h.3a5.653,5.653,0,0,1,.364-.878L1.74,4.184a1.289,1.289,0,0,1,0-1.823l.621-.621a1.289,1.289,0,0,1,1.823,0l.21.21a5.657,5.657,0,0,1,.878-.364v-.3A1.29,1.29,0,0,1,6.561,0h.879A1.29,1.29,0,0,1,8.728,1.289v.3a5.652,5.652,0,0,1,.878.364l.211-.211a1.289,1.289,0,0,1,1.823,0l.621.621a1.289,1.289,0,0,1,0,1.823l-.21.21a5.652,5.652,0,0,1,.364.878h.3A1.29,1.29,0,0,1,14,6.561v.879a1.29,1.29,0,0,1-1.289,1.289h-.3a5.653,5.653,0,0,1-.364.878l.211.211a1.289,1.289,0,0,1,0,1.823l-.621.621a1.289,1.289,0,0,1-1.823,0l-.21-.21a5.657,5.657,0,0,1-.878.364v.3A1.29,1.29,0,0,1,7.439,14ZM4.531,11.188a4.835,4.835,0,0,0,1.253.52.41.41,0,0,1,.308.4v.606a.469.469,0,0,0,.469.468h.879a.469.469,0,0,0,.469-.468v-.606a.41.41,0,0,1,.308-.4,4.835,4.835,0,0,0,1.253-.52.41.41,0,0,1,.5.063l.429.429a.468.468,0,0,0,.662,0l.621-.621a.468.468,0,0,0,0-.662l-.429-.429a.41.41,0,0,1-.063-.5,4.834,4.834,0,0,0,.52-1.253.41.41,0,0,1,.4-.308h.606a.469.469,0,0,0,.469-.468V6.561a.469.469,0,0,0-.469-.468h-.606a.41.41,0,0,1-.4-.308,4.835,4.835,0,0,0-.52-1.253.41.41,0,0,1,.063-.5L11.68,3.6a.468.468,0,0,0,0-.662l-.621-.621a.468.468,0,0,0-.662,0l-.429.429a.41.41,0,0,1-.5.063,4.835,4.835,0,0,0-1.253-.52.41.41,0,0,1-.308-.4V1.289A.469.469,0,0,0,7.439.82H6.561a.469.469,0,0,0-.469.468v.606a.41.41,0,0,1-.308.4,4.835,4.835,0,0,0-1.253.52.41.41,0,0,1-.5-.063L3.6,2.32a.468.468,0,0,0-.662,0l-.621.621a.468.468,0,0,0,0,.662l.429.429a.41.41,0,0,1,.063.5,4.834,4.834,0,0,0-.52,1.253.41.41,0,0,1-.4.308H1.289a.469.469,0,0,0-.469.469v.879a.469.469,0,0,0,.469.468h.606a.41.41,0,0,1,.4.308,4.835,4.835,0,0,0,.52,1.253.41.41,0,0,1-.063.5L2.32,10.4a.468.468,0,0,0,0,.662l.621.621a.468.468,0,0,0,.662,0l.429-.429a.412.412,0,0,1,.5-.063Z" transform="translate(0 0)" fill="#b97f87"/>
      <path id="Path_715" data-name="Path 715" d="M6.435,9.481A3.046,3.046,0,1,1,9.481,6.435,3.05,3.05,0,0,1,6.435,9.481Zm0-5.272A2.226,2.226,0,1,0,8.661,6.435,2.228,2.228,0,0,0,6.435,4.209Z" transform="translate(0.565 0.565)" fill="#b97f87"/>
    </g>
  </g>
</svg>
