<svg xmlns="http://www.w3.org/2000/svg" xmlns:xlink="http://www.w3.org/1999/xlink" width="65" height="65" viewBox="0 0 65 65">
  <defs>
    <clipPath id="clip-path">
      <rect id="Rectangle_1981" data-name="Rectangle 1981" width="65" height="65" transform="translate(0.438)" fill="#fff" stroke="#707070" stroke-width="1"/>
    </clipPath>
  </defs>
  <g id="Mask_Group_688" data-name="Mask Group 688" transform="translate(-0.438)" clip-path="url(#clip-path)">
    <g id="calendar_5_" data-name="calendar (5)">
      <path id="Path_937" data-name="Path 937" d="M61.191,37.1V5.84a1.9,1.9,0,0,0-1.9-1.9H49.639V1.9a1.9,1.9,0,0,0-3.809,0V3.936H38.213V1.9a1.9,1.9,0,0,0-3.809,0V3.936H26.787V1.9a1.9,1.9,0,0,0-3.809,0V3.936H15.361V1.9a1.9,1.9,0,0,0-3.809,0V3.936H1.9A1.9,1.9,0,0,0,0,5.84V55.479a1.9,1.9,0,0,0,1.9,1.9H33.618A17.132,17.132,0,1,0,61.191,37.1ZM11.553,7.744v1.9a1.9,1.9,0,0,0,3.809,0v-1.9h7.617v1.9a1.9,1.9,0,0,0,3.809,0v-1.9H34.4v1.9a1.9,1.9,0,0,0,3.809,0v-1.9H45.83v1.9a1.9,1.9,0,0,0,3.809,0v-1.9h7.744v7.617H3.809V7.744ZM3.809,53.574V19.17H57.383V33.618a17.119,17.119,0,0,0-23.9,4.927,1.893,1.893,0,0,0-.856-.2H28.818a1.9,1.9,0,0,0,0,3.809H31.7a17,17,0,0,0-.874,3.809H28.818a1.9,1.9,0,0,0,0,3.809h2.011a16.969,16.969,0,0,0,.874,3.809Zm44.053,7.617a13.33,13.33,0,1,1,13.33-13.33A13.345,13.345,0,0,1,47.861,61.191Zm0,0" fill="#fff"/>
      <path id="Path_938" data-name="Path 938" d="M55.479,45.957H49.766V40.244a1.9,1.9,0,0,0-3.809,0v7.617a1.9,1.9,0,0,0,1.9,1.9h7.617a1.9,1.9,0,0,0,0-3.809Zm0,0" fill="#fff"/>
      <path id="Path_939" data-name="Path 939" d="M17.266,23.105H13.457a1.9,1.9,0,0,0,0,3.809h3.809a1.9,1.9,0,0,0,0-3.809Zm0,0" fill="#fff"/>
      <path id="Path_940" data-name="Path 940" d="M17.266,30.723H13.457a1.9,1.9,0,0,0,0,3.809h3.809a1.9,1.9,0,0,0,0-3.809Zm0,0" fill="#fff"/>
      <path id="Path_941" data-name="Path 941" d="M17.266,38.34H13.457a1.9,1.9,0,0,0,0,3.809h3.809a1.9,1.9,0,0,0,0-3.809Zm0,0" fill="#fff"/>
      <path id="Path_942" data-name="Path 942" d="M28.818,26.914h3.809a1.9,1.9,0,0,0,0-3.809H28.818a1.9,1.9,0,0,0,0,3.809Zm0,0" fill="#fff"/>
      <path id="Path_943" data-name="Path 943" d="M28.818,34.531h3.809a1.9,1.9,0,0,0,0-3.809H28.818a1.9,1.9,0,0,0,0,3.809Zm0,0" fill="#fff"/>
      <path id="Path_944" data-name="Path 944" d="M17.266,45.957H13.457a1.9,1.9,0,0,0,0,3.809h3.809a1.9,1.9,0,0,0,0-3.809Zm0,0" fill="#fff"/>
      <path id="Path_945" data-name="Path 945" d="M44.053,26.914h3.809a1.9,1.9,0,0,0,0-3.809H44.053a1.9,1.9,0,0,0,0,3.809Zm0,0" fill="#fff"/>
    </g>
  </g>
</svg>
