<svg xmlns="http://www.w3.org/2000/svg" xmlns:xlink="http://www.w3.org/1999/xlink" width="65" height="65" viewBox="0 0 65 65">
  <defs>
    <clipPath id="clip-path">
      <rect id="Rectangle_2009" data-name="Rectangle 2009" width="65" height="65" transform="translate(854 870)" fill="#fff" stroke="#707070" stroke-width="1"/>
    </clipPath>
  </defs>
  <g id="Mask_Group_685" data-name="Mask Group 685" transform="translate(-854 -870)" clip-path="url(#clip-path)">
    <g id="keys" transform="translate(854 870)">
      <path id="Path_934" data-name="Path 934" d="M64.882,40.858,61.46,31.552a1.9,1.9,0,0,0-1.91-1.243l-3.3.213-1.466-2.965a1.9,1.9,0,0,0-1.83-1.056l-3.993.257-8.752-5.053A14.6,14.6,0,0,0,23.385,5.521a14.511,14.511,0,0,0-5.545.174q-.658-.15-1.337-.239V1.9a1.9,1.9,0,0,0-3.809,0V5.456A14.6,14.6,0,0,0,8.887,33.37V60.557a1.9,1.9,0,0,0,.848,1.584l3.809,2.539a1.9,1.9,0,0,0,2.519-.365L22.41,56.7a1.9,1.9,0,0,0,.122-2.275L20.7,51.67l1.835-2.752a1.9,1.9,0,0,0,0-2.113l-2.219-3.329V34.513a14.39,14.39,0,0,0,2.533-.085L36.439,57.972a1.9,1.9,0,0,0,1.526.948l4.568.295c.042,0,.083,0,.124,0a1.9,1.9,0,0,0,1.875-1.58l1.689-9.77a1.9,1.9,0,0,0-1.033-2.031l-2.965-1.466.213-3.3a1.9,1.9,0,0,0-1.056-1.83l-3.586-1.773-3.362-5.823.062-.045L58.04,45.194a1.9,1.9,0,0,0,1.8.058l4.1-2.029A1.9,1.9,0,0,0,64.882,40.858ZM16.824,52.726l1.75,2.626-4.342,5.21L12.7,59.537V32.044a1.9,1.9,0,0,0-1.334-1.817A10.791,10.791,0,0,1,12.7,9.312v3.637h-.635a1.9,1.9,0,1,0,0,3.809h5.078a1.9,1.9,0,1,0,0-3.809H16.5V9.312a10.791,10.791,0,0,1,1.334,20.915A1.9,1.9,0,0,0,16.5,32.044V44.053a1.9,1.9,0,0,0,.32,1.056l1.835,2.752-1.835,2.752a1.9,1.9,0,0,0,0,2.112Zm17.96-12.855a1.9,1.9,0,0,0,.805.755l2.965,1.466-.213,3.3a1.9,1.9,0,0,0,1.056,1.83l2.829,1.4L41.071,55.3l-1.843-.119L25.481,31.375a1.9,1.9,0,0,0-.893-.795,14.789,14.789,0,0,0,1.721-1.929A14.584,14.584,0,0,0,25.3,10.009a10.785,10.785,0,0,1,3.727,17.222,1.9,1.9,0,0,0-.246,2.24Zm24.278,1.515L35.252,27.639a1.9,1.9,0,0,0-1.713-.1,14.61,14.61,0,0,0,.252-14.777,10.739,10.739,0,0,1,2.459,9.511,1.9,1.9,0,0,0,.907,2.063l10.4,6a1.9,1.9,0,0,0,1.075.251l3.3-.213L53.4,33.348a1.9,1.9,0,0,0,1.83,1.056l3.149-.2,2.341,6.365Z" fill="#fff"/>
    </g>
  </g>
</svg>
