<svg xmlns="http://www.w3.org/2000/svg" xmlns:xlink="http://www.w3.org/1999/xlink" width="65" height="65" viewBox="0 0 65 65">
  <defs>
    <clipPath id="clip-path">
      <rect id="Rectangle_2022" data-name="Rectangle 2022" width="65" height="65" transform="translate(1085 234)" fill="#fff" stroke="#707070" stroke-width="1"/>
    </clipPath>
  </defs>
  <g id="Mask_Group_691" data-name="Mask Group 691" transform="translate(-1085 -234)" clip-path="url(#clip-path)">
    <path id="selection" d="M49.93,30.75,32.5,24.942V8.125a8.125,8.125,0,1,0-16.25,0V23.76L11,31.639a17.045,17.045,0,0,0-2.872,9.486v5.594A18.3,18.3,0,0,0,26.406,65h16.25A14.236,14.236,0,0,0,56.875,50.781V40.387A10.152,10.152,0,0,0,49.93,30.75Zm2.882,20.031A10.167,10.167,0,0,1,42.656,60.937H26.406A14.236,14.236,0,0,1,12.188,46.719V41.125a13,13,0,0,1,2.19-7.232l1.873-2.809v9.541h4.063V8.125a4.063,4.063,0,0,1,8.125,0V26.406a2.035,2.035,0,0,0,1.389,1.928l18.819,6.272a6.084,6.084,0,0,1,4.168,5.78s0,10.394,0,10.394Z" transform="translate(1085 234)" fill="#fff"/>
  </g>
</svg>
