<svg xmlns="http://www.w3.org/2000/svg" xmlns:xlink="http://www.w3.org/1999/xlink" width="32" height="32" viewBox="0 0 32 32">
  <defs>
    <clipPath id="clip-path">
      <rect id="Rectangle_72" data-name="Rectangle 72" width="32" height="32" transform="translate(1121 507)" fill="#fff" stroke="#707070" stroke-width="1"/>
    </clipPath>
  </defs>
  <g id="Mask_Group_27" data-name="Mask Group 27" transform="translate(-1121 -507)" clip-path="url(#clip-path)">
    <g id="_008---Male-Customer-Advisor" data-name="008---Male-Customer-Advisor" transform="translate(1122.714 507)">
      <path id="Shape" d="M6.286,10.286V8.566a7.915,7.915,0,0,1,8-6.286,7.915,7.915,0,0,1,8,6.286v1.72Z" fill="#805333"/>
      <path id="Shape-2" data-name="Shape" d="M22.286,13.714a.571.571,0,1,1-1.143,0c0-8.686-.037-8.959.086-9.143.1-.166.28,1.143.486,1.143a.571.571,0,0,1,.423.189C22.338,6.908,22.286,6.864,22.286,13.714Z" fill="#a5a5a4"/>
      <path id="Shape-3" data-name="Shape" d="M7.429,13.714a.571.571,0,0,1-1.143,0c0-6.659-.05-6.818.149-7.811a.571.571,0,0,1,.423-.189c.206,0,.389-1.309.486-1.143C7.466,4.756,7.429,5.031,7.429,13.714Z" fill="#a5a5a4"/>
      <path id="Shape-4" data-name="Shape" d="M6.286,10.286h16a1.143,1.143,0,0,1,1.143,1.143v3.429A1.143,1.143,0,0,1,22.286,16h-16a1.143,1.143,0,0,1-1.143-1.143V11.429A1.143,1.143,0,0,1,6.286,10.286Z" fill="#547580"/>
      <path id="Shape-5" data-name="Shape" d="M28.566,31.423A.562.562,0,0,1,28,32H.571a.562.562,0,0,1-.566-.577v-2.28c.171-3.486,1.96-4,1.96-4l7.749-2.286h9.143l7.749,2.286s1.789.514,1.96,4Z" fill="#285680"/>
      <path id="Shape-6" data-name="Shape" d="M27.423,31.389A.565.565,0,0,1,26.9,32H1.669a.565.565,0,0,1-.52-.611V28.966c.1-2.514.9-3.577,1.4-3.994l7.166-2.114h9.143l7.166,2.114c.5.417,1.3,1.48,1.4,3.994Z" fill="#4482c3"/>
      <path id="Shape-7" data-name="Shape" d="M18.857,18.989v3.869s-.571,2.286-4.571,2.286-4.571-2.286-4.571-2.286V18.989Z" fill="#f9c795"/>
      <path id="Shape-8" data-name="Shape" d="M20.151,14.817c.026,1.452.295,2.743-1.358,4.229-1.8,1.623-1.8,3.24-3.606,3.24h-1.8c-1.8,0-1.8-1.617-3.606-3.24-1.746-1.569-1.352-2.9-1.352-4.623,0-1.556-.754-2.89-.249-4.639A7.1,7.1,0,0,1,9.732,6.834a1.637,1.637,0,0,1,1.075-.451c1.606-.1,6.212-.309,8.1.594,0,0,1.042.636,1.567,2.965.381,1.686-.362,2.858-.325,4.875Z" fill="#fdd7ad"/>
      <path id="Shape-9" data-name="Shape" d="M13.714,19.429H8a2.286,2.286,0,0,1-2.286-2.286V16a.571.571,0,0,1,1.143,0v1.143A1.143,1.143,0,0,0,8,18.286h5.714a.571.571,0,1,1,0,1.143Z" fill="#a5a5a4"/>
      <rect id="Rectangle-path" width="3.429" height="2.286" rx="0.571" transform="translate(12.571 17.143)" fill="#547580"/>
      <path id="Shape-10" data-name="Shape" d="M22.286,7.429V8.571a8.421,8.421,0,0,0-1.057-2.583,7.649,7.649,0,0,0-6.943-3.7,7.649,7.649,0,0,0-6.943,3.7A8.421,8.421,0,0,0,6.286,8.571V7.429c0-4.419,3.582-7.429,8-7.429S22.286,3,22.286,7.429Z" fill="#7f8284"/>
    </g>
  </g>
</svg>
