<svg xmlns="http://www.w3.org/2000/svg" xmlns:xlink="http://www.w3.org/1999/xlink" width="15" height="15" viewBox="0 0 15 15">
  <defs>
    <clipPath id="clip-path">
      <rect id="Rectangle_94" data-name="Rectangle 94" width="15" height="15" transform="translate(1497 12.299)" fill="#fff" stroke="#707070" stroke-width="1"/>
    </clipPath>
  </defs>
  <g id="Mask_Group_28" data-name="Mask Group 28" transform="translate(-1497 -12.299)" clip-path="url(#clip-path)">
    <g id="user_6_" data-name="user (6)" transform="translate(1497 12)">
      <g id="Group_274" data-name="Group 274">
        <path id="Path_140" data-name="Path 140" d="M13.058,9.89a7.62,7.62,0,0,0-2.907-1.823,4.422,4.422,0,1,0-5,0A7.662,7.662,0,0,0,0,15.3H1.2a6.454,6.454,0,0,1,12.908,0h1.2A7.6,7.6,0,0,0,13.058,9.89ZM7.649,7.649a3.227,3.227,0,1,1,3.227-3.227A3.231,3.231,0,0,1,7.649,7.649Z" fill="#fff"/>
      </g>
    </g>
  </g>
</svg>
