<svg xmlns="http://www.w3.org/2000/svg" xmlns:xlink="http://www.w3.org/1999/xlink" width="32" height="32" viewBox="0 0 32 32">
  <defs>
    <clipPath id="clip-path">
      <rect id="Rectangle_73" data-name="Rectangle 73" width="32" height="32" transform="translate(1296 507)" fill="#fff" stroke="#707070" stroke-width="1"/>
    </clipPath>
  </defs>
  <g id="Mask_Group_26" data-name="Mask Group 26" transform="translate(-1296 -507)" clip-path="url(#clip-path)">
    <g id="surface1" transform="translate(1297.536 507)">
      <path id="Path_126" data-name="Path 126" d="M25.379,1.1a1.107,1.107,0,0,0-1.1-1.1H7.172V5.517a1.1,1.1,0,0,1-1.1,1.1H0V30.9A1.107,1.107,0,0,0,1.1,32H24.276a1.107,1.107,0,0,0,1.1-1.1ZM18.759,11.034ZM6.069,11.034ZM15.448,14.345ZM12.138,17.655ZM8.828,20.966Zm0,0" fill="#ffe9cc"/>
      <path id="Path_127" data-name="Path 127" d="M8.454,29.064l.78-5.462,3.511,1.17,1.171,3.511Zm0,0" fill="#939598"/>
      <path id="Path_128" data-name="Path 128" d="M7.172,32h17.1a1.1,1.1,0,0,0,1.1-1.1V14.947A27.647,27.647,0,0,1,7.172,32Zm0,0" fill="#ffe2bd"/>
      <path id="Path_129" data-name="Path 129" d="M20.939,11.9l1.56-1.56,4.682,4.682-1.56,1.56Zm0,0" fill="#acabb1"/>
      <path id="Path_130" data-name="Path 130" d="M25.266,8.607a3.125,3.125,0,0,0-.552.1,3.3,3.3,0,0,0-1.435.844l-.778.784,4.679,4.679.778-.778a3.31,3.31,0,0,0-2.692-5.633Zm0,0" fill="#c6c5ca"/>
      <path id="Path_131" data-name="Path 131" d="M20.941,11.9,9.234,23.6l3.125,1.559,7.02-7.022-7.02,7.022.7,1.409.857,1.71L25.269,16.933l.353-.353-.906-.906Zm.05,4.631.781-.78Zm0,0" fill="#ffd733"/>
      <path id="Path_132" data-name="Path 132" d="M7.172,5.517V0L0,6.621H6.069A1.1,1.1,0,0,0,7.172,5.517Zm0,0" fill="#ffa993"/>
      <path id="Path_133" data-name="Path 133" d="M13.835,24.235a.552.552,0,0,1-.39-.942l5.921-5.919a.552.552,0,1,1,.779.778l-5.919,5.922A.552.552,0,0,1,13.835,24.235Zm0,0" fill="#f1f2f2"/>
      <path id="Path_134" data-name="Path 134" d="M21.315,16.755a.552.552,0,0,1-.39-.942l.78-.78a.552.552,0,0,1,.78.78l-.78.78A.549.549,0,0,1,21.315,16.755Zm0,0" fill="#f1f2f2"/>
      <path id="Path_135" data-name="Path 135" d="M15.448,14.9H3.862a.552.552,0,0,1,0-1.1H15.448a.552.552,0,1,1,0,1.1Zm0,0" fill="#ff7956"/>
      <path id="Path_136" data-name="Path 136" d="M12.138,18.207H3.862a.552.552,0,1,1,0-1.1h8.276a.552.552,0,1,1,0,1.1Zm0,0" fill="#ff7956"/>
      <path id="Path_137" data-name="Path 137" d="M8.828,21.517H3.862a.552.552,0,1,1,0-1.1H8.828a.552.552,0,1,1,0,1.1Zm0,0" fill="#ff7956"/>
      <path id="Path_138" data-name="Path 138" d="M18.759,11.586H8.276a.552.552,0,1,1,0-1.1H18.759a.552.552,0,0,1,0,1.1Zm0,0" fill="#ff7956"/>
      <path id="Path_139" data-name="Path 139" d="M6.069,11.586H3.862a.552.552,0,1,1,0-1.1H6.069a.552.552,0,1,1,0,1.1Zm0,0" fill="#ff7956"/>
    </g>
  </g>
</svg>
