<svg xmlns="http://www.w3.org/2000/svg" xmlns:xlink="http://www.w3.org/1999/xlink" width="34" height="34" viewBox="0 0 34 34">
  <defs>
    <clipPath id="clip-path">
      <rect id="Rectangle_372" data-name="Rectangle 372" width="34" height="34" transform="translate(-2080 -39)" fill="#e26868" stroke="#707070" stroke-width="1"/>
    </clipPath>
  </defs>
  <g id="Mask_Group_52" data-name="Mask Group 52" transform="translate(2080 39)" clip-path="url(#clip-path)">
    <g id="user_10_" data-name="user (10)" transform="translate(-2080 -39)">
      <path id="Path_145" data-name="Path 145" d="M20.518,7.6a6.178,6.178,0,0,1,2.875,4.59A4.984,4.984,0,1,0,20.518,7.6Zm-3.267,10.21a4.986,4.986,0,1,0-4.987-4.986A4.986,4.986,0,0,0,17.251,17.814Zm2.115.34H15.135A6.392,6.392,0,0,0,8.75,24.539v5.174l.013.081.356.112a29.062,29.062,0,0,0,8.681,1.4,17.822,17.822,0,0,0,7.58-1.423l.333-.168h.036V24.539A6.39,6.39,0,0,0,19.366,18.154Zm8.25-5.148h-4.2a6.145,6.145,0,0,1-1.9,4.28,7.587,7.587,0,0,1,5.419,7.26v1.595a17.181,17.181,0,0,0,6.692-1.406l.333-.169H34V19.391A6.392,6.392,0,0,0,27.616,13.006ZM8.5,12.667a4.953,4.953,0,0,0,2.652-.77,6.171,6.171,0,0,1,2.32-3.936c.005-.093.014-.186.014-.28A4.986,4.986,0,1,0,8.5,12.667Zm4.478,4.62a6.149,6.149,0,0,1-1.9-4.257c-.156-.011-.31-.024-.468-.024H6.385A6.392,6.392,0,0,0,0,19.391v5.175l.013.08.356.112A29.935,29.935,0,0,0,7.56,26.11V24.547A7.588,7.588,0,0,1,12.979,17.287Z" fill="#e26868"/>
    </g>
  </g>
</svg>
