<?xml version="1.0" encoding="utf-8"?>
<!-- Generator: Adobe Illustrator 23.1.1, SVG Export Plug-In . SVG Version: 6.00 Build 0)  -->
<svg version="1.1" id="Layer_1" xmlns="http://www.w3.org/2000/svg" xmlns:xlink="http://www.w3.org/1999/xlink" x="0px" y="0px"
	 viewBox="0 0 512 512" style="enable-background:new 0 0 512 512;" xml:space="preserve">
<style type="text/css">
	.st0{fill:#CACACA;}
</style>
<g>
	<g>
		<path class="st0" d="M256,0c-74.4,0-135,60.6-135,135s60.6,135,135,135s135-60.6,135-135S330.4,0,256,0z M256,240
			c-57.9,0-105-47.1-105-105S198.1,30,256,30s105,47.1,105,105S313.9,240,256,240z"/>
	</g>
</g>
<g>
	<g>
		<path class="st0" d="M424,358.2c-37-37.5-86-58.2-138-58.2h-60c-52,0-101,20.7-138,58.2C51.3,395.5,31,444.8,31,497
			c0,8.3,6.7,15,15,15h420c8.3,0,15-6.7,15-15C481,444.8,460.7,395.5,424,358.2z M61.7,482C69.2,396.9,140,330,226,330h60
			c86,0,156.8,66.9,164.3,152H61.7z"/>
	</g>
</g>
</svg>
