<svg width="20" height="52" viewBox="0 0 20 52" fill="none" xmlns="http://www.w3.org/2000/svg">
<path fill-rule="evenodd" clip-rule="evenodd" d="M16.7218 48.9853C7.65864 43.0168 3.27193 27.6764 6.92175 14.7219C8.05542 10.6966 9.83152 7.37744 12.0107 4.88902C11.7115 5.28058 11.7084 5.65018 11.4281 6.07467C10.011 8.20813 8.54983 10.81 7.72162 13.7449C4.0718 26.6993 8.46166 42.0397 17.5216 48.0082C18.3404 48.5462 19.1686 48.989 20 49.3403L19.6725 50.504C18.6805 50.1271 17.6948 49.6221 16.7218 48.9817V48.9853ZM14.4324 48.6706L8.90568 49.1244L14.4639 49.5708C13.1129 52.2898 10.9935 53.4425 7.00992 49.1719C10.5653 44.7367 12.8074 45.9882 14.4324 48.6706ZM10.7385 44.8758L5.72508 42.5008L10.5369 45.6516C8.64746 47.2763 6.47457 47.1958 4.03401 41.5969C8.31365 39.6208 9.98268 41.7982 10.7416 44.8758H10.7385ZM7.71847 38.6071L3.12077 36.4334L7.53267 39.3207C5.80066 40.8101 3.81042 40.7369 1.56826 35.6027C5.49205 33.7913 7.02252 35.7857 7.71847 38.6071ZM5.71879 32.8838L1.43284 29.6012L5.44481 33.5278C3.53015 34.5415 1.56196 33.9633 0 28.3973C4.13478 27.6288 5.39757 29.9562 5.72193 32.8801L5.71879 32.8838ZM4.98504 27.1787L1.84538 21.8981L4.54417 27.6105C2.45631 27.4824 0.755787 25.8942 0.821918 20.0391C4.94095 21.5907 5.48575 24.3719 4.98189 27.1787H4.98504ZM4.90316 21.3382L3.3664 15.7576L4.44024 21.5065C2.70194 20.5405 1.59975 18.5497 2.89403 13.8254C6.04629 16.7859 5.92033 19.267 4.90316 21.3345V21.3382ZM6.11872 15.5929L5.24642 10.5172L5.69674 15.6624C4.25445 14.5353 3.46087 12.6324 4.99764 8.77169C7.50748 11.8566 7.18627 13.9791 6.11557 15.5929H6.11872ZM7.62714 10.8795L7.73736 6.12225L7.23351 10.7954C6.12502 9.30596 5.74398 7.35914 7.82239 4.50477C9.55125 8.08371 8.88364 9.83658 7.62714 10.8832V10.8795ZM9.77799 6.62725L10.5086 3.03733L9.48197 6.45891C8.81751 5.03173 8.78287 3.44719 10.7951 1.82606C11.6643 5.00611 10.9022 6.1625 9.77799 6.62725ZM12.2689 4.71336L13.1223 1.18566L11.9761 4.52673C11.3588 3.05929 11.3777 1.48207 13.4498 0C14.2119 3.22763 13.4089 4.32912 12.2689 4.71336ZM13.431 4.54503L16.051 3.76556L13.5317 4.96586C14.508 5.98685 15.6385 6.14054 16.9359 3.45085C14.7158 2.03099 13.8372 3.00806 13.431 4.54503ZM11.4155 7.82389L14.0356 7.04809L11.5163 8.24838C12.4925 9.26571 13.623 9.42306 14.9205 6.73337C12.7004 5.31351 11.8218 6.29424 11.4155 7.82755V7.82389ZM9.44103 10.9308L12.0611 10.1513L9.5418 11.3516C10.518 12.3726 11.6486 12.5263 12.946 9.83658C10.7259 8.41672 9.84727 9.39745 9.44103 10.9308ZM7.85073 15.699L10.5999 13.6351L8.06172 16.1418C9.38435 16.881 10.6818 16.559 11.5163 12.8776C8.71359 12.2299 7.9578 13.7522 7.85073 15.7027V15.699ZM7.18312 21.8286L9.30877 18.063L7.52637 22.1689C9.06629 22.1689 10.2661 21.0674 9.99842 16.731C7.00992 17.6934 6.7076 19.7281 7.18627 21.8286H7.18312ZM7.68068 28.7632L8.82381 23.7425L8.11211 28.9425C9.65832 28.1521 10.5716 26.3919 9.16706 22.0006C6.42104 24.5366 6.65092 26.8127 7.68068 28.7632ZM9.3938 35.643L10.2157 29.3817L9.92285 35.7711C11.6675 34.5012 12.5618 32.1994 10.4362 27.2226C7.45709 30.8345 7.9704 33.5205 9.3938 35.6466V35.643ZM12.6941 41.875L12.2658 35.438L13.22 41.7982C14.6276 39.8989 15.0307 37.308 12.0548 33.2424C9.92914 37.9009 10.9337 40.3344 12.6909 41.875H12.6941ZM16.9107 46.1602L15.8873 39.2951L17.465 45.9846C18.7939 43.6938 18.9923 40.8321 15.4684 36.9677C13.6199 42.3544 14.9047 44.8026 16.9107 46.1602Z" fill="#5B4433"/>
</svg>
