<svg width="159" height="159" viewBox="0 0 159 159" fill="none" xmlns="http://www.w3.org/2000/svg">
<path d="M45.9987 108.422C48.0975 108.724 52.0725 108.963 54.1872 108.867C53.9646 108.168 53.8374 107.659 53.6466 107.182C52.6926 104.797 52.3269 102.348 52.7562 99.7726C53.265 96.688 55.0458 94.8913 58.035 94.2871C60.5631 93.7624 63.1071 93.2377 65.667 92.9038C68.1792 92.5858 70.3257 91.5364 72.4404 90.2485C73.4103 89.6602 74.3643 88.3723 75.7317 89.7079C75.8271 89.8033 76.2405 89.5966 76.4949 89.5171C77.0991 89.3422 77.7033 89.0242 78.2916 89.0242C81.9327 89.0878 85.5738 89.3263 89.04 90.6301C89.6601 90.8686 90.153 91.4569 90.9798 92.0929C94.9389 90.9004 99.3591 89.5807 103.604 92.2042C108.82 89.4694 114.321 88.261 119.934 87.4978C120.299 87.4501 120.681 87.5932 121.285 87.6886C120.681 88.897 120.077 89.8987 119.695 90.9799C119.314 92.077 119.155 93.2377 118.9 94.3189C123.002 93.5398 126.961 92.7607 130.921 92.0452C131.811 91.8862 132.733 91.8067 133.624 91.8862C135.548 92.0611 136.04 93.0469 135.15 94.7641C133.973 97.0378 132.304 98.8981 130.332 100.52C129.76 100.997 129.203 101.474 128.234 102.317C131.032 102.841 133.353 103.239 135.659 103.716C136.136 103.811 136.804 104.097 136.979 104.479C137.281 105.21 136.613 105.608 136.025 105.846C133.369 106.912 130.714 108.009 128.027 108.963C126.755 109.424 125.658 110.028 124.624 110.934C122.144 113.081 119.695 115.323 116.404 116.213C116.149 116.277 115.736 116.436 115.704 116.595C115.402 118.296 113.924 118.201 112.779 118.487C110.155 119.139 107.738 120.204 105.56 121.778C104.097 122.828 102.444 123.368 100.695 123.623C96.9741 124.147 93.2376 124.592 89.5329 125.165C88.5153 125.324 87.4977 125.674 86.5596 126.103C83.952 127.28 81.2331 127.741 78.387 127.566C77.3694 127.502 76.3041 127.629 75.2865 127.772C73.1718 128.09 71.1048 127.772 69.0378 127.359C67.1298 126.962 65.19 126.485 63.2502 126.389C56.1588 126.023 52.5495 119.393 53.3604 114.21C53.4717 113.462 53.4876 112.683 53.583 111.554C50.8641 111.698 48.3678 111.841 45.474 112C46.0782 112.413 46.3485 112.588 46.6029 112.763C48.7335 114.226 49.4808 116.245 49.0992 118.789C48.7176 121.365 47.4297 123.209 44.997 124.179C42.5643 125.149 40.1793 124.274 38.9232 121.969C37.6035 119.568 38.7324 116.881 41.3718 116.118C42.3576 115.847 43.2321 116.181 43.5024 116.929C43.7886 117.692 43.3434 118.455 42.3576 118.853C42.0396 118.98 41.6739 119.027 41.34 119.139C41.0856 119.218 40.8312 119.33 40.5927 119.425C40.5132 121.015 41.0379 122.223 42.1032 122.557C43.4229 122.971 44.6154 122.557 45.5853 121.619C47.7954 119.52 47.2071 115.466 44.5041 114.114C43.5819 113.653 42.5325 113.447 41.5308 113.113C36.5541 111.475 31.323 112.572 26.2668 111.682C24.6132 111.395 22.9119 111.348 21.2742 111.014C18.7302 110.505 17.6172 109.058 17.5059 106.451C17.5059 106.101 17.5377 105.751 17.5059 105.401C17.3946 103.493 18.0147 102.857 19.8591 103.032C20.3361 103.08 20.829 103.191 21.2901 103.382C26.4735 105.465 31.959 106.212 37.4445 107.023C39.1776 107.277 40.8948 107.611 42.6279 107.897C43.248 107.993 45.4263 108.438 46.0464 108.422M68.4177 111.348C68.7039 112.811 69.0537 114.083 69.1809 115.386C69.4035 117.914 70.5801 119.902 72.3768 121.587C73.2354 122.398 74.1417 123.177 75.0162 123.988C76.6062 125.483 78.5301 126.087 80.6289 125.785C82.203 125.546 83.793 125.117 85.224 124.465C87.1638 123.575 89.1036 122.891 91.266 122.939C91.8543 122.939 92.4426 122.812 93.4443 122.684C92.4744 121.921 91.8384 121.397 91.1865 120.904C89.3898 119.584 87.9747 117.994 87.45 115.752C87.291 115.084 87.0048 114.416 86.6709 113.796C85.7487 112.095 84.6516 110.887 82.3302 111.046C78.4347 111.316 74.4915 111.189 70.5801 111.236C69.8964 111.236 69.2127 111.316 68.4336 111.348H68.4177ZM87.0525 92.236C86.9412 92.1247 86.8617 91.9657 86.7504 91.9498C82.2666 91.2979 77.8305 90.805 74.1417 94.3507C73.7919 94.6846 73.3626 94.939 72.9651 95.2252C72.0588 95.8453 71.7567 96.6721 71.868 97.7533C72.2814 101.458 72.2496 105.115 69.7056 108.613C72.6948 108.645 75.3342 108.613 77.9736 108.708C80.8833 108.82 83.9043 106.657 83.6181 102.889C83.316 98.8663 84.6357 95.3683 87.0684 92.236H87.0525ZM117.899 89.6125C117.119 89.7397 116.483 89.7079 115.927 89.9464C111.952 91.6318 107.754 92.7289 103.891 94.8118C101.203 96.2587 99.8838 98.3257 99.3273 101.14C98.9616 102.953 98.5959 104.765 98.2143 106.705C102.205 106.276 106.228 105.799 109.837 104.177C113.129 102.698 115.816 100.297 116.436 96.3223C116.77 94.1917 117.342 92.0929 117.899 89.6125ZM70.4847 94.3189C68.529 94.8436 67.0185 95.3365 65.4603 95.6704C63.2025 96.1474 60.9288 96.529 58.671 96.9106C57.3036 97.1332 56.3178 97.8169 55.9044 99.1366C54.8709 102.364 54.855 105.56 56.127 108.772C59.307 108.677 62.3757 108.613 65.4444 108.454C66.9708 108.374 69.1014 106.546 69.3081 105.051C69.5625 103.191 69.7692 101.299 69.6579 99.4228C69.5625 97.7215 69.4194 96.0838 70.5006 94.3189H70.4847ZM109.805 116.913C109.694 116.77 109.631 116.611 109.519 116.563C106.435 115.386 103.668 113.844 101.378 111.284C100.075 109.821 98.1348 108.915 95.7975 109.599C93.81 110.187 91.6794 110.298 89.6124 110.632C89.2467 110.696 88.9128 110.839 88.7697 110.887C89.0877 112.349 89.5329 113.621 89.6124 114.909C89.7078 116.436 90.3597 117.596 91.4091 118.566C92.3313 119.425 93.3489 120.156 94.3506 120.904C97.2603 123.098 100.361 122.462 103.255 121.11C105.544 120.029 107.564 118.36 109.79 116.913H109.805ZM131.525 105.194C127.136 103.477 122.748 103.207 118.264 104.097C117.135 104.32 115.927 104.288 114.846 104.622C111.841 105.544 108.867 106.594 105.894 107.579C105.115 107.834 104.336 108.041 103.525 108.295C105.767 112.047 106.069 112.334 109.79 114.448C112.349 115.895 115.355 115.673 117.565 113.78C119.266 112.334 120.951 110.839 122.525 109.265C123.956 107.834 125.594 106.848 127.534 106.339C128.869 105.989 130.205 105.592 131.525 105.226V105.194ZM101.553 93.031C99.7725 92.4268 98.2779 92.3791 96.7833 92.872C94.3983 93.6511 92.0769 94.7641 89.6283 95.2252C87.1161 95.7022 86.3529 97.2604 86.019 99.3751C85.8759 100.265 85.86 101.172 85.86 102.078C85.86 103.843 85.701 105.576 84.8583 107.166C84.6834 107.484 84.588 107.85 84.2859 108.581C87.609 108.2 90.5982 107.961 93.5397 107.484C95.0025 107.246 95.9724 106.133 96.354 104.67C96.5607 103.859 96.672 103.032 96.7515 102.189C96.9741 99.8362 97.8009 97.7056 99.216 95.8135C99.8838 94.9231 100.647 94.1122 101.537 93.0469L101.553 93.031ZM74.2689 126.23C74.3166 126.087 74.3643 125.944 74.412 125.817C73.3308 124.847 72.2337 123.893 71.1684 122.907C69.006 120.92 67.3206 118.63 66.9549 115.641C66.7641 114.035 66.1758 112.699 65.0469 111.443C63.3138 111.411 61.5012 111.332 59.6886 111.348C58.4484 111.348 57.2082 111.491 55.8567 111.57C55.7454 112.731 55.6023 113.749 55.5387 114.782C55.491 115.402 55.5228 116.038 55.5864 116.658C55.9521 120.57 58.9095 123.638 62.7732 124.274C65.4603 124.72 68.1156 125.26 70.8027 125.737C71.9475 125.944 73.1241 126.071 74.2689 126.23ZM115.847 102.539C118.98 101.696 122.001 101.331 125.085 101.49C125.403 101.506 125.833 101.442 126.039 101.251C128.106 99.3751 130.157 97.483 132.145 95.5432C132.59 95.1139 132.829 94.462 133.21 93.826C132.781 93.7783 132.638 93.7306 132.511 93.7465C127.836 94.3348 123.416 95.8135 119.011 97.3717C118.678 97.4989 118.36 97.8646 118.169 98.1985C117.39 99.5818 116.674 100.981 115.831 102.539H115.847ZM19.9068 106.021C19.9068 106.021 19.7955 106.212 19.8273 106.323C20.1612 108.152 20.9403 108.804 23.4366 109.074C28.7154 109.646 33.9942 110.012 39.3048 109.742C39.7023 109.726 40.1157 109.599 40.863 109.44C33.6126 108.247 26.7597 107.118 19.9068 106.005V106.021Z" fill="#5B4433"/>
<path d="M72.9333 114.607C74.8413 113.288 80.1996 113.097 82.5528 114.257C80.0724 115.561 74.6982 115.752 72.9333 114.607Z" fill="#5B4433"/>
<path d="M78.0213 94.7324C77.1468 95.8295 76.0974 96.7676 75.5409 97.9442C74.9685 99.1526 74.9049 100.584 74.571 102.174C72.7584 98.3894 74.4597 94.9073 78.0372 94.7324H78.0213Z" fill="#5B4433"/>
<path d="M104.702 96.5767C103.604 98.1985 102.507 99.8203 101.378 101.506C100.822 99.4387 102.094 97.2763 104.702 96.5767Z" fill="#5B4433"/>
<path d="M61.8828 97.6897C60.9288 98.119 60.1497 98.3893 59.4342 98.7868C58.7187 99.1843 58.0827 99.709 57.3513 100.218C58.035 98.1508 59.2434 97.4512 61.8828 97.6738V97.6897Z" fill="#5B4433"/>
<path d="M100.583 112.731C97.9122 114.003 95.4318 114.337 92.6493 113.939C94.0008 112.397 97.9758 111.777 100.583 112.731Z" fill="#5B4433"/>
<path d="M108.374 109.519C110.696 108.136 113.16 107.245 116.006 106.943C114.941 108.979 111.379 110.171 108.374 109.519Z" fill="#5B4433"/>
<path d="M88.3245 103.493C87.132 100.695 88.0542 98.3894 90.5982 97.7534C89.835 99.6614 89.0877 101.569 88.3245 103.493Z" fill="#5B4433"/>
<path d="M64.5381 114.289C62.646 115.164 60.7221 115.291 58.6233 114.782C60.0225 113.685 62.5983 113.431 64.5381 114.289Z" fill="#5B4433"/>
<path d="M120.554 98.9615C122.414 97.5464 124.497 96.6401 126.818 96.3857C125.133 98.1983 123.002 98.9297 120.554 98.9615Z" fill="#5B4433"/>
<mask id="mask0_108_303" style="mask-type:luminance" maskUnits="userSpaceOnUse" x="19" y="2" width="125" height="111">
<path d="M28.5 34L42.3258 24.3588L61 8L85.5 2.5L115 12L125.737 32.3406L129.188 41.817L138 48L143.688 61.3581L140.095 73.4262L126.707 82.0281L119.727 90.0894L119.091 88.1178L112.334 89.3421L103.016 103.239L83.1411 100.345L68.9106 103.239L55.2843 106.371L53.8215 112.922L46.8732 109.853L37.206 107.85L34.1691 112.159L33.2787 107.548L37.206 92.5L31.8318 74.5869L22.5 64L19.4139 49.3536L28.5 34Z" fill="white"/>
</mask>
<g mask="url(#mask0_108_303)">
<path d="M72.9652 134.403C72.5677 134.244 71.2957 134.228 70.8823 134.196C66.3031 133.862 62.026 132.383 57.8761 130.762C53.8693 129.203 49.8148 127.248 46.1578 125.085C41.2765 122.732 40.6882 122.923 40.0681 121.635C39.3049 120.713 39.4321 119.298 39.2095 117.517C39.0823 113.462 39.289 120.22 39.1618 116.165C38.9233 108.756 38.8915 101.331 38.812 93.9054C38.7643 89.7714 39.0028 85.6534 38.7802 81.5193C38.5576 77.2263 36.4111 72.5041 32.0386 70.4688C28.7314 68.9425 26.4259 66.6529 25.1221 63.5206C24.5179 62.0737 23.866 60.6268 23.1823 59.1958C20.8609 54.2986 21.7672 48.2884 24.1045 43.582C25.2652 41.2447 26.7439 39.0187 28.3339 36.904C30.6076 33.8671 33.2788 33.247 36.904 31.7842C40.3543 30.385 43.7569 30.5281 47.6047 30.2578C48.7018 30.1783 49.0357 29.6218 49.2106 28.8109C49.5286 27.4435 49.783 26.0602 50.2282 24.7405C52.5814 17.8558 57.3991 12.9268 64.57 9.74676C71.6773 6.58266 79.1662 5.54916 87.1162 5.91486C92.554 6.16926 97.7374 7.18686 102.841 8.88816C108.406 10.7485 112.874 13.9762 116.086 18.3964C118.217 21.3379 119.743 24.6451 121.317 27.8728C122.271 29.8285 122.351 31.975 122.144 34.0897C121.826 37.3492 121.476 40.6087 121.11 44.1226C123.479 43.423 125.912 43.741 128.345 44.4724C140.795 48.2566 145.167 63.0594 137.138 72.2178C134.085 75.6999 130.189 78.2439 125.705 80.1519C124.72 80.5653 123.845 81.3603 123.177 82.1553C119.457 86.6709 116.706 91.3615 116.022 96.9582C114.575 104.733 113.685 112.016 112.238 119.52C111.968 120.983 111.92 121.094 111.872 121.428C111.491 123.829 111.077 127.264 110.139 128.822C108.915 130.523 107.277 131.255 105.433 132.288C104.24 132.86 93.7465 134.959 86.8459 134.737C85.876 134.705 83.014 134.689 82.0282 134.753C78.4666 134.387 76.4632 134.753 72.9016 134.387L72.9652 134.403ZM110.123 63.139C110.298 63.1866 110.473 63.2185 110.664 63.2662C111.92 71.5023 107.309 77.3377 101.06 82.6642C102.03 82.8232 102.937 82.9344 103.779 82.7755C107.5 82.0759 111.189 81.3127 114.893 80.5813C118.264 79.9135 121.349 78.6891 124.227 77.0196C125.721 76.161 127.248 75.3502 128.711 74.4438C133.894 71.2161 137.074 67.0185 136.851 61.0084C136.629 54.5848 134.943 50.8324 128.281 48.0817C125.912 47.1436 124.449 46.8097 123.002 46.9369C121.412 47.0641 120.236 47.239 118.63 47.8114C116.547 48.5587 114.75 46.8415 115.339 44.8858C115.498 44.3452 115.736 43.8364 115.927 43.2958C117.342 39.3367 118.042 35.155 117.501 31.0846C116.69 24.8359 113.335 19.4458 107.897 15.28C103.43 11.8456 98.0236 10.3987 92.4109 9.65136C83.6818 8.49066 75.2389 8.88816 67.1776 12.4021C59.1163 15.9001 54.7438 21.6559 53.5036 29.5264C53.0902 32.1499 51.8977 33.3583 48.8926 33.5809C45.5854 33.8194 42.7075 33.4696 39.6547 34.4554C31.9432 36.9358 28.7473 41.1652 26.5372 47.875C25.6945 50.4349 25.0108 54.1714 26.0284 56.7949C26.4259 59.5933 27.5548 61.4059 28.5565 63.6319C29.3038 65.2696 30.3532 66.7482 32.1022 67.7659C34.2805 69.0219 36.5701 70.1826 38.494 71.709C40.2271 73.0764 41.992 75.2389 44.059 75.9067C45.7444 76.4632 47.4298 77.0355 49.1152 77.6238C52.5973 78.8482 56.1907 79.6908 59.9431 80.0247C59.5138 79.5001 58.9891 79.1184 58.4962 78.705C56.2066 76.7653 53.8057 74.8891 52.7563 72.0907C51.4843 68.7039 51.1345 65.2219 51.1345 61.708C51.1345 59.5138 51.7546 57.415 52.8199 55.4593C53.2015 54.7438 53.8693 54.1396 54.4099 53.4877C54.6802 53.9011 54.6961 54.1237 54.6325 54.3145C53.122 59.1322 53.4082 63.9817 54.6802 68.863C55.2844 71.1684 56.302 73.2037 58.1146 75.0163C61.6444 78.562 65.4604 81.4081 71.1049 81.09C71.2639 81.09 71.4229 81.09 71.566 81.1218C79.5478 82.06 87.5455 82.0281 95.5591 81.9009C96.211 81.9009 96.9742 81.742 97.4671 81.4081C103.286 77.4649 107.532 72.52 109.217 65.9533C109.456 65.0152 109.805 64.1089 110.123 63.1867V63.139ZM42.2941 77.7033C42.5326 80.5176 42.8983 83.0775 42.9301 85.6533C43.0096 92.2359 42.8665 98.8026 42.9301 105.385C42.9778 109.869 43.264 114.337 43.3912 118.821C43.4389 120.093 43.7728 121.158 45.172 121.778C49.306 123.638 53.2969 125.88 57.6058 127.311C63.4729 129.251 69.6739 130.221 75.8749 130.857C77.4172 131.016 78.9913 130.889 80.5336 131.096C86.7823 131.922 92.9674 131.382 99.1207 130.682C102.078 130.348 104.384 130.221 107.85 128.504C108.39 126.612 108.343 125.705 108.629 123.861C108.788 122.605 108.724 121.174 108.947 119.934C109.758 115.386 110.632 110.839 111.395 106.292C112.031 102.571 112.508 98.8185 113.144 95.082C113.876 90.7572 115.243 86.6392 118.201 83.1094C118.312 82.9821 118.312 82.7914 118.439 82.4575C117.644 82.6005 117.056 82.7118 116.468 82.8232C112.604 83.5704 108.788 84.4608 104.892 85.0332C100.234 85.7169 95.4955 86.353 90.7573 85.4943C88.2133 85.0332 85.6852 84.922 83.1253 84.8106C82.1236 84.7629 81.106 84.8425 80.1043 84.7629C74.5075 84.2542 68.9266 83.6499 63.3298 83.1889C59.3389 82.8708 55.4911 82.0759 51.7387 80.7561C48.6223 79.659 45.4423 78.705 42.31 77.6874L42.2941 77.7033Z" fill="#5B4433"/>
<path d="M35.9977 50.1807C35.5207 52.3113 34.4395 53.8377 33.1993 55.4277C32.0386 54.6486 32.2771 53.9649 32.6587 53.2653C33.3424 52.0251 33.7876 50.5782 35.9977 50.1807Z" fill="#5B4433"/>
<path d="M65.9851 18.937C64.888 20.7655 63.2185 21.958 60.8335 22.9279C60.8971 22.2601 60.8335 21.8944 60.9925 21.6718C61.8352 20.5588 64.1248 19.2232 66.001 18.9529L65.9851 18.937Z" fill="#5B4433"/>
<path d="M34.5031 58.6869C33.8671 56.6199 34.3282 55.7136 36.427 54.5688C37.5877 56.0793 36.904 57.6534 34.5031 58.6869Z" fill="#5B4433"/>
<path d="M63.7591 24.788C63.0913 25.7261 62.6302 26.5052 62.026 27.1571C61.8193 27.3797 61.1197 27.4751 60.8017 27.332C60.4837 27.2048 60.1816 26.7119 60.1498 26.3621C60.0385 25.4399 61.5331 23.9453 62.5507 23.9771C62.9164 23.9771 63.2662 24.4382 63.775 24.788H63.7591Z" fill="#5B4433"/>
<path d="M45.7921 94.7162C45.5377 93.1739 46.921 90.5822 48.2884 90.2642C48.6223 90.1847 49.4968 90.773 49.4809 90.8207C49.0675 91.8383 48.6541 92.8718 48.034 93.794C47.5729 94.4777 46.9369 95.2091 45.7762 94.7162H45.7921Z" fill="#5B4433"/>
<path d="M44.8381 90.8049C44.7427 90.2643 44.4406 89.7237 44.6155 89.3898C45.2038 88.2768 45.8716 87.1956 46.6825 86.2257C46.9051 85.9554 47.7319 86.0985 48.2725 86.0508C48.3043 86.496 48.5587 87.0843 48.352 87.3546C47.3821 88.563 47.0641 90.3438 44.8381 90.8208V90.8049Z" fill="#5B4433"/>
<path d="M48.3043 95.5273C48.511 95.8612 48.7018 96.0361 48.7018 96.2269C48.7495 96.9742 48.511 97.6261 47.6524 97.8487C47.4616 97.8964 46.921 97.5784 46.921 97.5466C47.08 96.9901 47.2867 96.4336 47.557 95.9248C47.6365 95.7817 47.9227 95.7181 48.3043 95.5273Z" fill="#5B4433"/>
</g>
<path d="M54.6324 142.512C57.5653 142.512 59.943 140.789 59.943 138.664C59.943 136.539 57.5653 134.816 54.6324 134.816C51.6994 134.816 49.3218 136.539 49.3218 138.664C49.3218 140.789 51.6994 142.512 54.6324 142.512Z" fill="#5B4433"/>
<path d="M58.7505 137.79C58.7505 137.79 59.8794 135.325 54.3939 134.864C48.8925 134.403 46.0146 137.79 46.0146 137.79" stroke="#5B4433" stroke-width="2.23" stroke-miterlimit="10" stroke-linecap="round"/>
<path d="M87.7998 140.015C87.7998 140.015 89.517 137.583 93.6351 137.265C97.7532 136.947 102.173 138.648 102.173 138.648" stroke="#5B4433" stroke-width="2.23" stroke-miterlimit="10" stroke-linecap="round"/>
<path d="M67.6068 148.569C67.6068 148.569 68.5449 150.573 73.3308 150.652C78.1167 150.732 79.6749 148.108 79.6749 148.108" stroke="#5B4433" stroke-width="2.23" stroke-miterlimit="10" stroke-linecap="round"/>
</svg>
