<svg width="20" height="52" viewBox="0 0 20 52" fill="none" xmlns="http://www.w3.org/2000/svg">
<path fill-rule="evenodd" clip-rule="evenodd" d="M3.2777 48.9839C2.30478 49.6243 1.31926 50.1293 0.327449 50.5062L0 49.3426C0.831234 48.9913 1.65932 48.5485 2.47796 48.0106C11.5397 42.0422 15.9257 26.7022 12.2764 13.7481C11.4484 10.8134 9.98741 8.21522 8.57053 6.07817C8.28716 5.65368 8.28715 5.28409 7.98803 4.89254C10.17 7.38089 11.9427 10.6999 13.0762 14.7252C16.7254 27.6793 12.3363 43.0192 3.2777 48.9876V48.9839ZM5.56675 48.6692C7.19143 45.9869 9.43325 44.7355 12.988 49.1706C9.00504 53.4447 6.88602 52.2883 5.53526 49.5694L11.0926 49.123L5.56675 48.6692ZM9.26007 44.8745C10.0157 41.797 11.6845 39.6197 15.9666 41.5957C13.5233 47.1945 11.3539 47.2787 9.46474 45.6503L14.2758 42.4996L9.26322 44.8745H9.26007ZM12.2796 38.6061C12.9754 35.7847 14.5025 33.7904 18.4288 35.6017C16.1902 40.7358 14.1971 40.809 12.4654 39.3196L16.8766 36.4324L12.2796 38.6061ZM14.279 32.8828C14.6033 29.959 15.8659 27.628 20 28.4002C18.4383 33.966 16.4704 34.5405 14.5529 33.5305L18.5642 29.6041L14.279 32.8865V32.8828ZM15.0126 27.1779C14.5088 24.3712 15.0567 21.5901 19.1719 20.0386C19.238 25.8935 17.5409 27.4817 15.4502 27.6097L18.1486 21.8975L15.0094 27.1779H15.0126ZM15.0945 21.3376C14.0774 19.2664 13.9515 16.7854 17.1033 13.8286C18.3974 18.5492 17.2953 20.5399 15.5573 21.5096L16.631 15.7608L15.0945 21.3413V21.3376ZM13.8791 15.5925C12.8086 13.975 12.4874 11.8526 14.9968 8.77144C16.5365 12.632 15.7399 14.5349 14.2979 15.662L14.7481 10.5169L13.8759 15.5925H13.8791ZM12.3709 10.8792C11.1146 9.83265 10.444 8.07982 12.1757 4.50099C14.2569 7.35527 13.8728 9.30204 12.7645 10.7914L12.2607 6.11842L12.3709 10.8756V10.8792ZM10.2204 6.62707C9.09635 6.16233 8.33438 5.00963 9.2034 1.82601C11.2154 3.4471 11.1807 5.03159 10.5164 6.45874L9.48992 3.03725L10.2204 6.62707ZM7.72985 4.71323C6.59005 4.32534 5.78715 3.22754 6.54912 0C8.6209 1.47837 8.63979 3.05921 8.02267 4.5266L6.87657 1.18562L7.72985 4.71323ZM6.56801 4.5449C6.16184 3.01164 5.28337 2.03093 3.0636 3.45076C4.35768 6.14037 5.49118 5.98668 6.46725 4.96572L3.94836 3.76546L6.56801 4.5449ZM8.58312 7.82367C8.1738 6.2904 7.29848 5.3097 5.07871 6.72953C6.37279 9.41914 7.50314 9.26545 8.48236 8.2445L5.96347 7.04423L8.58312 7.82001V7.82367ZM10.5573 10.9305C10.1511 9.39719 9.27267 8.41648 7.0529 9.83631C8.34698 12.5296 9.47733 12.3722 10.4565 11.3513L7.93766 10.151L10.5573 10.9305ZM12.1474 15.6986C12.0434 13.7481 11.2846 12.2259 8.48236 12.8736C9.31674 16.5549 10.614 16.8805 11.9364 16.1377L9.39861 13.631L12.1474 15.6949V15.6986ZM12.8149 21.828C13.2934 19.7275 12.9912 17.6929 10.0031 16.7305C9.73551 21.0668 10.932 22.1646 12.4748 22.1683L10.6927 18.0625L12.818 21.828H12.8149ZM12.3174 28.7624C13.3438 26.812 13.5768 24.5359 10.8312 22C9.42695 26.3912 10.3401 28.1513 11.886 28.9417L11.1744 23.7418L12.3174 28.7624ZM10.6045 35.642C12.0277 33.5159 12.5409 30.8336 9.56234 27.2182C7.43703 32.1949 8.33124 34.4966 10.0756 35.7664L9.78274 29.3772L10.6045 35.6383V35.642ZM7.30478 41.8738C9.06171 40.3333 10.0693 37.8998 7.94081 33.2415C4.96537 37.307 5.37153 39.8978 6.77582 41.797L7.72985 35.4371L7.30163 41.8738H7.30478ZM3.08879 46.1589C5.09446 44.8013 6.37909 42.3532 4.53085 36.9667C1.00755 40.8309 1.20592 43.6962 2.53463 45.9833L4.11209 39.294L3.08879 46.1589Z" fill="#5B4433"/>
</svg>
