<svg width="52" height="52" viewBox="0 0 52 52" fill="none" xmlns="http://www.w3.org/2000/svg">
<g clip-path="url(#clip0_25_21442)">
<path d="M52 26C52 11.6403 40.3597 0 26 0C11.6403 0 0 11.6403 0 26C0 38.9769 9.50637 49.7351 21.9363 51.6841V33.515H15.3342V26H21.9363V20.2723C21.9363 13.755 25.819 10.1573 31.7585 10.1573C34.605 10.1573 37.5787 10.6658 37.5787 10.6658V17.0637H34.3007C31.0729 17.0637 30.0637 19.0667 30.0637 21.1236V26H37.2744L36.1227 33.515H30.0637V51.6841C42.4936 49.7351 52 38.9769 52 26Z" fill="#4676ED"/>
<path d="M36.1188 33.5149L37.2705 25.9999H30.0598V21.1234C30.0598 19.0666 31.0651 17.0636 34.2968 17.0636H37.5748V10.6657C37.5748 10.6657 34.6011 10.1572 31.7546 10.1572C25.8151 10.1572 21.9324 13.7549 21.9324 20.2722V25.9999H15.3303V33.5149H21.9324V51.684C23.2574 51.892 24.6133 51.9999 25.9961 51.9999C27.3789 51.9999 28.7348 51.892 30.0598 51.684V33.5149H36.1188Z" fill="white"/>
</g>
<defs>
<clipPath id="clip0_25_21442">
<rect width="52" height="52" fill="white"/>
</clipPath>
</defs>
</svg>
