<svg width="23" height="61" viewBox="0 0 23 61" fill="none" xmlns="http://www.w3.org/2000/svg">
<path fill-rule="evenodd" clip-rule="evenodd" d="M3.76935 57.4619C2.65049 58.2132 1.51715 58.8055 0.376566 59.2477L0 57.8826C0.95592 57.4705 1.90822 56.9511 2.84965 56.3201C13.2706 49.3187 18.3145 31.3238 14.1179 16.1276C13.1656 12.6849 11.4855 9.63709 9.85611 7.13016C9.53023 6.63221 9.53023 6.19864 9.18624 5.73932C11.6955 8.65835 13.7341 12.5518 15.0376 17.2738C19.2343 32.4699 14.1867 50.4649 3.76935 57.4662V57.4619ZM6.40176 57.0928C8.27015 53.9462 10.8482 52.4781 14.9362 57.6809C10.3558 62.6947 7.91892 61.3382 6.36555 58.1488L12.7564 57.6251L6.40176 57.0928ZM10.6491 52.6413C11.5181 49.0311 13.4372 46.4769 18.3616 48.795C15.5518 55.3628 13.057 55.4615 10.8844 53.5513L16.4172 49.8553L10.6527 52.6413H10.6491ZM14.1215 45.2879C14.9218 41.9782 16.6779 39.6387 21.1932 41.7636C18.6187 47.7862 16.3267 47.8721 14.3352 46.1249L19.4081 42.738L14.1215 45.2879ZM16.4208 38.5741C16.7938 35.1442 18.2457 32.4098 23 33.3156C21.204 39.8447 18.941 40.5187 16.7358 39.3339L21.3489 34.7279L16.4208 38.5784V38.5741ZM17.2645 31.8818C16.6851 28.5893 17.3152 25.3269 22.0477 23.5068C22.1237 30.3751 20.1721 32.2381 17.7678 32.3883L20.8709 25.6875L17.2609 31.8818H17.2645ZM17.3586 25.0307C16.1891 22.601 16.0442 19.6906 19.6688 16.2221C21.157 21.7596 19.8896 24.0949 17.8909 25.2324L19.1256 18.4886L17.3586 25.035V25.0307ZM15.961 18.2911C14.7298 16.3938 14.3605 13.904 17.2464 10.2896C19.017 14.8184 18.1009 17.0506 16.4425 18.3727L16.9603 12.3372L15.9573 18.2911H15.961ZM14.2265 12.7622C12.7818 11.5345 12.0105 9.47825 14.002 5.28C16.3955 8.6283 15.9537 10.912 14.6792 12.6591L14.0998 7.17738L14.2265 12.7579V12.7622ZM11.7535 7.77406C10.4608 7.22889 9.58453 5.87669 10.5839 2.14205C12.8977 4.04371 12.8578 5.90244 12.0938 7.57659L10.9134 3.56293L11.7535 7.77406ZM8.88932 5.52898C7.57855 5.07395 6.65522 3.78615 7.53148 0C9.91404 1.73425 9.93576 3.58869 9.22606 5.31005L7.90806 1.39083L8.88932 5.52898ZM7.55321 5.33152C7.08611 3.53288 6.07588 2.38244 3.52314 4.048C5.01133 7.20313 6.31485 7.02284 7.43734 5.82518L4.54061 4.41717L7.55321 5.33152ZM9.87059 9.17776C9.39987 7.37913 8.39325 6.22869 5.84051 7.89426C7.32871 11.0494 8.62861 10.8691 9.75471 9.67143L6.85799 8.26343L9.87059 9.17348V9.17776ZM12.1409 12.8223C11.6738 11.0236 10.6636 9.87318 8.11083 11.5387C9.59902 14.6982 10.8989 14.5136 12.025 13.3159L9.1283 11.9079L12.1409 12.8223ZM13.9695 18.4156C13.85 16.1276 12.9773 14.3419 9.75471 15.1017C10.7143 19.4201 12.2061 19.8022 13.7269 18.9308L10.8084 15.9903L13.9695 18.4113V18.4156ZM14.7371 25.6059C15.2875 23.1419 14.9399 20.7552 11.5036 19.6262C11.1958 24.713 12.5718 26.0008 14.346 26.0051L12.2966 21.1887L14.7407 25.6059H14.7371ZM14.165 33.7405C15.3454 31.4525 15.6134 28.7825 12.4559 25.8076C10.841 30.9589 11.8911 33.0237 13.6689 33.9509L12.8506 27.851L14.165 33.7405ZM12.1952 41.8108C13.8319 39.3167 14.4221 36.1702 10.9967 31.929C8.55258 37.7671 9.58092 40.4672 11.5869 41.9567L11.2502 34.4617L12.1952 41.8065V41.8108ZM8.4005 49.1212C10.421 47.314 11.5797 44.4594 9.13193 38.9948C5.71017 43.764 6.17726 46.8032 7.79219 49.0311L8.88932 41.5704L8.39687 49.1212H8.4005ZM3.55211 54.148C5.85863 52.5554 7.33595 49.6836 5.21048 43.3647C1.15868 47.8978 1.3868 51.259 2.91483 53.9419L4.7289 46.0949L3.55211 54.148Z" fill="white"/>
</svg>
