<svg width="23" height="61" viewBox="0 0 23 61" fill="none" xmlns="http://www.w3.org/2000/svg">
<path fill-rule="evenodd" clip-rule="evenodd" d="M19.23 57.4635C8.80743 50.462 3.76272 32.4665 7.96001 17.27C9.26374 12.5479 11.3062 8.6543 13.8123 5.73519C13.4683 6.19452 13.4647 6.62809 13.1423 7.12606C11.5127 9.62877 9.83231 12.681 8.87986 16.1238C4.68257 31.3203 9.73091 49.3158 20.1499 56.3174C21.0915 56.9484 22.0439 57.4678 23 57.8799L22.6234 59.2451C21.4826 58.8029 20.3491 58.2105 19.23 57.4592V57.4635ZM16.5972 57.0944L10.2415 57.6267L16.6334 58.1504C15.0798 61.3399 12.6426 62.6922 8.06141 57.6825C12.1501 52.4796 14.7285 53.9477 16.5972 57.0944ZM12.3492 52.6427L6.58384 49.8567L12.1175 53.5528C9.94457 55.4588 7.44576 55.3643 4.63911 48.7963C9.5607 46.4782 11.4801 49.0325 12.3529 52.6427H12.3492ZM8.87624 45.2891L3.58888 42.7392L8.66257 46.1262C6.67076 47.8734 4.38199 47.7875 1.8035 41.7647C6.31586 39.6398 8.07589 41.9794 8.87624 45.2891ZM6.5766 38.5752L1.64777 34.7245L6.26153 39.3307C4.05968 40.5198 1.79625 39.8416 0 33.3122C4.755 32.4107 6.20721 35.1409 6.58022 38.5709L6.5766 38.5752ZM5.7328 31.8827L2.12219 25.6882L5.22579 32.3892C2.82475 32.239 0.869155 30.3759 0.945206 23.5074C5.6821 25.3276 6.30861 28.5901 5.72918 31.8827H5.7328ZM5.63864 25.0314L3.87136 18.4848L5.10628 25.2288C3.10723 24.0955 1.83971 21.7602 3.32814 16.2182C6.95323 19.6911 6.80838 22.6016 5.63864 25.0271V25.0314ZM7.03653 18.2917L6.03338 12.3375L6.55125 18.3732C4.89262 17.051 3.98 14.8188 5.74728 10.2899C8.6336 13.9087 8.26421 16.3985 7.03291 18.2917H7.03653ZM8.77122 12.7625L8.89797 7.18187L8.31853 12.6638C7.04377 10.9166 6.60558 8.63284 8.99575 5.28445C10.9839 9.48281 10.2162 11.5391 8.77122 12.7668V12.7625ZM11.2447 7.77428L12.0849 3.56303L10.9043 7.5768C10.1401 5.90261 10.1003 4.04382 12.4144 2.14211C13.4139 5.87256 12.5376 7.22909 11.2447 7.77428ZM14.1093 5.52913L15.0907 1.39087L13.7725 5.3102C13.0627 3.58879 13.0844 1.73859 15.4673 0C16.3437 3.78626 15.4202 5.07839 14.1093 5.52913ZM15.4456 5.33167L18.4587 4.4173L15.5615 5.82534C16.6841 7.02303 17.9843 7.20333 19.4763 4.04812C16.9232 2.38251 15.9128 3.52869 15.4456 5.33167ZM13.1279 9.17802L16.1409 8.26795L13.2437 9.67599C14.3664 10.8694 15.6665 11.054 17.1586 7.89877C14.6054 6.23316 13.595 7.38363 13.1279 9.18232V9.17802ZM10.8572 12.8226L13.8703 11.9082L10.9731 13.3163C12.0957 14.514 13.3958 14.6943 14.8879 11.5391C12.3347 9.87346 11.3244 11.0239 10.8572 12.8226ZM9.02834 18.4161L12.1899 15.995L9.27098 18.9356C10.792 19.8027 12.284 19.425 13.2437 15.1064C10.0206 14.3466 9.15147 16.1324 9.02834 18.4204V18.4161ZM8.26059 25.6066L10.7051 21.1893L8.65533 26.0058C10.4262 26.0058 11.806 24.7137 11.4982 19.6267C8.06141 20.7557 7.71375 23.1425 8.26421 25.6066H8.26059ZM8.83278 33.7415L10.1474 27.8517L9.32892 33.9518C11.1071 33.0246 12.1573 30.9597 10.5421 25.8084C7.38419 28.7833 7.64856 31.4534 8.83278 33.7415ZM10.8029 41.812L11.7481 34.467L11.4113 41.9622C13.4176 40.4726 14.4461 37.7724 12.0016 31.9342C8.57566 36.1712 9.16596 39.3221 10.8029 41.8162V41.812ZM14.5982 49.1226L14.1057 41.5716L15.203 49.0325C16.8218 46.8045 17.2853 43.7652 13.863 38.9959C11.4185 44.4606 12.5738 47.3153 14.5946 49.1226H14.5982ZM19.4473 54.1495L18.2703 46.0962L20.0847 53.9434C21.613 51.2561 21.8411 47.8992 17.7887 43.3659C15.6629 49.685 17.1404 52.5569 19.4473 54.1495Z" fill="white"/>
</svg>
