<?xml version="1.0" encoding="UTF-8"?>
<svg id="_圖層_1" data-name="圖層 1" xmlns="http://www.w3.org/2000/svg" xmlns:xlink="http://www.w3.org/1999/xlink" viewBox="0 0 153 153">
  <defs>
    <style>
      .cls-1 {
        fill: none;
        stroke: #5b4433;
        stroke-linecap: round;
        stroke-miterlimit: 10;
        stroke-width: 2.23px;
      }

      .cls-2 {
        fill: #fff;
      }

      .cls-2, .cls-3, .cls-4 {
        stroke-width: 0px;
      }

      .cls-3 {
        fill: #5b4433;
      }

      .cls-5 {
        mask: url(#mask);
      }

      .cls-4 {
        fill: #f2cbb1;
      }
    </style>
    <mask id="mask" x="16.61" y="1.75" width="122.09" height="132.25" maskUnits="userSpaceOnUse">
      <g id="mask0_172_61" data-name="mask0 172 61">
        <path class="cls-2" d="m25.7,33.25l13.83-9.64L58.2,7.25l24.5-5.5,29.5,9.5,10.74,20.34,3.45,9.48,8.31,7.68,3,5.75,1,5.75-.5,6-2,4.5-12.29,10.53-6.98,8.06-.64-1.97-6.76,1.22-9.32,13.9-19.88-2.89-14.23,2.89-13.63,3.13-1.46,6.55-6.95-3.07-9.67-2-3.04,4.31-.89-4.61,3.93-15.05-5.37-17.91-9.33-10.59-3.09-14.65,9.09-15.35Z"/>
      </g>
    </mask>
  </defs>
  <path class="cls-4" d="m15.64,105.26l3.39,3.83,19.03,1.74,9.84-.89s6.57,1.72,5.16.89-1.22,6.88-1.22,6.88l4.98,6.36,14.22,2.32,2.1-.9,6.25.38,5.36-2.06,4.7-.65,10.73-1.56,7.6-3.9,4.26-2.59,4.84-1.76,5.61-5.33,8.13-3.64-6.59-2.59,1.64-3.5,4.76-5.22-14.77,1.7-.54-1.78.94-5.31-10.78,3.05-4.53,2.26-4.24-2.26h-5.84l-3.82,3.74-.59-4.6-9.37-.37-3.74.56-6.23,2.16-9.56,2.55-4.63,2.11-.88,6.97.26,4.89-10.33-.91-11.82-.48-12.92-3.5-1.38,1.4Z"/>
  <polygon class="cls-2" points="35.02 34.37 47.96 30.83 55.82 15.35 67.7 8.32 84.26 6.25 103.9 12.06 115.64 24.94 116.67 36.25 114.72 46.32 120.88 45.21 129.64 46.32 136.03 55.88 134.25 67.41 125.96 75.74 117.75 79.8 114.72 87.11 105.25 90.74 100.72 92.99 96.48 90.74 87.79 92.99 82.8 90.07 73.13 90.07 68.86 91.79 60.97 93.57 52.71 95.64 51.83 99.87 53.05 110.82 39.82 107.15 38.06 80.96 35.69 70.96 24.73 63.93 21.44 49.43 27.54 37.8 35.02 34.37"/>
  <path class="cls-3" d="m43.19,107.67c2.1.3,6.07.54,8.19.44-.22-.7-.35-1.21-.54-1.68-.95-2.39-1.32-4.83-.89-7.41.51-3.08,2.29-4.88,5.28-5.49,2.53-.52,5.07-1.05,7.63-1.38,2.51-.32,4.66-1.37,6.77-2.66.97-.59,1.92-1.88,3.29-.54.1.1.51-.11.76-.19.6-.17,1.21-.49,1.8-.49,3.64.06,7.28.3,10.75,1.61.62.24,1.11.83,1.94,1.46,3.96-1.19,8.38-2.51,12.62.11,5.22-2.73,10.72-3.94,16.33-4.71.37-.05.75.1,1.35.19-.6,1.21-1.21,2.21-1.59,3.29-.38,1.1-.54,2.26-.79,3.34,4.1-.78,8.06-1.56,12.02-2.27.89-.16,1.81-.24,2.7-.16,1.92.17,2.42,1.16,1.53,2.88-1.18,2.27-2.85,4.13-4.82,5.76-.57.48-1.13.95-2.1,1.8,2.8.52,5.12.92,7.42,1.4.48.09,1.15.38,1.32.76.3.73-.37,1.13-.95,1.37-2.66,1.07-5.31,2.16-8,3.12-1.27.46-2.37,1.07-3.4,1.97-2.48,2.15-4.93,4.39-8.22,5.28-.25.06-.67.22-.7.38-.3,1.7-1.78,1.61-2.93,1.89-2.62.65-5.04,1.72-7.22,3.29-1.46,1.05-3.12,1.59-4.87,1.85-3.72.52-7.46.97-11.16,1.54-1.02.16-2.04.51-2.97.94-2.61,1.18-5.33,1.64-8.17,1.46-1.02-.06-2.08.06-3.1.21-2.11.32-4.18,0-6.25-.41-1.91-.4-3.85-.87-5.79-.97-7.09-.37-10.7-7-9.89-12.18.11-.75.13-1.53.22-2.66-2.72.14-5.22.29-8.11.45.6.41.87.59,1.13.76,2.13,1.46,2.88,3.48,2.5,6.03-.38,2.58-1.67,4.42-4.1,5.39-2.43.97-4.82.1-6.07-2.21-1.32-2.4-.19-5.09,2.45-5.85.99-.27,1.86.06,2.13.81.29.76-.16,1.53-1.14,1.92-.32.13-.68.17-1.02.29-.25.08-.51.19-.75.29-.08,1.59.45,2.8,1.51,3.13,1.32.41,2.51,0,3.48-.94,2.21-2.1,1.62-6.15-1.08-7.51-.92-.46-1.97-.67-2.97-1-4.98-1.64-10.21-.54-15.26-1.43-1.65-.29-3.35-.33-4.99-.67-2.54-.51-3.66-1.96-3.77-4.56,0-.35.03-.7,0-1.05-.11-1.91.51-2.54,2.35-2.37.48.05.97.16,1.43.35,5.18,2.08,10.67,2.83,16.15,3.64,1.73.25,3.45.59,5.18.87.62.1,2.8.54,3.42.52m22.37,2.93c.29,1.46.64,2.74.76,4.04.22,2.53,1.4,4.52,3.2,6.2.86.81,1.76,1.59,2.64,2.4,1.59,1.5,3.51,2.1,5.61,1.8,1.57-.24,3.16-.67,4.6-1.32,1.94-.89,3.88-1.57,6.04-1.53.59,0,1.18-.13,2.18-.26-.97-.76-1.61-1.29-2.26-1.78-1.8-1.32-3.21-2.91-3.74-5.15-.16-.67-.45-1.34-.78-1.96-.92-1.7-2.02-2.91-4.34-2.75-3.9.27-7.84.14-11.75.19-.68,0-1.37.08-2.15.11h-.02Zm18.63-19.11c-.11-.11-.19-.27-.3-.29-4.48-.65-8.92-1.14-12.61,2.4-.35.33-.78.59-1.18.87-.91.62-1.21,1.45-1.1,2.53.41,3.7.38,7.36-2.16,10.86,2.99.03,5.63,0,8.27.1,2.91.11,5.93-2.05,5.64-5.82-.3-4.02,1.02-7.52,3.45-10.65h-.02Zm30.85-2.62c-.78.13-1.42.1-1.97.33-3.98,1.69-8.17,2.78-12.04,4.87-2.69,1.45-4.01,3.51-4.56,6.33-.37,1.81-.73,3.62-1.11,5.57,3.99-.43,8.01-.91,11.62-2.53,3.29-1.48,5.98-3.88,6.6-7.85.33-2.13.91-4.23,1.46-6.71Zm-47.41,4.71c-1.96.52-3.47,1.02-5.02,1.35-2.26.48-4.53.86-6.79,1.24-1.37.22-2.35.91-2.77,2.23-1.03,3.23-1.05,6.42.22,9.64,3.18-.1,6.25-.16,9.32-.32,1.53-.08,3.66-1.91,3.86-3.4.25-1.86.46-3.75.35-5.63-.1-1.7-.24-3.34.84-5.1h-.02Zm39.32,22.59c-.11-.14-.17-.3-.29-.35-3.08-1.18-5.85-2.72-8.14-5.28-1.3-1.46-3.24-2.37-5.58-1.68-1.99.59-4.12.7-6.19,1.03-.37.06-.7.21-.84.25.32,1.46.76,2.73.84,4.02.1,1.53.75,2.69,1.8,3.66.92.86,1.94,1.59,2.94,2.34,2.91,2.19,6.01,1.56,8.9.21,2.29-1.08,4.31-2.75,6.53-4.2h.02Zm21.72-11.72c-4.39-1.72-8.78-1.99-13.26-1.1-1.13.22-2.34.19-3.42.53-3.01.92-5.98,1.97-8.95,2.96-.78.25-1.56.46-2.37.72,2.24,3.75,2.54,4.04,6.26,6.15,2.56,1.45,5.57,1.22,7.78-.67,1.7-1.45,3.39-2.94,4.96-4.51,1.43-1.43,3.07-2.42,5.01-2.93,1.34-.35,2.67-.75,3.99-1.11v-.03Zm-29.97-12.16c-1.78-.6-3.28-.65-4.77-.16-2.39.78-4.71,1.89-7.15,2.35-2.51.48-3.28,2.04-3.61,4.15-.14.89-.16,1.8-.16,2.7,0,1.76-.16,3.5-1,5.09-.17.32-.27.68-.57,1.42,3.32-.38,6.31-.62,9.25-1.1,1.46-.24,2.43-1.35,2.81-2.81.21-.81.32-1.64.4-2.48.22-2.35,1.05-4.48,2.46-6.38.67-.89,1.43-1.7,2.32-2.77l.02-.02Zm-27.28,33.2c.05-.14.1-.29.14-.41-1.08-.97-2.18-1.92-3.24-2.91-2.16-1.99-3.85-4.28-4.21-7.27-.19-1.61-.78-2.94-1.91-4.2-1.73-.03-3.55-.11-5.36-.1-1.24,0-2.48.14-3.83.22-.11,1.16-.25,2.18-.32,3.21-.05.62-.02,1.26.05,1.88.37,3.91,3.32,6.98,7.19,7.62,2.69.45,5.34.99,8.03,1.46,1.14.21,2.32.33,3.47.49Zm41.58-23.69c3.13-.84,6.15-1.21,9.24-1.05.32.02.75-.05.95-.24,2.07-1.88,4.12-3.77,6.11-5.71.44-.43.68-1.08,1.07-1.72-.43-.05-.57-.1-.7-.08-4.68.59-9.1,2.07-13.5,3.63-.33.13-.65.49-.84.83-.78,1.38-1.49,2.78-2.34,4.34h.02Zm-95.94,3.48s-.11.19-.08.3c.33,1.83,1.11,2.48,3.61,2.75,5.28.57,10.56.94,15.87.67.4-.02.81-.14,1.56-.3-7.25-1.19-14.1-2.32-20.96-3.44v.02Z"/>
  <path class="cls-3" d="m70.13,113.86c1.91-1.32,7.27-1.51,9.62-.35-2.48,1.3-7.85,1.49-9.62.35Z"/>
  <path class="cls-3" d="m75.22,93.98c-.87,1.1-1.92,2.04-2.48,3.21-.57,1.21-.64,2.64-.97,4.23-1.81-3.78-.11-7.27,3.47-7.44h-.02Z"/>
  <path class="cls-3" d="m101.9,95.83c-1.1,1.62-2.19,3.24-3.32,4.93-.56-2.07.72-4.23,3.32-4.93Z"/>
  <path class="cls-3" d="m59.08,96.94c-.95.43-1.73.7-2.45,1.1-.72.4-1.35.92-2.08,1.43.68-2.07,1.89-2.77,4.53-2.54v.02Z"/>
  <path class="cls-3" d="m97.78,111.98c-2.67,1.27-5.15,1.61-7.93,1.21,1.35-1.54,5.33-2.16,7.93-1.21Z"/>
  <path class="cls-3" d="m105.57,108.77c2.32-1.38,4.79-2.27,7.63-2.58-1.07,2.04-4.63,3.23-7.63,2.58Z"/>
  <path class="cls-3" d="m85.52,102.74c-1.19-2.8-.27-5.1,2.27-5.74-.76,1.91-1.51,3.82-2.27,5.74Z"/>
  <path class="cls-3" d="m61.73,113.54c-1.89.88-3.82,1-5.91.49,1.4-1.1,3.98-1.35,5.91-.49Z"/>
  <path class="cls-3" d="m117.75,98.21c1.86-1.42,3.94-2.32,6.26-2.58-1.68,1.81-3.82,2.54-6.26,2.58Z"/>
  <g class="cls-5">
    <g>
      <path class="cls-3" d="m70.16,133.65c-.4-.16-1.67-.18-2.08-.21-4.58-.33-8.86-1.81-13.01-3.43-4.01-1.56-8.06-3.51-11.72-5.68-4.88-2.35-5.47-2.16-6.09-3.45-.76-.92-.64-2.34-.86-4.12-.13-4.06.08,2.7-.05-1.35-.24-7.41-.27-14.83-.35-22.26-.05-4.13.19-8.25-.03-12.39-.22-4.29-2.37-9.02-6.74-11.05-3.31-1.53-5.61-3.82-6.92-6.95-.6-1.45-1.26-2.89-1.94-4.32-2.32-4.9-1.42-10.91.92-15.61,1.16-2.34,2.64-4.56,4.23-6.68,2.27-3.04,4.94-3.66,8.57-5.12,3.45-1.4,6.85-1.26,10.7-1.53,1.1-.08,1.43-.64,1.61-1.45.32-1.37.57-2.75,1.02-4.07,2.35-6.88,7.17-11.81,14.34-14.99,7.11-3.16,14.6-4.2,22.55-3.83,5.44.25,10.62,1.27,15.73,2.97,5.57,1.86,10.03,5.09,13.24,9.51,2.13,2.94,3.66,6.25,5.23,9.48.95,1.96,1.03,4.1.83,6.22-.32,3.26-.67,6.52-1.03,10.03,2.37-.7,4.8-.38,7.24.35,12.45,3.78,16.82,18.59,8.79,27.75-3.05,3.48-6.95,6.03-11.43,7.93-.99.41-1.86,1.21-2.53,2-3.72,4.52-6.47,9.21-7.15,14.8-1.45,7.77-2.34,15.06-3.78,22.56-.27,1.46-.32,1.57-.37,1.91-.38,2.4-.79,5.84-1.73,7.39-1.22,1.7-2.86,2.43-4.71,3.47-1.19.57-11.69,2.67-18.59,2.45-.97-.03-3.83-.05-4.82.02-3.56-.37-5.56,0-9.13-.37l.06.02Zm37.16-71.26c.17.05.35.08.54.13,1.26,8.24-3.35,14.07-9.6,19.4.97.16,1.88.27,2.72.11,3.72-.7,7.41-1.46,11.11-2.19,3.37-.67,6.46-1.89,9.33-3.56,1.49-.86,3.02-1.67,4.48-2.58,5.18-3.23,8.36-7.43,8.14-13.44-.22-6.42-1.91-10.18-8.57-12.93-2.37-.94-3.83-1.27-5.28-1.14-1.59.13-2.77.3-4.37.87-2.08.75-3.88-.97-3.29-2.93.16-.54.4-1.05.59-1.59,1.42-3.96,2.11-8.14,1.57-12.21-.81-6.25-4.17-11.64-9.6-15.8-4.47-3.43-9.87-4.88-15.49-5.63-8.73-1.16-17.17-.76-25.23,2.75-8.06,3.5-12.43,9.25-13.67,17.12-.41,2.62-1.61,3.83-4.61,4.05-3.31.24-6.19-.11-9.24.87-7.71,2.48-10.91,6.71-13.12,13.42-.84,2.56-1.53,6.3-.51,8.92.4,2.8,1.53,4.61,2.53,6.84.75,1.64,1.8,3.12,3.55,4.13,2.18,1.26,4.47,2.42,6.39,3.94,1.73,1.37,3.5,3.53,5.57,4.2,1.69.56,3.37,1.13,5.06,1.72,3.48,1.22,7.08,2.07,10.83,2.4-.43-.52-.95-.91-1.45-1.32-2.29-1.94-4.69-3.82-5.74-6.61-1.27-3.39-1.62-6.87-1.62-10.38,0-2.19.62-4.29,1.69-6.25.38-.72,1.05-1.32,1.59-1.97.27.41.29.64.22.83-1.51,4.82-1.22,9.67.05,14.55.6,2.31,1.62,4.34,3.43,6.15,3.53,3.55,7.35,6.39,12.99,6.07.16,0,.32,0,.46.03,7.98.94,15.98.91,23.99.78.65,0,1.42-.16,1.91-.49,5.82-3.94,10.06-8.89,11.75-15.45.24-.94.59-1.84.91-2.77v-.05Zm-67.83,14.56c.24,2.81.6,5.37.64,7.95.08,6.58-.06,13.15,0,19.73.05,4.48.33,8.95.46,13.44.05,1.27.38,2.34,1.78,2.96,4.13,1.86,8.12,4.1,12.43,5.53,5.87,1.94,12.07,2.91,18.27,3.55,1.54.16,3.12.03,4.66.24,6.25.83,12.43.29,18.59-.41,2.96-.33,5.26-.46,8.73-2.18.54-1.89.49-2.8.78-4.64.16-1.26.1-2.69.32-3.93.81-4.55,1.69-9.1,2.45-13.64.64-3.72,1.11-7.47,1.75-11.21.73-4.32,2.1-8.44,5.06-11.97.11-.13.11-.32.24-.65-.8.14-1.38.25-1.97.37-3.86.75-7.68,1.64-11.58,2.21-4.66.68-9.4,1.32-14.14.46-2.54-.46-5.07-.57-7.63-.68-1-.05-2.02.03-3.02-.05-5.6-.51-11.18-1.11-16.77-1.57-3.99-.32-7.84-1.11-11.59-2.43-3.12-1.1-6.3-2.05-9.43-3.07l-.02.02Z"/>
      <path class="cls-3" d="m33.19,49.43c-.48,2.13-1.56,3.66-2.8,5.25-1.16-.78-.92-1.46-.54-2.16.68-1.24,1.13-2.69,3.34-3.08Z"/>
      <path class="cls-3" d="m63.18,18.19c-1.1,1.83-2.77,3.02-5.15,3.99.06-.67,0-1.03.16-1.26.84-1.11,3.13-2.45,5.01-2.72l-.02-.02Z"/>
      <path class="cls-3" d="m31.7,57.94c-.64-2.07-.17-2.97,1.92-4.12,1.16,1.51.48,3.08-1.92,4.12Z"/>
      <path class="cls-3" d="m60.96,24.04c-.67.94-1.13,1.72-1.73,2.37-.21.22-.91.32-1.22.17-.32-.13-.62-.62-.65-.97-.11-.92,1.38-2.42,2.4-2.39.37,0,.72.46,1.22.81h-.02Z"/>
      <path class="cls-3" d="m42.99,93.97c-.25-1.54,1.13-4.13,2.5-4.45.33-.08,1.21.51,1.19.56-.41,1.02-.83,2.05-1.45,2.97-.46.68-1.1,1.42-2.26.92h.02Z"/>
      <path class="cls-3" d="m42.03,90.06c-.1-.54-.4-1.08-.22-1.42.59-1.11,1.26-2.19,2.07-3.16.22-.27,1.05-.13,1.59-.17.03.45.29,1.03.08,1.3-.97,1.21-1.29,2.99-3.51,3.47v-.02Z"/>
      <path class="cls-3" d="m45.5,94.78c.21.33.4.51.4.7.05.75-.19,1.4-1.05,1.62-.19.05-.73-.27-.73-.3.16-.56.37-1.11.64-1.62.08-.14.37-.21.75-.4Z"/>
    </g>
  </g>
  <path class="cls-3" d="m51.83,141.76c2.93,0,5.31-1.72,5.31-3.85s-2.38-3.85-5.31-3.85-5.31,1.72-5.31,3.85,2.38,3.85,5.31,3.85Z"/>
  <path class="cls-1" d="m55.95,137.04s1.13-2.46-4.36-2.93c-5.5-.46-8.38,2.93-8.38,2.93"/>
  <path class="cls-1" d="m85,139.27s1.72-2.43,5.84-2.75c4.12-.32,8.54,1.38,8.54,1.38"/>
  <path class="cls-1" d="m64.8,147.82s.94,2,5.72,2.08c4.79.08,6.34-2.54,6.34-2.54"/>
</svg>