<svg width="80" height="96" viewBox="0 0 80 96" fill="none" xmlns="http://www.w3.org/2000/svg">
<path d="M17.9279 68.19C19.2479 68.38 21.7479 68.53 23.0779 68.47C22.9379 68.03 22.8579 67.71 22.7379 67.41C22.1379 65.91 21.9079 64.37 22.1779 62.75C22.4979 60.81 23.6179 59.68 25.4979 59.3C27.0879 58.97 28.6879 58.64 30.2979 58.43C31.8779 58.23 33.2279 57.57 34.5579 56.76C35.1679 56.39 35.7679 55.58 36.6279 56.42C36.6879 56.48 36.9479 56.35 37.1079 56.3C37.4879 56.19 37.8679 55.99 38.2379 55.99C40.5279 56.03 42.8179 56.18 44.9979 57C45.3879 57.15 45.6979 57.52 46.2179 57.92C48.7079 57.17 51.4879 56.34 54.1579 57.99C57.4379 56.27 60.8979 55.51 64.4279 55.03C64.6579 55 64.8979 55.09 65.2779 55.15C64.8979 55.91 64.5179 56.54 64.2779 57.22C64.0379 57.91 63.9379 58.64 63.7779 59.32C66.3579 58.83 68.8479 58.34 71.3379 57.89C71.8979 57.79 72.4779 57.74 73.0379 57.79C74.2479 57.9 74.5579 58.52 73.9979 59.6C73.2579 61.03 72.2079 62.2 70.9679 63.22C70.6079 63.52 70.2579 63.82 69.6479 64.35C71.4079 64.68 72.8679 64.93 74.3179 65.23C74.6179 65.29 75.0379 65.47 75.1479 65.71C75.3379 66.17 74.9179 66.42 74.5479 66.57C72.8779 67.24 71.2079 67.93 69.5179 68.53C68.7178 68.82 68.0279 69.2 67.3779 69.77C65.8179 71.12 64.2779 72.53 62.2079 73.09C62.0479 73.13 61.7879 73.23 61.7679 73.33C61.5779 74.4 60.6479 74.34 59.9279 74.52C58.2779 74.93 56.7579 75.6 55.3879 76.59C54.4679 77.25 53.4279 77.59 52.3279 77.75C49.9879 78.08 47.6379 78.36 45.3079 78.72C44.6679 78.82 44.0279 79.04 43.4379 79.31C41.7979 80.05 40.0879 80.34 38.2979 80.23C37.6579 80.19 36.9879 80.27 36.3479 80.36C35.0179 80.56 33.7179 80.36 32.4179 80.1C31.2179 79.85 29.9979 79.55 28.7779 79.49C24.3179 79.26 22.0479 75.09 22.5579 71.83C22.6279 71.36 22.6379 70.87 22.6979 70.16C20.9879 70.25 19.4179 70.34 17.5979 70.44C17.9779 70.7 18.1479 70.81 18.3079 70.92C19.6479 71.84 20.1179 73.11 19.8779 74.71C19.6379 76.33 18.8279 77.49 17.2979 78.1C15.7679 78.71 14.2679 78.16 13.4779 76.71C12.6479 75.2 13.3579 73.51 15.0179 73.03C15.6379 72.86 16.1879 73.07 16.3579 73.54C16.5379 74.02 16.2579 74.5 15.6379 74.75C15.4379 74.83 15.2079 74.86 14.9979 74.93C14.8379 74.98 14.6779 75.05 14.5279 75.11C14.4779 76.11 14.8079 76.87 15.4779 77.08C16.3079 77.34 17.0579 77.08 17.6679 76.49C19.0579 75.17 18.6879 72.62 16.9879 71.77C16.4079 71.48 15.7479 71.35 15.1179 71.14C11.9879 70.11 8.69786 70.8 5.51786 70.24C4.47786 70.06 3.40786 70.03 2.37786 69.82C0.777857 69.5 0.0778576 68.59 0.00785758 66.95C0.00785758 66.73 0.0278576 66.51 0.00785758 66.29C-0.0621424 65.09 0.327857 64.69 1.48786 64.8C1.78786 64.83 2.09786 64.9 2.38786 65.02C5.64786 66.33 9.09786 66.8 12.5479 67.31C13.6379 67.47 14.7179 67.68 15.8079 67.86C16.1979 67.92 17.5679 68.2 17.9579 68.19M32.0279 70.03C32.2079 70.95 32.4279 71.75 32.5079 72.57C32.6479 74.16 33.3879 75.41 34.5179 76.47C35.0579 76.98 35.6279 77.47 36.1779 77.98C37.1779 78.92 38.3879 79.3 39.7079 79.11C40.6979 78.96 41.6979 78.69 42.5979 78.28C43.8179 77.72 45.0379 77.29 46.3979 77.32C46.7679 77.32 47.1379 77.24 47.7679 77.16C47.1579 76.68 46.7579 76.35 46.3479 76.04C45.2179 75.21 44.3279 74.21 43.9979 72.8C43.8979 72.38 43.7179 71.96 43.5079 71.57C42.9279 70.5 42.2379 69.74 40.7779 69.84C38.3279 70.01 35.8479 69.93 33.3879 69.96C32.9579 69.96 32.5279 70.01 32.0379 70.03H32.0279ZM43.7479 58.01C43.6779 57.94 43.6279 57.84 43.5579 57.83C40.7379 57.42 37.9479 57.11 35.6279 59.34C35.4079 59.55 35.1379 59.71 34.8879 59.89C34.3179 60.28 34.1279 60.8 34.1979 61.48C34.4579 63.81 34.4379 66.11 32.8379 68.31C34.7179 68.33 36.3779 68.31 38.0379 68.37C39.8679 68.44 41.7679 67.08 41.5879 64.71C41.3979 62.18 42.2279 59.98 43.7579 58.01H43.7479ZM63.1479 56.36C62.6579 56.44 62.2579 56.42 61.9079 56.57C59.4079 57.63 56.7679 58.32 54.3379 59.63C52.6479 60.54 51.8179 61.84 51.4679 63.61C51.2379 64.75 51.0079 65.89 50.7679 67.11C53.2779 66.84 55.8079 66.54 58.0779 65.52C60.1479 64.59 61.8379 63.08 62.2279 60.58C62.4379 59.24 62.7979 57.92 63.1479 56.36ZM33.3279 59.32C32.0979 59.65 31.1479 59.96 30.1679 60.17C28.7479 60.47 27.3179 60.71 25.8979 60.95C25.0379 61.09 24.4179 61.52 24.1579 62.35C23.5079 64.38 23.4979 66.39 24.2979 68.41C26.2979 68.35 28.2279 68.31 30.1579 68.21C31.1179 68.16 32.4579 67.01 32.5879 66.07C32.7479 64.9 32.8779 63.71 32.8079 62.53C32.7479 61.46 32.6579 60.43 33.3379 59.32H33.3279ZM58.0579 73.53C57.9879 73.44 57.9479 73.34 57.8779 73.31C55.9379 72.57 54.1979 71.6 52.7579 69.99C51.9379 69.07 50.7179 68.5 49.2479 68.93C47.9979 69.3 46.6579 69.37 45.3579 69.58C45.1279 69.62 44.9179 69.71 44.8279 69.74C45.0279 70.66 45.3079 71.46 45.3579 72.27C45.4179 73.23 45.8279 73.96 46.4879 74.57C47.0679 75.11 47.7079 75.57 48.3379 76.04C50.1679 77.42 52.1179 77.02 53.9379 76.17C55.3779 75.49 56.6479 74.44 58.0479 73.53H58.0579ZM71.7179 66.16C68.9579 65.08 66.1979 64.91 63.3779 65.47C62.6679 65.61 61.9079 65.59 61.2279 65.8C59.3379 66.38 57.4679 67.04 55.5979 67.66C55.1079 67.82 54.6179 67.95 54.1079 68.11C55.5179 70.47 55.7079 70.65 58.0479 71.98C59.6579 72.89 61.5479 72.75 62.9379 71.56C64.0079 70.65 65.0679 69.71 66.0579 68.72C66.9579 67.82 67.9879 67.2 69.2079 66.88C70.0479 66.66 70.8879 66.41 71.7179 66.18V66.16ZM52.8679 58.51C51.7479 58.13 50.8079 58.1 49.8679 58.41C48.3679 58.9 46.9079 59.6 45.3679 59.89C43.7879 60.19 43.3079 61.17 43.0979 62.5C43.0079 63.06 42.9979 63.63 42.9979 64.2C42.9979 65.31 42.8979 66.4 42.3679 67.4C42.2579 67.6 42.1979 67.83 42.0079 68.29C44.0979 68.05 45.9779 67.9 47.8279 67.6C48.7479 67.45 49.3579 66.75 49.5979 65.83C49.7279 65.32 49.7979 64.8 49.8479 64.27C49.9879 62.79 50.5079 61.45 51.3979 60.26C51.8179 59.7 52.2979 59.19 52.8579 58.52L52.8679 58.51ZM35.7079 79.39C35.7379 79.3 35.7679 79.21 35.7979 79.13C35.1179 78.52 34.4279 77.92 33.7579 77.3C32.3979 76.05 31.3379 74.61 31.1079 72.73C30.9879 71.72 30.6179 70.88 29.9079 70.09C28.8179 70.07 27.6779 70.02 26.5379 70.03C25.7579 70.03 24.9779 70.12 24.1279 70.17C24.0579 70.9 23.9679 71.54 23.9279 72.19C23.8979 72.58 23.9179 72.98 23.9579 73.37C24.1879 75.83 26.0479 77.76 28.4779 78.16C30.1679 78.44 31.8379 78.78 33.5279 79.08C34.2479 79.21 34.9879 79.29 35.7079 79.39ZM61.8579 64.49C63.8279 63.96 65.7279 63.73 67.6679 63.83C67.8679 63.84 68.1379 63.8 68.2679 63.68C69.5679 62.5 70.8579 61.31 72.1079 60.09C72.3879 59.82 72.5379 59.41 72.7779 59.01C72.5079 58.98 72.4179 58.95 72.3379 58.96C69.3979 59.33 66.6179 60.26 63.8479 61.24C63.6379 61.32 63.4379 61.55 63.3179 61.76C62.8279 62.63 62.3779 63.51 61.8479 64.49H61.8579ZM1.51786 66.68C1.51786 66.68 1.44786 66.8 1.46786 66.87C1.67786 68.02 2.16786 68.43 3.73786 68.6C7.05786 68.96 10.3779 69.19 13.7179 69.02C13.9679 69.01 14.2279 68.93 14.6979 68.83C10.1379 68.08 5.82786 67.37 1.51786 66.67V66.68Z" fill="white"/>
<path d="M34.8678 72.08C36.0678 71.25 39.4378 71.13 40.9178 71.86C39.3578 72.68 35.9778 72.8 34.8678 72.08Z" fill="white"/>
<path d="M38.0679 59.58C37.5179 60.27 36.8579 60.86 36.5079 61.6C36.1479 62.36 36.1079 63.26 35.8979 64.26C34.7579 61.88 35.8279 59.69 38.0779 59.58H38.0679Z" fill="white"/>
<path d="M54.8479 60.74C54.1579 61.76 53.4679 62.78 52.7579 63.84C52.4079 62.54 53.2079 61.18 54.8479 60.74Z" fill="white"/>
<path d="M27.9179 61.44C27.3179 61.71 26.8279 61.88 26.3779 62.13C25.9279 62.38 25.5279 62.71 25.0679 63.03C25.4979 61.73 26.2579 61.29 27.9179 61.43V61.44Z" fill="white"/>
<path d="M52.2578 70.9C50.5778 71.7 49.0178 71.91 47.2678 71.66C48.1178 70.69 50.6178 70.3 52.2578 70.9Z" fill="white"/>
<path d="M57.1578 68.88C58.6178 68.01 60.1678 67.45 61.9578 67.26C61.2878 68.54 59.0478 69.29 57.1578 68.88Z" fill="white"/>
<path d="M44.5479 65.09C43.7979 63.33 44.3779 61.88 45.9779 61.48C45.4979 62.68 45.0279 63.88 44.5479 65.09Z" fill="white"/>
<path d="M29.5878 71.88C28.3978 72.43 27.1878 72.51 25.8678 72.19C26.7478 71.5 28.3678 71.34 29.5878 71.88Z" fill="white"/>
<path d="M64.8179 62.24C65.9879 61.35 67.2979 60.78 68.7579 60.62C67.6979 61.76 66.3579 62.22 64.8179 62.24Z" fill="white"/>
<mask id="mask0_125_2" style="mask-type:luminance" maskUnits="userSpaceOnUse" x="1" y="0" width="79" height="72">
<path d="M4.54776 20.78L15.6178 15.32L26.2678 2.46L42.2278 0L65.2978 6.73L68.0778 20.34L70.2478 26.3L77.1278 29.94L79.3678 38.59L77.1078 46.18L68.6878 51.59L64.2978 56.66L63.8978 55.42L59.6478 56.19L53.7878 64.93L41.2878 63.11L32.3378 64.93L23.7678 66.9L22.8478 71.02L18.4778 69.09L12.3978 67.83L10.4878 70.54L9.92776 67.64L8.02776 58.74L9.01776 46.91L1.75776 42.26L1.20776 31.04L4.54776 20.78Z" fill="white"/>
</mask>
<g mask="url(#mask0_125_2)">
<path d="M34.8877 84.53C34.6377 84.43 33.8377 84.42 33.5777 84.4C30.6977 84.19 28.0077 83.26 25.3977 82.24C22.8777 81.26 20.3277 80.03 18.0277 78.67C14.9577 77.19 14.5877 77.31 14.1977 76.5C13.7177 75.92 13.7977 75.03 13.6577 73.91C13.5777 71.36 13.7077 75.61 13.6277 73.06C13.4777 68.4 13.4577 63.73 13.4077 59.06C13.3777 56.46 13.5277 53.87 13.3877 51.27C13.2477 48.57 11.8977 45.6 9.14772 44.32C7.06772 43.36 5.61772 41.92 4.79772 39.95C4.41772 39.04 4.00772 38.13 3.57772 37.23C2.11772 34.15 2.68772 30.37 4.15772 27.41C4.88772 25.94 5.81772 24.54 6.81772 23.21C8.24771 21.3 9.92772 20.91 12.2077 19.99C14.3777 19.11 16.5177 19.2 18.9377 19.03C19.6277 18.98 19.8377 18.63 19.9477 18.12C20.1477 17.26 20.3077 16.39 20.5877 15.56C22.0677 11.23 25.0977 8.13001 29.6077 6.13001C34.0777 4.14001 38.7877 3.49001 43.7877 3.72001C47.2077 3.88001 50.4677 4.52001 53.6777 5.59001C57.1777 6.76001 59.9877 8.79001 62.0077 11.57C63.3477 13.42 64.3077 15.5 65.2977 17.53C65.8977 18.76 65.9477 20.11 65.8177 21.44C65.6177 23.49 65.3977 25.54 65.1677 27.75C66.6577 27.31 68.1877 27.51 69.7177 27.97C77.5477 30.35 80.2977 39.66 75.2477 45.42C73.3277 47.61 70.8777 49.21 68.0577 50.41C67.4377 50.67 66.8877 51.17 66.4677 51.67C64.1277 54.51 62.3977 57.46 61.9677 60.98C61.0577 65.87 60.4977 70.45 59.5877 75.17C59.4177 76.09 59.3877 76.16 59.3577 76.37C59.1177 77.88 58.8577 80.04 58.2677 81.02C57.4977 82.09 56.4677 82.55 55.3077 83.2C54.5577 83.56 47.9577 84.88 43.6177 84.74C43.0077 84.72 41.2077 84.71 40.5877 84.75C38.3477 84.52 37.0877 84.75 34.8477 84.52L34.8877 84.53ZM58.2577 39.71C58.3677 39.74 58.4777 39.76 58.5977 39.79C59.3877 44.97 56.4877 48.64 52.5577 51.99C53.1677 52.09 53.7377 52.16 54.2677 52.06C56.6077 51.62 58.9277 51.14 61.2577 50.68C63.3777 50.26 65.3177 49.49 67.1277 48.44C68.0677 47.9 69.0277 47.39 69.9477 46.82C73.2077 44.79 75.2077 42.15 75.0677 38.37C74.9277 34.33 73.8677 31.97 69.6777 30.24C68.1877 29.65 67.2677 29.44 66.3577 29.52C65.3577 29.6 64.6177 29.71 63.6077 30.07C62.2977 30.54 61.1677 29.46 61.5377 28.23C61.6377 27.89 61.7877 27.57 61.9077 27.23C62.7977 24.74 63.2377 22.11 62.8977 19.55C62.3877 15.62 60.2777 12.23 56.8577 9.61001C54.0477 7.45001 50.6477 6.54001 47.1177 6.07001C41.6277 5.34001 36.3177 5.59001 31.2477 7.80001C26.1777 10 23.4277 13.62 22.6477 18.57C22.3877 20.22 21.6377 20.98 19.7477 21.12C17.6677 21.27 15.8577 21.05 13.9377 21.67C9.08772 23.23 7.07772 25.89 5.68772 30.11C5.15772 31.72 4.72772 34.07 5.36772 35.72C5.61772 37.48 6.32771 38.62 6.95771 40.02C7.42771 41.05 8.08772 41.98 9.18772 42.62C10.5577 43.41 11.9977 44.14 13.2077 45.1C14.2977 45.96 15.4077 47.32 16.7077 47.74C17.7677 48.09 18.8277 48.45 19.8877 48.82C22.0777 49.59 24.3377 50.12 26.6977 50.33C26.4277 50 26.0977 49.76 25.7877 49.5C24.3477 48.28 22.8377 47.1 22.1777 45.34C21.3777 43.21 21.1577 41.02 21.1577 38.81C21.1577 37.43 21.5477 36.11 22.2177 34.88C22.4577 34.43 22.8777 34.05 23.2177 33.64C23.3877 33.9 23.3977 34.04 23.3577 34.16C22.4077 37.19 22.5877 40.24 23.3877 43.31C23.7677 44.76 24.4077 46.04 25.5477 47.18C27.7677 49.41 30.1677 51.2 33.7177 51C33.8177 51 33.9177 51 34.0077 51.02C39.0277 51.61 44.0577 51.59 49.0977 51.51C49.5077 51.51 49.9877 51.41 50.2977 51.2C53.9577 48.72 56.6277 45.61 57.6877 41.48C57.8377 40.89 58.0577 40.32 58.2577 39.74V39.71ZM15.5977 48.87C15.7477 50.64 15.9777 52.25 15.9977 53.87C16.0477 58.01 15.9577 62.14 15.9977 66.28C16.0277 69.1 16.2077 71.91 16.2877 74.73C16.3177 75.53 16.5277 76.2 17.4077 76.59C20.0077 77.76 22.5177 79.17 25.2277 80.07C28.9177 81.29 32.8177 81.9 36.7177 82.3C37.6877 82.4 38.6777 82.32 39.6477 82.45C43.5777 82.97 47.4677 82.63 51.3377 82.19C53.1977 81.98 54.6477 81.9 56.8277 80.82C57.1677 79.63 57.1377 79.06 57.3177 77.9C57.4177 77.11 57.3777 76.21 57.5177 75.43C58.0277 72.57 58.5777 69.71 59.0577 66.85C59.4577 64.51 59.7577 62.15 60.1577 59.8C60.6177 57.08 61.4777 54.49 63.3377 52.27C63.4077 52.19 63.4077 52.07 63.4877 51.86C62.9877 51.95 62.6177 52.02 62.2477 52.09C59.8177 52.56 57.4177 53.12 54.9677 53.48C52.0377 53.91 49.0577 54.31 46.0777 53.77C44.4777 53.48 42.8877 53.41 41.2777 53.34C40.6477 53.31 40.0077 53.36 39.3777 53.31C35.8577 52.99 32.3477 52.61 28.8277 52.32C26.3177 52.12 23.8977 51.62 21.5377 50.79C19.5777 50.1 17.5777 49.5 15.6077 48.86L15.5977 48.87Z" fill="white"/>
<path d="M11.6377 31.56C11.3377 32.9 10.6577 33.86 9.87767 34.86C9.14767 34.37 9.29767 33.94 9.53767 33.5C9.96767 32.72 10.2477 31.81 11.6377 31.56Z" fill="white"/>
<path d="M30.4977 11.91C29.8077 13.06 28.7577 13.81 27.2577 14.42C27.2977 14 27.2577 13.77 27.3577 13.63C27.8877 12.93 29.3277 12.09 30.5077 11.92L30.4977 11.91Z" fill="white"/>
<path d="M10.6977 36.91C10.2977 35.61 10.5877 35.04 11.9077 34.32C12.6377 35.27 12.2077 36.26 10.6977 36.91Z" fill="white"/>
<path d="M29.0977 15.59C28.6777 16.18 28.3877 16.67 28.0077 17.08C27.8777 17.22 27.4377 17.28 27.2377 17.19C27.0377 17.11 26.8477 16.8 26.8277 16.58C26.7577 16 27.6977 15.06 28.3377 15.08C28.5677 15.08 28.7877 15.37 29.1077 15.59H29.0977Z" fill="white"/>
<path d="M17.7977 59.57C17.6377 58.6 18.5077 56.97 19.3677 56.77C19.5777 56.72 20.1277 57.09 20.1177 57.12C19.8577 57.76 19.5977 58.41 19.2077 58.99C18.9177 59.42 18.5177 59.88 17.7877 59.57H17.7977Z" fill="white"/>
<path d="M17.1977 57.11C17.1377 56.77 16.9477 56.43 17.0577 56.22C17.4277 55.52 17.8477 54.84 18.3577 54.23C18.4977 54.06 19.0177 54.15 19.3577 54.12C19.3777 54.4 19.5377 54.77 19.4077 54.94C18.7977 55.7 18.5977 56.82 17.1977 57.12V57.11Z" fill="white"/>
<path d="M19.3777 60.08C19.5077 60.29 19.6277 60.4 19.6277 60.52C19.6577 60.99 19.5077 61.4 18.9677 61.54C18.8477 61.57 18.5077 61.37 18.5077 61.35C18.6077 61 18.7377 60.65 18.9077 60.33C18.9577 60.24 19.1377 60.2 19.3777 60.08Z" fill="white"/>
</g>
<path d="M23.3578 89.63C25.2025 89.63 26.6978 88.5465 26.6978 87.21C26.6978 85.8734 25.2025 84.79 23.3578 84.79C21.5132 84.79 20.0178 85.8734 20.0178 87.21C20.0178 88.5465 21.5132 89.63 23.3578 89.63Z" fill="white"/>
<path d="M25.9477 86.66C25.9477 86.66 26.6577 85.11 23.2077 84.82C19.7477 84.53 17.9377 86.66 17.9377 86.66" stroke="white" stroke-width="2.23" stroke-miterlimit="10" stroke-linecap="round"/>
<path d="M44.2178 88.06C44.2178 88.06 45.2978 86.53 47.8878 86.33C50.4778 86.13 53.2578 87.2 53.2578 87.2" stroke="white" stroke-width="2.23" stroke-miterlimit="10" stroke-linecap="round"/>
<path d="M31.5178 93.44C31.5178 93.44 32.1078 94.7 35.1178 94.75C38.1278 94.8 39.1078 93.15 39.1078 93.15" stroke="white" stroke-width="2.23" stroke-miterlimit="10" stroke-linecap="round"/>
</svg>
