<svg width="37" height="32" viewBox="0 0 37 32" fill="none" xmlns="http://www.w3.org/2000/svg">
<path d="M12.5231 30.5929C12.5231 31.3678 13.1603 31.9959 13.9462 31.9959C14.7321 31.9959 15.3693 31.3678 15.3693 30.5929H12.5231ZM13.9462 26.4194L12.5242 26.3657C12.5235 26.3837 12.5231 26.4014 12.5231 26.4194H13.9462ZM18.5 20.2477L18.4499 21.6498C18.4833 21.651 18.5167 21.651 18.5501 21.6498L18.5 20.2477ZM23.0538 26.4194H24.4769C24.4769 26.4014 24.4765 26.3837 24.4759 26.3657L23.0538 26.4194ZM21.6307 30.5929C21.6307 31.3678 22.2679 31.9959 23.0538 31.9959C23.8397 31.9959 24.4769 31.9999 24.4769 30.5929H21.6307ZM13.9462 29.1899C13.1603 29.1899 12.5231 29.8181 12.5231 30.5929C12.5231 31.3678 13.1603 31.9959 13.9462 31.9959V29.1899ZM23.0538 31.9959C23.8397 31.9959 24.4769 31.9999 24.4769 30.5929C24.4769 29.8181 23.8397 29.1899 23.0538 29.1899V31.9959ZM13.9462 31.9959C14.7321 31.9959 15.3693 31.3678 15.3693 30.5929C15.3693 29.8181 14.7321 29.1899 13.9462 29.1899V31.9959ZM12.8077 30.5929V29.1899C12.791 29.1899 12.7743 29.1901 12.7576 29.1906L12.8077 30.5929ZM5.97702 24.3336H4.55396C4.55396 24.3512 4.5543 24.3689 4.55498 24.3867L5.97702 24.3336ZM7.40009 8.78864C7.40009 8.01378 6.76295 7.38562 5.97702 7.38562C5.19109 7.38562 4.55396 8.01378 4.55396 8.78864H7.40009ZM0.624018 10.6751C-0.0262854 11.1102 -0.19563 11.9827 0.245748 12.624C0.687145 13.2651 1.57212 13.432 2.22241 12.9968L0.624018 10.6751ZM6.77622 9.94952C7.42652 9.51434 7.59586 8.64183 7.15449 8.00071C6.71309 7.35959 5.82811 7.19261 5.17783 7.62779L6.77622 9.94952ZM5.17783 7.62779C4.52751 8.06291 4.35818 8.93538 4.79952 9.57653C5.24088 10.2177 6.12591 10.3846 6.77622 9.94952L5.17783 7.62779ZM15.874 2.16639L15.1019 0.987797C15.0928 0.993596 15.0837 0.999488 15.0748 1.00549L15.874 2.16639ZM21.126 2.16639L21.9252 1.00549C21.9163 0.999488 21.9072 0.993596 21.8981 0.987797L21.126 2.16639ZM30.2238 9.94956C30.8742 10.3847 31.7592 10.2177 32.2005 9.57653C32.6419 8.93538 32.4724 8.06287 31.8222 7.62775L30.2238 9.94956ZM23.0538 29.1899C22.2679 29.1899 21.6307 29.8181 21.6307 30.5929C21.6307 31.3678 22.2679 31.9959 23.0538 31.9959V29.1899ZM24.1923 30.5929L24.2424 29.1906C24.2257 29.1901 24.209 29.1899 24.1923 29.1899V30.5929ZM31.023 24.3336L32.4451 24.3867C32.4457 24.3689 32.446 24.3512 32.446 24.3336H31.023ZM32.446 8.78864C32.446 8.01378 31.8089 7.38562 31.023 7.38562C30.2371 7.38562 29.5999 8.01378 29.5999 8.78864H32.446ZM34.778 12.9951C35.4284 13.4303 36.3134 13.263 36.7545 12.6218C37.1957 11.9805 37.026 11.108 36.3756 10.6731L34.778 12.9951ZM31.8222 7.62775C31.1717 7.19276 30.2866 7.35979 29.8453 8.00105C29.4041 8.6423 29.5734 9.51457 30.2238 9.94956L31.8222 7.62775ZM15.3693 30.5929V26.4194H12.5231V30.5929H15.3693ZM15.3683 26.4729C15.4309 24.8555 16.8092 21.5928 18.4499 21.6498L18.5501 18.8455C15.3417 18.7342 12.6467 23.2029 12.5242 26.3657L15.3683 26.4729ZM18.5501 21.6498C20.1908 21.5928 21.5691 24.8555 21.6317 26.4729L24.4759 26.3657C24.3534 21.2029 21.6583 18.7342 18.4499 18.8455L18.5501 21.6498ZM21.6307 26.4194V30.5929H24.4769V26.4194H21.6307ZM13.9462 31.9959H23.0538V29.1899H13.9462V31.9959ZM13.9462 29.1899H12.8077V31.9959H13.9462V29.1899ZM12.7576 29.1906C9.90404 29.2898 7.50725 27.0934 7.39906 24.2804L4.55498 24.3867C4.7226 28.7454 8.43631 32.1486 12.8578 31.995L12.7576 29.1906ZM7.40009 24.3336V8.78864H4.55396V24.3336H7.40009ZM2.22241 12.9968L6.77622 9.94952L5.17783 7.62779L0.624018 10.6751L2.22241 12.9968ZM6.77622 9.94952L16.6732 3.3273L15.0748 1.00549L5.17783 7.62779L6.77622 9.94952ZM16.646 3.34498C17.7746 2.62639 19.2254 2.62639 20.354 3.34498L21.8981 0.987797C19.8297 -0.329265 17.1703 -0.329265 15.1019 0.987797L16.646 3.34498ZM20.3268 3.3273L30.2238 9.94956L31.8222 7.62775L21.9252 1.00549L20.3268 3.3273ZM23.0538 31.9959H24.1923V29.1899H23.0538V31.9959ZM24.1422 31.995C28.5637 32.1486 32.2774 28.7454 32.4451 24.3867L29.6009 24.2804C29.4927 27.0934 27.0959 29.2898 24.2424 29.1906L24.1422 31.995ZM32.446 24.3336V8.78864H29.5999V24.3336H32.446ZM36.3756 10.6731L31.8222 7.62775L30.2238 9.94956L34.778 12.9951L36.3756 10.6731Z" fill="#7C6351"/>
</svg>
