<svg width="37" height="37" viewBox="0 0 37 37" fill="none" xmlns="http://www.w3.org/2000/svg">
<path fill-rule="evenodd" clip-rule="evenodd" d="M3.71609 2.44304C7.26855 -1.10941 13.2635 -0.839349 15.737 3.59283L17.1093 6.0518C18.7245 8.94613 18.0363 12.598 15.6716 14.9915C15.6401 15.0346 15.4731 15.2777 15.4524 15.7023C15.4259 16.2443 15.6184 17.4977 17.5603 19.4396C19.5016 21.3809 20.7548 21.574 21.2972 21.5475C21.7222 21.5268 21.9654 21.36 22.0085 21.3283C24.4021 18.9639 28.054 18.2754 30.9483 19.8906L33.4072 21.2632C37.8393 23.7367 38.1094 29.7314 34.5571 33.2839C32.6568 35.184 30.1302 36.8724 27.161 36.9851C22.761 37.1519 15.4549 36.0156 8.2197 28.7803C0.984422 21.545 -0.151854 14.239 0.0149352 9.83896C0.12751 6.86985 1.8159 4.34323 3.71609 2.44304ZM12.9674 5.1385C11.7007 2.86894 8.29707 2.34753 5.95882 4.68577C4.31937 6.32523 3.25355 8.13481 3.18438 9.95913C3.04527 13.6284 3.9512 20.0264 10.4624 26.5375C16.9737 33.0488 23.3715 33.9546 27.0409 33.8155C28.8653 33.7463 30.6749 32.6806 32.3142 31.0411C34.6524 28.7029 34.131 25.2992 31.8615 24.0327L29.4026 22.6604C27.873 21.8066 25.7243 22.0979 24.216 23.6062C24.0678 23.7542 23.1247 24.6342 21.4513 24.7157C19.738 24.799 17.6643 24.0291 15.3177 21.6825C12.9702 19.335 12.2005 17.2607 12.2845 15.5472C12.3665 13.8735 13.2465 12.9313 13.3937 12.7841C14.902 11.2758 15.1933 9.12711 14.3397 7.59748L12.9674 5.1385Z" fill="#7C6351"/>
</svg>
