<svg width="37" height="37" viewBox="0 0 37 37" fill="none" xmlns="http://www.w3.org/2000/svg">
<path fill-rule="evenodd" clip-rule="evenodd" d="M18.5 2.7C10.3262 2.7 2.7 10.3262 2.7 18.5C2.7 26.6739 10.3262 34.3 18.5 34.3C26.6739 34.3 34.3 26.6739 34.3 18.5C34.3 10.3262 26.6739 2.7 18.5 2.7ZM0 18.5C0 8.28273 8.28273 0 18.5 0C28.7172 0 37 8.28273 37 18.5C37 28.7172 28.7172 37 18.5 37C8.28273 37 0 28.7172 0 18.5ZM17.5252 8.5C18.547 8.5 19.0325 9.62938 19.0325 10.6511V20.8403L25.5573 23.3208C25.6383 23.3208 27.363 24.0448 27 25C26.637 25.9552 25.5 26 25.2427 25.7792L17.5252 22.8456C16.8072 22.5726 16.3325 21.8844 16.3325 21.1163V10.6511C16.3325 9.62938 16.5035 8.5 17.5252 8.5Z" fill="#7C6351"/>
</svg>
