<svg id="圖層_1" data-name="圖層 1" xmlns="http://www.w3.org/2000/svg" viewBox="0 0 141.73 141.73"><defs><style>.cls-1{fill:#333;}</style></defs><path class="cls-1" d="M66.83,110.66l.07.06.34.31.22.17.23.17.26.15.22.14.27.12.24.11.26.1c.09,0,.18.07.27.09l.26.07.28.07.3,0,.25,0a5.44,5.44,0,0,0,.57,0,5.25,5.25,0,0,0,.56,0l.25,0,.3,0,.29-.07.26-.07c.09,0,.18-.06.27-.09l.25-.1.25-.11.26-.12.23-.14.25-.15.23-.17.22-.17.35-.32.07,0,30.8-30.81a5.71,5.71,0,0,0-8.08-8.07l-21,21V11.59a5.72,5.72,0,1,0-11.43,0V92.83l-21.05-21A5.71,5.71,0,0,0,36,79.85Z"/><path class="cls-1" d="M136,124.43H5.78a5.72,5.72,0,0,0,0,11.43H136a5.72,5.72,0,0,0,0-11.43Z"/></svg>