<svg id="圖層_1" data-name="圖層 1" xmlns="http://www.w3.org/2000/svg" viewBox="0 0 35.05 25.41"><defs><style>.cls-1{fill:#231815;}</style></defs><path class="cls-1" d="M34.31,12H28.6v-.92a1.24,1.24,0,0,0-1.23-1.24H24.13a1.24,1.24,0,0,0-1.23,1.24V12H.74a.74.74,0,0,0,0,1.48H22.9v.83a1.24,1.24,0,0,0,1.23,1.24h3.24a1.24,1.24,0,0,0,1.23-1.24v-.83h5.71a.74.74,0,0,0,0-1.48Zm-7.19,2.07H24.38V11.33h2.74"/><path class="cls-1" d="M34.31,21.87H18.74v-.93a1.23,1.23,0,0,0-1.23-1.23H14.27A1.24,1.24,0,0,0,13,20.94v.93H.74a.74.74,0,1,0,0,1.47H13v.84a1.24,1.24,0,0,0,1.23,1.23h3.24a1.23,1.23,0,0,0,1.23-1.23v-.84H34.31a.74.74,0,1,0,0-1.47Zm-17,2.06H14.52V21.19h2.75Z"/><path class="cls-1" d="M.74,3.63H3.19v.84A1.23,1.23,0,0,0,4.42,5.7H7.66A1.23,1.23,0,0,0,8.89,4.47V3.63H34.31a.74.74,0,1,0,0-1.47H8.89V1.23A1.23,1.23,0,0,0,7.66,0H4.42A1.23,1.23,0,0,0,3.19,1.23v.93H.74a.74.74,0,1,0,0,1.47ZM4.67,1.57H7.41V4.22H4.67Z"/></svg>