<svg id="圖層_1" data-name="圖層 1" xmlns="http://www.w3.org/2000/svg" viewBox="0 0 156.93 153.78"><defs><style>.cls-1{fill-rule:evenodd;}</style></defs><path class="cls-1" d="M146.1,60c-2-12.14-8.16-22-17.28-30C114.46,17.44,97.37,12.23,78.29,11.89c-2.51.14-5.29.16-8.05.46a80,80,0,0,0-22.45,5.59C35.18,23.2,24.6,31,17.44,42.79c-9,14.85-9.61,30.31-1.91,45.81C21.07,99.74,30.07,107.69,41,113.54a77.59,77.59,0,0,0,26.61,8.38c4.74.65,6.76,3.27,6.32,8,0,.37-.11.72-.16,1.09-.37,2.67-.86,5.34-1.09,8-.2,2.36.89,3.24,3.22,2.67a15.82,15.82,0,0,0,4.49-1.66c6.88-4.15,13.77-8.27,20.47-12.7a184.5,184.5,0,0,0,26.27-20.77A73.78,73.78,0,0,0,141,89.18,43.93,43.93,0,0,0,146.1,60Zm-92,23.86c-5.77,0-11.54,0-17.31,0-1.53,0-1.81-.44-1.81-2.32V68.31h0c0-4.31,0-8.62,0-12.94,0-2.28.25-2.49,2.52-2.52.81,0,1.61,0,2.42,0,2,0,2.24.29,2.24,2.33,0,6.14,0,12.28,0,18.42,0,3.09,0,3.09,3.17,3.09,2.77,0,5.55,0,8.33,0,1.76,0,2,.24,2.05,2,0,1.17,0,2.34,0,3.51A1.46,1.46,0,0,1,54.1,83.83ZM66.85,80c0,4.75-.51,3.79-3.88,3.8s-3.41,0-3.41-3.35q0-6,0-12h0c0-4.38,0-8.76,0-13.13,0-2.15.28-2.39,2.39-2.43,1,0,2,0,3.06,0,1.2,0,1.71.61,1.73,1.75,0,1.31.1,2.63.1,3.94C66.87,65.7,66.9,72.85,66.85,80ZM98.06,57.27C98,65,98,72.63,98,80.3c0,.51,0,1,0,1.54-.11,1.6-.43,1.91-2,2l-.44,0c-4.32,0-4.31,0-6.92-3.5q-4.76-6.43-9.53-12.85a6.54,6.54,0,0,0-.74-.75,4.9,4.9,0,0,0-.28,1.16c0,4.31,0,8.62,0,12.94,0,3,0,3-3.09,3-.66,0-1.32,0-2,0-1.74-.07-2.13-.49-2.13-2.29V68.57h0c0-4.39,0-8.77,0-13.16,0-2.24.31-2.34,2.53-2.6a6,6,0,0,1,6.38,2.95c3,4.57,6.42,8.88,9.68,13.28a12.62,12.62,0,0,0,.86.93,6.59,6.59,0,0,0,.3-1.37c0-4.31,0-8.63,0-12.94,0-2.67.16-2.85,2.9-2.8C97.53,52.93,98.11,51.79,98.06,57.27Zm11.28,17.57c.1,1.72.19,1.83,2,1.85,3.14,0,6.29,0,9.43,0,1.9,0,2.12.24,2.18,2.14,0,1,0,2,0,3.07-.06,1.6-.37,1.9-2,1.92-2.78,0-5.56,0-8.33,0v0c-2.7,0-5.41,0-8.11,0-2,0-2.35-.33-2.35-2.24q0-13.16,0-26.3c0-2.16.23-2.38,2.41-2.38,5.33,0,10.66,0,16,0,2,0,2.29.27,2.35,2.24,0,.81,0,1.61,0,2.41,0,2.33-.22,2.53-2.47,2.53-3,0-6,0-9,0-2,0-2,0-2.09,2.1,0,.29,0,.58,0,.87.06,1.66.09,1.75,1.76,1.77,3.07,0,6.13,0,9.2,0,2.4,0,2.56.13,2.6,2.61.1,5.36,0,4.53-4.42,4.51-2.41,0-4.82,0-7.23,0-1.81,0-1.87.11-1.92,1.84C109.32,74.11,109.32,74.48,109.34,74.84Z"/></svg>