<svg id="圖層_1" data-name="圖層 1" xmlns="http://www.w3.org/2000/svg" viewBox="0 0 141.73 141.73"><defs><style>.cls-1{fill:#313133;}</style></defs><path class="cls-1" d="M129.16,12.58A33.45,33.45,0,0,0,105.33,2.7h0a33.47,33.47,0,0,0-23.82,9.87L64.65,29.43a4.93,4.93,0,0,0,7,7L88.48,19.54a23.67,23.67,0,0,1,16.85-7h0a23.84,23.84,0,0,1,16.86,40.69L99.37,76.06a23.83,23.83,0,0,1-35.95-2.6,4.93,4.93,0,0,0-7.9,5.9A33.89,33.89,0,0,0,58.7,83a33.68,33.68,0,0,0,47.64,0l22.82-22.81a33.68,33.68,0,0,0,0-47.64Z"/><path class="cls-1" d="M70.11,105.33,53.25,122.19a23.67,23.67,0,0,1-16.85,7h0A23.83,23.83,0,0,1,19.55,88.48l22.8-22.81a23.84,23.84,0,0,1,36,2.6,4.93,4.93,0,1,0,7.9-5.9A33.89,33.89,0,0,0,83,58.7a33.69,33.69,0,0,0-47.65,0L12.58,81.51A33.69,33.69,0,0,0,36.4,139h0a33.47,33.47,0,0,0,23.82-9.87L77.08,112.3a4.93,4.93,0,0,0-7-7Z"/></svg>