<svg id="圖層_1" data-name="圖層 1" xmlns="http://www.w3.org/2000/svg" viewBox="0 0 112.22 139.93"><defs><style>.cls-1{fill:#323232;fill-rule:evenodd;}</style></defs><path id="logo" class="cls-1" d="M38.54.9A23.78,23.78,0,0,0,14.76,24.68v33H75.48A31.46,31.46,0,0,1,86,59.49a27,27,0,0,1-24.35,15.3H14.76v42.26a23.78,23.78,0,0,0,23.78,23.78H75.48a51.5,51.5,0,0,0,33-91c0-.67,0-1.34,0-2A46.87,46.87,0,0,0,61.63.9Zm0,19.86a3.93,3.93,0,0,0-3.93,3.92V37.85H75.48A51.3,51.3,0,0,1,87.25,39.2,27,27,0,0,0,61.63,20.76Zm63.31,51.1A46.85,46.85,0,0,1,61.63,94.65h-27v22.4A3.93,3.93,0,0,0,38.54,121H75.48a31.63,31.63,0,0,0,26.37-49.11Z" transform="translate(-14.76 -0.9)"/></svg>