<?xml version="1.0" encoding="utf-8"?>
<!-- Generator: Adobe Illustrator 26.0.1, SVG Export Plug-In . SVG Version: 6.00 Build 0)  -->
<svg version="1.1" id="圖層_1" xmlns="http://www.w3.org/2000/svg" xmlns:xlink="http://www.w3.org/1999/xlink" x="0px" y="0px"
	 viewBox="0 0 141.7 141.7" style="enable-background:new 0 0 141.7 141.7;" xml:space="preserve">
<style type="text/css">
	.st0{fill:#313133;stroke:#313131;stroke-width:4;stroke-miterlimit:10;}
</style>
<path class="st0" d="M137.3,132.3l-36.8-36.8c20.3-23.1,18.1-58.2-5-78.5s-58.2-18.1-78.5,5s-18.1,58.2,5,78.5
	c21,18.5,52.5,18.5,73.6,0l36.8,36.8c1.4,1.4,3.6,1.4,5,0S138.6,133.7,137.3,132.3L137.3,132.3z M10.5,58.9
	c0-26.7,21.7-48.4,48.4-48.4c26.7,0,48.4,21.7,48.4,48.4c0,26.7-21.7,48.4-48.4,48.4c0,0,0,0,0,0C32.2,107.3,10.5,85.6,10.5,58.9z"
	/>
</svg>
