<svg id="圖層_1" data-name="圖層 1" xmlns="http://www.w3.org/2000/svg" viewBox="0 0 141.73 141.73"><defs><style>.cls-1{fill:#313133;}</style></defs><path class="cls-1" d="M137.11,78.29A3.65,3.65,0,0,0,133.46,82v40.19a11.34,11.34,0,0,1-11.33,11.32H19.59A11.34,11.34,0,0,1,8.27,122.14V19.6A11.34,11.34,0,0,1,19.59,8.28H59.78a3.66,3.66,0,1,0,0-7.31H19.59A18.65,18.65,0,0,0,1,19.6V122.14a18.64,18.64,0,0,0,18.62,18.62H122.13a18.64,18.64,0,0,0,18.63-18.62V82A3.65,3.65,0,0,0,137.11,78.29Z"/><path class="cls-1" d="M140.48,3.23a3.64,3.64,0,0,0-2-2,3.76,3.76,0,0,0-1.4-.28H102.17a3.66,3.66,0,0,0,0,7.31h26.12L77,59.58a3.66,3.66,0,0,0,5.17,5.17l51.32-51.31V39.56a3.65,3.65,0,1,0,7.3,0V4.62A3.52,3.52,0,0,0,140.48,3.23Z"/></svg>