<?xml version="1.0" encoding="UTF-8"?>
<svg id="_圖層_1" data-name="圖層 1" xmlns="http://www.w3.org/2000/svg" viewBox="0 0 581.01 328.36">
  <defs>
    <style>
      .cls-1 {
        fill: #fff;
      }
    </style>
  </defs>
  <path class="cls-1" d="M272.4,7.76L6.9,286.41c-9.21,9.66-9.21,24.84,0,34.5l.3.3c8.75,9.21,23.31,9.58,32.52.83.29-.27.56-.55.83-.83L290.55,58.8l249.9,262.4c8.75,9.21,23.31,9.58,32.52.83.29-.27.56-.55.83-.83l.3-.3c9.21-9.66,9.21-24.84,0-34.5L308.6,7.76c-9.52-10-25.35-10.38-35.35-.85-.29.28-.58.56-.85.85h0Z"/>
</svg>