<svg width="112" height="112" viewBox="0 0 112 112" fill="none" xmlns="http://www.w3.org/2000/svg">
<g clip-path="url(#clip0_258_99)">
<path d="M56.0135 27.286C40.1224 27.286 27.3045 40.1067 27.3045 56.0013C27.3045 71.896 40.1224 84.7167 56.0135 84.7167C71.9047 84.7167 84.7225 71.896 84.7225 56.0013C84.7225 40.1067 71.9047 27.286 56.0135 27.286ZM56.0135 74.6701C45.7443 74.6701 37.3489 66.2979 37.3489 56.0013C37.3489 45.7048 45.7193 37.3326 56.0135 37.3326C66.3078 37.3326 74.6781 45.7048 74.6781 56.0013C74.6781 66.2979 66.2828 74.6701 56.0135 74.6701ZM92.5906 26.1114C92.5906 29.8351 89.5923 32.8091 85.8944 32.8091C82.1964 32.8091 79.1981 29.8101 79.1981 26.1114C79.1981 22.4126 82.1964 19.4136 85.8944 19.4136C89.5923 19.4136 92.5906 22.4126 92.5906 26.1114ZM111.608 32.9091C111.183 23.9371 109.134 15.9897 102.563 9.44193C96.0137 2.89412 88.0681 0.842311 79.0981 0.394961C69.8533 -0.129863 42.1438 -0.129863 32.8989 0.394961C23.9539 0.819819 16.0084 2.86913 9.43702 9.41694C2.86569 15.9647 0.841815 23.9121 0.392066 32.8816C-0.132642 42.1285 -0.132642 69.8442 0.392066 79.0911C0.816829 88.0631 2.86569 96.0104 9.43702 102.558C16.0084 109.106 23.9289 111.155 32.8989 111.605C42.1438 112.13 69.8533 112.13 79.0981 111.605C88.0681 111.18 96.0137 109.131 102.56 102.558C109.106 96.0104 111.155 88.0631 111.605 79.0911C112.13 69.8442 112.13 42.1535 111.605 32.9066L111.608 32.9091ZM99.6617 89.0153C97.7128 93.9136 93.9399 97.6874 89.0176 99.6617C81.6467 102.586 64.1565 101.911 56.011 101.911C47.8656 101.911 30.3503 102.561 23.0044 99.6617C18.1072 97.7124 14.3343 93.9386 12.3604 89.0153C9.43702 81.6428 10.1116 64.1486 10.1116 56.0013C10.1116 47.8541 9.462 30.3349 12.3604 22.9874C14.3093 18.089 18.0822 14.3153 23.0044 12.341C30.3753 9.41694 47.8656 10.0917 56.011 10.0917C64.1565 10.0917 81.6717 9.44193 89.0176 12.341C93.9149 14.2903 97.6878 18.064 99.6617 22.9874C102.585 30.3599 101.91 47.8541 101.91 56.0013C101.91 64.1486 102.585 81.6677 99.6617 89.0153Z" fill="#FCF4D0"/>
</g>
<defs>
<clipPath id="clip0_258_99">
<rect width="112" height="112" fill="white"/>
</clipPath>
</defs>
</svg>
