<svg xmlns="http://www.w3.org/2000/svg" xmlns:xlink="http://www.w3.org/1999/xlink" width="48" height="38" viewBox="0 0 48 38">
  <defs>
    <clipPath id="clip-path">
      <rect id="Rectangle_761" data-name="Rectangle 761" width="48" height="38" transform="translate(618 1370)" fill="#ccc" stroke="#707070" stroke-width="1"/>
    </clipPath>
  </defs>
  <g id="Mask_Group_65" data-name="Mask Group 65" transform="translate(-618 -1370)" clip-path="url(#clip-path)">
    <g id="Page-1" transform="translate(622.991 1369.983)">
      <g id="_032---Cloud-File-Tranfering" data-name="032---Cloud-File-Tranfering">
        <path id="Shape" d="M26.352,4.746a6.336,6.336,0,0,0-4.809-2.211.634.634,0,0,0,0,1.267,5.069,5.069,0,0,1,3.846,1.774.636.636,0,0,0,.963-.83Z" fill="#ccc"/>
        <path id="Shape-2" data-name="Shape" d="M30.414,8.871A8.871,8.871,0,0,0,13.243,5.76a6.292,6.292,0,0,0-4.8,3.168A7.407,7.407,0,0,0,7.6,8.871a7.6,7.6,0,1,0,0,15.207h.634v9.5a4.435,4.435,0,0,0,4.435,4.435H25.345a4.435,4.435,0,0,0,4.435-4.435v-9.5h.634a7.6,7.6,0,1,0,0-15.207Zm-1.9,24.711a3.168,3.168,0,0,1-3.168,3.168H12.672A3.168,3.168,0,0,1,9.5,33.582V17.108a3.168,3.168,0,0,1,3.168-3.168h9.5v3.168a3.168,3.168,0,0,0,3.168,3.168h3.168ZM23.444,14.833l4.176,4.176H25.345a1.9,1.9,0,0,1-1.9-1.9Zm6.97,7.977H29.78V19.642a.634.634,0,0,0-.184-.45L23.26,12.856a.634.634,0,0,0-.45-.184H12.672a4.435,4.435,0,0,0-4.435,4.435v5.7H7.6a6.336,6.336,0,0,1,0-12.672,6.254,6.254,0,0,1,3.51,1.064.64.64,0,1,0,.71-1.064,7.5,7.5,0,0,0-2.066-.969,5.069,5.069,0,0,1,4-2.2h.184a5.006,5.006,0,0,1,3.041,1.014.634.634,0,1,0,.76-1.014,6.279,6.279,0,0,0-3.124-1.229,7.6,7.6,0,0,1,14.529,3.13v.108a7.483,7.483,0,0,0-2.953,1.16.634.634,0,0,0,.71,1.052,6.254,6.254,0,0,1,3.51-1.052,6.336,6.336,0,0,1,0,12.672Z" fill="#ccc"/>
        <path id="Shape-3" data-name="Shape" d="M17.292,29.33l-.817.824V21.543a.634.634,0,0,0-1.267,0v8.611l-.817-.824a.636.636,0,0,0-.9.9l1.9,1.9a.634.634,0,0,0,.9,0l1.9-1.9a.636.636,0,0,0-.9-.9Z" fill="#ccc"/>
        <path id="Shape-4" data-name="Shape" d="M22.627,21.093a.634.634,0,0,0-.9,0l-1.9,1.9a.636.636,0,0,0,.9.9l.817-.824v8.611a.634.634,0,0,0,1.267,0V23.07l.817.824a.636.636,0,1,0,.9-.9Z" fill="#ccc"/>
      </g>
    </g>
  </g>
</svg>
