<svg xmlns="http://www.w3.org/2000/svg" xmlns:xlink="http://www.w3.org/1999/xlink" width="48" height="38" viewBox="0 0 48 38">
  <defs>
    <clipPath id="clip-path">
      <rect id="Rectangle_763" data-name="Rectangle 763" width="48" height="38" transform="translate(406 1370)" fill="#ccc" stroke="#707070" stroke-width="1"/>
    </clipPath>
  </defs>
  <g id="Mask_Group_66" data-name="Mask Group 66" transform="translate(-406 -1370)" clip-path="url(#clip-path)">
    <g id="geo" transform="translate(411 1370)">
      <path id="Path_457" data-name="Path 457" d="M26.793,12.32A7.793,7.793,0,1,0,19,20.113,7.859,7.859,0,0,0,26.793,12.32Zm-13.359,0A5.566,5.566,0,1,1,19,17.887,5.61,5.61,0,0,1,13.434,12.32Z" fill="#ccc"/>
      <path id="Path_458" data-name="Path 458" d="M31.246,12.32a12.246,12.246,0,1,0-24.492,0c0,4.5,4.408,11.3,7.025,15.042-2.909.585-7.025,2.095-7.025,5.071C6.754,36.69,14.682,38,19,38s12.246-1.31,12.246-5.566c0-2.977-4.116-4.486-7.025-5.071,2.6-3.719,7.025-10.535,7.025-15.042Zm-22.266,0a10.02,10.02,0,1,1,20.039,0c0,4.715-6.588,14.008-10.02,18.343C15.568,26.329,8.98,17.038,8.98,12.32ZM29.02,32.434c0,1.86-5.452,3.34-10.02,3.34S8.98,34.292,8.98,32.434c0-.886,1.989-2.422,6.24-3.064,1.624,2.2,2.846,3.682,2.922,3.774a1.113,1.113,0,0,0,1.714,0c.076-.092,1.3-1.571,2.922-3.774C27.031,30.011,29.02,31.547,29.02,32.434Z" fill="#ccc"/>
    </g>
  </g>
</svg>
