<svg width="18" height="17" viewBox="0 0 18 17" fill="none" xmlns="http://www.w3.org/2000/svg">
<path d="M0.0215501 8.37603C-0.0262426 6.93812 0.00547182 5.49883 0.116564 4.06404C0.251687 2.94425 0.820291 1.91135 1.71287 1.1643C2.60544 0.417259 3.75883 0.00892751 4.95084 0.0179666C7.64162 -0.00598887 10.3337 -0.00598887 13.027 0.0179666C13.681 0.0179198 14.3284 0.140623 14.9319 0.378966C15.5353 0.617308 16.0827 0.966546 16.5423 1.40643C17.0019 1.84631 17.3645 2.36807 17.6092 2.94148C17.8539 3.51488 17.9757 4.12851 17.9677 4.74678C18.0108 7.27648 18.0108 9.80617 17.9677 12.3359C17.9527 13.5743 17.4213 14.757 16.489 15.6271C15.5567 16.4971 14.2989 16.984 12.989 16.982C10.3312 17.006 7.67077 17.006 5.00786 16.982C4.3508 16.9825 3.70013 16.8602 3.09323 16.6222C2.48633 16.3841 1.93518 16.035 1.47146 15.5949C1.00773 15.1548 0.640574 14.6323 0.391096 14.0576C0.141619 13.4829 0.0147408 12.8673 0.0177459 12.246C0.0177459 10.974 0.0177459 9.70197 0.0177459 8.42634C0.025347 8.38322 0.0215501 8.39759 0.0215501 8.37603ZM13.9923 8.48383C13.9915 7.548 13.6966 6.63351 13.145 5.85647C12.5934 5.07942 11.8101 4.47487 10.8944 4.11958C9.9787 3.76429 8.972 3.67428 8.00211 3.86099C7.03221 4.04769 6.14286 4.50269 5.447 5.16821C4.75113 5.83372 4.28013 6.67973 4.09379 7.59883C3.90746 8.51792 4.01422 9.46864 4.40048 10.3303C4.78674 11.1919 5.43509 11.9256 6.26322 12.4381C7.09135 12.9507 8.06188 13.219 9.05162 13.209C10.3675 13.1958 11.6247 12.692 12.5499 11.8072C13.475 10.9224 13.9934 9.72804 13.9923 8.48383ZM15.9686 2.83154C15.9747 2.7064 15.9529 2.58145 15.9047 2.46478C15.8564 2.34811 15.7828 2.24232 15.6886 2.15425C15.5944 2.06618 15.4816 1.9978 15.3577 1.95353C15.2337 1.90927 15.1013 1.8901 14.9691 1.89727C14.7108 1.89616 14.4621 1.98999 14.2756 2.15894C14.0891 2.3279 13.9794 2.55876 13.9695 2.80279C13.9747 3.05506 14.0799 3.29628 14.2643 3.47864C14.4488 3.661 14.699 3.77118 14.9653 3.78736C15.0977 3.78736 15.2288 3.76259 15.351 3.71447C15.4732 3.66634 15.5842 3.59583 15.6774 3.50697C15.7707 3.41812 15.8445 3.31269 15.8944 3.19677C15.9444 3.08085 15.9696 2.95672 15.9686 2.83154Z" fill="white"/>
<path d="M11.9705 8.52351C11.963 9.07855 11.782 9.61909 11.4503 10.0771C11.1187 10.5351 10.6511 10.8901 10.1065 11.0975C9.5619 11.3048 8.96461 11.3552 8.38978 11.2424C7.81495 11.1295 7.28829 10.8584 6.87606 10.4631C6.46383 10.0679 6.18445 9.5662 6.0731 9.02119C5.96176 8.47618 6.02342 7.9122 6.2503 7.40025C6.47719 6.88829 6.85917 6.45122 7.34818 6.14405C7.83719 5.83689 8.41139 5.67334 8.99848 5.674C9.39334 5.67053 9.78491 5.74216 10.1499 5.88463C10.5149 6.0271 10.8458 6.23751 11.1231 6.50334C11.4003 6.76917 11.6183 7.085 11.7638 7.43204C11.9094 7.77909 11.9797 8.15027 11.9705 8.52351Z" fill="white"/>
</svg>
