<svg width="83" height="83" viewBox="0 0 83 83" fill="none" xmlns="http://www.w3.org/2000/svg">
<path d="M41.615 82.355C64.1151 82.355 82.355 64.1151 82.355 41.615C82.355 19.1149 64.1151 0.875 41.615 0.875C19.1149 0.875 0.875 19.1149 0.875 41.615C0.875 64.1151 19.1149 82.355 41.615 82.355Z" fill="#333333"/>
<path d="M28.7559 36.0456C28.7559 35.6456 28.9159 35.2456 29.2359 34.9456C29.8459 34.3856 30.7959 34.4156 31.3559 35.0256L41.6159 46.0956L51.8759 35.0256C52.4359 34.4156 53.3859 34.3856 53.9959 34.9456C54.6059 35.5056 54.6359 36.4556 54.0759 37.0656L42.7159 49.3256C42.4359 49.6356 42.0359 49.8056 41.6159 49.8056C41.1959 49.8056 40.7959 49.6356 40.5159 49.3256L29.1559 37.0656C28.8859 36.7756 28.7559 36.4156 28.7559 36.0456Z" fill="white"/>
</svg>
