<svg width="20" height="21" viewBox="0 0 20 21" fill="none" xmlns="http://www.w3.org/2000/svg">
<path d="M1.02155 10.3688C0.973757 8.84799 1.00547 7.3257 1.11656 5.80818C1.25169 4.62381 1.82029 3.53134 2.71287 2.74121C3.60544 1.95109 4.75883 1.51921 5.95084 1.52877C8.64162 1.50343 11.3337 1.50343 14.027 1.52877C14.681 1.52872 15.3284 1.6585 15.9319 1.91059C16.5353 2.16267 17.0827 2.53205 17.5423 2.9973C18.0019 3.46254 18.3645 4.0144 18.6092 4.62087C18.8539 5.22734 18.9757 5.87636 18.9677 6.53028C19.0108 9.20586 19.0108 11.8814 18.9677 14.557C18.9527 15.8669 18.4213 17.1178 17.489 18.038C16.5567 18.9582 15.2989 19.4732 13.989 19.4711C11.3312 19.4965 8.67077 19.4965 6.00786 19.4711C5.3508 19.4716 4.70013 19.3423 4.09323 19.0905C3.48633 18.8387 2.93518 18.4695 2.47146 18.004C2.00773 17.5385 1.64057 16.9859 1.3911 16.3781C1.14162 15.7702 1.01474 15.1191 1.01775 14.462C1.01775 13.1166 1.01775 11.7712 1.01775 10.422C1.02535 10.3764 1.02155 10.3916 1.02155 10.3688ZM14.9923 10.4828C14.9915 9.49305 14.6966 8.52582 14.145 7.70396C13.5934 6.88211 12.8101 6.2427 11.8944 5.86692C10.9787 5.49114 9.972 5.39594 9.00211 5.59341C8.03221 5.79088 7.14286 6.27212 6.447 6.97601C5.75113 7.67991 5.28013 8.57471 5.09379 9.54681C4.90746 10.5189 5.01422 11.5244 5.40048 12.4358C5.78674 13.3471 6.43509 14.1231 7.26322 14.6652C8.09135 15.2073 9.06188 15.4911 10.0516 15.4806C11.3675 15.4665 12.6247 14.9337 13.5499 13.9978C14.475 13.062 14.9934 11.7988 14.9923 10.4828ZM16.9686 4.50459C16.9747 4.37224 16.9529 4.24009 16.9047 4.11669C16.8564 3.99329 16.7828 3.88139 16.6886 3.78825C16.5944 3.6951 16.4816 3.62278 16.3577 3.57596C16.2337 3.52914 16.1013 3.50886 15.9691 3.51645C15.7108 3.51528 15.4621 3.61451 15.2756 3.79321C15.0891 3.97191 14.9794 4.21608 14.9695 4.47419C14.9747 4.741 15.0799 4.99613 15.2643 5.18901C15.4488 5.38189 15.699 5.49843 15.9653 5.51553C16.0977 5.51554 16.2288 5.48934 16.351 5.43844C16.4732 5.38754 16.5842 5.31296 16.6774 5.21898C16.7707 5.12501 16.8445 5.0135 16.8944 4.89089C16.9444 4.76828 16.9696 4.63699 16.9686 4.50459Z" fill="#1E1E1E"/>
<path d="M12.9705 10.5248C12.963 11.1119 12.782 11.6836 12.4503 12.168C12.1187 12.6524 11.6511 13.0279 11.1065 13.2472C10.5619 13.4665 9.96461 13.5198 9.38978 13.4004C8.81495 13.2811 8.28829 12.9943 7.87606 12.5763C7.46383 12.1583 7.18445 11.6276 7.0731 11.0512C6.96176 10.4748 7.02342 9.87825 7.2503 9.33677C7.47719 8.79529 7.85917 8.33302 8.34818 8.00814C8.83719 7.68325 9.41139 7.51028 9.99848 7.51098C10.3933 7.5073 10.7849 7.58307 11.1499 7.73375C11.5149 7.88444 11.8458 8.10698 12.1231 8.38814C12.4003 8.6693 12.6183 9.00334 12.7638 9.3704C12.9094 9.73746 12.9797 10.13 12.9705 10.5248Z" fill="#1E1E1E"/>
</svg>
