<svg width="25" height="20" viewBox="0 0 25 20" fill="none" xmlns="http://www.w3.org/2000/svg">
<path d="M5.1155 17C4.65517 17 4.27083 16.8458 3.9625 16.5375C3.65417 16.2292 3.5 15.8448 3.5 15.3845V4.6155C3.5 4.15517 3.65417 3.77083 3.9625 3.4625C4.27083 3.15417 4.65517 3 5.1155 3H19.8845C20.3448 3 20.7292 3.15417 21.0375 3.4625C21.3458 3.77083 21.5 4.15517 21.5 4.6155V15.3845C21.5 15.8448 21.3458 16.2292 21.0375 16.5375C20.7292 16.8458 20.3448 17 19.8845 17H5.1155ZM12.5 10.1155L4.5 4.8845V15.3845C4.5 15.564 4.55767 15.7115 4.673 15.827C4.7885 15.9423 4.936 16 5.1155 16H19.8845C20.064 16 20.2115 15.9423 20.327 15.827C20.4423 15.7115 20.5 15.564 20.5 15.3845V4.8845L12.5 10.1155ZM12.5 9L20.1923 4H4.80775L12.5 9ZM4.5 4.8845V4V15.3845C4.5 15.564 4.55767 15.7115 4.673 15.827C4.7885 15.9423 4.936 16 5.1155 16H4.5V4.8845Z" fill="white"/>
</svg>
