<svg width="19" height="20" viewBox="0 0 19 20" fill="none" xmlns="http://www.w3.org/2000/svg">
<path d="M14.2859 9.26961C14.1998 9.22832 14.1123 9.18858 14.0236 9.15053C13.8693 6.30606 12.315 4.6776 9.7052 4.66094C9.69338 4.66086 9.68161 4.66086 9.66979 4.66086C8.10879 4.66086 6.81053 5.32718 6.01146 6.53966L7.44677 7.52425C8.04371 6.61857 8.98054 6.4255 9.67048 6.4255C9.67845 6.4255 9.68645 6.4255 9.69433 6.42557C10.5536 6.43105 11.2021 6.6809 11.6218 7.16813C11.9272 7.52284 12.1315 8.01302 12.2326 8.63165C11.4707 8.50216 10.6468 8.46234 9.76594 8.51284C7.28466 8.65577 5.68949 10.1029 5.79663 12.1137C5.85099 13.1337 6.35914 14.0112 7.2274 14.5845C7.9615 15.0691 8.90698 15.306 9.88962 15.2524C11.1873 15.1812 12.2053 14.6861 12.9155 13.7808C13.4549 13.0933 13.796 12.2024 13.9467 11.0798C14.5651 11.453 15.0234 11.9442 15.2766 12.5346C15.707 13.5382 15.7321 15.1875 14.3864 16.5321C13.2073 17.71 11.79 18.2196 9.64807 18.2353C7.2721 18.2177 5.47519 17.4557 4.30689 15.9705C3.21287 14.5798 2.64747 12.571 2.62638 10C2.64747 7.42894 3.21287 5.42017 4.30689 4.02945C5.47519 2.54426 7.27207 1.78229 9.64804 1.76464C12.0413 1.78243 13.8695 2.54806 15.0825 4.04042C15.6773 4.77225 16.1257 5.69258 16.4214 6.76566L18.1033 6.3169C17.745 4.99606 17.1811 3.85789 16.4139 2.91396C14.8588 1.0007 12.5844 0.0203279 9.65391 0H9.64218C6.71767 0.0202573 4.46876 1.00435 2.95795 2.92493C1.61353 4.634 0.920042 7.01205 0.89674 9.99297L0.896667 10L0.89674 10.007C0.920042 12.9879 1.61353 15.366 2.95795 17.0751C4.46876 18.9956 6.71767 19.9798 9.64218 20H9.65391C12.254 19.982 14.0867 19.3013 15.5965 17.7928C17.5718 15.8194 17.5123 13.3457 16.8612 11.8272C16.3942 10.7382 15.5036 9.85377 14.2859 9.26961ZM9.79672 13.4903C8.70922 13.5516 7.57942 13.0634 7.52371 12.0179C7.48242 11.2427 8.0754 10.3777 9.86346 10.2747C10.0682 10.2629 10.2692 10.2571 10.4666 10.2571C11.116 10.2571 11.7236 10.3202 12.276 10.4409C12.07 13.0141 10.8615 13.4319 9.79672 13.4903Z" fill="#1E1E1E"/>
</svg>
