<svg xmlns="http://www.w3.org/2000/svg" xmlns:xlink="http://www.w3.org/1999/xlink" width="20" height="20" viewBox="0 0 20 20">
  <defs>
    <clipPath id="clip-path">
      <rect id="Rectangle_431" data-name="Rectangle 431" width="20" height="20" transform="translate(0 0.007)" fill="#a2a2a2" stroke="#707070" stroke-width="1"/>
    </clipPath>
  </defs>
  <g id="Mask_Group_16" data-name="Mask Group 16" transform="translate(0 -0.007)" clip-path="url(#clip-path)">
    <g id="envelope" transform="translate(0 2.182)">
      <g id="Group_255" data-name="Group 255" transform="translate(0 0)">
        <path id="Path_236" data-name="Path 236" d="M1.955,7.29q.386.273,2.33,1.619t2.978,2.074q.114.08.483.347t.614.432q.244.165.591.369a3.429,3.429,0,0,0,.654.307,1.8,1.8,0,0,0,.568.1h.023a1.8,1.8,0,0,0,.568-.1,3.432,3.432,0,0,0,.653-.307q.347-.2.591-.369t.614-.432q.369-.267.483-.347l5.319-3.694a5.4,5.4,0,0,0,1.386-1.4,3,3,0,0,0,.557-1.716,1.834,1.834,0,0,0-1.818-1.818H1.818a1.623,1.623,0,0,0-1.347.591A2.294,2.294,0,0,0,0,4.426,2.655,2.655,0,0,0,.625,5.977,5.641,5.641,0,0,0,1.955,7.29Z" transform="translate(0 -2.357)" fill="#a2a2a2"/>
        <path id="Path_237" data-name="Path 237" d="M19.229,8.919Q15.5,11.442,13.569,12.84q-.648.477-1.051.744a6.487,6.487,0,0,1-1.074.545,3.27,3.27,0,0,1-1.25.278h-.023a3.271,3.271,0,0,1-1.25-.278,6.491,6.491,0,0,1-1.074-.545q-.4-.267-1.051-.744Q5.262,11.715,1.148,8.919A6.02,6.02,0,0,1,0,7.931v9.023a1.751,1.751,0,0,0,.534,1.284,1.751,1.751,0,0,0,1.284.534H18.547a1.824,1.824,0,0,0,1.818-1.819V7.931A6.267,6.267,0,0,1,19.229,8.919Z" transform="translate(0 -2.771)" fill="#a2a2a2"/>
      </g>
    </g>
  </g>
</svg>
