<svg xmlns="http://www.w3.org/2000/svg" xmlns:xlink="http://www.w3.org/1999/xlink" width="22" height="22" viewBox="0 0 22 22">
  <defs>
    <clipPath id="clip-path">
      <rect id="Rectangle_102" data-name="Rectangle 102" width="22" height="22" transform="translate(0 0.194)" fill="#FFFFFF"/>
    </clipPath>
  </defs>
  <g id="Mask_Group_9" data-name="Mask Group 9" transform="translate(0 -0.194)" opacity="0.736" clip-path="url(#clip-path)">
    <g id="call-answer_3_" data-name="call-answer (3)" transform="translate(-0.006 -0.024)">
      <g id="Group_126" data-name="Group 126">
        <g id="Group_125" data-name="Group 125">
          <path id="Path_141" data-name="Path 141" d="M21.592,17.448l-3.411-3.411a1.779,1.779,0,0,0-2.508.047L13.955,15.8l-.339-.189a17.1,17.1,0,0,1-4.133-2.99,17.2,17.2,0,0,1-3-4.141c-.064-.115-.125-.226-.185-.331L7.455,7l.567-.568a1.777,1.777,0,0,0,.046-2.508L4.657.513A1.777,1.777,0,0,0,2.149.56l-.961.967.026.026a5.559,5.559,0,0,0-.792,1.4A5.793,5.793,0,0,0,.07,4.368C-.381,8.1,1.326,11.514,5.956,16.145c6.4,6.4,11.559,5.917,11.782,5.893a5.763,5.763,0,0,0,1.421-.357,5.54,5.54,0,0,0,1.392-.789l.021.019.974-.954A1.78,1.78,0,0,0,21.592,17.448Z" transform="translate(0 -0.018)" fill="#FFFFFF"/>
        </g>
      </g>
    </g>
  </g>
</svg>
