<svg width="21" height="20" viewBox="0 0 21 20" fill="none" xmlns="http://www.w3.org/2000/svg">
<mask id="mask0_106_991" style="mask-type:alpha" maskUnits="userSpaceOnUse" x="0" y="0" width="21" height="20">
<rect x="0.5" width="20" height="20" fill="#D9D9D9"/>
</mask>
<g mask="url(#mask0_106_991)">
<path d="M10.5002 15.8781L10.0354 15.4535C8.68926 14.2388 7.57815 13.2065 6.70204 12.3566C5.82607 11.5066 5.141 10.7646 4.64683 10.1306C4.15266 9.49658 3.81023 8.92685 3.61954 8.42144C3.42884 7.91616 3.3335 7.40762 3.3335 6.89581C3.3335 5.9054 3.67968 5.06408 4.37204 4.37185C5.06426 3.67949 5.90558 3.33331 6.896 3.33331C7.58725 3.33331 8.24697 3.51387 8.87516 3.87498C9.50336 4.23609 10.045 4.76067 10.5002 5.44873C10.9553 4.76067 11.497 4.23609 12.1252 3.87498C12.7534 3.51387 13.4131 3.33331 14.1043 3.33331C15.0947 3.33331 15.9361 3.67949 16.6283 4.37185C17.3206 5.06408 17.6668 5.9054 17.6668 6.89581C17.6668 7.40762 17.575 7.90922 17.3912 8.4006C17.2075 8.89213 16.8685 9.45144 16.3743 10.0785C15.8802 10.7056 15.1943 11.4511 14.3166 12.315C13.439 13.1787 12.3079 14.2388 10.9233 15.4952L10.5002 15.8781ZM10.5002 14.9791C11.7918 13.8157 12.8543 12.825 13.6877 12.0073C14.521 11.1894 15.1842 10.4783 15.6772 9.87415C16.1703 9.26998 16.5141 8.73449 16.7085 8.26769C16.9029 7.80074 17.0002 7.34345 17.0002 6.89581C17.0002 6.07637 16.7224 5.38887 16.1668 4.83331C15.6113 4.27776 14.9238 3.99998 14.1043 3.99998C13.6075 3.99998 13.1447 4.10602 12.7158 4.31811C12.2868 4.53019 11.802 4.9129 11.2614 5.46623L10.5322 6.3204H10.4681L9.73891 5.46623C9.18766 4.9022 8.69329 4.51679 8.25579 4.30998C7.81829 4.10331 7.36502 3.99998 6.896 3.99998C6.08725 3.99998 5.40239 4.27776 4.84141 4.83331C4.28058 5.38887 4.00016 6.07637 4.00016 6.89581C4.00016 7.34345 4.09044 7.79033 4.271 8.23644C4.45155 8.68241 4.78141 9.20401 5.26058 9.80123C5.73975 10.3985 6.39947 11.1068 7.23975 11.9262C8.08002 12.7457 9.16683 13.7633 10.5002 14.9791Z" fill="white"/>
</g>
</svg>
