<svg width="35" height="35" viewBox="0 0 35 35" fill="none" xmlns="http://www.w3.org/2000/svg">
<path d="M27.9969 15.7501C28.0273 16.8326 27.8339 17.9095 27.4294 18.9101C27.0249 19.9107 26.4185 20.8124 25.6498 21.5561C23.5711 23.6541 21.1598 25.3146 18.7182 26.9326C18.3618 27.1651 17.9731 27.3412 17.5654 27.4551C17.0968 27.5983 16.9418 27.3932 17.0779 26.9209C17.2139 26.4487 17.3802 25.9455 17.4785 25.4462C17.5768 24.9469 17.3727 24.6721 16.8436 24.5714C16.0334 24.4431 15.2309 24.2687 14.4398 24.0489C12.0133 23.2515 10.0366 21.8232 8.85744 19.4543C7.55729 16.8339 7.74626 14.2444 9.35256 11.8329C11.0382 9.31306 13.51 8.05121 16.3938 7.63318C18.815 7.25041 21.2918 7.69813 23.4388 8.90664C25.5402 10.0679 27.0785 11.7671 27.7285 14.1786C27.8486 14.6964 27.9383 15.2212 27.9969 15.7501ZM19.8785 17.7551L19.8067 17.7822C19.7349 17.6816 19.6593 17.5809 19.5913 17.4764C19.0546 16.6403 18.5141 15.8081 17.9812 14.9721C17.8262 14.7282 17.641 14.5308 17.3236 14.585C17.0061 14.6392 16.9002 14.9372 16.8965 15.243C16.8965 16.4661 16.8965 17.6893 16.8965 18.9124C16.8965 19.1834 16.9985 19.4234 17.3084 19.4272C17.6183 19.4311 17.7544 19.1873 17.7582 18.9008C17.7582 18.1538 17.7582 17.4029 17.7582 16.6519C17.7582 16.5319 17.7582 16.4081 17.7846 16.1875C18.3176 17.0235 18.79 17.7706 19.2662 18.5099C19.3893 18.7542 19.5487 18.9775 19.7386 19.1718C19.9335 19.3218 20.1765 19.3909 20.419 19.3653C20.5437 19.3421 20.6873 19.0363 20.7062 18.8466C20.7478 18.417 20.7062 17.9796 20.7062 17.5461C20.7062 16.7061 20.7062 15.8623 20.7062 15.0224C20.7156 14.9663 20.7129 14.9088 20.6982 14.854C20.6835 14.7991 20.6572 14.7483 20.6211 14.705C20.585 14.6618 20.54 14.6272 20.4894 14.6038C20.4388 14.5804 20.3838 14.5687 20.3282 14.5695C20.0561 14.5695 19.9503 14.7282 19.8936 14.9566C19.8748 15.1002 19.8672 15.2452 19.8709 15.3901C19.8747 16.2029 19.8785 16.9771 19.8785 17.7551ZM22.7207 15.3901H24.7352C24.9846 15.3901 25.2265 15.3398 25.2227 15.0224C25.2189 14.705 24.9771 14.6624 24.7238 14.6624C23.9679 14.6624 23.1818 14.6624 22.4108 14.6624C21.9043 14.6624 21.7758 14.7979 21.772 15.3282C21.772 16.4584 21.772 17.5912 21.772 18.7266C21.772 19.2337 21.9119 19.3692 22.4297 19.3769C23.023 19.3769 23.6126 19.3769 24.206 19.3769C24.4586 19.3929 24.7122 19.3799 24.9619 19.3382C25.038 19.3098 25.1058 19.2623 25.1593 19.2001C25.2128 19.1379 25.2502 19.063 25.2681 18.9821C25.2681 18.8582 25.0829 18.7034 24.943 18.6299C24.806 18.5943 24.6635 18.5864 24.5235 18.6067H22.7283V17.279H22.9475C23.5144 17.279 24.0813 17.279 24.6445 17.2596C24.7297 17.2385 24.8087 17.1965 24.8745 17.1372C24.9404 17.0778 24.9911 17.0029 25.0224 16.919C25.0829 16.6868 24.8826 16.5823 24.6671 16.5668C24.5122 16.5668 24.3572 16.5668 24.2022 16.5668H22.7207V15.3901ZM11.8962 18.5834C11.8962 18.1964 11.8962 17.8441 11.8962 17.4919C11.8962 16.679 11.8962 15.8623 11.8735 15.0495C11.8722 14.9895 11.8595 14.9303 11.8359 14.8754C11.8124 14.8205 11.7785 14.7708 11.7362 14.7293C11.6939 14.6878 11.644 14.6552 11.5894 14.6335C11.5349 14.6117 11.4766 14.6011 11.4181 14.6024C11.3595 14.6037 11.3017 14.6167 11.2481 14.6409C11.1945 14.665 11.146 14.6997 11.1055 14.743C11.0649 14.7863 11.0331 14.8374 11.0119 14.8933C10.9906 14.9492 10.9803 15.0088 10.9815 15.0688C10.9815 16.3307 10.9815 17.5925 10.9815 18.8544C10.9757 18.9171 10.9828 18.9805 11.0024 19.0402C11.0221 19.1 11.0538 19.1548 11.0955 19.2012C11.1372 19.2476 11.188 19.2845 11.2446 19.3094C11.3011 19.3343 11.3622 19.3468 11.4237 19.346C11.5253 19.3595 11.6275 19.3672 11.7299 19.3692C12.4215 19.3692 13.1132 19.3692 13.8086 19.3692C14.0391 19.3692 14.247 19.2685 14.2395 18.9821C14.2319 18.6957 14.0316 18.595 13.7897 18.595H11.8999L11.8962 18.5834ZM14.9198 16.9693V18.8234C14.9198 19.1447 15.0067 19.4272 15.3733 19.4311C15.7399 19.435 15.8458 19.1447 15.8458 18.8312C15.8458 17.6235 15.8458 16.412 15.8458 15.2004C15.8458 14.7746 15.6568 14.5501 15.362 14.5734C14.984 14.6043 14.9235 14.883 14.9198 15.1927C14.9047 15.8004 14.9084 16.3926 14.9084 16.9848L14.9198 16.9693Z" fill="#1E1E1E"/>
</svg>
