<svg xmlns="http://www.w3.org/2000/svg" xmlns:xlink="http://www.w3.org/1999/xlink" width="19" height="19" viewBox="0 0 19 19">
  <defs>
    <clipPath id="clip-path">
      <rect id="Rectangle_590" data-name="Rectangle 590" width="19" height="19" transform="translate(129 2634)" fill="#7d7a7a" stroke="#707070" stroke-width="1"/>
    </clipPath>
  </defs>
  <g id="Mask_Group_39" data-name="Mask Group 39" transform="translate(-129 -2634)" clip-path="url(#clip-path)">
    <g id="iphone" transform="translate(132.563 2634)">
      <g id="Group_301" data-name="Group 301">
        <path id="Path_300" data-name="Path 300" d="M14.625,0h-9.5A1.189,1.189,0,0,0,3.938,1.188V17.813A1.189,1.189,0,0,0,5.125,19h9.5a1.188,1.188,0,0,0,1.188-1.187V1.188A1.189,1.189,0,0,0,14.625,0ZM9.875,17.813a1.188,1.188,0,1,1,1.188-1.187A1.188,1.188,0,0,1,9.875,17.813Zm4.75-3.562h-9.5V2.375h9.5Z" transform="translate(-3.938)" fill="#7d7a7a"/>
      </g>
    </g>
  </g>
</svg>
