<svg xmlns="http://www.w3.org/2000/svg" xmlns:xlink="http://www.w3.org/1999/xlink" width="20" height="21" viewBox="0 0 20 21">
  <defs>
    <clipPath id="clip-path">
      <rect id="Rectangle_428" data-name="Rectangle 428" width="20" height="21" transform="translate(0 -0.205)" fill="#a2a2a2" stroke="#707070" stroke-width="1"/>
    </clipPath>
  </defs>
  <g id="Mask_Group_15" data-name="Mask Group 15" transform="translate(0 0.205)" clip-path="url(#clip-path)">
    <path id="name_2_" data-name="name (2)" d="M18.032,1.7H13.577V1.485A1.487,1.487,0,0,0,12.092,0H8.274A1.487,1.487,0,0,0,6.789,1.485V1.7H2.334A2.335,2.335,0,0,0,0,4.031V14.638a2.336,2.336,0,0,0,2.334,2.334h15.7a2.336,2.336,0,0,0,2.334-2.334V4.031A2.335,2.335,0,0,0,18.032,1.7Zm-6.151,1.7h-3.4V1.7H11.88ZM6.364,5.94A2.121,2.121,0,1,1,4.243,8.061,2.124,2.124,0,0,1,6.364,5.94Zm3.819,7.849a.637.637,0,0,1-.636.636H3.182a.637.637,0,0,1-.636-.636v-.424a2.336,2.336,0,0,1,2.334-2.334h2.97a2.336,2.336,0,0,1,2.334,2.334Zm7,.636H12.516a.636.636,0,0,1,0-1.273h4.667a.636.636,0,0,1,0,1.273Zm0-3.394H12.516a.636.636,0,0,1,0-1.273h4.667a.636.636,0,0,1,0,1.273Zm0-3.394H12.516a.636.636,0,0,1,0-1.273h4.667a.636.636,0,0,1,0,1.273Zm0,0" transform="translate(0 1.697)" fill="#a2a2a2"/>
  </g>
</svg>
