<svg xmlns="http://www.w3.org/2000/svg" xmlns:xlink="http://www.w3.org/1999/xlink" width="26" height="26" viewBox="0 0 26 26">
  <defs>
    <clipPath id="clip-path">
      <rect id="Rectangle_29" data-name="Rectangle 29" width="26" height="26" transform="translate(755 173.515)" fill="#0062c4" stroke="#707070" stroke-width="1"/>
    </clipPath>
  </defs>
  <g id="Mask_Group_10" data-name="Mask Group 10" transform="translate(-755 -173.515)" clip-path="url(#clip-path)">
    <g id="school_1_" data-name="school (1)" transform="translate(755 175.193)">
      <g id="Group_33" data-name="Group 33" transform="translate(0 0)">
        <g id="Group_32" data-name="Group 32">
          <path id="Path_64" data-name="Path 64" d="M25.1,13.047H19.468V11.96a.44.44,0,0,0-.225-.383L13.211,8.186V6.46H14.4v.656a.44.44,0,0,0,.44.44h3.6a.44.44,0,0,0,.414-.59L18.495,5.94l.365-1a.44.44,0,0,0-.414-.59H16.808V3.707a.44.44,0,0,0-.44-.44H13.211V2.73a.44.44,0,0,0-.881,0V8.186L6.3,11.572a.44.44,0,0,0-.225.383v1.088H.44a.44.44,0,0,0-.44.44V25a.44.44,0,0,0,.44.44H25.1a.44.44,0,0,0,.44-.44V13.488A.44.44,0,0,0,25.1,13.047ZM16.808,6.019,16.791,6V5.244h1l-.181.564a.44.44,0,0,0,0,.3l.207.564H15.285V6.46h1.083A.44.44,0,0,0,16.808,6.019Zm-3.6-1.871h2.717V5.579H13.211ZM6.072,24.563H.881V13.928H6.072Zm6.257,0H10.018V19.534H12.33Zm3.193,0H13.211V19.534h2.312Zm3.082,0H16.4V19.093a.44.44,0,0,0-.44-.44H9.578a.44.44,0,0,0-.44.44v5.469h-2.2V12.233L12.77,8.948l5.817,3.267.018,1.268Zm6.055,0H19.468V13.928H24.66Z" transform="translate(0 -2.289)" fill="#0062c4"/>
        </g>
      </g>
      <g id="Group_35" data-name="Group 35" transform="translate(10.925 8.006)">
        <g id="Group_34" data-name="Group 34">
          <path id="Path_65" data-name="Path 65" d="M22.805,17.648a1.845,1.845,0,1,0,1.845,1.841A1.849,1.849,0,0,0,22.805,17.648Zm0,2.809a.964.964,0,1,1,.964-.96h0A.964.964,0,0,1,22.805,20.458Z" transform="translate(-20.96 -17.648)" fill="#0062c4"/>
        </g>
      </g>
      <g id="Group_37" data-name="Group 37" transform="translate(1.942 12.607)">
        <g id="Group_36" data-name="Group 36">
          <rect id="Rectangle_30" data-name="Rectangle 30" width="0.881" height="1.761" fill="#0062c4"/>
        </g>
      </g>
      <g id="Group_39" data-name="Group 39" transform="translate(4.113 12.607)">
        <g id="Group_38" data-name="Group 38">
          <rect id="Rectangle_31" data-name="Rectangle 31" width="0.881" height="1.761" fill="#0062c4"/>
        </g>
      </g>
      <g id="Group_41" data-name="Group 41" transform="translate(8.274 12.607)">
        <g id="Group_40" data-name="Group 40">
          <rect id="Rectangle_32" data-name="Rectangle 32" width="1.761" height="0.881" fill="#0062c4"/>
        </g>
      </g>
      <g id="Group_43" data-name="Group 43" transform="translate(11.89 12.607)">
        <g id="Group_42" data-name="Group 42">
          <rect id="Rectangle_33" data-name="Rectangle 33" width="1.761" height="0.881" fill="#0062c4"/>
        </g>
      </g>
      <g id="Group_45" data-name="Group 45" transform="translate(15.505 12.607)">
        <g id="Group_44" data-name="Group 44">
          <rect id="Rectangle_34" data-name="Rectangle 34" width="1.761" height="0.881" fill="#0062c4"/>
        </g>
      </g>
      <g id="Group_47" data-name="Group 47" transform="translate(8.274 14.659)">
        <g id="Group_46" data-name="Group 46">
          <rect id="Rectangle_35" data-name="Rectangle 35" width="1.761" height="0.881" fill="#0062c4"/>
        </g>
      </g>
      <g id="Group_49" data-name="Group 49" transform="translate(11.89 14.659)">
        <g id="Group_48" data-name="Group 48">
          <rect id="Rectangle_36" data-name="Rectangle 36" width="1.761" height="0.881" fill="#0062c4"/>
        </g>
      </g>
      <g id="Group_51" data-name="Group 51" transform="translate(15.505 14.659)">
        <g id="Group_50" data-name="Group 50">
          <rect id="Rectangle_37" data-name="Rectangle 37" width="1.761" height="0.881" fill="#0062c4"/>
        </g>
      </g>
      <g id="Group_53" data-name="Group 53" transform="translate(1.942 16.073)">
        <g id="Group_52" data-name="Group 52">
          <rect id="Rectangle_38" data-name="Rectangle 38" width="0.881" height="1.761" fill="#0062c4"/>
        </g>
      </g>
      <g id="Group_55" data-name="Group 55" transform="translate(4.113 16.073)">
        <g id="Group_54" data-name="Group 54">
          <rect id="Rectangle_39" data-name="Rectangle 39" width="0.881" height="1.761" fill="#0062c4"/>
        </g>
      </g>
      <g id="Group_57" data-name="Group 57" transform="translate(1.942 19.543)">
        <g id="Group_56" data-name="Group 56">
          <rect id="Rectangle_40" data-name="Rectangle 40" width="0.881" height="1.761" fill="#0062c4"/>
        </g>
      </g>
      <g id="Group_59" data-name="Group 59" transform="translate(4.113 19.543)">
        <g id="Group_58" data-name="Group 58">
          <rect id="Rectangle_41" data-name="Rectangle 41" width="0.881" height="1.761" fill="#0062c4"/>
        </g>
      </g>
      <g id="Group_61" data-name="Group 61" transform="translate(20.547 12.607)">
        <g id="Group_60" data-name="Group 60">
          <rect id="Rectangle_42" data-name="Rectangle 42" width="0.881" height="1.761" fill="#0062c4"/>
        </g>
      </g>
      <g id="Group_63" data-name="Group 63" transform="translate(22.718 12.607)">
        <g id="Group_62" data-name="Group 62">
          <rect id="Rectangle_43" data-name="Rectangle 43" width="0.881" height="1.761" fill="#0062c4"/>
        </g>
      </g>
      <g id="Group_65" data-name="Group 65" transform="translate(20.547 16.073)">
        <g id="Group_64" data-name="Group 64">
          <rect id="Rectangle_44" data-name="Rectangle 44" width="0.881" height="1.761" fill="#0062c4"/>
        </g>
      </g>
      <g id="Group_67" data-name="Group 67" transform="translate(22.718 16.073)">
        <g id="Group_66" data-name="Group 66">
          <rect id="Rectangle_45" data-name="Rectangle 45" width="0.881" height="1.761" fill="#0062c4"/>
        </g>
      </g>
      <g id="Group_69" data-name="Group 69" transform="translate(20.547 19.543)">
        <g id="Group_68" data-name="Group 68">
          <rect id="Rectangle_46" data-name="Rectangle 46" width="0.881" height="1.761" fill="#0062c4"/>
        </g>
      </g>
      <g id="Group_71" data-name="Group 71" transform="translate(22.718 19.543)">
        <g id="Group_70" data-name="Group 70">
          <rect id="Rectangle_47" data-name="Rectangle 47" width="0.881" height="1.761" fill="#0062c4"/>
        </g>
      </g>
    </g>
  </g>
</svg>
