<svg id="圖層_2" data-name="圖層 2" xmlns="http://www.w3.org/2000/svg" viewBox="0 0 21.62 18.89"><defs><style>.cls-1{fill:#221714;}</style></defs><path class="cls-1" d="M10.81,18.84l-.24-.14C8.83,17.67.18,12.31.18,5.7A5.55,5.55,0,0,1,1.85,1.77a5.68,5.68,0,0,1,4-1.61,5.57,5.57,0,0,1,5,3.21A5.58,5.58,0,0,1,21.44,5.69c0,6.62-8.65,12-10.39,13ZM5.76,1.14A4.62,4.62,0,0,0,1.16,5.7c0,5.9,7.94,11,9.68,12,1.74-1.05,9.68-6.15,9.68-12a4.62,4.62,0,0,0-9-1.32.68.68,0,0,1-.83.46.67.67,0,0,1-.46-.46A4.58,4.58,0,0,0,5.81,1.14Zm4.77,3Zm.55,0Z"/></svg>