<svg width="640" height="45" viewBox="0 0 640 45" fill="none" xmlns="http://www.w3.org/2000/svg">
<mask id="mask0_246_53" style="mask-type:alpha" maskUnits="userSpaceOnUse" x="0" y="0" width="640" height="45">
<rect width="640" height="45" fill="#292929"/>
</mask>
<g mask="url(#mask0_246_53)">
<path d="M14.5 33H0L-5 39L-9 59.5L643 48V2C642.167 2.16667 638 2.8 628 4C615.5 5.5 610 8.49999 605 8.49999C600 8.49999 588.5 7.99999 587 8.49999C585.5 8.99999 582 9.99999 574 9.99999C566 9.99999 562 12.5 558 12.5H516.5C512 12.5 502.5 14.5 494 12.5C485.5 10.5 475 9.99999 472 9.99999H452.5C448.5 9.99999 446 12.5 442.5 12.5C439 12.5 439 13 430 12.5C421 12 420 14 415 14.5C410 15 390.5 16 386 17.5C384.5 18 384.5 20.5 380.5 21C374.546 21.7442 365 24.5 357.5 24.5C350 24.5 326.5 27.5 321 27.5C315.5 27.5 305.5 27 302 26C298.5 25 300 24.5 298.5 24.5H283.5C279.5 24.5 279.5 21 276.5 21H236.5C226 21 225.5 21 218 22.5C210.5 24 192.5 22.5 188 22.5C183.5 22.5 185.5 24.5 181 24.5H164.5C157 24.5 154.5 22.5 150 22.5C146.5 22.5 141.5 24.5 134 24.5C126.5 24.5 122.5 22.5 118 22.5C117 22.5 113.5 24.5 112.5 24.5H88C85.5 24.5 84 26 79.5 27C75 28 47 29 41.5 29.5C39 29.7273 39 31.5 36.5 31.5H21.5C19.5 31.5 16 32.5 14.5 33Z" fill="#5B5B5B"/>
</g>
</svg>
