<svg width="21" height="21" viewBox="0 0 21 21" fill="none" xmlns="http://www.w3.org/2000/svg">
<path d="M20.9718 16.3521C20.9718 16.3521 20.941 16.2393 20.8999 16.1572C20.746 15.8597 20.4689 15.6237 20.1508 15.5006L15.7688 13.7974C15.2865 13.6332 14.6912 13.8692 14.3834 14.177L12.803 15.7571C12.4438 16.1162 11.9204 16.2085 11.5715 15.9623C10.3605 15.1517 9.13933 14.1565 7.98996 13.0073C6.84058 11.8582 5.8554 10.6372 5.03441 9.42654C4.79838 9.06743 4.89074 8.54416 5.23966 8.19532L6.82005 6.61525C7.12792 6.30745 7.36396 5.71236 7.19976 5.23013L5.49622 0.849042C5.37307 0.530977 5.1473 0.264213 4.83943 0.10005C4.75733 0.0590098 4.66497 0.0282296 4.64444 0.0282296C3.94661 -0.074372 3.28982 0.120568 2.70487 0.325771C2.13018 0.530975 1.62733 0.838781 1.21684 1.24919C-0.774049 3.23966 -0.24041 7.21034 2.22254 11.2118C3.09484 12.638 4.22369 14.0744 5.57831 15.4185C6.92267 16.7626 8.3594 17.8912 9.78586 18.7735C13.7779 21.236 17.7494 21.7798 19.7505 19.779C20.1713 19.3584 20.4689 18.8556 20.6742 18.2913C20.8794 17.7065 21.0744 17.0498 20.9718 16.3521Z" fill="#3C3C3C"/>
</svg>
