<svg width="21" height="21" viewBox="0 0 21 21" fill="none" xmlns="http://www.w3.org/2000/svg">
<g clip-path="url(#clip0_304_14)">
<path d="M6.52295 10.5C6.52295 11.6037 6.62238 12.6477 6.79142 13.6222H14.209C14.3781 12.6477 14.4775 11.6037 14.4775 10.5C14.4775 9.3963 14.3781 8.35227 14.209 7.37784H6.79142C6.62238 8.35227 6.52295 9.3963 6.52295 10.5Z" fill="#3C3C3C"/>
<path d="M13.8309 5.67756C12.8962 2.20739 11.176 0 10.4999 0C9.82378 0 8.1036 2.20739 7.16895 5.67756H13.8309Z" fill="#3C3C3C"/>
<path d="M20.5329 7.37784H15.9292C16.0883 8.3821 16.1778 9.42613 16.1778 10.5C16.1778 11.5739 16.0883 12.6179 15.9292 13.6222H20.5329C20.8411 12.6378 21.0002 11.5838 21.0002 10.5C21.0002 9.41619 20.8312 8.36221 20.5329 7.37784Z" fill="#3C3C3C"/>
<path d="M19.8166 5.67756C18.4941 3.1321 16.1674 1.20312 13.3535 0.407669C14.2683 1.72017 15.0737 3.55966 15.5907 5.67756H19.8166Z" fill="#3C3C3C"/>
<path d="M7.16895 15.3224C8.1036 18.7926 9.82378 21 10.4999 21C11.176 21 12.8962 18.7926 13.8309 15.3224H7.16895Z" fill="#3C3C3C"/>
<path d="M7.64617 0.407669C4.83225 1.19318 2.50555 3.1321 1.18311 5.67756H5.40896C5.926 3.55966 6.7314 1.72017 7.64617 0.407669Z" fill="#3C3C3C"/>
<path d="M13.3535 20.5923C16.1674 19.7969 18.4941 17.8679 19.8166 15.3224H15.5907C15.0737 17.4403 14.2683 19.2798 13.3535 20.5923Z" fill="#3C3C3C"/>
<path d="M1.18311 15.3224C2.50555 17.8679 4.83225 19.7969 7.64617 20.5923C6.7314 19.2798 5.926 17.4403 5.40896 15.3224H1.18311Z" fill="#3C3C3C"/>
<path d="M4.82244 10.5C4.82244 9.42613 4.91193 8.3821 5.07102 7.37784H0.46733C0.159091 8.36221 0 9.41619 0 10.5C0 11.5838 0.169034 12.6378 0.46733 13.6222H5.07102C4.91193 12.6179 4.82244 11.5739 4.82244 10.5Z" fill="#3C3C3C"/>
</g>
<defs>
<clipPath id="clip0_304_14">
<rect width="21" height="21" fill="white"/>
</clipPath>
</defs>
</svg>
