<?xml version="1.0" encoding="UTF-8"?>
<svg id="_圖層_2" data-name="圖層 2" xmlns="http://www.w3.org/2000/svg" viewBox="0 0 21.62 18.89">
  <defs>
    <style>
      .cls-1 {
        fill: #928c89;
      }
    </style>
  </defs>
  <path class="cls-1" d="M10.81,18.89l-.24-.14C8.8,17.71,0,12.29,0,5.6c.01-1.5.62-2.93,1.7-3.97C2.79.57,4.25,0,5.77,0c2.18.02,4.16,1.28,5.08,3.25C12.23.45,15.63-.71,18.44.66c1.9.93,3.13,2.83,3.18,4.93,0,6.69-8.8,12.13-10.57,13.15l-.24.15ZM5.67.99c-2.56.01-4.64,2.06-4.68,4.61,0,5.97,8.07,11.12,9.84,12.13,1.77-1.06,9.84-6.22,9.84-12.13-.08-2.58-2.25-4.6-4.84-4.52-1.97.06-3.69,1.33-4.31,3.19-.11.36-.48.56-.84.47-.23-.06-.4-.24-.47-.47-.6-1.96-2.43-3.29-4.49-3.28h-.05Z"/>
</svg>