<?xml version="1.0" encoding="UTF-8"?>
<svg id="_圖層_1" data-name="圖層 1" xmlns="http://www.w3.org/2000/svg" viewBox="0 0 507.01 482.86">
  <defs>
    <style>
      .cls-1 {
        fill: #fff;
      }
    </style>
  </defs>
  <path class="cls-1" d="M409.09,196.27c7.35.2,13.15,6.33,12.95,13.68-.19,7.07-5.88,12.76-12.95,12.95h-37.08v23.77h37.08c7.35,0,13.3,5.94,13.31,13.29,0,7.35-5.94,13.3-13.29,13.31h-50.42c-7.32-.04-13.23-5.97-13.25-13.29v-100.79c.03-7.34,5.97-13.28,13.31-13.3h50.4c7.35.22,13.13,6.35,12.91,13.7-.21,7.07-5.9,12.74-12.97,12.91h-37.08v23.77h37.08ZM327.65,259.98c0,7.31-5.91,13.23-13.22,13.24-.04,0-.07,0-.11,0-4.23.09-8.24-1.88-10.77-5.27l-51.6-70.08v62.11c0,7.33-5.94,13.28-13.27,13.29s-13.28-5.94-13.29-13.27h0v-100.8c0-5.71,3.68-10.78,9.11-12.56,1.32-.47,2.71-.7,4.11-.7,4.11.13,7.95,2.1,10.45,5.37l52,70.35v-62.44c-.2-7.35,5.59-13.47,12.94-13.67s13.47,5.59,13.67,12.94c0,.24,0,.49,0,.73l-.02,100.77ZM206.36,259.98c.2,7.34-5.58,13.45-12.92,13.65-7.34.2-13.45-5.58-13.65-12.92,0-.24,0-.49,0-.73v-100.79c-.2-7.34,5.58-13.45,12.92-13.65,7.34-.2,13.45,5.58,13.65,12.92,0,.24,0,.49,0,.73v100.79ZM154.27,273.27h-50.4c-7.33-.04-13.26-5.96-13.31-13.29v-100.79c0-7.35,5.96-13.31,13.31-13.31s13.31,5.96,13.31,13.31v87.48h37.09c7.35,0,13.3,5.95,13.3,13.3s-5.95,13.3-13.3,13.3ZM507,205.79C507,92.33,393.24,0,253.5,0S0,92.33,0,205.79c0,101.64,90.2,186.78,212,203,8.25,1.72,19.5,5.45,22.35,12.46,2.54,6.36,1.67,16.18.81,22.82l-3.47,21.55c-1,6.35-5.07,25.05,22.17,13.62s146.09-86.14,199.33-147.34c36.42-39.91,53.82-80.79,53.82-126.07v-.04Z"/>
</svg>