<?xml version="1.0" encoding="UTF-8"?>
<svg id="_圖層_1" data-name="圖層 1" xmlns="http://www.w3.org/2000/svg" viewBox="0 0 25.99 25.99">
  <defs>
    <style>
      .cls-1 {
        fill: #333;
      }
    </style>
  </defs>
  <path class="cls-1" d="M25.95,20.24s-.04-.14-.09-.24c-.2-.37-.53-.66-.92-.81l-5.42-2.11c-.6-.21-1.33.09-1.71.47l-1.95,1.95c-.44.44-1.09.55-1.53.26-1.51-1.01-3.01-2.23-4.43-3.65s-2.65-2.93-3.65-4.43c-.29-.44-.18-1.09.26-1.53l1.95-1.95c.38-.38.68-1.12.47-1.71L6.81,1.05c-.15-.39-.44-.73-.81-.92-.1-.05-.22-.08-.24-.09-.86-.13-1.68.11-2.4.37-.71.25-1.33.63-1.84,1.14C-.96,4.02-.3,8.93,2.76,13.88c1.08,1.77,2.48,3.54,4.15,5.21,1.67,1.67,3.44,3.06,5.21,4.15,4.95,3.05,9.86,3.72,12.33,1.25.52-.52.9-1.14,1.14-1.84.25-.72.5-1.54.37-2.4Z"/>
</svg>