<?xml version="1.0" encoding="UTF-8"?>
<svg id="_圖層_1" data-name="圖層 1" xmlns="http://www.w3.org/2000/svg" viewBox="0 0 67.87 57.98">
  <defs>
    <style>
      .cls-1, .cls-2, .cls-3, .cls-4 {
        fill-rule: evenodd;
      }

      .cls-1, .cls-3 {
        fill: #fff;
      }

      .cls-2, .cls-5 {
        fill: #353232;
      }

      .cls-3 {
        opacity: .05;
      }

      .cls-4 {
        fill: #649d32;
      }
    </style>
  </defs>
  <polygon class="cls-2" points="33.59 0 43.03 5.45 52.48 10.9 52.48 21.81 52.48 23.21 33.59 34.11 19.86 26.18 19.86 35.69 14.7 32.71 14.7 21.81 14.7 10.9 24.15 5.45 33.59 0"/>
  <path class="cls-3" d="M33.59-.59l.08.05c.32,1.4.48,2.85.48,4.35,0,10.8-8.69,19.56-19.45,19.7v-13.19l9.44-5.45L33.59-.59Z"/>
  <polygon class="cls-4" points="21.22 27.95 21.22 35.89 33.59 43.03 52.48 32.13 52.48 24.19 33.59 35.09 21.22 27.95"/>
  <path class="cls-1" d="M33.12,11.6h-4.72v4.72h4.72v-4.72ZM38.78,17.23h-4.72v4.72h4.72v-4.72ZM33.12,17.23h-4.72v4.72h4.72v-4.72ZM38.78,11.6h-4.72v4.72h4.72v-4.72Z"/>
  <path class="cls-5" d="M62.94,47.61c0-.25.11-.47.33-.64.22-.18.52-.27.91-.27.35,0,.69.07,1.03.2.34.13.68.33,1.03.58l.71-1.01c-.39-.31-.81-.55-1.25-.71-.44-.16-.94-.24-1.5-.24-.37,0-.72.05-1.04.16-.32.1-.59.25-.81.45-.23.19-.4.43-.53.7-.13.27-.19.57-.19.9,0,.35.06.65.17.9.11.24.28.45.49.63.21.17.48.32.79.43.32.11.67.22,1.08.31.35.09.64.17.86.25.22.08.39.16.52.25.13.09.21.19.26.3.05.11.07.23.07.37,0,.3-.12.53-.36.7-.24.17-.57.26-.98.26-.48,0-.9-.09-1.27-.26-.38-.17-.75-.41-1.11-.73l-.8.95c.45.41.95.71,1.48.91.53.2,1.09.3,1.68.3.4,0,.76-.05,1.09-.15.33-.1.61-.25.85-.44.24-.19.42-.43.55-.71.13-.28.2-.6.2-.96,0-.32-.05-.59-.16-.83-.1-.23-.26-.44-.46-.62-.2-.18-.46-.33-.76-.45-.31-.12-.66-.23-1.06-.34-.36-.09-.66-.17-.9-.25-.23-.08-.42-.17-.55-.26-.13-.09-.23-.2-.28-.3-.05-.11-.08-.24-.08-.39M58.33,48.89l3.15-3.26h-1.63l-3.6,3.81v-3.81h-1.32v7.57h1.32v-2.2l1.18-1.21,2.59,3.41h1.61l-3.29-4.32ZM54.11,45.64h-5.6v7.57h5.66v-1.2h-4.34v-2.02h3.8v-1.2h-3.8v-1.95h4.28v-1.2ZM46.07,50.02v3.19h1.32v-7.57h-1.32v3.15h-3.63v-3.15h-1.32v7.57h1.32v-3.19h3.63ZM40.56,51.99l-.86-.86c-.32.3-.65.54-.98.72-.33.18-.73.27-1.19.27-.36,0-.69-.07-1-.21-.31-.14-.57-.33-.8-.58-.22-.25-.4-.53-.52-.86-.12-.33-.19-.68-.19-1.06s.06-.72.19-1.05c.12-.33.29-.61.52-.85.22-.24.49-.43.8-.57.31-.14.64-.21,1-.21.43,0,.82.09,1.16.26.34.17.66.4.96.68l.85-.98c-.18-.17-.37-.33-.57-.48-.2-.14-.42-.27-.66-.37-.24-.11-.5-.19-.78-.24-.28-.06-.6-.09-.95-.09-.58,0-1.1.1-1.58.31-.48.21-.89.49-1.23.84-.35.36-.61.77-.8,1.25-.19.48-.29.98-.29,1.52s.1,1.06.29,1.54c.19.48.46.89.81,1.24.34.35.75.63,1.22.83.47.2.98.3,1.54.3.35,0,.68-.03.97-.09.29-.06.56-.15.81-.27.24-.12.47-.26.69-.42.21-.16.42-.35.61-.56ZM29.91,45.64h-5.6v7.57h5.66v-1.2h-4.34v-2.02h3.8v-1.2h-3.8v-1.95h4.28v-1.2ZM21.87,47.78v5.43h1.32v-7.57h-1.42l-2.3,3.58-2.3-3.58h-1.42v7.57h1.32v-5.41l2.37,3.55h.04l2.39-3.57ZM13.58,49.43c0,.37-.06.72-.19,1.04-.13.33-.3.61-.53.86-.22.24-.49.43-.81.57-.31.14-.66.21-1.03.21s-.72-.07-1.04-.22c-.32-.14-.59-.34-.82-.58-.23-.25-.4-.53-.53-.86s-.19-.68-.19-1.04.06-.71.19-1.04c.13-.33.3-.61.52-.86.22-.24.49-.43.81-.57.31-.14.66-.21,1.03-.21s.72.07,1.04.22c.32.14.59.34.82.58.23.25.4.53.53.86.13.33.19.68.19,1.04ZM14.97,49.41c0-.53-.1-1.04-.29-1.51-.19-.48-.47-.89-.81-1.24-.35-.35-.76-.63-1.24-.84-.48-.21-1.02-.31-1.6-.31s-1.12.1-1.6.31c-.48.21-.9.49-1.26.85-.35.36-.63.77-.82,1.25-.19.48-.29.98-.29,1.51s.1,1.04.29,1.52c.19.48.46.89.81,1.24.35.35.76.63,1.24.84.48.21,1.02.31,1.6.31s1.12-.1,1.6-.31c.48-.21.9-.49,1.25-.85.35-.36.63-.77.82-1.25.19-.48.29-.98.29-1.52ZM4.95,50.02v3.19h1.32v-7.57h-1.32v3.15H1.32v-3.15H0v7.57h1.32v-3.19h3.64Z"/>
  <path class="cls-5" d="M66.97,56.33h-1.25v1.7h1.27v-.27h-.97v-.45h.85v-.27h-.85v-.44h.96v-.27ZM61.91,56.89c0,.09-.03.16-.09.21-.06.05-.15.08-.26.08h-.44v-.57h.43c.11,0,.2.02.26.07.06.05.09.12.09.21ZM62.27,58.03l-.46-.64c.06-.02.11-.04.16-.07.05-.03.09-.07.13-.11.04-.04.06-.09.08-.15.02-.06.03-.12.03-.19,0-.08-.01-.16-.04-.22-.03-.07-.07-.12-.12-.17-.06-.05-.12-.08-.2-.11-.08-.03-.17-.04-.26-.04h-.75v1.7h.3v-.59h.37l.42.59h.35ZM57.33,56.33h-1.25v1.7h1.27v-.27h-.97v-.45h.85v-.27h-.85v-.44h.96v-.27ZM52.22,57.31v.71h.3v-1.7h-.3v.71h-.81v-.71h-.3v1.7h.3v-.71h.81ZM46.52,57.51l-.91-1.17h-.28v1.7h.3v-1.21l.93,1.21h.25v-1.7h-.3v1.17ZM41.32,57.36h-.58l.29-.68.29.68ZM41.17,56.32h-.28l-.75,1.71h.31l.17-.41h.8l.17.41h.31l-.75-1.71ZM36.77,57.79v-.71h-.72v.26h.43v.32c-.05.04-.11.07-.18.09-.07.02-.15.03-.23.03-.09,0-.17-.01-.24-.05-.07-.03-.13-.07-.18-.13-.05-.05-.09-.12-.12-.19-.03-.07-.04-.16-.04-.24,0-.08.01-.16.04-.23.03-.07.07-.14.12-.19.05-.06.11-.1.17-.13.07-.03.14-.05.22-.05.05,0,.1,0,.15.01.04,0,.08.02.12.04.04.01.07.03.11.06.03.02.07.05.1.07l.19-.22s-.09-.07-.13-.1c-.05-.03-.1-.05-.15-.07-.05-.02-.11-.03-.17-.04-.06-.01-.13-.02-.2-.02-.13,0-.25.02-.35.07-.11.05-.2.11-.28.19-.08.08-.14.17-.18.28-.04.11-.06.22-.06.34s.02.24.06.35c.04.11.1.2.18.28.08.08.17.14.28.18.11.04.23.07.36.07.07,0,.15,0,.21-.02.07-.01.13-.03.19-.06.06-.02.11-.05.16-.09.05-.03.1-.07.14-.1ZM31.46,57.18c0,.08-.02.16-.04.23-.03.07-.07.14-.12.19-.05.05-.11.1-.18.13-.07.03-.15.05-.23.05s-.16-.02-.23-.05c-.07-.03-.13-.08-.18-.13-.05-.06-.09-.12-.12-.19-.03-.07-.04-.15-.04-.23s.01-.16.04-.23c.03-.07.07-.14.12-.19.05-.05.11-.1.18-.13.07-.03.15-.05.23-.05s.16.02.23.05c.07.03.13.08.18.13.05.05.09.12.12.19.03.07.04.15.04.23ZM31.77,57.18c0-.12-.02-.23-.06-.34-.04-.11-.1-.2-.18-.28-.08-.08-.17-.14-.28-.19-.11-.05-.23-.07-.36-.07s-.25.02-.36.07c-.11.05-.2.11-.28.19-.08.08-.14.17-.19.28-.04.11-.06.22-.06.34s.02.23.06.34c.04.11.1.2.18.28.08.08.17.14.28.19.11.05.23.07.36.07s.25-.02.36-.07c.11-.05.2-.11.28-.19.08-.08.14-.17.18-.28.04-.11.06-.22.06-.34ZM25.54,58.03h1.19v-.27h-.89v-1.43h-.3v1.7ZM21.11,56.78c0-.06.02-.1.07-.14.05-.04.12-.06.2-.06.08,0,.15.01.23.04.08.03.15.07.23.13l.16-.22c-.09-.07-.18-.12-.28-.16-.1-.04-.21-.05-.34-.05-.08,0-.16.01-.23.04-.07.02-.13.06-.18.1-.05.04-.09.1-.12.16-.03.06-.04.13-.04.2,0,.08.01.15.04.2.02.06.06.1.11.14.05.04.11.07.18.1.07.03.15.05.24.07.08.02.14.04.19.06.05.02.09.04.12.06.03.02.05.04.06.07.01.02.02.05.02.08,0,.07-.03.12-.08.16-.05.04-.13.06-.22.06-.11,0-.2-.02-.29-.06-.08-.04-.17-.09-.25-.16l-.18.21c.1.09.21.16.33.2.12.04.24.07.38.07.09,0,.17-.01.24-.03.07-.02.14-.06.19-.1.05-.04.09-.1.12-.16.03-.06.04-.14.04-.22,0-.07-.01-.13-.03-.18-.02-.05-.06-.1-.1-.14-.05-.04-.1-.07-.17-.1-.07-.03-.15-.05-.24-.07-.08-.02-.15-.04-.2-.06-.05-.02-.09-.04-.12-.06-.03-.02-.05-.04-.06-.07-.01-.02-.02-.05-.02-.09ZM16.33,56.89c0,.09-.03.16-.09.21-.06.05-.15.08-.26.08h-.44v-.57h.44c.11,0,.2.02.26.07.06.05.09.12.09.21ZM16.69,58.03l-.46-.64c.06-.02.11-.04.16-.07.05-.03.09-.07.13-.11.04-.04.06-.09.08-.15.02-.06.03-.12.03-.19,0-.08-.01-.16-.04-.22-.03-.07-.07-.12-.12-.17-.05-.05-.12-.08-.2-.11-.08-.03-.17-.04-.26-.04h-.75v1.7h.3v-.59h.37l.42.59h.35ZM11.71,56.33h-.3v.98c0,.16-.04.27-.11.35-.08.08-.18.12-.31.12s-.24-.04-.32-.12c-.08-.08-.11-.2-.11-.36v-.96h-.3v.98c0,.12.02.23.05.32.03.09.08.17.14.23s.14.11.23.14c.09.03.19.05.3.05s.21-.02.3-.05c.09-.03.16-.08.23-.14.06-.06.11-.14.15-.24.03-.09.05-.21.05-.33v-.96ZM6.48,57.18c0,.08-.01.16-.04.23-.03.07-.07.14-.12.19-.05.05-.11.1-.18.13-.07.03-.15.05-.23.05s-.16-.02-.23-.05c-.07-.03-.13-.08-.18-.13-.05-.06-.09-.12-.12-.19-.03-.07-.04-.15-.04-.23s.01-.16.04-.23c.03-.07.07-.14.12-.19.05-.05.11-.1.18-.13.07-.03.15-.05.23-.05s.16.02.23.05c.07.03.13.08.18.13.05.05.09.12.12.19.03.07.04.15.04.23ZM6.79,57.18c0-.12-.02-.23-.07-.34-.04-.11-.1-.2-.18-.28-.08-.08-.17-.14-.28-.19-.11-.05-.23-.07-.36-.07s-.25.02-.36.07c-.11.05-.2.11-.28.19-.08.08-.14.17-.18.28-.04.11-.06.22-.06.34s.02.23.06.34c.04.11.1.2.18.28.08.08.17.14.28.19.11.05.23.07.36.07s.25-.02.36-.07.2-.11.28-.19c.08-.08.14-.17.18-.28.04-.11.07-.22.07-.34ZM1.17,57.35l.67-1.02h-.34l-.48.75-.47-.75H.2l.67,1.03v.67h.3v-.68Z"/>
</svg>