<?xml version="1.0" encoding="UTF-8"?>
<svg id="_圖層_1" data-name="圖層 1" xmlns="http://www.w3.org/2000/svg" viewBox="0 0 26.72 26.72">
  <defs>
    <style>
      .cls-1 {
        fill: #333;
      }
    </style>
  </defs>
  <path class="cls-1" d="M13.36,0C5.99,0,0,5.99,0,13.36s5.99,13.36,13.36,13.36,13.36-5.99,13.36-13.36S20.72,0,13.36,0ZM13.99,20.08v-6.09h6.07c-.06,2.18-.45,4.28-1.13,6.09h-4.94ZM17.6,24.68c.83-.88,1.57-2.02,2.16-3.34h2.67c-1.32,1.5-2.97,2.64-4.83,3.34ZM13.99,25.39v-4.05h4.4c-1.13,2.3-2.72,3.76-4.4,4.05ZM19.76,5.37c-.59-1.32-1.33-2.46-2.16-3.34,1.85.69,3.51,1.84,4.83,3.34h-2.67ZM13.99,5.37V1.32c1.68.29,3.26,1.75,4.4,4.05h-4.4ZM13.99,12.73v-6.09h4.94c.68,1.81,1.07,3.91,1.13,6.09h-6.07ZM25.43,13.99c-.11,2.18-.81,4.28-2.02,6.09h-3.14c.64-1.85,1.01-3.94,1.07-6.09h4.1ZM25.43,12.73h-4.1c-.06-2.14-.43-4.24-1.07-6.09h3.14c1.21,1.81,1.91,3.91,2.03,6.09ZM6.46,20.08h-3.14c-1.21-1.81-1.91-3.91-2.02-6.09h4.1c.06,2.14.43,4.24,1.07,6.09ZM1.29,12.73c.11-2.18.81-4.28,2.03-6.09h3.14c-.64,1.85-1.01,3.94-1.07,6.09H1.29ZM6.96,21.34c.59,1.32,1.33,2.46,2.16,3.34-1.85-.69-3.51-1.84-4.83-3.34h2.67ZM12.72,21.34v4.05c-1.68-.29-3.26-1.75-4.4-4.05h4.4ZM12.72,13.99v6.09h-4.94c-.68-1.81-1.07-3.91-1.13-6.09h6.07ZM4.29,5.37c1.32-1.5,2.97-2.64,4.83-3.34-.83.88-1.57,2.02-2.16,3.34h-2.67ZM12.72,6.64v6.09h-6.07c.06-2.18.45-4.28,1.13-6.09h4.94ZM12.72,1.32v4.05h-4.4c1.13-2.3,2.72-3.76,4.4-4.05Z"/>
</svg>