<svg width="26" height="26" viewBox="0 0 26 26" fill="none" xmlns="http://www.w3.org/2000/svg">
<path d="M21.6666 1.82V24.18C21.6651 24.6623 21.4406 25.1245 21.0423 25.4655C20.6439 25.8066 20.1041 25.9987 19.5407 26H6.45911C5.89576 25.9987 5.35591 25.8066 4.95756 25.4655C4.55921 25.1245 4.33475 24.6623 4.33325 24.18V1.82C4.33475 1.3377 4.55921 0.875525 4.95756 0.534487C5.35591 0.193449 5.89576 0.00128671 6.45911 0H19.5407C20.1041 0.00128671 20.6439 0.193449 21.0423 0.534487C21.4406 0.875525 21.6651 1.3377 21.6666 1.82ZM19.5407 4.8165H6.45911V21.4663H19.5407V4.8165ZM9.46188 2.51225C9.46188 2.7536 9.57387 2.98506 9.77321 3.15572C9.97255 3.32638 10.2429 3.42225 10.5248 3.42225H15.4788C15.7607 3.42225 16.0311 3.32638 16.2304 3.15572C16.4298 2.98506 16.5417 2.7536 16.5417 2.51225C16.5417 2.2709 16.4298 2.03944 16.2304 1.86878C16.0311 1.69812 15.7607 1.60225 15.4788 1.60225H10.5248C10.2429 1.60225 9.97255 1.69812 9.77321 1.86878C9.57387 2.03944 9.46188 2.2709 9.46188 2.51225ZM14.0609 23.7331C14.0609 23.5539 13.9989 23.3786 13.8826 23.2295C13.7663 23.0805 13.601 22.9642 13.4076 22.8956C13.2141 22.8269 13.0013 22.8088 12.7959 22.8437C12.5905 22.8785 12.4018 22.9647 12.2536 23.0914C12.1054 23.218 12.0043 23.3794 11.9633 23.5552C11.9222 23.731 11.9429 23.9133 12.0228 24.079C12.1026 24.2447 12.2381 24.3864 12.412 24.4863C12.5859 24.5861 12.7905 24.6396 12.9999 24.6399C13.1392 24.6401 13.2771 24.6168 13.4058 24.5713C13.5345 24.5258 13.6515 24.4591 13.7501 24.3749C13.8486 24.2906 13.9268 24.1906 13.9801 24.0805C14.0335 23.9704 14.0609 23.8523 14.0609 23.7331Z" fill="white"/>
</svg>
