<svg width="127" height="121" viewBox="0 0 127 121" fill="none" xmlns="http://www.w3.org/2000/svg">
<g clip-path="url(#clip0_357_168)">
<path d="M102.472 49.1833C104.313 49.2335 105.766 50.7696 105.716 52.6114C105.668 54.3831 104.243 55.8089 102.472 55.8566H93.1841V61.8131H102.472C104.313 61.8131 105.804 63.3016 105.806 65.1434C105.806 66.9853 104.318 68.4763 102.477 68.4788H89.8476C88.014 68.4688 86.5336 66.9828 86.5286 65.1485V39.8915C86.5361 38.0521 88.024 36.5636 89.8626 36.5586H102.487C104.328 36.6137 105.776 38.1499 105.721 39.9917C105.668 41.7634 104.243 43.1842 102.472 43.2268H93.1841V49.1833H102.472ZM82.0724 65.1485C82.0724 66.9803 80.5921 68.4638 78.761 68.4663C78.751 68.4663 78.7435 68.4663 78.7334 68.4663C77.6739 68.4888 76.6694 67.9952 76.0357 67.1457L63.1105 49.5843V65.1485C63.1105 66.9853 61.6226 68.4763 59.7865 68.4788C57.9504 68.4813 56.46 66.9903 56.4575 65.1535V39.894C56.4575 38.4631 57.3793 37.1926 58.7395 36.7466C59.0701 36.6288 59.4183 36.5711 59.769 36.5711C60.7985 36.6037 61.7604 37.0974 62.3866 37.9168L75.412 55.5458V39.899C75.3619 38.0571 76.8122 36.5235 78.6533 36.4734C80.4944 36.4233 82.0274 37.8742 82.0775 39.716C82.0775 39.7762 82.0775 39.8388 82.0775 39.899L82.0724 65.151V65.1485ZM51.6907 65.1485C51.7408 66.9878 50.293 68.5189 48.4544 68.569C46.6158 68.6191 45.0854 67.1707 45.0353 65.3314C45.0353 65.2712 45.0353 65.2086 45.0353 65.1485V39.8915C44.9852 38.0521 46.433 36.521 48.2716 36.4709C50.1102 36.4208 51.6406 37.8692 51.6907 39.7085C51.6907 39.7687 51.6907 39.8313 51.6907 39.8915V65.1485ZM38.6428 68.4788H26.0182C24.1821 68.4688 22.6967 66.9853 22.6842 65.1485V39.8915C22.6842 38.0496 24.1771 36.5561 26.0182 36.5561C27.8593 36.5561 29.3522 38.0496 29.3522 39.8915V61.8131H38.6428C40.4839 61.8131 41.9743 63.3041 41.9743 65.1459C41.9743 66.9878 40.4839 68.4788 38.6428 68.4788ZM126.997 51.569C126.997 23.137 98.502 0 63.4987 0C28.4955 0 0 23.137 0 51.569C0 77.039 22.594 98.3742 53.1035 102.439C55.17 102.87 57.988 103.804 58.7019 105.561C59.3381 107.155 59.1202 109.616 58.9048 111.28L58.0356 116.68C57.7851 118.271 56.7656 122.957 63.5889 120.093C70.4122 117.229 100.183 98.507 113.519 83.1709C122.642 73.1698 127 62.9257 127 51.579V51.569H126.997Z" fill="#CDE3DA"/>
</g>
<defs>
<clipPath id="clip0_357_168">
<rect width="127" height="121" fill="white"/>
</clipPath>
</defs>
</svg>
