<svg width="35" height="35" viewBox="0 0 35 35" fill="none" xmlns="http://www.w3.org/2000/svg">
<path d="M22.1317 7.51117H19.722C17.0267 7.51117 15.2849 9.44461 15.2849 12.4303V14.6984H12.8752C12.8257 14.6984 12.7766 14.709 12.7308 14.7296C12.6851 14.7502 12.6436 14.7804 12.6087 14.8184C12.5738 14.8564 12.5462 14.9015 12.5276 14.9511C12.5089 15.0007 12.4996 15.0538 12.5 15.1074V18.3942C12.5 18.5017 12.5395 18.6048 12.6099 18.6808C12.6803 18.7568 12.7757 18.7995 12.8752 18.7995H15.2849V27.091C15.2849 27.1995 15.3248 27.3035 15.3958 27.3802C15.4668 27.4569 15.5631 27.5 15.6635 27.5H18.8098C18.9102 27.5 19.0066 27.4569 19.0776 27.3802C19.1486 27.3035 19.1885 27.1995 19.1885 27.091V18.8032H22.0077C22.0573 18.8037 22.1065 18.7936 22.1524 18.7734C22.1983 18.7533 22.2401 18.7235 22.2753 18.6858C22.3105 18.6482 22.3384 18.6033 22.3575 18.5539C22.3766 18.5045 22.3864 18.4515 22.3864 18.3979V15.0851C22.3854 14.9767 22.3459 14.873 22.2763 14.795C22.2045 14.7191 22.1082 14.6764 22.0077 14.6761H19.1885V12.7538C19.1885 11.8317 19.3916 11.3632 20.5034 11.3632H22.1213C22.1709 11.3637 22.2201 11.3536 22.266 11.3334C22.3119 11.3133 22.3537 11.2835 22.3889 11.2458C22.4241 11.2081 22.452 11.1633 22.4711 11.1139C22.4902 11.0644 22.5 11.0114 22.5 10.9579V7.9053C22.5 7.85176 22.4902 7.79875 22.4711 7.74934C22.452 7.69992 22.4241 7.65508 22.3889 7.6174C22.3537 7.57971 22.3119 7.54994 22.266 7.52979C22.2201 7.50964 22.1709 7.49953 22.1213 7.50002L22.1317 7.51117Z" fill="#2E2E2E"/>
</svg>
