<svg width="24" height="20" viewBox="0 0 24 20" fill="none" xmlns="http://www.w3.org/2000/svg">
<path d="M4.6155 17C4.15517 17 3.77083 16.8458 3.4625 16.5375C3.15417 16.2292 3 15.8448 3 15.3845V4.6155C3 4.15517 3.15417 3.77083 3.4625 3.4625C3.77083 3.15417 4.15517 3 4.6155 3H19.3845C19.8448 3 20.2292 3.15417 20.5375 3.4625C20.8458 3.77083 21 4.15517 21 4.6155V15.3845C21 15.8448 20.8458 16.2292 20.5375 16.5375C20.2292 16.8458 19.8448 17 19.3845 17H4.6155ZM12 10.1155L4 4.8845V15.3845C4 15.564 4.05767 15.7115 4.173 15.827C4.2885 15.9423 4.436 16 4.6155 16H19.3845C19.564 16 19.7115 15.9423 19.827 15.827C19.9423 15.7115 20 15.564 20 15.3845V4.8845L12 10.1155ZM12 9L19.6923 4H4.30775L12 9ZM4 4.8845V4V15.3845C4 15.564 4.05767 15.7115 4.173 15.827C4.2885 15.9423 4.436 16 4.6155 16H4V4.8845Z" fill="#2E2E2E"/>
</svg>
