<svg id="圖層_1" data-name="圖層 1" xmlns="http://www.w3.org/2000/svg" viewBox="0 0 135.84 135.84"><defs><style>.cls-1{fill:#333;}</style></defs><path class="cls-1" d="M118.38,57,88.82,27.41,69.64,8.24a2.43,2.43,0,0,0-3.44,0L47,27.41,17.46,57,.72,73.71a2.43,2.43,0,0,0,1.72,4.15H15a2.43,2.43,0,0,1,2.43,2.43v45.59a2.43,2.43,0,0,0,2.43,2.44H56.11a2.44,2.44,0,0,0,2.44-2.44V95.27A2.43,2.43,0,0,1,61,92.84H74.86a2.43,2.43,0,0,1,2.43,2.43v30.61a2.44,2.44,0,0,0,2.44,2.44H116a2.43,2.43,0,0,0,2.43-2.44V80.29a2.43,2.43,0,0,1,2.43-2.43H133.4a2.43,2.43,0,0,0,1.72-4.15Z"/></svg>