<svg id="圖層_1" data-name="圖層 1" xmlns="http://www.w3.org/2000/svg" viewBox="0 0 507 482.85"><path d="M411.59,197.85a13.32,13.32,0,0,1,0,26.63H374.51v23.77h37.08a13.3,13.3,0,1,1,0,26.6h-50.4a13.33,13.33,0,0,1-13.25-13.29V160.77a13.35,13.35,0,0,1,13.31-13.3h50.4a13.31,13.31,0,0,1-.06,26.61H374.51v23.77Zm-81.44,63.71a13.23,13.23,0,0,1-13.33,13.24,13.09,13.09,0,0,1-10.77-5.27l-51.6-70.08v62.11a13.28,13.28,0,1,1-26.56,0V160.77A13.23,13.23,0,0,1,237,148.21a12.21,12.21,0,0,1,4.11-.7,13.69,13.69,0,0,1,10.45,5.37l52,70.35V160.79a13.31,13.31,0,1,1,26.61,0Zm-121.29,0a13.29,13.29,0,1,1-26.57,0V160.77a13.29,13.29,0,1,1,26.57,0Zm-52.09,13.29h-50.4a13.38,13.38,0,0,1-13.31-13.29V160.77a13.31,13.31,0,0,1,26.62,0v87.48h37.09a13.3,13.3,0,0,1,0,26.6ZM509.5,207.37C509.5,93.91,395.74,1.58,256,1.58S2.5,93.91,2.5,207.37c0,101.64,90.2,186.78,212,203,8.25,1.72,19.5,5.45,22.35,12.46,2.54,6.36,1.67,16.18.81,22.82l-3.47,21.55c-1,6.35-5.07,25.05,22.17,13.62s146.09-86.14,199.33-147.34c36.42-39.91,53.82-80.79,53.82-126.07Z" transform="translate(-2.5 -1.58)"/></svg>