<?xml version="1.0" encoding="utf-8"?>
<!-- Generator: Adobe Illustrator 26.0.1, SVG Export Plug-In . SVG Version: 6.00 Build 0)  -->
<svg version="1.1" id="圖層_1" xmlns="http://www.w3.org/2000/svg" xmlns:xlink="http://www.w3.org/1999/xlink" x="0px" y="0px"
	 viewBox="0 0 30 30" style="enable-background:new 0 0 30 30;" xml:space="preserve">
<style type="text/css">
	.st0{fill:none;}
</style>
<g>
	<path class="st0" d="M18.7,17.5c0.5,0.4,1.1,0.7,1.7,1.1c0.2,0.1,0.4,0,0.6,0c0.5-0.3,1-0.6,1.4-0.9c0.3-0.2,0.6-0.5,0.7-0.8
		c0.2-0.4,0.1-0.7-0.3-0.9c-0.1-0.1-0.3,0-0.4,0c-1.1,0-2.3,0-3.4,0c-0.1,0-0.3,0-0.4,0c-0.4,0.2-0.6,0.5-0.4,0.9
		C18.3,17.2,18.5,17.3,18.7,17.5z"/>
	<path class="st0" d="M24.2,25.4c-1,0-2,0-2.9,0s-2,0-3,0c-0.3,0-0.4,0.1-0.4,0.4c0,0.5,0,1,0,1.4c0,0.3,0.1,0.4,0.4,0.4
		c1.5,0,3,0,4.5,0c1.3,0,1.8-0.5,1.9-1.9C24.7,25.5,24.6,25.4,24.2,25.4z"/>
	<path class="st0" d="M10.8,16c-1.1,0-2.2,0-3.3,0c-0.4,0-0.7,0-0.8,0.5c-0.1,0.6,0,1.2,0.4,1.4c1.3,0,2.7,0,4.1,0
		c0.5-0.2,0.4-0.6,0.4-1C11.7,16.2,11.4,16,10.8,16z"/>
	<path d="M22.3,4.1c-1.7,0-3.5,0-5.2,0c-1,0-1,0-1-1c0-0.8-0.1-0.7,0.6-0.7c2.5,0,5.1,0,7.6,0c0.4,0,0.5-0.1,0.5-0.5
		c0-0.3,0-0.6,0-0.9c0-0.7,0-0.7-0.6-0.7c-6,0-12,0-18,0c-0.2,0-0.4,0-0.6,0c0,0,0,0-0.1,0C5.3,0.5,5.3,0.7,5.3,0.9
		c0,0.4-0.2,1.1,0.1,1.4c0.3,0.3,0.9,0.1,1.3,0.1c2,0,4,0,6,0c0.4,0,0.9-0.2,1.2,0c0.2,0.2,0,0.8,0,1.1c0,0.4,0,0.5-0.4,0.5
		c-1.9,0-3.9,0-5.9,0c-3,0-5.4,2.1-5.9,5.1c-0.1,1,0,1.9,0,2.9c0,0.2,0.1,0.3,0.3,0.3c0.4,0,0.8,0,1.3,0c0.3,0,0.4-0.1,0.4-0.5
		c0-0.6,0-1.2,0-1.8c0-2.1,1.7-3.8,3.7-3.8c0.1,0,0.3,0,0.4,0c1.9,0,3.8,0,5.7,0c0.4,0,0.5,0.1,0.5,0.5c0,1.4,0,2.9,0,4.4
		c0,0.3,0.1,0.4,0.4,0.4c0.4,0,0.8,0,1.2,0c0.4,0,0.5-0.1,0.5-0.5c0-1.4,0-2.9,0-4.3c0-0.3,0.1-0.4,0.4-0.4c1.9,0,3.7,0,5.6,0
		c0.2,0,0.4,0,0.6,0c0,0,0.1,0,0.2,0c1.9,0.2,3.4,1.9,3.4,3.9c0,0.6,0,1.2,0,1.8c0,0.3,0.1,0.4,0.4,0.4c0.4,0,0.8,0,1.3,0
		c0.3,0,0.4-0.1,0.4-0.4c0-0.5,0-1.1,0-1.6C28.4,6.7,25.8,4.1,22.3,4.1z"/>
	<path d="M7.3,12c0.2,0.2,0.3,0.2,0.5,0c0.3-0.4,0.7-0.7,1.1-1.1c0.2-0.2,0.3-0.2,0.5,0c0.3,0.4,0.7,0.7,1.1,1.1
		c0.2,0.2,0.3,0.2,0.5,0c0.3-0.3,0.6-0.7,1-1c0.2-0.2,0.2-0.3,0-0.5c-0.5-0.5-1-1-1.5-1.5c-0.3-0.4-0.8-0.5-1.3-0.5
		c-0.5,0-1,0.1-1.4,0.6c-0.5,0.5-1,1-1.4,1.4c-0.2,0.2-0.2,0.3,0,0.5C6.7,11.4,7,11.7,7.3,12z"/>
	<path d="M19.4,12.1c0.2,0.2,0.3,0.2,0.5,0c0.3-0.3,0.7-0.7,1-1c0.2-0.2,0.4-0.2,0.6,0c0.3,0.4,0.7,0.7,1.1,1.1
		c0.1,0.1,0.3,0.2,0.5,0c0.3-0.3,0.6-0.6,1-1c0.2-0.2,0.2-0.3,0-0.5c-0.5-0.5-1-1-1.5-1.5c-0.3-0.4-0.8-0.5-1.3-0.5
		c-0.5,0-1,0.1-1.3,0.5c-0.5,0.5-1,1-1.5,1.5c-0.2,0.2-0.2,0.3,0,0.5C18.7,11.4,19.1,11.7,19.4,12.1z"/>
	<path d="M11.9,14c-1.8,0-3.6,0-5.3,0c-0.8,0-1.4,0.4-1.7,1.1c-0.4,1.3-0.4,2.5,0,3.8c0.2,0.7,0.9,1,1.6,1.2c0.4,0.1,0.9,0,1.3,0
		s0.5,0,0.5,0.5c0,2.2,0,4.3,0,6.4c0,0.1,0,0.3-0.1,0.5c-1.2-0.2-1.9-1.3-2-2.5c0-0.6,0-1.2,0-1.7c0-0.2-0.1-0.4-0.3-0.4
		c-0.4,0-0.9,0-1.3,0c-0.3,0-0.3,0.1-0.3,0.4c0,0.7,0,1.3,0,2c0,2.4,1.9,4.4,4.3,4.5c1.6,0,3.3,0,4.9,0c0.2,0,0.4-0.1,0.3-0.4
		c0-0.4,0-0.9,0-1.3c0-0.3-0.1-0.5-0.4-0.4c-0.8,0-1.6,0-2.5,0c-0.3,0-0.3-0.1-0.3-0.3c0-0.7,0-1.4,0-2.1c0-0.4,0.1-0.5,0.5-0.4
		c0.8,0,1.6,0,2.4,0c0.3,0,0.5,0,0.5-0.4c0-0.4,0-0.8,0-1.2c0-0.3-0.1-0.4-0.4-0.4c-0.9,0-1.7,0-2.5,0c-0.2,0-0.3,0-0.3-0.3
		c0-0.7,0-1.3,0-2.1c0-0.3,0.1-0.3,0.3-0.3c0.4,0,0.7,0,1.1,0c1.1,0,1.9-0.8,2-1.9c0-0.8,0-1.5,0-2.3C13.7,14.8,12.9,14,11.9,14z
		 M11.2,17.9c-1.4,0-2.8,0-4.1,0c-0.4-0.2-0.5-0.8-0.4-1.4C6.9,16,7.2,16,7.5,16c1.1,0,2.2,0,3.3,0c0.6,0,0.9,0.2,0.9,0.9
		C11.7,17.3,11.8,17.7,11.2,17.9z"/>
	<path d="M15.9,15.9c0,1.2,0.5,2.2,1.3,3c0.4,0.3,0.8,0.6,1.3,0.9c-0.7,0.4-1.4,0.4-2.1,0.4c-0.3,0-0.4,0.1-0.4,0.4
		c0,0.4,0,0.8,0,1.2c0,0.4,0.1,0.5,0.5,0.5c1.4,0.1,2.6-0.3,3.9-1c0.3-0.1,0.5-0.1,0.8,0c1.2,0.7,2.5,1.1,3.9,1
		c0.3,0,0.4-0.1,0.4-0.4c-0.1-0.2,0-0.5,0-0.8c0-0.9,0.1-0.8-0.8-0.8c-0.6,0-1.1-0.1-1.6-0.3c0.3-0.2,0.7-0.4,1-0.7
		c1-0.8,1.6-1.9,1.6-3.2c0-1.1-0.8-1.9-1.9-2c-1.9,0-3.9,0-5.8,0C16.8,14,16,14.8,15.9,15.9z M18.6,16c0.1-0.1,0.3,0,0.4,0
		c1.2,0,2.3,0,3.4,0c0.1,0,0.3,0,0.4,0c0.4,0.2,0.5,0.5,0.3,0.9c-0.1,0.3-0.4,0.6-0.7,0.8c-0.5,0.3-1,0.6-1.4,0.9
		c-0.2,0.1-0.4,0.1-0.6,0c-0.6-0.3-1.2-0.6-1.7-1.1c-0.2-0.2-0.4-0.4-0.5-0.7C18,16.4,18.1,16.2,18.6,16z"/>
	<path d="M24.4,23.4c-2.2,0-4.3,0-6.4,0c-1.3,0-2.1,0.9-2.1,2.2c0,1.2,0,2.4,0,3.6c0,0.3,0.1,0.4,0.4,0.4c1.2,0,2.3,0,3.4,0
		c1.1,0,2.2,0,3.3,0c1.7,0,3.2-1.2,3.4-2.7c0.1-0.4,0-0.9,0-1.3C26.6,24.3,25.6,23.4,24.4,23.4z M22.8,27.7c-1.5,0-3,0-4.5,0
		c-0.3,0-0.4-0.1-0.4-0.4c0-0.5,0-1,0-1.4c0-0.3,0.1-0.4,0.4-0.4c1,0,2,0,3,0s1.9,0,2.9,0c0.3,0,0.4,0.1,0.4,0.4
		C24.6,27.2,24.1,27.7,22.8,27.7z"/>
</g>
</svg>
