<?xml version="1.0" encoding="utf-8"?>
<!-- Generator: Adobe Illustrator 26.0.1, SVG Export Plug-In . SVG Version: 6.00 Build 0)  -->
<svg version="1.1" id="圖層_1" xmlns="http://www.w3.org/2000/svg" xmlns:xlink="http://www.w3.org/1999/xlink" x="0px" y="0px"
	 viewBox="0 0 30 30" style="enable-background:new 0 0 30 30;" xml:space="preserve">
<path d="M20,22.5c0.3-2.3-1.2-3.8-5.3-5.1c-2-0.7-2.9-1.5-2.9-2.7c0.1-1.3,1.3-2.3,3-2.3c1.3,0,2.6,0.4,3.6,1.1
	c0.1,0.1,0.2,0.1,0.3-0.1c0.1-0.2,0.4-0.6,0.5-0.8c0.1-0.1,0.1-0.2-0.1-0.4c-0.2-0.2-0.9-0.5-1.2-0.7c-1-0.4-2.1-0.6-3.2-0.6
	c-2.4,0-4.3,1.5-4.5,3.5c-0.1,1.5,0.6,2.6,2.2,3.5c0.3,0.2,2.1,0.9,2.8,1.1c2.2,0.7,3.4,1.9,3.1,3.4c-0.2,1.3-1.6,2.2-3.6,2.2
	C13.4,24.6,12,24,11,23.2L10.8,23c-0.1-0.1-0.3-0.1-0.4,0c-0.1,0.1-0.5,0.7-0.6,0.8c-0.1,0.1,0,0.2,0.1,0.3c0.4,0.4,1,0.8,1.4,1
	c1.1,0.6,2.3,0.9,3.6,0.9c0.9,0,1.8-0.1,2.6-0.4C18.9,25.1,19.8,23.9,20,22.5z M15,1.8c-2.6,0-4.7,2.4-4.8,5.5h9.7
	C19.7,4.2,17.6,1.8,15,1.8 M24.9,30l-0.1,0L4.9,30c-1.4,0-2.4-1.1-2.5-2.5l0-0.2L1.5,7.9c0-0.1,0-0.2,0-0.2c0-0.1,0.1-0.1,0.1-0.2
	c0.1-0.1,0.1-0.1,0.2-0.1c0.1,0,0.1,0,0.2-0.1h6.3C8.5,3.2,11.4,0,15,0c3.6,0,6.5,3.2,6.7,7.2h6.3c0.1,0,0.2,0,0.2,0
	c0.1,0,0.1,0.1,0.2,0.1c0.1,0.1,0.1,0.1,0.1,0.2c0,0.1,0,0.2,0,0.2l-1,19.5l0,0.2C27.4,28.9,26.3,30,24.9,30z"/>
</svg>
