<svg xmlns="http://www.w3.org/2000/svg" viewBox="0 0 22 16.08"><defs><style>.cls-1{fill:#ffefeb;}</style></defs><g id="圖層_4" data-name="圖層 4"><path class="cls-1" d="M14.76,5.65h-.52V9.52h.52A.52.52,0,0,0,15.29,9V6.17A.52.52,0,0,0,14.76,5.65Z"/><path class="cls-1" d="M13.41.53A.53.53,0,0,0,13.09,0a.54.54,0,0,0-.58.11,17.57,17.57,0,0,1-5.63,4,13.27,13.27,0,0,1-1.3.48v6c1.29.31,3.81,1.29,6.93,4.41a.55.55,0,0,0,.38.16h0a.53.53,0,0,0,.52-.53V.53Z"/><path class="cls-1" d="M4.74,4.61H.55A.57.57,0,0,0,0,5.19V10.6H4.74v-6Z"/><path class="cls-1" d="M4.77,11.35H.71l1.83,4.41a.53.53,0,0,0,.48.32H5.94a.52.52,0,0,0,.53-.52.48.48,0,0,0-.06-.24Z"/><path class="cls-1" d="M16.46,4.24a.54.54,0,0,0,0,.76,3.66,3.66,0,0,1,0,5.17.54.54,0,0,0,.38.92.54.54,0,0,0,.39-.16,4.74,4.74,0,0,0,0-6.69A.53.53,0,0,0,16.46,4.24Z"/><path class="cls-1" d="M19.63,1.84a.55.55,0,0,0-.77,0,.54.54,0,0,0,0,.76,7.06,7.06,0,0,1,0,10,.55.55,0,0,0,0,.77.53.53,0,0,0,.76,0A8.14,8.14,0,0,0,19.63,1.84Z"/></g></svg>