<svg id="圖層_1" data-name="圖層 1" xmlns="http://www.w3.org/2000/svg" viewBox="0 0 141.73 141.73"><defs><style>.cls-1{fill:#333;}</style></defs><path class="cls-1" d="M136.75,107.69a7.09,7.09,0,0,0-.46-1.23,8.88,8.88,0,0,0-4.7-4.12L104,91.6c-3-1-6.79.47-8.72,2.4l-9.94,9.93c-2.25,2.25-5.54,2.82-7.78,1.33A150.21,150.21,0,0,1,55.05,86.68,149.71,149.71,0,0,1,36.47,64.14c-1.49-2.24-.92-5.53,1.33-7.78l9.94-9.94c1.93-1.93,3.45-5.69,2.4-8.71L39.4,10.14a8.94,8.94,0,0,0-4.13-4.7A7.42,7.42,0,0,0,34.05,5c-4.39-.66-8.54.57-12.21,1.87a24.69,24.69,0,0,0-9.37,5.81C-.08,25.21,3.28,50.2,18.81,75.35a145.44,145.44,0,0,0,21.1,26.47,144.58,144.58,0,0,0,26.47,21.1c25.15,15.53,50.14,18.89,62.69,6.34a24.84,24.84,0,0,0,5.82-9.37C136.18,116.22,137.41,112.07,136.75,107.69Z"/></svg>