<svg xmlns="http://www.w3.org/2000/svg" viewBox="0 0 25.73 15.37"><defs><style>.cls-1{fill:#ffeed6;}</style></defs><g id="圖層_4" data-name="圖層 4"><path class="cls-1" d="M9.37,7.7A3.54,3.54,0,0,0,7.63,6.18a4,4,0,0,1-5.11,0A3.54,3.54,0,0,0,.35,9L0,11.9a.72.72,0,0,0,.56.8,21.82,21.82,0,0,0,4.51.46c.61,0,1.2,0,1.79-.07l.24-2A4.58,4.58,0,0,1,9.37,7.7Z"/><path class="cls-1" d="M5.08,0a3,3,0,1,0,3,3A3,3,0,0,0,5.08,0Z"/><path class="cls-1" d="M25.38,9a3.54,3.54,0,0,0-2.17-2.85,4,4,0,0,1-5.11,0A3.54,3.54,0,0,0,16.36,7.7a4.53,4.53,0,0,1,2.26,3.41l.24,2c.59.05,1.18.07,1.79.07a21.82,21.82,0,0,0,4.51-.46.73.73,0,0,0,.57-.8Z"/><path class="cls-1" d="M20.65,0a3,3,0,1,0,3,3A3,3,0,0,0,20.65,0Z"/><path class="cls-1" d="M17.59,11.24a3.5,3.5,0,0,0-2.17-2.85,4,4,0,0,1-5.11,0,3.52,3.52,0,0,0-2.17,2.85l-.35,2.87a.74.74,0,0,0,.56.8,22,22,0,0,0,4.51.46,22,22,0,0,0,4.52-.46.74.74,0,0,0,.56-.8Z"/><path class="cls-1" d="M12.86,2.21a3,3,0,1,0,3,3A3,3,0,0,0,12.86,2.21Z"/></g></svg>