<?xml version="1.0" encoding="utf-8"?>
<!-- Generator: Adobe Illustrator 26.0.1, SVG Export Plug-In . SVG Version: 6.00 Build 0)  -->
<svg version="1.1" id="圖層_1" xmlns="http://www.w3.org/2000/svg" xmlns:xlink="http://www.w3.org/1999/xlink" x="0px" y="0px"
	 viewBox="0 0 30 30" style="enable-background:new 0 0 30 30;" xml:space="preserve">
<path d="M22.7,4.7c-1.1-1.3-1.8-3-1.8-4.7h-5.2v20.7c0,1.1-0.5,2.2-1.3,3c-0.8,0.8-1.9,1.2-3,1.2c-2.4,0-4.4-1.9-4.4-4.3
	c0-2.9,2.8-5,5.6-4.1v-5.3c-5.8-0.8-10.8,3.7-10.8,9.4c0,5.5,4.6,9.5,9.5,9.5c5.3,0,9.5-4.2,9.5-9.5V10c2.1,1.5,4.6,2.3,7.2,2.3V7.2
	C28.1,7.2,25,7.3,22.7,4.7z"/>
</svg>
