<svg id="圖層_1" data-name="圖層 1" xmlns="http://www.w3.org/2000/svg" viewBox="0 0 141.73 141.73"><defs><style>.cls-1{fill:#333;}</style></defs><path class="cls-1" d="M70.87,3a67.92,67.92,0,1,0,67.91,67.92A68,68,0,0,0,70.87,3ZM74.09,105V74.09H105A97.21,97.21,0,0,1,99.21,105Zm18.33,23.4a60.23,60.23,0,0,0,11-17H117A61.35,61.35,0,0,1,92.42,128.43Zm-18.33,3.63V111.47H96.44C90.68,123.15,82.62,130.59,74.09,132.06ZM103.42,30.27a60.49,60.49,0,0,0-11-17,61.31,61.31,0,0,1,24.54,17Zm-29.33,0V9.67c8.53,1.48,16.59,8.91,22.35,20.6Zm0,37.38V36.71H99.21A97.11,97.11,0,0,1,105,67.65Zm58.15,6.44A61.24,61.24,0,0,1,121.94,105H106a104.47,104.47,0,0,0,5.45-30.94Zm0-6.44H111.41A104.41,104.41,0,0,0,106,36.71h16A61.21,61.21,0,0,1,132.24,67.65ZM35.77,105h-16A61.24,61.24,0,0,1,9.49,74.09H30.32A104.47,104.47,0,0,0,35.77,105ZM9.49,67.65a61.21,61.21,0,0,1,10.3-30.94h16a104.41,104.41,0,0,0-5.45,30.94Zm28.82,43.82a60.45,60.45,0,0,0,11,17,61.35,61.35,0,0,1-24.55-17Zm29.34,0v20.59c-8.53-1.47-16.6-8.91-22.36-20.59Zm0-37.38V105H42.52a97.49,97.49,0,0,1-5.76-30.94ZM24.76,30.27a61.27,61.27,0,0,1,24.55-17,60.51,60.51,0,0,0-11,17Zm42.89,6.44V67.65H36.76a97.38,97.38,0,0,1,5.76-30.94Zm0-27v20.6H45.3C51.05,18.58,59.12,11.15,67.65,9.67Z"/></svg>