<svg width="100" height="100" viewBox="0 0 100 100" fill="none" xmlns="http://www.w3.org/2000/svg">
<path fill-rule="evenodd" clip-rule="evenodd" d="M29.2714 32.2813C34.9665 26.5729 44.2002 26.5729 49.8953 32.2813L50 32.3862L50.1047 32.2813C55.7998 26.5729 65.0335 26.5729 70.7286 32.2813C76.4238 37.9896 76.4238 47.2447 70.7286 52.9531L52.9463 70.7768C51.3191 72.4077 48.6809 72.4077 47.0537 70.7768L29.2714 52.9531C23.5762 47.2447 23.5762 37.9896 29.2714 32.2813ZM50 38.2925L46.949 35.2344C42.8811 31.157 36.2856 31.157 32.2176 35.2344C28.1497 39.3118 28.1497 45.9226 32.2176 50L50 67.8237L67.7824 50C71.8503 45.9226 71.8503 39.3118 67.7824 35.2344C63.7144 31.157 57.1189 31.157 53.051 35.2344L50 38.2925Z" fill="black"/>
</svg>
