<svg width="100" height="100" viewBox="0 0 100 100" fill="none" xmlns="http://www.w3.org/2000/svg">
<path fill-rule="evenodd" clip-rule="evenodd" d="M80.6298 64.6038C72.4424 74.1205 54.1668 85.6658 50 87.4364C46.0134 89.1303 46.4098 86.57 46.5795 85.4731C46.5872 85.4238 46.5945 85.3768 46.6008 85.3339C46.6739 84.9404 46.8566 83.8215 47.149 81.9772C47.2952 80.9444 47.4414 79.3952 47.0394 78.3992C46.6008 77.2927 44.8829 76.7394 43.6036 76.4443C24.8529 73.9729 11 60.7308 11 44.9435C11 27.3487 28.4714 13 50 13C71.4921 13 89 27.3487 89 44.9435C89 51.9887 86.2587 58.3332 80.6298 64.6038ZM75.4152 54.4976H64.4499C64.0478 54.4976 63.7189 54.1657 63.7189 53.7599V36.5709C63.7189 36.1652 64.0478 35.8332 64.4499 35.8332H75.4152C75.8173 35.8332 76.1462 36.1652 76.1462 36.5709V39.3743C76.1462 39.78 75.8173 40.112 75.4152 40.112H67.9588V43.026H75.4152C75.8173 43.026 76.1462 43.358 76.1462 43.7638V46.5671C76.1462 46.9729 75.8173 47.3048 75.4152 47.3048H67.9588V50.2188H75.4152C75.8173 50.2188 76.1462 50.5508 76.1462 50.9566V53.7599C76.1462 54.1657 75.8173 54.4976 75.4152 54.4976ZM23.9148 54.4976H34.8801C35.2821 54.4976 35.6111 54.1657 35.6111 53.7599V50.9566C35.6111 50.5508 35.2821 50.2188 34.8801 50.2188H27.4237V36.5709C27.4237 36.1652 27.0947 35.8332 26.6926 35.8332H23.9148C23.5127 35.8332 23.1837 36.1652 23.1837 36.5709V53.7599C23.1837 54.1657 23.5127 54.4976 23.9148 54.4976ZM41.4585 35.8332H38.6812C38.2776 35.8332 37.9504 36.1635 37.9504 36.5709V53.7599C37.9504 54.1673 38.2776 54.4976 38.6812 54.4976H41.4585C41.8622 54.4976 42.1894 54.1673 42.1894 53.7599V36.5709C42.1894 36.1635 41.8622 35.8332 41.4585 35.8332ZM61.0507 53.7599V36.5709C61.0507 36.1652 60.7218 35.8332 60.2832 35.8332H57.5418C57.1398 35.8332 56.7743 36.1652 56.7743 36.5709V46.7515L48.9889 36.1652C48.9889 36.1406 48.9767 36.116 48.9523 36.0914L48.8427 35.9808H48.8061C48.8061 35.9562 48.7939 35.9439 48.7696 35.9439V35.907H48.6965L48.6599 35.8701H48.6234C48.599 35.8701 48.5868 35.8578 48.5868 35.8332H45.6262C45.2241 35.8332 44.8586 36.1652 44.8586 36.5709V53.7599C44.8586 54.1657 45.2241 54.4976 45.6262 54.4976H48.3675C48.8061 54.4976 49.1351 54.1657 49.1351 53.7599V43.5424L56.9205 54.1656C56.9692 54.2394 57.0301 54.3009 57.1032 54.3501H57.1398C57.1398 54.3747 57.1519 54.387 57.1763 54.387L57.2129 54.4239H57.286V54.4608H57.3591C57.4078 54.4853 57.4687 54.4976 57.5418 54.4976H60.2832C60.7218 54.4976 61.0507 54.1657 61.0507 53.7599Z" fill="#E6E6E6"/>
</svg>
