<svg width="100" height="100" viewBox="0 0 100 100" fill="none" xmlns="http://www.w3.org/2000/svg">
<path fill-rule="evenodd" clip-rule="evenodd" d="M28.3744 22.7218C21.2974 29.7987 20.2647 40.4018 26.159 47.7098C29.6119 51.9907 33.7615 56.7461 38.5077 61.4923C43.2539 66.2385 48.0093 70.3881 52.2902 73.841C59.5982 79.7353 70.2013 78.7026 77.2782 71.6256C77.8106 71.0933 77.8106 70.2302 77.2782 69.6979L68.6054 61.025C67.7235 60.1431 66.3333 60.0281 65.3184 60.753C60.1601 64.4375 53.0941 63.8527 48.6117 59.3703L40.6297 51.3883C36.1473 46.9059 35.5625 39.8399 39.247 34.6816C39.9719 33.6667 39.8569 32.2765 38.975 31.3946L30.3021 22.7218C29.7698 22.1894 28.9067 22.1894 28.3744 22.7218ZM25.3179 19.6653C27.5383 17.4449 31.1382 17.4449 33.3586 19.6653L42.0315 28.3382C44.4075 30.7142 44.7175 34.4597 42.7644 37.194C40.3081 40.6329 40.6979 45.3436 43.6862 48.3318L51.6682 56.3138C54.6565 59.3021 59.3671 59.6919 62.806 57.2356C65.5403 55.2825 69.2858 55.5925 71.6618 57.9685L80.3347 66.6414C82.5551 68.8618 82.5551 72.4617 80.3347 74.6821C71.9196 83.0972 58.8398 84.6769 49.5765 77.2055C45.1985 73.6744 40.3249 69.4224 35.4512 64.5488C30.5776 59.6751 26.3256 54.8015 22.7945 50.4235C15.3231 41.1602 16.9028 28.0804 25.3179 19.6653Z" fill="#E6E6E6"/>
</svg>
