<?xml version="1.0" encoding="utf-8"?>
<!-- Generator: Adobe Illustrator 26.0.1, SVG Export Plug-In . SVG Version: 6.00 Build 0)  -->
<svg version="1.1" id="圖層_1" xmlns="http://www.w3.org/2000/svg" xmlns:xlink="http://www.w3.org/1999/xlink" x="0px" y="0px"
	 viewBox="0 0 30 31" style="enable-background:new 0 0 30 31;" xml:space="preserve">
<style type="text/css">
	.st0{fill-rule:evenodd;clip-rule:evenodd;}
</style>
<path class="st0" d="M15,4c-1.7,0-3.6,0-5.5,0.1l-0.1,0C7.5,4.2,6,4.2,4.7,4.4C3.5,4.6,2.4,5.1,1.6,6C0.7,6.9,0.3,8,0.2,9.4
	c-0.2,1.3-0.2,3-0.2,5v2.2c0,2.1,0,3.7,0.2,5C0.3,23,0.7,24.1,1.6,25c0.8,0.9,1.9,1.3,3.2,1.6c1.2,0.2,2.8,0.3,4.7,0.3l0.1,0
	C11.4,27,13.3,27,15,27s3.6,0,5.5-0.1l0.1,0c1.9-0.1,3.5-0.1,4.7-0.3c1.3-0.2,2.3-0.6,3.2-1.6c0.8-0.9,1.2-2,1.4-3.4
	c0.2-1.3,0.2-3,0.2-5v-2.2c0-2.1,0-3.7-0.2-5C29.7,8,29.3,6.9,28.4,6c-0.8-0.9-1.9-1.3-3.2-1.6c-1.2-0.2-2.8-0.3-4.7-0.3l-0.1,0
	C18.7,4,16.8,4,15,4z M13.4,19.4c-0.2,0.1-0.3,0.1-0.5,0.1c-0.2,0-0.4-0.1-0.5-0.1c-0.2-0.1-0.3-0.2-0.4-0.4
	c-0.1-0.2-0.1-0.4-0.1-0.5v-5.9c0-0.2,0-0.4,0.1-0.5c0.1-0.2,0.2-0.3,0.4-0.4c0.2-0.1,0.3-0.1,0.5-0.1c0.2,0,0.4,0,0.5,0.1l4.9,2.9
	c0.2,0.1,0.3,0.2,0.4,0.4c0.1,0.2,0.1,0.4,0.1,0.6s0,0.4-0.1,0.6c-0.1,0.2-0.2,0.3-0.4,0.4L13.4,19.4z"/>
</svg>
