<svg width="16" height="13" viewBox="0 0 16 13" fill="none" xmlns="http://www.w3.org/2000/svg">
<path d="M8 12.8782L7.53521 12.4536C6.1891 11.2389 5.07798 10.2066 4.20187 9.35671C3.3259 8.50671 2.64083 7.76469 2.14667 7.13067C1.6525 6.49664 1.31007 5.92692 1.11937 5.4215C0.928679 4.91622 0.833332 4.40768 0.833332 3.89587C0.833332 2.90546 1.17951 2.06414 1.87187 1.37192C2.5641 0.679554 3.40542 0.333374 4.39583 0.333374C5.08708 0.333374 5.7468 0.51393 6.375 0.875041C7.00319 1.23615 7.54486 1.76073 8 2.44879C8.45514 1.76073 8.9968 1.23615 9.625 0.875041C10.2532 0.51393 10.9129 0.333374 11.6042 0.333374C12.5946 0.333374 13.4359 0.679554 14.1281 1.37192C14.8205 2.06414 15.1667 2.90546 15.1667 3.89587C15.1667 4.40768 15.0748 4.90928 14.891 5.40067C14.7073 5.89219 14.3683 6.4515 13.8742 7.07858C13.38 7.70567 12.6941 8.45115 11.8165 9.31504C10.9388 10.1788 9.80771 11.2389 8.42312 12.4952L8 12.8782Z" fill="white"/>
</svg>
