<svg width="18" height="19" viewBox="0 0 18 19" fill="none" xmlns="http://www.w3.org/2000/svg">
<path d="M0.0215501 9.36889C-0.0262426 7.84805 0.00547182 6.32576 0.116564 4.80824C0.251687 3.62387 0.820291 2.5314 1.71287 1.74127C2.60544 0.951148 3.75883 0.519269 4.95084 0.528829C7.64162 0.503492 10.3337 0.503492 13.027 0.528829C13.681 0.52878 14.3284 0.658559 14.9319 0.910646C15.5353 1.16273 16.0827 1.53211 16.5423 1.99736C17.0019 2.46261 17.3645 3.01446 17.6092 3.62093C17.8539 4.2274 17.9757 4.87642 17.9677 5.53034C18.0108 8.20593 18.0108 10.8815 17.9677 13.5571C17.9527 14.8669 17.4213 16.1179 16.489 17.0381C15.5567 17.9583 14.2989 18.4733 12.989 18.4712C10.3312 18.4965 7.67077 18.4965 5.00786 18.4712C4.3508 18.4717 3.70013 18.3423 3.09323 18.0905C2.48633 17.8388 1.93518 17.4695 1.47146 17.004C1.00773 16.5385 0.640574 15.986 0.391096 15.3781C0.141619 14.7703 0.0147408 14.1191 0.0177459 13.4621C0.0177459 12.1167 0.0177459 10.7713 0.0177459 9.42209C0.025347 9.37649 0.0215501 9.39169 0.0215501 9.36889ZM13.9923 9.4829C13.9915 8.49311 13.6966 7.52588 13.145 6.70402C12.5934 5.88217 11.8101 5.24276 10.8944 4.86698C9.9787 4.4912 8.972 4.396 8.00211 4.59347C7.03221 4.79094 6.14286 5.27218 5.447 5.97607C4.75113 6.67997 4.28013 7.57477 4.09379 8.54687C3.90746 9.51896 4.01422 10.5245 4.40048 11.4358C4.78674 12.3471 5.43509 13.1231 6.26322 13.6652C7.09135 14.2074 8.06188 14.4912 9.05162 14.4806C10.3675 14.4666 11.6247 13.9337 12.5499 12.9979C13.475 12.0621 13.9934 10.7989 13.9923 9.4829ZM15.9686 3.50465C15.9747 3.3723 15.9529 3.24015 15.9047 3.11675C15.8564 2.99335 15.7828 2.88145 15.6886 2.78831C15.5944 2.69516 15.4816 2.62284 15.3577 2.57602C15.2337 2.5292 15.1013 2.50892 14.9691 2.51651C14.7108 2.51534 14.4621 2.61457 14.2756 2.79327C14.0891 2.97197 13.9794 3.21615 13.9695 3.47425C13.9747 3.74106 14.0799 3.99619 14.2643 4.18907C14.4488 4.38195 14.699 4.49849 14.9653 4.51559C15.0977 4.5156 15.2288 4.4894 15.351 4.4385C15.4732 4.3876 15.5842 4.31302 15.6774 4.21904C15.7707 4.12507 15.8445 4.01356 15.8944 3.89095C15.9444 3.76834 15.9696 3.63705 15.9686 3.50465Z" fill="white"/>
<path d="M11.9705 9.52487C11.963 10.1119 11.782 10.6836 11.4503 11.1681C11.1187 11.6525 10.6511 12.028 10.1065 12.2473C9.5619 12.4666 8.96461 12.5199 8.38978 12.4005C7.81495 12.2811 7.28829 11.9944 6.87606 11.5763C6.46383 11.1583 6.18445 10.6277 6.0731 10.0513C5.96176 9.47481 6.02342 8.87831 6.2503 8.33683C6.47719 7.79535 6.85917 7.33308 7.34818 7.0082C7.83719 6.68331 8.41139 6.51034 8.99848 6.51104C9.39334 6.50737 9.78491 6.58313 10.1499 6.73381C10.5149 6.8845 10.8458 7.10704 11.1231 7.3882C11.4003 7.66936 11.6183 8.0034 11.7638 8.37046C11.9094 8.73752 11.9797 9.13011 11.9705 9.52487Z" fill="white"/>
</svg>
