<svg width="75" height="45" viewBox="0 0 75 45" fill="none" xmlns="http://www.w3.org/2000/svg">
<g clip-path="url(#clip0_4_60)">
<path d="M37.493 39.7141V44.9454C32.8519 44.9454 28.7152 43.0583 26.0694 40.1313C24.1935 38.0553 23.0675 35.457 23.0434 32.6368L23.001 32.0864L22.656 27.5846V27.5742C22.656 23.6376 18.9939 20.3795 14.4067 20.3315C13.5197 20.322 12.6634 20.432 11.8583 20.6437C8.46894 21.5351 6.16041 24.2289 6.06934 27.2699C6.02357 28.7927 5.90166 31.4977 5.86408 32.3097C5.85299 32.5479 5.85299 32.7869 5.87516 33.0246C6.21197 36.6598 10.3443 39.5806 14.6067 39.7282V44.9627C9.97664 44.8701 5.574 42.8792 3.00431 39.8853C1.24509 37.8366 0.202853 35.3094 0.195143 32.5781C0.195143 32.5781 -0.469324 26.0461 0.654344 23.4222C1.22196 22.097 1.99677 20.8595 3.00383 19.777C5.65351 16.9282 9.73379 15.0999 14.3027 15.0999C18.8715 15.0999 23.2515 17.0659 25.8882 20.0962C27.6681 22.1408 28.7301 24.67 28.7528 27.4084L29.0983 31.9293L29.1392 32.4606V32.5462C29.1392 36.499 32.887 39.7145 37.493 39.7145V39.7141Z" fill="#29ABE2"/>
<path d="M18.5541 8.58369C20.8325 6.62861 20.8325 3.4588 18.5541 1.50372C16.2757 -0.451363 12.5817 -0.451363 10.3033 1.50372C8.02492 3.4588 8.02492 6.62861 10.3033 8.58369C12.5817 10.5388 16.2757 10.5388 18.5541 8.58369Z" fill="#29ABE2"/>
<path d="M37.4786 39.7517V44.983C42.1197 44.983 46.2564 43.0959 48.9022 40.1689C50.778 38.0929 51.9041 35.4946 51.9282 32.6744L51.9706 32.124L52.3156 27.6222V27.6118C52.3156 23.6752 55.9776 20.417 60.5648 20.3691C61.4519 20.3596 62.3081 20.4696 63.1133 20.6813C66.5026 21.5727 68.8111 24.2665 68.9022 27.3075C68.948 28.8303 69.0699 31.5353 69.1075 32.3473C69.1186 32.5855 69.1186 32.8245 69.0964 33.0622C68.7596 36.6974 64.6273 39.6182 60.3649 39.7658V45.0003C64.9949 44.9077 69.3976 42.9168 71.9672 39.9229C73.7265 37.8742 74.7687 35.347 74.7764 32.6157C74.7764 32.6157 75.5108 26.1742 74.3172 23.4598C73.7366 22.1392 72.9748 20.8971 71.9677 19.8146C69.3181 16.9658 65.2378 15.1375 60.6689 15.1375C56.1 15.1375 51.72 17.1035 49.0834 20.1338C47.3034 22.1784 46.2414 24.7076 46.2188 27.446L45.8733 31.9669L45.8323 32.4982V32.5838C45.8323 36.5366 42.0845 39.7521 37.4786 39.7521V39.7517Z" fill="#FBB03B"/>
<path d="M60.6487 10.0126C63.8708 10.0126 66.4829 7.77119 66.4829 5.00629C66.4829 2.24139 63.8708 0 60.6487 0C57.4265 0 54.8145 2.24139 54.8145 5.00629C54.8145 7.77119 57.4265 10.0126 60.6487 10.0126Z" fill="#FBB03B"/>
<path d="M60.3764 44.954C52.4211 44.954 45.9465 39.4089 45.9263 32.5863L45.7914 27.5068C45.7914 23.554 42.0441 20.3385 37.4376 20.3385C32.8311 20.3385 29.0838 23.554 29.0838 27.5068V27.5176L29.0597 32.5627C29.0539 39.3961 22.5741 44.954 14.6096 44.954V39.7228C19.2161 39.7228 22.9634 36.5072 22.9634 32.5544V32.5437L22.9875 27.5018C22.9909 20.6668 29.4717 15.1077 37.4376 15.1077C45.4035 15.1077 51.868 20.6527 51.8877 27.4758L52.0226 32.5549C52.0226 36.5076 55.77 39.7232 60.3764 39.7232V44.9544V44.954Z" fill="#1B1464"/>
<path d="M37.4925 10.058C40.7147 10.058 43.3267 7.8166 43.3267 5.0517C43.3267 2.2868 40.7147 0.0454102 37.4925 0.0454102C34.2704 0.0454102 31.6583 2.2868 31.6583 5.0517C31.6583 7.8166 34.2704 10.058 37.4925 10.058Z" fill="#1B1464"/>
</g>
<defs>
<clipPath id="clip0_4_60">
<rect width="75" height="45" fill="white"/>
</clipPath>
</defs>
</svg>
