<svg width="25" height="21" viewBox="0 0 25 21" fill="none" xmlns="http://www.w3.org/2000/svg">
<path d="M5.1155 17.071C4.65517 17.071 4.27083 16.9169 3.9625 16.6085C3.65417 16.3002 3.5 15.9159 3.5 15.4555V4.68654C3.5 4.22621 3.65417 3.84188 3.9625 3.53354C4.27083 3.22521 4.65517 3.07104 5.1155 3.07104H19.8845C20.3448 3.07104 20.7292 3.22521 21.0375 3.53354C21.3458 3.84188 21.5 4.22621 21.5 4.68654V15.4555C21.5 15.9159 21.3458 16.3002 21.0375 16.6085C20.7292 16.9169 20.3448 17.071 19.8845 17.071H5.1155ZM12.5 10.1865L4.5 4.95555V15.4555C4.5 15.635 4.55767 15.7825 4.673 15.898C4.7885 16.0134 4.936 16.071 5.1155 16.071H19.8845C20.064 16.071 20.2115 16.0134 20.327 15.898C20.4423 15.7825 20.5 15.635 20.5 15.4555V4.95555L12.5 10.1865ZM12.5 9.07104L20.1923 4.07104H4.80775L12.5 9.07104ZM4.5 4.95555V4.07104V15.4555C4.5 15.635 4.55767 15.7825 4.673 15.898C4.7885 16.0134 4.936 16.071 5.1155 16.071H4.5V4.95555Z" fill="#1E1E1E"/>
</svg>
