<svg width="25" height="21" viewBox="0 0 25 21" fill="none" xmlns="http://www.w3.org/2000/svg">
<path d="M12.5 19.071C11.2615 19.071 10.0948 18.8342 9 18.3605C7.90517 17.8867 6.95167 17.2437 6.1395 16.4315C5.32733 15.6194 4.68433 14.6659 4.2105 13.571C3.73683 12.4762 3.5 11.3095 3.5 10.071C3.5 8.82871 3.73683 7.66105 4.2105 6.56805C4.68433 5.47521 5.32733 4.52271 6.1395 3.71055C6.95167 2.89838 7.90517 2.25538 9 1.78154C10.0948 1.30788 11.2615 1.07104 12.5 1.07104C13.7423 1.07104 14.91 1.30788 16.003 1.78154C17.0958 2.25538 18.0483 2.89838 18.8605 3.71055C19.6727 4.52271 20.3157 5.47521 20.7895 6.56805C21.2632 7.66105 21.5 8.82871 21.5 10.071C21.5 11.3095 21.2632 12.4762 20.7895 13.571C20.3157 14.6659 19.6727 15.6194 18.8605 16.4315C18.0483 17.2437 17.0958 17.8867 16.003 18.3605C14.91 18.8342 13.7423 19.071 12.5 19.071ZM12.5 18.0788C13.0872 17.325 13.5712 16.5845 13.952 15.8575C14.3327 15.1307 14.6423 14.3173 14.8807 13.4173H10.1192C10.3834 14.3685 10.6994 15.2075 11.0673 15.9345C11.4353 16.6614 11.9128 17.3761 12.5 18.0788ZM11.227 17.9288C10.7603 17.3788 10.3343 16.699 9.949 15.8893C9.56383 15.0796 9.277 14.2556 9.0885 13.4173H5.25375C5.82692 14.6608 6.63942 15.6806 7.69125 16.4768C8.74325 17.273 9.92183 17.757 11.227 17.9288ZM13.773 17.9288C15.0782 17.757 16.2567 17.273 17.3087 16.4768C18.3606 15.6806 19.1731 14.6608 19.7463 13.4173H15.9115C15.659 14.2685 15.3401 15.0989 14.9548 15.9085C14.5696 16.7182 14.1757 17.3916 13.773 17.9288ZM4.84625 12.4173H8.88075C8.80508 12.007 8.75158 11.6072 8.72025 11.218C8.68875 10.829 8.673 10.4467 8.673 10.071C8.673 9.69538 8.68875 9.31305 8.72025 8.92405C8.75158 8.53488 8.80508 8.13513 8.88075 7.7248H4.84625C4.73725 8.07096 4.65225 8.44821 4.59125 8.85654C4.53042 9.26488 4.5 9.66971 4.5 10.071C4.5 10.4724 4.53042 10.8772 4.59125 11.2855C4.65225 11.6939 4.73725 12.0711 4.84625 12.4173ZM9.88075 12.4173H15.1193C15.1949 12.007 15.2484 11.6136 15.2797 11.2373C15.3112 10.8611 15.327 10.4724 15.327 10.071C15.327 9.66971 15.3112 9.28096 15.2797 8.90479C15.2484 8.52846 15.1949 8.13513 15.1193 7.7248H9.88075C9.80508 8.13513 9.75158 8.52846 9.72025 8.90479C9.68875 9.28096 9.673 9.66971 9.673 10.071C9.673 10.4724 9.68875 10.8611 9.72025 11.2373C9.75158 11.6136 9.80508 12.007 9.88075 12.4173ZM16.1193 12.4173H20.1538C20.2628 12.0711 20.3477 11.6939 20.4088 11.2855C20.4696 10.8772 20.5 10.4724 20.5 10.071C20.5 9.66971 20.4696 9.26488 20.4088 8.85654C20.3477 8.44821 20.2628 8.07096 20.1538 7.7248H16.1193C16.1949 8.13513 16.2484 8.53488 16.2797 8.92405C16.3112 9.31305 16.327 9.69538 16.327 10.071C16.327 10.4467 16.3112 10.829 16.2797 11.218C16.2484 11.6072 16.1949 12.007 16.1193 12.4173ZM15.9115 6.7248H19.7463C19.1602 5.45563 18.3573 4.4358 17.3375 3.6653C16.3177 2.8948 15.1295 2.40438 13.773 2.19404C14.2397 2.80821 14.6593 3.51046 15.0318 4.3008C15.4043 5.0913 15.6975 5.8993 15.9115 6.7248ZM10.1192 6.7248H14.8807C14.6166 5.78646 14.2909 4.93779 13.9038 4.17879C13.5166 3.41979 13.0487 2.71463 12.5 2.0633C11.9513 2.71463 11.4834 3.41979 11.0963 4.17879C10.7091 4.93779 10.3834 5.78646 10.1192 6.7248ZM5.25375 6.7248H9.0885C9.3025 5.8993 9.59575 5.0913 9.96825 4.3008C10.3408 3.51046 10.7603 2.80821 11.227 2.19404C9.85767 2.40438 8.66633 2.89796 7.653 3.6748C6.6395 4.4518 5.83975 5.46846 5.25375 6.7248Z" fill="#1E1E1E"/>
</svg>
