<svg width="24" height="22" viewBox="0 0 24 22" fill="none" xmlns="http://www.w3.org/2000/svg">
<path d="M19.3489 18.4067C19.3524 18.2718 19.3285 18.1375 19.2786 18.0121C19.2288 17.8866 19.154 17.7725 19.0589 17.6767L16.1289 14.6667C16.0005 14.544 15.8417 14.4577 15.6689 14.4167C15.3855 14.3373 15.0826 14.3658 14.8189 14.4967L13.4889 15.2667H13.3489H13.2289L13.0089 15.1567C12.7996 15.0324 12.6051 14.8848 12.4289 14.7167C12.1191 14.4012 11.8286 14.0672 11.5589 13.7167C11.1464 13.1775 10.7786 12.6057 10.4589 12.0067C10.1176 11.4299 9.82006 10.8282 9.56893 10.2067C9.4131 9.79696 9.2894 9.37569 9.19894 8.94673C9.12005 8.61962 9.08972 8.28267 9.10894 7.94673C9.12215 7.89867 9.14608 7.85422 9.17894 7.81673C9.20098 7.77701 9.23175 7.74283 9.26894 7.71674L10.4089 7.07674C10.6139 6.95998 10.7806 6.7863 10.8889 6.57674C10.9989 6.37501 11.0275 6.13888 10.9689 5.91673L10.0489 1.67673C9.99932 1.52743 9.9286 1.386 9.83893 1.25673C9.7412 1.13607 9.60843 1.04872 9.45894 1.00673C9.34847 0.977088 9.2332 0.969791 9.11987 0.985245C9.00654 1.0007 8.89743 1.03859 8.79894 1.09673L5.70894 2.84673C5.54542 2.93189 5.39952 3.04727 5.27894 3.18674C5.08824 3.43469 4.94578 3.71623 4.85894 4.01674C4.76226 4.31508 4.70182 4.62396 4.67893 4.93674C4.64136 5.42268 4.64136 5.91079 4.67893 6.39673C4.71817 7.06986 4.81181 7.7387 4.95894 8.39673C5.14934 9.24352 5.39998 10.0756 5.70894 10.8867C6.11087 11.9241 6.59577 12.9273 7.15893 13.8867C7.80277 15.0977 8.5774 16.2345 9.46894 17.2767C10.1206 18.0403 10.8402 18.7432 11.6189 19.3767C12.1526 19.8126 12.7328 20.1882 13.3489 20.4967C13.8075 20.7113 14.2866 20.8789 14.7789 20.9967C14.9674 21.0313 15.1605 21.0313 15.3489 20.9967C15.5305 20.9704 15.7044 20.9056 15.8589 20.8067L18.9489 19.0867C19.0629 19.0112 19.1581 18.9107 19.2274 18.7929C19.2967 18.6751 19.3383 18.543 19.3489 18.4067Z" fill="#2E2E2E"/>
</svg>
