<svg width="24" height="20" viewBox="0 0 24 20" fill="none" xmlns="http://www.w3.org/2000/svg">
<path d="M12 19C10.7615 19 9.59483 18.7632 8.5 18.2895C7.40517 17.8157 6.45167 17.1727 5.6395 16.3605C4.82733 15.5483 4.18433 14.5948 3.7105 13.5C3.23683 12.4052 3 11.2385 3 10C3 8.75767 3.23683 7.59 3.7105 6.497C4.18433 5.40417 4.82733 4.45167 5.6395 3.6395C6.45167 2.82733 7.40517 2.18433 8.5 1.7105C9.59483 1.23683 10.7615 1 12 1C13.2423 1 14.41 1.23683 15.503 1.7105C16.5958 2.18433 17.5483 2.82733 18.3605 3.6395C19.1727 4.45167 19.8157 5.40417 20.2895 6.497C20.7632 7.59 21 8.75767 21 10C21 11.2385 20.7632 12.4052 20.2895 13.5C19.8157 14.5948 19.1727 15.5483 18.3605 16.3605C17.5483 17.1727 16.5958 17.8157 15.503 18.2895C14.41 18.7632 13.2423 19 12 19ZM12 18.0077C12.5872 17.2539 13.0712 16.5135 13.452 15.7865C13.8327 15.0597 14.1423 14.2463 14.3807 13.3463H9.61925C9.88342 14.2974 10.1994 15.1365 10.5673 15.8635C10.9353 16.5903 11.4128 17.3051 12 18.0077ZM10.727 17.8577C10.2603 17.3078 9.83433 16.6279 9.449 15.8182C9.06383 15.0086 8.777 14.1846 8.5885 13.3463H4.75375C5.32692 14.5898 6.13942 15.6096 7.19125 16.4057C8.24325 17.2019 9.42183 17.6859 10.727 17.8577ZM13.273 17.8577C14.5782 17.6859 15.7567 17.2019 16.8087 16.4057C17.8606 15.6096 18.6731 14.5898 19.2463 13.3463H15.4115C15.159 14.1974 14.8401 15.0278 14.4548 15.8375C14.0696 16.6472 13.6757 17.3206 13.273 17.8577ZM4.34625 12.3463H8.38075C8.30508 11.9359 8.25158 11.5362 8.22025 11.147C8.18875 10.758 8.173 10.3757 8.173 10C8.173 9.62433 8.18875 9.242 8.22025 8.853C8.25158 8.46383 8.30508 8.06408 8.38075 7.65375H4.34625C4.23725 7.99992 4.15225 8.37717 4.09125 8.7855C4.03042 9.19383 4 9.59867 4 10C4 10.4013 4.03042 10.8062 4.09125 11.2145C4.15225 11.6228 4.23725 12.0001 4.34625 12.3463ZM9.38075 12.3463H14.6193C14.6949 11.9359 14.7484 11.5426 14.7797 11.1663C14.8112 10.7901 14.827 10.4013 14.827 10C14.827 9.59867 14.8112 9.20992 14.7797 8.83375C14.7484 8.45742 14.6949 8.06408 14.6193 7.65375H9.38075C9.30508 8.06408 9.25158 8.45742 9.22025 8.83375C9.18875 9.20992 9.173 9.59867 9.173 10C9.173 10.4013 9.18875 10.7901 9.22025 11.1663C9.25158 11.5426 9.30508 11.9359 9.38075 12.3463ZM15.6193 12.3463H19.6538C19.7628 12.0001 19.8477 11.6228 19.9088 11.2145C19.9696 10.8062 20 10.4013 20 10C20 9.59867 19.9696 9.19383 19.9088 8.7855C19.8477 8.37717 19.7628 7.99992 19.6538 7.65375H15.6193C15.6949 8.06408 15.7484 8.46383 15.7797 8.853C15.8112 9.242 15.827 9.62433 15.827 10C15.827 10.3757 15.8112 10.758 15.7797 11.147C15.7484 11.5362 15.6949 11.9359 15.6193 12.3463ZM15.4115 6.65375H19.2463C18.6602 5.38458 17.8573 4.36475 16.8375 3.59425C15.8177 2.82375 14.6295 2.33333 13.273 2.123C13.7397 2.73717 14.1593 3.43942 14.5318 4.22975C14.9043 5.02025 15.1975 5.82825 15.4115 6.65375ZM9.61925 6.65375H14.3807C14.1166 5.71542 13.7909 4.86675 13.4038 4.10775C13.0166 3.34875 12.5487 2.64358 12 1.99225C11.4513 2.64358 10.9834 3.34875 10.5963 4.10775C10.2091 4.86675 9.88342 5.71542 9.61925 6.65375ZM4.75375 6.65375H8.5885C8.8025 5.82825 9.09575 5.02025 9.46825 4.22975C9.84075 3.43942 10.2603 2.73717 10.727 2.123C9.35767 2.33333 8.16633 2.82692 7.153 3.60375C6.1395 4.38075 5.33975 5.39742 4.75375 6.65375Z" fill="#2E2E2E"/>
</svg>
