<svg id="圖層_1" data-name="圖層 1" xmlns="http://www.w3.org/2000/svg" viewBox="0 0 145 157"><defs><style>.cls-1{fill:#101010;}.cls-2{fill:#fff;}.cls-10,.cls-11,.cls-12,.cls-13,.cls-3,.cls-4,.cls-5,.cls-6,.cls-7,.cls-8,.cls-9{fill:#797a7c;}.cls-10,.cls-11,.cls-12,.cls-13,.cls-4,.cls-5,.cls-6,.cls-7,.cls-8,.cls-9{isolation:isolate;}.cls-4{opacity:0.95;}.cls-5{opacity:0.8;}.cls-6{opacity:0.85;}.cls-7{opacity:0.7;}.cls-8{opacity:0.65;}.cls-9{opacity:0.5;}.cls-10{opacity:0.45;}.cls-11{opacity:0.4;}.cls-12{opacity:0.35;}.cls-13{opacity:0.3;}</style></defs><rect class="cls-1" width="145" height="157"/><path class="cls-2" d="M41.44,107.49V96.07h1.33V106.3h5.12v1.19Z"/><path class="cls-2" d="M57.78,103.19a5.81,5.81,0,0,1-.27,1.89,3.9,3.9,0,0,1-.79,1.4,3.56,3.56,0,0,1-1.25.87,4.6,4.6,0,0,1-1.65.3,4.3,4.3,0,0,1-1.58-.3,3.78,3.78,0,0,1-1.23-.87,4.27,4.27,0,0,1-.81-1.4,6.1,6.1,0,0,1-.28-1.89,5.59,5.59,0,0,1,.48-2.39,3.38,3.38,0,0,1,1.36-1.51,4.13,4.13,0,0,1,2.11-.52,3.79,3.79,0,0,1,2.05.53,3.34,3.34,0,0,1,1.37,1.51A5.12,5.12,0,0,1,57.78,103.19Zm-6.52,0a5.24,5.24,0,0,0,.28,1.79,2.5,2.5,0,0,0,.84,1.18,2.85,2.85,0,0,0,2.93,0,2.39,2.39,0,0,0,.85-1.18,5,5,0,0,0,.28-1.79,4.78,4.78,0,0,0-.28-1.76,2.28,2.28,0,0,0-.84-1.16,2.4,2.4,0,0,0-1.48-.4,2.21,2.21,0,0,0-2,.88A4.31,4.31,0,0,0,51.26,103.19Z"/><path class="cls-2" d="M64,98.79a3.23,3.23,0,0,1,2.28.69,2.79,2.79,0,0,1,.74,2.19v5.82H66l-.15-1.26h-.06a4.6,4.6,0,0,1-.75.78,2.88,2.88,0,0,1-.9.48,4.71,4.71,0,0,1-1.25.16,3.4,3.4,0,0,1-1.44-.25,2.17,2.17,0,0,1-1-.82,2.6,2.6,0,0,1-.35-1.41,2.27,2.27,0,0,1,1-2,5.82,5.82,0,0,1,3.1-.75l1.47-.06v-.52a2,2,0,0,0-.47-1.56,1.83,1.83,0,0,0-1.35-.44,4,4,0,0,0-1.28.19,7.45,7.45,0,0,0-1.15.46l-.4-1A6.75,6.75,0,0,1,62.39,99,5.35,5.35,0,0,1,64,98.79Zm1.74,4.48-1.31.06a4.22,4.22,0,0,0-2.25.52,1.5,1.5,0,0,0-.66,1.31,1.31,1.31,0,0,0,.45,1.08,1.85,1.85,0,0,0,1.18.35A2.76,2.76,0,0,0,65,106a2.35,2.35,0,0,0,.73-1.9Z"/><path class="cls-2" d="M73.56,107.65A3.26,3.26,0,0,1,71,106.54,6.17,6.17,0,0,1,71,99.9a3.25,3.25,0,0,1,2.58-1.13,3.41,3.41,0,0,1,1.19.18,2.88,2.88,0,0,1,1.49,1.17h.1c0-.23-.05-.45-.07-.67V95.34h1.31v12.15h-1l-.2-1.22h0a3.18,3.18,0,0,1-.62.7,2.87,2.87,0,0,1-.87.49A3.78,3.78,0,0,1,73.56,107.65Zm.2-1.08a2.29,2.29,0,0,0,1.95-.78,3.88,3.88,0,0,0,.57-2.32v-.24a4.53,4.53,0,0,0-.55-2.5,2.08,2.08,0,0,0-2-.88,2,2,0,0,0-1.79.92,4.72,4.72,0,0,0-.59,2.5,4.44,4.44,0,0,0,.59,2.44A2,2,0,0,0,73.76,106.57Z"/><path class="cls-2" d="M81.77,95.73a.78.78,0,0,1,.55.2,1,1,0,0,1,0,1.29.84.84,0,0,1-.55.21.85.85,0,0,1-.56-.21,1,1,0,0,1,0-1.29A.79.79,0,0,1,81.77,95.73Zm.63,3.2v8.56H81.1V98.93Z"/><path class="cls-2" d="M90,98.77a2.71,2.71,0,0,1,3.1,2.28,2.49,2.49,0,0,1,0,.86v5.58H91.8V102a2.24,2.24,0,0,0-.48-1.6,1.88,1.88,0,0,0-1.49-.53,2.25,2.25,0,0,0-2,.8,3.92,3.92,0,0,0-.58,2.34v4.48H85.94V98.93h1l.2,1.23h.06a2.68,2.68,0,0,1,.7-.76,3.19,3.19,0,0,1,.94-.47A3.8,3.8,0,0,1,90,98.77Z"/><path class="cls-2" d="M98.94,111.34a4.65,4.65,0,0,1-2.6-.63,2,2,0,0,1-.91-1.77,2.06,2.06,0,0,1,.51-1.37,2.48,2.48,0,0,1,1.42-.76,1.57,1.57,0,0,1-.58-.47,1.24,1.24,0,0,1-.24-.72,1.39,1.39,0,0,1,.27-.82,2.73,2.73,0,0,1,.8-.68,2.41,2.41,0,0,1-1.09-.93,2.74,2.74,0,0,1-.41-1.52,3.06,3.06,0,0,1,.37-1.57,2.5,2.5,0,0,1,1.11-1,4,4,0,0,1,1.77-.34,3.53,3.53,0,0,1,.46,0l.44,0a1.55,1.55,0,0,1,.36.08h2.94v.84l-1.58.19a2.85,2.85,0,0,1,.55,1.74,2.59,2.59,0,0,1-.87,2,3.55,3.55,0,0,1-2.38.75c-.25,0-.49,0-.73-.06a1.68,1.68,0,0,0-.59.47.89.89,0,0,0-.19.59.52.52,0,0,0,.15.4.86.86,0,0,0,.44.21,3.11,3.11,0,0,0,.69.07h1.51a3.44,3.44,0,0,1,2.15.59,2.09,2.09,0,0,1,.74,1.71,2.48,2.48,0,0,1-1.15,2.18A6.35,6.35,0,0,1,98.94,111.34Zm0-1a6.11,6.11,0,0,0,1.76-.22,2.18,2.18,0,0,0,1.06-.61,1.53,1.53,0,0,0,.35-1,1,1,0,0,0-.92-1.13,5.2,5.2,0,0,0-1.11-.09H98.62a2.46,2.46,0,0,0-1,.18A1.54,1.54,0,0,0,97,108a1.78,1.78,0,0,0-.23.88,1.21,1.21,0,0,0,.59,1.06,3.32,3.32,0,0,0,1.66.38Zm.34-6.84a2,2,0,0,0,1.4-.47,1.83,1.83,0,0,0,.47-1.37,1.93,1.93,0,0,0-.48-1.44,1.86,1.86,0,0,0-1.41-.48,1.79,1.79,0,0,0-1.37.49,2.06,2.06,0,0,0-.48,1.45A1.84,1.84,0,0,0,97.9,103a2,2,0,0,0,1.42.45Z"/><circle class="cls-3" cx="72.28" cy="49.05" r="3.39"/><circle class="cls-4" cx="80.81" cy="51.67" r="3.08"/><circle class="cls-5" cx="86.63" cy="58.47" r="2.94"/><circle class="cls-6" cx="87.76" cy="67.51" r="2.7"/><circle class="cls-7" cx="83.89" cy="75.58" r="2.45"/><circle class="cls-8" cx="76.07" cy="80.23" r="2.19"/><circle class="cls-9" cx="67.22" cy="79.74" r="2.06"/><circle class="cls-10" cx="59.73" cy="74.46" r="1.77"/><circle class="cls-11" cx="56.59" cy="66.11" r="1.51"/><circle class="cls-12" cx="58.54" cy="57.29" r="1.29"/><circle class="cls-13" cx="64.9" cy="50.93" r="1.06"/></svg>