<svg id="圖層_1" data-name="圖層 1" xmlns="http://www.w3.org/2000/svg" viewBox="0 0 145 157"><defs><style>.cls-1{fill:#101010;}.cls-2{fill:#7a7b7c;}.cls-3{fill:#ababac;}.cls-4{fill:#fff;}</style></defs><rect class="cls-1" width="145" height="157"/><path class="cls-2" d="M88,75H73.47l-1.09,1.1h16.2a.55.55,0,0,0,.55-.55V59.33L88,60.42Zm.55-27.85H51a.55.55,0,0,0-.55.55V75.53a.55.55,0,0,0,.55.55H69.37l1.1-1.1H51.53V48.23H88v9.19l1.1-1.1V47.68A.55.55,0,0,0,88.58,47.13Z"/><path class="cls-3" d="M76.89,63.29l2.51,2.76-.78.78L76.4,64.39l-3.66,2.55a.56.56,0,0,1-.71-.07l-5.92-6-8.63,9.79a.54.54,0,0,1-.42.19.51.51,0,0,1-.36-.14.54.54,0,0,1-.05-.77l9-10.24a.53.53,0,0,1,.8,0l6,6.12,3.68-2.56A.55.55,0,0,1,76.89,63.29Z"/><path class="cls-3" d="M82.87,70.68a.56.56,0,0,1-.78,0l-2-2.24.78-.78L82.9,69.9A.55.55,0,0,1,82.87,70.68Z"/><path class="cls-3" d="M77.17,53.19A2.79,2.79,0,1,0,80,56,2.79,2.79,0,0,0,77.17,53.19Zm0,4.47A1.69,1.69,0,1,1,78.86,56,1.69,1.69,0,0,1,77.17,57.66Z"/><path class="cls-2" d="M67.57,81a.54.54,0,0,1-.39-.16.56.56,0,0,1,0-.78L93.63,53.57a.55.55,0,0,1,.78.78L68,80.8A.54.54,0,0,1,67.57,81Z"/><path class="cls-4" d="M47,106H45.48l-6.23-9.6h-.06c0,.26,0,.55.05.87s0,.68,0,1,0,.74,0,1.12V106H38.08V94.6H39.6l6.2,9.57h.06c0-.18,0-.44,0-.78s0-.7,0-1.09,0-.74,0-1.08V94.6H47Z"/><path class="cls-4" d="M57.31,101.73a6.05,6.05,0,0,1-.27,1.88,3.9,3.9,0,0,1-.79,1.4,3.36,3.36,0,0,1-1.25.87,4.26,4.26,0,0,1-1.65.3,4,4,0,0,1-1.57-.3,3.49,3.49,0,0,1-1.24-.87,4.07,4.07,0,0,1-.8-1.4,5.75,5.75,0,0,1-.29-1.88,5.39,5.39,0,0,1,.48-2.39,3.4,3.4,0,0,1,1.36-1.51,4.09,4.09,0,0,1,2.12-.52,3.93,3.93,0,0,1,2.05.52,3.51,3.51,0,0,1,1.36,1.51A5.31,5.31,0,0,1,57.31,101.73Zm-6.51,0a5.35,5.35,0,0,0,.27,1.79,2.58,2.58,0,0,0,3.78,1.17,2.51,2.51,0,0,0,.85-1.17,5.35,5.35,0,0,0,.27-1.79A5.23,5.23,0,0,0,55.7,100a2.41,2.41,0,0,0-.85-1.15,2.48,2.48,0,0,0-1.47-.41,2.24,2.24,0,0,0-2,.88A4.17,4.17,0,0,0,50.8,101.73Z"/><path class="cls-4" d="M64.38,94.26a.81.81,0,0,1,.55.21,1,1,0,0,1,0,1.28.81.81,0,0,1-.55.21.76.76,0,0,1-.56-.21,1,1,0,0,1,0-1.28A.76.76,0,0,1,64.38,94.26Zm.63,3.2V106h-1.3V97.46Z"/><path class="cls-4" d="M77.05,97.31a2.82,2.82,0,0,1,2.13.74,3.29,3.29,0,0,1,.72,2.37V106H78.62v-5.55a2.34,2.34,0,0,0-.45-1.56,1.69,1.69,0,0,0-1.33-.52,2.16,2.16,0,0,0-1.81.72,3.44,3.44,0,0,0-.56,2.12V106H73.18v-5.55a3,3,0,0,0-.2-1.16,1.48,1.48,0,0,0-.59-.69,2,2,0,0,0-1-.23,2.44,2.44,0,0,0-1.37.35,2,2,0,0,0-.74,1,5.21,5.21,0,0,0-.23,1.7V106h-1.3V97.46h1L69,98.68h.07a2.48,2.48,0,0,1,.65-.75,2.76,2.76,0,0,1,.88-.47,3.42,3.42,0,0,1,1-.15,3.36,3.36,0,0,1,1.63.36,2.11,2.11,0,0,1,1,1.11h.07a2.64,2.64,0,0,1,1.16-1.11A3.59,3.59,0,0,1,77.05,97.31Z"/><path class="cls-4" d="M85.77,97.32A3.24,3.24,0,0,1,88,98a2.89,2.89,0,0,1,.74,2.2V106h-.94l-.25-1.27h-.07a4.75,4.75,0,0,1-.75.79,2.58,2.58,0,0,1-.9.47,4.13,4.13,0,0,1-1.25.16,3.38,3.38,0,0,1-1.39-.27,2.13,2.13,0,0,1-1-.83,2.62,2.62,0,0,1-.35-1.4,2.22,2.22,0,0,1,1-2A5.83,5.83,0,0,1,86,101l1.48-.07v-.52A2,2,0,0,0,87,98.82a1.89,1.89,0,0,0-1.34-.45,4.25,4.25,0,0,0-1.29.2,8.36,8.36,0,0,0-1.15.46l-.4-1a7.54,7.54,0,0,1,1.33-.51A5.8,5.8,0,0,1,85.77,97.32Zm1.73,4.49-1.3,0a4.36,4.36,0,0,0-2.26.53,1.48,1.48,0,0,0-.66,1.3,1.31,1.31,0,0,0,.45,1.09,1.86,1.86,0,0,0,1.18.35,2.72,2.72,0,0,0,1.86-.63,2.39,2.39,0,0,0,.73-1.9Z"/><path class="cls-4" d="M93.84,109.87a4.56,4.56,0,0,1-2.6-.63,2,2,0,0,1-.91-1.76,2,2,0,0,1,.51-1.38,2.47,2.47,0,0,1,1.42-.75,1.55,1.55,0,0,1-.58-.47,1.15,1.15,0,0,1-.23-.72,1.3,1.3,0,0,1,.26-.82,2.68,2.68,0,0,1,.8-.69,2.31,2.31,0,0,1-1.09-.92,2.78,2.78,0,0,1-.42-1.52,3.13,3.13,0,0,1,.38-1.58,2.55,2.55,0,0,1,1.11-1,4.09,4.09,0,0,1,1.76-.35l.46,0c.15,0,.3,0,.44.06a3,3,0,0,1,.37.08h2.93v.83l-1.57.2a3.14,3.14,0,0,1,.39.73,2.93,2.93,0,0,1,.15,1,2.55,2.55,0,0,1-.87,2,3.45,3.45,0,0,1-2.38.76,3.68,3.68,0,0,1-.73-.07,1.77,1.77,0,0,0-.58.47.91.91,0,0,0-.2.6.51.51,0,0,0,.15.39.87.87,0,0,0,.44.22,3.36,3.36,0,0,0,.7.07h1.5a3.42,3.42,0,0,1,2.15.58,2.06,2.06,0,0,1,.74,1.71,2.44,2.44,0,0,1-1.15,2.18A6.09,6.09,0,0,1,93.84,109.87Zm0-1a6.18,6.18,0,0,0,1.76-.21,2.15,2.15,0,0,0,1-.62,1.41,1.41,0,0,0,.35-1,1.1,1.1,0,0,0-.24-.78,1.14,1.14,0,0,0-.68-.35,5.85,5.85,0,0,0-1.11-.09H93.52a2.55,2.55,0,0,0-1,.18,1.35,1.35,0,0,0-.66.53,1.49,1.49,0,0,0-.24.87,1.17,1.17,0,0,0,.59,1.06A3.21,3.21,0,0,0,93.88,108.85Zm.34-6.84a1.92,1.92,0,0,0,1.4-.47,1.86,1.86,0,0,0,.47-1.36,2,2,0,0,0-.48-1.45,1.91,1.91,0,0,0-1.41-.48,1.83,1.83,0,0,0-1.37.5,2,2,0,0,0-.48,1.45,1.75,1.75,0,0,0,.49,1.34A1.91,1.91,0,0,0,94.22,102Z"/><path class="cls-4" d="M103.44,97.31a3.49,3.49,0,0,1,1.87.48,3.24,3.24,0,0,1,1.2,1.36,4.78,4.78,0,0,1,.41,2V102H101a3.28,3.28,0,0,0,.75,2.29,2.61,2.61,0,0,0,2,.79,6.75,6.75,0,0,0,1.44-.14,8.31,8.31,0,0,0,1.3-.44v1.14a6.47,6.47,0,0,1-1.29.42,7.28,7.28,0,0,1-1.5.13,4.46,4.46,0,0,1-2.15-.5,3.52,3.52,0,0,1-1.43-1.48,5.12,5.12,0,0,1-.51-2.39,5.74,5.74,0,0,1,.47-2.4,3.43,3.43,0,0,1,3.31-2.1Zm0,1.06a2.13,2.13,0,0,0-1.65.68A3.16,3.16,0,0,0,101,101h4.53a3.54,3.54,0,0,0-.24-1.35,1.89,1.89,0,0,0-.7-.91A2.1,2.1,0,0,0,103.42,98.37Z"/></svg>