<svg width="21" height="20" viewBox="0 0 21 20" fill="none" xmlns="http://www.w3.org/2000/svg">
<path d="M15.2859 9.26961C15.1998 9.22832 15.1123 9.18858 15.0236 9.15053C14.8693 6.30606 13.315 4.6776 10.7052 4.66094C10.6934 4.66086 10.6816 4.66086 10.6698 4.66086C9.10879 4.66086 7.81053 5.32718 7.01146 6.53966L8.44677 7.52425C9.04371 6.61857 9.98054 6.4255 10.6705 6.4255C10.6784 6.4255 10.6864 6.4255 10.6943 6.42557C11.5536 6.43105 12.2021 6.6809 12.6218 7.16813C12.9272 7.52284 13.1315 8.01302 13.2326 8.63165C12.4707 8.50216 11.6468 8.46234 10.7659 8.51284C8.28466 8.65577 6.68949 10.1029 6.79663 12.1137C6.85099 13.1337 7.35914 14.0112 8.2274 14.5845C8.9615 15.0691 9.90698 15.306 10.8896 15.2524C12.1873 15.1812 13.2053 14.6861 13.9155 13.7808C14.4549 13.0933 14.796 12.2024 14.9467 11.0798C15.5651 11.453 16.0234 11.9442 16.2766 12.5346C16.707 13.5382 16.7321 15.1875 15.3864 16.5321C14.2073 17.71 12.79 18.2196 10.6481 18.2353C8.2721 18.2177 6.47519 17.4557 5.30689 15.9705C4.21287 14.5798 3.64747 12.571 3.62638 10C3.64747 7.42894 4.21287 5.42017 5.30689 4.02945C6.47519 2.54426 8.27207 1.78229 10.648 1.76464C13.0413 1.78243 14.8695 2.54806 16.0825 4.04042C16.6773 4.77225 17.1257 5.69258 17.4214 6.76566L19.1033 6.3169C18.745 4.99606 18.1811 3.85789 17.4139 2.91396C15.8588 1.0007 13.5844 0.0203279 10.6539 0H10.6422C7.71767 0.0202573 5.46876 1.00435 3.95795 2.92493C2.61353 4.634 1.92004 7.01205 1.89674 9.99297L1.89667 10L1.89674 10.007C1.92004 12.9879 2.61353 15.366 3.95795 17.0751C5.46876 18.9956 7.71767 19.9798 10.6422 20H10.6539C13.254 19.982 15.0867 19.3013 16.5965 17.7928C18.5718 15.8194 18.5123 13.3457 17.8612 11.8272C17.3942 10.7382 16.5036 9.85377 15.2859 9.26961ZM10.7967 13.4903C9.70922 13.5516 8.57942 13.0634 8.52371 12.0179C8.48242 11.2427 9.0754 10.3777 10.8635 10.2747C11.0682 10.2629 11.2692 10.2571 11.4666 10.2571C12.116 10.2571 12.7236 10.3202 13.276 10.4409C13.07 13.0141 11.8615 13.4319 10.7967 13.4903Z" fill="white"/>
</svg>
