<svg id="圖層_1" data-name="圖層 1" xmlns="http://www.w3.org/2000/svg" viewBox="0 0 23.98 25.38"><defs><style>.cls-1{fill:#24180c;}.cls-2{fill:#fff;}</style></defs><path class="cls-1" d="M19.11,0A16.92,16.92,0,0,1,12,1.57,17,17,0,0,1,4.87,0,11.55,11.55,0,0,1,0,5.86a22.25,22.25,0,0,0,6.24,14.9A26.12,26.12,0,0,0,12,25.38a26.34,26.34,0,0,0,5.76-4.62A22.29,22.29,0,0,0,24,5.86,11.6,11.6,0,0,1,19.11,0Z"/><path class="cls-2" d="M12,18.25a1.86,1.86,0,1,1,1.9-1.83A1.81,1.81,0,0,1,12,18.25Z"/><path class="cls-2" d="M10.53,5.54h3.05a.45.45,0,0,1,.47.46c-.16,2-1,7-1.11,7.44a.67.67,0,0,1-.61.44H11.8a.73.73,0,0,1-.63-.43A73.29,73.29,0,0,1,10.07,6,.45.45,0,0,1,10.53,5.54Z"/></svg>