<svg id="圖層_1" data-name="圖層 1" xmlns="http://www.w3.org/2000/svg" viewBox="0 0 25.48 25.48"><defs><style>.cls-1{fill:#24180c;}.cls-2{fill:#fff;}</style></defs><path class="cls-1" d="M25.48,12.74A12.74,12.74,0,0,1,12.74,25.48c-.41,0-.81,0-1.2-.05a12.75,12.75,0,0,1,0-25.38c.39,0,.79,0,1.2,0A12.75,12.75,0,0,1,25.48,12.74Z"/><path class="cls-2" d="M12.7,19.1a1.87,1.87,0,1,1,1.9-1.84A1.81,1.81,0,0,1,12.7,19.1Z"/><path class="cls-2" d="M11.22,6.38h3a.45.45,0,0,1,.46.46c-.16,2-1,7-1.11,7.45a.68.68,0,0,1-.6.44h-.54a.73.73,0,0,1-.63-.43c-.14-.41-1-5.58-1.1-7.46A.46.46,0,0,1,11.22,6.38Z"/></svg>