<svg id="圖層_1" data-name="圖層 1" xmlns="http://www.w3.org/2000/svg" viewBox="0 0 25.48 25.48"><defs><style>.cls-1{fill:#24180c;}.cls-2{fill:#fff;}</style></defs><path class="cls-1" d="M25.48,12.74A12.74,12.74,0,0,1,12.74,25.48c-.41,0-.81,0-1.2-.05a12.75,12.75,0,0,1,0-25.38c.39,0,.79,0,1.2,0A12.75,12.75,0,0,1,25.48,12.74Z"/><path class="cls-2" d="M19.05,6.12a1.06,1.06,0,0,0-1.48.34L11.05,16.75,7.23,12.93a1.09,1.09,0,0,0-1.53,0,1.07,1.07,0,0,0,0,1.52l4.75,4.75a1,1,0,0,0,.17.11s0,0,.05.05l.08,0,.11.06a1.05,1.05,0,0,0,1.3-.42L19.39,7.61A1.08,1.08,0,0,0,19.05,6.12Z"/></svg>