<svg id="圖層_1" data-name="圖層 1" xmlns="http://www.w3.org/2000/svg" viewBox="0 0 26.79 24.37"><defs><style>.cls-1{fill:#22160c;}.cls-2{fill:#fff;}</style></defs><path class="cls-1" d="M4.53,24.37H22.25a4.45,4.45,0,0,0,4-2A4.46,4.46,0,0,0,26,17.82L17.17,2.48A4.42,4.42,0,0,0,13.39,0,4.45,4.45,0,0,0,9.61,2.48L.75,17.82A4.46,4.46,0,0,0,.5,22.33,4.44,4.44,0,0,0,4.53,24.37Z"/><path class="cls-2" d="M13.35,20.55a1.87,1.87,0,1,1,1.9-1.84A1.81,1.81,0,0,1,13.35,20.55Z"/><path class="cls-2" d="M11.87,7.83h3.05a.45.45,0,0,1,.46.46c-.16,2-1,7-1.11,7.45a.68.68,0,0,1-.6.44h-.53a.7.7,0,0,1-.63-.43,70.39,70.39,0,0,1-1.1-7.46A.45.45,0,0,1,11.87,7.83Z"/></svg>